<?xml version="1.0" standalone="no"?>
<!DOCTYPE svg PUBLIC "-//W3C//DTD SVG 1.1//EN" "http://www.w3.org/Graphics/SVG/1.1/DTD/svg11.dtd" >
<svg xmlns="http://www.w3.org/2000/svg" xmlns:xlink="http://www.w3.org/1999/xlink" version="1.1">
<metadata>
Created by FontForge 20170731 at Tue Feb 16 17:32:38 2016
 By Aleksey,,,
Copyright (c) 2016 by Olivier Gourvat. All rights reserved.
</metadata>
<defs>
<font id="FilsonSoftRegular" horiz-adv-x="680" >
  <font-face 
    font-family="Filson Soft Regular"
    font-weight="400"
    font-stretch="normal"
    units-per-em="1000"
    panose-1="0 0 5 0 0 0 0 0 0 0"
    ascent="800"
    descent="-200"
    x-height="501"
    cap-height="700"
    bbox="-242.054 -290.8 1311 995"
    underline-thickness="50"
    underline-position="-200"
    unicode-range="U+0020-FB04"
  />
<missing-glyph horiz-adv-x="673" 
d="M120 0q-20 0 -20 20v661q0 20 20 20h433q20 0 20 -20v-661q0 -20 -20 -20h-433zM284 278q0 -21 20 -21h20q18 0 21 20q1 13 11 20q2 1 14.5 8.5t19 12t20 14.5t21.5 18t19 20.5t17 24.5t10.5 28t4.5 32q0 59 -44 94.5t-110 35.5q-73 0 -110 -34.5t-37 -76.5q0 -10 4 -30
q4 -16 22 -16h23q20 0 17 22q-2 12 -2 22q0 25 21.5 41t57.5 16q42 0 66 -20t24 -54v-2q0 -33 -20.5 -56.5t-66.5 -51.5q-27 -17 -34.5 -28.5t-8.5 -38.5zM314 95q21 0 35.5 14t14.5 35q0 20 -14.5 34.5t-35.5 14.5q-20 0 -34 -14.5t-14 -34.5q0 -21 14 -35t34 -14z" />
    <glyph glyph-name="f_f" unicode="ff" horiz-adv-x="750" 
d="M144 0q-36 0 -36 36v385h-58q-20 0 -20 21v38q0 21 20 21h58v37q0 195 170 195q98 0 135 -67q15 -29 -19 -45l-20 -7q-17 -4 -24 -1t-20 17q-18 15 -49 15q-68 0 -68 -95v-49h270v37q0 195 170 195q68 0 106.5 -33.5t39.5 -86.5q2 -9 0 -14q-1 -12 -27 -15l-28 -1
q-26 -3 -27 11l-2 8q0 19 -18 31t-42 12q-67 0 -67 -95v-49h109q20 0 20 -21v-38q0 -21 -20 -21h-109v-385q0 -36 -36 -36h-33q-36 0 -36 36v385h-270v-385q0 -36 -36 -36h-33z" />
    <glyph glyph-name="fi" unicode="fi" horiz-adv-x="650" 
d="M144 0q-36 0 -36 36v385h-44q-34 0 -34 35v10q0 35 34 35h44v35q0 58 18 98.5t49.5 61t65 29t74.5 8.5q116 0 164 -80q9 -17 3.5 -29t-23.5 -17l-17 -5q-25 -7 -46 17q-28 27 -76 27q-107 0 -107 -110v-35h322q37 0 37 -37v-428q0 -36 -37 -36h-30q-36 0 -36 36v385h-256
v-385q0 -36 -36 -36h-33z" />
    <glyph glyph-name="fl" unicode="fl" horiz-adv-x="635" 
d="M144 0q-36 0 -36 36v385h-58q-20 0 -20 21v38q0 21 20 21h58v35q0 58 21 99t57 61t72.5 28.5t77.5 8.5q99 0 191 -25q29 -7 29 -40v-632q0 -36 -36 -36h-30q-37 0 -37 36v594q-48 15 -114 15q-32 0 -58 -7.5t-47 -33.5t-21 -68v-35h109q20 0 20 -21v-38q0 -21 -20 -21
h-109v-385q0 -36 -36 -36h-33z" />
    <glyph glyph-name="f_f_i" unicode="ffi" horiz-adv-x="1025" 
d="M910 501q37 0 37 -37v-428q0 -36 -37 -36h-30q-36 0 -36 36v385h-256v-385q0 -36 -36 -36h-33q-36 0 -36 36v385h-270v-385q0 -36 -36 -36h-33q-36 0 -36 36v385h-58q-20 0 -20 21v38q0 21 20 21h58v35q0 197 205 197q61 0 113 -35q15 -10 15 -24t-14 -27l-14 -11
q-19 -18 -49 -2q-22 13 -46 13q-105 0 -105 -111v-35h270v35q0 58 18 98.5t49.5 61t65 29t74.5 8.5q116 0 164 -80q9 -17 3.5 -29t-23.5 -17l-17 -5q-25 -7 -46 17q-28 27 -76 27q-107 0 -107 -110v-35h322z" />
    <glyph glyph-name="f_f_l" unicode="ffl" horiz-adv-x="1009" 
d="M144 0q-36 0 -36 36v385h-58q-20 0 -20 21v38q0 21 20 21h58v35q0 197 205 197q65 0 112 -30q33 -22 1 -51l-13 -11q-18 -18 -49 -4q-19 10 -46 10q-105 0 -105 -111v-35h270v35q0 58 21 99t57 61t72.5 28.5t77.5 8.5q99 0 191 -25q29 -7 29 -40v-632q0 -36 -36 -36h-31
q-36 0 -36 36v594q-48 15 -114 15q-32 0 -58 -7.5t-47 -33.5t-21 -68v-35h109q20 0 20 -21v-38q0 -21 -20 -21h-109v-385q0 -36 -36 -36h-33q-36 0 -36 36v385h-270v-385q0 -36 -36 -36h-33z" />
    <glyph glyph-name="f_f_j" unicode="ffj" horiz-adv-x="1048" 
d="M949 501q20 0 20 -21v-572q0 -69 -47 -106t-112 -37q-70 0 -110 35.5t-40 92.5q0 18 3 36q3 17 23 17h50q21 0 18 -19q-2 -9 -2 -21q0 -25 16 -39t40 -14q26 0 42.5 15t16.5 44v509h-279v-400q0 -21 -20 -21h-65q-20 0 -20 21v400h-270v-385q0 -36 -36 -36h-33
q-36 0 -36 36v385h-58q-20 0 -20 21v38q0 21 20 21h58v35q0 197 205 197q65 0 112 -30q33 -22 1 -51l-13 -11q-19 -18 -49 -4q-19 10 -46 10q-105 0 -105 -111v-35h270v35q0 58 18 98.5t49.5 61t65 29t74.5 8.5q127 0 171 -95q11 -19 -11 -28l-45 -11q-15 -4 -27 9
q-27 38 -83 38q-107 0 -107 -110v-35h361z" />
    <glyph glyph-name="f_j" unicode="fj" horiz-adv-x="673" 
d="M435 -235q-70 0 -110 35.5t-40 92.5q0 18 3 36q3 17 23 17h50q21 0 18 -19q-2 -9 -2 -21q0 -25 16 -39t40 -14q26 0 42.5 15t16.5 44v509h-279v-400q0 -21 -20 -21h-65q-20 0 -20 21v400h-58q-20 0 -20 21v38q0 21 20 21h58v35q0 58 18 98.5t49.5 61t65 29t74.5 8.5
q127 0 171 -95q11 -19 -11 -28l-45 -11q-15 -4 -27 9q-27 38 -83 38q-107 0 -107 -110v-35h361q20 0 20 -21v-572q0 -69 -47 -106t-112 -37z" />
    <glyph glyph-name=".notdef" horiz-adv-x="673" 
d="M120 0q-20 0 -20 20v661q0 20 20 20h433q20 0 20 -20v-661q0 -20 -20 -20h-433zM284 278q0 -21 20 -21h20q18 0 21 20q1 13 11 20q2 1 14.5 8.5t19 12t20 14.5t21.5 18t19 20.5t17 24.5t10.5 28t4.5 32q0 59 -44 94.5t-110 35.5q-73 0 -110 -34.5t-37 -76.5q0 -10 4 -30
q4 -16 22 -16h23q20 0 17 22q-2 12 -2 22q0 25 21.5 41t57.5 16q42 0 66 -20t24 -54v-2q0 -33 -20.5 -56.5t-66.5 -51.5q-27 -17 -34.5 -28.5t-8.5 -38.5zM314 95q21 0 35.5 14t14.5 35q0 20 -14.5 34.5t-35.5 14.5q-20 0 -34 -14.5t-14 -34.5q0 -21 14 -35t34 -14z" />
    <glyph glyph-name=".null" horiz-adv-x="0" 
 />
    <glyph glyph-name="nonmarkingreturn" horiz-adv-x="333" 
 />
    <glyph glyph-name="space" unicode=" " horiz-adv-x="262" 
 />
    <glyph glyph-name="exclam" unicode="!" horiz-adv-x="262" 
d="M123 221q-31 0 -32 29l-22 394v25q0 31 31 31h60q31 0 31 -31v-25l-22 -394q-1 -29 -32 -29h-14zM132 -11q-32 0 -54 21.5t-22 52.5q0 32 22 54t54 22t54 -22.5t22 -53.5t-22 -52.5t-54 -21.5z" />
    <glyph glyph-name="quotedbl" unicode="&#x22;" horiz-adv-x="441" 
d="M102 440q-25 0 -27 26l-9 230q-2 26 25 26h48q28 0 25 -26l-8 -230q-3 -26 -28 -26h-26zM313 440q-25 0 -27 26l-9 230q-2 26 25 26h49q27 0 25 -26l-9 -230q-2 -26 -27 -26h-27z" />
    <glyph glyph-name="numbersign" unicode="#" horiz-adv-x="756" 
d="M166 0q-29 0 -23 29l34 136h-112q-29 0 -23 29l7 29q5 22 29 22h120l57 229h-113q-13 0 -19.5 8t-2.5 21l7 29q6 22 29 22h117l33 124q6 22 29 22h33q29 0 23 -29l-29 -117h131l31 124q7 22 30 22h34q29 0 23 -29l-30 -117h110q13 0 19.5 -8t3.5 -22l-8 -28
q-6 -22 -29 -22h-116l-56 -229h110q30 0 22 -29l-7 -29q-6 -22 -29 -22h-116l-37 -142q-6 -23 -28 -23h-35q-29 0 -23 29l34 136h-131l-36 -142q-6 -23 -28 -23h-35zM286 245h131l56 229h-132z" />
    <glyph glyph-name="dollar" unicode="$" horiz-adv-x="547" 
d="M270 -88q-20 0 -20 20v83q-78 4 -133.5 43.5t-75.5 98.5q-8 20 14 25l51 14q18 4 25 -15q13 -31 44.5 -52t74.5 -25v207l-31 11q-84 27 -119.5 75t-35.5 101q0 75 53.5 123.5t132.5 56.5v90q0 20 20 20h19q20 0 20 -20v-91q65 -7 110 -42.5t63 -89.5q6 -19 -14 -26
l-48 -15q-17 -6 -25 13q-23 59 -86 70v-198l34 -13q77 -24 119 -71.5t42 -103.5q0 -77 -53.5 -127t-141.5 -59v-83q0 -20 -20 -20h-19zM250 411v177q-37 -6 -60.5 -28.5t-23.5 -58.5q0 -59 79 -88zM309 105q44 7 68.5 31.5t24.5 59.5q0 60 -88 92l-5 2v-185z" />
    <glyph glyph-name="percent" unicode="%" horiz-adv-x="900" 
d="M214 356q-76 0 -127.5 51t-51.5 126t51.5 126.5t127.5 51.5t127.5 -51.5t51.5 -126.5q0 -74 -51.5 -125.5t-127.5 -51.5zM242 0q-12 0 -16 7t1 18l368 660q7 15 25 15h36q11 0 15.5 -7t-1.5 -18l-367 -660q-7 -15 -25 -15h-36zM214 431q42 0 69 29t27 73t-27 73.5
t-69 29.5q-41 0 -68.5 -29.5t-27.5 -73.5q0 -43 27.5 -72.5t68.5 -29.5zM687 -11q-76 0 -127.5 51t-51.5 125q0 76 51.5 127.5t127.5 51.5t127.5 -51.5t51.5 -127.5q0 -74 -51.5 -125t-127.5 -51zM687 64q42 0 69 28.5t27 72.5q0 45 -27 74.5t-69 29.5q-41 0 -68.5 -30
t-27.5 -74q0 -43 27.5 -72t68.5 -29z" />
    <glyph glyph-name="ampersand" unicode="&#x26;" horiz-adv-x="795" 
d="M286 -11q-105 0 -175.5 52.5t-70.5 142.5q0 138 189 215q-36 28 -59 70t-23 83q0 43 19.5 75.5t49.5 49.5t61 25.5t60 8.5q72 0 122 -45.5t50 -107.5q0 -55 -44 -105t-103 -75l131 -147l86 117q9 13 25 13h62q13 0 16.5 -7.5t-3.5 -17.5l-129 -169l47 -53q35 -35 73 -35
q34 0 62 16q20 12 28 -7l17 -33q7 -17 -6 -30q-45 -36 -106 -36q-75 0 -139 66l-29 31q-29 -46 -87 -71.5t-124 -25.5zM310 433q102 52 102 120q0 31 -22.5 54.5t-59.5 23.5q-34 0 -57.5 -22t-23.5 -61q0 -60 61 -115zM287 73q90 0 151 80l-156 179q-55 -17 -97 -54.5
t-42 -89.5q0 -50 41.5 -82.5t102.5 -32.5z" />
    <glyph glyph-name="quotesingle" unicode="'" horiz-adv-x="230" 
d="M102 440q-25 0 -27 26l-9 230q-2 26 25 26h48q28 0 25 -26l-8 -230q-3 -26 -28 -26h-26z" />
    <glyph glyph-name="parenleft" unicode="(" horiz-adv-x="317" 
d="M247 -189q-18 -11 -30 4q-27 31 -53.5 71t-55.5 99t-46.5 137t-17.5 161q0 82 17.5 159.5t46.5 136.5t55.5 99t53.5 71q12 15 30 4l29 -18q19 -11 8 -30q-138 -204 -138 -424q0 -216 138 -423q11 -18 -7 -30z" />
    <glyph glyph-name="parenright" unicode=")" horiz-adv-x="317" 
d="M101 -185q-14 -15 -30 -4l-31 17q-18 13 -6 30q137 210 137 423q0 217 -137 424q-12 18 6 30l31 19q16 10 30 -4q27 -32 53 -71.5t55 -99t46.5 -137t17.5 -159.5q0 -83 -17.5 -161t-46.5 -137t-55 -99t-53 -71z" />
    <glyph glyph-name="asterisk" unicode="*" horiz-adv-x="460" 
d="M164 384q-12 -18 -28 -5l-28 20q-18 13 -4 30l73 92l-114 31q-22 7 -14 27l11 34q7 21 27 12l109 -42l-6 119q-1 21 21 21h36q22 0 21 -21l-6 -119l110 42q20 9 28 -12l10 -32q4 -10 0 -18t-13 -10l-115 -31l75 -93q13 -16 -4 -29l-28 -21q-17 -14 -29 5l-65 98z" />
    <glyph glyph-name="plus" unicode="+" horiz-adv-x="550" 
d="M251 73q-21 0 -21 21v169h-169q-21 0 -21 20v49q0 21 21 21h169v168q0 20 21 20h49q21 0 21 -20v-168h168q21 0 21 -21v-49q0 -20 -21 -20h-168v-169q0 -21 -21 -21h-49z" />
    <glyph glyph-name="comma" unicode="," horiz-adv-x="257" 
d="M88 -127q-14 -8 -21 7l-5 10q-8 15 8 21q32 17 48 46.5t16 59.5q-4 -1 -17 -4q-27 -2 -43 15t-17 41q-1 29 18 48t54 19q38 0 54.5 -27t16.5 -57q0 -61 -29.5 -109.5t-82.5 -69.5z" />
    <glyph glyph-name="hyphen" unicode="-" horiz-adv-x="469" 
d="M87 258q-21 0 -21 21v53q0 20 21 20h295q21 0 21 -20v-53q0 -21 -21 -21h-295z" />
    <glyph glyph-name="period" unicode="." horiz-adv-x="261" 
d="M130 -11q-31 0 -53 21.5t-22 52.5q0 32 22 54t53 22q32 0 54 -22.5t22 -53.5t-22 -52.5t-54 -21.5z" />
    <glyph glyph-name="slash" unicode="/" horiz-adv-x="532" 
d="M108 -39h-55q-12 0 -16 7.5t1 18.5l361 733q7 15 24 15h56q12 0 16 -7t-1 -18l-361 -733q-10 -16 -25 -16z" />
    <glyph glyph-name="zero" unicode="0" horiz-adv-x="707" 
d="M353 -11q-137 0 -219.5 103.5t-82.5 257.5q0 155 82.5 258.5t219.5 103.5t220 -104t83 -258t-83 -257.5t-220 -103.5zM353 79q91 0 146 77.5t55 193.5t-55 194t-146 78t-145 -78t-54 -194t54 -193.5t145 -77.5z" />
    <glyph glyph-name="one" unicode="1" horiz-adv-x="377" 
d="M236 0q-37 0 -37 36v541l-122 -55q-35 -16 -47 22l-4 15q-10 33 20 47l182 84q23 10 47 10q27 0 27 -36v-628q0 -36 -36 -36h-30z" />
    <glyph glyph-name="two" unicode="2" horiz-adv-x="610" 
d="M96 0q-33 0 -39 32l-2 7q-6 26 16 48l267 241q99 86 99 165q0 59 -39 93.5t-104 34.5q-113 0 -137 -81q-9 -33 -39 -33h-32q-18 0 -28 10t-6 27q13 68 72 117.5t170 49.5q112 0 178.5 -58.5t66.5 -158.5q0 -72 -33.5 -124.5t-94.5 -105.5l-200 -178v-4q57 5 156 5h164
q36 0 36 -37v-14q0 -36 -36 -36h-435z" />
    <glyph glyph-name="three" unicode="3" horiz-adv-x="610" 
d="M278 -11q-134 0 -219 62q-26 18 -5 44l19 21q18 23 44 5q65 -40 160 -40q84 0 131.5 46t47.5 103q0 59 -44.5 98t-110.5 39q-42 0 -75 -16q-28 -14 -44 7l-11 13q-18 23 3 44l204 198h-283q-31 0 -31 32v24q0 31 31 31h409q31 0 31 -31v-10q0 -22 -17 -39l-193 -176
q26 0 43 -4q81 -13 136 -68t55 -141q0 -105 -75.5 -173.5t-205.5 -68.5z" />
    <glyph glyph-name="four" unicode="4" horiz-adv-x="673" 
d="M422 0q-32 0 -32 32v155h-336q-31 0 -31 31v16q0 23 15 39l373 410q16 17 40 17h11q31 0 31 -32v-395h120q32 0 32 -32v-23q0 -31 -32 -31h-120v-155q0 -32 -31 -32h-40zM148 273h242v262z" />
    <glyph glyph-name="five" unicode="5" horiz-adv-x="603" 
d="M286 -11q-123 0 -210 59q-31 20 -5 51l12 14q19 23 51 6q31 -17 74.5 -27.5t78.5 -10.5q86 0 131 43.5t45 110.5q0 56 -42.5 98t-118.5 42t-138 -36q-27 -15 -50 -4l-18 8q-27 12 -26 44l18 278q1 35 37 35h351q36 0 36 -36v-14q0 -37 -36 -37h-294l-16 -201
q57 54 152 54q110 0 177.5 -68.5t67.5 -162.5q0 -111 -73 -178.5t-204 -67.5z" />
    <glyph glyph-name="six" unicode="6" horiz-adv-x="633" 
d="M338 -11q-133 0 -209.5 94.5t-76.5 250.5q0 163 79 270t220 107q99 0 171 -53q29 -23 0 -52l-15 -13q-21 -20 -51 -2q-42 28 -103 28q-86 0 -141.5 -71t-55.5 -189q67 98 191 98q101 0 173.5 -65.5t72.5 -168.5q0 -102 -71 -168t-184 -66zM333 81q66 0 111.5 40t45.5 103
t-45.5 103t-111.5 40q-67 0 -116.5 -40.5t-49.5 -102.5q0 -63 49 -103t117 -40z" />
    <glyph glyph-name="seven" unicode="7" horiz-adv-x="547" 
d="M117 0q-19 0 -25.5 11t3.5 27l326 575h-360q-31 0 -31 32v24q0 31 31 31h442q31 0 31 -31v-19q0 -21 -10 -38l-324 -590q-12 -22 -37 -22h-46z" />
    <glyph glyph-name="eight" unicode="8" horiz-adv-x="660" 
d="M330 -11q-121 0 -201 62t-80 154q0 55 38.5 102t98.5 68q-48 21 -77.5 59.5t-29.5 84.5q0 82 71 137t180 55t180 -55t71 -137q0 -46 -29.5 -84.5t-77.5 -59.5q60 -21 98.5 -68t38.5 -102q0 -92 -80 -154t-201 -62zM331 405q67 0 106.5 34t39.5 78q0 45 -41 74.5
t-106 29.5q-66 0 -106.5 -29.5t-40.5 -74.5q0 -50 40 -81t108 -31zM330 79q77 0 126.5 36.5t49.5 90.5q0 52 -46 88t-128 36q-84 0 -131 -34t-47 -90q0 -54 49.5 -90.5t126.5 -36.5z" />
    <glyph glyph-name="nine" unicode="9" horiz-adv-x="629" 
d="M294 711q133 0 209.5 -94t76.5 -251q0 -163 -79 -270t-220 -107q-99 0 -171 53q-29 23 0 52l15 13q21 20 51 2q42 -28 103 -28q86 0 141.5 71t55.5 189q-67 -98 -191 -98q-101 0 -173.5 65.5t-72.5 168.5q0 102 71 168t184 66zM299 619q-66 0 -111 -40t-45 -103t45 -103
t111 -40q67 0 116.5 40.5t49.5 102.5q0 63 -49 103t-117 40z" />
    <glyph glyph-name="colon" unicode=":" horiz-adv-x="283" 
d="M141 362q-31 0 -53 22t-22 53t22 53t53 22q32 0 54 -22t22 -53t-22 -53t-54 -22zM141 -11q-31 0 -53 21.5t-22 52.5q0 32 22 54t53 22t53.5 -22.5t22.5 -53.5t-22 -52.5t-54 -21.5z" />
    <glyph glyph-name="semicolon" unicode=";" horiz-adv-x="280" 
d="M140 362q-32 0 -53.5 22t-21.5 53t21.5 53t53.5 22t54 -22t22 -53t-22 -53t-54 -22zM99 -127q-14 -9 -21 7l-5 10q-8 15 8 21q32 17 48 46.5t16 59.5q-5 -1 -17 -4q-27 -2 -43 15t-17 41q-1 29 18 48t54 19q38 0 54.5 -27t16.5 -57q0 -61 -29.5 -109.5t-82.5 -69.5z" />
    <glyph glyph-name="less" unicode="&#x3c;" horiz-adv-x="575" 
d="M491 44l-438 180q-15 8 -15 24v55q0 17 15 24l438 181q10 4 17 -0.5t7 -15.5v-49q0 -17 -17 -23l-370 -144l370 -144q17 -6 17 -24v-48q0 -26 -24 -16z" />
    <glyph glyph-name="equal" unicode="=" horiz-adv-x="609" 
d="M91 423q-21 0 -21 20v48q0 21 21 21h428q20 0 20 -21v-48q0 -20 -20 -20h-428zM91 156q-21 0 -21 21v48q0 20 21 20h428q20 0 20 -20v-48q0 -21 -20 -21h-428z" />
    <glyph glyph-name="greater" unicode="&#x3e;" horiz-adv-x="575" 
d="M85 44q-24 -10 -24 16v48q0 18 16 24l370 144l-370 144q-16 6 -16 23v49q0 11 6.5 15.5t17.5 0.5l437 -181q16 -7 16 -24v-55q0 -16 -16 -24z" />
    <glyph glyph-name="question" unicode="?" horiz-adv-x="525" 
d="M208 221q-21 0 -21 19v9q2 43 12.5 61.5t51.5 43.5q72 42 100.5 77t28.5 84t-35 78t-96 29q-54 0 -85.5 -24.5t-31.5 -68.5v-9q2 -22 -19 -22h-52q-19 0 -22 16q-3 12 -3 29q0 63 54.5 115.5t163.5 52.5q100 0 166.5 -53.5t66.5 -141.5q0 -27 -7 -52.5t-22 -47t-28.5 -38
t-35.5 -34t-34 -26t-34.5 -22.5t-25.5 -16q-18 -13 -19 -35v-8q0 -16 -20 -16h-53zM234 -11q-32 0 -53.5 21.5t-21.5 52.5q0 32 21.5 54t53.5 22t54 -22.5t22 -53.5t-22 -52.5t-54 -21.5z" />
    <glyph glyph-name="at" unicode="@" horiz-adv-x="1034" 
d="M501 -235q-203 0 -329.5 135t-126.5 343q0 207 134.5 343.5t338.5 136.5q208 0 336.5 -123.5t128.5 -319.5q0 -156 -56.5 -230t-154.5 -74q-124 0 -134 113v16q-22 -43 -69.5 -67t-97.5 -24q-92 0 -151.5 66t-59.5 162t60 161.5t155 65.5q101 0 156 -84v39q0 35 35 35h20
q35 0 35 -35v-317q0 -31 15 -47t37 -15q61 2 96.5 59.5t35.5 175.5q0 162 -107.5 265.5t-279.5 103.5q-170 0 -283 -116.5t-113 -289.5q0 -174 105.5 -289t273.5 -115q106 0 183 31q19 8 27 -9l16 -30q10 -18 -8 -26q-97 -40 -218 -40zM490 92q61 0 100.5 40.5t39.5 107.5
q0 66 -39 108.5t-103 42.5t-101 -43t-37 -106q0 -64 38.5 -107t101.5 -43z" />
    <glyph glyph-name="A" unicode="A" horiz-adv-x="683" 
d="M57 0q-20 0 -28 11.5t0 30.5l241 629q11 29 42 29h58q31 0 42 -29l243 -629q7 -19 -0.5 -30.5t-27.5 -11.5h-32q-31 0 -43 29l-43 114h-334l-43 -114q-12 -29 -42 -29h-33zM205 229h274l-138 368z" />
    <glyph glyph-name="B" unicode="B" horiz-adv-x="659" 
d="M449 359q79 -9 122 -56.5t43 -115.5q0 -85 -64.5 -136t-169.5 -51h-248q-36 0 -36 36v628q0 36 36 36h216q103 0 168 -49t65 -132q0 -57 -33.5 -100t-98.5 -60zM347 613h-145v-221h106q83 0 123.5 34.5t40.5 84.5q0 48 -36 75t-89 27zM379 87q56 0 91.5 28.5t35.5 75.5
q0 51 -44.5 86t-131.5 35h-128v-225h177z" />
    <glyph glyph-name="C" unicode="C" horiz-adv-x="684" 
d="M424 -11q-173 0 -276 104.5t-103 256.5t103 256.5t276 104.5q116 0 204 -57q28 -19 12 -50l-9 -16q-17 -30 -50 -12q-73 40 -157 40q-125 0 -198 -76.5t-73 -189.5t73 -189.5t198 -76.5q84 0 157 40q33 18 50 -12l9 -16q16 -30 -6 -46q-91 -61 -210 -61z" />
    <glyph glyph-name="D" unicode="D" horiz-adv-x="730" 
d="M132 0q-36 0 -36 36v628q0 36 36 36h193q163 0 261.5 -100.5t98.5 -249.5t-98.5 -249.5t-261.5 -100.5h-193zM202 87h121q115 0 184.5 75.5t69.5 187.5t-69.5 187.5t-184.5 75.5h-121v-526z" />
    <glyph glyph-name="E" unicode="E" horiz-adv-x="593" 
d="M508 613h-306v-227h262q36 0 36 -36v-13q0 -37 -36 -37h-262v-213h306q36 0 36 -36v-15q0 -36 -36 -36h-376q-36 0 -36 36v628q0 36 36 36h376q36 0 36 -36v-15q0 -36 -36 -36z" />
    <glyph glyph-name="F" unicode="F" horiz-adv-x="581" 
d="M508 700q36 0 36 -36v-15q0 -36 -36 -36h-306v-227h262q37 0 37 -36v-13q0 -37 -37 -37h-262v-264q0 -36 -36 -36h-34q-36 0 -36 36v628q0 36 36 36h376z" />
    <glyph glyph-name="G" unicode="G" horiz-adv-x="735" 
d="M418 -11q-161 0 -267 104.5t-106 254.5q0 151 106 257t258 106q133 0 227 -58q29 -18 12 -50l-10 -17q-16 -32 -50 -13q-37 20 -71 30t-54 11.5t-54 1.5q-107 0 -181.5 -77.5t-74.5 -189.5q0 -109 71 -187t199 -78q89 0 160 45v139h-158q-36 0 -36 37v12q0 36 36 36h219
q36 0 36 -36v-202q0 -29 -31 -53q-99 -73 -231 -73z" />
    <glyph glyph-name="H" unicode="H" horiz-adv-x="724" 
d="M132 0q-36 0 -36 36v628q0 36 36 36h34q36 0 36 -36v-287h320v287q0 36 37 36h33q36 0 36 -36v-628q0 -36 -36 -36h-33q-37 0 -37 36v255h-320v-255q0 -36 -36 -36h-34z" />
    <glyph glyph-name="I" unicode="I" horiz-adv-x="298" 
d="M132 0q-36 0 -36 36v628q0 36 36 36h34q36 0 36 -36v-628q0 -36 -36 -36h-34z" />
    <glyph glyph-name="J" unicode="J" horiz-adv-x="664" 
d="M294 -11q-133 0 -199 73.5t-66 177.5q0 31 10 62q8 28 41 28h28q38 0 30 -40q-6 -27 -6 -43q0 -70 40.5 -116.5t120.5 -46.5q89 0 135 61t46 171v348q0 36 37 36h33q36 0 36 -36v-348q0 -159 -74.5 -243t-211.5 -84z" />
    <glyph glyph-name="K" unicode="K" horiz-adv-x="639" 
d="M528 -11q-36 0 -67.5 12.5t-56 36t-39 42t-31.5 44.5l-133 188v-276q0 -36 -36 -36h-34q-36 0 -36 36v628q0 36 36 36h34q36 0 36 -36v-304l226 317q16 23 45 23h55q17 0 19.5 -12t-8.5 -27l-235 -322l128 -175q58 -84 109 -84q25 0 42 8q33 12 47 -15l6 -12
q18 -34 -16 -50q-41 -22 -91 -22z" />
    <glyph glyph-name="L" unicode="L" horiz-adv-x="537" 
d="M132 0q-36 0 -36 36v628q0 36 36 36h34q36 0 36 -36v-577h283q37 0 37 -36v-15q0 -36 -37 -36h-353z" />
    <glyph glyph-name="M" unicode="M" horiz-adv-x="954" 
d="M104 0q-39 0 -36 38l60 628q3 34 37 34h53q30 0 41 -28l218 -521l217 521q13 28 42 28h52q35 0 38 -34l59 -628q3 -38 -35 -38h-33q-36 0 -39 34l-43 505l-208 -502q-12 -28 -42 -28h-17q-29 0 -41 28l-208 502l-44 -505q-3 -34 -38 -34h-33z" />
    <glyph glyph-name="N" unicode="N" horiz-adv-x="753" 
d="M132 0q-36 0 -36 36v628q0 36 36 36h15q29 0 45 -22l358 -484v470q0 36 36 36h34q37 0 37 -36v-628q0 -36 -37 -36h-14q-28 0 -45 22l-359 486v-472q0 -36 -36 -36h-34z" />
    <glyph glyph-name="O" unicode="O" horiz-adv-x="817" 
d="M409 -11q-151 0 -257.5 106t-106.5 255t106.5 255t257.5 106t257.5 -106t106.5 -255t-106.5 -255t-257.5 -106zM409 84q107 0 181.5 77t74.5 189t-74.5 189t-181.5 77t-181.5 -77t-74.5 -189t74.5 -189t181.5 -77z" />
    <glyph glyph-name="P" unicode="P" horiz-adv-x="626" 
d="M379 700q98 0 155.5 -64.5t57.5 -157.5q0 -92 -57.5 -154t-155.5 -62h-177v-226q0 -36 -36 -36h-34q-36 0 -36 36v628q0 36 36 36h247zM358 347q58 0 91.5 36.5t33.5 95.5q0 60 -34 97t-91 37h-156v-266h156z" />
    <glyph glyph-name="Q" unicode="Q" horiz-adv-x="817" 
d="M591 -190q-169 0 -217 167l-4 14q-138 14 -232 116.5t-94 242.5q0 149 106.5 255t257.5 106t257.5 -106t106.5 -255q0 -132 -85.5 -232t-213.5 -123q21 -98 123 -98q29 0 64 15q34 14 48 -16l6 -11q18 -36 -27 -56q-44 -19 -96 -19zM408 84q107 0 181.5 77t74.5 189
t-74.5 189t-181.5 77t-181.5 -77t-74.5 -189t74.5 -189t181.5 -77z" />
    <glyph glyph-name="R" unicode="R" horiz-adv-x="687" 
d="M561 -11q-58 0 -102.5 30t-68.5 76.5t-36 88t-15 79.5h-138v-227q0 -36 -36 -36h-34q-36 0 -36 36v628q0 36 36 36h259q98 0 155.5 -64t57.5 -157q0 -80 -44 -138t-120 -73q6 -67 42 -128.5t88 -61.5q30 0 51 12q33 15 48 -13l5 -9q15 -34 -11 -50q-44 -29 -101 -29z
M201 347h168q57 0 90.5 36.5t33.5 95.5q0 60 -34 97t-90 37h-168v-266z" />
    <glyph glyph-name="S" unicode="S" horiz-adv-x="582" 
d="M292 -11q-90 0 -155 39t-93 103q-7 16 0 28t24 17l29 7q29 7 45 -24q20 -34 59 -55.5t89 -21.5q66 0 105.5 29t39.5 75q0 70 -101 107l-104 35q-164 55 -164 188q0 88 66.5 141.5t160.5 53.5q81 0 138 -35.5t82 -96.5q7 -16 0 -28t-24 -17l-25 -8q-31 -8 -46 23
q-34 68 -124 68q-51 0 -86 -26.5t-35 -71.5q0 -64 89 -97l104 -39q84 -26 128 -78t44 -112q0 -94 -67.5 -149t-178.5 -55z" />
    <glyph glyph-name="T" unicode="T" horiz-adv-x="603" 
d="M549 700q36 0 36 -36v-15q0 -36 -36 -36h-195v-577q0 -36 -36 -36h-33q-36 0 -36 36v577h-195q-36 0 -36 36v15q0 36 36 36h495z" />
    <glyph glyph-name="U" unicode="U" horiz-adv-x="729" 
d="M364 -11q-119 0 -198.5 71.5t-79.5 199.5v404q0 36 36 36h34q36 0 36 -36v-404q0 -84 49.5 -130t122.5 -46q74 0 123.5 45.5t49.5 130.5v404q0 36 36 36h33q37 0 37 -36v-404q0 -128 -80 -199.5t-199 -71.5z" />
    <glyph glyph-name="V" unicode="V" horiz-adv-x="643" 
d="M299 0q-31 0 -41 29l-219 629q-7 19 1 30.5t28 11.5h34q32 0 41 -30l180 -541l177 541q9 30 42 30h34q19 0 27 -11.5t2 -30.5l-220 -629q-10 -29 -41 -29h-45z" />
    <glyph glyph-name="W" unicode="W" horiz-adv-x="994" 
d="M279 0q-31 0 -40 30l-197 628q-5 19 3.5 30.5t27.5 11.5h32q31 0 41 -30l153 -492l146 469q9 30 40 30h23q32 0 41 -30l145 -469l154 492q9 30 41 30h31q20 0 28.5 -11.5t2.5 -30.5l-196 -628q-9 -30 -41 -30h-27q-32 0 -41 30l-149 486l-150 -486q-9 -30 -40 -30h-28z
" />
    <glyph glyph-name="X" unicode="X" horiz-adv-x="703" 
d="M39 0q-19 0 -24.5 11.5t6.5 27.5l269 332l-237 290q-13 16 -7 27.5t26 11.5h52q24 0 38 -18l189 -233l190 233q14 18 38 18h52q20 0 26 -11.5t-7 -27.5l-237 -290l268 -332q12 -16 6.5 -27.5t-24.5 -11.5h-57q-25 0 -38 18l-217 268l-216 -268q-13 -18 -38 -18h-58z" />
    <glyph glyph-name="Y" unicode="Y" horiz-adv-x="683" 
d="M325 0q-36 0 -36 36v252l-244 368q-13 19 -6 31.5t29 12.5h44q30 0 43 -24l186 -298l187 298q14 24 44 24h43q22 0 29 -12.5t-6 -31.5l-243 -368v-252q0 -36 -37 -36h-33z" />
    <glyph glyph-name="Z" unicode="Z" horiz-adv-x="645" 
d="M66 0q-37 0 -37 36v18q0 25 16 44l405 515h-358q-36 0 -36 36v15q0 36 36 36h462q37 0 37 -36v-18q0 -25 -16 -44l-409 -515h411q37 0 37 -36v-15q0 -36 -37 -36h-511z" />
    <glyph glyph-name="bracketleft" unicode="[" horiz-adv-x="335" 
d="M93 -201q-21 0 -21 22v901q0 21 21 21h195q22 0 22 -21v-37q0 -22 -22 -22h-121v-784h121q22 0 22 -21v-37q0 -22 -22 -22h-195z" />
    <glyph glyph-name="backslash" unicode="\" horiz-adv-x="532" 
d="M424 -39q-16 0 -24 16l-362 733q-5 11 -1 18t16 7h56q16 0 25 -15l360 -733q5 -11 1 -18.5t-16 -7.5h-55z" />
    <glyph glyph-name="bracketright" unicode="]" horiz-adv-x="335" 
d="M46 -201q-21 0 -21 22v37q0 21 21 21h122v784h-122q-21 0 -21 22v37q0 21 21 21h195q21 0 21 -21v-901q0 -22 -21 -22h-195z" />
    <glyph glyph-name="asciicircum" unicode="^" horiz-adv-x="520" 
d="M72 368q-12 0 -16 7t2 18l156 312q8 15 24 15h44q16 0 24 -15l156 -312q6 -11 2 -18t-16 -7h-52q-17 0 -24 16l-112 236l-113 -236q-7 -16 -24 -16h-51z" />
    <glyph glyph-name="underscore" unicode="_" horiz-adv-x="707" 
d="M26 -146q-26 0 -26 26v39q0 26 26 26h654q27 0 27 -26v-39q0 -26 -27 -26h-654z" />
    <glyph glyph-name="grave" unicode="`" horiz-adv-x="503" 
d="M258 573q-15 0 -25 13l-85 114q-7 10 -3.5 17.5t15.5 7.5h67q16 0 25 -15l64 -112q6 -10 2 -17.5t-16 -7.5h-44z" />
    <glyph glyph-name="a" unicode="a" horiz-adv-x="645" 
d="M287 -11q-110 0 -179 76t-69 186t69 185.5t179 75.5q116 0 179 -90v43q0 36 37 36h30q36 0 36 -36v-429q0 -36 -36 -36h-30q-37 0 -37 36v43q-63 -90 -179 -90zM301 79q74 0 120 48.5t47 123.5q-1 75 -47 123.5t-120 48.5q-73 0 -116 -49.5t-43 -122.5t43 -122.5
t116 -49.5z" />
    <glyph glyph-name="b" unicode="b" horiz-adv-x="646" 
d="M358 -11q-117 0 -180 90v-43q0 -36 -36 -36h-30q-37 0 -37 36v651q0 36 37 36h30q36 0 36 -36v-265q63 90 180 90q110 0 179 -75.5t69 -185.5t-69 -186t-179 -76zM343 79q74 0 117 49.5t43 122.5t-43 122.5t-117 49.5q-73 0 -119.5 -48.5t-47.5 -123.5q1 -75 47.5 -123.5
t119.5 -48.5z" />
    <glyph glyph-name="c" unicode="c" horiz-adv-x="530" 
d="M321 -11q-129 0 -205.5 73t-76.5 183q0 115 75.5 191t206.5 76q80 0 151 -41q33 -19 10 -51l-8 -10q-18 -25 -51 -10q-45 22 -97 22q-80 0 -132 -48t-52 -123t52 -123.5t132 -48.5q52 0 97 22q33 16 51 -10l7 -10q11 -14 4.5 -30.5t-29.5 -28.5q-61 -33 -135 -33z" />
    <glyph glyph-name="d" unicode="d" horiz-adv-x="646" 
d="M288 -11q-110 0 -179 76t-69 186t69 185.5t179 75.5q116 0 179 -90v265q0 36 37 36h30q36 0 36 -36v-651q0 -36 -36 -36h-30q-37 0 -37 36v43q-63 -90 -179 -90zM302 79q74 0 120 48.5t47 123.5q-1 75 -47 123.5t-120 48.5q-73 0 -116 -49.5t-43 -122.5t43 -122.5
t116 -49.5z" />
    <glyph glyph-name="e" unicode="e" horiz-adv-x="597" 
d="M322 -11q-129 0 -206.5 74.5t-77.5 185.5t77 187t193 76q101 0 173 -60.5t82 -174.5q2 -18 -7.5 -27.5t-27.5 -9.5h-388q-2 -70 49.5 -115.5t133.5 -45.5q74 0 136 42q28 18 51 -5l7 -8q27 -29 -7 -57q-77 -62 -188 -62zM149 316h312q-32 108 -151 108q-51 0 -95.5 -25
t-65.5 -83z" />
    <glyph glyph-name="f" unicode="f" horiz-adv-x="375" 
d="M144 0q-36 0 -36 36v385h-58q-20 0 -20 21v38q0 21 20 21h58v37q0 195 167 195q72 0 112.5 -35.5t40.5 -91.5q0 -9 -2 -17q-3 -11 -18 -11h-49q-21 0 -21 18v7q0 18 -16.5 30t-40.5 12q-68 0 -68 -90v-54h109q20 0 20 -21v-38q0 -21 -20 -21h-109v-385q0 -36 -36 -36h-33
z" />
    <glyph glyph-name="g" unicode="g" horiz-adv-x="644" 
d="M305 -235q-110 0 -190 52q-27 18 -11 50l8 14q16 33 49 12q62 -39 143 -39q74 0 118 41.5t44 119.5v64q-63 -90 -179 -90q-110 0 -179 75.5t-69 186.5q0 110 69 185.5t179 75.5q116 0 179 -90v44q0 35 37 35h29q37 0 37 -36v-457q0 -120 -75.5 -181.5t-188.5 -61.5z
M301 79q74 0 120 48.5t47 123.5q-1 75 -47 123.5t-120 48.5q-73 0 -116 -49.5t-43 -122.5t43 -122.5t116 -49.5z" />
    <glyph glyph-name="h" unicode="h" horiz-adv-x="604" 
d="M112 0q-37 0 -37 36v651q0 36 37 36h30q36 0 36 -36v-284q16 52 60.5 80.5t106.5 28.5q87 0 139.5 -58t52.5 -171v-247q0 -36 -37 -36h-30q-36 0 -36 36v246q0 72 -28 106t-72 34q-23 0 -47 -8.5t-50 -27.5t-42.5 -58t-16.5 -93v-199q0 -36 -36 -36h-30z" />
    <glyph glyph-name="i" unicode="i" horiz-adv-x="260" 
d="M129 592q-30 0 -49.5 19.5t-19.5 48.5q0 30 19.5 50t49.5 20q31 0 51 -20t20 -50q0 -29 -20.5 -48.5t-50.5 -19.5zM115 0q-37 0 -37 36v429q0 36 37 36h30q36 0 36 -36v-429q0 -36 -36 -36h-30z" />
    <glyph glyph-name="j" unicode="j" horiz-adv-x="296" 
d="M166 592q-30 0 -49.5 19.5t-19.5 48.5q0 30 19.5 50t49.5 20t50.5 -20t20.5 -50q0 -29 -20.5 -48.5t-50.5 -19.5zM50 -235q-72 0 -112 35.5t-40 91.5q0 9 2 17q3 11 18 11h49q21 0 21 -18v-7q0 -19 16.5 -30.5t40.5 -11.5q67 0 67 90v522q0 36 37 36h33q36 0 36 -36v-505
q0 -195 -168 -195z" />
    <glyph glyph-name="k" unicode="k" horiz-adv-x="545" 
d="M436 -11q-16 0 -29.5 2t-26 7t-22 8.5t-19.5 13t-15.5 13.5t-14.5 16l-12 16t-12 17t-10 15l-98 159v-220q0 -36 -36 -36h-30q-37 0 -37 36v651q0 36 37 36h30q36 0 36 -36v-396l153 189q15 21 44 21h38q24 0 30 -13t-9 -31l-154 -186l83 -127q32 -45 46 -54
q17 -12 41 -12q25 0 45 9q20 7 29 -9l16 -32q10 -24 -25 -41q-34 -16 -78 -16z" />
    <glyph glyph-name="l" unicode="l" horiz-adv-x="260" 
d="M115 0q-37 0 -37 36v651q0 36 37 36h30q36 0 36 -36v-651q0 -36 -36 -36h-30z" />
    <glyph glyph-name="m" unicode="m" horiz-adv-x="925" 
d="M112 0q-37 0 -37 36v429q0 36 37 36h30q36 0 36 -36v-62q15 52 58 80.5t100 28.5q113 0 158 -103q50 103 170 103q92 0 142 -57t50 -172v-247q0 -36 -36 -36h-30q-37 0 -37 36v247q0 72 -27.5 105.5t-71.5 33.5q-20 0 -40.5 -7.5t-43 -25t-37 -54.5t-16.5 -89v-210
q0 -36 -36 -36h-30q-37 0 -37 36v247q0 72 -27.5 105.5t-71.5 33.5q-22 0 -43.5 -8.5t-43.5 -27.5t-36 -58t-14 -93v-199q0 -36 -36 -36h-30z" />
    <glyph glyph-name="n" unicode="n" horiz-adv-x="605" 
d="M112 0q-37 0 -37 36v429q0 36 37 36h30q36 0 36 -36v-62q16 52 60.5 80.5t106.5 28.5q87 0 139.5 -58t52.5 -171v-247q0 -36 -37 -36h-30q-36 0 -36 36v246q0 72 -28 106t-72 34q-23 0 -47 -8.5t-50 -27.5t-42.5 -58t-16.5 -93v-199q0 -36 -36 -36h-30z" />
    <glyph glyph-name="o" unicode="o" horiz-adv-x="606" 
d="M302 -11q-110 0 -187 76.5t-77 185.5q0 108 77.5 184.5t186.5 76.5q110 0 188 -77t78 -184q0 -109 -78 -185.5t-188 -76.5zM302 79q68 0 115.5 50t47.5 121t-47.5 121.5t-115.5 50.5q-67 0 -114.5 -50.5t-47.5 -121.5t47.5 -121t114.5 -50z" />
    <glyph glyph-name="p" unicode="p" horiz-adv-x="645" 
d="M112 -224q-37 0 -37 36v653q0 36 37 36h30q36 0 36 -36v-43q63 90 180 90q110 0 179 -75.5t69 -185.5t-69 -186t-179 -76q-117 0 -180 90v-267q0 -36 -36 -36h-30zM343 79q74 0 117 49.5t43 122.5t-43 122.5t-117 49.5q-73 0 -119.5 -48.5t-47.5 -123.5
q1 -75 47.5 -123.5t119.5 -48.5z" />
    <glyph glyph-name="q" unicode="q" horiz-adv-x="645" 
d="M503 -224q-37 0 -37 36v267q-63 -90 -179 -90q-110 0 -179 76t-69 186t69 185.5t179 75.5q116 0 179 -90v43q0 36 37 36h30q36 0 36 -36v-653q0 -36 -36 -36h-30zM301 79q74 0 120 48.5t47 123.5q-1 75 -47 123.5t-120 48.5q-73 0 -116 -49.5t-43 -122.5t43 -122.5
t116 -49.5z" />
    <glyph glyph-name="r" unicode="r" horiz-adv-x="370" 
d="M112 0q-37 0 -37 36v429q0 36 37 36h30q36 0 36 -36v-76q12 58 49.5 90.5t84.5 32.5l22 -1q24 -3 24 -40v-29q0 -18 -7 -26t-20 -5t-27 3t-27.5 -3t-32.5 -16.5t-32.5 -36t-23.5 -66t-10 -101.5v-155q0 -36 -36 -36h-30z" />
    <glyph glyph-name="s" unicode="s" horiz-adv-x="444" 
d="M224 -11q-59 0 -108 25t-74 72q-18 34 24 45l21 6q24 6 45 -21q33 -41 93 -41q36 0 60 19t24 47q0 40 -62 61l-67 23q-125 37 -125 137q0 65 47 107.5t121 42.5q109 0 153 -82q9 -17 2.5 -29.5t-25.5 -16.5l-19 -4q-25 -7 -47 21q-22 26 -61 26q-32 0 -52 -17.5
t-20 -44.5q0 -40 58 -58l72 -24q122 -38 122 -143q0 -69 -52.5 -110t-129.5 -41z" />
    <glyph glyph-name="t" unicode="t" horiz-adv-x="423" 
d="M259 -11q-68 0 -113.5 40.5t-45.5 129.5v262h-61q-20 0 -20 21v39q0 20 20 20h63l18 115q5 29 32 29h21q30 0 30 -31v-113h137q20 0 20 -20v-39q0 -21 -20 -21h-137v-268q0 -38 16 -56.5t42 -18.5q25 0 42 14t17 40q0 11 -2 19q-3 23 18 23h46q20 0 23 -18q4 -17 4 -37
q0 -58 -40 -94t-110 -36z" />
    <glyph glyph-name="u" unicode="u" horiz-adv-x="604" 
d="M259 -11q-87 0 -139 57.5t-52 171.5v247q0 36 36 36h30q37 0 37 -36v-246q0 -72 27.5 -106t71.5 -34q23 0 47 8.5t50 27.5t42.5 58.5t16.5 92.5v199q0 36 36 36h30q37 0 37 -36v-429q0 -36 -37 -36h-30q-36 0 -36 36v62q-16 -52 -60.5 -80.5t-106.5 -28.5z" />
    <glyph glyph-name="v" unicode="v" horiz-adv-x="548" 
d="M248 0q-31 0 -43 29l-167 431q-7 19 0.5 30t27.5 11h33q30 0 42 -29l133 -359l133 359q12 29 42 29h33q20 0 27.5 -11t0.5 -30l-167 -431q-12 -29 -43 -29h-52z" />
    <glyph glyph-name="w" unicode="w" horiz-adv-x="822" 
d="M236 0q-31 0 -41 29l-156 431q-7 19 1 30t28 11h32q32 0 42 -29l116 -334l102 318q9 31 40 31h22q31 0 40 -31l103 -318l115 334q10 29 42 29h32q43 0 29 -41l-155 -431q-11 -29 -42 -29h-33q-31 0 -41 30l-101 312l-101 -312q-9 -30 -41 -30h-33z" />
    <glyph glyph-name="x" unicode="x" horiz-adv-x="580" 
d="M64 0q-23 0 -29 13.5t9 31.5l178 215l-164 197q-14 18 -8 31t29 13h31q27 0 44 -20l136 -161l136 161q17 20 45 20h30q24 0 30 -13t-9 -31l-164 -197l179 -215q14 -18 8 -31.5t-29 -13.5h-36q-27 0 -44 21l-146 175l-145 -175q-18 -21 -45 -21h-36z" />
    <glyph glyph-name="y" unicode="y" horiz-adv-x="558" 
d="M179 -224q-20 0 -28 11.5t0 30.5l77 201l-192 440q-8 19 0 30.5t28 11.5h40q31 0 41 -28l139 -339l128 338q10 29 43 29h41q20 0 28 -11.5t0 -30.5l-279 -655q-11 -28 -42 -28h-24z" />
    <glyph glyph-name="z" unicode="z" horiz-adv-x="560" 
d="M66 0q-36 0 -36 36v2q0 26 18 45l315 336h-275q-17 0 -27 9.5t-10 26.5v10q0 36 37 36h383q36 0 36 -36v-2q0 -26 -17 -44l-315 -337h317q37 0 37 -36v-10q-2 -36 -37 -36h-426z" />
    <glyph glyph-name="braceleft" unicode="{" horiz-adv-x="328" 
d="M216 -202q-64 0 -107 34t-43 100q0 44 30 134.5t35 113.5q6 25 -4 37.5t-37 17.5l-31 5q-19 3 -19 22v17q0 19 18 22l33 6q28 5 36.5 17.5t3.5 36.5q-4 21 -34.5 112t-30.5 136q0 67 43.5 100.5t106.5 33.5q17 0 57 -4q20 -1 20 -21v-29q0 -22 -23 -20q-21 3 -44 3
q-62 0 -62 -72q0 -43 29.5 -122t29.5 -112q0 -34 -17 -61t-50 -32v-4q33 -6 50 -33t17 -60t-29.5 -112.5t-29.5 -122.5q0 -71 62 -71q23 0 44 2q23 2 23 -20v-28q0 -21 -22 -22q-40 -4 -55 -4z" />
    <glyph glyph-name="bar" unicode="|" horiz-adv-x="229" 
d="M93 -225q-21 0 -21 20v949q0 20 21 20h44q20 0 20 -20v-949q0 -20 -20 -20h-44z" />
    <glyph glyph-name="braceright" unicode="}" horiz-adv-x="328" 
d="M112 -202q-15 0 -55 4q-22 2 -22 22v28q0 22 23 20q21 -2 44 -2q62 0 62 71q0 43 -29.5 122.5t-29.5 112.5t17 60t50 33v4q-33 5 -50 32t-17 61q0 33 29.5 112t29.5 122q0 72 -62 72q-23 0 -44 -3q-23 -2 -23 20v29q0 20 20 21q40 4 57 4q63 0 106.5 -33.5t43.5 -100.5
q0 -45 -30.5 -136t-34.5 -112q-5 -24 4 -36.5t37 -17.5l32 -6q18 -3 18 -22v-17q0 -19 -19 -22l-31 -5q-27 -5 -37 -17.5t-4 -37.5q5 -23 35 -113.5t30 -134.5q0 -66 -43 -100t-107 -34z" />
    <glyph glyph-name="asciitilde" unicode="~" horiz-adv-x="617" 
d="M417 217q-37 0 -73.5 22t-71.5 44t-68 22q-50 0 -78 -47q-14 -22 -27 -4l-25 31q-10 14 -4 28q14 38 48.5 63.5t81.5 25.5q36 0 75.5 -22t74.5 -44t62 -22q51 0 78 48q15 21 29 3l25 -30q11 -13 4 -28q-17 -42 -51.5 -66t-79.5 -24z" />
    <glyph glyph-name="uni00A0" unicode="&#xa0;" horiz-adv-x="262" 
 />
    <glyph glyph-name="exclamdown" unicode="&#xa1;" horiz-adv-x="250" 
d="M126 512q32 0 54 -21.5t22 -52.5q0 -32 -22 -54t-54 -22t-53.5 22t-21.5 54t21.5 53t53.5 21zM117 281h14q31 0 32 -30l22 -393v-26q0 -31 -31 -31h-60q-31 0 -31 31v26l22 393q1 30 32 30z" />
    <glyph glyph-name="cent" unicode="&#xa2;" horiz-adv-x="556" 
d="M228 -108q-22 0 -19 22l16 90q-84 26 -131.5 91t-47.5 150q0 110 68.5 184.5t190.5 81.5l12 1l15 76q3 19 21 19h17q22 0 19 -23l-14 -76q62 -9 118 -46q16 -12 6 -28l-27 -36q-10 -17 -28 -5q-35 20 -85 27l-62 -338q77 -13 148 27q17 11 28 -5l26 -36q10 -17 -5 -29
q-95 -61 -213 -46l-15 -83q-3 -18 -22 -18h-16zM242 99l58 321q-67 -10 -109 -56t-42 -113q0 -106 93 -152z" />
    <glyph glyph-name="sterling" unicode="&#xa3;" horiz-adv-x="636" 
d="M60 0q-20 0 -20 21v44q0 21 15 21l11 1q44 3 72.5 15.5t41 32.5t16 37.5t3.5 42.5q0 28 -13 76h-106q-20 0 -20 20v19q0 20 20 20h83q-45 117 -45 165q0 88 66.5 142t166.5 54q101 0 156 -45t64 -108q1 -21 -21 -21h-59q-18 0 -22 19q-17 66 -114 66q-61 0 -95.5 -29.5
t-34.5 -78.5q0 -56 43 -164h168q20 0 20 -20v-19q0 -20 -20 -20h-148q15 -49 14 -83q0 -94 -71 -121v-3q47 3 137 3h203q21 0 21 -21v-45q0 -21 -21 -21h-511z" />
    <glyph glyph-name="currency" unicode="&#xa4;" horiz-adv-x="530" 
d="M132 131q-15 -14 -29 0l-32 32q-15 15 0 29l37 36q-28 44 -28 99q0 51 26 94l-35 35q-14 15 0 29l32 32q15 15 29 0l34 -34q47 29 99 29q53 0 100 -29l33 34q15 15 29 0l32 -32q15 -14 0 -29l-35 -35q27 -44 27 -94q0 -53 -28 -99l37 -36q14 -14 0 -29l-32 -32
q-14 -15 -29 0l-39 37q-43 -26 -95 -26q-53 0 -94 26zM265 217q43 0 73.5 32t30.5 77q0 46 -30.5 78t-73.5 32t-73.5 -32t-30.5 -78q0 -45 30.5 -77t73.5 -32z" />
    <glyph glyph-name="yen" unicode="&#xa5;" horiz-adv-x="709" 
d="M323 0q-21 0 -21 21v146h-172q-20 0 -20 20v21q0 20 20 20h172v62h-172q-20 0 -20 20v22q0 20 20 20h129l-210 323q-7 11 -3 18t17 7h73q17 0 25 -14l193 -308l194 308q9 14 25 14h74q13 0 16.5 -7t-3.5 -18l-211 -323h128q20 0 20 -20v-22q0 -20 -20 -20h-169v-62h169
q20 0 20 -20v-21q0 -20 -20 -20h-169v-146q0 -21 -21 -21h-64z" />
    <glyph glyph-name="brokenbar" unicode="&#xa6;" horiz-adv-x="241" 
d="M99 348q-21 0 -21 21v376q0 20 21 20h44q20 0 20 -20v-376q0 -21 -20 -21h-44zM99 -225q-21 0 -21 20v377q0 20 21 20h44q20 0 20 -20v-377q0 -20 -20 -20h-44z" />
    <glyph glyph-name="section" unicode="&#xa7;" horiz-adv-x="592" 
d="M296 -160q-150 0 -240 77q-14 12 -5 29l17 34q11 18 29 6q95 -63 200 -63q69 0 104.5 24t35.5 63q0 59 -106 84l-98 25q-90 24 -128 68t-38 90q0 44 26.5 79.5t73.5 56.5q-100 47 -100 136q0 72 66 117t161 45q107 0 195 -41q19 -10 10 -29l-21 -39q-9 -18 -28 -8
q-73 34 -150 34q-60 0 -94.5 -19.5t-34.5 -59.5q0 -21 20.5 -43.5t71.5 -35.5l94 -24q91 -23 137.5 -60.5t46.5 -97.5q0 -41 -25 -80.5t-68 -64.5q93 -45 93 -127q0 -76 -65 -126t-180 -50zM353 178q40 10 62 36t23 59q0 54 -57 73l-117 29q-42 -14 -67.5 -37t-25.5 -51
q0 -63 66 -78z" />
    <glyph glyph-name="dieresis" unicode="&#xa8;" horiz-adv-x="605" 
d="M194 586q-28 0 -46.5 18t-18.5 45q0 28 18.5 46t46.5 18q27 0 46 -18.5t19 -45.5t-19 -45t-46 -18zM410 586q-27 0 -45.5 18t-18.5 45q0 28 18.5 46t45.5 18q28 0 46.5 -18t18.5 -46q0 -27 -18.5 -45t-46.5 -18z" />
    <glyph glyph-name="copyright" unicode="&#xa9;" horiz-adv-x="804" 
d="M402 -11q-148 0 -250.5 105.5t-102.5 255.5t102.5 255.5t250.5 105.5t250.5 -105.5t102.5 -255.5t-102.5 -255.5t-250.5 -105.5zM402 49q123 0 208 88t85 213t-85 213t-208 88t-208 -88t-85 -213t85 -213t208 -88zM416 163q-89 0 -146.5 54.5t-57.5 131.5
q0 79 57.5 133.5t146.5 54.5q53 0 107 -34q18 -11 6 -29l-12 -19q-12 -16 -30 -7q-36 19 -72 19q-62 0 -92 -35.5t-30 -81.5t30 -81.5t92 -35.5q36 0 72 19q18 9 30 -7l12 -19q12 -19 -5 -28q-53 -35 -108 -35z" />
    <glyph glyph-name="ordfeminine" unicode="&#xaa;" horiz-adv-x="499" 
d="M229 363q-70 0 -114.5 50t-44.5 123t45 122.5t117 49.5q69 0 108 -51v22q0 21 21 21h36q21 0 21 -21v-288q0 -21 -21 -21h-36q-21 0 -21 21v23q-20 -24 -50.5 -37.5t-60.5 -13.5zM244 433q42 0 68.5 28t26.5 73q0 46 -26.5 75t-70.5 29t-69 -29.5t-25 -72.5t26.5 -73
t69.5 -30zM98 216q-21 0 -21 21v21q0 20 21 20h295q21 0 21 -20v-21q0 -21 -21 -21h-295z" />
    <glyph glyph-name="guillemotleft" unicode="&#xab;" horiz-adv-x="560" 
d="M247 88q-16 -13 -29 3l-165 187q-9 12 -9 22q0 8 9 18l165 188q13 18 29 3l30 -23q16 -13 2 -30l-137 -158l137 -156q13 -18 -2 -30zM462 88q-16 -12 -28 3l-165 187q-9 12 -9 22q0 8 9 18l165 188q12 17 28 3l31 -23q16 -13 2 -30l-137 -158l136 -156q15 -18 -2 -30z
" />
    <glyph glyph-name="logicalnot" unicode="&#xac;" horiz-adv-x="619" 
d="M473 198q-21 0 -21 20v151h-372q-20 0 -20 20v53q0 21 20 21h444q20 0 20 -21l-1 -224q0 -20 -20 -20h-50z" />
    <glyph glyph-name="uni00AD" unicode="&#xad;" horiz-adv-x="569" 
d="M97 290q-20 0 -20 20v53q0 21 20 21h375q20 0 20 -21v-53q0 -20 -20 -20h-375z" />
    <glyph glyph-name="registered" unicode="&#xae;" horiz-adv-x="804" 
d="M402 -11q-148 0 -250.5 105.5t-102.5 255.5t102.5 255.5t250.5 105.5t250.5 -105.5t102.5 -255.5t-102.5 -255.5t-250.5 -105.5zM402 49q123 0 208 88t85 213t-85 213t-208 88t-208 -88t-85 -213t85 -213t208 -88zM307 175q-21 0 -21 21v316q0 21 21 21h125
q52 0 82.5 -34t30.5 -84q0 -82 -75 -105l64 -110q6 -10 2 -17.5t-17 -7.5h-38q-17 0 -25 15l-55 115h-41v-109q0 -21 -21 -21h-32zM360 364h62q22 0 34.5 14t12.5 37q0 24 -13 41.5t-34 17.5h-62v-110z" />
    <glyph glyph-name="macron" unicode="&#xaf;" horiz-adv-x="541" 
d="M150 604q-21 0 -21 20v37q0 21 21 21h241q21 0 21 -21v-37q0 -20 -21 -20h-241z" />
    <glyph glyph-name="degree" unicode="&#xb0;" horiz-adv-x="425" 
d="M212 385q-71 0 -120.5 49t-49.5 119q0 71 50 120.5t120 49.5q71 0 121 -49.5t50 -120.5q0 -70 -50 -119t-121 -49zM212 454q40 0 67.5 29t27.5 70q0 42 -27.5 71.5t-67.5 29.5q-38 0 -65.5 -30t-27.5 -71t27.5 -70t65.5 -29z" />
    <glyph glyph-name="plusminus" unicode="&#xb1;" horiz-adv-x="617" 
d="M284 224q-20 0 -20 21v131h-170q-20 0 -20 20v47q0 21 20 21h170v130q0 21 20 21h49q21 0 21 -21v-130h169q20 0 20 -21v-47q0 -20 -20 -20h-169v-131q0 -21 -21 -21h-49zM94 76q-20 0 -20 21v44q0 20 20 20h429q20 0 20 -20v-44q0 -21 -20 -21h-429z" />
    <glyph glyph-name="uni00B2" unicode="&#xb2;" horiz-adv-x="334" 
d="M52 454q-14 0 -17 15l-3 12q-3 13 7 21l141 120q42 38 42 76q0 26 -15.5 40.5t-42.5 14.5q-52 0 -62 -40q-5 -14 -16 -14h-40q-17 0 -15 15q6 39 39 68.5t94 29.5q58 0 91.5 -32.5t33.5 -80.5q0 -65 -63 -117l-89 -73h155q15 0 15 -15v-24q0 -16 -15 -16h-240z" />
    <glyph glyph-name="uni00B3" unicode="&#xb3;" horiz-adv-x="327" 
d="M151 448q-69 0 -116 35q-13 11 -3 23l17 21q8 11 22 2q37 -27 81 -27q35 0 55.5 19t20.5 46q0 29 -21.5 48.5t-50.5 19.5q-22 0 -38 -5q-15 -5 -21 4l-10 12q-8 11 2 22l98 87h-136q-15 0 -15 16v20q0 16 15 16h219q15 0 15 -16v-10q0 -10 -8 -18l-93 -86q50 -5 80 -36
t30 -76q0 -51 -38 -84t-105 -33z" />
    <glyph glyph-name="acute" unicode="&#xb4;" horiz-adv-x="503" 
d="M158 573q-13 0 -17 7.5t2 17.5l65 112q8 15 24 15h67q13 0 16.5 -7.5t-4.5 -17.5l-85 -114q-9 -13 -25 -13h-43z" />
    <glyph glyph-name="uni00B5" unicode="&#xb5;" horiz-adv-x="599" 
d="M105 -151q-17 0 -26.5 10t-9.5 27v579q0 36 36 36h31q36 0 36 -36v-268q0 -59 29.5 -88.5t70.5 -29.5q23 0 47 8.5t49.5 27.5t42 58.5t16.5 92.5v199q0 36 37 36h30q36 0 36 -36v-429q0 -36 -36 -36h-30q-37 0 -37 36v62q-16 -51 -59.5 -79.5t-104.5 -28.5q-53 0 -92 19
v-123q0 -37 -36 -37h-30z" />
    <glyph glyph-name="paragraph" unicode="&#xb6;" horiz-adv-x="654" 
d="M395 -140q-21 0 -21 21v712q0 57 36 87.5t89 30.5q59 0 91 -30t32 -77q0 -13 -2 -27q-3 -18 -24 -18h-30q-11 0 -15.5 4.5t-2.5 12.5q1 9 1 17q0 22 -14.5 34t-34.5 12q-22 0 -35.5 -12.5t-13.5 -37.5v-708q0 -21 -21 -21h-35zM264 -140q-21 0 -21 21v491h-45
q-68 0 -115.5 47.5t-47.5 116.5q0 68 47.5 116t115.5 48h159v-10q-38 -30 -38 -86v-723q0 -21 -20 -21h-35z" />
    <glyph glyph-name="periodcentered" unicode="&#xb7;" horiz-adv-x="280" 
d="M140 202q-32 0 -54 21.5t-22 52.5q0 32 22 54t54 22t54 -22t22 -54q0 -31 -22 -52.5t-54 -21.5z" />
    <glyph glyph-name="cedilla" unicode="&#xb8;" horiz-adv-x="461" 
d="M231 -223q-43 0 -76 24.5t-48 64.5q-7 17 11 27l11 6q16 9 28 -8q26 -40 71 -40q23 0 40.5 16.5t17.5 44.5q0 42 -34 86l-5 6v6q0 8 12 8q25 0 36 -8q65 -54 65 -119q0 -57 -39.5 -85.5t-89.5 -28.5z" />
    <glyph glyph-name="uni00B9" unicode="&#xb9;" horiz-adv-x="214" 
d="M117 454q-15 0 -15 15v262l-60 -26q-14 -6 -19 9l-7 22q-4 12 9 19l100 47q8 5 19 5h11q15 0 15 -16v-322q0 -15 -15 -15h-38z" />
    <glyph glyph-name="ordmasculine" unicode="&#xba;" horiz-adv-x="485" 
d="M242 360q-71 0 -122 50.5t-51 122.5q0 71 51 121.5t122 50.5t122.5 -51t51.5 -121q0 -72 -51 -122.5t-123 -50.5zM242 431q40 0 68 30t28 71q0 42 -28 72.5t-68 30.5t-67.5 -30.5t-27.5 -72.5q0 -41 27.5 -71t67.5 -30zM95 216q-20 0 -20 21v21q0 20 20 20h295
q21 0 21 -20v-21q0 -21 -21 -21h-295z" />
    <glyph glyph-name="guillemotright" unicode="&#xbb;" horiz-adv-x="560" 
d="M97 88l-30 24q-15 12 -2 30l137 156l-137 158q-14 17 2 30l30 23q16 15 29 -3l165 -188q9 -10 9 -18q0 -10 -9 -22l-165 -187q-13 -16 -29 -3zM313 88l-30 24q-17 12 -2 30l136 156l-136 158q-16 17 2 30l30 23q16 14 28 -3l165 -188q9 -10 9 -18q0 -10 -9 -22l-165 -187
q-12 -15 -28 -3z" />
    <glyph glyph-name="onequarter" unicode="&#xbc;" horiz-adv-x="824" 
d="M134 -39q-15 0 -20 8.5t4 21.5l514 728q12 16 30 16h24q15 0 20 -8.5t-4 -21.5l-515 -728q-12 -16 -30 -16h-23zM139 347q-16 0 -16 15v263l-59 -27q-15 -6 -20 9l-7 22q-4 13 9 20l100 47q8 4 19 4h11q15 0 15 -15v-323q0 -15 -15 -15h-37zM662 0q-15 0 -15 15v78h-156
q-15 0 -15 15v10q0 12 7 19l177 208q7 8 19 8h19q15 0 15 -15v-196h57q15 0 15 -15v-19q0 -15 -15 -15h-57v-78q0 -15 -15 -15h-36zM547 142h101v112z" />
    <glyph glyph-name="onehalf" unicode="&#xbd;" horiz-adv-x="853" 
d="M134 -39q-15 0 -20 8.5t4 21.5l514 728q12 16 30 16h24q15 0 20 -8.5t-4 -21.5l-515 -728q-12 -16 -30 -16h-23zM139 347q-16 0 -16 15v263l-59 -27q-15 -6 -20 9l-7 22q-4 13 9 20l100 47q8 4 19 4h11q15 0 15 -15v-323q0 -15 -15 -15h-37zM557 0q-13 0 -16 14l-3 13
q-3 12 7 20l140 121q43 38 43 76q0 54 -58 54q-52 0 -62 -39q-5 -14 -16 -14h-40q-8 0 -12.5 4t-3.5 11q6 39 39 68t95 29q58 0 91 -32.5t33 -79.5q0 -67 -62 -118l-89 -72h155q15 0 15 -15v-25q0 -15 -15 -15h-241z" />
    <glyph glyph-name="threequarters" unicode="&#xbe;" horiz-adv-x="850" 
d="M155 -39q-15 0 -20 8.5t4 21.5l514 728q12 16 30 16h24q15 0 20 -8.5t-4 -21.5l-515 -728q-12 -16 -30 -16h-23zM168 341q-66 0 -116 36q-13 10 -3 22l17 21q8 11 22 2q36 -26 81 -26q35 0 55.5 19t20.5 46q0 29 -21.5 48.5t-50.5 19.5q-22 0 -38 -6q-15 -5 -21 4l-10 13
q-8 11 2 21l98 88h-136q-15 0 -15 15v21q0 15 15 15h219q15 0 15 -15v-10q0 -10 -8 -19l-93 -85q51 -5 80.5 -36.5t29.5 -75.5q0 -51 -38 -84.5t-105 -33.5zM693 0q-15 0 -15 15v78h-157q-15 0 -15 15v10q0 12 7 19l178 208q7 8 18 8h20q15 0 15 -15v-196h56q16 0 16 -15
v-19q0 -15 -16 -15h-56v-78q0 -15 -15 -15h-36zM577 142h101v112z" />
    <glyph glyph-name="questiondown" unicode="&#xbf;" horiz-adv-x="516" 
d="M286 512q32 0 53.5 -21.5t21.5 -52.5q0 -32 -22 -54t-53 -22q-32 0 -54.5 22t-22.5 54q0 31 22.5 52.5t54.5 21.5zM312 281q20 0 20 -19v-9q-1 -44 -12 -62.5t-52 -42.5q-72 -43 -100 -78t-28 -83q0 -50 34.5 -79t95.5 -29q55 0 86.5 24.5t31.5 69.5v9q-2 22 18 22h52
q20 0 23 -17q3 -12 3 -28q0 -64 -55 -116.5t-164 -52.5q-100 0 -166 53.5t-66 141.5q0 28 7 53t22 47.5t27.5 38t36.5 34t34 26t34.5 23t25.5 15.5q18 13 19 34v8q0 17 20 17h53z" />
    <glyph glyph-name="Agrave" unicode="&#xc0;" horiz-adv-x="683" 
d="M306 764q-16 0 -25 14l-73 101q-7 10 -3 17.5t16 7.5h61q18 0 25 -15l56 -100q6 -10 1.5 -17.5t-16.5 -7.5h-42zM57 0q-20 0 -28 11.5t0 30.5l241 629q11 29 42 29h58q31 0 42 -29l243 -629q7 -19 -0.5 -30.5t-27.5 -11.5h-32q-31 0 -43 29l-43 114h-334l-43 -114
q-12 -29 -42 -29h-33zM205 229h274l-138 368z" />
    <glyph glyph-name="Aacute" unicode="&#xc1;" horiz-adv-x="683" 
d="M329 764q-12 0 -16.5 7.5t1.5 17.5l57 100q7 15 24 15h61q12 0 16 -7.5t-3 -17.5l-73 -101q-9 -14 -25 -14h-42zM57 0q-20 0 -28 11.5t0 30.5l241 629q11 29 42 29h58q31 0 42 -29l243 -629q7 -19 -0.5 -30.5t-27.5 -11.5h-32q-31 0 -43 29l-43 114h-334l-43 -114
q-12 -29 -42 -29h-33zM205 229h274l-138 368z" />
    <glyph glyph-name="Acircumflex" unicode="&#xc2;" horiz-adv-x="683" 
d="M211 764q-13 0 -16.5 7.5t4.5 17.5l80 102q9 13 24 13h76q15 0 25 -13l80 -102q8 -10 4 -17.5t-17 -7.5h-31q-16 0 -26 11l-73 74l-73 -74q-9 -11 -26 -11h-31zM57 0q-20 0 -28 11.5t0 30.5l241 629q11 29 42 29h58q31 0 42 -29l243 -629q7 -19 -0.5 -30.5t-27.5 -11.5
h-32q-31 0 -43 29l-43 114h-334l-43 -114q-12 -29 -42 -29h-33zM205 229h274l-138 368z" />
    <glyph glyph-name="Atilde" unicode="&#xc3;" horiz-adv-x="683" 
d="M241 793q-10 -17 -27 -13l-9 2q-19 6 -13 27q14 45 33.5 65t50.5 20q24 0 68 -20.5t59 -20.5q26 0 41 31q9 17 26 13l9 -2q19 -6 13 -27q-14 -45 -33.5 -65t-50.5 -20q-24 0 -68 20.5t-59 20.5q-25 0 -40 -31zM57 0q-20 0 -28 11.5t0 30.5l241 629q11 29 42 29h58
q31 0 42 -29l243 -629q7 -19 -0.5 -30.5t-27.5 -11.5h-32q-31 0 -43 29l-43 114h-334l-43 -114q-12 -29 -42 -29h-33zM205 229h274l-138 368z" />
    <glyph glyph-name="Adieresis" unicode="&#xc4;" horiz-adv-x="683" 
d="M233 764q-27 0 -45.5 18t-18.5 45q0 28 18.5 46t45.5 18q28 0 46 -18t18 -46q0 -27 -18 -45t-46 -18zM450 764q-28 0 -46 18t-18 45q0 28 18 46t46 18t46 -18t18 -46q0 -27 -18 -45t-46 -18zM57 0q-20 0 -28 11.5t0 30.5l241 629q11 29 42 29h58q31 0 42 -29l243 -629
q7 -19 -0.5 -30.5t-27.5 -11.5h-32q-31 0 -43 29l-43 114h-334l-43 -114q-12 -29 -42 -29h-33zM205 229h274l-138 368z" />
    <glyph glyph-name="Aring" unicode="&#xc5;" horiz-adv-x="683" 
d="M342 748q-45 0 -76 28.5t-31 72.5t31 72.5t76 28.5q46 0 77 -28.5t31 -72.5t-31 -72.5t-77 -28.5zM342 794q23 0 39 16t16 39q0 22 -16 37.5t-39 15.5t-39 -15.5t-16 -37.5q0 -23 16 -39t39 -16zM57 0q-20 0 -28 11.5t0 30.5l241 629q11 29 42 29h58q31 0 42 -29
l243 -629q7 -19 -0.5 -30.5t-27.5 -11.5h-32q-31 0 -43 29l-43 114h-334l-43 -114q-12 -29 -42 -29h-33zM205 229h274l-138 368z" />
    <glyph glyph-name="AE" unicode="&#xc6;" horiz-adv-x="929" 
d="M42 0q-21 0 -28 12t3 32l341 630q13 26 42 26h443q36 0 36 -36v-15q0 -36 -36 -36h-289v-237h255q37 0 37 -36v-14q0 -36 -37 -36h-255v-203h289q36 0 36 -36v-15q0 -36 -36 -36h-359q-36 0 -36 36v246h-193l-134 -256q-12 -26 -42 -26h-37zM301 368h147v245h-20z" />
    <glyph glyph-name="Ccedilla" unicode="&#xc7;" horiz-adv-x="684" 
d="M640 96q16 -30 -6 -46q-91 -58 -197 -61q41 -45 41 -98q0 -56 -39 -85t-89 -29q-43 0 -76.5 24.5t-48.5 64.5q-6 17 11 27l11 6q17 9 28 -8q28 -40 71 -40q23 0 41 16.5t18 44.5q0 37 -29 79q-152 15 -241.5 117t-89.5 242q0 152 103 256.5t276 104.5q116 0 204 -57
q28 -19 12 -50l-9 -16q-17 -30 -50 -12q-73 40 -157 40q-125 0 -198 -76.5t-73 -189.5t73 -189.5t198 -76.5q84 0 157 40q33 18 50 -12z" />
    <glyph glyph-name="Egrave" unicode="&#xc8;" horiz-adv-x="593" 
d="M282 778l-73 101q-8 10 -4 17.5t17 7.5h61q17 0 24 -15l56 -100q7 -10 2 -17.5t-16 -7.5h-43q-15 0 -24 14zM508 613h-306v-227h262q36 0 36 -36v-13q0 -37 -36 -37h-262v-213h306q36 0 36 -36v-15q0 -36 -36 -36h-376q-36 0 -36 36v628q0 36 36 36h376q36 0 36 -36v-15
q0 -36 -36 -36z" />
    <glyph glyph-name="Eacute" unicode="&#xc9;" horiz-adv-x="593" 
d="M306 764q-12 0 -16.5 7.5t1.5 17.5l56 100q8 15 25 15h61q12 0 16 -7.5t-3 -17.5l-73 -101q-9 -14 -25 -14h-42zM508 613h-306v-227h262q36 0 36 -36v-13q0 -37 -36 -37h-262v-213h306q36 0 36 -36v-15q0 -36 -36 -36h-376q-36 0 -36 36v628q0 36 36 36h376q36 0 36 -36
v-15q0 -36 -36 -36z" />
    <glyph glyph-name="Ecircumflex" unicode="&#xca;" horiz-adv-x="593" 
d="M185 764q-13 0 -16.5 7.5t4.5 17.5l80 102q9 13 24 13h76q15 0 25 -13l80 -102q8 -10 4 -17.5t-17 -7.5h-31q-16 0 -26 11l-73 74l-73 -74q-9 -11 -26 -11h-31zM508 613h-306v-227h262q36 0 36 -36v-13q0 -37 -36 -37h-262v-213h306q36 0 36 -36v-15q0 -36 -36 -36h-376
q-36 0 -36 36v628q0 36 36 36h376q36 0 36 -36v-15q0 -36 -36 -36z" />
    <glyph glyph-name="Edieresis" unicode="&#xcb;" horiz-adv-x="593" 
d="M203 764q-28 0 -46 18t-18 45q0 28 18 46t46 18t46 -18t18 -46q0 -27 -18 -45t-46 -18zM420 764q-28 0 -46 18t-18 45q0 28 18 46t46 18t46 -18t18 -46q0 -27 -18 -45t-46 -18zM508 613h-306v-227h262q36 0 36 -36v-13q0 -37 -36 -37h-262v-213h306q36 0 36 -36v-15
q0 -36 -36 -36h-376q-36 0 -36 36v628q0 36 36 36h376q36 0 36 -36v-15q0 -36 -36 -36z" />
    <glyph glyph-name="Igrave" unicode="&#xcc;" horiz-adv-x="298" 
d="M121 764q-15 0 -24 14l-73 101q-8 10 -4 17.5t17 7.5h61q17 0 24 -15l56 -100q7 -10 2 -17.5t-16 -7.5h-43zM132 0q-36 0 -36 36v628q0 36 36 36h34q36 0 36 -36v-628q0 -36 -36 -36h-34z" />
    <glyph glyph-name="Iacute" unicode="&#xcd;" horiz-adv-x="298" 
d="M116 764q-12 0 -16.5 7.5t1.5 17.5l56 100q8 15 25 15h61q12 0 16 -7.5t-3 -17.5l-73 -101q-9 -14 -25 -14h-42zM132 0q-36 0 -36 36v628q0 36 36 36h34q36 0 36 -36v-628q0 -36 -36 -36h-34z" />
    <glyph glyph-name="Icircumflex" unicode="&#xce;" horiz-adv-x="298" 
d="M19 764q-13 0 -16.5 7.5t4.5 17.5l80 102q9 13 24 13h76q15 0 25 -13l80 -102q8 -10 4 -17.5t-17 -7.5h-31q-16 0 -26 11l-73 74l-73 -74q-9 -11 -26 -11h-31zM132 0q-36 0 -36 36v628q0 36 36 36h34q36 0 36 -36v-628q0 -36 -36 -36h-34z" />
    <glyph glyph-name="Idieresis" unicode="&#xcf;" horiz-adv-x="298" 
d="M40 764q-28 0 -46 18t-18 45q0 28 18 46t46 18t46 -18t18 -46q0 -27 -18 -45t-46 -18zM257 764q-28 0 -46 18t-18 45q0 28 18 46t46 18t46 -18t18 -46q0 -27 -18 -45t-46 -18zM132 0q-36 0 -36 36v628q0 36 36 36h34q36 0 36 -36v-628q0 -36 -36 -36h-34z" />
    <glyph glyph-name="Eth" unicode="&#xd0;" horiz-adv-x="733" 
d="M135 0q-36 0 -36 36v276h-57q-22 0 -22 22v30q0 22 22 22h57v278q0 36 36 36h192q163 0 261.5 -100.5t98.5 -249.5t-98.5 -249.5t-261.5 -100.5h-192zM205 87h121q115 0 184 75t69 188t-69 188t-184 75h-121v-227h138q22 0 22 -22v-30q0 -22 -22 -22h-138v-225z" />
    <glyph glyph-name="Ntilde" unicode="&#xd1;" horiz-adv-x="753" 
d="M271 793q-10 -17 -27 -13l-9 2q-19 6 -13 27q14 45 33.5 65t50.5 20q24 0 68 -20.5t59 -20.5q26 0 41 31q9 17 26 13l9 -2q19 -6 13 -27q-14 -45 -33.5 -65t-50.5 -20q-24 0 -68 20.5t-59 20.5q-25 0 -40 -31zM132 0q-36 0 -36 36v628q0 36 36 36h15q29 0 45 -22
l358 -484v470q0 36 36 36h34q37 0 37 -36v-628q0 -36 -37 -36h-14q-28 0 -45 22l-359 486v-472q0 -36 -36 -36h-34z" />
    <glyph glyph-name="Ograve" unicode="&#xd2;" horiz-adv-x="817" 
d="M380 764q-15 0 -24 14l-73 101q-8 10 -4 17.5t17 7.5h61q17 0 24 -15l56 -100q7 -10 2 -17.5t-16 -7.5h-43zM409 -11q-151 0 -257.5 106t-106.5 255t106.5 255t257.5 106t257.5 -106t106.5 -255t-106.5 -255t-257.5 -106zM409 84q107 0 181.5 77t74.5 189t-74.5 189
t-181.5 77t-181.5 -77t-74.5 -189t74.5 -189t181.5 -77z" />
    <glyph glyph-name="Oacute" unicode="&#xd3;" horiz-adv-x="817" 
d="M385 764q-12 0 -16.5 7.5t1.5 17.5l56 100q8 15 25 15h61q12 0 16 -7.5t-3 -17.5l-73 -101q-9 -14 -25 -14h-42zM409 -11q-151 0 -257.5 106t-106.5 255t106.5 255t257.5 106t257.5 -106t106.5 -255t-106.5 -255t-257.5 -106zM409 84q107 0 181.5 77t74.5 189t-74.5 189
t-181.5 77t-181.5 -77t-74.5 -189t74.5 -189t181.5 -77z" />
    <glyph glyph-name="Ocircumflex" unicode="&#xd4;" horiz-adv-x="817" 
d="M278 764q-13 0 -16.5 7.5t4.5 17.5l80 102q9 13 24 13h76q15 0 25 -13l80 -102q8 -10 4 -17.5t-17 -7.5h-31q-16 0 -26 11l-73 74l-73 -74q-9 -11 -26 -11h-31zM409 -11q-151 0 -257.5 106t-106.5 255t106.5 255t257.5 106t257.5 -106t106.5 -255t-106.5 -255
t-257.5 -106zM409 84q107 0 181.5 77t74.5 189t-74.5 189t-181.5 77t-181.5 -77t-74.5 -189t74.5 -189t181.5 -77z" />
    <glyph glyph-name="Otilde" unicode="&#xd5;" horiz-adv-x="817" 
d="M308 793q-10 -17 -27 -13l-9 2q-19 6 -13 27q14 45 33.5 65t50.5 20q23 0 68 -20.5t59 -20.5q26 0 41 31q9 17 26 13l9 -2q19 -6 13 -27q-14 -45 -33.5 -65t-50.5 -20q-23 0 -68 20.5t-59 20.5q-25 0 -40 -31zM409 -11q-151 0 -257.5 106t-106.5 255t106.5 255t257.5 106
t257.5 -106t106.5 -255t-106.5 -255t-257.5 -106zM409 84q107 0 181.5 77t74.5 189t-74.5 189t-181.5 77t-181.5 -77t-74.5 -189t74.5 -189t181.5 -77z" />
    <glyph glyph-name="Odieresis" unicode="&#xd6;" horiz-adv-x="817" 
d="M301 764q-28 0 -46 18t-18 45q0 28 18 46t46 18t46 -18t18 -46q0 -27 -18 -45t-46 -18zM518 764q-28 0 -46 18t-18 45q0 28 18 46t46 18t46 -18t18 -46q0 -27 -18 -45t-46 -18zM409 -11q-151 0 -257.5 106t-106.5 255t106.5 255t257.5 106t257.5 -106t106.5 -255
t-106.5 -255t-257.5 -106zM409 84q107 0 181.5 77t74.5 189t-74.5 189t-181.5 77t-181.5 -77t-74.5 -189t74.5 -189t181.5 -77z" />
    <glyph glyph-name="multiply" unicode="&#xd7;" horiz-adv-x="520" 
d="M132 116q-14 -16 -29 0l-34 35q-13 16 0 29l128 128l-128 127q-14 14 0 28l36 35q14 15 29 0l126 -127l127 127q14 16 29 0l35 -34q14 -14 0 -29l-128 -126l128 -128q14 -14 0 -29l-35 -35q-14 -17 -29 0l-127 128z" />
    <glyph glyph-name="Oslash" unicode="&#xd8;" horiz-adv-x="817" 
d="M212 -26q-13 -18 -29 -6l-30 21q-16 12 -5 27l34 51q-64 50 -100.5 124t-36.5 159q0 149 106.5 255t257.5 106q92 0 176 -45l41 60q12 19 29 6l30 -21q16 -11 5 -28l-42 -61q59 -51 92 -121.5t33 -150.5q0 -149 -106.5 -255t-257.5 -106q-87 0 -161 37zM238 150l292 434
q-58 32 -121 32q-107 0 -181.5 -77t-74.5 -189q0 -122 85 -200zM409 84q107 0 181.5 77t74.5 189q0 111 -73 187l-290 -430q54 -23 107 -23z" />
    <glyph glyph-name="Ugrave" unicode="&#xd9;" horiz-adv-x="729" 
d="M331 764q-15 0 -24 14l-73 101q-8 10 -4 17.5t17 7.5h61q17 0 24 -15l56 -100q7 -10 2 -17.5t-16 -7.5h-43zM364 -11q-119 0 -198.5 71.5t-79.5 199.5v404q0 36 36 36h34q36 0 36 -36v-404q0 -84 49.5 -130t122.5 -46q74 0 123.5 45.5t49.5 130.5v404q0 36 36 36h33
q37 0 37 -36v-404q0 -128 -80 -199.5t-199 -71.5z" />
    <glyph glyph-name="Uacute" unicode="&#xda;" horiz-adv-x="729" 
d="M327 764q-12 0 -16.5 7.5t1.5 17.5l56 100q8 15 25 15h61q12 0 16 -7.5t-3 -17.5l-73 -101q-9 -14 -25 -14h-42zM364 -11q-119 0 -198.5 71.5t-79.5 199.5v404q0 36 36 36h34q36 0 36 -36v-404q0 -84 49.5 -130t122.5 -46q74 0 123.5 45.5t49.5 130.5v404q0 36 36 36h33
q37 0 37 -36v-404q0 -128 -80 -199.5t-199 -71.5z" />
    <glyph glyph-name="Ucircumflex" unicode="&#xdb;" horiz-adv-x="729" 
d="M234 764q-13 0 -16.5 7.5t4.5 17.5l80 102q9 13 24 13h76q15 0 25 -13l80 -102q8 -10 4 -17.5t-17 -7.5h-31q-16 0 -26 11l-73 74l-73 -74q-9 -11 -26 -11h-31zM364 -11q-119 0 -198.5 71.5t-79.5 199.5v404q0 36 36 36h34q36 0 36 -36v-404q0 -84 49.5 -130t122.5 -46
q74 0 123.5 45.5t49.5 130.5v404q0 36 36 36h33q37 0 37 -36v-404q0 -128 -80 -199.5t-199 -71.5z" />
    <glyph glyph-name="Udieresis" unicode="&#xdc;" horiz-adv-x="729" 
d="M256 764q-28 0 -46 18t-18 45q0 28 18 46t46 18t46 -18t18 -46q0 -27 -18 -45t-46 -18zM473 764q-28 0 -46 18t-18 45q0 28 18 46t46 18t46 -18t18 -46q0 -27 -18 -45t-46 -18zM364 -11q-119 0 -198.5 71.5t-79.5 199.5v404q0 36 36 36h34q36 0 36 -36v-404
q0 -84 49.5 -130t122.5 -46q74 0 123.5 45.5t49.5 130.5v404q0 36 36 36h33q37 0 37 -36v-404q0 -128 -80 -199.5t-199 -71.5z" />
    <glyph glyph-name="Yacute" unicode="&#xdd;" horiz-adv-x="683" 
d="M310 764q-12 0 -16.5 7.5t1.5 17.5l56 100q8 15 25 15h61q12 0 16 -7.5t-3 -17.5l-73 -101q-9 -14 -25 -14h-42zM325 0q-36 0 -36 36v252l-244 368q-13 19 -6 31.5t29 12.5h44q30 0 43 -24l186 -298l187 298q14 24 44 24h43q22 0 29 -12.5t-6 -31.5l-243 -368v-252
q0 -36 -37 -36h-33z" />
    <glyph glyph-name="Thorn" unicode="&#xde;" horiz-adv-x="633" 
d="M132 0q-36 0 -36 36v628q0 36 36 36h34q36 0 36 -36v-124h232q72 0 120 -56.5t48 -133.5t-48 -133t-124 -56h-228v-125q0 -36 -36 -36h-34zM202 247h187q51 0 77 30t26 73q0 104 -103 104h-187v-207z" />
    <glyph glyph-name="germandbls" unicode="&#xdf;" horiz-adv-x="601" 
d="M112 0q-37 0 -37 36v483q0 101 56 155.5t156 54.5t156.5 -48.5t56.5 -132.5q0 -118 -131 -151q85 -8 140 -62.5t55 -134.5q0 -88 -64.5 -149t-167.5 -61h-25q-31 0 -40 31l-4 15q-11 40 30 40h37q54 0 91 38.5t37 88.5q0 61 -48 100.5t-129 46.5q-31 2 -38 30l-3 11
q-9 35 29 40q64 8 94 37t30 72q0 50 -28.5 77.5t-77.5 27.5q-53 0 -80.5 -33t-27.5 -94v-482q0 -36 -36 -36h-31z" />
    <glyph glyph-name="agrave" unicode="&#xe0;" horiz-adv-x="645" 
d="M277 573q-15 0 -25 13l-85 114q-7 10 -3.5 17.5t15.5 7.5h67q16 0 25 -15l64 -112q6 -10 2 -17.5t-16 -7.5h-44zM287 -11q-110 0 -179 76t-69 186t69 185.5t179 75.5q116 0 179 -90v43q0 36 37 36h30q36 0 36 -36v-429q0 -36 -36 -36h-30q-37 0 -37 36v43
q-63 -90 -179 -90zM301 79q74 0 120 48.5t47 123.5q-1 75 -47 123.5t-120 48.5q-73 0 -116 -49.5t-43 -122.5t43 -122.5t116 -49.5z" />
    <glyph glyph-name="aacute" unicode="&#xe1;" horiz-adv-x="645" 
d="M288 573q-13 0 -17 7.5t2 17.5l65 112q8 15 24 15h67q13 0 16.5 -7.5t-4.5 -17.5l-85 -114q-9 -13 -25 -13h-43zM287 -11q-110 0 -179 76t-69 186t69 185.5t179 75.5q116 0 179 -90v43q0 36 37 36h30q36 0 36 -36v-429q0 -36 -36 -36h-30q-37 0 -37 36v43
q-63 -90 -179 -90zM301 79q74 0 120 48.5t47 123.5q-1 75 -47 123.5t-120 48.5q-73 0 -116 -49.5t-43 -122.5t43 -122.5t116 -49.5z" />
    <glyph glyph-name="acircumflex" unicode="&#xe2;" horiz-adv-x="645" 
d="M166 573q-13 0 -17 7.5t4 17.5l89 114q9 13 24 13h76q16 0 25 -13l88 -114q8 -10 4.5 -17.5t-16.5 -7.5h-33q-13 0 -24 11l-82 81l-81 -81q-11 -11 -25 -11h-32zM287 -11q-110 0 -179 76t-69 186t69 185.5t179 75.5q116 0 179 -90v43q0 36 37 36h30q36 0 36 -36v-429
q0 -36 -36 -36h-30q-37 0 -37 36v43q-63 -90 -179 -90zM301 79q74 0 120 48.5t47 123.5q-1 75 -47 123.5t-120 48.5q-73 0 -116 -49.5t-43 -122.5t43 -122.5t116 -49.5z" />
    <glyph glyph-name="atilde" unicode="&#xe3;" horiz-adv-x="645" 
d="M203 604q-9 -17 -27 -13l-8 3q-21 6 -13 26q14 45 33.5 65.5t50.5 20.5q23 0 67 -20.5t59 -20.5q27 0 41 31q9 18 27 13l8 -2q20 -6 14 -27q-15 -45 -34.5 -65.5t-50.5 -20.5q-23 0 -67 20.5t-59 20.5q-27 0 -41 -31zM287 -11q-110 0 -179 76t-69 186t69 185.5t179 75.5
q116 0 179 -90v43q0 36 37 36h30q36 0 36 -36v-429q0 -36 -36 -36h-30q-37 0 -37 36v43q-63 -90 -179 -90zM301 79q74 0 120 48.5t47 123.5q-1 75 -47 123.5t-120 48.5q-73 0 -116 -49.5t-43 -122.5t43 -122.5t116 -49.5z" />
    <glyph glyph-name="adieresis" unicode="&#xe4;" horiz-adv-x="645" 
d="M196 586q-28 0 -46.5 18t-18.5 45q0 28 18.5 46t46.5 18q27 0 46 -18.5t19 -45.5t-19 -45t-46 -18zM412 586q-27 0 -45.5 18t-18.5 45q0 28 18.5 46t45.5 18q28 0 46.5 -18t18.5 -46q0 -27 -18.5 -45t-46.5 -18zM287 -11q-110 0 -179 76t-69 186t69 185.5t179 75.5
q116 0 179 -90v43q0 36 37 36h30q36 0 36 -36v-429q0 -36 -36 -36h-30q-37 0 -37 36v43q-63 -90 -179 -90zM301 79q74 0 120 48.5t47 123.5q-1 75 -47 123.5t-120 48.5q-73 0 -116 -49.5t-43 -122.5t43 -122.5t116 -49.5z" />
    <glyph glyph-name="aring" unicode="&#xe5;" horiz-adv-x="645" 
d="M304 573q-44 0 -75.5 31t-31.5 75q0 45 31.5 76t75.5 31q45 0 76.5 -31t31.5 -76q0 -44 -31.5 -75t-76.5 -31zM304 625q23 0 39 15.5t16 38.5t-16 39t-39 16t-39 -16t-16 -39t16 -38.5t39 -15.5zM287 -11q-110 0 -179 76t-69 186t69 185.5t179 75.5q116 0 179 -90v43
q0 36 37 36h30q36 0 36 -36v-429q0 -36 -36 -36h-30q-37 0 -37 36v43q-63 -90 -179 -90zM301 79q74 0 120 48.5t47 123.5q-1 75 -47 123.5t-120 48.5q-73 0 -116 -49.5t-43 -122.5t43 -122.5t116 -49.5z" />
    <glyph glyph-name="ae" unicode="&#xe6;" horiz-adv-x="937" 
d="M230 -11q-84 0 -142 43.5t-58 119.5q0 69 52.5 113t148.5 44q95 0 157 -24v17q0 121 -128 121q-66 0 -123 -32q-33 -18 -50 12l-5 10q-15 31 11 50q70 49 177 49q140 0 187 -88q75 88 200 88q99 0 168 -60t79 -175q2 -18 -8 -27.5t-28 -9.5h-381q-2 -70 50.5 -115.5
t134.5 -45.5q68 0 127 41q30 20 51 -4l8 -8q24 -27 -2 -52q-75 -67 -186 -67q-160 0 -232 113q-26 -50 -81 -81.5t-127 -31.5zM497 316h304q-32 108 -142 108q-121 0 -162 -108zM248 67q43 0 85 23.5t71 69.5q-10 32 -10 57q-79 21 -151 21q-56 0 -82.5 -25.5t-26.5 -59.5
t28.5 -60t85.5 -26z" />
    <glyph glyph-name="ccedilla" unicode="&#xe7;" horiz-adv-x="530" 
d="M247 -223q-43 0 -76.5 24.5t-48.5 64.5q-6 17 11 27l12 6q16 9 27 -8q28 -40 71 -40q23 0 41 16.5t18 44.5q0 39 -30 80q-108 14 -170.5 84.5t-62.5 168.5q0 115 75.5 191t206.5 76q80 0 151 -41q33 -19 10 -51l-8 -10q-18 -25 -51 -10q-45 22 -97 22q-80 0 -132 -48
t-52 -123t52 -123.5t132 -48.5q52 0 97 22q33 16 51 -10l7 -10q11 -14 4.5 -30.5t-29.5 -28.5q-58 -31 -122 -33q42 -45 42 -98q0 -56 -39.5 -85t-89.5 -29z" />
    <glyph glyph-name="egrave" unicode="&#xe8;" horiz-adv-x="597" 
d="M283 573q-15 0 -25 13l-85 114q-7 10 -3.5 17.5t15.5 7.5h67q16 0 25 -15l64 -112q6 -10 2 -17.5t-16 -7.5h-44zM322 -11q-129 0 -206.5 74.5t-77.5 185.5t77 187t193 76q101 0 173 -60.5t82 -174.5q2 -18 -7.5 -27.5t-27.5 -9.5h-388q-2 -70 49.5 -115.5t133.5 -45.5
q74 0 136 42q28 18 51 -5l7 -8q27 -29 -7 -57q-77 -62 -188 -62zM149 316h312q-32 108 -151 108q-51 0 -95.5 -25t-65.5 -83z" />
    <glyph glyph-name="eacute" unicode="&#xe9;" horiz-adv-x="597" 
d="M294 573q-13 0 -17 7.5t2 17.5l65 112q8 15 24 15h67q13 0 16.5 -7.5t-4.5 -17.5l-85 -114q-9 -13 -25 -13h-43zM322 -11q-129 0 -206.5 74.5t-77.5 185.5t77 187t193 76q101 0 173 -60.5t82 -174.5q2 -18 -7.5 -27.5t-27.5 -9.5h-388q-2 -70 49.5 -115.5t133.5 -45.5
q74 0 136 42q28 18 51 -5l7 -8q27 -29 -7 -57q-77 -62 -188 -62zM149 316h312q-32 108 -151 108q-51 0 -95.5 -25t-65.5 -83z" />
    <glyph glyph-name="ecircumflex" unicode="&#xea;" horiz-adv-x="597" 
d="M163 573q-13 0 -17 7.5t4 17.5l89 114q9 13 24 13h76q16 0 25 -13l88 -114q8 -10 4.5 -17.5t-16.5 -7.5h-33q-13 0 -24 11l-82 81l-81 -81q-11 -11 -25 -11h-32zM322 -11q-129 0 -206.5 74.5t-77.5 185.5t77 187t193 76q101 0 173 -60.5t82 -174.5q2 -18 -7.5 -27.5
t-27.5 -9.5h-388q-2 -70 49.5 -115.5t133.5 -45.5q74 0 136 42q28 18 51 -5l7 -8q27 -29 -7 -57q-77 -62 -188 -62zM149 316h312q-32 108 -151 108q-51 0 -95.5 -25t-65.5 -83z" />
    <glyph glyph-name="edieresis" unicode="&#xeb;" horiz-adv-x="597" 
d="M193 586q-28 0 -46.5 18t-18.5 45q0 28 18.5 46t46.5 18q27 0 46 -18.5t19 -45.5t-19 -45t-46 -18zM409 586q-27 0 -45.5 18t-18.5 45q0 28 18.5 46t45.5 18q28 0 46.5 -18t18.5 -46q0 -27 -18.5 -45t-46.5 -18zM322 -11q-129 0 -206.5 74.5t-77.5 185.5t77 187t193 76
q101 0 173 -60.5t82 -174.5q2 -18 -7.5 -27.5t-27.5 -9.5h-388q-2 -70 49.5 -115.5t133.5 -45.5q74 0 136 42q28 18 51 -5l7 -8q27 -29 -7 -57q-77 -62 -188 -62zM149 316h312q-32 108 -151 108q-51 0 -95.5 -25t-65.5 -83z" />
    <glyph glyph-name="igrave" unicode="&#xec;" horiz-adv-x="260" 
d="M114 573q-16 0 -25 13l-85 114q-8 10 -4.5 17.5t16.5 7.5h67q17 0 24 -15l65 -112q6 -10 2 -17.5t-17 -7.5h-43zM115 0q-37 0 -37 36v429q0 36 37 36h30q36 0 36 -36v-429q0 -36 -36 -36h-30z" />
    <glyph glyph-name="iacute" unicode="&#xed;" horiz-adv-x="260" 
d="M102 573q-12 0 -16 7.5t2 17.5l64 112q9 15 25 15h67q12 0 15.5 -7.5t-3.5 -17.5l-85 -114q-10 -13 -25 -13h-44zM115 0q-37 0 -37 36v429q0 36 37 36h30q36 0 36 -36v-429q0 -36 -36 -36h-30z" />
    <glyph glyph-name="icircumflex" unicode="&#xee;" horiz-adv-x="260" 
d="M-12 573q-13 0 -17 7.5t4 17.5l89 114q9 13 24 13h76q16 0 25 -13l89 -114q8 -10 4 -17.5t-17 -7.5h-32q-14 0 -25 11l-82 81l-81 -81q-11 -11 -25 -11h-32zM115 0q-37 0 -37 36v429q0 36 37 36h30q36 0 36 -36v-429q0 -36 -36 -36h-30z" />
    <glyph glyph-name="idieresis" unicode="&#xef;" horiz-adv-x="260" 
d="M18 586q-27 0 -45.5 18t-18.5 45q0 28 18.5 46t45.5 18q28 0 46.5 -18t18.5 -46q0 -27 -18.5 -45t-46.5 -18zM235 586q-27 0 -45.5 18t-18.5 45q0 28 18.5 46t45.5 18q28 0 46.5 -18t18.5 -46q0 -27 -18.5 -45t-46.5 -18zM115 0q-37 0 -37 36v429q0 36 37 36h30
q36 0 36 -36v-429q0 -36 -36 -36h-30z" />
    <glyph glyph-name="eth" unicode="&#xf0;" horiz-adv-x="606" 
d="M306 -11q-113 0 -190 74.5t-77 183.5q0 108 72.5 179.5t173.5 71.5q75 0 104 -31q-39 60 -96 110l-87 -37q-27 -12 -41 10l-5 9q-9 21 23 35l62 27l-41 32q-16 12 -15.5 26t17.5 25l17 11q25 19 50 -1q42 -34 63 -54l83 36q24 11 39 -7l8 -11q10 -22 -22 -36l-62 -27
q183 -192 183 -370q0 -118 -75.5 -187t-183.5 -69zM302 79q76 0 118 48t42 125q0 69 -42.5 115t-112.5 46q-72 0 -118.5 -47t-46.5 -117q0 -71 46.5 -120.5t113.5 -49.5z" />
    <glyph glyph-name="ntilde" unicode="&#xf1;" horiz-adv-x="605" 
d="M205 604q-9 -17 -27 -13l-8 3q-21 6 -13 26q14 45 33.5 65.5t50.5 20.5q23 0 67 -20.5t59 -20.5q27 0 41 31q9 18 27 13l8 -2q20 -6 14 -27q-15 -45 -34.5 -65.5t-50.5 -20.5q-23 0 -67 20.5t-59 20.5q-27 0 -41 -31zM112 0q-37 0 -37 36v429q0 36 37 36h30q36 0 36 -36
v-62q16 52 60.5 80.5t106.5 28.5q87 0 139.5 -58t52.5 -171v-247q0 -36 -37 -36h-30q-36 0 -36 36v246q0 72 -28 106t-72 34q-23 0 -47 -8.5t-50 -27.5t-42.5 -58t-16.5 -93v-199q0 -36 -36 -36h-30z" />
    <glyph glyph-name="ograve" unicode="&#xf2;" horiz-adv-x="606" 
d="M274 573q-15 0 -25 13l-85 114q-7 10 -3.5 17.5t15.5 7.5h67q16 0 25 -15l64 -112q6 -10 2 -17.5t-16 -7.5h-44zM302 -11q-110 0 -187 76.5t-77 185.5q0 108 77.5 184.5t186.5 76.5q110 0 188 -77t78 -184q0 -109 -78 -185.5t-188 -76.5zM302 79q68 0 115.5 50t47.5 121
t-47.5 121.5t-115.5 50.5q-67 0 -114.5 -50.5t-47.5 -121.5t47.5 -121t114.5 -50z" />
    <glyph glyph-name="oacute" unicode="&#xf3;" horiz-adv-x="606" 
d="M288 573q-13 0 -17 7.5t2 17.5l65 112q8 15 24 15h67q13 0 16.5 -7.5t-4.5 -17.5l-85 -114q-9 -13 -25 -13h-43zM302 -11q-110 0 -187 76.5t-77 185.5q0 108 77.5 184.5t186.5 76.5q110 0 188 -77t78 -184q0 -109 -78 -185.5t-188 -76.5zM302 79q68 0 115.5 50t47.5 121
t-47.5 121.5t-115.5 50.5q-67 0 -114.5 -50.5t-47.5 -121.5t47.5 -121t114.5 -50z" />
    <glyph glyph-name="ocircumflex" unicode="&#xf4;" horiz-adv-x="606" 
d="M164 573q-13 0 -17 7.5t4 17.5l89 114q9 13 24 13h76q16 0 25 -13l88 -114q8 -10 4.5 -17.5t-16.5 -7.5h-33q-13 0 -24 11l-82 81l-81 -81q-11 -11 -25 -11h-32zM302 -11q-110 0 -187 76.5t-77 185.5q0 108 77.5 184.5t186.5 76.5q110 0 188 -77t78 -184
q0 -109 -78 -185.5t-188 -76.5zM302 79q68 0 115.5 50t47.5 121t-47.5 121.5t-115.5 50.5q-67 0 -114.5 -50.5t-47.5 -121.5t47.5 -121t114.5 -50z" />
    <glyph glyph-name="otilde" unicode="&#xf5;" horiz-adv-x="606" 
d="M201 604q-9 -17 -27 -13l-8 3q-21 6 -13 26q14 45 33.5 65.5t50.5 20.5q23 0 67 -20.5t59 -20.5q27 0 41 31q9 18 27 13l8 -2q20 -6 14 -27q-15 -45 -34.5 -65.5t-50.5 -20.5q-23 0 -67 20.5t-59 20.5q-27 0 -41 -31zM302 -11q-110 0 -187 76.5t-77 185.5
q0 108 77.5 184.5t186.5 76.5q110 0 188 -77t78 -184q0 -109 -78 -185.5t-188 -76.5zM302 79q68 0 115.5 50t47.5 121t-47.5 121.5t-115.5 50.5q-67 0 -114.5 -50.5t-47.5 -121.5t47.5 -121t114.5 -50z" />
    <glyph glyph-name="odieresis" unicode="&#xf6;" horiz-adv-x="606" 
d="M194 586q-28 0 -46.5 18t-18.5 45q0 28 18.5 46t46.5 18q27 0 46 -18.5t19 -45.5t-19 -45t-46 -18zM410 586q-27 0 -45.5 18t-18.5 45q0 28 18.5 46t45.5 18q28 0 46.5 -18t18.5 -46q0 -27 -18.5 -45t-46.5 -18zM302 -11q-110 0 -187 76.5t-77 185.5q0 108 77.5 184.5
t186.5 76.5q110 0 188 -77t78 -184q0 -109 -78 -185.5t-188 -76.5zM302 79q68 0 115.5 50t47.5 121t-47.5 121.5t-115.5 50.5q-67 0 -114.5 -50.5t-47.5 -121.5t47.5 -121t114.5 -50z" />
    <glyph glyph-name="divide" unicode="&#xf7;" horiz-adv-x="625" 
d="M312 426q-32 0 -53.5 21.5t-21.5 52.5q0 32 21.5 53.5t53.5 21.5t54 -22t22 -53t-22 -52.5t-54 -21.5zM74 258q-20 0 -20 21v53q0 20 20 20h477q20 0 20 -20v-53q0 -21 -20 -21h-477zM312 41q-32 0 -53.5 21.5t-21.5 52.5t21.5 52.5t53.5 21.5t54 -21.5t22 -52.5
t-22 -52.5t-54 -21.5z" />
    <glyph glyph-name="oslash" unicode="&#xf8;" horiz-adv-x="607" 
d="M113 -13q-13 -15 -29 -2l-18 17q-16 14 -2 29l42 46q-67 73 -67 174q0 108 77.5 184.5t186.5 76.5q81 0 148 -45l38 43q13 17 28 2l18 -17q16 -13 2 -29l-36 -41q68 -78 68 -174q0 -109 -78 -185.5t-188 -76.5q-81 0 -148 45zM171 151l217 246q-39 25 -85 25
q-67 0 -114.5 -50.5t-47.5 -121.5q0 -55 30 -99zM303 79q68 0 115.5 50t47.5 121q0 58 -31 101l-217 -246q39 -26 85 -26z" />
    <glyph glyph-name="ugrave" unicode="&#xf9;" horiz-adv-x="604" 
d="M283 573q-15 0 -25 13l-85 114q-7 10 -3.5 17.5t15.5 7.5h67q16 0 25 -15l64 -112q6 -10 2 -17.5t-16 -7.5h-44zM259 -11q-87 0 -139 57.5t-52 171.5v247q0 36 36 36h30q37 0 37 -36v-246q0 -72 27.5 -106t71.5 -34q23 0 47 8.5t50 27.5t42.5 58.5t16.5 92.5v199
q0 36 36 36h30q37 0 37 -36v-429q0 -36 -37 -36h-30q-36 0 -36 36v62q-16 -52 -60.5 -80.5t-106.5 -28.5z" />
    <glyph glyph-name="uacute" unicode="&#xfa;" horiz-adv-x="604" 
d="M265 573q-13 0 -17 7.5t2 17.5l65 112q7 15 24 15h67q13 0 16.5 -7.5t-4.5 -17.5l-85 -114q-9 -13 -25 -13h-43zM259 -11q-87 0 -139 57.5t-52 171.5v247q0 36 36 36h30q37 0 37 -36v-246q0 -72 27.5 -106t71.5 -34q23 0 47 8.5t50 27.5t42.5 58.5t16.5 92.5v199
q0 36 36 36h30q37 0 37 -36v-429q0 -36 -37 -36h-30q-36 0 -36 36v62q-16 -52 -60.5 -80.5t-106.5 -28.5z" />
    <glyph glyph-name="ucircumflex" unicode="&#xfb;" horiz-adv-x="604" 
d="M160 573q-13 0 -17 7.5t4 17.5l89 114q9 13 24 13h76q16 0 25 -13l88 -114q8 -10 4.5 -17.5t-16.5 -7.5h-33q-13 0 -24 11l-82 81l-81 -81q-11 -11 -25 -11h-32zM259 -11q-87 0 -139 57.5t-52 171.5v247q0 36 36 36h30q37 0 37 -36v-246q0 -72 27.5 -106t71.5 -34
q23 0 47 8.5t50 27.5t42.5 58.5t16.5 92.5v199q0 36 36 36h30q37 0 37 -36v-429q0 -36 -37 -36h-30q-36 0 -36 36v62q-16 -52 -60.5 -80.5t-106.5 -28.5z" />
    <glyph glyph-name="udieresis" unicode="&#xfc;" horiz-adv-x="604" 
d="M190 586q-28 0 -46.5 18t-18.5 45q0 28 18.5 46t46.5 18q27 0 46 -18.5t19 -45.5t-19 -45t-46 -18zM406 586q-27 0 -45.5 18t-18.5 45q0 28 18.5 46t45.5 18q28 0 46.5 -18t18.5 -46q0 -27 -18.5 -45t-46.5 -18zM259 -11q-87 0 -139 57.5t-52 171.5v247q0 36 36 36h30
q37 0 37 -36v-246q0 -72 27.5 -106t71.5 -34q23 0 47 8.5t50 27.5t42.5 58.5t16.5 92.5v199q0 36 36 36h30q37 0 37 -36v-429q0 -36 -37 -36h-30q-36 0 -36 36v62q-16 -52 -60.5 -80.5t-106.5 -28.5z" />
    <glyph glyph-name="yacute" unicode="&#xfd;" horiz-adv-x="558" 
d="M255 573q-13 0 -17 7.5t2 17.5l65 112q7 15 24 15h67q13 0 16.5 -7.5t-4.5 -17.5l-85 -114q-9 -13 -25 -13h-43zM179 -224q-20 0 -28 11.5t0 30.5l77 201l-192 440q-8 19 0 30.5t28 11.5h40q31 0 41 -28l139 -339l128 338q10 29 43 29h41q20 0 28 -11.5t0 -30.5
l-279 -655q-11 -28 -42 -28h-24z" />
    <glyph glyph-name="thorn" unicode="&#xfe;" horiz-adv-x="645" 
d="M112 -224q-37 0 -37 36v875q0 36 37 36h30q36 0 36 -36v-265q63 90 180 90q110 0 179 -75.5t69 -185.5t-69 -186t-179 -76q-117 0 -180 90v-267q0 -36 -36 -36h-30zM343 79q74 0 117 49.5t43 122.5t-43 122.5t-117 49.5q-73 0 -119.5 -48.5t-47.5 -123.5
q1 -75 47.5 -123.5t119.5 -48.5z" />
    <glyph glyph-name="ydieresis" unicode="&#xff;" horiz-adv-x="558" 
d="M171 586q-28 0 -46.5 18t-18.5 45q0 28 18.5 46t46.5 18q27 0 46 -18.5t19 -45.5t-19 -45t-46 -18zM387 586q-27 0 -45.5 18t-18.5 45q0 28 18.5 46t45.5 18q28 0 46.5 -18t18.5 -46q0 -27 -18.5 -45t-46.5 -18zM179 -224q-20 0 -28 11.5t0 30.5l77 201l-192 440
q-8 19 0 30.5t28 11.5h40q31 0 41 -28l139 -339l128 338q10 29 43 29h41q20 0 28 -11.5t0 -30.5l-279 -655q-11 -28 -42 -28h-24z" />
    <glyph glyph-name="Amacron" unicode="&#x100;" horiz-adv-x="683" 
d="M221 781q-20 0 -20 21v37q0 21 20 21h241q21 0 21 -21v-37q0 -21 -21 -21h-241zM57 0q-20 0 -28 11.5t0 30.5l241 629q11 29 42 29h58q31 0 42 -29l243 -629q7 -19 -0.5 -30.5t-27.5 -11.5h-32q-31 0 -43 29l-43 114h-334l-43 -114q-12 -29 -42 -29h-33zM205 229h274
l-138 368z" />
    <glyph glyph-name="amacron" unicode="&#x101;" horiz-adv-x="645" 
d="M184 604q-21 0 -21 20v37q0 21 21 21h241q21 0 21 -21v-37q0 -20 -21 -20h-241zM287 -11q-110 0 -179 76t-69 186t69 185.5t179 75.5q116 0 179 -90v43q0 36 37 36h30q36 0 36 -36v-429q0 -36 -36 -36h-30q-37 0 -37 36v43q-63 -90 -179 -90zM301 79q74 0 120 48.5
t47 123.5q-1 75 -47 123.5t-120 48.5q-73 0 -116 -49.5t-43 -122.5t43 -122.5t116 -49.5z" />
    <glyph glyph-name="Abreve" unicode="&#x102;" horiz-adv-x="683" 
d="M342 764q-44 0 -81.5 28.5t-49.5 85.5q-5 20 19 22l21 3q19 2 23 -19q18 -55 68 -55q51 0 69 56q5 20 23 18l22 -2q24 -2 16 -34q-14 -52 -51 -77.5t-79 -25.5zM56 0q-20 0 -27.5 11t-0.5 30l242 631q11 28 42 28h59q30 0 41 -28l243 -631q7 -19 -0.5 -30t-26.5 -11h-34
q-31 0 -41 28l-43 115h-336l-43 -115q-10 -28 -40 -28h-35zM206 229h273l-138 368z" />
    <glyph glyph-name="abreve" unicode="&#x103;" horiz-adv-x="645" 
d="M305 573q-48 0 -87 29.5t-50 94.5q-4 21 18 24l25 2q18 1 23 -19q12 -57 71 -57t71 57q4 19 23 18l24 -2q25 -2 16 -36q-13 -57 -51 -84t-83 -27zM287 -11q-110 0 -179 76t-69 186t69 185.5t179 75.5q116 0 179 -90v43q0 36 37 36h30q36 0 36 -36v-429q0 -36 -36 -36h-30
q-37 0 -37 36v43q-63 -90 -179 -90zM301 79q74 0 120 48.5t47 123.5q-1 75 -47 123.5t-120 48.5q-73 0 -116 -49.5t-43 -122.5t43 -122.5t116 -49.5z" />
    <glyph glyph-name="Aogonek" unicode="&#x104;" horiz-adv-x="681" 
d="M605 -223q-50 0 -89.5 29t-39.5 82q0 37 22 71.5t62 49.5l-51 134h-334l-43 -114q-12 -29 -42 -29h-33q-20 0 -28 11.5t0 30.5l241 629q11 29 42 29h58q31 0 42 -29l243 -629q13 -36 -20 -41q-84 -20 -84 -88q0 -27 17.5 -44.5t39.5 -17.5q40 0 66 33q19 21 36 14l10 -5
q15 -14 6 -35q-16 -36 -48.5 -58.5t-72.5 -22.5zM205 229h274l-138 368z" />
    <glyph glyph-name="aogonek" unicode="&#x105;" horiz-adv-x="645" 
d="M652 -107q17 -10 11 -27q-15 -40 -48.5 -64.5t-76.5 -24.5q-50 0 -89 29t-39 85q0 65 56 113v75q-63 -90 -179 -90q-110 0 -179 76t-69 186t69 185.5t179 75.5q116 0 179 -90v43q0 36 37 36h30q36 0 36 -36v-429q0 -36 -36 -36h-14q-36 -45 -36 -88q0 -28 18 -44.5
t41 -16.5q45 0 71 40q11 17 28 8zM301 79q74 0 120 48.5t47 123.5q-1 75 -47 123.5t-120 48.5q-73 0 -116 -49.5t-43 -122.5t43 -122.5t116 -49.5z" />
    <glyph glyph-name="Cacute" unicode="&#x106;" horiz-adv-x="684" 
d="M375 764q-12 0 -16.5 7.5t1.5 17.5l56 100q8 15 25 15h61q12 0 16 -7.5t-3 -17.5l-73 -101q-9 -14 -25 -14h-42zM424 -11q-173 0 -276 104.5t-103 256.5t103 256.5t276 104.5q116 0 204 -57q28 -19 12 -50l-9 -16q-17 -30 -50 -12q-73 40 -157 40q-125 0 -198 -76.5
t-73 -189.5t73 -189.5t198 -76.5q84 0 157 40q33 18 50 -12l9 -16q16 -30 -6 -46q-91 -61 -210 -61z" />
    <glyph glyph-name="cacute" unicode="&#x107;" horiz-adv-x="530" 
d="M289 573q-13 0 -17 7.5t2 17.5l65 112q7 15 24 15h67q13 0 16.5 -7.5t-4.5 -17.5l-85 -114q-9 -13 -25 -13h-43zM321 -11q-129 0 -205.5 73t-76.5 183q0 115 75.5 191t206.5 76q80 0 151 -41q33 -19 10 -51l-8 -10q-18 -25 -51 -10q-45 22 -97 22q-80 0 -132 -48
t-52 -123t52 -123.5t132 -48.5q52 0 97 22q33 16 51 -10l7 -10q11 -14 4.5 -30.5t-29.5 -28.5q-61 -33 -135 -33z" />
    <glyph glyph-name="Ccircumflex" unicode="&#x108;" horiz-adv-x="684" 
d="M262 764q-13 0 -16.5 7.5t4.5 17.5l80 102q9 13 24 13h76q15 0 25 -13l80 -102q8 -10 4 -17.5t-17 -7.5h-31q-16 0 -26 11l-73 74l-73 -74q-9 -11 -26 -11h-31zM424 -11q-173 0 -276 104.5t-103 256.5t103 256.5t276 104.5q116 0 204 -57q28 -19 12 -50l-9 -16
q-17 -30 -50 -12q-73 40 -157 40q-125 0 -198 -76.5t-73 -189.5t73 -189.5t198 -76.5q84 0 157 40q33 18 50 -12l9 -16q16 -30 -6 -46q-91 -61 -210 -61z" />
    <glyph glyph-name="ccircumflex" unicode="&#x109;" horiz-adv-x="530" 
d="M150 573q-13 0 -17 7.5t4 17.5l89 114q9 13 24 13h76q16 0 25 -13l88 -114q8 -10 4.5 -17.5t-16.5 -7.5h-33q-13 0 -24 11l-82 81l-81 -81q-11 -11 -25 -11h-32zM321 -11q-129 0 -205.5 73t-76.5 183q0 115 75.5 191t206.5 76q80 0 151 -41q33 -19 10 -51l-8 -10
q-18 -25 -51 -10q-45 22 -97 22q-80 0 -132 -48t-52 -123t52 -123.5t132 -48.5q52 0 97 22q33 16 51 -10l7 -10q11 -14 4.5 -30.5t-29.5 -28.5q-61 -33 -135 -33z" />
    <glyph glyph-name="Cdotaccent" unicode="&#x10a;" horiz-adv-x="684" 
d="M405 764q-29 0 -48 18.5t-19 47.5q0 28 19 47t48 19q28 0 47.5 -19t19.5 -47t-19.5 -47t-47.5 -19zM424 -11q-173 0 -276 104.5t-103 256.5t103 256.5t276 104.5q116 0 204 -57q28 -19 12 -50l-9 -16q-17 -30 -50 -12q-73 40 -157 40q-125 0 -198 -76.5t-73 -189.5
t73 -189.5t198 -76.5q84 0 157 40q33 18 50 -12l9 -16q16 -30 -6 -46q-91 -61 -210 -61z" />
    <glyph glyph-name="cdotaccent" unicode="&#x10b;" horiz-adv-x="530" 
d="M307 576q-29 0 -49 19.5t-20 48.5t20 49.5t49 20.5t49.5 -20.5t20.5 -49.5q0 -28 -20.5 -48t-49.5 -20zM321 -11q-129 0 -205.5 73t-76.5 183q0 115 75.5 191t206.5 76q80 0 151 -41q33 -19 10 -51l-8 -10q-18 -25 -51 -10q-45 22 -97 22q-80 0 -132 -48t-52 -123
t52 -123.5t132 -48.5q52 0 97 22q33 16 51 -10l7 -10q11 -14 4.5 -30.5t-29.5 -28.5q-61 -33 -135 -33z" />
    <glyph glyph-name="Ccaron" unicode="&#x10c;" horiz-adv-x="684" 
d="M367 764q-15 0 -24 13l-80 102q-8 11 -4.5 18t16.5 7h31q17 0 26 -10l73 -75l73 75q10 10 26 10h31q13 0 17 -7t-4 -18l-80 -102q-10 -13 -25 -13h-76zM424 -11q-173 0 -276 104.5t-103 256.5t103 256.5t276 104.5q116 0 204 -57q28 -19 12 -50l-9 -16q-17 -30 -50 -12
q-73 40 -157 40q-125 0 -198 -76.5t-73 -189.5t73 -189.5t198 -76.5q84 0 157 40q33 18 50 -12l9 -16q16 -30 -6 -46q-91 -61 -210 -61z" />
    <glyph glyph-name="ccaron" unicode="&#x10d;" horiz-adv-x="530" 
d="M262 573q-15 0 -25 13l-89 114q-7 10 -3.5 17.5t16.5 7.5h32q15 0 25 -11l82 -81l81 81q10 11 25 11h32q13 0 16.5 -7.5t-3.5 -17.5l-89 -114q-10 -13 -25 -13h-75zM321 -11q-129 0 -205.5 73t-76.5 183q0 115 75.5 191t206.5 76q80 0 151 -41q33 -19 10 -51l-8 -10
q-18 -25 -51 -10q-45 22 -97 22q-80 0 -132 -48t-52 -123t52 -123.5t132 -48.5q52 0 97 22q33 16 51 -10l7 -10q11 -14 4.5 -30.5t-29.5 -28.5q-61 -33 -135 -33z" />
    <glyph glyph-name="Dcaron" unicode="&#x10e;" horiz-adv-x="730" 
d="M315 764q-15 0 -24 13l-80 102q-8 11 -4.5 18t16.5 7h31q17 0 26 -10l73 -75l73 75q10 10 26 10h31q13 0 17 -7t-4 -18l-80 -102q-10 -13 -25 -13h-76zM132 0q-36 0 -36 36v628q0 36 36 36h193q163 0 261.5 -100.5t98.5 -249.5t-98.5 -249.5t-261.5 -100.5h-193zM202 87
h121q115 0 184.5 75.5t69.5 187.5t-69.5 187.5t-184.5 75.5h-121v-526z" />
    <glyph glyph-name="dcaron" unicode="&#x10f;" horiz-adv-x="668" 
d="M689 732q39 0 57.5 -27t18.5 -55q0 -111 -107 -151q-15 -6 -21 8l-4 9q-6 13 8 21q44 17 56 48q6 15 6 32q-6 -2 -16 -4q-28 -3 -45 14t-18 41q-1 27 16.5 45.5t48.5 18.5zM288 -11q-110 0 -179 76t-69 186t69 185.5t179 75.5q116 0 179 -90v265q0 36 37 36h30
q36 0 36 -36v-651q0 -36 -36 -36h-30q-37 0 -37 36v43q-63 -90 -179 -90zM302 79q74 0 120 48.5t47 123.5q-1 75 -47 123.5t-120 48.5q-73 0 -116 -49.5t-43 -122.5t43 -122.5t116 -49.5z" />
    <glyph glyph-name="Dcroat" unicode="&#x110;" horiz-adv-x="733" 
d="M135 0q-36 0 -36 36v276h-57q-22 0 -22 22v30q0 22 22 22h57v278q0 36 36 36h192q163 0 261.5 -100.5t98.5 -249.5t-98.5 -249.5t-261.5 -100.5h-192zM205 87h121q115 0 184 75t69 188t-69 188t-184 75h-121v-227h138q22 0 22 -22v-30q0 -22 -22 -22h-138v-225z" />
    <glyph glyph-name="dcroat" unicode="&#x111;" horiz-adv-x="646" 
d="M288 -11q-110 0 -179 76t-69 186t69 185.5t179 75.5q116 0 179 -90v143h-99q-21 0 -21 20v13q0 20 21 20h99v69q0 36 37 36h30q36 0 36 -36v-69h52q20 0 20 -20v-13q0 -20 -20 -20h-52v-529q0 -36 -36 -36h-30q-37 0 -37 36v43q-63 -90 -179 -90zM302 79q74 0 120 48.5
t47 123.5q-1 75 -47 123.5t-120 48.5q-73 0 -116 -49.5t-43 -122.5t43 -122.5t116 -49.5z" />
    <glyph glyph-name="Emacron" unicode="&#x112;" horiz-adv-x="593" 
d="M195 781q-20 0 -20 21v37q0 21 20 21h242q20 0 20 -21v-37q0 -21 -20 -21h-242zM508 613h-306v-227h262q36 0 36 -36v-13q0 -37 -36 -37h-262v-213h306q36 0 36 -36v-15q0 -36 -36 -36h-376q-36 0 -36 36v628q0 36 36 36h376q36 0 36 -36v-15q0 -36 -36 -36z" />
    <glyph glyph-name="emacron" unicode="&#x113;" horiz-adv-x="597" 
d="M181 604q-21 0 -21 20v37q0 21 21 21h241q21 0 21 -21v-37q0 -20 -21 -20h-241zM322 -11q-129 0 -206.5 74.5t-77.5 185.5t77 187t193 76q101 0 173 -60.5t82 -174.5q2 -18 -7.5 -27.5t-27.5 -9.5h-388q-2 -70 49.5 -115.5t133.5 -45.5q74 0 136 42q28 18 51 -5l7 -8
q27 -29 -7 -57q-77 -62 -188 -62zM149 316h312q-32 108 -151 108q-51 0 -95.5 -25t-65.5 -83z" />
    <glyph glyph-name="Ebreve" unicode="&#x114;" horiz-adv-x="593" 
d="M317 764q-45 0 -82.5 28.5t-48.5 85.5q-5 20 18 22l21 3q20 2 24 -19q18 -55 68 -55q51 0 69 56q4 19 23 18l21 -2q25 -2 17 -34q-14 -52 -51 -77.5t-79 -25.5zM508 613h-306v-227h262q36 0 36 -36v-13q0 -37 -36 -37h-262v-213h306q36 0 36 -36v-15q0 -36 -36 -36h-376
q-36 0 -36 36v628q0 36 36 36h376q36 0 36 -36v-15q0 -36 -36 -36z" />
    <glyph glyph-name="ebreve" unicode="&#x115;" horiz-adv-x="597" 
d="M302 573q-48 0 -87 29.5t-50 94.5q-4 21 18 24l25 2q18 1 23 -19q12 -57 71 -57t71 57q4 19 23 18l24 -2q25 -2 16 -36q-13 -57 -51 -84t-83 -27zM322 -11q-129 0 -206.5 74.5t-77.5 185.5t77 187t193 76q101 0 173 -60.5t82 -174.5q2 -18 -7.5 -27.5t-27.5 -9.5h-388
q-2 -70 49.5 -115.5t133.5 -45.5q74 0 136 42q28 18 51 -5l7 -8q27 -29 -7 -57q-77 -62 -188 -62zM149 316h312q-32 108 -151 108q-51 0 -95.5 -25t-65.5 -83z" />
    <glyph glyph-name="Edotaccent" unicode="&#x116;" horiz-adv-x="593" 
d="M317 764q-29 0 -48 18.5t-19 47.5q0 28 19 47t48 19q28 0 47.5 -19t19.5 -47t-19.5 -47t-47.5 -19zM508 613h-306v-227h262q36 0 36 -36v-13q0 -37 -36 -37h-262v-213h306q36 0 36 -36v-15q0 -36 -36 -36h-376q-36 0 -36 36v628q0 36 36 36h376q36 0 36 -36v-15
q0 -36 -36 -36z" />
    <glyph glyph-name="edotaccent" unicode="&#x117;" horiz-adv-x="597" 
d="M301 576q-29 0 -49 19.5t-20 48.5t20 49.5t49 20.5t49.5 -20.5t20.5 -49.5q0 -28 -20.5 -48t-49.5 -20zM322 -11q-129 0 -206.5 74.5t-77.5 185.5t77 187t193 76q101 0 173 -60.5t82 -174.5q2 -18 -7.5 -27.5t-27.5 -9.5h-388q-2 -70 49.5 -115.5t133.5 -45.5
q74 0 136 42q28 18 51 -5l7 -8q27 -29 -7 -57q-77 -62 -188 -62zM149 316h312q-32 108 -151 108q-51 0 -95.5 -25t-65.5 -83z" />
    <glyph glyph-name="Eogonek" unicode="&#x118;" horiz-adv-x="593" 
d="M384 -223q-50 0 -89 29t-39 85q0 60 52 109h-176q-36 0 -36 36v628q0 36 36 36h376q36 0 36 -36v-15q0 -36 -36 -36h-306v-227h262q36 0 36 -36v-13q0 -37 -36 -37h-262v-213h306q36 0 36 -36v-15q0 -36 -36 -36h-142q-37 -45 -37 -88q0 -28 18 -44.5t41 -16.5
q45 0 71 40q11 17 28 8l11 -6q18 -11 11 -27q-15 -40 -48.5 -64.5t-76.5 -24.5z" />
    <glyph glyph-name="eogonek" unicode="&#x119;" horiz-adv-x="597" 
d="M415 -223q-50 0 -89.5 29t-39.5 85q0 52 42 98h-9q-127 1 -204 75.5t-77 184.5q0 111 77 187t193 76q101 0 173 -60.5t82 -174.5q2 -18 -7.5 -27.5t-27.5 -9.5h-388q-2 -70 49.5 -115.5t133.5 -45.5q74 0 136 42q28 18 51 -5l7 -8q27 -29 -7 -57q-51 -40 -117 -55
q-33 -43 -33 -84q0 -28 18 -44.5t41 -16.5q43 0 71 40q11 17 28 8l11 -6q17 -10 11 -27q-15 -40 -48.5 -64.5t-76.5 -24.5zM149 316h312q-32 108 -151 108q-51 0 -95.5 -25t-65.5 -83z" />
    <glyph glyph-name="Ecaron" unicode="&#x11a;" horiz-adv-x="593" 
d="M262 777l-80 102q-8 11 -4.5 18t16.5 7h31q17 0 26 -10l73 -75l73 75q10 10 26 10h31q13 0 17 -7t-4 -18l-80 -102q-10 -13 -25 -13h-76q-15 0 -24 13zM508 613h-306v-227h262q36 0 36 -36v-13q0 -37 -36 -37h-262v-213h306q36 0 36 -36v-15q0 -36 -36 -36h-376
q-36 0 -36 36v628q0 36 36 36h376q36 0 36 -36v-15q0 -36 -36 -36z" />
    <glyph glyph-name="ecaron" unicode="&#x11b;" horiz-adv-x="597" 
d="M263 573q-15 0 -25 13l-89 114q-7 10 -3.5 17.5t16.5 7.5h32q15 0 25 -11l82 -81l81 81q10 11 25 11h32q13 0 16.5 -7.5t-3.5 -17.5l-89 -114q-10 -13 -25 -13h-75zM322 -11q-129 0 -206.5 74.5t-77.5 185.5t77 187t193 76q101 0 173 -60.5t82 -174.5q2 -18 -7.5 -27.5
t-27.5 -9.5h-388q-2 -70 49.5 -115.5t133.5 -45.5q74 0 136 42q28 18 51 -5l7 -8q27 -29 -7 -57q-77 -62 -188 -62zM149 316h312q-32 108 -151 108q-51 0 -95.5 -25t-65.5 -83z" />
    <glyph glyph-name="Gcircumflex" unicode="&#x11c;" horiz-adv-x="735" 
d="M255 764q-13 0 -16.5 7.5t4.5 17.5l80 102q9 13 24 13h76q15 0 25 -13l80 -102q8 -10 4 -17.5t-17 -7.5h-31q-16 0 -26 11l-73 74l-73 -74q-9 -11 -26 -11h-31zM418 -11q-161 0 -267 104.5t-106 254.5q0 151 106 257t258 106q133 0 227 -58q29 -18 12 -50l-10 -17
q-16 -32 -50 -13q-37 20 -71 30t-54 11.5t-54 1.5q-107 0 -181.5 -77.5t-74.5 -189.5q0 -109 71 -187t199 -78q89 0 160 45v139h-158q-36 0 -36 37v12q0 36 36 36h219q36 0 36 -36v-202q0 -29 -31 -53q-99 -73 -231 -73z" />
    <glyph glyph-name="gcircumflex" unicode="&#x11d;" horiz-adv-x="644" 
d="M166 573q-13 0 -17 7.5t4 17.5l89 114q9 13 24 13h76q16 0 25 -13l88 -114q8 -10 4.5 -17.5t-16.5 -7.5h-33q-13 0 -24 11l-82 81l-81 -81q-11 -11 -25 -11h-32zM305 -235q-110 0 -190 52q-27 18 -11 50l8 14q16 33 49 12q62 -39 143 -39q74 0 118 41.5t44 119.5v64
q-63 -90 -179 -90q-110 0 -179 75.5t-69 186.5q0 110 69 185.5t179 75.5q116 0 179 -90v44q0 35 37 35h29q37 0 37 -36v-457q0 -120 -75.5 -181.5t-188.5 -61.5zM301 79q74 0 120 48.5t47 123.5q-1 75 -47 123.5t-120 48.5q-73 0 -116 -49.5t-43 -122.5t43 -122.5t116 -49.5
z" />
    <glyph glyph-name="Gbreve" unicode="&#x11e;" horiz-adv-x="735" 
d="M402 764q-45 0 -82.5 28.5t-48.5 85.5q-5 20 18 22l21 3q20 2 24 -19q18 -55 68 -55q51 0 69 56q4 19 23 18l21 -2q25 -2 17 -34q-14 -52 -51 -77.5t-79 -25.5zM418 -11q-161 0 -267 104.5t-106 254.5q0 151 106 257t258 106q133 0 227 -58q29 -18 12 -50l-10 -17
q-16 -32 -50 -13q-37 20 -71 30t-54 11.5t-54 1.5q-107 0 -181.5 -77.5t-74.5 -189.5q0 -109 71 -187t199 -78q89 0 160 45v139h-158q-36 0 -36 37v12q0 36 36 36h219q36 0 36 -36v-202q0 -29 -31 -53q-99 -73 -231 -73z" />
    <glyph glyph-name="gbreve" unicode="&#x11f;" horiz-adv-x="644" 
d="M305 573q-48 0 -87 29.5t-50 94.5q-4 21 18 24l25 2q18 1 23 -19q12 -57 71 -57t71 57q4 19 23 18l24 -2q25 -2 16 -36q-13 -57 -51 -84t-83 -27zM305 -235q-110 0 -190 52q-27 18 -11 50l8 14q16 33 49 12q62 -39 143 -39q74 0 118 41.5t44 119.5v64q-63 -90 -179 -90
q-110 0 -179 75.5t-69 186.5q0 110 69 185.5t179 75.5q116 0 179 -90v44q0 35 37 35h29q37 0 37 -36v-457q0 -120 -75.5 -181.5t-188.5 -61.5zM301 79q74 0 120 48.5t47 123.5q-1 75 -47 123.5t-120 48.5q-73 0 -116 -49.5t-43 -122.5t43 -122.5t116 -49.5z" />
    <glyph glyph-name="Gdotaccent" unicode="&#x120;" horiz-adv-x="735" 
d="M399 764q-29 0 -48 18.5t-19 47.5q0 28 19 47t48 19q28 0 47.5 -19t19.5 -47t-19.5 -47t-47.5 -19zM418 -11q-161 0 -267 104.5t-106 254.5q0 151 106 257t258 106q133 0 227 -58q29 -18 12 -50l-10 -17q-16 -32 -50 -13q-37 20 -71 30t-54 11.5t-54 1.5
q-107 0 -181.5 -77.5t-74.5 -189.5q0 -109 71 -187t199 -78q89 0 160 45v139h-158q-36 0 -36 37v12q0 36 36 36h219q36 0 36 -36v-202q0 -29 -31 -53q-99 -73 -231 -73z" />
    <glyph glyph-name="gdotaccent" unicode="&#x121;" horiz-adv-x="644" 
d="M304 576q-29 0 -49 19.5t-20 48.5t20 49.5t49 20.5t49.5 -20.5t20.5 -49.5q0 -28 -20.5 -48t-49.5 -20zM305 -235q-110 0 -190 52q-27 18 -11 50l8 14q16 33 49 12q62 -39 143 -39q74 0 118 41.5t44 119.5v64q-63 -90 -179 -90q-110 0 -179 75.5t-69 186.5
q0 110 69 185.5t179 75.5q116 0 179 -90v44q0 35 37 35h29q37 0 37 -36v-457q0 -120 -75.5 -181.5t-188.5 -61.5zM301 79q74 0 120 48.5t47 123.5q-1 75 -47 123.5t-120 48.5q-73 0 -116 -49.5t-43 -122.5t43 -122.5t116 -49.5z" />
    <glyph glyph-name="Gcommaaccent" unicode="&#x122;" horiz-adv-x="735" 
d="M418 -11q-161 0 -267 104.5t-106 254.5q0 151 106 257t258 106q133 0 227 -58q29 -18 12 -50l-10 -17q-16 -32 -50 -13q-37 20 -71 30t-54 11.5t-54 1.5q-107 0 -181.5 -77.5t-74.5 -189.5q0 -109 71 -187t199 -78q89 0 160 45v139h-158q-36 0 -36 37v12q0 36 36 36h219
q36 0 36 -36v-202q0 -29 -31 -53q-99 -73 -231 -73zM409 -56q39 0 57.5 -27t18.5 -55q0 -111 -107 -151q-14 -6 -20 8l-5 9q-6 13 8 21q44 19 56 48q6 15 6 32q-6 -2 -16 -4q-27 -3 -44.5 14t-18.5 41q-1 27 16.5 45.5t48.5 18.5z" />
    <glyph glyph-name="gcommaaccent" unicode="&#x123;" horiz-adv-x="644" 
d="M296 575q-38 0 -56.5 27t-18.5 56q0 109 107 151q14 6 20 -8l4 -9q7 -15 -7 -21q-44 -18 -56 -49q-6 -14 -6 -31q3 1 15 4q28 2 45.5 -14.5t18.5 -40.5q0 -28 -17 -46.5t-49 -18.5zM305 -235q-110 0 -190 52q-27 18 -11 50l8 14q16 33 49 12q62 -39 143 -39
q74 0 118 41.5t44 119.5v64q-63 -90 -179 -90q-110 0 -179 75.5t-69 186.5q0 110 69 185.5t179 75.5q116 0 179 -90v44q0 35 37 35h29q37 0 37 -36v-457q0 -120 -75.5 -181.5t-188.5 -61.5zM301 79q74 0 120 48.5t47 123.5q-1 75 -47 123.5t-120 48.5q-73 0 -116 -49.5
t-43 -122.5t43 -122.5t116 -49.5z" />
    <glyph glyph-name="Hcircumflex" unicode="&#x124;" horiz-adv-x="724" 
d="M232 764q-13 0 -16.5 7.5t4.5 17.5l80 102q9 13 24 13h76q15 0 25 -13l80 -102q8 -10 4 -17.5t-17 -7.5h-31q-16 0 -26 11l-73 74l-73 -74q-9 -11 -26 -11h-31zM132 0q-36 0 -36 36v628q0 36 36 36h34q36 0 36 -36v-287h320v287q0 36 37 36h33q36 0 36 -36v-628
q0 -36 -36 -36h-33q-37 0 -37 36v255h-320v-255q0 -36 -36 -36h-34z" />
    <glyph glyph-name="hcircumflex" unicode="&#x125;" horiz-adv-x="604" 
d="M-4 743q-13 0 -17 7.5t4 17.5l80 104q9 12 25 12h76q14 0 25 -12l80 -104q8 -10 4 -17.5t-17 -7.5h-32q-15 0 -25 11l-73 76l-73 -76q-10 -11 -26 -11h-31zM112 0q-37 0 -37 36v651q0 36 37 36h30q36 0 36 -36v-284q16 52 60.5 80.5t106.5 28.5q87 0 139.5 -58t52.5 -171
v-247q0 -36 -37 -36h-30q-36 0 -36 36v246q0 72 -28 106t-72 34q-23 0 -47 -8.5t-50 -27.5t-42.5 -58t-16.5 -93v-199q0 -36 -36 -36h-30z" />
    <glyph glyph-name="Hbar" unicode="&#x126;" horiz-adv-x="726" 
d="M133 0q-36 0 -36 36v439h-48q-21 0 -21 21v23q0 20 21 20h48v125q0 36 36 36h33q37 0 37 -36v-125h320v125q0 36 36 36h34q36 0 36 -36v-125h48q21 0 21 -20v-23q0 -21 -21 -21h-48v-439q0 -36 -36 -36h-34q-36 0 -36 36v255h-320v-255q0 -36 -37 -36h-33zM203 377h320
v98h-320v-98z" />
    <glyph glyph-name="hbar" unicode="&#x127;" horiz-adv-x="604" 
d="M112 0q-37 0 -37 36v530h-51q-21 0 -21 21v12q0 20 21 20h51v68q0 36 37 36h30q36 0 36 -36v-68h92q21 0 21 -20v-12q0 -21 -21 -21h-92v-163q16 52 60.5 80.5t106.5 28.5q87 0 139.5 -58t52.5 -171v-247q0 -36 -37 -36h-30q-36 0 -36 36v246q0 72 -28 106t-72 34
q-23 0 -47 -8.5t-50 -27.5t-42.5 -58t-16.5 -93v-199q0 -36 -36 -36h-30z" />
    <glyph glyph-name="Itilde" unicode="&#x128;" horiz-adv-x="298" 
d="M48 789q-10 -17 -27 -13l-9 2q-19 6 -13 27q14 45 33.5 65t50.5 20q23 0 68 -20.5t59 -20.5q26 0 41 31q9 17 26 13l9 -2q19 -6 13 -27q-14 -45 -33.5 -65t-50.5 -20q-23 0 -68 20.5t-59 20.5q-25 0 -40 -31zM132 0q-36 0 -36 36v628q0 36 36 36h34q36 0 36 -36v-628
q0 -36 -36 -36h-34z" />
    <glyph glyph-name="itilde" unicode="&#x129;" horiz-adv-x="260" 
d="M-11 594q-19 6 -13 26q14 45 33.5 65.5t50.5 20.5q24 0 68 -20.5t59 -20.5q27 0 41 31q9 17 26 13l9 -2q19 -6 13 -27q-14 -45 -33.5 -65.5t-50.5 -20.5q-24 0 -68 20.5t-59 20.5q-27 0 -41 -31q-9 -17 -26 -13zM115 0q-37 0 -37 36v429q0 36 37 36h30q36 0 36 -36v-429
q0 -36 -36 -36h-30z" />
    <glyph glyph-name="Imacron" unicode="&#x12a;" horiz-adv-x="298" 
d="M29 781q-20 0 -20 21v37q0 21 20 21h242q20 0 20 -21v-37q0 -21 -20 -21h-242zM132 0q-36 0 -36 36v628q0 36 36 36h34q36 0 36 -36v-628q0 -36 -36 -36h-34z" />
    <glyph glyph-name="imacron" unicode="&#x12b;" horiz-adv-x="260" 
d="M6 604q-20 0 -20 20v37q0 21 20 21h242q20 0 20 -21v-37q0 -20 -20 -20h-242zM115 0q-37 0 -37 36v429q0 36 37 36h30q36 0 36 -36v-429q0 -36 -36 -36h-30z" />
    <glyph glyph-name="Ibreve" unicode="&#x12c;" horiz-adv-x="298" 
d="M148 764q-45 0 -82.5 28.5t-48.5 85.5q-5 20 18 22l21 3q20 2 24 -19q18 -55 68 -55q51 0 69 56q4 19 23 18l21 -2q25 -2 17 -34q-14 -52 -51 -77.5t-79 -25.5zM132 0q-36 0 -36 36v628q0 36 36 36h34q36 0 36 -36v-628q0 -36 -36 -36h-34z" />
    <glyph glyph-name="ibreve" unicode="&#x12d;" horiz-adv-x="260" 
d="M126 573q-48 0 -87 29.5t-49 94.5q-4 21 17 24l26 2q17 1 23 -19q12 -57 70 -57q59 0 71 57q6 19 23 18l25 -2q24 -2 16 -36q-14 -58 -52 -84.5t-83 -26.5zM115 0q-37 0 -37 36v429q0 36 37 36h30q36 0 36 -36v-429q0 -36 -36 -36h-30z" />
    <glyph glyph-name="Iogonek" unicode="&#x12e;" horiz-adv-x="298" 
d="M295 -107q18 -11 11 -27q-15 -40 -48.5 -64.5t-76.5 -24.5q-50 0 -89 29t-39 85q0 64 58 114q-15 9 -15 31v628q0 36 36 36h34q36 0 36 -36v-628q0 -36 -36 -36h-3q-37 -45 -37 -88q0 -28 18 -44.5t41 -16.5q45 0 71 40q11 17 28 8z" />
    <glyph glyph-name="iogonek" unicode="&#x12f;" horiz-adv-x="260" 
d="M129 592q-30 0 -49.5 19.5t-19.5 48.5q0 30 19.5 50t49.5 20q31 0 51 -20t20 -50q0 -29 -20.5 -48.5t-50.5 -19.5zM155 -223q-50 0 -89.5 28.5t-39.5 85.5q0 60 52 109v465q0 36 37 36h30q36 0 36 -36v-429q0 -36 -36 -36h-9q-37 -45 -37 -88q0 -28 18 -44.5t41 -16.5
q45 0 71 40q11 17 28 8l11 -6q18 -10 11 -27q-15 -40 -48 -64.5t-76 -24.5z" />
    <glyph glyph-name="Idotaccent" unicode="&#x130;" horiz-adv-x="298" 
d="M147 764q-29 0 -48 18.5t-19 47.5q0 28 19 47t48 19q28 0 47.5 -19t19.5 -47t-19.5 -47t-47.5 -19zM132 0q-36 0 -36 36v628q0 36 36 36h34q36 0 36 -36v-628q0 -36 -36 -36h-34z" />
    <glyph glyph-name="dotlessi" unicode="&#x131;" horiz-adv-x="260" 
d="M115 0q-37 0 -37 36v429q0 36 37 36h30q36 0 36 -36v-429q0 -36 -36 -36h-30z" />
    <glyph glyph-name="IJ" unicode="&#x132;" horiz-adv-x="962" 
d="M132 0q-36 0 -36 36v628q0 36 36 36h34q36 0 36 -36v-628q0 -36 -36 -36h-34zM592 -11q-133 0 -199 73.5t-66 177.5q0 31 10 62q8 28 41 28h28q38 0 30 -40q-6 -27 -6 -43q0 -70 40.5 -116.5t120.5 -46.5q89 0 135 61t46 171v348q0 36 37 36h33q36 0 36 -36v-348
q0 -159 -74.5 -243t-211.5 -84z" />
    <glyph glyph-name="ij" unicode="&#x133;" horiz-adv-x="556" 
d="M129 592q-30 0 -49.5 19.5t-19.5 48.5q0 30 19.5 50t49.5 20q31 0 51 -20t20 -50q0 -29 -20.5 -48.5t-50.5 -19.5zM426 592q-30 0 -50 19.5t-20 48.5t20 49.5t50 20.5t50.5 -20.5t20.5 -49.5t-20.5 -48.5t-50.5 -19.5zM115 0q-37 0 -37 36v429q0 36 37 36h30q36 0 36 -36
v-429q0 -36 -36 -36h-30zM310 -235q-72 0 -112 35.5t-40 91.5q0 9 2 17q3 11 18 11h48q21 0 21 -18v-7q0 -18 16.5 -30t40.5 -12q68 0 68 90v522q0 36 37 36h32q37 0 37 -36v-505q0 -195 -168 -195z" />
    <glyph glyph-name="Jcircumflex" unicode="&#x134;" horiz-adv-x="664" 
d="M403 764q-13 0 -16.5 7.5t4.5 17.5l80 102q9 13 24 13h76q15 0 25 -13l80 -102q8 -10 4 -17.5t-17 -7.5h-31q-16 0 -26 11l-73 74l-73 -74q-9 -11 -26 -11h-31zM294 -11q-133 0 -199 73.5t-66 177.5q0 31 10 62q8 28 41 28h28q38 0 30 -40q-6 -27 -6 -43
q0 -70 40.5 -116.5t120.5 -46.5q89 0 135 61t46 171v348q0 36 37 36h33q36 0 36 -36v-348q0 -159 -74.5 -243t-211.5 -84z" />
    <glyph glyph-name="jcircumflex" unicode="&#x135;" horiz-adv-x="296" 
d="M29 573q-13 0 -16.5 7.5t4.5 17.5l88 114q9 13 25 13h76q15 0 24 -13l89 -114q8 -10 4 -17.5t-17 -7.5h-32q-14 0 -25 11l-81 81l-81 -81q-13 -11 -25 -11h-33zM52 -235q-72 0 -112.5 35.5t-40.5 91.5q0 9 2 17q3 11 18 11h49q21 0 21 -18v-7q0 -18 16.5 -30t40.5 -12
q33 0 50.5 24t17.5 66v522q0 36 36 36h33q36 0 36 -36v-505q0 -195 -167 -195z" />
    <glyph glyph-name="Kcommaaccent" unicode="&#x136;" horiz-adv-x="639" 
d="M528 -11q-36 0 -67.5 12.5t-56 36t-39 42t-31.5 44.5l-133 188v-276q0 -36 -36 -36h-34q-36 0 -36 36v628q0 36 36 36h34q36 0 36 -36v-304l226 317q16 23 45 23h55q17 0 19.5 -12t-8.5 -27l-235 -322l128 -175q58 -84 109 -84q25 0 42 8q33 12 47 -15l6 -12
q18 -34 -16 -50q-41 -22 -91 -22zM308 -56q39 0 57.5 -27t18.5 -55q0 -111 -107 -151q-14 -6 -20 8l-5 9q-6 13 8 21q44 19 56 48q6 15 6 32q-6 -2 -16 -4q-27 -3 -44.5 14t-18.5 41q-1 27 16.5 45.5t48.5 18.5z" />
    <glyph glyph-name="kcommaaccent" unicode="&#x137;" horiz-adv-x="545" 
d="M436 -11q-16 0 -29.5 2t-26 7t-22 8.5t-19.5 13t-15.5 13.5t-14.5 16l-12 16t-12 17t-10 15l-98 159v-220q0 -36 -36 -36h-30q-37 0 -37 36v651q0 36 37 36h30q36 0 36 -36v-396l153 189q15 21 44 21h38q24 0 30 -13t-9 -31l-154 -186l83 -127q32 -45 46 -54
q17 -12 41 -12q25 0 45 9q20 7 29 -9l16 -32q10 -24 -25 -41q-34 -16 -78 -16zM251 -56q39 0 57.5 -27t18.5 -55q0 -111 -107 -151q-14 -6 -20 8l-5 9q-6 13 8 21q44 19 56 48q6 15 6 32q-6 -2 -16 -4q-27 -3 -44.5 14t-18.5 41q-1 27 16.5 45.5t48.5 18.5z" />
    <glyph glyph-name="kgreenlandic" unicode="&#x138;" horiz-adv-x="551" 
d="M441 -11q-20 0 -35.5 3.5t-30.5 15t-22.5 18t-28 30t-30.5 33.5l-116 139v-192q0 -36 -36 -36h-30q-37 0 -37 36v429q0 36 37 36h29q36 0 36 -36v-196l189 212q17 20 44 20h35q23 0 29.5 -13.5t-9.5 -30.5l-187 -205l109 -129q16 -18 24.5 -26t21 -14t27.5 -6q19 0 33 9
q19 12 28 -6l17 -34q11 -20 -17 -36q-34 -21 -80 -21z" />
    <glyph glyph-name="Lacute" unicode="&#x139;" horiz-adv-x="537" 
d="M130 764q-12 0 -16.5 7.5t1.5 17.5l56 100q8 15 25 15h61q12 0 16 -7.5t-3 -17.5l-73 -101q-9 -14 -25 -14h-42zM132 0q-36 0 -36 36v628q0 36 36 36h34q36 0 36 -36v-577h283q37 0 37 -36v-15q0 -36 -37 -36h-353z" />
    <glyph glyph-name="lacute" unicode="&#x13a;" horiz-adv-x="260" 
d="M103 764q-12 0 -16.5 7.5t1.5 17.5l56 100q8 15 25 15h61q12 0 16 -7.5t-3 -17.5l-73 -101q-9 -14 -25 -14h-42zM115 0q-37 0 -37 36v651q0 36 37 36h30q36 0 36 -36v-651q0 -36 -36 -36h-30z" />
    <glyph glyph-name="Lcommaaccent" unicode="&#x13b;" horiz-adv-x="537" 
d="M132 0q-36 0 -36 36v628q0 36 36 36h34q36 0 36 -36v-577h283q37 0 37 -36v-15q0 -36 -37 -36h-353zM304 -56q39 0 57.5 -27t18.5 -55q0 -111 -107 -151q-14 -6 -20 8l-5 9q-6 13 8 21q44 19 56 48q6 15 6 32q-6 -2 -16 -4q-27 -3 -44.5 14t-18.5 41q-1 27 16.5 45.5
t48.5 18.5z" />
    <glyph glyph-name="lcommaaccent" unicode="&#x13c;" horiz-adv-x="260" 
d="M115 0q-37 0 -37 36v651q0 36 37 36h30q36 0 36 -36v-651q0 -36 -36 -36h-30zM119 -56q39 0 57.5 -27t18.5 -55q0 -111 -107 -151q-14 -6 -20 8l-5 9q-6 13 8 21q44 19 56 48q6 15 6 32q-6 -2 -16 -4q-27 -3 -44.5 14t-18.5 41q-1 27 16.5 45.5t48.5 18.5z" />
    <glyph glyph-name="Lcaron" unicode="&#x13d;" horiz-adv-x="537" 
d="M414 711q39 0 57.5 -27t18.5 -55q0 -110 -107 -152q-13 -6 -21 8l-4 9q-6 15 8 21q44 18 56 49q6 15 6 31l-16 -3q-28 -3 -45 14t-18 41q-1 27 16.5 45.5t48.5 18.5zM132 0q-36 0 -36 36v628q0 36 36 36h34q36 0 36 -36v-577h283q37 0 37 -36v-15q0 -36 -37 -36h-353z
" />
    <glyph glyph-name="lcaron" unicode="&#x13e;" horiz-adv-x="279" 
d="M115 0q-37 0 -37 36v651q0 36 37 36h30q36 0 36 -36v-651q0 -36 -36 -36h-30zM299 723q39 0 57.5 -27t18.5 -55q0 -110 -107 -152q-15 -6 -21 8l-4 9q-6 15 8 21q44 18 56 49q6 15 6 31l-16 -3q-28 -3 -45 14t-18 41q-1 27 16.5 45.5t48.5 18.5z" />
    <glyph glyph-name="Ldot" unicode="&#x13f;" horiz-adv-x="550" 
d="M132 0q-36 0 -36 36v628q0 36 36 36h34q36 0 36 -36v-577h283q37 0 37 -36v-15q0 -36 -37 -36h-353zM407 250q-29 0 -48 18.5t-19 47.5q0 28 19 47t48 19q28 0 47.5 -19t19.5 -47t-19.5 -47t-47.5 -19z" />
    <glyph glyph-name="ldot" unicode="&#x140;" horiz-adv-x="334" 
d="M115 0q-37 0 -37 36v651q0 36 37 36h30q36 0 36 -36v-651q0 -36 -36 -36h-30zM301 245q-29 0 -48 19t-19 47t19.5 47.5t47.5 19.5t47.5 -19.5t19.5 -47.5t-19.5 -47t-47.5 -19z" />
    <glyph glyph-name="Lslash" unicode="&#x141;" horiz-adv-x="540" 
d="M136 0q-36 0 -36 36v245l-61 -27q-24 -10 -24 16v24q0 18 16 25l69 29v316q0 36 36 36h33q37 0 37 -36v-269l133 57q24 10 24 -15v-25q0 -16 -15 -24l-142 -61v-240h283q36 0 36 -36v-15q0 -36 -36 -36h-353z" />
    <glyph glyph-name="lslash" unicode="&#x142;" horiz-adv-x="309" 
d="M125 0q-37 0 -37 36v221l-49 -21q-11 -5 -17 -0.5t-6 16.5v23q0 17 15 25l57 25v362q0 36 37 36h30q36 0 36 -36v-317l76 33q24 11 24 -15v-24q0 -18 -15 -25l-85 -36v-267q0 -36 -36 -36h-30z" />
    <glyph glyph-name="Nacute" unicode="&#x143;" horiz-adv-x="753" 
d="M346 764q-12 0 -16.5 7.5t1.5 17.5l56 100q8 15 25 15h61q12 0 16 -7.5t-3 -17.5l-73 -101q-9 -14 -25 -14h-42zM132 0q-36 0 -36 36v628q0 36 36 36h15q29 0 45 -22l358 -484v470q0 36 36 36h34q37 0 37 -36v-628q0 -36 -37 -36h-14q-28 0 -45 22l-359 486v-472
q0 -36 -36 -36h-34z" />
    <glyph glyph-name="nacute" unicode="&#x144;" horiz-adv-x="605" 
d="M294 573q-13 0 -17 7.5t2 17.5l65 112q8 15 24 15h67q13 0 16.5 -7.5t-4.5 -17.5l-85 -114q-9 -13 -25 -13h-43zM112 0q-37 0 -37 36v429q0 36 37 36h30q36 0 36 -36v-62q16 52 60.5 80.5t106.5 28.5q87 0 139.5 -58t52.5 -171v-247q0 -36 -37 -36h-30q-36 0 -36 36v246
q0 72 -28 106t-72 34q-23 0 -47 -8.5t-50 -27.5t-42.5 -58t-16.5 -93v-199q0 -36 -36 -36h-30z" />
    <glyph glyph-name="Ncommaaccent" unicode="&#x145;" horiz-adv-x="753" 
d="M132 0q-36 0 -36 36v628q0 36 36 36h15q29 0 45 -22l358 -484v470q0 36 36 36h34q37 0 37 -36v-628q0 -36 -37 -36h-14q-28 0 -45 22l-359 486v-472q0 -36 -36 -36h-34zM371 -56q39 0 57.5 -27t18.5 -55q0 -111 -107 -151q-14 -6 -20 8l-5 9q-6 13 8 21q44 19 56 48
q6 15 6 32q-6 -2 -16 -4q-27 -3 -44.5 14t-18.5 41q-1 27 16.5 45.5t48.5 18.5z" />
    <glyph glyph-name="ncommaaccent" unicode="&#x146;" horiz-adv-x="605" 
d="M112 0q-37 0 -37 36v429q0 36 37 36h30q36 0 36 -36v-62q16 52 60.5 80.5t106.5 28.5q87 0 139.5 -58t52.5 -171v-247q0 -36 -37 -36h-30q-36 0 -36 36v246q0 72 -28 106t-72 34q-23 0 -47 -8.5t-50 -27.5t-42.5 -58t-16.5 -93v-199q0 -36 -36 -36h-30zM300 -56
q39 0 57.5 -27t18.5 -55q0 -111 -107 -151q-14 -6 -20 8l-5 9q-6 13 8 21q44 19 56 48q6 15 6 32q-6 -2 -16 -4q-27 -3 -44.5 14t-18.5 41q-1 27 16.5 45.5t48.5 18.5z" />
    <glyph glyph-name="Ncaron" unicode="&#x147;" horiz-adv-x="753" 
d="M338 764q-15 0 -24 13l-80 102q-8 11 -4.5 18t16.5 7h31q17 0 26 -10l73 -75l73 75q10 10 26 10h31q13 0 17 -7t-4 -18l-80 -102q-10 -13 -25 -13h-76zM132 0q-36 0 -36 36v628q0 36 36 36h15q29 0 45 -22l358 -484v470q0 36 36 36h34q37 0 37 -36v-628q0 -36 -37 -36
h-14q-28 0 -45 22l-359 486v-472q0 -36 -36 -36h-34z" />
    <glyph glyph-name="ncaron" unicode="&#x148;" horiz-adv-x="605" 
d="M269 573q-15 0 -25 13l-89 114q-7 10 -3.5 17.5t16.5 7.5h32q15 0 25 -11l82 -81l81 81q10 11 25 11h32q13 0 16.5 -7.5t-3.5 -17.5l-89 -114q-10 -13 -25 -13h-75zM112 0q-37 0 -37 36v429q0 36 37 36h30q36 0 36 -36v-62q16 52 60.5 80.5t106.5 28.5q87 0 139.5 -58
t52.5 -171v-247q0 -36 -37 -36h-30q-36 0 -36 36v246q0 72 -28 106t-72 34q-23 0 -47 -8.5t-50 -27.5t-42.5 -58t-16.5 -93v-199q0 -36 -36 -36h-30z" />
    <glyph glyph-name="napostrophe" unicode="&#x149;" horiz-adv-x="687" 
d="M86 744q39 0 57.5 -27t18.5 -55q0 -111 -107 -151q-14 -8 -20 8l-5 9q-6 14 8 20q44 18 56 49q6 15 6 32q-6 -2 -16 -4q-27 -3 -44.5 14t-18.5 41q-1 27 16.5 45.5t48.5 18.5zM207 0q-37 0 -37 36v429q0 36 37 36h30q36 0 36 -36v-62q16 52 60.5 80.5t106.5 28.5
q87 0 139.5 -58t52.5 -171v-247q0 -36 -37 -36h-30q-36 0 -36 36v246q0 72 -28 106t-72 34q-23 0 -47 -8.5t-50 -27.5t-42.5 -58t-16.5 -93v-199q0 -36 -36 -36h-30z" />
    <glyph glyph-name="Eng" unicode="&#x14a;" horiz-adv-x="751" 
d="M405 -233q-18 -2 -27.5 7t-9.5 27v25q0 32 33 36q124 21 144 171q4 29 -21 61l-323 414v-472q0 -36 -36 -36h-34q-36 0 -36 36v628q0 36 36 36h16q27 0 44 -22l358 -457v443q0 36 36 36h34q37 0 37 -36v-576q0 -145 -65 -227.5t-186 -93.5z" />
    <glyph glyph-name="eng" unicode="&#x14b;" horiz-adv-x="603" 
d="M304 -233q-18 -2 -27.5 7.5t-9.5 27.5v17q0 32 34 38q62 11 97 61.5t35 130.5v233q0 72 -28 106t-72 34q-23 0 -47 -8.5t-50 -27.5t-42.5 -58t-16.5 -93v-199q0 -36 -36 -36h-30q-37 0 -37 36v429q0 36 37 36h30q36 0 36 -36v-62q16 52 60.5 80.5t106.5 28.5
q87 0 139.5 -58t52.5 -171v-216q0 -135 -60 -212t-172 -88z" />
    <glyph glyph-name="Omacron" unicode="&#x14c;" horiz-adv-x="817" 
d="M288 781q-20 0 -20 21v37q0 21 20 21h242q20 0 20 -21v-37q0 -21 -20 -21h-242zM409 -11q-151 0 -257.5 106t-106.5 255t106.5 255t257.5 106t257.5 -106t106.5 -255t-106.5 -255t-257.5 -106zM409 84q107 0 181.5 77t74.5 189t-74.5 189t-181.5 77t-181.5 -77
t-74.5 -189t74.5 -189t181.5 -77z" />
    <glyph glyph-name="omacron" unicode="&#x14d;" horiz-adv-x="606" 
d="M182 604q-21 0 -21 20v37q0 21 21 21h241q21 0 21 -21v-37q0 -20 -21 -20h-241zM302 -11q-110 0 -187 76.5t-77 185.5q0 108 77.5 184.5t186.5 76.5q110 0 188 -77t78 -184q0 -109 -78 -185.5t-188 -76.5zM302 79q68 0 115.5 50t47.5 121t-47.5 121.5t-115.5 50.5
q-67 0 -114.5 -50.5t-47.5 -121.5t47.5 -121t114.5 -50z" />
    <glyph glyph-name="Obreve" unicode="&#x14e;" horiz-adv-x="817" 
d="M409 764q-45 0 -82.5 28.5t-48.5 85.5q-5 20 18 22l21 3q20 2 24 -19q18 -55 68 -55q51 0 69 56q4 19 23 18l21 -2q25 -2 17 -34q-14 -52 -51 -77.5t-79 -25.5zM409 -11q-151 0 -257.5 106t-106.5 255t106.5 255t257.5 106t257.5 -106t106.5 -255t-106.5 -255
t-257.5 -106zM409 84q107 0 181.5 77t74.5 189t-74.5 189t-181.5 77t-181.5 -77t-74.5 -189t74.5 -189t181.5 -77z" />
    <glyph glyph-name="obreve" unicode="&#x14f;" horiz-adv-x="606" 
d="M303 573q-48 0 -87 29.5t-50 94.5q-4 21 18 24l25 2q18 1 23 -19q12 -57 71 -57t71 57q4 19 23 18l24 -2q25 -2 16 -36q-13 -57 -51 -84t-83 -27zM302 -11q-110 0 -187 76.5t-77 185.5q0 108 77.5 184.5t186.5 76.5q110 0 188 -77t78 -184q0 -109 -78 -185.5t-188 -76.5z
M302 79q68 0 115.5 50t47.5 121t-47.5 121.5t-115.5 50.5q-67 0 -114.5 -50.5t-47.5 -121.5t47.5 -121t114.5 -50z" />
    <glyph glyph-name="Ohungarumlaut" unicode="&#x150;" horiz-adv-x="817" 
d="M307 764q-13 0 -17 7.5t2 17.5l58 100q7 15 24 15h47q12 0 15.5 -7t-2.5 -18l-62 -101q-8 -14 -25 -14h-40zM470 764q-12 0 -16 7.5t2 17.5l57 100q8 15 25 15h47q12 0 15.5 -7t-2.5 -18l-63 -101q-8 -14 -24 -14h-41zM409 -11q-151 0 -257.5 106t-106.5 255t106.5 255
t257.5 106t257.5 -106t106.5 -255t-106.5 -255t-257.5 -106zM409 84q107 0 181.5 77t74.5 189t-74.5 189t-181.5 77t-181.5 -77t-74.5 -189t74.5 -189t181.5 -77z" />
    <glyph glyph-name="ohungarumlaut" unicode="&#x151;" horiz-adv-x="606" 
d="M204 573q-13 0 -17 7.5t2 17.5l65 112q8 15 25 15h46q13 0 16.5 -7.5t-2.5 -17.5l-70 -113q-8 -14 -25 -14h-40zM367 573q-12 0 -16 7.5t2 17.5l65 112q8 15 25 15h46q13 0 16.5 -7.5t-2.5 -17.5l-70 -113q-8 -14 -25 -14h-41zM302 -11q-110 0 -187 76.5t-77 185.5
q0 108 77.5 184.5t186.5 76.5q110 0 188 -77t78 -184q0 -109 -78 -185.5t-188 -76.5zM302 79q68 0 115.5 50t47.5 121t-47.5 121.5t-115.5 50.5q-67 0 -114.5 -50.5t-47.5 -121.5t47.5 -121t114.5 -50z" />
    <glyph glyph-name="OE" unicode="&#x152;" horiz-adv-x="966" 
d="M399 0q-150 0 -251.5 105.5t-101.5 255.5q0 148 100.5 243.5t252.5 95.5h482q36 0 36 -36v-15q0 -36 -36 -36h-298v-222h253q37 0 37 -36v-14q0 -36 -37 -36h-253v-218h298q36 0 36 -37v-14q0 -36 -36 -36h-482zM399 87h79v526h-79q-106 0 -176.5 -70t-70.5 -182
q0 -114 71.5 -194t175.5 -80z" />
    <glyph glyph-name="oe" unicode="&#x153;" horiz-adv-x="934" 
d="M302 -11q-110 0 -187 76.5t-77 185.5q0 108 77.5 184.5t186.5 76.5q99 0 173 -63q69 63 173 63q100 0 171 -61t81 -175q2 -17 -7 -26.5t-27 -9.5h-372q-2 -71 43 -116t126 -45q75 0 137 42q26 18 48 -4l10 -10q23 -26 -2 -50q-77 -68 -195 -68q-117 0 -186 63
q-76 -63 -173 -63zM499 316h301q-32 108 -150 108q-112 0 -151 -108zM303 79q68 0 115 49q-27 57 -27 121q0 60 28 123q-48 50 -116 50t-115.5 -50.5t-47.5 -121.5t47.5 -121t115.5 -50z" />
    <glyph glyph-name="Racute" unicode="&#x154;" horiz-adv-x="687" 
d="M279 764q-12 0 -16.5 7.5t1.5 17.5l56 100q8 15 25 15h61q12 0 16 -7.5t-3 -17.5l-73 -101q-9 -14 -25 -14h-42zM561 -11q-58 0 -102.5 30t-68.5 76.5t-36 88t-15 79.5h-138v-227q0 -36 -36 -36h-34q-36 0 -36 36v628q0 36 36 36h259q98 0 155.5 -64t57.5 -157
q0 -80 -44 -138t-120 -73q6 -67 42 -128.5t88 -61.5q30 0 51 12q33 15 48 -13l5 -9q15 -34 -11 -50q-44 -29 -101 -29zM201 347h168q57 0 90.5 36.5t33.5 95.5q0 60 -34 97t-90 37h-168v-266z" />
    <glyph glyph-name="racute" unicode="&#x155;" horiz-adv-x="370" 
d="M103 573q-13 0 -17 7.5t2 17.5l65 112q7 15 24 15h67q13 0 16.5 -7.5t-4.5 -17.5l-85 -114q-9 -13 -25 -13h-43zM112 0q-37 0 -37 36v429q0 36 37 36h30q36 0 36 -36v-76q12 58 49.5 90.5t84.5 32.5l22 -1q24 -3 24 -40v-29q0 -18 -7 -26t-20 -5t-27 3t-27.5 -3
t-32.5 -16.5t-32.5 -36t-23.5 -66t-10 -101.5v-155q0 -36 -36 -36h-30z" />
    <glyph glyph-name="Rcommaaccent" unicode="&#x156;" horiz-adv-x="687" 
d="M561 -11q-58 0 -102.5 30t-68.5 76.5t-36 88t-15 79.5h-138v-227q0 -36 -36 -36h-34q-36 0 -36 36v628q0 36 36 36h259q98 0 155.5 -64t57.5 -157q0 -80 -44 -138t-120 -73q6 -67 42 -128.5t88 -61.5q30 0 51 12q33 15 48 -13l5 -9q15 -34 -11 -50q-44 -29 -101 -29z
M201 347h168q57 0 90.5 36.5t33.5 95.5q0 60 -34 97t-90 37h-168v-266zM321 -56q39 0 57.5 -27t18.5 -55q0 -111 -107 -151q-14 -6 -20 8l-5 9q-6 13 8 21q44 19 56 48q6 15 6 32q-6 -2 -16 -4q-27 -3 -44.5 14t-18.5 41q-1 27 16.5 45.5t48.5 18.5z" />
    <glyph glyph-name="rcommaaccent" unicode="&#x157;" horiz-adv-x="370" 
d="M112 0q-37 0 -37 36v429q0 36 37 36h30q36 0 36 -36v-76q12 58 49.5 90.5t84.5 32.5l22 -1q24 -3 24 -40v-29q0 -18 -7 -26t-20 -5t-27 3t-27.5 -3t-32.5 -16.5t-32.5 -36t-23.5 -66t-10 -101.5v-155q0 -36 -36 -36h-30zM117 -56q39 0 57.5 -27t18.5 -55
q0 -111 -107 -151q-14 -6 -20 8l-5 9q-6 13 8 21q44 19 56 48q6 15 6 32q-6 -2 -16 -4q-27 -3 -44.5 14t-18.5 41q-1 27 16.5 45.5t48.5 18.5z" />
    <glyph glyph-name="Rcaron" unicode="&#x158;" horiz-adv-x="687" 
d="M274 764q-15 0 -24 13l-80 102q-8 11 -4.5 18t16.5 7h31q17 0 26 -10l73 -75l73 75q10 10 26 10h31q13 0 17 -7t-4 -18l-80 -102q-10 -13 -25 -13h-76zM561 -11q-58 0 -102.5 30t-68.5 76.5t-36 88t-15 79.5h-138v-227q0 -36 -36 -36h-34q-36 0 -36 36v628q0 36 36 36
h259q98 0 155.5 -64t57.5 -157q0 -80 -44 -138t-120 -73q6 -67 42 -128.5t88 -61.5q30 0 51 12q33 15 48 -13l5 -9q15 -34 -11 -50q-44 -29 -101 -29zM201 347h168q57 0 90.5 36.5t33.5 95.5q0 60 -34 97t-90 37h-168v-266z" />
    <glyph glyph-name="rcaron" unicode="&#x159;" horiz-adv-x="370" 
d="M176 573q-15 0 -25 13l-89 114q-7 10 -3.5 17.5t16.5 7.5h32q15 0 25 -11l82 -81l81 81q10 11 25 11h32q13 0 16.5 -7.5t-3.5 -17.5l-89 -114q-10 -13 -25 -13h-75zM112 0q-37 0 -37 36v429q0 36 37 36h30q36 0 36 -36v-76q12 58 49.5 90.5t84.5 32.5l22 -1q24 -3 24 -40
v-29q0 -18 -7 -26t-20 -5t-27 3t-27.5 -3t-32.5 -16.5t-32.5 -36t-23.5 -66t-10 -101.5v-155q0 -36 -36 -36h-30z" />
    <glyph glyph-name="Sacute" unicode="&#x15a;" horiz-adv-x="582" 
d="M272 764q-12 0 -16.5 7.5t1.5 17.5l56 100q8 15 25 15h61q12 0 16 -7.5t-3 -17.5l-73 -101q-9 -14 -25 -14h-42zM292 -11q-90 0 -155 39t-93 103q-7 16 0 28t24 17l29 7q29 7 45 -24q20 -34 59 -55.5t89 -21.5q66 0 105.5 29t39.5 75q0 70 -101 107l-104 35
q-164 55 -164 188q0 88 66.5 141.5t160.5 53.5q81 0 138 -35.5t82 -96.5q7 -16 0 -28t-24 -17l-25 -8q-31 -8 -46 23q-34 68 -124 68q-51 0 -86 -26.5t-35 -71.5q0 -64 89 -97l104 -39q84 -26 128 -78t44 -112q0 -94 -67.5 -149t-178.5 -55z" />
    <glyph glyph-name="sacute" unicode="&#x15b;" horiz-adv-x="444" 
d="M199 573q-13 0 -17 7.5t2 17.5l65 112q7 15 24 15h67q13 0 16.5 -7.5t-4.5 -17.5l-85 -114q-9 -13 -25 -13h-43zM224 -11q-59 0 -108 25t-74 72q-18 34 24 45l21 6q24 6 45 -21q33 -41 93 -41q36 0 60 19t24 47q0 40 -62 61l-67 23q-125 37 -125 137q0 65 47 107.5
t121 42.5q109 0 153 -82q9 -17 2.5 -29.5t-25.5 -16.5l-19 -4q-25 -7 -47 21q-22 26 -61 26q-32 0 -52 -17.5t-20 -44.5q0 -40 58 -58l72 -24q122 -38 122 -143q0 -69 -52.5 -110t-129.5 -41z" />
    <glyph glyph-name="Scircumflex" unicode="&#x15c;" horiz-adv-x="582" 
d="M159 764q-13 0 -16.5 7.5t4.5 17.5l80 102q9 13 24 13h76q15 0 25 -13l80 -102q8 -10 4 -17.5t-17 -7.5h-31q-16 0 -26 11l-73 74l-73 -74q-9 -11 -26 -11h-31zM292 -11q-90 0 -155 39t-93 103q-7 16 0 28t24 17l29 7q29 7 45 -24q20 -34 59 -55.5t89 -21.5
q66 0 105.5 29t39.5 75q0 70 -101 107l-104 35q-164 55 -164 188q0 88 66.5 141.5t160.5 53.5q81 0 138 -35.5t82 -96.5q7 -16 0 -28t-24 -17l-25 -8q-31 -8 -46 23q-34 68 -124 68q-51 0 -86 -26.5t-35 -71.5q0 -64 89 -97l104 -39q84 -26 128 -78t44 -112
q0 -94 -67.5 -149t-178.5 -55z" />
    <glyph glyph-name="scircumflex" unicode="&#x15d;" horiz-adv-x="444" 
d="M83 573q-13 0 -17 7.5t4 17.5l89 114q9 13 24 13h76q16 0 25 -13l88 -114q8 -10 4.5 -17.5t-16.5 -7.5h-33q-13 0 -24 11l-82 81l-81 -81q-11 -11 -25 -11h-32zM224 -11q-59 0 -108 25t-74 72q-18 34 24 45l21 6q24 6 45 -21q33 -41 93 -41q36 0 60 19t24 47q0 40 -62 61
l-67 23q-125 37 -125 137q0 65 47 107.5t121 42.5q109 0 153 -82q9 -17 2.5 -29.5t-25.5 -16.5l-19 -4q-25 -7 -47 21q-22 26 -61 26q-32 0 -52 -17.5t-20 -44.5q0 -40 58 -58l72 -24q122 -38 122 -143q0 -69 -52.5 -110t-129.5 -41z" />
    <glyph glyph-name="Scedilla" unicode="&#x15e;" horiz-adv-x="582" 
d="M538 193q0 -85 -56 -138.5t-151 -63.5q44 -47 44 -100q0 -57 -39.5 -85.5t-89.5 -28.5q-43 0 -76 24.5t-48 64.5q-7 17 11 27l11 6q17 9 28 -8q26 -40 71 -40q23 0 40.5 16.5t17.5 44.5q0 39 -27 77q-83 4 -143.5 43t-86.5 99q-7 16 0 28t24 17l29 7q29 7 45 -24
q20 -34 59 -55.5t89 -21.5q66 0 105.5 29t39.5 75q0 70 -101 107l-104 35q-164 55 -164 188q0 88 66.5 141.5t160.5 53.5q81 0 138 -35.5t82 -96.5q7 -16 0 -28t-24 -17l-25 -8q-31 -8 -46 23q-34 68 -124 68q-51 0 -86 -26.5t-35 -71.5q0 -64 89 -97l104 -39
q84 -26 128 -78t44 -112z" />
    <glyph glyph-name="scedilla" unicode="&#x15f;" horiz-adv-x="444" 
d="M406 140q0 -63 -43.5 -103t-111.5 -47q44 -45 44 -99q0 -56 -39 -85t-89 -29q-43 0 -76.5 24.5t-48.5 64.5q-7 16 11 27l11 6q17 9 28 -8q26 -40 71 -40q23 0 41 16.5t18 44.5q0 37 -29 79q-106 12 -151 95q-18 34 24 45l21 6q24 6 45 -21q33 -41 93 -41q36 0 60 19
t24 47q0 40 -62 61l-67 23q-125 37 -125 137q0 65 47 107.5t121 42.5q109 0 153 -82q9 -17 2.5 -29.5t-25.5 -16.5l-19 -4q-25 -7 -47 21q-22 26 -61 26q-32 0 -52 -17.5t-20 -44.5q0 -40 58 -58l72 -24q122 -38 122 -143z" />
    <glyph glyph-name="Scaron" unicode="&#x160;" horiz-adv-x="582" 
d="M251 764q-15 0 -24 13l-80 102q-8 11 -4.5 18t16.5 7h31q17 0 26 -10l73 -75l73 75q10 10 26 10h31q13 0 17 -7t-4 -18l-80 -102q-10 -13 -25 -13h-76zM292 -11q-90 0 -155 39t-93 103q-7 16 0 28t24 17l29 7q29 7 45 -24q20 -34 59 -55.5t89 -21.5q66 0 105.5 29
t39.5 75q0 70 -101 107l-104 35q-164 55 -164 188q0 88 66.5 141.5t160.5 53.5q81 0 138 -35.5t82 -96.5q7 -16 0 -28t-24 -17l-25 -8q-31 -8 -46 23q-34 68 -124 68q-51 0 -86 -26.5t-35 -71.5q0 -64 89 -97l104 -39q84 -26 128 -78t44 -112q0 -94 -67.5 -149t-178.5 -55z
" />
    <glyph glyph-name="scaron" unicode="&#x161;" horiz-adv-x="444" 
d="M208 573q-15 0 -25 13l-89 114q-7 10 -3.5 17.5t16.5 7.5h32q15 0 25 -11l82 -81l81 81q10 11 25 11h32q13 0 16.5 -7.5t-3.5 -17.5l-89 -114q-10 -13 -25 -13h-75zM224 -11q-59 0 -108 25t-74 72q-18 34 24 45l21 6q24 6 45 -21q33 -41 93 -41q36 0 60 19t24 47
q0 40 -62 61l-67 23q-125 37 -125 137q0 65 47 107.5t121 42.5q109 0 153 -82q9 -17 2.5 -29.5t-25.5 -16.5l-19 -4q-25 -7 -47 21q-22 26 -61 26q-32 0 -52 -17.5t-20 -44.5q0 -40 58 -58l72 -24q122 -38 122 -143q0 -69 -52.5 -110t-129.5 -41z" />
    <glyph glyph-name="uni0162" unicode="&#x162;" horiz-adv-x="603" 
d="M549 700q36 0 36 -36v-15q0 -36 -36 -36h-195v-577q0 -36 -36 -36h-33q-36 0 -36 36v577h-195q-36 0 -36 36v15q0 36 36 36h495zM296 -56q39 0 57.5 -27t18.5 -55q0 -111 -107 -151q-14 -6 -20 8l-5 9q-6 13 8 21q44 19 56 48q6 15 6 32q-6 -2 -16 -4q-27 -3 -44.5 14
t-18.5 41q-1 27 16.5 45.5t48.5 18.5z" />
    <glyph glyph-name="uni0163" unicode="&#x163;" horiz-adv-x="423" 
d="M259 -11q-68 0 -113.5 40.5t-45.5 129.5v262h-61q-20 0 -20 21v39q0 20 20 20h63l18 115q5 29 32 29h21q30 0 30 -31v-113h137q20 0 20 -20v-39q0 -21 -20 -21h-137v-268q0 -38 16 -56.5t42 -18.5q25 0 42 14t17 40q0 11 -2 19q-3 23 18 23h46q20 0 23 -18q4 -17 4 -37
q0 -58 -40 -94t-110 -36zM249 -56q39 0 57.5 -27t18.5 -55q0 -111 -107 -151q-14 -6 -20 8l-5 9q-6 13 8 21q44 19 56 48q6 15 6 32q-6 -2 -16 -4q-27 -3 -44.5 14t-18.5 41q-1 27 16.5 45.5t48.5 18.5z" />
    <glyph glyph-name="Tcaron" unicode="&#x164;" horiz-adv-x="603" 
d="M239 777l-80 102q-8 11 -4.5 18t16.5 7h31q17 0 26 -10l73 -75l73 75q10 10 26 10h31q13 0 17 -7t-4 -18l-80 -102q-10 -13 -25 -13h-76q-15 0 -24 13zM549 700q36 0 36 -36v-15q0 -36 -36 -36h-195v-577q0 -36 -36 -36h-33q-36 0 -36 36v577h-195q-36 0 -36 36v15
q0 36 36 36h495z" />
    <glyph glyph-name="tcaron" unicode="&#x165;" horiz-adv-x="423" 
d="M369 807q39 0 57.5 -27t18.5 -55q0 -111 -107 -151q-14 -6 -20 8l-5 9q-6 13 8 21q44 17 56 48q6 15 6 32q-3 -1 -15 -4q-28 -3 -45.5 14t-18.5 41q0 27 17 45.5t48 18.5zM259 -11q-68 0 -113.5 40.5t-45.5 129.5v262h-61q-20 0 -20 21v39q0 20 20 20h63l18 115
q5 29 32 29h21q30 0 30 -31v-113h137q20 0 20 -20v-39q0 -21 -20 -21h-137v-268q0 -38 16 -56.5t42 -18.5q25 0 42 14t17 40q0 11 -2 19q-3 23 18 23h46q20 0 23 -18q4 -17 4 -37q0 -58 -40 -94t-110 -36z" />
    <glyph glyph-name="Tbar" unicode="&#x166;" horiz-adv-x="619" 
d="M293 0q-37 0 -37 36v314h-129q-20 0 -20 20v24q0 20 20 20h129v199h-194q-36 0 -36 36v15q0 36 36 36h494q37 0 37 -36v-15q0 -36 -37 -36h-194v-199h131q20 0 20 -20v-24q0 -20 -20 -20h-131v-314q0 -36 -36 -36h-33z" />
    <glyph glyph-name="tbar" unicode="&#x167;" horiz-adv-x="424" 
d="M405 156q4 -17 4 -37q0 -58 -40 -94t-110 -36q-68 0 -113.5 40.5t-45.5 129.5v82h-50q-20 0 -20 21v20q0 21 20 21h50v118h-61q-20 0 -20 21v39q0 20 20 20h63l18 115q5 29 32 29h21q30 0 30 -31v-113h137q20 0 20 -20v-39q0 -21 -20 -21h-137v-118h100q20 0 20 -21v-20
q0 -21 -20 -21h-100v-88q0 -38 16 -56.5t42 -18.5q25 0 42 14t17 40q0 11 -2 19q-3 23 18 23h46q20 0 23 -18z" />
    <glyph glyph-name="Utilde" unicode="&#x168;" horiz-adv-x="729" 
d="M264 793q-10 -17 -27 -13l-9 2q-19 6 -13 27q14 45 33.5 65t50.5 20q23 0 68 -20.5t59 -20.5q26 0 41 31q9 17 26 13l9 -2q19 -6 13 -27q-14 -45 -33.5 -65t-50.5 -20q-23 0 -68 20.5t-59 20.5q-25 0 -40 -31zM364 -11q-119 0 -198.5 71.5t-79.5 199.5v404q0 36 36 36h34
q36 0 36 -36v-404q0 -84 49.5 -130t122.5 -46q74 0 123.5 45.5t49.5 130.5v404q0 36 36 36h33q37 0 37 -36v-404q0 -128 -80 -199.5t-199 -71.5z" />
    <glyph glyph-name="utilde" unicode="&#x169;" horiz-adv-x="604" 
d="M197 604q-9 -17 -27 -13l-8 3q-21 6 -13 26q14 45 33.5 65.5t50.5 20.5q23 0 67 -20.5t59 -20.5q27 0 41 31q9 18 27 13l8 -2q20 -6 14 -27q-15 -45 -34.5 -65.5t-50.5 -20.5q-23 0 -67 20.5t-59 20.5q-27 0 -41 -31zM259 -11q-87 0 -139 57.5t-52 171.5v247q0 36 36 36
h30q37 0 37 -36v-246q0 -72 27.5 -106t71.5 -34q23 0 47 8.5t50 27.5t42.5 58.5t16.5 92.5v199q0 36 36 36h30q37 0 37 -36v-429q0 -36 -37 -36h-30q-36 0 -36 36v62q-16 -52 -60.5 -80.5t-106.5 -28.5z" />
    <glyph glyph-name="Umacron" unicode="&#x16a;" horiz-adv-x="729" 
d="M244 781q-20 0 -20 21v37q0 21 20 21h242q20 0 20 -21v-37q0 -21 -20 -21h-242zM364 -11q-119 0 -198.5 71.5t-79.5 199.5v404q0 36 36 36h34q36 0 36 -36v-404q0 -84 49.5 -130t122.5 -46q74 0 123.5 45.5t49.5 130.5v404q0 36 36 36h33q37 0 37 -36v-404
q0 -128 -80 -199.5t-199 -71.5z" />
    <glyph glyph-name="umacron" unicode="&#x16b;" horiz-adv-x="604" 
d="M178 604q-21 0 -21 20v37q0 21 21 21h241q21 0 21 -21v-37q0 -20 -21 -20h-241zM259 -11q-87 0 -139 57.5t-52 171.5v247q0 36 36 36h30q37 0 37 -36v-246q0 -72 27.5 -106t71.5 -34q23 0 47 8.5t50 27.5t42.5 58.5t16.5 92.5v199q0 36 36 36h30q37 0 37 -36v-429
q0 -36 -37 -36h-30q-36 0 -36 36v62q-16 -52 -60.5 -80.5t-106.5 -28.5z" />
    <glyph glyph-name="Ubreve" unicode="&#x16c;" horiz-adv-x="729" 
d="M365 764q-45 0 -82.5 28.5t-48.5 85.5q-5 20 18 22l21 3q20 2 24 -19q18 -55 68 -55q51 0 69 56q4 19 23 18l21 -2q25 -2 17 -34q-14 -52 -51 -77.5t-79 -25.5zM364 -11q-119 0 -198.5 71.5t-79.5 199.5v404q0 36 36 36h34q36 0 36 -36v-404q0 -84 49.5 -130t122.5 -46
q74 0 123.5 45.5t49.5 130.5v404q0 36 36 36h33q37 0 37 -36v-404q0 -128 -80 -199.5t-199 -71.5z" />
    <glyph glyph-name="ubreve" unicode="&#x16d;" horiz-adv-x="604" 
d="M299 573q-48 0 -87 29.5t-50 94.5q-4 21 18 24l25 2q18 1 23 -19q12 -57 71 -57t71 57q4 19 23 18l24 -2q25 -2 16 -36q-13 -57 -51 -84t-83 -27zM259 -11q-87 0 -139 57.5t-52 171.5v247q0 36 36 36h30q37 0 37 -36v-246q0 -72 27.5 -106t71.5 -34q23 0 47 8.5t50 27.5
t42.5 58.5t16.5 92.5v199q0 36 36 36h30q37 0 37 -36v-429q0 -36 -37 -36h-30q-36 0 -36 36v62q-16 -52 -60.5 -80.5t-106.5 -28.5z" />
    <glyph glyph-name="Uring" unicode="&#x16e;" horiz-adv-x="729" 
d="M365 748q-45 0 -76 28.5t-31 72.5t31 72.5t76 28.5q46 0 77 -28.5t31 -72.5t-31 -72.5t-77 -28.5zM365 794q23 0 39 16t16 39q0 22 -16 37.5t-39 15.5t-39 -15.5t-16 -37.5q0 -23 16 -39t39 -16zM364 -11q-119 0 -198.5 71.5t-79.5 199.5v404q0 36 36 36h34q36 0 36 -36
v-404q0 -84 49.5 -130t122.5 -46q74 0 123.5 45.5t49.5 130.5v404q0 36 36 36h33q37 0 37 -36v-404q0 -128 -80 -199.5t-199 -71.5z" />
    <glyph glyph-name="uring" unicode="&#x16f;" horiz-adv-x="604" 
d="M298 573q-44 0 -75.5 31t-31.5 75q0 45 31.5 76t75.5 31q45 0 76.5 -31t31.5 -76q0 -44 -31.5 -75t-76.5 -31zM298 625q23 0 39 15.5t16 38.5t-16 39t-39 16t-39 -16t-16 -39t16 -38.5t39 -15.5zM259 -11q-87 0 -139 57.5t-52 171.5v247q0 36 36 36h30q37 0 37 -36v-246
q0 -72 27.5 -106t71.5 -34q23 0 47 8.5t50 27.5t42.5 58.5t16.5 92.5v199q0 36 36 36h30q37 0 37 -36v-429q0 -36 -37 -36h-30q-36 0 -36 36v62q-16 -52 -60.5 -80.5t-106.5 -28.5z" />
    <glyph glyph-name="Uhungarumlaut" unicode="&#x170;" horiz-adv-x="729" 
d="M243 764q-13 0 -17 7.5t2 17.5l58 100q7 15 24 15h47q12 0 15.5 -7t-2.5 -18l-62 -101q-8 -14 -25 -14h-40zM406 764q-12 0 -16 7.5t2 17.5l57 100q8 15 25 15h47q12 0 15.5 -7t-2.5 -18l-63 -101q-8 -14 -24 -14h-41zM364 -11q-119 0 -198.5 71.5t-79.5 199.5v404
q0 36 36 36h34q36 0 36 -36v-404q0 -84 49.5 -130t122.5 -46q74 0 123.5 45.5t49.5 130.5v404q0 36 36 36h33q37 0 37 -36v-404q0 -128 -80 -199.5t-199 -71.5z" />
    <glyph glyph-name="uhungarumlaut" unicode="&#x171;" horiz-adv-x="604" 
d="M176 573q-13 0 -17 7.5t2 17.5l65 112q8 15 25 15h46q13 0 16.5 -7.5t-2.5 -17.5l-70 -113q-8 -14 -25 -14h-40zM339 573q-12 0 -16 7.5t2 17.5l65 112q8 15 25 15h46q13 0 16.5 -7.5t-2.5 -17.5l-70 -113q-8 -14 -25 -14h-41zM259 -11q-87 0 -139 57.5t-52 171.5v247
q0 36 36 36h30q37 0 37 -36v-246q0 -72 27.5 -106t71.5 -34q23 0 47 8.5t50 27.5t42.5 58.5t16.5 92.5v199q0 36 36 36h30q37 0 37 -36v-429q0 -36 -37 -36h-30q-36 0 -36 36v62q-16 -52 -60.5 -80.5t-106.5 -28.5z" />
    <glyph glyph-name="Uogonek" unicode="&#x172;" horiz-adv-x="729" 
d="M606 700q37 0 37 -36v-404q0 -121 -72 -192t-182 -78q-28 -41 -28 -78q0 -28 18 -44.5t41 -16.5q44 0 70 40q12 17 28 8l12 -6q17 -10 10 -27q-15 -40 -48 -64.5t-76 -24.5q-50 0 -89.5 29t-39.5 85q0 54 44 99q-107 11 -176 81.5t-69 188.5v404q0 36 36 36h34
q36 0 36 -36v-404q0 -84 49.5 -130t122.5 -46q74 0 123.5 45.5t49.5 130.5v404q0 36 36 36h33z" />
    <glyph glyph-name="uogonek" unicode="&#x173;" horiz-adv-x="604" 
d="M614 -107q17 -10 11 -27q-15 -40 -48.5 -64.5t-76.5 -24.5q-50 0 -89 29t-39 85q0 60 54 110v97q-16 -52 -60.5 -80.5t-106.5 -28.5q-87 0 -139 57.5t-52 171.5v247q0 36 36 36h30q37 0 37 -36v-246q0 -72 27.5 -106t71.5 -34q23 0 47 8.5t50 27.5t42.5 58.5t16.5 92.5
v199q0 36 36 36h30q37 0 37 -36v-429q0 -36 -37 -36h-10q-37 -45 -37 -88q0 -28 18 -44.5t41 -16.5q45 0 71 40q11 17 28 8z" />
    <glyph glyph-name="Wcircumflex" unicode="&#x174;" horiz-adv-x="994" 
d="M367 764q-13 0 -16.5 7.5t4.5 17.5l80 102q9 13 24 13h76q15 0 25 -13l80 -102q8 -10 4 -17.5t-17 -7.5h-31q-16 0 -26 11l-73 74l-73 -74q-9 -11 -26 -11h-31zM279 0q-31 0 -40 30l-197 628q-5 19 3.5 30.5t27.5 11.5h32q31 0 41 -30l153 -492l146 469q9 30 40 30h23
q32 0 41 -30l145 -469l154 492q9 30 41 30h31q20 0 28.5 -11.5t2.5 -30.5l-196 -628q-9 -30 -41 -30h-27q-32 0 -41 30l-149 486l-150 -486q-9 -30 -40 -30h-28z" />
    <glyph glyph-name="wcircumflex" unicode="&#x175;" horiz-adv-x="822" 
d="M273 573q-13 0 -17 7.5t4 17.5l89 114q9 13 24 13h76q16 0 25 -13l88 -114q8 -10 4.5 -17.5t-16.5 -7.5h-33q-13 0 -24 11l-82 81l-81 -81q-11 -11 -25 -11h-32zM236 0q-31 0 -41 29l-156 431q-7 19 1 30t28 11h32q32 0 42 -29l116 -334l102 318q9 31 40 31h22
q31 0 40 -31l103 -318l115 334q10 29 42 29h32q43 0 29 -41l-155 -431q-11 -29 -42 -29h-33q-31 0 -41 30l-101 312l-101 -312q-9 -30 -41 -30h-33z" />
    <glyph glyph-name="Ycircumflex" unicode="&#x176;" horiz-adv-x="683" 
d="M211 764q-13 0 -16.5 7.5t4.5 17.5l80 102q9 13 24 13h76q15 0 25 -13l80 -102q8 -10 4 -17.5t-17 -7.5h-31q-16 0 -26 11l-73 74l-73 -74q-9 -11 -26 -11h-31zM325 0q-36 0 -36 36v252l-244 368q-13 19 -6 31.5t29 12.5h44q30 0 43 -24l186 -298l187 298q14 24 44 24h43
q22 0 29 -12.5t-6 -31.5l-243 -368v-252q0 -36 -37 -36h-33z" />
    <glyph glyph-name="ycircumflex" unicode="&#x177;" horiz-adv-x="558" 
d="M142 573q-13 0 -17 7.5t4 17.5l89 114q9 13 24 13h76q16 0 25 -13l88 -114q8 -10 4.5 -17.5t-16.5 -7.5h-33q-13 0 -24 11l-82 81l-81 -81q-11 -11 -25 -11h-32zM179 -224q-20 0 -28 11.5t0 30.5l77 201l-192 440q-8 19 0 30.5t28 11.5h40q31 0 41 -28l139 -339l128 338
q10 29 43 29h41q20 0 28 -11.5t0 -30.5l-279 -655q-11 -28 -42 -28h-24z" />
    <glyph glyph-name="Ydieresis" unicode="&#x178;" horiz-adv-x="683" 
d="M232 764q-28 0 -46 18t-18 45q0 28 18 46t46 18t46 -18t18 -46q0 -27 -18 -45t-46 -18zM449 764q-28 0 -46 18t-18 45q0 28 18 46t46 18t46 -18t18 -46q0 -27 -18 -45t-46 -18zM325 0q-36 0 -36 36v252l-244 368q-13 19 -6 31.5t29 12.5h44q30 0 43 -24l186 -298l187 298
q14 24 44 24h43q22 0 29 -12.5t-6 -31.5l-243 -368v-252q0 -36 -37 -36h-33z" />
    <glyph glyph-name="Zacute" unicode="&#x179;" horiz-adv-x="645" 
d="M286 764q-12 0 -16.5 7.5t1.5 17.5l56 100q8 15 25 15h61q12 0 16 -7.5t-3 -17.5l-73 -101q-9 -14 -25 -14h-42zM66 0q-37 0 -37 36v18q0 25 16 44l405 515h-358q-36 0 -36 36v15q0 36 36 36h462q37 0 37 -36v-18q0 -25 -16 -44l-409 -515h411q37 0 37 -36v-15
q0 -36 -37 -36h-511z" />
    <glyph glyph-name="zacute" unicode="&#x17a;" horiz-adv-x="560" 
d="M242 573q-13 0 -17 7.5t2 17.5l65 112q8 15 24 15h67q13 0 16.5 -7.5t-4.5 -17.5l-85 -114q-9 -13 -25 -13h-43zM66 0q-36 0 -36 36v2q0 26 18 45l315 336h-275q-17 0 -27 9.5t-10 26.5v10q0 36 37 36h383q36 0 36 -36v-2q0 -26 -17 -44l-315 -337h317q37 0 37 -36v-10
q-2 -36 -37 -36h-426z" />
    <glyph glyph-name="Zdotaccent" unicode="&#x17b;" horiz-adv-x="645" 
d="M322 764q-29 0 -48 18.5t-19 47.5q0 28 19 47t48 19q28 0 47.5 -19t19.5 -47t-19.5 -47t-47.5 -19zM66 0q-37 0 -37 36v18q0 25 16 44l405 515h-358q-36 0 -36 36v15q0 36 36 36h462q37 0 37 -36v-18q0 -25 -16 -44l-409 -515h411q37 0 37 -36v-15q0 -36 -37 -36h-511z
" />
    <glyph glyph-name="zdotaccent" unicode="&#x17c;" horiz-adv-x="560" 
d="M279 576q-29 0 -49 19.5t-20 48.5t20 49.5t49 20.5t49.5 -20.5t20.5 -49.5q0 -28 -20.5 -48t-49.5 -20zM66 0q-36 0 -36 36v2q0 26 18 45l315 336h-275q-17 0 -27 9.5t-10 26.5v10q0 36 37 36h383q36 0 36 -36v-2q0 -26 -17 -44l-315 -337h317q37 0 37 -36v-10
q-2 -36 -37 -36h-426z" />
    <glyph glyph-name="Zcaron" unicode="&#x17d;" horiz-adv-x="645" 
d="M284 764q-15 0 -24 13l-80 102q-8 11 -4.5 18t16.5 7h31q17 0 26 -10l73 -75l73 75q10 10 26 10h31q13 0 17 -7t-4 -18l-80 -102q-10 -13 -25 -13h-76zM66 0q-37 0 -37 36v18q0 25 16 44l405 515h-358q-36 0 -36 36v15q0 36 36 36h462q37 0 37 -36v-18q0 -25 -16 -44
l-409 -515h411q37 0 37 -36v-15q0 -36 -37 -36h-511z" />
    <glyph glyph-name="zcaron" unicode="&#x17e;" horiz-adv-x="560" 
d="M242 573q-15 0 -25 13l-89 114q-7 10 -3.5 17.5t16.5 7.5h32q15 0 25 -11l82 -81l81 81q10 11 25 11h32q13 0 16.5 -7.5t-3.5 -17.5l-89 -114q-10 -13 -25 -13h-75zM66 0q-36 0 -36 36v2q0 26 18 45l315 336h-275q-17 0 -27 9.5t-10 26.5v10q0 36 37 36h383q36 0 36 -36
v-2q0 -26 -17 -44l-315 -337h317q37 0 37 -36v-10q-2 -36 -37 -36h-426z" />
    <glyph glyph-name="longs" unicode="&#x17f;" horiz-adv-x="375" 
d="M144 0q-36 0 -36 36v385h-58q-20 0 -20 21v38q0 21 20 21h58v37q0 195 167 195q72 0 112.5 -35.5t40.5 -91.5q0 -9 -2 -17q-3 -11 -18 -11h-49q-21 0 -21 18v7q0 18 -16.5 30t-40.5 12q-33 0 -50.5 -24t-17.5 -66v-519q0 -36 -36 -36h-33z" />
    <glyph glyph-name="florin" unicode="&#x192;" horiz-adv-x="420" 
d="M63 -235q-46 0 -78 18q-15 10 -7 28l17 35q9 18 27 10q22 -7 38 -7q71 0 71 96v377h-57q-21 0 -21 20v39q0 21 21 21h57v116q0 57 15.5 97t42 60t55 28.5t61.5 8.5q45 0 76 -14q17 -9 8 -27l-18 -37q-7 -16 -27 -11q-12 5 -33 5q-74 0 -74 -96v-130h108q21 0 21 -21v-39
q0 -20 -21 -20h-108v-362q0 -57 -15.5 -97.5t-42 -60.5t-55 -28.5t-61.5 -8.5z" />
    <glyph glyph-name="Aringacute" unicode="&#x1fa;" horiz-adv-x="683" 
d="M341 723q-44 0 -74.5 27.5t-30.5 70.5q0 35 20.5 60t53.5 35l38 65q8 14 24 14h54q13 0 16.5 -7t-4.5 -17l-49 -61q58 -27 58 -89q0 -43 -30.5 -70.5t-75.5 -27.5zM341 773q24 0 39.5 12.5t15.5 35.5t-15.5 35.5t-39.5 12.5t-39.5 -12.5t-15.5 -35.5t15.5 -35.5
t39.5 -12.5zM57 0q-20 0 -28 11.5t0 30.5l241 629q11 29 42 29h58q31 0 42 -29l243 -629q7 -19 -0.5 -30.5t-27.5 -11.5h-32q-31 0 -43 29l-43 114h-334l-43 -114q-12 -29 -42 -29h-33zM205 229h274l-138 368z" />
    <glyph glyph-name="aringacute" unicode="&#x1fb;" horiz-adv-x="645" 
d="M289 552q-44 0 -74.5 27.5t-30.5 70.5q0 34 20.5 59.5t53.5 34.5l38 66q8 14 24 14h54q13 0 16.5 -7t-4.5 -17l-49 -62q58 -25 58 -88q0 -43 -30.5 -70.5t-75.5 -27.5zM289 602q24 0 39.5 12.5t15.5 35.5q0 22 -15.5 34.5t-39.5 12.5t-39 -12t-15 -35t15 -35.5t39 -12.5z
M287 -11q-110 0 -179 76t-69 186t69 185.5t179 75.5q116 0 179 -90v43q0 36 37 36h30q36 0 36 -36v-429q0 -36 -36 -36h-30q-37 0 -37 36v43q-63 -90 -179 -90zM301 79q74 0 120 48.5t47 123.5q-1 75 -47 123.5t-120 48.5q-73 0 -116 -49.5t-43 -122.5t43 -122.5t116 -49.5z
" />
    <glyph glyph-name="AEacute" unicode="&#x1fc;" horiz-adv-x="929" 
d="M482 764q-12 0 -16.5 7.5t1.5 17.5l56 100q8 15 25 15h61q12 0 16 -7.5t-3 -17.5l-73 -101q-9 -14 -25 -14h-42zM42 0q-21 0 -28 12t3 32l341 630q13 26 42 26h443q36 0 36 -36v-15q0 -36 -36 -36h-289v-237h255q37 0 37 -36v-14q0 -36 -37 -36h-255v-203h289
q36 0 36 -36v-15q0 -36 -36 -36h-359q-36 0 -36 36v246h-193l-134 -256q-12 -26 -42 -26h-37zM301 368h147v245h-20z" />
    <glyph glyph-name="aeacute" unicode="&#x1fd;" horiz-adv-x="937" 
d="M446 573q-13 0 -17 7.5t2 17.5l65 112q8 15 24 15h67q13 0 16.5 -7.5t-4.5 -17.5l-85 -114q-9 -13 -25 -13h-43zM230 -11q-84 0 -142 43.5t-58 119.5q0 69 52.5 113t148.5 44q95 0 157 -24v17q0 121 -128 121q-66 0 -123 -32q-33 -18 -50 12l-5 10q-15 31 11 50
q70 49 177 49q140 0 187 -88q75 88 200 88q99 0 168 -60t79 -175q2 -18 -8 -27.5t-28 -9.5h-381q-2 -70 50.5 -115.5t134.5 -45.5q68 0 127 41q30 20 51 -4l8 -8q24 -27 -2 -52q-75 -67 -186 -67q-160 0 -232 113q-26 -50 -81 -81.5t-127 -31.5zM497 316h304
q-32 108 -142 108q-121 0 -162 -108zM248 67q43 0 85 23.5t71 69.5q-10 32 -10 57q-79 21 -151 21q-56 0 -82.5 -25.5t-26.5 -59.5t28.5 -60t85.5 -26z" />
    <glyph glyph-name="Oslashacute" unicode="&#x1fe;" horiz-adv-x="817" 
d="M395 764q-12 0 -16.5 7.5t1.5 17.5l56 100q8 15 25 15h61q12 0 16 -7.5t-3 -17.5l-73 -101q-9 -14 -25 -14h-42zM212 -26q-13 -18 -29 -6l-30 21q-16 12 -5 27l34 51q-64 50 -100.5 124t-36.5 159q0 149 106.5 255t257.5 106q92 0 176 -45l41 60q12 19 29 6l30 -21
q16 -11 5 -28l-42 -61q59 -51 92 -121.5t33 -150.5q0 -149 -106.5 -255t-257.5 -106q-87 0 -161 37zM238 150l292 434q-58 32 -121 32q-107 0 -181.5 -77t-74.5 -189q0 -122 85 -200zM409 84q107 0 181.5 77t74.5 189q0 111 -73 187l-290 -430q54 -23 107 -23z" />
    <glyph glyph-name="oslashacute" unicode="&#x1ff;" horiz-adv-x="607" 
d="M284 573q-13 0 -17 7.5t2 17.5l65 112q8 15 24 15h67q13 0 16.5 -7.5t-4.5 -17.5l-85 -114q-9 -13 -25 -13h-43zM113 -13q-13 -15 -29 -2l-18 17q-16 14 -2 29l42 46q-67 73 -67 174q0 108 77.5 184.5t186.5 76.5q81 0 148 -45l38 43q13 17 28 2l18 -17q16 -13 2 -29
l-36 -41q68 -78 68 -174q0 -109 -78 -185.5t-188 -76.5q-81 0 -148 45zM171 151l217 246q-39 25 -85 25q-67 0 -114.5 -50.5t-47.5 -121.5q0 -55 30 -99zM303 79q68 0 115.5 50t47.5 121q0 58 -31 101l-217 -246q39 -26 85 -26z" />
    <glyph glyph-name="Scommaaccent" unicode="&#x218;" horiz-adv-x="582" 
d="M292 -11q-90 0 -155 39t-93 103q-7 16 0 28t24 17l29 7q29 7 45 -24q20 -34 59 -55.5t89 -21.5q66 0 105.5 29t39.5 75q0 70 -101 107l-104 35q-164 55 -164 188q0 88 66.5 141.5t160.5 53.5q81 0 138 -35.5t82 -96.5q7 -16 0 -28t-24 -17l-25 -8q-31 -8 -46 23
q-34 68 -124 68q-51 0 -86 -26.5t-35 -71.5q0 -64 89 -97l104 -39q84 -26 128 -78t44 -112q0 -94 -67.5 -149t-178.5 -55zM284 -56q39 0 57.5 -27t18.5 -55q0 -111 -107 -151q-14 -6 -20 8l-5 9q-6 13 8 21q44 19 56 48q6 15 6 32q-6 -2 -16 -4q-27 -3 -44.5 14t-18.5 41
q-1 27 16.5 45.5t48.5 18.5z" />
    <glyph glyph-name="scommaaccent" unicode="&#x219;" horiz-adv-x="444" 
d="M224 -11q-59 0 -108 25t-74 72q-18 34 24 45l21 6q24 6 45 -21q33 -41 93 -41q36 0 60 19t24 47q0 40 -62 61l-67 23q-125 37 -125 137q0 65 47 107.5t121 42.5q109 0 153 -82q9 -17 2.5 -29.5t-25.5 -16.5l-19 -4q-25 -7 -47 21q-22 26 -61 26q-32 0 -52 -17.5
t-20 -44.5q0 -40 58 -58l72 -24q122 -38 122 -143q0 -69 -52.5 -110t-129.5 -41zM219 -56q39 0 57.5 -27t18.5 -55q0 -111 -107 -151q-14 -6 -20 8l-5 9q-6 13 8 21q44 19 56 48q6 15 6 32q-6 -2 -16 -4q-27 -3 -44.5 14t-18.5 41q-1 27 16.5 45.5t48.5 18.5z" />
    <glyph glyph-name="uni021A" unicode="&#x21a;" horiz-adv-x="603" 
d="M265 -223q-43 0 -76 24.5t-48 64.5q-7 17 11 27l11 6q16 9 28 -8q26 -40 71 -40q23 0 40.5 16.5t17.5 44.5q0 44 -34 88h-8q-29 0 -29 36v577h-195q-36 0 -36 36v15q0 36 36 36h495q36 0 36 -36v-15q0 -36 -36 -36h-195v-577q0 -24 -17 -32q57 -51 57 -113
q0 -57 -39.5 -85.5t-89.5 -28.5z" />
    <glyph glyph-name="uni021B" unicode="&#x21b;" horiz-adv-x="423" 
d="M409 119q0 -56 -38 -92.5t-106 -37.5q42 -45 42 -98q0 -56 -39 -85t-89 -29q-43 0 -76.5 24.5t-48.5 64.5q-7 16 11 27l11 6q17 9 28 -8q26 -40 71 -40q23 0 41 16.5t18 44.5q0 42 -34 86q-100 33 -100 161v262h-61q-20 0 -20 21v39q0 20 20 20h63l18 115q5 29 32 29h21
q30 0 30 -31v-113h137q20 0 20 -20v-39q0 -21 -20 -21h-137v-268q0 -38 16 -56.5t42 -18.5q25 0 42 14t17 40q0 11 -2 19q-3 23 18 23h46q20 0 23 -18q4 -17 4 -37z" />
    <glyph glyph-name="circumflex" unicode="&#x2c6;" horiz-adv-x="612" 
d="M168 573q-13 0 -17 7.5t4 17.5l89 114q9 13 24 13h76q16 0 25 -13l88 -114q8 -10 4.5 -17.5t-16.5 -7.5h-33q-13 0 -24 11l-82 81l-81 -81q-11 -11 -25 -11h-32z" />
    <glyph glyph-name="caron" unicode="&#x2c7;" horiz-adv-x="599" 
d="M262 573q-15 0 -25 13l-89 114q-7 10 -3.5 17.5t16.5 7.5h32q15 0 25 -11l82 -81l81 81q10 11 25 11h32q13 0 16.5 -7.5t-3.5 -17.5l-89 -114q-10 -13 -25 -13h-75z" />
    <glyph glyph-name="uni02C9" unicode="&#x2c9;" horiz-adv-x="541" 
d="M150 604q-21 0 -21 20v37q0 21 21 21h241q21 0 21 -21v-37q0 -20 -21 -20h-241z" />
    <glyph glyph-name="breve" unicode="&#x2d8;" horiz-adv-x="482" 
d="M241 573q-48 0 -87 29.5t-50 94.5q-4 21 18 24l25 2q18 1 23 -19q12 -57 71 -57t71 57q4 19 23 18l24 -2q25 -2 16 -36q-13 -57 -51 -84t-83 -27z" />
    <glyph glyph-name="dotaccent" unicode="&#x2d9;" horiz-adv-x="303" 
d="M151 576q-29 0 -49 19.5t-20 48.5t20 49.5t49 20.5t49.5 -20.5t20.5 -49.5q0 -28 -20.5 -48t-49.5 -20z" />
    <glyph glyph-name="ring" unicode="&#x2da;" horiz-adv-x="379" 
d="M189 573q-44 0 -75.5 31t-31.5 75q0 45 31.5 76t75.5 31q45 0 76.5 -31t31.5 -76q0 -44 -31.5 -75t-76.5 -31zM189 625q23 0 39 15.5t16 38.5t-16 39t-39 16t-39 -16t-16 -39t16 -38.5t39 -15.5z" />
    <glyph glyph-name="ogonek" unicode="&#x2db;" horiz-adv-x="461" 
d="M231 -223q-50 0 -89.5 28.5t-39.5 85.5q0 65 65 119q11 8 36 8q12 0 12 -8v-6l-5 -6q-34 -44 -34 -86q0 -28 17.5 -44.5t40.5 -16.5q45 0 71 40q12 17 28 8l11 -6q18 -10 11 -27q-15 -40 -48 -64.5t-76 -24.5z" />
    <glyph glyph-name="tilde" unicode="&#x2dc;" horiz-adv-x="506" 
d="M151 604q-9 -17 -27 -13l-8 3q-21 6 -13 26q14 45 33.5 65.5t50.5 20.5q23 0 67 -20.5t59 -20.5q27 0 41 31q9 18 27 13l8 -2q20 -6 14 -27q-15 -45 -34.5 -65.5t-50.5 -20.5q-23 0 -67 20.5t-59 20.5q-27 0 -41 -31z" />
    <glyph glyph-name="hungarumlaut" unicode="&#x2dd;" horiz-adv-x="545" 
d="M130 573q-13 0 -17 7.5t2 17.5l65 112q8 15 25 15h46q13 0 16.5 -7.5t-2.5 -17.5l-70 -113q-8 -14 -25 -14h-40zM293 573q-12 0 -16 7.5t2 17.5l65 112q8 15 25 15h46q13 0 16.5 -7.5t-2.5 -17.5l-70 -113q-8 -14 -25 -14h-41z" />
    <glyph glyph-name="uni0394" unicode="&#x394;" horiz-adv-x="750" 
d="M84 0q-20 0 -28 12t-1 31l251 629q10 28 42 28h62q32 0 42 -29l239 -629q7 -19 -1 -30.5t-28 -11.5h-578zM177 87h392l-191 508z" />
    <glyph glyph-name="uni03A9" unicode="&#x3a9;" horiz-adv-x="809" 
d="M99 0q-36 0 -36 36v14q0 36 36 36h111q-67 37 -112 114t-45 170q0 144 97.5 242.5t253.5 98.5t254 -98.5t98 -242.5q0 -92 -45 -169t-112 -115h111q36 0 36 -36v-14q0 -36 -36 -36h-215q-36 0 -36 36v24q0 29 29 42q75 33 119.5 99t44.5 150q0 117 -68.5 194t-179.5 77
q-110 0 -179 -77t-69 -194q0 -87 43 -151.5t120 -97.5q28 -13 28 -42v-24q0 -36 -36 -36h-212z" />
    <glyph glyph-name="uni03BC" unicode="&#x3bc;" horiz-adv-x="612" 
d="M112 -151q-37 0 -37 37v579q0 36 37 36h30q36 0 36 -36v-268q0 -59 29.5 -88.5t70.5 -29.5q23 0 47 8.5t50 27.5t42.5 58.5t16.5 92.5v199q0 36 36 36h30q37 0 37 -36v-429q0 -36 -37 -36h-30q-36 0 -36 36v62q-16 -51 -60 -79.5t-105 -28.5q-53 0 -91 19v-123
q0 -37 -37 -37h-29z" />
    <glyph glyph-name="pi" unicode="&#x3c0;" horiz-adv-x="694" 
d="M526 -11q-33 0 -61 8.5t-55.5 28.5t-43 60.5t-15.5 97.5v235h-133v-398q0 -21 -21 -21h-62q-20 0 -20 21v398h-66q-21 0 -21 20v42q0 20 21 20h501q21 0 21 -20v-42q0 -20 -21 -20h-96v-248q2 -49 24 -71.5t50 -22.5q57 0 60 45v5q0 17 19 17h47q20 0 23 -14l1 -14
q0 -56 -40.5 -91.5t-111.5 -35.5z" />
    <glyph glyph-name="Wgrave" unicode="&#x1e80;" horiz-adv-x="994" 
d="M457 764q-15 0 -24 14l-73 101q-8 10 -4 17.5t17 7.5h61q17 0 24 -15l56 -100q7 -10 2 -17.5t-16 -7.5h-43zM279 0q-31 0 -40 30l-197 628q-5 19 3.5 30.5t27.5 11.5h32q31 0 41 -30l153 -492l146 469q9 30 40 30h23q32 0 41 -30l145 -469l154 492q9 30 41 30h31
q20 0 28.5 -11.5t2.5 -30.5l-196 -628q-9 -30 -41 -30h-27q-32 0 -41 30l-149 486l-150 -486q-9 -30 -40 -30h-28z" />
    <glyph glyph-name="wgrave" unicode="&#x1e81;" horiz-adv-x="822" 
d="M370 573q-15 0 -25 13l-85 114q-7 10 -3.5 17.5t15.5 7.5h67q16 0 25 -15l64 -112q6 -10 2 -17.5t-16 -7.5h-44zM236 0q-31 0 -41 29l-156 431q-7 19 1 30t28 11h32q32 0 42 -29l116 -334l102 318q9 31 40 31h22q31 0 40 -31l103 -318l115 334q10 29 42 29h32
q43 0 29 -41l-155 -431q-11 -29 -42 -29h-33q-31 0 -41 30l-101 312l-101 -312q-9 -30 -41 -30h-33z" />
    <glyph glyph-name="Wacute" unicode="&#x1e82;" horiz-adv-x="994" 
d="M477 764q-12 0 -16.5 7.5t1.5 17.5l56 100q8 15 25 15h61q12 0 16 -7.5t-3 -17.5l-73 -101q-9 -14 -25 -14h-42zM279 0q-31 0 -40 30l-197 628q-5 19 3.5 30.5t27.5 11.5h32q31 0 41 -30l153 -492l146 469q9 30 40 30h23q32 0 41 -30l145 -469l154 492q9 30 41 30h31
q20 0 28.5 -11.5t2.5 -30.5l-196 -628q-9 -30 -41 -30h-27q-32 0 -41 30l-149 486l-150 -486q-9 -30 -40 -30h-28z" />
    <glyph glyph-name="wacute" unicode="&#x1e83;" horiz-adv-x="822" 
d="M393 573q-13 0 -17 7.5t2 17.5l65 112q7 15 24 15h67q13 0 16.5 -7.5t-4.5 -17.5l-85 -114q-9 -13 -25 -13h-43zM236 0q-31 0 -41 29l-156 431q-7 19 1 30t28 11h32q32 0 42 -29l116 -334l102 318q9 31 40 31h22q31 0 40 -31l103 -318l115 334q10 29 42 29h32
q43 0 29 -41l-155 -431q-11 -29 -42 -29h-33q-31 0 -41 30l-101 312l-101 -312q-9 -30 -41 -30h-33z" />
    <glyph glyph-name="Wdieresis" unicode="&#x1e84;" horiz-adv-x="994" 
d="M389 764q-28 0 -46 18t-18 45q0 28 18 46t46 18t46 -18t18 -46q0 -27 -18 -45t-46 -18zM606 764q-28 0 -46 18t-18 45q0 28 18 46t46 18t46 -18t18 -46q0 -27 -18 -45t-46 -18zM279 0q-31 0 -40 30l-197 628q-5 19 3.5 30.5t27.5 11.5h32q31 0 41 -30l153 -492l146 469
q9 30 40 30h23q32 0 41 -30l145 -469l154 492q9 30 41 30h31q20 0 28.5 -11.5t2.5 -30.5l-196 -628q-9 -30 -41 -30h-27q-32 0 -41 30l-149 486l-150 -486q-9 -30 -40 -30h-28z" />
    <glyph glyph-name="wdieresis" unicode="&#x1e85;" horiz-adv-x="822" 
d="M303 586q-28 0 -46.5 18t-18.5 45q0 28 18.5 46t46.5 18q27 0 46 -18.5t19 -45.5t-19 -45t-46 -18zM519 586q-27 0 -45.5 18t-18.5 45q0 28 18.5 46t45.5 18q28 0 46.5 -18t18.5 -46q0 -27 -18.5 -45t-46.5 -18zM236 0q-31 0 -41 29l-156 431q-7 19 1 30t28 11h32
q32 0 42 -29l116 -334l102 318q9 31 40 31h22q31 0 40 -31l103 -318l115 334q10 29 42 29h32q43 0 29 -41l-155 -431q-11 -29 -42 -29h-33q-31 0 -41 30l-101 312l-101 -312q-9 -30 -41 -30h-33z" />
    <glyph glyph-name="Ygrave" unicode="&#x1ef2;" horiz-adv-x="683" 
d="M315 764q-15 0 -24 14l-73 101q-8 10 -4 17.5t17 7.5h61q17 0 24 -15l56 -100q7 -10 2 -17.5t-16 -7.5h-43zM325 0q-36 0 -36 36v252l-244 368q-13 19 -6 31.5t29 12.5h44q30 0 43 -24l186 -298l187 298q14 24 44 24h43q22 0 29 -12.5t-6 -31.5l-243 -368v-252
q0 -36 -37 -36h-33z" />
    <glyph glyph-name="ygrave" unicode="&#x1ef3;" horiz-adv-x="558" 
d="M245 573q-15 0 -25 13l-85 114q-7 10 -3.5 17.5t15.5 7.5h67q16 0 25 -15l64 -112q6 -10 2 -17.5t-16 -7.5h-44zM179 -224q-20 0 -28 11.5t0 30.5l77 201l-192 440q-8 19 0 30.5t28 11.5h40q31 0 41 -28l139 -339l128 338q10 29 43 29h41q20 0 28 -11.5t0 -30.5
l-279 -655q-11 -28 -42 -28h-24z" />
    <glyph glyph-name="uni2009" unicode="&#x2009;" horiz-adv-x="17" 
 />
    <glyph glyph-name="endash" unicode="&#x2013;" horiz-adv-x="569" 
d="M87 259q-21 0 -21 20v53q0 21 21 21h395q21 0 21 -21v-53q0 -20 -21 -20h-395z" />
    <glyph glyph-name="emdash" unicode="&#x2014;" horiz-adv-x="796" 
d="M87 259q-21 0 -21 20v53q0 21 21 21h622q21 0 21 -21v-53q0 -20 -21 -20h-622z" />
    <glyph glyph-name="quoteleft" unicode="&#x2018;" horiz-adv-x="249" 
d="M160 717q14 8 22 -8l4 -9q7 -15 -8 -21q-63 -31 -63 -97q5 1 18 4q27 1 42.5 -15.5t16.5 -40.5q1 -28 -18 -47t-54 -19q-38 0 -54.5 27.5t-16.5 56.5q0 59 29 103.5t82 65.5z" />
    <glyph glyph-name="quoteright" unicode="&#x2019;" horiz-adv-x="248" 
d="M92 470q-15 -6 -21 8l-4 9q-8 15 8 22q62 30 62 96q-5 -1 -18 -4q-26 -1 -41.5 15.5t-16.5 40.5q-1 28 18 47t54 19q38 0 54.5 -27t16.5 -56q0 -59 -29.5 -104t-82.5 -66z" />
    <glyph glyph-name="quotesinglbase" unicode="&#x201a;" horiz-adv-x="258" 
d="M89 -122q-16 -6 -22 8l-4 9q-8 15 8 22q62 30 62 96q-5 -1 -17 -4q-27 -1 -42.5 15.5t-16.5 40.5q-1 28 18 47t54 19q38 0 54.5 -27t16.5 -56q0 -59 -29 -104t-82 -66z" />
    <glyph glyph-name="quotedblleft" unicode="&#x201c;" horiz-adv-x="450" 
d="M160 717q14 8 22 -8l4 -9q7 -15 -8 -21q-63 -31 -63 -97q5 1 18 4q27 1 42.5 -15.5t16.5 -40.5q1 -28 -18 -47t-54 -19q-38 0 -54.5 27.5t-16.5 56.5q0 59 29 103.5t82 65.5zM361 717q14 7 22 -8l4 -9q7 -15 -8 -21q-63 -31 -63 -97q5 1 18 4q27 1 42.5 -15.5t16.5 -40.5
q1 -28 -18 -47t-54 -19q-38 0 -54.5 27.5t-16.5 56.5q0 59 29 103.5t82 65.5z" />
    <glyph glyph-name="quotedblright" unicode="&#x201d;" horiz-adv-x="448" 
d="M92 470q-15 -6 -21 8l-4 9q-8 15 8 22q62 30 62 96q-5 -1 -18 -4q-26 -1 -41.5 15.5t-16.5 40.5q-1 28 18 47t54 19q38 0 54.5 -27t16.5 -56q0 -59 -29.5 -104t-82.5 -66zM294 470q-16 -6 -22 8l-4 9q-8 15 8 22q62 30 62 96q-7 -2 -17 -4q-27 -1 -42.5 15.5t-16.5 40.5
q-1 28 18 47t54 19q38 0 54.5 -27t16.5 -56q0 -59 -29 -104t-82 -66z" />
    <glyph glyph-name="quotedblbase" unicode="&#x201e;" horiz-adv-x="459" 
d="M89 -122q-16 -6 -22 8l-4 9q-8 15 8 22q62 30 62 96q-5 -1 -17 -4q-27 -1 -42.5 15.5t-16.5 40.5q-1 28 18 47t54 19q38 0 54.5 -27t16.5 -56q0 -59 -29 -104t-82 -66zM290 -122q-14 -6 -22 8l-4 9q-8 15 8 22q62 30 62 96q-4 -1 -17 -4q-27 -1 -42.5 15.5t-16.5 40.5
q-1 28 18 47t54 19q38 0 54.5 -27t16.5 -56q0 -59 -29 -104t-82 -66z" />
    <glyph glyph-name="dagger" unicode="&#x2020;" horiz-adv-x="535" 
d="M249 -142q-26 0 -26 26v556h-165q-25 0 -25 25v29q0 25 25 25h165v220q0 26 26 26h36q25 0 25 -26v-220h166q26 0 26 -25v-29q0 -25 -26 -25h-166v-556q0 -26 -25 -26h-36z" />
    <glyph glyph-name="daggerdbl" unicode="&#x2021;" horiz-adv-x="559" 
d="M261 -142q-25 0 -25 26v260h-166q-25 0 -25 25v28q0 26 25 26h166v217h-166q-25 0 -25 25v29q0 25 25 25h166v220q0 26 25 26h36q26 0 26 -26v-220h166q25 0 25 -25v-29q0 -25 -25 -25h-166v-217h166q25 0 25 -26v-28q0 -25 -25 -25h-166v-260q0 -26 -26 -26h-36z" />
    <glyph glyph-name="bullet" unicode="&#x2022;" horiz-adv-x="403" 
d="M201 127q-51 0 -86 35.5t-35 86.5q0 50 35.5 86t85.5 36q51 0 87 -35.5t36 -86.5t-36 -86.5t-87 -35.5z" />
    <glyph glyph-name="ellipsis" unicode="&#x2026;" horiz-adv-x="818" 
d="M130 -11q-31 0 -53 21.5t-22 52.5q0 32 22 54t53 22q32 0 54 -22.5t22 -53.5t-22 -52.5t-54 -21.5zM408 -11q-31 0 -53 21.5t-22 52.5q0 32 22 54t53 22q32 0 54.5 -22t22.5 -54q0 -31 -22.5 -52.5t-54.5 -21.5zM687 -11q-32 0 -54 21.5t-22 52.5q0 32 22 54t54 22
q31 0 53.5 -22.5t22.5 -53.5t-22 -52.5t-54 -21.5z" />
    <glyph glyph-name="perthousand" unicode="&#x2030;" horiz-adv-x="1335" 
d="M214 356q-76 0 -127.5 51t-51.5 126t51.5 126.5t127.5 51.5t127.5 -51.5t51.5 -126.5q0 -74 -51.5 -125.5t-127.5 -51.5zM242 0q-12 0 -16 7t1 18l368 660q7 15 25 15h36q11 0 15.5 -7t-1.5 -18l-367 -660q-7 -15 -25 -15h-36zM214 431q42 0 69 29t27 73t-27 73.5
t-69 29.5q-41 0 -68.5 -29.5t-27.5 -73.5q0 -43 27.5 -72.5t68.5 -29.5zM687 -11q-76 0 -127.5 51t-51.5 125q0 76 51.5 127.5t127.5 51.5t127.5 -51.5t51.5 -127.5q0 -74 -51.5 -125t-127.5 -51zM1121 -11q-76 0 -127.5 51t-51.5 125q0 76 51.5 127.5t127.5 51.5
t127.5 -51.5t51.5 -127.5q0 -74 -51.5 -125t-127.5 -51zM687 64q42 0 69 28.5t27 72.5q0 45 -27 74.5t-69 29.5q-41 0 -68.5 -30t-27.5 -74q0 -43 27.5 -72t68.5 -29zM1121 64q42 0 69.5 28.5t27.5 72.5t-27.5 74t-69.5 30q-40 0 -67.5 -30t-27.5 -74q0 -43 27 -72t68 -29z
" />
    <glyph glyph-name="guilsinglleft" unicode="&#x2039;" horiz-adv-x="344" 
d="M247 88q-16 -13 -29 3l-165 187q-9 12 -9 22q0 8 9 18l165 188q13 18 29 3l30 -23q16 -13 2 -30l-137 -158l137 -156q13 -18 -2 -30z" />
    <glyph glyph-name="guilsinglright" unicode="&#x203a;" horiz-adv-x="344" 
d="M97 88l-30 24q-15 12 -2 30l137 156l-137 158q-14 17 2 30l30 23q16 15 29 -3l165 -188q9 -10 9 -18q0 -10 -9 -22l-165 -187q-13 -16 -29 -3z" />
    <glyph glyph-name="fraction" unicode="&#x2044;" horiz-adv-x="150" 
d="M-201 -39q-15 0 -20 8.5t4 21.5l514 728q12 16 30 16h24q15 0 20 -8.5t-4 -21.5l-515 -728q-12 -16 -30 -16h-23z" />
    <glyph glyph-name="uni2070" unicode="&#x2070;" horiz-adv-x="377" 
d="M189 448q-72 0 -115.5 52.5t-43.5 129.5t43.5 129.5t115.5 52.5t115 -52t43 -130t-43 -130t-115 -52zM189 506q41 0 65.5 34.5t24.5 89.5q0 54 -24.5 88.5t-65.5 34.5t-65.5 -34.5t-24.5 -88.5q0 -55 24.5 -89.5t65.5 -34.5z" />
    <glyph glyph-name="uni2074" unicode="&#x2074;" horiz-adv-x="344" 
d="M202 454q-15 0 -15 15v77h-156q-15 0 -15 15v10q0 12 7 20l177 207q8 9 19 9h19q15 0 15 -16v-195h57q15 0 15 -16v-19q0 -15 -15 -15h-57v-77q0 -15 -15 -15h-36zM87 596h101v112z" />
    <glyph glyph-name="uni2075" unicode="&#x2075;" horiz-adv-x="323" 
d="M154 447q-65 0 -112 36q-12 9 -2 21l16 20q8 11 22 2q36 -25 79 -25q38 0 57 20t19 51q0 26 -18.5 46t-52.5 20q-37 0 -67 -19q-10 -6 -22 0l-22 11q-10 6 -10 18l7 142q0 16 16 16h190q16 0 16 -16v-20q0 -15 -16 -15h-148l-5 -88q23 19 73 19q54 0 89.5 -33.5
t35.5 -80.5q0 -57 -38.5 -91t-106.5 -34z" />
    <glyph glyph-name="uni2076" unicode="&#x2076;" horiz-adv-x="342" 
d="M180 447q-70 0 -109.5 47.5t-39.5 126.5q0 82 42 136.5t116 54.5q59 0 97 -33q11 -9 -1 -21l-20 -18q-10 -10 -21 0q-23 19 -55 19q-37 0 -65 -34t-31 -87q15 24 44 35.5t57 11.5q49 0 85 -34t36 -85q0 -52 -37.5 -85.5t-97.5 -33.5zM179 501q31 0 50.5 18t19.5 48
t-19.5 48t-50.5 18q-33 0 -54.5 -18t-21.5 -48t22 -48t54 -18z" />
    <glyph glyph-name="uni2077" unicode="&#x2077;" horiz-adv-x="288" 
d="M66 454q-8 0 -11.5 5t0.5 13l148 283h-168q-15 0 -15 16v20q0 16 15 16h227q15 0 15 -16v-13q0 -10 -4 -19l-149 -294q-6 -11 -17 -11h-41z" />
    <glyph glyph-name="uni2078" unicode="&#x2078;" horiz-adv-x="350" 
d="M175 448q-63 0 -104.5 31.5t-41.5 78.5q0 28 22 52t57 32q-29 8 -46 28t-17 42q0 42 36.5 70.5t93.5 28.5q56 0 93.5 -28.5t37.5 -70.5q0 -22 -17.5 -42t-47.5 -28q36 -8 58 -32t22 -52q0 -47 -41.5 -78.5t-104.5 -31.5zM175 660q30 0 46.5 15t16.5 37q0 20 -17 33.5
t-46 13.5t-46.5 -13.5t-17.5 -33.5q0 -21 17 -36.5t47 -15.5zM175 499q34 0 56 17t22 42q0 27 -20.5 42.5t-57.5 15.5t-57.5 -16.5t-20.5 -41.5t21.5 -42t56.5 -17z" />
    <glyph glyph-name="uni2079" unicode="&#x2079;" horiz-adv-x="341" 
d="M153 448q-60 0 -97 32q-10 9 1 22l20 17q10 10 21 0q23 -19 55 -19q37 0 65.5 34t30.5 87q-15 -24 -44 -35.5t-57 -11.5q-49 0 -84.5 34t-35.5 85q0 52 37.5 86t96.5 34q70 0 109.5 -48t39.5 -127q0 -81 -42 -135.5t-116 -54.5zM163 626q33 0 55 18.5t22 47.5
q0 30 -22 48t-55 18q-31 0 -50.5 -18t-19.5 -48t19.5 -48t50.5 -18z" />
    <glyph glyph-name="uni207D" unicode="&#x207d;" horiz-adv-x="202" 
d="M145 371q-12 -9 -21 2q-33 38 -60 99.5t-27 134.5q0 72 26.5 132.5t60.5 100.5q9 11 21 2l10 -8q12 -8 5 -21q-59 -101 -59 -207t59 -207q8 -12 -5 -20z" />
    <glyph glyph-name="uni207E" unicode="&#x207e;" horiz-adv-x="202" 
d="M78 373q-9 -11 -21 -2l-10 8q-13 8 -5 20q59 101 59 207t-59 207q-7 13 5 21l10 8q12 9 21 -2q34 -40 60.5 -100.5t26.5 -132.5q0 -73 -27 -134.5t-60 -99.5z" />
    <glyph glyph-name="uni2080" unicode="&#x2080;" horiz-adv-x="377" 
d="M189 -146q-72 0 -115.5 52.5t-43.5 129.5t43.5 129.5t115.5 52.5t115 -52t43 -130t-43 -130t-115 -52zM189 -87q41 0 65.5 34t24.5 89t-24.5 89t-65.5 34t-65.5 -34t-24.5 -89t24.5 -89t65.5 -34z" />
    <glyph glyph-name="uni2081" unicode="&#x2081;" horiz-adv-x="214" 
d="M117 -140q-15 0 -15 15v263l-60 -27q-14 -6 -19 9l-7 22q-4 13 9 20l100 47q8 4 19 4h11q15 0 15 -15v-323q0 -15 -15 -15h-38z" />
    <glyph glyph-name="uni2082" unicode="&#x2082;" horiz-adv-x="335" 
d="M53 -140q-14 0 -17 14l-3 13q-3 12 7 20l141 121q42 38 42 76q0 54 -58 54q-52 0 -62 -39q-5 -14 -16 -14h-40q-17 0 -15 15q6 39 38.5 68t94.5 29q58 0 91.5 -32.5t33.5 -79.5q0 -66 -63 -118l-89 -72h155q15 0 15 -15v-25q0 -15 -15 -15h-240z" />
    <glyph glyph-name="uni2083" unicode="&#x2083;" horiz-adv-x="327" 
d="M151 -145q-68 0 -116 36q-13 10 -3 22l17 21q8 11 22 2q36 -26 81 -26q35 0 55.5 18.5t20.5 46.5q0 29 -21.5 48.5t-50.5 19.5q-22 0 -38 -6q-15 -5 -21 4l-10 13q-8 11 2 21l98 88h-136q-15 0 -15 15v21q0 15 15 15h219q15 0 15 -15v-10q0 -11 -8 -19l-93 -85
q50 -5 80 -36.5t30 -75.5q0 -51 -38 -84.5t-105 -33.5z" />
    <glyph glyph-name="uni2084" unicode="&#x2084;" horiz-adv-x="344" 
d="M202 -140q-15 0 -15 15v78h-156q-15 0 -15 15v10q0 12 7 19l177 208q7 8 19 8h19q15 0 15 -15v-196h57q15 0 15 -15v-19q0 -15 -15 -15h-57v-78q0 -15 -15 -15h-36zM87 2h101v112z" />
    <glyph glyph-name="uni2085" unicode="&#x2085;" horiz-adv-x="323" 
d="M154 -146q-64 0 -112 36q-12 9 -2 21l16 20q8 11 22 2q35 -24 79 -24q38 0 57 19.5t19 50.5q0 27 -18.5 46.5t-52.5 19.5q-36 0 -67 -18q-11 -6 -22 -1l-22 12q-10 6 -10 18l7 142q0 15 16 15h190q16 0 16 -15v-21q0 -15 -16 -15h-148l-5 -87q24 18 73 18
q54 0 89.5 -33.5t35.5 -80.5q0 -57 -38.5 -91t-106.5 -34z" />
    <glyph glyph-name="uni2086" unicode="&#x2086;" horiz-adv-x="342" 
d="M180 -146q-70 0 -109.5 47.5t-39.5 126.5q0 82 42 136.5t116 54.5q59 0 97 -33q11 -9 -1 -21l-20 -18q-10 -10 -21 0q-23 19 -55 19q-37 0 -65 -34t-31 -87q15 24 44 36t57 12q49 0 85 -34.5t36 -85.5q0 -52 -37.5 -85.5t-97.5 -33.5zM179 -91q31 0 50.5 17.5t19.5 47.5
t-19.5 48t-50.5 18q-33 0 -54.5 -18t-21.5 -48q0 -29 22 -47t54 -18z" />
    <glyph glyph-name="uni2087" unicode="&#x2087;" horiz-adv-x="288" 
d="M66 -140q-8 0 -11.5 5t0.5 13l148 284h-168q-15 0 -15 15v21q0 15 15 15h227q15 0 15 -15v-13q0 -10 -4 -19l-149 -295q-6 -11 -17 -11h-41z" />
    <glyph glyph-name="uni2088" unicode="&#x2088;" horiz-adv-x="350" 
d="M175 -146q-63 0 -104.5 32t-41.5 78q0 28 22 52t57 32q-29 9 -46 29t-17 42q0 42 37 70t93 28t93.5 -28.5t37.5 -69.5q0 -22 -17.5 -42t-47.5 -29q36 -8 58 -32t22 -52q0 -46 -42 -78t-104 -32zM175 67q30 0 46.5 14.5t16.5 36.5q0 21 -17 34t-46 13t-46.5 -13t-17.5 -34
q0 -20 17 -35.5t47 -15.5zM175 -94q35 0 56.5 17t21.5 42q0 27 -20.5 42.5t-57.5 15.5t-57.5 -16.5t-20.5 -41.5t21.5 -42t56.5 -17z" />
    <glyph glyph-name="uni2089" unicode="&#x2089;" horiz-adv-x="342" 
d="M153 -146q-59 0 -97 33q-11 9 1 21l20 18q10 10 21 0q23 -19 55 -19q37 0 65.5 34t30.5 87q-15 -24 -44 -36t-57 -12q-49 0 -84.5 34.5t-35.5 85.5q0 52 37 85.5t97 33.5q70 0 109.5 -47.5t39.5 -126.5q0 -82 -42 -136.5t-116 -54.5zM163 33q33 0 55 18.5t22 47.5
t-22.5 47t-54.5 18q-31 0 -50.5 -17.5t-19.5 -47.5t19.5 -48t50.5 -18z" />
    <glyph glyph-name="uni208D" unicode="&#x208d;" horiz-adv-x="201" 
d="M145 -203q-12 -10 -21 2q-33 38 -60 99t-27 134q0 72 27 133.5t60 99.5q9 11 21 2l10 -8q13 -8 5 -20q-59 -101 -59 -208q0 -105 59 -206q7 -13 -5 -21z" />
    <glyph glyph-name="uni208E" unicode="&#x208e;" horiz-adv-x="201" 
d="M77 -201q-9 -12 -21 -2l-10 7q-12 8 -5 21q59 101 59 206q0 107 -59 208q-7 12 5 20l10 8q12 9 21 -2q33 -38 60 -99.5t27 -133.5q0 -73 -27 -134t-60 -99z" />
    <glyph glyph-name="lira" unicode="&#x20a4;" horiz-adv-x="641" 
d="M66 0q-21 0 -21 21v44q0 20 21 22q77 5 113.5 42t24.5 100h-119q-20 0 -20 20v18q0 20 20 20h107q-3 11 -22 60h-85q-20 0 -20 20v19q0 19 20 19h63q-24 70 -24 110q0 88 66.5 142t166.5 54t155.5 -45t64.5 -108q1 -21 -21 -21h-59q-18 0 -22 19q-17 66 -114 66
q-61 0 -95.5 -29.5t-34.5 -78.5q0 -44 23 -109h188q20 0 20 -19v-19q0 -20 -20 -20h-168q14 -37 21 -60h147q20 0 20 -20v-18q0 -20 -20 -20h-135q24 -104 -69 -142v-3q45 3 135 3h204q21 0 21 -21v-45q0 -21 -21 -21h-511z" />
    <glyph glyph-name="uni20A8" unicode="&#x20a8;" horiz-adv-x="686" 
d="M493 -11q-47 0 -85.5 21t-62.5 51t-41 69.5t-24.5 71.5t-10.5 61h-189q-21 0 -21 21v42q0 21 21 21h220q55 0 87.5 33t35.5 88h-344q-20 0 -20 20v25q0 20 20 20h337q-13 37 -43.5 58.5t-72.5 21.5h-220q-21 0 -21 21v45q0 21 21 21h534q20 0 20 -20v-25q0 -20 -20 -20
h-137q37 -38 52 -102h85q20 0 20 -20v-25q0 -20 -20 -20h-80q-3 -76 -46.5 -131t-117.5 -69q6 -67 42.5 -128.5t88.5 -61.5q35 0 64 19q18 11 28 -7l18 -35q7 -18 -5 -29q-47 -37 -113 -37z" />
    <glyph glyph-name="uni20A9" unicode="&#x20a9;" horiz-adv-x="1102" 
d="M1053 554q0 -20 -20 -20h-69l-15 -50h84q20 0 20 -20v-17q0 -20 -20 -20h-102l-124 -397q-11 -30 -41 -30h-28q-31 0 -40 30l-150 486l-149 -486q-9 -30 -40 -30h-28q-31 0 -41 30l-124 397h-97q-20 0 -20 20v17q0 20 20 20h79l-15 50h-64q-20 0 -20 20v17q0 20 20 20h46
l-21 67q-5 19 3.5 30.5t27.5 11.5h32q31 0 40 -30l154 -492l145 469q10 30 41 30h23q30 0 41 -30l145 -469l154 492q9 30 40 30h32q19 0 27.5 -11.5t3.5 -30.5l-21 -67h51q20 0 20 -20v-17z" />
    <glyph glyph-name="uni20AA" unicode="&#x20aa;" horiz-adv-x="748" 
d="M90 0q-21 0 -21 21v496q0 21 21 21h215q92 0 149 -57.5t57 -142.5v-134q0 -21 -21 -21h-59q-20 0 -20 21v134q0 42 -29.5 71t-76.5 29h-135v-417q0 -21 -20 -21h-60zM443 0q-92 0 -149 57.5t-57 142.5v134q0 21 20 21h59q21 0 21 -21v-134q0 -42 29.5 -71t76.5 -29h135
v417q0 21 20 21h60q21 0 21 -21v-496q0 -21 -21 -21h-215z" />
    <glyph glyph-name="Euro" unicode="&#x20ac;" horiz-adv-x="672" 
d="M472 -11q-143 0 -225.5 70t-106.5 189h-80q-20 0 -20 20v28q0 20 20 20h71q-2 32 -2 60h-69q-20 0 -20 21v27q0 20 20 20h78q23 122 105 194.5t221 72.5q87 0 154 -35q16 -8 10 -27l-18 -45q-8 -19 -27 -10q-52 23 -114 23q-92 0 -148 -46.5t-76 -126.5h295q25 0 18 -23
l-10 -28q-6 -17 -23 -17h-291q0 -32 2 -60h263q24 0 18 -24l-9 -27q-5 -17 -23 -17h-237q21 -76 76.5 -120.5t144.5 -44.5q63 0 104 13q24 7 24 -17v-48q0 -18 -16 -23q-60 -19 -109 -19z" />
    <glyph glyph-name="uni2113" unicode="&#x2113;" horiz-adv-x="477" 
d="M277 -11q-64 0 -117.5 37t-53.5 115v6q-34 0 -63 7q-13 3 -13 16v38q0 17 17 12q33 -5 56 -4v325q0 46 13 81t32 53.5t44.5 30t45 14.5t39.5 3q28 0 52 -6.5t51.5 -23.5t43.5 -56t16 -96q0 -138 -65 -243t-167 -138v-10q0 -34 23 -53.5t48 -19.5q61 0 61 50v7
q-3 16 13 16h56q15 0 16 -13q3 -11 3 -21q0 -56 -39.5 -91.5t-111.5 -35.5zM208 246q62 36 102 112t40 184q0 49 -20 71t-49 22q-73 0 -73 -93v-296z" />
    <glyph glyph-name="uni2116" unicode="&#x2116;" horiz-adv-x="1087" 
d="M883 397q-65 0 -109.5 43.5t-44.5 107.5q0 65 44.5 109t109.5 44t109 -44.5t44 -108.5t-44 -107.5t-109 -43.5zM105 0q-30 0 -30 30v640q0 30 30 30h26q25 0 37 -18l361 -488v476q0 30 30 30h47q30 0 30 -30v-640q0 -30 -30 -30h-26q-25 0 -37 18l-362 490v-478
q0 -30 -30 -30h-46zM883 461q36 0 59.5 24.5t23.5 62.5t-23.5 63.5t-59.5 25.5q-35 0 -59 -25.5t-24 -63.5q0 -37 24 -62t59 -25zM746 268q-15 0 -15 15v32q0 15 15 15h273q15 0 15 -15v-32q0 -15 -15 -15h-273z" />
    <glyph glyph-name="uni2117" unicode="&#x2117;" horiz-adv-x="802" 
d="M401 -11q-148 0 -250.5 105.5t-102.5 255.5t102.5 255.5t250.5 105.5t250.5 -105.5t102.5 -255.5t-102.5 -255.5t-250.5 -105.5zM401 49q123 0 208 88t85 213t-85 213t-208 88t-208 -88t-85 -213t85 -213t208 -88zM320 166q-21 0 -21 21v317q0 20 21 20h125
q52 0 82.5 -34t30.5 -83q0 -50 -31.5 -80.5t-81.5 -30.5h-72v-109q0 -21 -21 -21h-32zM373 356h62q22 0 34.5 14t12.5 37q0 24 -12.5 41t-34.5 17h-62v-109z" />
    <glyph glyph-name="trademark" unicode="&#x2122;" horiz-adv-x="872" 
d="M178 342q-15 0 -15 15v286h-111q-15 0 -15 15v28q0 15 15 15h288q16 0 16 -15v-28q0 -15 -16 -15h-110v-286q0 -15 -16 -15h-36zM398 342q-18 0 -16 16l32 329q1 14 16 14h39q13 0 18 -12l104 -247l103 247q4 12 18 12h42q14 0 15 -14l30 -329q2 -16 -15 -16h-35
q-14 0 -15 14l-20 229l-93 -226q-5 -12 -18 -12h-23q-13 0 -19 12l-92 225l-20 -228q-1 -14 -16 -14h-35z" />
    <glyph glyph-name="uni2126" unicode="&#x2126;" horiz-adv-x="816" 
d="M100 0q-37 0 -37 36v14q0 36 37 36h110q-67 37 -112 114t-45 170q0 143 98 242t253 99q156 0 254.5 -98.5t98.5 -242.5q0 -92 -45.5 -169t-112.5 -115h111q37 0 37 -36v-14q0 -36 -37 -36h-214q-37 0 -37 36v24q0 28 29 42q75 33 119.5 99t44.5 150q0 117 -68.5 194
t-179.5 77q-110 0 -178.5 -77t-68.5 -194q0 -87 42.5 -151.5t119.5 -97.5q29 -14 29 -42v-24q0 -36 -37 -36h-211z" />
    <glyph glyph-name="estimated" unicode="&#x212e;" horiz-adv-x="641" 
d="M324 -7q-119 0 -195 84.5t-76 205.5q0 123 75 206.5t200 83.5q124 0 198.5 -84.5t74.5 -206.5h-429v-193q66 -63 152 -63q76 0 123 33t87 94l31 -19q-44 -68 -99 -104.5t-142 -36.5zM172 315h309v163q-68 62 -153 62q-96 0 -156 -62v-163z" />
    <glyph glyph-name="arrowleft" unicode="&#x2190;" horiz-adv-x="657" 
d="M558 270v-39q0 -20 -20 -20h-335l103 -119q14 -15 -2 -28l-29 -23q-15 -12 -28 3l-165 187q-9 11 -9 19t9 19l165 188q13 15 28 3l29 -23q17 -12 3 -29l-103 -118h334q20 0 20 -20z" />
    <glyph glyph-name="arrowup" unicode="&#x2191;" horiz-adv-x="576" 
d="M268 12q-20 0 -20 20v334l-118 -103q-17 -14 -29 3l-23 29q-12 15 3 28l188 165q11 9 20 9q7 0 19 -9l186 -165q15 -13 3 -28l-23 -29q-12 -15 -28 -2l-118 103v-335q0 -20 -20 -20h-40z" />
    <glyph glyph-name="arrowright" unicode="&#x2192;" horiz-adv-x="657" 
d="M99 270q0 20 20 20h334l-103 118q-14 17 3 29l29 23q15 12 28 -3l165 -188q9 -11 9 -19t-9 -19l-165 -187q-13 -15 -28 -3l-29 23q-16 13 -2 28l103 119h-335q-20 0 -20 20v39z" />
    <glyph glyph-name="arrowdown" unicode="&#x2193;" horiz-adv-x="578" 
d="M268 497h40q20 0 20 -20v-335l118 103q17 14 28 -2l23 -30q11 -14 -3 -27l-186 -165q-12 -9 -19 -9q-9 0 -20 9l-188 165q-15 14 -3 27l23 30q12 17 29 3l118 -104v335q0 20 20 20z" />
    <glyph glyph-name="partialdiff" unicode="&#x2202;" horiz-adv-x="660" 
d="M275 -11q-130 0 -188 71t-44 170q15 101 92 157t178 56q127 0 195 -91l3 1q10 49 6 97t-17 86t-49.5 61.5t-91.5 23.5q-36 -2 -60 -11q-21 -6 -27 12l-16 43q-7 20 12 26q52 20 106 20q68 0 117.5 -21t75.5 -56.5t40.5 -81.5t13 -97.5t-7.5 -104.5
q-27 -176 -111.5 -268.5t-226.5 -92.5zM290 79q80 0 132 50t74 142q-52 85 -181 85q-63 0 -111.5 -34t-57.5 -94q-11 -71 30 -110t114 -39z" />
    <glyph glyph-name="uni2206" unicode="&#x2206;" horiz-adv-x="725" 
d="M74 0q-21 0 -29 12t0 31l251 629q10 28 41 28h62q33 0 43 -29l239 -629q7 -20 -1 -31t-28 -11h-578zM167 87h392l-192 508z" />
    <glyph glyph-name="product" unicode="&#x220f;" horiz-adv-x="726" 
d="M154 -141q-20 0 -20 21v737h-76q-20 0 -20 21v41q0 21 20 21h610q21 0 21 -21v-41q0 -21 -21 -21h-76v-737q0 -21 -20 -21h-62q-21 0 -21 21v737h-252v-737q0 -21 -21 -21h-62z" />
    <glyph glyph-name="summation" unicode="&#x2211;" horiz-adv-x="577" 
d="M58 -142q-21 0 -21 21v28q0 13 8 26l235 345l-225 346q-7 11 -7 26v29q0 21 20 21h422q21 0 21 -21v-45q0 -21 -21 -21h-319l208 -318q9 -15 0 -29l-218 -322h358q21 0 21 -21v-44q0 -21 -21 -21h-461z" />
    <glyph glyph-name="minus" unicode="&#x2212;" horiz-adv-x="658" 
d="M91 259q-21 0 -21 20v53q0 21 21 21h476q21 0 21 -21v-53q0 -20 -21 -20h-476z" />
    <glyph glyph-name="uni2219" unicode="&#x2219;" horiz-adv-x="290" 
d="M145 202q-32 0 -54 21.5t-22 53.5t22 53.5t54 21.5t54 -22t22 -53t-22 -53t-54 -22z" />
    <glyph glyph-name="radical" unicode="&#x221a;" horiz-adv-x="551" 
d="M259 -94q-18 0 -24 17l-138 396l-48 -22q-20 -8 -27 11l-10 23q-9 17 10 28l116 52q19 9 27 -11l113 -346l162 693q5 18 23 18h43q10 0 15 -6.5t3 -16.5l-193 -818q-5 -18 -23 -18h-49z" />
    <glyph glyph-name="infinity" unicode="&#x221e;" horiz-adv-x="858" 
d="M225 130q-74 0 -123.5 46t-49.5 123q0 79 49.5 125t123.5 46q84 0 158 -71l45 -43l50 43q42 36 76.5 53.5t80.5 17.5q74 0 122.5 -46t48.5 -125q0 -77 -49 -123t-122 -46q-46 0 -81.5 17.5t-76.5 53.5l-48 43l-45 -43q-43 -36 -78.5 -53.5t-80.5 -17.5zM237 214
q41 0 90 44l44 41l-51 47q-44 41 -83 41q-42 0 -69.5 -23t-27.5 -65q0 -40 27.5 -62.5t69.5 -22.5zM623 214q41 0 67.5 22t26.5 63q0 42 -26.5 65t-67.5 23q-45 0 -91 -46l-43 -42l43 -41q47 -44 91 -44z" />
    <glyph glyph-name="integral" unicode="&#x222b;" horiz-adv-x="502" 
d="M128 -235q-23 0 -56 9.5t-59 26.5q-14 10 -9 27l12 43q7 22 27 10q48 -26 83 -26q29 0 51 22.5t22 72.5v616q0 58 15.5 99t42.5 61t55.5 28.5t61.5 8.5q63 0 116 -36q14 -8 9 -27l-12 -43q-7 -22 -27 -9q-49 25 -83 25q-29 0 -51 -22.5t-22 -72.5v-615q0 -59 -15.5 -100
t-42.5 -61t-55.5 -28.5t-62.5 -8.5z" />
    <glyph glyph-name="approxequal" unicode="&#x2248;" horiz-adv-x="626" 
d="M433 364q-41 0 -123 28.5t-114 28.5q-46 0 -79 -25q-21 -16 -28 6l-13 34q-6 16 4 27q41 50 112 50q44 0 127.5 -29t110.5 -29q45 0 79 26q19 15 28 -6l14 -32q6 -16 -6 -30q-41 -49 -112 -49zM431 117q-40 0 -121 29t-115 29q-45 0 -80 -25q-18 -16 -27 5l-13 34
q-6 17 3 29q41 48 113 48q45 0 128 -28t109 -28q48 0 80 26q19 16 28 -6l14 -32q8 -16 -6 -30q-43 -51 -113 -51z" />
    <glyph glyph-name="notequal" unicode="&#x2260;" horiz-adv-x="594" 
d="M179 40q-9 -19 -28 -8l-27 14q-19 11 -10 29l45 81h-76q-20 0 -20 21v48q0 20 20 20h124l96 178h-220q-20 0 -20 21v47q0 21 20 21h268l60 109q9 19 28 8l26 -14q18 -10 9 -29l-40 -74h77q21 0 21 -21v-47q0 -21 -21 -21h-126l-95 -178h221q21 0 21 -20v-48
q0 -21 -21 -21h-269z" />
    <glyph glyph-name="lessequal" unicode="&#x2264;" horiz-adv-x="623" 
d="M520 190l-436 159q-17 6 -17 24v55q0 18 17 24l436 159q24 8 24 -17v-47q0 -17 -17 -23l-356 -124l356 -123q17 -6 17 -24v-46q0 -25 -24 -17zM87 31q-21 0 -21 21v39q0 21 21 21h437q21 0 21 -21v-39q0 -21 -21 -21h-437z" />
    <glyph glyph-name="greaterequal" unicode="&#x2265;" horiz-adv-x="623" 
d="M103 190q-24 -8 -24 17v46q0 18 17 24l357 123l-357 124q-17 6 -17 23v47q0 25 24 17l436 -159q17 -6 17 -24v-55q0 -18 -17 -24zM99 31q-21 0 -21 21v39q0 21 21 21h437q21 0 21 -21v-39q0 -21 -21 -21h-437z" />
    <glyph glyph-name="lozenge" unicode="&#x25ca;" horiz-adv-x="582" 
d="M270 0q-17 0 -25 14l-199 313q-9 15 -1 29l200 331q7 14 25 14h42q17 0 25 -14l201 -331q8 -14 -1 -29l-201 -313q-8 -14 -25 -14h-41zM290 97l159 243l-159 260l-156 -260z" />
    <glyph glyph-name="uniF6C3" unicode="&#xf6c3;" horiz-adv-x="0" 
d="M-177 -56q39 0 57.5 -27t18.5 -55q0 -111 -107 -151q-14 -6 -20 8l-5 9q-6 13 8 21q44 19 56 48q6 15 6 32q-6 -2 -16 -4q-27 -3 -44.5 14t-18.5 41q-1 27 16.5 45.5t48.5 18.5z" />
    <glyph glyph-name="uniF6DD" unicode="&#xf6dd;" horiz-adv-x="1347" 
d="M543 -11q-47 0 -85.5 20.5t-62.5 51t-41 70t-24.5 71.5t-9.5 61h-137v-242q0 -21 -20 -21h-65q-21 0 -21 21v658q0 21 21 21h274q98 0 155.5 -64t57.5 -157q0 -80 -44 -138t-120 -73q6 -67 42 -128.5t88 -61.5q35 0 64 19q20 11 28 -7l18 -35q9 -17 -5 -29
q-47 -37 -113 -37zM183 347h168q57 0 90.5 36.5t33.5 95.5q0 60 -34 97t-90 37h-168v-266zM801 -223q-20 0 -20 21v683q0 20 20 20h62q21 0 21 -20v-59q62 90 179 90q110 0 179 -75.5t69 -185.5t-69 -186t-179 -76q-117 0 -179 90v-281q0 -21 -21 -21h-62zM1048 79
q74 0 117 49.5t43 122.5t-43 122.5t-117 49.5q-73 0 -119.5 -48.5t-47.5 -123.5q1 -75 47.5 -123.5t119.5 -48.5z" />
    <glyph glyph-name="uniF6DF" unicode="&#xf6df;" horiz-adv-x="299" 
d="M131 -142q-15 0 -14 16l5 38q-43 14 -68.5 47.5t-25.5 77.5q0 53 36 90.5t95 41.5l5 40q1 13 16 13h4q15 0 14 -16l-5 -38q34 -4 66 -23q12 -7 6 -21l-9 -18q-8 -12 -21 -3q-21 12 -49 15l-22 -162q36 0 65 18q14 9 22 -3l13 -19q9 -14 -4 -21q-55 -33 -103 -25l-4 -34
q-1 -14 -16 -14h-6zM131 -33l19 149q-24 -8 -40.5 -30t-16.5 -49q0 -41 38 -70z" />
    <glyph glyph-name="uniF6E0" unicode="&#xf6e0;" horiz-adv-x="299" 
d="M131 449q-15 0 -14 16l5 37q-43 14 -68.5 47.5t-25.5 78.5q0 53 36 90.5t95 41.5l5 39q1 14 16 14h4q15 0 14 -16l-5 -38q35 -4 66 -24q12 -7 6 -21l-9 -17q-7 -13 -21 -4q-21 13 -49 16l-22 -162q36 0 65 18q14 9 22 -3l13 -19q9 -14 -4 -21q-52 -33 -103 -26l-4 -33
q-1 -14 -16 -14h-6zM131 558l19 149q-25 -8 -41 -30t-16 -49q0 -41 38 -70z" />
    <glyph glyph-name="uniF6E1" unicode="&#xf6e1;" horiz-adv-x="176" 
d="M64 -213q-9 -3 -13 6l-4 6q-4 8 6 13q33 13 40 40q1 4 1 13q-5 -2 -15 -2q-15 0 -24 11t-10 26q-1 18 9.5 30t30.5 12q26 0 37 -17.5t11 -36.5q0 -75 -69 -101z" />
    <glyph glyph-name="uniF6E2" unicode="&#xf6e2;" horiz-adv-x="176" 
d="M64 380q-9 -3 -13 6l-4 7q-4 8 6 13q33 13 40 40q1 4 1 13q-5 -2 -15 -2q-16 -1 -25 10t-9 26q-1 18 9.5 30.5t30.5 12.5q26 0 37 -18t11 -37q0 -73 -69 -101z" />
    <glyph glyph-name="uniF6E3" unicode="&#xf6e3;" horiz-adv-x="313" 
d="M154 -185q-10 0 -10 10v34q-43 2 -74 23.5t-43 54.5q-6 13 10 18l29 8q12 4 18 -10q17 -36 60 -41v100l-21 8q-87 35 -87 97q0 42 31 68.5t77 29.5v31q0 10 10 10h10q10 0 10 -10v-31q73 -7 97 -71q4 -13 -10 -18l-28 -10q-12 -5 -19 10q-11 26 -40 34v-94l21 -8
q41 -16 66.5 -43t25.5 -54q0 -44 -31 -71t-82 -31v-34q0 -10 -10 -10h-10zM144 79v83q-17 -4 -29 -15.5t-12 -27.5q0 -24 31 -37zM174 -86q21 4 33.5 16t12.5 27q0 25 -37 40l-9 4v-87z" />
    <glyph glyph-name="uniF6E4" unicode="&#xf6e4;" horiz-adv-x="314" 
d="M154 407q-10 0 -10 11v34q-43 2 -74 23t-43 54q-6 13 10 18l29 8q12 4 18 -10q18 -35 60 -40v100l-21 8q-87 35 -87 97q0 41 31.5 67.5t76.5 29.5v32q0 10 10 10h10q10 0 10 -10v-32q73 -7 97 -70q4 -13 -10 -18l-28 -10q-12 -5 -19 10q-12 26 -40 34v-95l21 -8
q41 -15 66.5 -42t25.5 -54q0 -44 -31 -71t-82 -31v-34q0 -11 -10 -11h-10zM144 671v83q-18 -4 -29.5 -15.5t-11.5 -27.5q0 -23 31 -36zM174 507q21 4 33.5 15.5t12.5 27.5q0 25 -37 40l-9 4v-87z" />
    <glyph glyph-name="uniF6E5" unicode="&#xf6e5;" horiz-adv-x="285" 
d="M60 -11q-16 0 -16 15v23q0 16 16 16h166q15 0 15 -16v-23q0 -15 -15 -15h-166z" />
    <glyph glyph-name="uniF6E6" unicode="&#xf6e6;" horiz-adv-x="285" 
d="M60 582q-16 0 -16 15v24q0 15 16 15h166q15 0 15 -15v-24q0 -15 -15 -15h-166z" />
    <glyph glyph-name="uniF6E7" unicode="&#xf6e7;" horiz-adv-x="177" 
d="M88 -146q-19 0 -32.5 12t-13.5 29t13.5 29t32.5 12t33 -12t14 -29t-13.5 -29t-33.5 -12z" />
    <glyph glyph-name="uniF6E8" unicode="&#xf6e8;" horiz-adv-x="177" 
d="M88 448q-19 0 -32.5 12t-13.5 28q0 17 13.5 29.5t32.5 12.5t33 -12.5t14 -29.5t-14 -28.5t-33 -11.5z" />
    <glyph glyph-name="uniF8FF" unicode="&#xf8ff;" horiz-adv-x="921" 
d="M50 0v700h821v-700h-821zM491 367q12 0 16 7h1l2 -6h8v73h-11v-19q0 -5 1 -9h-1q-5 8 -15 8t-16 -7q-5 -8 -5 -20t5 -20q6 -7 15 -7zM643 434q0 -3 1 -5q1 -1 5 -1t5 1q1 2 1 5t-1 5q-1 1 -5 1t-5 -1q-1 -2 -1 -5zM171 368l20 57h1q0 -4 -1 -10v-47h11v69h-16l-20 -55
l-19 55h-16v-69h10v33q0 16 -1 25h1l20 -58h10zM351 376q-4 0 -5 2q-2 1 -2 6v28h15v8h-15v12h-7l-4 -11l-8 -4v-5h8v-29q0 -16 15 -16h6q1 0 2.5 0.5t2.5 1.5v8q-2 -1 -8 -1zM268 394q0 11 -7 20q-6 7 -18 7t-19 -7q-6 -7 -6 -20q0 -8 3 -14q3 -7 9 -10q4 -3 13 -3
q12 0 18 7q7 9 7 20zM318 383q0 2 -2 6q-1 2 -4 5q-7 3 -10 4l-4 2t-3.5 2t-2.5 1q-2 2 -2 4q0 5 9 5q5 0 14 -3l4 8q-8 4 -18 4t-15 -4q-5 -3 -5 -10q0 -6 3 -9q3 -4 12 -7l8 -4q3 0 3 -2q2 -2 2 -4q0 -6 -11 -6q-5 0 -17 4v-9q6 -3 17 -3t16 4q6 5 6 12zM412 368v35
q0 10 -5 14q-4 4 -15 4q-6 0 -9 -1q-6 -2 -10 -4l4 -8q3 3 7 3q3 1 8 1q6 0 7 -2q2 -2 2 -8v-2l-9 -1q-13 0 -18 -4q-6 -5 -6 -12q0 -8 4 -12t12 -4t10 1q3 2 8 7l3 -7h7zM457 421q-6 0 -9 -3q-6 -4 -7 -7h-1l-1 9h-9v-52h11v27q0 5 4 11q5 5 11 5q3 0 5 -1l1 11h-5z
M559 367h10l8 3v9l-9 -3q-1 0 -3.5 -0.5t-4.5 -0.5q-8 0 -11 5q-4 3 -4 11h35v6q0 12 -6 18t-17 6t-17 -7q-7 -7 -7 -21q0 -12 7 -19t19 -7zM629 383q0 4 -1 6t-4 5q-7 3 -10 4l-10 5q-2 2 -2 4q0 5 9 5q5 0 14 -3l4 8q-8 4 -18 4t-15 -4q-5 -3 -5 -10q0 -6 3 -9q3 -4 12 -7
q1 0 2.5 -1l3 -2t2.5 -1q3 0 3 -2q1 -1 1 -4q0 -6 -10 -6q-5 0 -17 4v-9q6 -3 17 -3t16 4t5 12zM699 420h-1q-2 1 -3 1h-5q-10 0 -15 -5q-6 -4 -6 -13q0 -6 3 -9q3 -5 7 -6q-1 0 -5 -4q-2 -2 -2 -5l1 -4q1 -3 4 -3q-4 -1 -8 -5q-3 -3 -3 -8q0 -7 5 -11q8 -4 17 -4q13 0 21 5
q7 4 7 14q0 7 -4 11q-4 3 -14 3h-9q-2 0 -4 1h-2q-2 2 -2 3q0 3 4 5h5q10 0 15 4q6 4 6 13q0 1 -1 3v2l-2 4l9 2v6h-18zM775 402q0 19 -19 19q-4 0 -10 -2q-4 -1 -7 -6l-2 7h-9v-52h12v26q0 10 3 14t10 4q5 0 8 -3q2 -2 2 -9v-32h12v34zM655 420h-12v-52h12v52zM680 403
q0 5 3 8q1 3 7 3t7 -3q3 -3 3 -8q0 -10 -10 -10q-3 0 -7 2q-3 3 -3 8zM557 413q4 0 8 -4t4 -10h-24q0 7 4 10q4 4 8 4zM229 394q0 9 4 13q3 5 10 5q13 0 13 -18t-13 -18q-14 0 -14 18zM494 376q-6 0 -9 4t-3 14q0 8 3 13t9 5q7 0 10 -4q4 -4 4 -14v-2q0 -9 -4 -12
q-3 -4 -10 -4zM388 375q-4 0 -6 2q-2 1 -2 6q0 4 3 7q6 2 12 2l6 1v-5q0 -6 -3 -9q-4 -4 -10 -4zM676 359q0 5 2 7q4 2 8 2h8q7 0 9 -2q3 -2 3 -5q0 -4 -5 -6q-5 -3 -13 -3q-5 0 -9 2q-3 2 -3 5zM649 250q10 0 15 8h1l2 -7h8v74h-11v-19q0 -1 0.5 -4t0.5 -5q-6 7 -16 7
t-16 -7q-5 -8 -5 -20t5 -20q6 -7 16 -7zM155 311h21v9h-52v-9h20v-60h11v60zM401 280h26v9h-26v22h28v9h-39v-69h11v29zM200 251l-2 -5q-3 -9 -11 -9h-6v-8q3 -1 7 -1q15 0 21 16l22 60h-12q-2 -8 -4.5 -14.5t-4 -10.5t-2.5 -7t-1 -4q-1 -2 -1 -6h-1q0 6 -3 12l-11 30h-12z
M268 250q8 0 15 7q6 7 6 20q0 14 -6 20q-4 7 -15 7t-16 -8l-2 8h-9v-76h11v29q6 -7 16 -7zM327 250q6 0 9 1q5 0 8 3v9q-4 -3 -8 -3q-3 -1 -9 -1q-7 0 -11 4q-4 6 -4 12h35v6q0 11 -6 17t-16 6q-12 0 -18 -7t-6 -20t6 -20q7 -7 20 -7zM489 277q0 13 -7 20q-6 7 -18 7t-18 -7
q-7 -6 -7 -20q0 -8 3 -14q3 -5 9 -10q6 -3 13 -3q11 0 18 7t7 20zM549 251v53h-11v-27q0 -9 -3 -14q-4 -4 -10 -4q-5 0 -8 3t-3 9v33h-11v-35q0 -9 5 -14t14 -5q4 0 10 2q5 4 7 6l2 -7h8zM613 285q0 19 -18 19q-7 0 -10 -2q-3 -1 -7 -5l-2 7h-9v-53h11v26q0 8 4 14q3 4 10 4
q5 0 8 -3q2 -4 2 -9v-32h11v34zM720 304q-6 0 -9 -2t-7 -8l-2 10h-9v-53h11v27q0 7 5 12q3 4 10 4h5l1 10h-5zM750 251l-2 -5q-3 -9 -11 -9h-6v-8q3 -1 7 -1q15 0 21 16l22 60h-12q-2 -8 -4.5 -14.5t-4 -10.5t-2.5 -7t-1 -4q-1 -2 -1 -6h-1q0 6 -3 12l-11 30h-12zM325 296
q5 0 8 -3q3 -5 3 -10h-24q2 6 4 10q3 3 9 3zM265 295q6 0 9 -4q3 -5 3 -14t-3 -13q-3 -5 -9 -5q-7 0 -10 5q-3 3 -3 13v2q0 9 3 12q3 4 10 4zM451 277q0 9 3 14q3 4 10 4q13 0 13 -18t-13 -18t-13 18zM652 259q-7 0 -10 5q-3 4 -3 13q0 8 3 14q4 4 9 4q7 0 11 -4q3 -5 3 -14
v-1q0 -8 -3 -13q-4 -4 -10 -4z" />
    <glyph glyph-name="a.alt" horiz-adv-x="580" 
d="M230 -11q-84 0 -142 43.5t-58 119.5q0 69 52.5 113t148.5 44q113 0 174 -26v19q0 64 -42.5 92.5t-102.5 28.5q-66 0 -123 -32q-33 -18 -50 12l-5 10q-15 31 11 50q70 49 177 49q58 0 102.5 -14.5t70.5 -37t42.5 -52.5t22 -57.5t5.5 -56.5v-258q0 -36 -37 -36h-30
q-36 0 -36 36v44q-15 -35 -66.5 -63t-113.5 -28zM247 69q43 0 89 19.5t74 61.5v66q-83 22 -167 22q-56 0 -82.5 -25t-26.5 -59q0 -35 28 -60t85 -25z" />
    <glyph glyph-name="aacute.alt" horiz-adv-x="580" 
d="M238 573q-13 0 -17 7.5t2 17.5l65 112q8 15 24 15h67q13 0 16.5 -7.5t-4.5 -17.5l-85 -114q-9 -13 -25 -13h-43zM230 -11q-84 0 -142 43.5t-58 119.5q0 69 52.5 113t148.5 44q113 0 174 -26v19q0 64 -42.5 92.5t-102.5 28.5q-66 0 -123 -32q-33 -18 -50 12l-5 10
q-15 31 11 50q70 49 177 49q58 0 102.5 -14.5t70.5 -37t42.5 -52.5t22 -57.5t5.5 -56.5v-258q0 -36 -37 -36h-30q-36 0 -36 36v44q-15 -35 -66.5 -63t-113.5 -28zM247 69q43 0 89 19.5t74 61.5v66q-83 22 -167 22q-56 0 -82.5 -25t-26.5 -59q0 -35 28 -60t85 -25z" />
    <glyph glyph-name="abreve.alt" horiz-adv-x="580" 
d="M272 573q-48 0 -87 29.5t-50 94.5q-4 21 18 24l25 2q18 1 23 -19q12 -57 71 -57t71 57q4 19 23 18l24 -2q25 -2 16 -36q-13 -57 -51 -84t-83 -27zM230 -11q-84 0 -142 43.5t-58 119.5q0 69 52.5 113t148.5 44q113 0 174 -26v19q0 64 -42.5 92.5t-102.5 28.5
q-66 0 -123 -32q-33 -18 -50 12l-5 10q-15 31 11 50q70 49 177 49q58 0 102.5 -14.5t70.5 -37t42.5 -52.5t22 -57.5t5.5 -56.5v-258q0 -36 -37 -36h-30q-36 0 -36 36v44q-15 -35 -66.5 -63t-113.5 -28zM247 69q43 0 89 19.5t74 61.5v66q-83 22 -167 22q-56 0 -82.5 -25
t-26.5 -59q0 -35 28 -60t85 -25z" />
    <glyph glyph-name="acircumflex.alt" horiz-adv-x="580" 
d="M133 573q-13 0 -17 7.5t4 17.5l89 114q9 13 24 13h76q16 0 25 -13l88 -114q8 -10 4.5 -17.5t-16.5 -7.5h-33q-13 0 -24 11l-82 81l-81 -81q-11 -11 -25 -11h-32zM230 -11q-84 0 -142 43.5t-58 119.5q0 69 52.5 113t148.5 44q113 0 174 -26v19q0 64 -42.5 92.5
t-102.5 28.5q-66 0 -123 -32q-33 -18 -50 12l-5 10q-15 31 11 50q70 49 177 49q58 0 102.5 -14.5t70.5 -37t42.5 -52.5t22 -57.5t5.5 -56.5v-258q0 -36 -37 -36h-30q-36 0 -36 36v44q-15 -35 -66.5 -63t-113.5 -28zM247 69q43 0 89 19.5t74 61.5v66q-83 22 -167 22
q-56 0 -82.5 -25t-26.5 -59q0 -35 28 -60t85 -25z" />
    <glyph glyph-name="adieresis.alt" horiz-adv-x="580" 
d="M163 586q-28 0 -46.5 18t-18.5 45q0 28 18.5 46t46.5 18q27 0 46 -18.5t19 -45.5t-19 -45t-46 -18zM379 586q-27 0 -45.5 18t-18.5 45q0 28 18.5 46t45.5 18q28 0 46.5 -18t18.5 -46q0 -27 -18.5 -45t-46.5 -18zM230 -11q-84 0 -142 43.5t-58 119.5q0 69 52.5 113
t148.5 44q113 0 174 -26v19q0 64 -42.5 92.5t-102.5 28.5q-66 0 -123 -32q-33 -18 -50 12l-5 10q-15 31 11 50q70 49 177 49q58 0 102.5 -14.5t70.5 -37t42.5 -52.5t22 -57.5t5.5 -56.5v-258q0 -36 -37 -36h-30q-36 0 -36 36v44q-15 -35 -66.5 -63t-113.5 -28zM247 69
q43 0 89 19.5t74 61.5v66q-83 22 -167 22q-56 0 -82.5 -25t-26.5 -59q0 -35 28 -60t85 -25z" />
    <glyph glyph-name="agrave.alt" horiz-adv-x="580" 
d="M258 573q-15 0 -25 13l-85 114q-7 10 -3.5 17.5t15.5 7.5h67q16 0 25 -15l64 -112q6 -10 2 -17.5t-16 -7.5h-44zM230 -11q-84 0 -142 43.5t-58 119.5q0 69 52.5 113t148.5 44q113 0 174 -26v19q0 64 -42.5 92.5t-102.5 28.5q-66 0 -123 -32q-33 -18 -50 12l-5 10
q-15 31 11 50q70 49 177 49q58 0 102.5 -14.5t70.5 -37t42.5 -52.5t22 -57.5t5.5 -56.5v-258q0 -36 -37 -36h-30q-36 0 -36 36v44q-15 -35 -66.5 -63t-113.5 -28zM247 69q43 0 89 19.5t74 61.5v66q-83 22 -167 22q-56 0 -82.5 -25t-26.5 -59q0 -35 28 -60t85 -25z" />
    <glyph glyph-name="amacron.alt" horiz-adv-x="580" 
d="M151 604q-21 0 -21 20v37q0 21 21 21h241q21 0 21 -21v-37q0 -20 -21 -20h-241zM230 -11q-84 0 -142 43.5t-58 119.5q0 69 52.5 113t148.5 44q113 0 174 -26v19q0 64 -42.5 92.5t-102.5 28.5q-66 0 -123 -32q-33 -18 -50 12l-5 10q-15 31 11 50q70 49 177 49
q58 0 102.5 -14.5t70.5 -37t42.5 -52.5t22 -57.5t5.5 -56.5v-258q0 -36 -37 -36h-30q-36 0 -36 36v44q-15 -35 -66.5 -63t-113.5 -28zM247 69q43 0 89 19.5t74 61.5v66q-83 22 -167 22q-56 0 -82.5 -25t-26.5 -59q0 -35 28 -60t85 -25z" />
    <glyph glyph-name="aogonek.alt" horiz-adv-x="580" 
d="M476 -223q-50 0 -89.5 29t-39.5 85q0 65 63 117v72q-15 -35 -66.5 -63t-113.5 -28q-84 0 -142 43.5t-58 119.5q0 69 52.5 113t148.5 44q113 0 174 -26v19q0 64 -42.5 92.5t-102.5 28.5q-66 0 -123 -32q-33 -18 -50 12l-5 10q-15 31 11 50q70 49 177 49q58 0 102.5 -14.5
t70.5 -37t42.5 -52.5t22 -57.5t5.5 -56.5v-258q0 -36 -37 -36h-19q-36 -45 -36 -88q0 -28 18 -44.5t41 -16.5q43 0 71 40q11 17 27 8l12 -6q17 -10 11 -27q-15 -40 -48.5 -64.5t-76.5 -24.5zM247 69q43 0 89 19.5t74 61.5v66q-83 22 -167 22q-56 0 -82.5 -25t-26.5 -59
q0 -35 28 -60t85 -25z" />
    <glyph glyph-name="aring.alt" horiz-adv-x="580" 
d="M271 573q-44 0 -75.5 31t-31.5 75q0 45 31.5 76t75.5 31q45 0 76.5 -31t31.5 -76q0 -44 -31.5 -75t-76.5 -31zM271 625q23 0 39 15.5t16 38.5t-16 39t-39 16t-39 -16t-16 -39t16 -38.5t39 -15.5zM230 -11q-84 0 -142 43.5t-58 119.5q0 69 52.5 113t148.5 44
q113 0 174 -26v19q0 64 -42.5 92.5t-102.5 28.5q-66 0 -123 -32q-33 -18 -50 12l-5 10q-15 31 11 50q70 49 177 49q58 0 102.5 -14.5t70.5 -37t42.5 -52.5t22 -57.5t5.5 -56.5v-258q0 -36 -37 -36h-30q-36 0 -36 36v44q-15 -35 -66.5 -63t-113.5 -28zM247 69q43 0 89 19.5
t74 61.5v66q-83 22 -167 22q-56 0 -82.5 -25t-26.5 -59q0 -35 28 -60t85 -25z" />
    <glyph glyph-name="aringacute.alt" horiz-adv-x="580" 
d="M267 552q-44 0 -74.5 27.5t-30.5 70.5q0 34 20.5 59.5t53.5 34.5l39 66q8 14 23 14h54q13 0 16.5 -7t-4.5 -17l-49 -62q58 -25 58 -88q0 -43 -30.5 -70.5t-75.5 -27.5zM267 602q24 0 39.5 12.5t15.5 35.5q0 22 -15.5 34.5t-39.5 12.5t-39 -12.5t-15 -34.5t15.5 -35
t38.5 -13zM230 -11q-84 0 -142 43.5t-58 119.5q0 69 52.5 113t148.5 44q113 0 174 -26v19q0 64 -42.5 92.5t-102.5 28.5q-66 0 -123 -32q-33 -18 -50 12l-5 10q-15 31 11 50q70 49 177 49q58 0 102.5 -14.5t70.5 -37t42.5 -52.5t22 -57.5t5.5 -56.5v-258q0 -36 -37 -36h-30
q-36 0 -36 36v44q-15 -35 -66.5 -63t-113.5 -28zM247 69q43 0 89 19.5t74 61.5v66q-83 22 -167 22q-56 0 -82.5 -25t-26.5 -59q0 -35 28 -60t85 -25z" />
    <glyph glyph-name="atilde.alt" horiz-adv-x="580" 
d="M170 604q-9 -17 -27 -13l-8 3q-21 6 -13 26q14 45 33.5 65.5t50.5 20.5q23 0 67 -20.5t59 -20.5q27 0 41 31q9 18 27 13l8 -2q20 -6 14 -27q-15 -45 -34.5 -65.5t-50.5 -20.5q-23 0 -67 20.5t-59 20.5q-27 0 -41 -31zM230 -11q-84 0 -142 43.5t-58 119.5q0 69 52.5 113
t148.5 44q113 0 174 -26v19q0 64 -42.5 92.5t-102.5 28.5q-66 0 -123 -32q-33 -18 -50 12l-5 10q-15 31 11 50q70 49 177 49q58 0 102.5 -14.5t70.5 -37t42.5 -52.5t22 -57.5t5.5 -56.5v-258q0 -36 -37 -36h-30q-36 0 -36 36v44q-15 -35 -66.5 -63t-113.5 -28zM247 69
q43 0 89 19.5t74 61.5v66q-83 22 -167 22q-56 0 -82.5 -25t-26.5 -59q0 -35 28 -60t85 -25z" />
    <glyph glyph-name="g.alt" horiz-adv-x="586" 
d="M284 512q98 0 154 -42q32 7 32 38q2 30 38 30h15q40 0 40 -33t-16.5 -61.5t-58.5 -32.5q30 -43 30 -94q0 -93 -69 -141t-163 -48q-60 0 -107 21q-34 -25 -34 -47q1 -38 83 -40l180 -4q43 0 75.5 -14t48.5 -35.5t23 -42.5t7 -41q0 -65 -67 -112.5t-201 -47.5
q-280 0 -280 145q0 42 24 73t44 41q-26 26 -26 68q0 50 60 94q-61 57 -61 133q0 51 21.5 90.5t56.5 60.5t73 31.5t78 10.5zM290 213q55 0 90 27t35 79q0 53 -36 80t-90 27q-55 0 -93.5 -27.5t-38.5 -78.5t38 -79t95 -28zM290 -155q72 0 121.5 19.5t49.5 52.5
q0 18 -15.5 33.5t-52.5 16.5q-119 2 -179 5q-41 0 -61 13q-18 -6 -30.5 -24t-12.5 -35q0 -81 180 -81z" />
    <glyph glyph-name="gbreve.alt" horiz-adv-x="586" 
d="M290 573q-48 0 -87 29.5t-50 94.5q-4 21 18 24l25 2q18 1 23 -19q12 -57 71 -57t71 57q4 19 23 18l24 -2q25 -2 16 -36q-13 -57 -51 -84t-83 -27zM284 512q98 0 154 -42q32 7 32 38q2 30 38 30h15q40 0 40 -33t-16.5 -61.5t-58.5 -32.5q30 -43 30 -94q0 -93 -69 -141
t-163 -48q-60 0 -107 21q-34 -25 -34 -47q1 -38 83 -40l180 -4q43 0 75.5 -14t48.5 -35.5t23 -42.5t7 -41q0 -65 -67 -112.5t-201 -47.5q-280 0 -280 145q0 42 24 73t44 41q-26 26 -26 68q0 50 60 94q-61 57 -61 133q0 51 21.5 90.5t56.5 60.5t73 31.5t78 10.5zM290 213
q55 0 90 27t35 79q0 53 -36 80t-90 27q-55 0 -93.5 -27.5t-38.5 -78.5t38 -79t95 -28zM290 -155q72 0 121.5 19.5t49.5 52.5q0 18 -15.5 33.5t-52.5 16.5q-119 2 -179 5q-41 0 -61 13q-18 -6 -30.5 -24t-12.5 -35q0 -81 180 -81z" />
    <glyph glyph-name="gcircumflex.alt" horiz-adv-x="586" 
d="M151 573q-13 0 -17 7.5t4 17.5l89 114q9 13 24 13h76q16 0 25 -13l88 -114q8 -10 4.5 -17.5t-16.5 -7.5h-33q-13 0 -24 11l-82 81l-81 -81q-11 -11 -25 -11h-32zM284 512q98 0 154 -42q32 7 32 38q2 30 38 30h15q40 0 40 -33t-16.5 -61.5t-58.5 -32.5q30 -43 30 -94
q0 -93 -69 -141t-163 -48q-60 0 -107 21q-34 -25 -34 -47q1 -38 83 -40l180 -4q43 0 75.5 -14t48.5 -35.5t23 -42.5t7 -41q0 -65 -67 -112.5t-201 -47.5q-280 0 -280 145q0 42 24 73t44 41q-26 26 -26 68q0 50 60 94q-61 57 -61 133q0 51 21.5 90.5t56.5 60.5t73 31.5
t78 10.5zM290 213q55 0 90 27t35 79q0 53 -36 80t-90 27q-55 0 -93.5 -27.5t-38.5 -78.5t38 -79t95 -28zM290 -155q72 0 121.5 19.5t49.5 52.5q0 18 -15.5 33.5t-52.5 16.5q-119 2 -179 5q-41 0 -61 13q-18 -6 -30.5 -24t-12.5 -35q0 -81 180 -81z" />
    <glyph glyph-name="gcommaaccent.alt" horiz-adv-x="585" 
d="M295 574q-39 0 -57.5 27t-18.5 56q0 109 107 151q15 6 21 -8l4 -9q6 -15 -8 -21q-44 -18 -56 -49q-6 -14 -6 -31q6 2 16 4q28 2 45 -14.5t18 -40.5q1 -28 -16.5 -46.5t-48.5 -18.5zM284 512q98 0 154 -42q32 7 32 38q2 30 38 30h15q40 0 40 -33t-16.5 -61.5t-58.5 -32.5
q30 -43 30 -94q0 -93 -69 -141t-163 -48q-60 0 -107 21q-34 -25 -34 -47q1 -38 83 -40l180 -4q43 0 75.5 -14t48.5 -35.5t23 -42.5t7 -41q0 -65 -67 -112.5t-201 -47.5q-280 0 -280 145q0 42 24 73t44 41q-26 26 -26 68q0 50 60 94q-61 57 -61 133q0 51 21.5 90.5t56.5 60.5
t73 31.5t78 10.5zM290 213q55 0 90 27t35 79q0 53 -36 80t-90 27q-55 0 -93.5 -27.5t-38.5 -78.5t38 -79t95 -28zM290 -155q72 0 121.5 19.5t49.5 52.5q0 18 -15.5 33.5t-52.5 16.5q-119 2 -179 5q-41 0 -61 13q-18 -6 -30.5 -24t-12.5 -35q0 -81 180 -81z" />
    <glyph glyph-name="gdotaccent.alt" horiz-adv-x="586" 
d="M289 576q-29 0 -49 19.5t-20 48.5t20 49.5t49 20.5t49.5 -20.5t20.5 -49.5q0 -28 -20.5 -48t-49.5 -20zM284 512q98 0 154 -42q32 7 32 38q2 30 38 30h15q40 0 40 -33t-16.5 -61.5t-58.5 -32.5q30 -43 30 -94q0 -93 -69 -141t-163 -48q-60 0 -107 21q-34 -25 -34 -47
q1 -38 83 -40l180 -4q43 0 75.5 -14t48.5 -35.5t23 -42.5t7 -41q0 -65 -67 -112.5t-201 -47.5q-280 0 -280 145q0 42 24 73t44 41q-26 26 -26 68q0 50 60 94q-61 57 -61 133q0 51 21.5 90.5t56.5 60.5t73 31.5t78 10.5zM290 213q55 0 90 27t35 79q0 53 -36 80t-90 27
q-55 0 -93.5 -27.5t-38.5 -78.5t38 -79t95 -28zM290 -155q72 0 121.5 19.5t49.5 52.5q0 18 -15.5 33.5t-52.5 16.5q-119 2 -179 5q-41 0 -61 13q-18 -6 -30.5 -24t-12.5 -35q0 -81 180 -81z" />
    <glyph glyph-name="y.alt" horiz-adv-x="558" 
d="M56 -235q-51 0 -99 24q-32 15 -17 49l6 15q13 33 47 17q35 -14 62 -14q34 0 62 13.5t49 39.5t34 50.5t28 59.5l-192 440q-8 19 0 30.5t28 11.5h40q31 0 41 -28l139 -339l128 338q10 29 43 29h41q20 0 28 -11.5t0 -30.5l-168 -394q-5 -10 -15.5 -36.5t-19 -46.5t-23.5 -49
t-30 -50.5t-37.5 -45t-47 -38t-57.5 -24.5t-70 -10z" />
    <glyph glyph-name="yacute.alt" horiz-adv-x="558" 
d="M257 573q-13 0 -17 7.5t2 17.5l65 112q7 15 24 15h67q13 0 16.5 -7.5t-4.5 -17.5l-85 -114q-9 -13 -25 -13h-43zM56 -235q-51 0 -99 24q-32 15 -17 49l6 15q13 33 47 17q35 -14 62 -14q34 0 62 13.5t49 39.5t34 50.5t28 59.5l-192 440q-8 19 0 30.5t28 11.5h40
q31 0 41 -28l139 -339l128 338q10 29 43 29h41q20 0 28 -11.5t0 -30.5l-168 -394q-5 -10 -15.5 -36.5t-19 -46.5t-23.5 -49t-30 -50.5t-37.5 -45t-47 -38t-57.5 -24.5t-70 -10z" />
    <glyph glyph-name="ycircumflex.alt" horiz-adv-x="558" 
d="M141 573q-13 0 -17 7.5t4 17.5l89 114q9 13 24 13h76q16 0 25 -13l88 -114q8 -10 4.5 -17.5t-16.5 -7.5h-33q-13 0 -24 11l-82 81l-81 -81q-11 -11 -25 -11h-32zM56 -235q-51 0 -99 24q-32 15 -17 49l6 15q13 33 47 17q35 -14 62 -14q34 0 62 13.5t49 39.5t34 50.5
t28 59.5l-192 440q-8 19 0 30.5t28 11.5h40q31 0 41 -28l139 -339l128 338q10 29 43 29h41q20 0 28 -11.5t0 -30.5l-168 -394q-5 -10 -15.5 -36.5t-19 -46.5t-23.5 -49t-30 -50.5t-37.5 -45t-47 -38t-57.5 -24.5t-70 -10z" />
    <glyph glyph-name="ydieresis.alt" horiz-adv-x="558" 
d="M170 586q-28 0 -46.5 18t-18.5 45q0 28 18.5 46t46.5 18q27 0 46 -18.5t19 -45.5t-19 -45t-46 -18zM386 586q-27 0 -45.5 18t-18.5 45q0 28 18.5 46t45.5 18q28 0 46.5 -18t18.5 -46q0 -27 -18.5 -45t-46.5 -18zM56 -235q-51 0 -99 24q-32 15 -17 49l6 15q13 33 47 17
q35 -14 62 -14q34 0 62 13.5t49 39.5t34 50.5t28 59.5l-192 440q-8 19 0 30.5t28 11.5h40q31 0 41 -28l139 -339l128 338q10 29 43 29h41q20 0 28 -11.5t0 -30.5l-168 -394q-5 -10 -15.5 -36.5t-19 -46.5t-23.5 -49t-30 -50.5t-37.5 -45t-47 -38t-57.5 -24.5t-70 -10z" />
    <glyph glyph-name="ygrave.alt" horiz-adv-x="558" 
d="M275 573q-15 0 -25 13l-85 114q-7 10 -3.5 17.5t15.5 7.5h67q16 0 25 -15l64 -112q6 -10 2 -17.5t-16 -7.5h-44zM56 -235q-51 0 -99 24q-32 15 -17 49l6 15q13 33 47 17q35 -14 62 -14q34 0 62 13.5t49 39.5t34 50.5t28 59.5l-192 440q-8 19 0 30.5t28 11.5h40
q31 0 41 -28l139 -339l128 338q10 29 43 29h41q20 0 28 -11.5t0 -30.5l-168 -394q-5 -10 -15.5 -36.5t-19 -46.5t-23.5 -49t-30 -50.5t-37.5 -45t-47 -38t-57.5 -24.5t-70 -10z" />
    <glyph glyph-name="zero.oldstyle" horiz-adv-x="677" 
d="M338 -11q-132 0 -211 75t-79 187q0 111 79 186t211 75t212 -75t80 -186q0 -112 -80 -187t-212 -75zM338 77q86 0 137.5 50t51.5 124q0 73 -51.5 123t-137.5 50q-85 0 -136 -50t-51 -123q0 -74 51 -124t136 -50z" />
    <glyph glyph-name="one.oldstyle" horiz-adv-x="540" 
d="M105 0q-32 0 -32 32v23q0 32 32 32h140v292l-146 -55q-29 -11 -40 20l-7 25q-9 29 18 40l206 85q16 7 39 7h8q25 0 25 -31v-383h135q32 0 32 -32v-23q0 -32 -32 -32h-378z" />
    <glyph glyph-name="two.oldstyle" horiz-adv-x="605" 
d="M84 0q-31 0 -34 31v2q-2 26 20 39l276 176q53 34 71.5 54.5t18.5 48.5q0 79 -141 79q-104 0 -130 -53q-14 -27 -35 -27h-39q-16 0 -25 9t-5 24q14 54 71 91.5t166 37.5q107 0 173.5 -41t66.5 -114q0 -59 -39 -103.5t-125 -92.5l-131 -76v-6q21 2 49 4t52 3t27 1h154
q32 0 32 -32v-23q0 -32 -32 -32h-441z" />
    <glyph glyph-name="three.oldstyle" horiz-adv-x="596" 
d="M276 -138q-129 0 -215 58q-31 20 -4 51l11 13q20 25 51 7q73 -43 155 -43q77 0 126 41t49 93q0 50 -40 85.5t-104 35.5q-40 0 -69 -9q-37 -13 -49 11l-8 13q-7 14 -5.5 23t13.5 21l176 158h-266q-37 0 -37 37v8q0 36 37 36h393q36 0 36 -27v-9q0 -24 -21 -42l-182 -149
q91 2 158 -50.5t67 -140.5q0 -94 -72 -157.5t-200 -63.5z" />
    <glyph glyph-name="four.oldstyle" horiz-adv-x="644" 
d="M411 -129q-37 0 -37 37v127h-312q-36 0 -36 34v7q0 27 18 45l348 362q18 18 45 18h10q30 0 30 -36v-347h97q37 0 37 -37v-9q0 -37 -37 -37h-97v-127q0 -37 -37 -37h-29zM144 118h230v230z" />
    <glyph glyph-name="five.oldstyle" horiz-adv-x="589" 
d="M285 -139q-125 0 -214 63q-31 20 -4 51l11 13q21 25 52 6q74 -44 150 -44q79 0 124.5 37t45.5 94q0 53 -40 91t-112 38q-77 0 -136 -40q-27 -16 -51 -4l-22 11q-27 14 -25 44l18 245q3 35 37 35h344q37 0 37 -36v-13q0 -36 -37 -36h-290l-13 -172q67 52 154 52
q103 0 171 -60t68 -155q0 -94 -70 -157t-198 -63z" />
    <glyph glyph-name="six.oldstyle" horiz-adv-x="633" 
d="M335 -11q-133 0 -207.5 85t-74.5 227q0 147 79.5 243t220.5 96q101 0 168 -46q33 -22 2 -51l-13 -12q-22 -18 -51 -3q-43 22 -103 22q-86 0 -141 -59t-62 -156q-1 -8 -1 -25q27 53 81 81t115 28q97 0 168.5 -60t71.5 -155q0 -92 -70.5 -153.5t-182.5 -61.5zM328 79
q69 0 113 36t44 89q0 60 -44 94t-103 34q-73 0 -119.5 -35.5t-46.5 -94.5q0 -56 46.5 -89.5t109.5 -33.5z" />
    <glyph glyph-name="seven.oldstyle" horiz-adv-x="537" 
d="M145 -129q-18 0 -24.5 11t2.5 27l287 506h-355q-31 0 -31 31v24q0 31 31 31h437q31 0 31 -31v-18q0 -22 -10 -39l-285 -519q-12 -23 -37 -23h-46z" />
    <glyph glyph-name="eight.oldstyle" horiz-adv-x="653" 
d="M327 -11q-121 0 -198.5 54t-77.5 136q0 50 37 94.5t95 63.5q-47 20 -76.5 55t-29.5 75q0 74 70.5 124t179.5 50q108 0 178.5 -50t70.5 -124q0 -40 -29 -75t-77 -55q58 -19 95 -63.5t37 -94.5q0 -82 -77 -136t-198 -54zM327 368q66 0 106 28t40 70q0 39 -40 62t-106 23
q-67 0 -106.5 -23t-39.5 -62q0 -44 39.5 -71t106.5 -27zM327 79q76 0 124.5 30t48.5 77q0 46 -48 75t-125 29q-79 0 -126.5 -29.5t-47.5 -74.5q0 -47 48.5 -77t125.5 -30z" />
    <glyph glyph-name="nine.oldstyle" horiz-adv-x="618" 
d="M272 -139q-98 0 -168 46q-33 24 -2 52l13 12q23 18 51 2q44 -21 103 -21q87 0 141.5 58.5t61.5 156.5q1 8 1 25q-27 -53 -81 -81t-115 -28q-97 0 -168.5 60t-71.5 155q0 91 70.5 152.5t182.5 61.5q133 0 207.5 -84.5t74.5 -226.5q0 -148 -79.5 -244t-220.5 -96zM287 170
q73 0 119.5 35.5t46.5 94.5q0 55 -46.5 89t-109.5 34q-69 0 -113.5 -36t-44.5 -89q0 -60 44.5 -94t103.5 -34z" />
    <glyph glyph-name="zero.taboldstyle" 
d="M340 -11q-132 0 -211 75t-79 187q0 111 79 186t211 75t211.5 -75t79.5 -186q0 -112 -79.5 -187t-211.5 -75zM340 77q85 0 137 50t52 124q0 73 -52 123t-137 50t-136.5 -50t-51.5 -123q0 -74 51.5 -124t136.5 -50z" />
    <glyph glyph-name="one.taboldstyle" 
d="M174 0q-32 0 -32 32v23q0 32 32 32h140v292l-145 -55q-31 -11 -40 20l-8 25q-9 29 19 40l205 85q16 7 39 7h8q25 0 25 -31v-383h135q32 0 32 -32v-23q0 -32 -32 -32h-378z" />
    <glyph glyph-name="two.taboldstyle" 
d="M121 0q-31 0 -33 31v2q-2 27 19 39l276 176q53 34 71.5 54.5t18.5 48.5q0 79 -141 79q-104 0 -130 -53q-14 -27 -35 -27h-39q-16 0 -25 9t-5 24q14 54 71 91.5t166 37.5q107 0 173.5 -41t66.5 -114q0 -59 -39 -103.5t-125 -92.5l-131 -76v-6q21 2 49 4t52 3t27 1h154
q32 0 32 -32v-23q0 -32 -32 -32h-441z" />
    <glyph glyph-name="three.taboldstyle" 
d="M318 -138q-129 0 -215 58q-31 20 -4 51l11 13q21 24 51 7q73 -43 155 -43q77 0 126 41t49 93q0 50 -40 85.5t-104 35.5q-39 0 -69 -9q-37 -13 -49 11l-8 13q-7 14 -5.5 23t13.5 21l176 158h-266q-37 0 -37 37v8q0 36 37 36h393q36 0 36 -27v-9q0 -24 -21 -42l-182 -149
q91 2 158 -50.5t67 -140.5q0 -94 -72 -157.5t-200 -63.5z" />
    <glyph glyph-name="four.taboldstyle" 
d="M428 -129q-36 0 -36 37v127h-312q-37 0 -37 34v7q0 27 18 45l349 362q17 18 45 18h9q30 0 30 -36v-347h97q37 0 37 -37v-9q0 -37 -37 -37h-97v-127q0 -37 -36 -37h-30zM161 118h231v230z" />
    <glyph glyph-name="five.taboldstyle" 
d="M331 -139q-127 0 -214 63q-31 20 -5 51l12 13q21 25 52 6q74 -44 150 -44q79 0 124.5 37t45.5 94q0 53 -40 91t-112 38q-77 0 -136 -40q-27 -16 -52 -4l-21 11q-27 14 -25 44l17 245q3 35 38 35h344q36 0 36 -36v-13q0 -36 -36 -36h-291l-12 -172q64 52 154 52
q103 0 171 -60.5t68 -154.5t-70 -157t-198 -63z" />
    <glyph glyph-name="six.taboldstyle" 
d="M359 -11q-134 0 -208 84.5t-74 227.5q0 147 79 243t220 96q102 0 169 -46q33 -22 1 -51l-12 -12q-22 -19 -52 -3q-41 22 -102 22q-87 0 -142 -59t-62 -156q-1 -8 -1 -25q27 53 81.5 81t115.5 28q97 0 168.5 -60t71.5 -155q0 -91 -70.5 -153t-182.5 -62zM351 79
q70 0 114 36t44 89q0 60 -44 94t-103 34q-73 0 -120 -35.5t-47 -94.5q0 -56 46.5 -89.5t109.5 -33.5z" />
    <glyph glyph-name="seven.taboldstyle" 
d="M216 -129q-18 0 -24.5 11t2.5 27l287 506h-355q-31 0 -31 31v24q0 31 31 31h437q31 0 31 -31v-18q0 -22 -10 -39l-285 -519q-12 -23 -37 -23h-46z" />
    <glyph glyph-name="eight.taboldstyle" 
d="M340 -11q-121 0 -198.5 54t-77.5 136q0 50 37 94.5t95 63.5q-47 20 -76.5 55t-29.5 75q0 74 70.5 124t179.5 50q108 0 178.5 -50t70.5 -124q0 -40 -29 -75t-76 -55q58 -19 95 -63.5t37 -94.5q0 -82 -77.5 -136t-198.5 -54zM340 368q66 0 106 28t40 70q0 39 -40 62
t-106 23t-106 -23t-40 -62q0 -44 39.5 -71t106.5 -27zM340 79q76 0 124.5 30t48.5 77q0 46 -48 75t-125 29q-78 0 -125.5 -29.5t-47.5 -74.5q0 -47 48.5 -77t124.5 -30z" />
    <glyph glyph-name="nine.taboldstyle" 
d="M302 -139q-99 0 -169 46q-33 23 -1 52l13 12q23 18 51 2q42 -21 102 -21q87 0 142 58.5t62 156.5q1 8 1 25q-27 -54 -81 -81.5t-116 -27.5q-97 0 -168.5 60t-71.5 155q0 91 71 152.5t182 61.5q134 0 208 -84.5t74 -226.5q0 -148 -79 -244t-220 -96zM316 170
q73 0 120 35.5t47 94.5q0 55 -46.5 89t-109.5 34q-69 0 -113.5 -36t-44.5 -89q0 -59 44 -93.5t103 -34.5z" />
    <glyph glyph-name="zero.tnum" 
d="M340 -11q-137 0 -219.5 103.5t-82.5 257.5q0 155 82.5 258.5t219.5 103.5t220 -104t83 -258t-83 -257.5t-220 -103.5zM340 79q91 0 145.5 77.5t54.5 193.5t-54.5 194t-145.5 78t-145 -78t-54 -194t54 -193.5t145 -77.5z" />
    <glyph glyph-name="one.tnum" 
d="M167 0q-37 0 -37 36v14q0 37 37 37h144v490l-123 -55q-34 -16 -46 22l-5 15q-9 33 21 47l181 84q20 9 38 10h9q28 0 28 -36v-577h133q37 0 37 -37v-14q0 -36 -37 -36h-380z" />
    <glyph glyph-name="two.tnum" 
d="M131 0q-33 0 -39 32l-2 7q-6 26 16 48l267 241q99 86 99 165q0 59 -39 93.5t-104 34.5q-113 0 -137 -81q-9 -33 -39 -33h-31q-19 0 -29 10t-6 27q13 68 72 117.5t170 49.5q112 0 178.5 -58.5t66.5 -158.5q0 -72 -33.5 -124.5t-94.5 -105.5l-200 -178v-4q57 5 157 5h163
q37 0 37 -37v-14q0 -36 -37 -36h-435z" />
    <glyph glyph-name="three.tnum" 
d="M313 -11q-134 0 -219 62q-26 19 -4 44l18 21q19 22 44 5q65 -40 160 -40q84 0 131.5 46t47.5 103q0 59 -44.5 98t-110.5 39q-42 0 -75 -16q-28 -14 -44 7l-11 13q-18 23 3 44l204 198h-283q-31 0 -31 32v24q0 31 31 31h409q31 0 31 -31v-10q0 -22 -16 -39l-194 -176
q25 0 44 -4q80 -13 135 -68t55 -141q0 -105 -75.5 -173.5t-205.5 -68.5z" />
    <glyph glyph-name="four.tnum" 
d="M425 0q-31 0 -31 32v155h-336q-32 0 -32 31v16q0 23 15 39l374 410q14 17 39 17h11q32 0 32 -32v-395h120q31 0 31 -32v-23q0 -31 -31 -31h-120v-155q0 -32 -32 -32h-40zM151 273h243v262z" />
    <glyph glyph-name="five.tnum" 
d="M324 -11q-123 0 -211 59q-30 20 -4 51l12 14q19 23 51 6q31 -17 74.5 -27.5t78.5 -10.5q86 0 131 43.5t45 110.5q0 56 -42.5 98t-119.5 42q-75 0 -137 -36q-28 -16 -50 -4l-18 8q-28 13 -27 44l18 278q1 35 38 35h351q36 0 36 -36v-14q0 -37 -36 -37h-294l-16 -201
q56 54 152 54q110 0 177.5 -68.5t67.5 -162.5q0 -111 -73 -178.5t-204 -67.5z" />
    <glyph glyph-name="six.tnum" 
d="M362 -11q-133 0 -209.5 94t-76.5 251q0 106 33.5 190.5t102 135.5t162.5 51q98 0 172 -53q29 -23 -1 -52l-14 -13q-22 -19 -51 -2q-44 28 -104 28q-86 0 -141 -71t-55 -189q67 98 191 98q101 0 173.5 -65.5t72.5 -168.5q0 -102 -71.5 -168t-183.5 -66zM356 81
q67 0 112 40t45 103t-45.5 103t-111.5 40q-67 0 -116 -40.5t-49 -102.5q0 -63 49 -103t116 -40z" />
    <glyph glyph-name="seven.tnum" 
d="M183 0q-19 0 -25.5 11t3.5 27l326 575h-360q-31 0 -31 32v24q0 31 31 31h442q31 0 31 -31v-19q0 -21 -10 -38l-324 -590q-12 -22 -37 -22h-46z" />
    <glyph glyph-name="eight.tnum" 
d="M340 -11q-121 0 -201 62t-80 154q0 55 38.5 102t98.5 68q-48 21 -77.5 59.5t-29.5 84.5q0 82 71 137t180 55t180 -55t71 -137q0 -46 -29.5 -84.5t-77.5 -59.5q60 -21 98.5 -68t38.5 -102q0 -92 -80 -154t-201 -62zM341 405q67 0 106.5 34t39.5 78q0 45 -41 74.5
t-106 29.5t-106 -29.5t-41 -74.5q0 -50 40 -81t108 -31zM340 79q77 0 126.5 36.5t49.5 90.5q0 52 -46 88t-128 36q-84 0 -131 -34t-47 -90q0 -54 49.5 -90.5t126.5 -36.5z" />
    <glyph glyph-name="nine.tnum" 
d="M321 711q133 0 209.5 -94t76.5 -251q0 -163 -79 -270t-220 -107q-97 0 -171 53q-29 23 1 52l14 13q21 20 51 2q44 -28 104 -28q86 0 141 71t55 189q-67 -98 -191 -98q-101 0 -173.5 65.5t-72.5 168.5q0 102 71.5 168t183.5 66zM327 619q-67 0 -112 -40t-45 -103
t45.5 -103t111.5 -40q67 0 116 40.5t49 102.5q0 63 -49 103t-116 40z" />
    <glyph glyph-name="zero.dnom" horiz-adv-x="377" 
d="M189 -6q-72 0 -115.5 52.5t-43.5 129.5t43.5 129.5t115.5 52.5t115 -52t43 -130t-43 -130t-115 -52zM189 53q41 0 65.5 34t24.5 89t-24.5 89t-65.5 34t-65.5 -34t-24.5 -89t24.5 -89t65.5 -34z" />
    <glyph glyph-name="one.dnom" horiz-adv-x="214" 
d="M117 0q-15 0 -15 15v263l-60 -27q-14 -6 -19 9l-7 22q-4 13 9 20l100 47q8 4 19 4h11q15 0 15 -15v-323q0 -15 -15 -15h-38z" />
    <glyph glyph-name="two.dnom" horiz-adv-x="335" 
d="M53 0q-14 0 -17 14l-3 13q-3 12 7 20l141 121q42 38 42 76q0 54 -58 54q-52 0 -62 -39q-5 -14 -16 -14h-40q-17 0 -15 15q6 39 38.5 68t94.5 29q58 0 91.5 -32.5t33.5 -79.5q0 -66 -63 -118l-89 -72h155q15 0 15 -15v-25q0 -15 -15 -15h-240z" />
    <glyph glyph-name="three.dnom" horiz-adv-x="327" 
d="M151 -6q-68 0 -116 36q-13 10 -3 22l17 21q8 11 22 2q36 -26 81 -26q35 0 55.5 19t20.5 46q0 29 -21.5 48.5t-50.5 19.5q-22 0 -38 -6q-15 -5 -21 4l-10 13q-8 11 2 21l98 88h-136q-15 0 -15 15v21q0 15 15 15h219q15 0 15 -15v-10q0 -10 -8 -19l-93 -85q50 -5 80 -36.5
t30 -75.5q0 -51 -38 -84.5t-105 -33.5z" />
    <glyph glyph-name="four.dnom" horiz-adv-x="344" 
d="M202 0q-15 0 -15 15v78h-156q-15 0 -15 15v10q0 12 7 19l177 208q7 8 19 8h19q15 0 15 -15v-196h57q15 0 15 -15v-19q0 -15 -15 -15h-57v-78q0 -15 -15 -15h-36zM87 142h101v112z" />
    <glyph glyph-name="five.dnom" horiz-adv-x="323" 
d="M154 -6q-64 0 -112 36q-12 9 -2 21l16 20q8 11 22 2q35 -24 79 -24q38 0 57 19.5t19 50.5q0 27 -18.5 46.5t-52.5 19.5q-36 0 -67 -18q-11 -6 -22 -1l-22 12q-10 6 -10 18l7 142q0 15 16 15h190q16 0 16 -15v-21q0 -15 -16 -15h-148l-5 -87q24 18 73 18q54 0 89.5 -33.5
t35.5 -80.5q0 -57 -38.5 -91t-106.5 -34z" />
    <glyph glyph-name="six.dnom" horiz-adv-x="342" 
d="M180 -6q-70 0 -109.5 47.5t-39.5 126.5q0 82 42 136.5t116 54.5q59 0 97 -33q11 -9 -1 -21l-20 -18q-10 -10 -21 0q-23 19 -55 19q-37 0 -65 -34t-31 -87q15 24 44 36t57 12q49 0 85 -34.5t36 -85.5q0 -52 -37.5 -85.5t-97.5 -33.5zM179 49q31 0 50.5 17.5t19.5 47.5
t-19.5 48t-50.5 18q-33 0 -54.5 -18t-21.5 -48q0 -29 22 -47t54 -18z" />
    <glyph glyph-name="seven.dnom" horiz-adv-x="288" 
d="M66 0q-8 0 -11.5 5t0.5 13l148 284h-168q-15 0 -15 15v21q0 15 15 15h227q15 0 15 -15v-13q0 -10 -4 -19l-149 -295q-6 -11 -17 -11h-41z" />
    <glyph glyph-name="eight.dnom" horiz-adv-x="350" 
d="M175 -6q-63 0 -104.5 32t-41.5 78q0 28 22 52t57 32q-29 9 -46 29t-17 42q0 42 37 70t93 28t93.5 -28.5t37.5 -69.5q0 -22 -17.5 -42t-47.5 -29q36 -8 58 -32t22 -52q0 -46 -42 -78t-104 -32zM175 207q30 0 46.5 14.5t16.5 36.5q0 21 -17 34t-46 13t-46.5 -13t-17.5 -34
q0 -20 17 -35.5t47 -15.5zM175 46q35 0 56.5 17t21.5 42q0 27 -20.5 42.5t-57.5 15.5t-57.5 -16.5t-20.5 -41.5t21.5 -42t56.5 -17z" />
    <glyph glyph-name="nine.dnom" horiz-adv-x="342" 
d="M153 -6q-59 0 -97 33q-11 9 1 21l20 18q10 10 21 0q23 -19 55 -19q37 0 65.5 34t30.5 87q-15 -24 -44 -36t-57 -12q-49 0 -84.5 34.5t-35.5 85.5q0 52 37 85.5t97 33.5q70 0 109.5 -47.5t39.5 -126.5q0 -82 -42 -136.5t-116 -54.5zM163 173q33 0 55 18.5t22 47.5
t-22.5 47t-54.5 18q-31 0 -50.5 -17.5t-19.5 -47.5t19.5 -48t50.5 -18z" />
    <glyph glyph-name="zero.numr" horiz-adv-x="377" 
d="M189 341q-72 0 -115.5 52.5t-43.5 129.5t43.5 129.5t115.5 52.5t115 -52t43 -130t-43 -130t-115 -52zM189 400q41 0 65.5 34t24.5 89t-24.5 89t-65.5 34t-65.5 -34t-24.5 -89t24.5 -89t65.5 -34z" />
    <glyph glyph-name="one.numr" horiz-adv-x="214" 
d="M117 347q-15 0 -15 15v263l-60 -27q-14 -6 -19 9l-7 22q-4 13 9 20l100 47q8 4 19 4h11q15 0 15 -15v-323q0 -15 -15 -15h-38z" />
    <glyph glyph-name="two.numr" horiz-adv-x="335" 
d="M53 347q-14 0 -17 14l-3 13q-3 12 7 20l141 121q42 38 42 76q0 54 -58 54q-52 0 -62 -39q-5 -14 -16 -14h-40q-17 0 -15 15q6 39 38.5 68t94.5 29q58 0 91.5 -32.5t33.5 -79.5q0 -66 -63 -118l-89 -72h155q15 0 15 -15v-25q0 -15 -15 -15h-240z" />
    <glyph glyph-name="three.numr" horiz-adv-x="327" 
d="M151 341q-66 0 -116 36q-13 10 -3 22l17 21q8 11 22 2q36 -26 81 -26q35 0 55.5 19t20.5 46q0 29 -21.5 48.5t-50.5 19.5q-22 0 -38 -6q-15 -5 -21 4l-10 13q-8 11 2 21l98 88h-136q-15 0 -15 15v21q0 15 15 15h219q15 0 15 -15v-10q0 -10 -8 -19l-93 -85q50 -5 80 -36.5
t30 -75.5q0 -51 -38 -84.5t-105 -33.5z" />
    <glyph glyph-name="four.numr" horiz-adv-x="344" 
d="M202 347q-15 0 -15 15v78h-156q-15 0 -15 15v10q0 12 7 19l177 208q7 8 19 8h19q15 0 15 -15v-196h57q15 0 15 -15v-19q0 -15 -15 -15h-57v-78q0 -15 -15 -15h-36zM87 489h101v112z" />
    <glyph glyph-name="five.numr" horiz-adv-x="323" 
d="M154 341q-64 0 -112 36q-12 9 -2 21l16 20q8 11 22 2q35 -24 79 -24q38 0 57 19.5t19 50.5q0 27 -18.5 46.5t-52.5 19.5q-36 0 -67 -18q-11 -6 -22 -1l-22 12q-10 6 -10 18l7 142q0 15 16 15h190q16 0 16 -15v-21q0 -15 -16 -15h-148l-5 -87q24 18 73 18q54 0 89.5 -33.5
t35.5 -80.5q0 -57 -38.5 -91t-106.5 -34z" />
    <glyph glyph-name="six.numr" horiz-adv-x="342" 
d="M180 339q-70 0 -109.5 47.5t-39.5 126.5q0 82 42 136.5t116 54.5q58 0 97 -32q10 -10 -1 -22l-20 -18q-10 -10 -21 0q-22 19 -55 19q-37 0 -65 -34t-31 -87q15 24 44 36t57 12q49 0 85 -34t36 -85q0 -53 -37.5 -86.5t-97.5 -33.5zM179 394q31 0 50.5 17.5t19.5 48.5
q0 30 -19.5 47.5t-50.5 17.5q-33 0 -54.5 -18t-21.5 -47q0 -30 22 -48t54 -18z" />
    <glyph glyph-name="seven.numr" horiz-adv-x="287" 
d="M65 347q-8 0 -11.5 5.5t0.5 12.5l148 284h-168q-15 0 -15 15v21q0 15 15 15h227q15 0 15 -15v-13q0 -10 -4 -19l-149 -295q-6 -11 -17 -11h-41z" />
    <glyph glyph-name="eight.numr" horiz-adv-x="350" 
d="M175 341q-63 0 -104.5 32t-41.5 78q0 28 22 52t57 32q-29 9 -46 29t-17 42q0 42 37 70t93 28t93.5 -28.5t37.5 -69.5q0 -22 -17.5 -42t-47.5 -29q36 -8 58 -32t22 -52q0 -46 -42 -78t-104 -32zM175 554q30 0 46.5 14.5t16.5 36.5q0 21 -17 34t-46 13t-46.5 -13t-17.5 -34
q0 -20 17 -35.5t47 -15.5zM175 393q35 0 56.5 17t21.5 42q0 27 -20.5 42.5t-57.5 15.5t-57.5 -16.5t-20.5 -41.5t21.5 -42t56.5 -17z" />
    <glyph glyph-name="nine.numr" horiz-adv-x="342" 
d="M153 339q-59 0 -97 33q-11 9 1 21l20 18q10 10 21 0q23 -19 55 -19q37 0 65.5 34t30.5 87q-15 -24 -44 -36t-57 -12q-49 0 -84.5 34.5t-35.5 85.5q0 52 37 85.5t97 33.5q70 0 109.5 -47.5t39.5 -126.5q0 -82 -42 -136.5t-116 -54.5zM163 518q33 0 55 18.5t22 47.5
q0 30 -22 47.5t-55 17.5q-31 0 -50.5 -17.5t-19.5 -47.5t19.5 -48t50.5 -18z" />
    <glyph glyph-name="periodcentered.case" horiz-adv-x="290" 
d="M145 276q-32 0 -54 21.5t-22 52.5q0 32 22 54t54 22q31 0 53.5 -22t22.5 -54q0 -31 -22 -52.5t-54 -21.5z" />
    <glyph glyph-name="bullet.case" horiz-adv-x="398" 
d="M199 228q-51 0 -86.5 35.5t-35.5 86.5q0 50 36 86t86 36q51 0 87 -36t36 -86t-36 -86t-87 -36z" />
    <glyph glyph-name="exclamdown.case" horiz-adv-x="272" 
d="M137 711q32 0 54 -21.5t22 -52.5t-22.5 -53.5t-53.5 -22.5q-32 0 -53.5 22t-21.5 54q0 31 21.5 52.5t53.5 21.5zM128 479h14q31 0 32 -29l22 -394v-25q0 -31 -31 -31h-60q-31 0 -31 31v25l22 394q1 29 32 29z" />
    <glyph glyph-name="questiondown.case" horiz-adv-x="524" 
d="M291 711q31 0 53 -21.5t22 -52.5q0 -32 -22 -54t-53 -22q-32 0 -54.5 22t-22.5 54q0 31 22.5 52.5t54.5 21.5zM317 479q20 0 20 -19v-9q-2 -44 -12.5 -62t-51.5 -43q-72 -42 -100 -77.5t-28 -83.5q0 -49 34.5 -78t95.5 -29q55 0 86.5 24.5t31.5 68.5v9q-2 22 18 22h52
q20 0 23 -16q3 -12 3 -29q0 -63 -55 -115.5t-164 -52.5q-100 0 -166 53.5t-66 141.5q0 27 7 52.5t22 47t28 38t35.5 34t34 26t34 22.5t25.5 16q19 12 20 35v8q0 16 20 16h53z" />
    <glyph glyph-name="comma.dnom" horiz-adv-x="176" 
d="M64 -72q-9 -4 -14 6l-2 6q-5 8 6 13q40 17 40 53q-6 -2 -10 -2q-17 -2 -27.5 9t-11.5 27q-1 18 9.5 30.5t30.5 12.5q26 0 37 -17.5t11 -37.5q0 -74 -69 -100z" />
    <glyph glyph-name="period.dnom" horiz-adv-x="177" 
d="M88 -6q-19 0 -32.5 12t-13.5 29t13.5 29t32.5 12t33 -12t14 -29t-13.5 -29t-33.5 -12z" />
    <glyph glyph-name="comma.numr" horiz-adv-x="176" 
d="M64 269q-9 -3 -14 6l-2 6q-5 8 6 14q40 17 40 52q-6 -2 -10 -2q-18 -1 -28 10t-11 27q-1 18 9.5 30t30.5 12q26 0 37 -17.5t11 -36.5q0 -75 -69 -101z" />
    <glyph glyph-name="period.numr" horiz-adv-x="177" 
d="M88 341q-19 0 -32.5 12t-13.5 29t13.5 29t32.5 12t33 -12t14 -29t-13.5 -29t-33.5 -12z" />
    <glyph glyph-name="braceleft.case" horiz-adv-x="342" 
d="M222 -123q-64 0 -107 34.5t-43 100.5q0 44 30 134t35 113q6 25 -4 37.5t-37 17.5l-31 6q-19 3 -19 21v18q0 18 18 21l32 6q51 9 41 55q-4 21 -34.5 111.5t-30.5 135.5q0 67 43.5 101t106.5 34q17 0 57 -4q20 -2 20 -22v-29q0 -21 -23 -19q-21 2 -44 2q-62 0 -62 -72
q0 -43 29.5 -122t29.5 -112q0 -34 -17 -61t-50 -32v-4q33 -5 50 -32.5t17 -60.5t-29.5 -112.5t-29.5 -121.5q0 -72 62 -72q23 0 44 2q23 2 23 -19v-29q0 -20 -22 -22q-40 -4 -55 -4z" />
    <glyph glyph-name="braceright.case" horiz-adv-x="342" 
d="M120 -123q-15 0 -55 4q-22 1 -22 22v29q0 21 23 19q21 -2 44 -2q62 0 62 72q0 42 -29.5 121.5t-29.5 112.5t17 60.5t50 32.5v4q-33 5 -50 32t-17 61q0 33 29.5 112t29.5 122q0 72 -62 72q-23 0 -44 -2q-23 -2 -23 19v29q0 21 20 22q40 4 57 4q63 0 106 -34t43 -101
q0 -45 -30 -136t-34 -111q-5 -24 3.5 -37t36.5 -18l33 -6q18 -3 18 -21v-18q0 -18 -19 -21l-32 -6q-27 -5 -36.5 -17.5t-3.5 -37.5q5 -22 34.5 -112t29.5 -135q0 -67 -43 -101t-106 -34z" />
    <glyph glyph-name="bracketleft.case" horiz-adv-x="349" 
d="M97 -121q-21 0 -21 21v901q0 22 21 22h195q22 0 22 -22v-37q0 -22 -22 -22h-121v-783h121q22 0 22 -22v-37q0 -21 -22 -21h-195z" />
    <glyph glyph-name="bracketright.case" horiz-adv-x="349" 
d="M57 -121q-21 0 -21 21v37q0 22 21 22h121v783h-121q-21 0 -21 22v37q0 22 21 22h195q21 0 21 -22v-901q0 -21 -21 -21h-195z" />
    <glyph glyph-name="parenleft.case" horiz-adv-x="329" 
d="M252 -121q-18 -10 -30 5q-27 31 -53.5 71t-55.5 99t-46.5 137t-17.5 161q0 82 17.5 159.5t47 136.5t55 98.5t53.5 71.5q12 15 30 4l29 -18q19 -12 7 -30q-137 -207 -137 -424q0 -213 137 -423q12 -18 -6 -30z" />
    <glyph glyph-name="parenright.case" horiz-adv-x="329" 
d="M107 -118q-12 -16 -29 -4l-31 17q-18 12 -6 30q137 210 137 423q0 217 -137 424q-13 19 6 30l31 19q17 10 29 -5q28 -32 53.5 -71.5t55 -98.5t47 -136.5t17.5 -159.5q0 -83 -17.5 -161t-46.5 -137t-55.5 -99t-53.5 -71z" />
    <glyph glyph-name="parenleft.dnom" horiz-adv-x="201" 
d="M145 -60q-12 -9 -21 2q-34 40 -60.5 100.5t-26.5 133.5q0 72 26.5 132.5t60.5 100.5q9 11 21 2l10 -8q13 -8 5 -20q-59 -101 -59 -208q0 -104 59 -207q8 -12 -5 -20z" />
    <glyph glyph-name="parenright.dnom" horiz-adv-x="201" 
d="M77 -58q-9 -11 -21 -2l-10 8q-13 8 -5 20q59 103 59 207q0 107 -59 208q-7 12 5 20l10 8q12 9 21 -2q34 -40 60.5 -100.5t26.5 -132.5q0 -73 -26.5 -133.5t-60.5 -100.5z" />
    <glyph glyph-name="parenleft.numr" horiz-adv-x="201" 
d="M145 279q-12 -9 -21 2q-33 38 -60 99.5t-27 133.5t27 133.5t60 99.5q9 11 21 2l10 -8q13 -8 5 -20q-59 -101 -59 -207t59 -207q7 -12 -5 -21z" />
    <glyph glyph-name="parenright.numr" horiz-adv-x="201" 
d="M77 281q-9 -11 -21 -2l-10 7q-12 9 -6 21q60 98 60 207t-60 207q-6 12 5 20l11 8q12 9 21 -2q33 -38 60 -99.5t27 -133.5t-27 -133.5t-60 -99.5z" />
    <glyph glyph-name="emdash.case" horiz-adv-x="804" 
d="M91 304q-21 0 -21 20v53q0 20 21 20h622q21 0 21 -20v-53q0 -20 -21 -20h-622z" />
    <glyph glyph-name="endash.case" horiz-adv-x="577" 
d="M91 304q-21 0 -21 20v53q0 20 21 20h395q21 0 21 -20v-53q0 -20 -21 -20h-395z" />
    <glyph glyph-name="hyphen.case" horiz-adv-x="477" 
d="M91 304q-21 0 -21 20v53q0 20 21 20h295q20 0 20 -20v-53q0 -20 -20 -20h-295z" />
    <glyph glyph-name="hyphen.dnom" horiz-adv-x="285" 
d="M65 139q-21 0 -21 21v12q0 21 21 21h155q21 0 21 -21v-12q0 -21 -21 -21h-155z" />
    <glyph glyph-name="hyphen.numr" horiz-adv-x="285" 
d="M65 476q-21 0 -21 20v13q0 21 21 21h155q21 0 21 -21v-13q0 -20 -21 -20h-155z" />
    <glyph glyph-name="guillemotleft.case" horiz-adv-x="582" 
d="M256 140q-17 -12 -29 3l-165 187q-9 10 -9 22q0 8 9 18l165 188q12 15 29 3l30 -23q15 -14 2 -30l-137 -158l137 -157q13 -17 -2 -29zM471 140q-15 -12 -29 3l-164 187q-10 10 -10 22q0 8 10 18l164 188q14 15 29 3l30 -23q15 -14 2 -30l-137 -158l137 -157
q13 -17 -2 -29z" />
    <glyph glyph-name="guillemotright.case" horiz-adv-x="582" 
d="M111 140l-30 24q-15 12 -2 29l136 157l-136 158q-15 16 2 30l30 23q16 12 28 -3l165 -188q10 -12 10 -18q0 -10 -10 -22l-165 -187q-12 -15 -28 -3zM326 140l-30 24q-15 12 -2 29l137 157l-137 158q-13 16 2 30l30 23q16 13 29 -3l165 -188q9 -10 9 -18q0 -12 -9 -22
l-165 -187q-13 -16 -29 -3z" />
    <glyph glyph-name="guilsinglleft.case" horiz-adv-x="366" 
d="M256 140q-17 -12 -29 3l-165 187q-9 10 -9 22q0 8 9 18l165 188q12 15 29 3l30 -23q15 -14 2 -30l-137 -158l137 -157q13 -17 -2 -29z" />
    <glyph glyph-name="guilsinglright.case" horiz-adv-x="366" 
d="M111 140l-30 24q-15 12 -2 29l136 157l-136 158q-15 16 2 30l30 23q16 12 28 -3l165 -188q10 -12 10 -18q0 -10 -10 -22l-165 -187q-12 -15 -28 -3z" />
    <glyph glyph-name="cent.case" horiz-adv-x="556" 
d="M229 -9q-10 0 -15.5 6.5t-3.5 16.5l16 89q-84 26 -131.5 91.5t-47.5 150.5q0 109 69 184t190 82l12 1l15 76q3 18 21 18h17q22 0 19 -22l-14 -76q64 -11 118 -47q16 -11 6 -27l-27 -37q-10 -16 -28 -5q-34 21 -85 28l-62 -339q77 -12 148 27q17 12 28 -5l26 -36
q10 -16 -5 -29q-93 -60 -213 -46l-15 -82q-3 -19 -22 -19h-16zM243 199l58 321q-67 -10 -109 -56.5t-42 -113.5q0 -51 25 -90.5t68 -60.5z" />
    <glyph glyph-name="cent.dnom" horiz-adv-x="299" 
d="M131 -50q-15 0 -14 16l5 37q-43 14 -68.5 48t-25.5 78q0 53 36 90.5t95 41.5l5 39q1 14 16 14h4q15 0 14 -16l-5 -38q34 -4 66 -23q13 -8 6 -21l-9 -18q-7 -13 -21 -4q-21 13 -49 16l-22 -162q36 0 65 18q14 9 22 -3l13 -19q9 -14 -4 -21q-55 -33 -103 -26l-4 -33
q-1 -14 -16 -14h-6zM131 59l19 149q-25 -8 -41 -30t-16 -49q0 -41 38 -70z" />
    </font>
</defs>
</svg>
