<?xml version="1.0" standalone="no"?>
<!DOCTYPE svg PUBLIC "-//W3C//DTD SVG 1.1//EN" "http://www.w3.org/Graphics/SVG/1.1/DTD/svg11.dtd" >
<svg xmlns="http://www.w3.org/2000/svg" xmlns:xlink="http://www.w3.org/1999/xlink" version="1.1">
<metadata>
Created by FontForge 20170731 at Tue Feb 16 17:31:59 2016
 By Aleksey,,,
Copyright (c) 2016 by Olivier Gourvat. All rights reserved.
</metadata>
<defs>
<font id="FilsonSoft-Bold" horiz-adv-x="680" >
  <font-face 
    font-family="Filson Soft"
    font-weight="700"
    font-stretch="normal"
    units-per-em="1000"
    panose-1="0 0 8 0 0 0 0 0 0 0"
    ascent="800"
    descent="-200"
    x-height="514"
    cap-height="700"
    bbox="-251 -302.115 1443 995"
    underline-thickness="50"
    underline-position="-200"
    unicode-range="U+0020-FB04"
  />
<missing-glyph horiz-adv-x="673" 
d="M120 0q-20 0 -20 20v660q0 20 20 20h433q20 0 20 -20v-660q0 -20 -20 -20h-433zM284 278q0 -21 20 -21h20q18 0 21 20q1 13 11 20q2 1 14.5 8.5t19 12t20 14.5t21.5 18t19 20.5t17 24.5t10.5 28t4.5 32q0 59 -44 94.5t-110 35.5q-73 0 -110 -34.5t-37 -76.5q0 -10 4 -30
q4 -16 22 -16h23q20 0 17 22q-2 12 -2 22q0 25 21.5 41t57.5 16q42 0 66 -20t24 -54v-2q0 -33 -20.5 -56.5t-66.5 -51.5q-27 -17 -34.5 -28.5t-8.5 -38.5zM314 95q21 0 35.5 14t14.5 35q0 20 -14.5 34.5t-35.5 14.5q-20 0 -34 -14.5t-14 -34.5q0 -21 14 -35t34 -14z" />
    <glyph glyph-name="f_f" unicode="ff" horiz-adv-x="800" 
d="M145 0q-48 0 -48 48v351h-46q-25 0 -25 25v58q0 25 25 25h46v30q0 56 18.5 96.5t49.5 61.5t65 30t73 9q81 0 126 -43q36 -25 7 -61l-13 -10q-21 -28 -54 -11q-19 10 -47 10q-38 0 -56 -19t-18 -59v-34h249v30q0 56 18.5 96.5t49.5 61.5t65 30t73 9q47 0 79.5 -18.5
t44.5 -48.5q2 -2 5.5 -6.5t4.5 -5.5q6 -10 3 -16.5t-15 -23.5l-18 -11q-17 -26 -34 -14q-1 1 -4.5 3.5t-5.5 3.5q-4 9 -18 15.5t-27 6.5q-70 0 -70 -78v-34h90q26 0 26 -25v-58q0 -25 -26 -25h-87v-351q0 -48 -49 -48h-57q-48 0 -48 48v351h-246v-351q0 -48 -49 -48h-57z
" />
    <glyph glyph-name="fi" unicode="fi" horiz-adv-x="712" 
d="M145 0q-48 0 -48 48v350h-39q-32 0 -32 33v44q0 32 32 32h39v30q0 99 69 148t179 49q130 0 187 -56q36 -29 6 -62l-12 -12q-22 -27 -50 -12q-66 24 -110 24q-118 0 -118 -81v-28h352q49 0 49 -48v-411q0 -48 -49 -48h-58q-48 0 -48 48v351h-243v-351q0 -48 -49 -48h-57z
" />
    <glyph glyph-name="fl" unicode="fl" horiz-adv-x="682" 
d="M145 0q-48 0 -48 48v351h-46q-25 0 -25 25v58q0 25 25 25h46v30q0 197 258 197q118 0 222 -24q42 -10 42 -54v-608q0 -48 -49 -48h-58q-48 0 -48 48v558q-40 12 -109 12q-107 0 -107 -81v-30h90q25 0 25 -25v-58q0 -25 -25 -25h-87v-351q0 -48 -49 -48h-57z" />
    <glyph glyph-name="f_f_i" unicode="ffi" horiz-adv-x="1112" 
d="M1001 507q48 0 48 -48v-411q0 -48 -48 -48h-59q-48 0 -48 48v351h-243v-351q0 -48 -49 -48h-57q-48 0 -48 48v350h-246v-350q0 -48 -49 -48h-57q-48 0 -48 48v351h-46q-25 0 -25 25v58q0 25 25 25h46v30q0 56 20 96.5t54 61.5t71 30t79 9q63 0 115 -27q44 -21 16 -64
l-9 -12q-20 -34 -57 -20q-21 9 -45 9q-47 0 -70 -20.5t-23 -65.5v-27h249v30q0 99 69 148t179 49q130 0 187 -56q36 -28 7 -62l-13 -12q-22 -27 -50 -12q-64 24 -110 24q-118 0 -118 -81v-28h353z" />
    <glyph glyph-name="f_f_l" unicode="ffl" horiz-adv-x="1082" 
d="M145 0q-48 0 -48 48v351h-46q-25 0 -25 25v58q0 25 25 25h46v30q0 56 20 96.5t54 61.5t71 30t79 9q67 0 114 -25q44 -20 17 -64l-9 -12q-20 -33 -57 -21q-19 8 -45 8q-47 0 -70 -20.5t-23 -65.5v-27h248v30q0 197 259 197q117 0 222 -24q41 -10 41 -54v-608
q0 -48 -48 -48h-58q-49 0 -49 48v558q-39 12 -109 12q-106 0 -106 -81v-30h90q25 0 25 -25v-58q0 -25 -25 -25h-88v-351q0 -48 -48 -48h-57q-49 0 -49 48v351h-245v-351q0 -48 -49 -48h-57z" />
    <glyph glyph-name="f_f_j" unicode="ffj" horiz-adv-x="1123" 
d="M1034 507q25 0 25 -25v-549q0 -45 -16.5 -79t-44 -52.5t-59 -27.5t-66.5 -9q-75 0 -124.5 33t-49.5 104q0 14 2 25q3 23 27 23h70q26 0 24 -18q-2 -8 0 -14q1 -18 12.5 -28.5t29.5 -10.5q20 0 31.5 13t11.5 34v473h-257v-374q0 -25 -25 -25h-103q-26 0 -26 25v374h-246
v-351q0 -48 -48 -48h-57q-49 0 -49 48v351h-45q-26 0 -26 25v58q0 25 26 25h45v30q0 56 20 96.5t54 61.5t71 30t79 9q66 0 115 -25q44 -21 16 -64l-9 -12q-19 -33 -57 -21q-19 8 -45 8q-47 0 -70 -20.5t-23 -65.5v-27h249v30q0 99 69.5 148t179.5 49q136 0 190 -64
q31 -21 11 -53l-26 -14q-17 -27 -41 -16q-62 29 -113 29q-118 0 -118 -81v-28h386z" />
    <glyph glyph-name="f_j" unicode="fj" horiz-adv-x="722" 
d="M473 -235q-75 0 -125 33t-50 104q0 14 3 25q1 23 27 23h70q26 0 24 -18q-1 -5 -1 -14q1 -18 13 -28.5t30 -10.5q20 0 31 13t11 34v473h-256v-374q0 -25 -25 -25h-103q-26 0 -26 25v374h-45q-25 0 -25 25v58q0 25 25 25h45v30q0 99 69 148t179 49q136 0 191 -64
q31 -21 11 -53l-26 -14q-17 -27 -41 -16q-62 29 -113 29q-119 0 -119 -81v-28h387q25 0 25 -25v-549q0 -45 -16.5 -79t-44.5 -52.5t-59.5 -27.5t-65.5 -9z" />
    <glyph glyph-name=".notdef" horiz-adv-x="673" 
d="M120 0q-20 0 -20 20v660q0 20 20 20h433q20 0 20 -20v-660q0 -20 -20 -20h-433zM284 278q0 -21 20 -21h20q18 0 21 20q1 13 11 20q2 1 14.5 8.5t19 12t20 14.5t21.5 18t19 20.5t17 24.5t10.5 28t4.5 32q0 59 -44 94.5t-110 35.5q-73 0 -110 -34.5t-37 -76.5q0 -10 4 -30
q4 -16 22 -16h23q20 0 17 22q-2 12 -2 22q0 25 21.5 41t57.5 16q42 0 66 -20t24 -54v-2q0 -33 -20.5 -56.5t-66.5 -51.5q-27 -17 -34.5 -28.5t-8.5 -38.5zM314 95q21 0 35.5 14t14.5 35q0 20 -14.5 34.5t-35.5 14.5q-20 0 -34 -14.5t-14 -34.5q0 -21 14 -35t34 -14z" />
    <glyph glyph-name=".null" horiz-adv-x="0" 
 />
    <glyph glyph-name="nonmarkingreturn" horiz-adv-x="333" 
 />
    <glyph glyph-name="space" unicode=" " horiz-adv-x="242" 
 />
    <glyph glyph-name="exclam" unicode="!" horiz-adv-x="296" 
d="M131 235q-37 0 -41 36l-35 368v23q0 38 38 38h109q38 0 38 -38v-23l-35 -368q-5 -36 -40 -36h-34zM147 -11q-41 0 -68 24.5t-27 62.5t27 63.5t68 25.5q40 0 68 -25.5t28 -63.5q0 -37 -27.5 -62t-68.5 -25z" />
    <glyph glyph-name="quotedbl" unicode="&#x22;" horiz-adv-x="489" 
d="M108 408q-34 0 -37 35l-16 231q-3 37 34 37h72q37 0 34 -37l-17 -231q-3 -35 -37 -35h-33zM348 408q-34 0 -37 35l-17 231q-3 37 34 37h72q37 0 34 -37l-17 -231q-3 -35 -37 -35h-32z" />
    <glyph glyph-name="numbersign" unicode="#" horiz-adv-x="769" 
d="M161 0q-18 0 -26.5 10.5t-4.5 29.5l28 116h-86q-19 0 -27 10.5t-4 29.5l9 36q7 30 39 30h96l48 191h-87q-19 0 -27 10.5t-4 29.5l9 35q9 30 40 30h96l28 111q7 31 39 31h35q19 0 27 -10.5t4 -29.5l-26 -102h134l27 111q7 31 39 31h36q19 0 27 -10.5t4 -29.5l-26 -102h89
q19 0 27.5 -10.5t3.5 -28.5l-9 -35q-7 -31 -39 -31h-98l-49 -191h91q19 0 27 -10.5t4 -29.5l-9 -36q-9 -30 -40 -30h-97l-32 -125q-9 -31 -39 -31h-36q-19 0 -27 10.5t-4 29.5l30 116h-134l-32 -125q-8 -31 -39 -31h-35zM292 262h134l48 191h-135z" />
    <glyph glyph-name="dollar" unicode="$" horiz-adv-x="594" 
d="M298 -83q-20 0 -20 20v65q-93 4 -156.5 48.5t-83.5 117.5q-8 24 19 31l81 20q21 4 32 -19q28 -66 108 -73v163l-35 13q-72 23 -126 71.5t-55 119.5q0 85 61 139t155 61v69q0 20 20 20h17q20 0 20 -20v-70q143 -14 192 -141q10 -24 -16 -32l-80 -24q-22 -6 -32 16
q-18 44 -64 54v-151l37 -13q182 -61 185 -198q0 -87 -62 -139.5t-160 -61.5v-66q0 -20 -20 -20h-17zM278 436v132q-28 -6 -45 -22t-17 -42q0 -42 56 -65zM335 129q68 14 68 69q0 44 -62 68l-6 3v-140z" />
    <glyph glyph-name="percent" unicode="%" horiz-adv-x="1008" 
d="M228 335q-83 0 -140 54t-57 133q0 80 57 134.5t140 54.5q85 0 141.5 -54.5t56.5 -134.5q0 -79 -57 -133t-141 -54zM294 0q-16 0 -21.5 10t1.5 24l360 647q10 19 33 19h39q16 0 21.5 -10t-1.5 -24l-359 -646q-10 -20 -33 -20h-40zM229 435q35 0 59.5 25.5t24.5 62.5
t-24.5 63t-59.5 26t-59 -26t-24 -63t24 -62.5t59 -25.5zM779 -11q-83 0 -140 54.5t-57 133.5t57 133.5t140 54.5q84 0 140.5 -54t56.5 -134t-56.5 -134t-140.5 -54zM780 89q35 0 59 25.5t24 62.5q0 38 -24 63.5t-59 25.5t-59 -25.5t-24 -63.5q0 -37 24 -62.5t59 -25.5z" />
    <glyph glyph-name="ampersand" unicode="&#x26;" horiz-adv-x="795" 
d="M289 -11q-109 0 -182.5 55t-73.5 149q0 73 52 127.5t131 83.5q-37 25 -61 64t-24 78q0 82 62 123.5t149 41.5q84 0 136.5 -47t52.5 -109q0 -52 -41.5 -100.5t-100.5 -72.5l96 -105l72 84q14 15 34 15h87q18 0 22.5 -10t-7.5 -24l-132 -151l30 -35q34 -37 68 -37
q26 0 54 16q27 16 39 -8l27 -50q10 -22 -7 -39q-57 -49 -126 -49q-72 0 -133 54l-21 21q-72 -75 -203 -75zM317 451q82 39 82 89q0 24 -19 43.5t-47 19.5q-30 0 -47.5 -18.5t-17.5 -47.5q0 -44 49 -86zM294 111q66 0 112 52l-129 146q-40 -17 -67.5 -46.5t-27.5 -62.5
q0 -38 31.5 -63.5t80.5 -25.5z" />
    <glyph glyph-name="quotesingle" unicode="'" horiz-adv-x="249" 
d="M108 408q-34 0 -37 35l-16 231q-3 37 34 37h72q37 0 34 -37l-17 -231q-3 -35 -37 -35h-33z" />
    <glyph glyph-name="parenleft" unicode="(" horiz-adv-x="346" 
d="M261 -235q-27 -16 -46 8q-30 34 -57 76t-56.5 104t-47 144t-17.5 171t17.5 170.5t47 143.5t56.5 104t57 76q19 23 46 7l41 -24q29 -17 12 -45q-129 -218 -129 -433q0 -212 129 -432q17 -29 -11 -46z" />
    <glyph glyph-name="parenright" unicode=")" horiz-adv-x="346" 
d="M131 -227q-19 -24 -46 -8l-42 24q-28 17 -11 46q129 220 129 432q0 215 -129 433q-17 28 11 45l42 25q26 16 46 -7q178 -210 178 -495q0 -89 -17.5 -171t-47.5 -144t-56.5 -104t-56.5 -76z" />
    <glyph glyph-name="asterisk" unicode="*" horiz-adv-x="461" 
d="M175 377q-18 -26 -43 -7l-27 21q-26 19 -5 43l61 76l-95 28q-30 8 -20 38l11 35q9 29 40 18l91 -36l-6 99q-3 31 30 31h37q32 0 30 -32l-7 -97l93 35q31 12 39 -19l11 -34q8 -30 -21 -38l-94 -26l62 -78q20 -24 -5 -43l-28 -20q-25 -19 -43 8l-53 82z" />
    <glyph glyph-name="plus" unicode="+" horiz-adv-x="569" 
d="M241 69q-25 0 -25 25v150h-155q-25 0 -25 26v81q0 25 25 25h155v150q0 26 25 26h88q25 0 25 -26v-150h154q26 0 26 -25v-81q0 -26 -26 -26h-154v-150q0 -25 -25 -25h-88z" />
    <glyph glyph-name="comma" unicode="," horiz-adv-x="277" 
d="M88 -148q-21 -12 -34 10l-5 8q-12 22 9 35q31 19 51 50.5t21 60.5q-3 0 -8 -0.5t-7 -0.5q-31 1 -50 23.5t-20 50.5q0 37 24 62.5t68 25.5q48 0 70 -33t22 -68q0 -70 -40 -132.5t-101 -91.5z" />
    <glyph glyph-name="hyphen" unicode="-" horiz-adv-x="474" 
d="M84 237q-26 0 -26 25v86q0 25 26 25h307q25 0 25 -25v-86q0 -25 -25 -25h-307z" />
    <glyph glyph-name="period" unicode="." horiz-adv-x="279" 
d="M139 -11q-41 0 -68 24.5t-27 62.5t27 63.5t68 25.5q40 0 68 -25.5t28 -63.5q0 -37 -27.5 -62t-68.5 -25z" />
    <glyph glyph-name="slash" unicode="/" horiz-adv-x="553" 
d="M120 -36h-57q-17 0 -23.5 10.5t1.5 25.5l355 717q10 22 36 22h58q18 0 24 -10t-2 -26l-355 -716q-11 -23 -37 -23z" />
    <glyph glyph-name="zero" unicode="0" horiz-adv-x="711" 
d="M355 -11q-142 0 -227 103.5t-85 257.5q0 155 85 258t227 103q141 0 227 -103.5t86 -257.5t-86 -257.5t-227 -103.5zM355 117q73 0 117 66.5t44 166.5q0 101 -44 167.5t-117 66.5t-116.5 -66t-43.5 -168q0 -101 43.5 -167t116.5 -66z" />
    <glyph glyph-name="one" unicode="1" horiz-adv-x="416" 
d="M243 0q-48 0 -48 48v481l-102 -43q-22 -10 -38 -2t-23 31l-10 28q-14 44 28 62l184 82q27 13 72 13q44 0 44 -48v-604q0 -48 -49 -48h-58z" />
    <glyph glyph-name="two" unicode="2" horiz-adv-x="626" 
d="M104 0q-44 0 -52 44l-2 13q-6 36 23 62l242 219q46 40 70 75t24 75q0 44 -31 69.5t-79 25.5q-78 0 -102 -54q-11 -23 -21.5 -32.5t-30.5 -9.5h-55q-25 0 -37.5 13.5t-7.5 36.5q16 75 79 124.5t178 49.5q116 0 186.5 -61.5t70.5 -164.5q0 -122 -130 -233l-151 -128l1 -4
q59 6 145 6h117q48 0 48 -49v-29q0 -48 -48 -48h-437z" />
    <glyph glyph-name="three" unicode="3" horiz-adv-x="624" 
d="M283 -11q-134 0 -226 60q-35 24 -7 61l24 31q23 31 60 11q64 -35 138 -35t115 36t41 86q0 49 -37 79.5t-92 30.5q-33 0 -60 -10q-38 -11 -58 17l-11 14q-23 34 9 61l163 143h-237q-44 0 -44 44v39q0 43 44 43h408q43 0 43 -43v-15q0 -31 -25 -53l-173 -149q24 0 41 -4
q78 -11 130.5 -64t52.5 -137q0 -107 -79 -176.5t-220 -69.5z" />
    <glyph glyph-name="four" unicode="4" horiz-adv-x="686" 
d="M413 0q-46 0 -46 46v128h-301q-46 0 -46 46v30q0 32 22 57l339 368q22 25 57 25h38q46 0 46 -46v-363h95q46 0 46 -46v-25q0 -46 -46 -46h-95v-128q0 -46 -46 -46h-63zM175 291h194v209z" />
    <glyph glyph-name="five" unicode="5" horiz-adv-x="623" 
d="M297 -11q-132 0 -225 57q-40 28 -8 68l17 23q26 33 68 13q63 -33 141 -33q65 0 105.5 34.5t40.5 89.5q0 49 -36.5 80t-93.5 31t-110 -29q-35 -20 -66 -9l-28 11q-37 16 -36 57l17 271q3 47 50 47h359q48 0 48 -48v-29q0 -49 -48 -49h-271l-12 -154q55 45 146 45
q104 0 168.5 -64t64.5 -160q0 -114 -77.5 -183t-213.5 -69z" />
    <glyph glyph-name="six" unicode="6" horiz-adv-x="659" 
d="M348 -11q-143 0 -223.5 95t-80.5 254q0 163 83 268t241 105q111 0 190 -54q19 -13 20 -32t-15 -36l-18 -20q-26 -29 -68 -9q-40 24 -100 24q-84 0 -133.5 -55.5t-49.5 -153.5q30 42 80 65t102 23q103 0 174 -63.5t71 -168.5q0 -106 -75 -174t-198 -68zM338 115
q55 0 92.5 32.5t37.5 83.5t-38 83.5t-92 32.5q-57 0 -95 -33.5t-38 -82.5t37.5 -82.5t95.5 -33.5z" />
    <glyph glyph-name="seven" unicode="7" horiz-adv-x="565" 
d="M121 0q-25 0 -33.5 14t3.5 37l287 523h-307q-44 0 -44 44v39q0 43 44 43h440q43 0 43 -43v-22q0 -28 -13 -54l-287 -550q-16 -31 -51 -31h-82z" />
    <glyph glyph-name="eight" unicode="8" horiz-adv-x="674" 
d="M338 -11q-131 0 -214 60t-83 157q0 60 40 106.5t93 62.5q-41 15 -72 53t-31 87q0 86 74 141t193 55q118 0 192 -55t74 -141q0 -49 -31 -87t-72 -53q52 -16 92.5 -61.5t40.5 -107.5q0 -97 -83.5 -157t-212.5 -60zM339 415q49 0 79.5 27t30.5 61t-31.5 58.5t-79.5 24.5
q-49 0 -81 -24.5t-32 -58.5q0 -37 30.5 -62.5t83.5 -25.5zM338 117q59 0 97 29t38 71q0 41 -36 70.5t-99 29.5q-64 0 -100 -28.5t-36 -71.5q0 -42 37.5 -71t98.5 -29z" />
    <glyph glyph-name="nine" unicode="9" horiz-adv-x="657" 
d="M311 711q143 0 223.5 -95t80.5 -254q0 -105 -34 -187.5t-109 -134t-181 -51.5q-111 0 -190 54q-20 13 -20.5 32t15.5 36l18 20q26 29 67 9q42 -24 101 -24q84 0 133.5 55.5t49.5 153.5q-30 -43 -80 -65.5t-103 -22.5q-102 0 -173.5 63.5t-71.5 168.5q0 106 75.5 174
t198.5 68zM320 585q-55 0 -92 -33t-37 -83q0 -51 38 -83.5t92 -32.5q57 0 95 33.5t38 82.5t-37.5 82.5t-96.5 33.5z" />
    <glyph glyph-name="colon" unicode=":" horiz-adv-x="303" 
d="M151 349q-41 0 -68 24.5t-27 62.5t27 63.5t68 25.5t69 -25.5t28 -63.5q0 -37 -28 -62t-69 -25zM151 -11q-41 0 -68 24.5t-27 62.5t27 63.5t68 25.5t69 -26t28 -63t-28 -62t-69 -25z" />
    <glyph glyph-name="semicolon" unicode=";" horiz-adv-x="299" 
d="M148 349q-41 0 -68 24.5t-27 62.5t27 63.5t68 25.5t68.5 -25.5t27.5 -63.5q0 -37 -27.5 -62t-68.5 -25zM100 -148q-21 -12 -34 10l-5 8q-12 22 9 35q31 19 51 50.5t21 60.5q-3 0 -8 -0.5t-7 -0.5q-31 1 -50 23.5t-20 50.5q0 37 24 62.5t68 25.5q48 0 70.5 -33t22.5 -68
q0 -69 -40.5 -132t-101.5 -92z" />
    <glyph glyph-name="less" unicode="&#x3c;" horiz-adv-x="596" 
d="M507 46l-452 182q-22 8 -22 32v64q0 24 22 32l452 182q14 6 23 0t9 -22v-78q0 -24 -23 -31l-315 -115l315 -114q23 -9 23 -32v-78q0 -16 -9 -22t-23 0z" />
    <glyph glyph-name="equal" unicode="=" horiz-adv-x="622" 
d="M87 396q-25 0 -25 26v74q0 25 25 25h448q25 0 25 -25v-74q0 -26 -25 -26h-448zM87 123q-25 0 -25 26v74q0 25 25 25h448q25 0 25 -25v-74q0 -26 -25 -26h-448z" />
    <glyph glyph-name="greater" unicode="&#x3e;" horiz-adv-x="596" 
d="M89 46q-14 -6 -23 0t-9 22v78q0 23 23 32l314 114l-314 115q-23 7 -23 31v78q0 16 9 22t23 0l452 -182q22 -8 22 -32v-64q0 -24 -22 -32z" />
    <glyph glyph-name="question" unicode="?" horiz-adv-x="538" 
d="M205 235q-26 0 -26 19v8q1 41 13 64.5t54 50.5q57 36 81.5 63.5t24.5 64.5t-25 57.5t-66 20.5q-38 0 -62.5 -19t-24.5 -53v-10q2 -24 -22 -24h-89q-24 0 -28 21q-2 10 -2 27q0 70 60.5 128t170.5 58q106 0 173 -53.5t67 -140.5q0 -39 -13.5 -72t-43.5 -62.5t-51 -46
t-61 -43.5q-28 -20 -29 -38v-6q0 -14 -21 -14h-80zM242 -11q-41 0 -68.5 25t-27.5 62q0 38 27.5 63.5t68.5 25.5q40 0 68 -26t28 -63t-28 -62t-68 -25z" />
    <glyph glyph-name="at" unicode="@" horiz-adv-x="1023" 
d="M496 -238q-203 0 -330 135.5t-127 343.5q0 207 135 344.5t340 137.5q208 0 336.5 -123.5t128.5 -320.5q0 -154 -57 -234t-152 -80q-128 0 -151 99l-2 14q-24 -42 -70.5 -63.5t-93.5 -21.5q-95 0 -157.5 68.5t-62.5 172.5t62.5 173.5t159.5 69.5q100 0 149 -81v36
q0 35 35 35h69q35 0 35 -35v-335q0 -57 41 -55q58 1 92 61t34 176q0 166 -110 272t-286 106t-291 -119t-115 -297t108 -295.5t280 -117.5q106 0 184 31q19 6 27 -10l11 -22q10 -20 -8 -26q-93 -39 -214 -39zM489 104q51 0 83.5 36t32.5 93t-32 94t-84 37q-53 0 -84 -37
t-31 -93q0 -55 31.5 -92.5t83.5 -37.5z" />
    <glyph glyph-name="A" unicode="A" horiz-adv-x="703" 
d="M63 0q-27 0 -37 15t-1 40l234 607q14 38 56 38h71q41 0 56 -38l237 -607q9 -25 -1 -40t-37 -15h-65q-41 0 -56 38l-35 92h-270l-34 -91q-15 -39 -55 -39h-63zM246 255h207l-102 282z" />
    <glyph glyph-name="B" unicode="B" horiz-adv-x="670" 
d="M491 363q68 -9 106 -58t38 -107q0 -90 -68 -144t-181 -54h-259q-49 0 -49 48v604q0 48 49 48h230q109 0 177.5 -52t68.5 -140q0 -47 -27.5 -86.5t-84.5 -58.5zM345 574h-108v-170h84q63 0 95 25.5t32 62.5q0 38 -29 60t-74 22zM380 128q46 0 72.5 23t26.5 59
q0 38 -33.5 64.5t-98.5 26.5h-110v-173h143z" />
    <glyph glyph-name="C" unicode="C" horiz-adv-x="689" 
d="M419 -11q-173 0 -278.5 105t-105.5 256t105.5 256t278.5 105q118 0 214 -66q39 -27 10 -67l-25 -31q-25 -34 -67 -9q-61 35 -132 35q-102 0 -163.5 -64t-61.5 -159t61.5 -159t163.5 -64q71 0 132 35q42 25 67 -9l25 -31q28 -40 -5 -64q-97 -69 -219 -69z" />
    <glyph glyph-name="D" unicode="D" horiz-adv-x="751" 
d="M127 0q-49 0 -49 48v604q0 48 49 48h231q157 0 257.5 -101.5t100.5 -248.5q0 -148 -100.5 -249t-257.5 -101h-231zM237 134h105q98 0 156 60.5t58 155.5t-58 155.5t-156 60.5h-105v-432z" />
    <glyph glyph-name="E" unicode="E" horiz-adv-x="602" 
d="M504 566h-267v-158h226q48 0 48 -48v-27q0 -49 -48 -49h-226v-150h267q48 0 48 -48v-38q0 -48 -48 -48h-377q-49 0 -49 48v604q0 48 49 48h377q48 0 48 -48v-38q0 -48 -48 -48z" />
    <glyph glyph-name="F" unicode="F" horiz-adv-x="587" 
d="M507 700q48 0 48 -48v-38q0 -48 -48 -48h-270v-158h229q48 0 48 -48v-27q0 -49 -48 -49h-229v-236q0 -48 -48 -48h-62q-49 0 -49 48v604q0 48 49 48h380z" />
    <glyph glyph-name="G" unicode="G" horiz-adv-x="734" 
d="M416 -11q-166 0 -273.5 105t-107.5 255q0 151 107.5 256.5t269.5 105.5q120 0 212 -54q41 -26 12 -67l-25 -32q-24 -34 -67 -14q-57 29 -132 29q-93 0 -155.5 -64.5t-62.5 -158.5q0 -93 60.5 -158t164.5 -65q69 0 122 28v108h-121q-49 0 -49 48v22q0 48 49 48h221
q49 0 49 -48v-202q0 -38 -31 -61q-108 -81 -243 -81z" />
    <glyph glyph-name="H" unicode="H" horiz-adv-x="736" 
d="M127 0q-49 0 -49 48v604q0 48 49 48h62q48 0 48 -48v-253h262v253q0 48 48 48h62q48 0 48 -48v-604q0 -48 -48 -48h-62q-48 0 -48 48v222h-262v-222q0 -48 -48 -48h-62z" />
    <glyph glyph-name="I" unicode="I" horiz-adv-x="315" 
d="M127 0q-49 0 -49 48v604q0 48 49 48h62q48 0 48 -48v-604q0 -48 -48 -48h-62z" />
    <glyph glyph-name="J" unicode="J" horiz-adv-x="651" 
d="M295 -11q-74 0 -129.5 22.5t-85.5 59.5t-44.5 78.5t-14.5 86.5q0 40 18 84q14 34 56 34h48q52 0 38 -48q-8 -29 -8 -51q0 -54 29 -91t89 -37q65 0 99 46t34 135v344q0 48 48 48h62q49 0 49 -48v-344q0 -158 -75 -238.5t-213 -80.5z" />
    <glyph glyph-name="K" unicode="K" horiz-adv-x="671" 
d="M549 -11q-67 0 -121.5 37.5t-87.5 105.5l-104 190v-274q0 -48 -48 -48h-62q-49 0 -49 48v604q0 48 49 48h62q48 0 48 -48v-272l185 287q19 33 57 33h80q27 0 33 -14t-10 -39l-195 -293l94 -159q45 -82 95 -79q19 3 31 7q19 6 29.5 -1t20.5 -28l10 -22q21 -47 -27 -66
q-41 -17 -90 -17z" />
    <glyph glyph-name="L" unicode="L" horiz-adv-x="570" 
d="M127 0q-49 0 -49 48v604q0 48 49 48h62q48 0 48 -48v-518h268q49 0 49 -48v-38q0 -48 -49 -48h-378z" />
    <glyph glyph-name="M" unicode="M" horiz-adv-x="933" 
d="M100 0q-24 0 -36.5 13.5t-9.5 37.5l56 603q3 46 50 46h72q40 0 56 -38l178 -435l179 435q15 38 55 38h73q45 0 50 -46l56 -603q5 -51 -46 -51h-61q-46 0 -51 46l-32 382l-154 -382q-15 -38 -55 -38h-27q-40 0 -55 38l-154 382l-33 -382q-3 -46 -50 -46h-61z" />
    <glyph glyph-name="N" unicode="N" horiz-adv-x="741" 
d="M127 0q-49 0 -49 48v604q0 48 49 48h36q38 0 59 -30l281 -386v368q0 48 49 48h62q48 0 48 -48v-604q0 -48 -48 -48h-36q-38 0 -58 30l-283 390v-372q0 -48 -48 -48h-62z" />
    <glyph glyph-name="O" unicode="O" horiz-adv-x="813" 
d="M406 -11q-161 0 -266 105t-105 256t105 256t266 105t266 -105t105 -256t-105 -256t-266 -105zM406 127q92 0 152 64.5t60 158.5t-60 158.5t-152 64.5t-151.5 -64.5t-59.5 -158.5t59.5 -158.5t151.5 -64.5z" />
    <glyph glyph-name="P" unicode="P" horiz-adv-x="648" 
d="M390 700q108 0 170 -68t62 -167t-62 -163t-170 -64h-153v-190q0 -48 -48 -48h-62q-49 0 -49 48v604q0 48 49 48h263zM369 364q41 0 67 28.5t26 71.5q0 44 -26 73t-67 29h-132v-202h132z" />
    <glyph glyph-name="Q" unicode="Q" horiz-adv-x="812" 
d="M593 -207q-106 0 -167.5 51.5t-83.5 137.5l-3 13q-134 20 -219 120.5t-85 234.5q0 151 105 256t266 105t266 -105t105 -256q0 -129 -79 -227.5t-208 -124.5q19 -81 109 -81q28 0 58 11q45 16 63 -23l10 -22q11 -20 1 -40.5t-40 -32.5q-45 -17 -98 -17zM406 127
q92 0 151.5 64.5t59.5 158.5t-59.5 158.5t-151.5 64.5t-152 -64.5t-60 -158.5t60 -158.5t152 -64.5z" />
    <glyph glyph-name="R" unicode="R" horiz-adv-x="702" 
d="M552 -11q-49 0 -88.5 20t-62.5 48.5t-39.5 67t-23 67.5t-9.5 58h-93v-202q0 -48 -48 -48h-62q-49 0 -49 48v604q0 48 49 48h269q108 0 170 -67t62 -166q0 -78 -41 -134t-114 -75q6 -57 35.5 -99.5t70.5 -42.5q29 0 46 8q22 7 33 2t21 -25l9 -20q21 -44 -15 -64
q-54 -28 -120 -28zM236 364h137q42 0 67.5 28.5t25.5 71.5q0 44 -26 73t-67 29h-137v-202z" />
    <glyph glyph-name="S" unicode="S" horiz-adv-x="603" 
d="M302 -11q-97 0 -166 40t-97 111q-9 22 0.5 37.5t33.5 21.5l43 10q35 9 59 -31q39 -62 126 -62q51 0 82 21t31 55q0 54 -80 81l-91 33q-75 24 -130 73.5t-56 123.5q0 94 71 151t177 57q163 0 224 -128q11 -22 2.5 -38t-31.5 -23l-40 -11q-36 -10 -62 27q-28 46 -91 46
q-39 0 -66 -19t-27 -52q0 -48 73 -75l91 -33q187 -63 190 -206q0 -99 -75 -154.5t-191 -55.5z" />
    <glyph glyph-name="T" unicode="T" horiz-adv-x="613" 
d="M545 700q49 0 49 -48v-38q0 -48 -49 -48h-162v-518q0 -48 -48 -48h-60q-48 0 -48 48v518h-160q-48 0 -48 48v38q0 48 48 48h478z" />
    <glyph glyph-name="U" unicode="U" horiz-adv-x="719" 
d="M359 -11q-124 0 -207 73t-83 203v387q0 48 49 48h62q48 0 48 -48v-387q0 -65 37.5 -101.5t93.5 -36.5t94 36.5t38 101.5v387q0 48 49 48h62q48 0 48 -48v-387q0 -130 -83.5 -203t-207.5 -73z" />
    <glyph glyph-name="V" unicode="V" horiz-adv-x="670" 
d="M303 0q-41 0 -55 39l-213 606q-9 25 1.5 40t36.5 15h68q42 0 54 -41l141 -452l140 452q12 41 54 41h67q27 0 37.5 -15t1.5 -40l-215 -606q-13 -39 -54 -39h-64z" />
    <glyph glyph-name="W" unicode="W" horiz-adv-x="991" 
d="M282 0q-41 0 -55 40l-190 605q-7 25 4 40t36 15h62q43 0 54 -41l117 -393l115 371q12 40 54 40h34q42 0 54 -40l114 -371l117 393q11 41 53 41h63q26 0 37 -15t3 -40l-190 -605q-14 -40 -55 -40h-42q-42 0 -54 40l-118 388l-117 -388q-13 -40 -54 -40h-42z" />
    <glyph glyph-name="X" unicode="X" horiz-adv-x="712" 
d="M52 0q-28 0 -36 16.5t8 39.5l237 314l-212 274q-17 22 -9 39t37 17h79q36 0 56 -28l144 -185l144 185q19 28 55 28h80q29 0 37 -17t-9 -39l-212 -274l236 -314q17 -23 8.5 -39.5t-36.5 -16.5h-82q-35 0 -56 28l-165 219l-166 -219q-20 -28 -55 -28h-83z" />
    <glyph glyph-name="Y" unicode="Y" horiz-adv-x="727" 
d="M333 0q-48 0 -48 48v237l-243 357q-17 24 -7.5 41t38.5 17h79q39 0 58 -32l154 -249l154 249q20 32 58 32h79q29 0 38.5 -17t-7.5 -41l-243 -355v-239q0 -48 -48 -48h-62z" />
    <glyph glyph-name="Z" unicode="Z" horiz-adv-x="667" 
d="M73 0q-48 0 -48 48v20q0 34 21 59l355 439h-299q-48 0 -48 48v38q0 48 48 48h463q49 0 49 -48v-21q0 -32 -22 -60l-357 -437h355q49 0 49 -48v-38q0 -48 -49 -48h-517z" />
    <glyph glyph-name="bracketleft" unicode="[" horiz-adv-x="400" 
d="M98 -233q-34 0 -34 33v920q0 34 34 34h245q33 0 33 -34v-48q0 -34 -33 -34h-134v-756h134q33 0 33 -33v-49q0 -33 -33 -33h-245z" />
    <glyph glyph-name="backslash" unicode="\" horiz-adv-x="553" 
d="M433 -36q-26 0 -36 23l-356 716q-8 16 -1.5 26t23.5 10h58q25 0 37 -22l354 -717q8 -15 2 -25.5t-24 -10.5h-57z" />
    <glyph glyph-name="bracketright" unicode="]" horiz-adv-x="400" 
d="M58 -233q-34 0 -34 33v49q0 33 34 33h133v756h-133q-34 0 -34 34v48q0 34 34 34h245q33 0 33 -34v-920q0 -33 -33 -33h-245z" />
    <glyph glyph-name="asciicircum" unicode="^" horiz-adv-x="563" 
d="M74 324q-16 0 -21.5 9t1.5 24l161 321q11 21 33 21h68q22 0 33 -21l160 -321q7 -15 1.5 -24t-21.5 -9h-79q-22 0 -32 21l-97 214l-97 -214q-10 -21 -33 -21h-77z" />
    <glyph glyph-name="underscore" unicode="_" horiz-adv-x="720" 
d="M36 -175q-36 0 -36 35v43q0 36 36 36h648q36 0 36 -36v-43q0 -35 -36 -35h-648z" />
    <glyph glyph-name="grave" unicode="`" horiz-adv-x="510" 
d="M285 578q-18 0 -31 14l-98 118q-10 13 -6 22t20 9h99q21 0 30 -18l61 -115q7 -14 2 -22t-20 -8h-57z" />
    <glyph glyph-name="a" unicode="a" horiz-adv-x="660" 
d="M278 -11q-107 0 -177 76.5t-70 191.5q0 114 70 191t177 77q111 0 165 -84v25q0 48 48 48h59q48 0 48 -48v-418q0 -48 -48 -48h-59q-48 0 -48 48v24q-54 -83 -165 -83zM314 113q58 0 94.5 41t36.5 103t-36.5 103t-94.5 41q-59 0 -93.5 -41.5t-34.5 -102.5q0 -62 34.5 -103
t93.5 -41z" />
    <glyph glyph-name="b" unicode="b" horiz-adv-x="660" 
d="M381 -11q-110 0 -164 83v-24q0 -48 -49 -48h-58q-48 0 -48 48v627q0 48 48 48h58q49 0 49 -48v-234q54 84 164 84q108 0 178 -77t70 -191q0 -115 -70 -191.5t-178 -76.5zM346 113q58 0 93 41t35 103q0 61 -35 102.5t-93 41.5q-59 0 -95 -40.5t-37 -103.5q1 -63 37 -103.5
t95 -40.5z" />
    <glyph glyph-name="c" unicode="c" horiz-adv-x="547" 
d="M326 -11q-132 0 -214 76t-82 189q0 115 81.5 193t214.5 78q89 0 163 -43q41 -26 9 -68l-16 -20q-25 -31 -68 -12q-37 18 -79 18q-65 0 -107.5 -40t-42.5 -103t42.5 -103t107.5 -40q42 0 79 18q44 20 68 -12l16 -20q15 -18 10.5 -38.5t-28.5 -33.5q-69 -39 -154 -39z" />
    <glyph glyph-name="d" unicode="d" horiz-adv-x="660" 
d="M279 -11q-108 0 -178 76.5t-70 191.5q0 114 70 191t178 77q110 0 164 -84v234q0 48 49 48h58q48 0 48 -48v-627q0 -48 -48 -48h-58q-49 0 -49 48v24q-54 -83 -164 -83zM314 113q58 0 94.5 41t37.5 103q-1 62 -37.5 103t-94.5 41t-93 -41.5t-35 -102.5q0 -62 35 -103
t93 -41z" />
    <glyph glyph-name="e" unicode="e" horiz-adv-x="611" 
d="M326 -11q-134 0 -215 76t-81 190q0 112 78 191t204 79q114 0 191 -66.5t82 -185.5q1 -21 -12.5 -31.5t-36.5 -10.5h-358q-2 -48 42.5 -84t115.5 -36q59 0 114 31q41 23 68 -10l11 -14q33 -40 -9 -71q-80 -58 -194 -58zM182 317h258q-10 48 -45.5 69.5t-80.5 21.5
q-46 0 -83 -22t-49 -69z" />
    <glyph glyph-name="f" unicode="f" horiz-adv-x="400" 
d="M145 0q-48 0 -48 48v351h-46q-25 0 -25 25v58q0 25 25 25h46v33q0 56 17 96t46.5 60.5t60 29t66.5 8.5q73 0 122.5 -35t49.5 -102q0 -6 -2 -16q-3 -19 -24 -19h-72q-21 0 -21 18v6q0 14 -12.5 23.5t-30.5 9.5q-49 0 -49 -59v-53h90q25 0 25 -25v-58q0 -25 -25 -25h-87
v-351q0 -48 -49 -48h-57z" />
    <glyph glyph-name="g" unicode="g" horiz-adv-x="655" 
d="M308 -235q-111 0 -200 46q-42 22 -17 66l12 22q22 41 65 18q62 -32 126 -32q68 0 108.5 37.5t40.5 111.5v38q-54 -83 -166 -83q-107 0 -176.5 78t-69.5 190t69.5 190t176.5 78q110 0 164 -84v29q0 44 49 44h55q48 0 48 -48v-428q0 -139 -79.5 -206t-205.5 -67zM312 111
q58 0 94.5 41.5t37.5 104.5q-1 63 -37.5 104.5t-94.5 41.5t-93.5 -42.5t-35.5 -103.5q0 -62 35.5 -104t93.5 -42z" />
    <glyph glyph-name="h" unicode="h" horiz-adv-x="616" 
d="M110 0q-48 0 -48 48v627q0 48 48 48h59q48 0 48 -48v-243q39 93 156 93q97 0 142.5 -64.5t45.5 -164.5v-248q0 -48 -49 -48h-58q-48 0 -48 48v237q0 54 -21 84t-60 30q-44 0 -76 -35t-32 -102v-214q0 -48 -48 -48h-59z" />
    <glyph glyph-name="i" unicode="i" horiz-adv-x="282" 
d="M141 575q-42 0 -67.5 23t-25.5 57q0 36 24.5 58.5t68.5 22.5q43 0 68 -23t25 -58q0 -34 -25.5 -57t-67.5 -23zM112 0q-48 0 -48 48v418q0 48 48 48h58q49 0 49 -48v-418q0 -48 -49 -48h-58z" />
    <glyph glyph-name="j" unicode="j" horiz-adv-x="318" 
d="M178 575q-42 0 -67.5 23t-25.5 57q0 36 24.5 58.5t68.5 22.5q43 0 68 -23t25 -58q0 -34 -25.5 -57t-67.5 -23zM62 -236q-73 0 -122 35t-49 102q0 11 1 16q3 19 25 19h71q21 0 21 -18v-6q0 -14 11.5 -23.5t30.5 -9.5q48 0 48 59v528q0 48 48 48h58q48 0 48 -48v-508
q0 -56 -17 -96t-46.5 -60.5t-60.5 -29t-67 -8.5z" />
    <glyph glyph-name="k" unicode="k" horiz-adv-x="598" 
d="M468 -11q-64 0 -106 31t-74 91l-72 132v-195q0 -48 -48 -48h-59q-48 0 -48 48v627q0 48 48 48h59q48 0 48 -48v-371l127 179q21 31 58 31h67q31 0 39.5 -17.5t-10.5 -41.5l-138 -179l66 -107q19 -29 35 -40.5t40 -11.5q15 0 30 5q30 8 41 -15l22 -44q14 -30 -23 -49
q-46 -25 -102 -25z" />
    <glyph glyph-name="l" unicode="l" horiz-adv-x="282" 
d="M112 0q-48 0 -48 48v627q0 48 48 48h58q49 0 49 -48v-627q0 -48 -49 -48h-58z" />
    <glyph glyph-name="m" unicode="m" horiz-adv-x="914" 
d="M110 0q-48 0 -48 48v418q0 48 48 48h59q48 0 48 -48v-34q15 44 52.5 68.5t86.5 24.5q103 0 149 -89q33 52 73.5 70.5t91.5 18.5q94 0 141.5 -65.5t47.5 -164.5v-247q0 -48 -49 -48h-58q-48 0 -48 48v240q0 53 -19.5 82t-54.5 29q-37 0 -64 -32t-28 -97v-222
q0 -48 -48 -48h-59q-48 0 -48 48v240q0 54 -19 82.5t-54 28.5q-39 0 -66 -33.5t-27 -100.5v-217q0 -48 -48 -48h-59z" />
    <glyph glyph-name="n" unicode="n" horiz-adv-x="616" 
d="M110 0q-48 0 -48 48v418q0 48 48 48h59q48 0 48 -48v-34q39 93 156 93q97 0 142.5 -64.5t45.5 -164.5v-248q0 -48 -49 -48h-58q-48 0 -48 48v237q0 54 -21 84t-60 30q-44 0 -76 -35t-32 -102v-214q0 -48 -48 -48h-59z" />
    <glyph glyph-name="o" unicode="o" horiz-adv-x="628" 
d="M314 -11q-121 0 -203 78t-82 190t82 190t203 78t203 -78t82 -190t-82 -190t-203 -78zM314 114q58 0 98 41t40 101q0 61 -40 102t-98 41q-59 0 -98.5 -41t-39.5 -102q0 -60 40 -101t98 -41z" />
    <glyph glyph-name="p" unicode="p" horiz-adv-x="660" 
d="M110 -224q-48 0 -48 48v642q0 48 48 48h59q48 0 48 -48v-24q54 83 165 83q107 0 177 -77t70 -191q0 -115 -70 -191.5t-177 -76.5q-111 0 -165 84v-249q0 -48 -48 -48h-59zM346 113q59 0 93.5 41t34.5 103q0 61 -34.5 102.5t-93.5 41.5q-58 0 -94.5 -41t-36.5 -103
t36.5 -103t94.5 -41z" />
    <glyph glyph-name="q" unicode="q" horiz-adv-x="659" 
d="M491 -224q-48 0 -48 48v249q-54 -84 -165 -84q-107 0 -177 76.5t-70 191.5q0 114 70 191t177 77q111 0 165 -83v24q0 48 48 48h59q48 0 48 -48v-642q0 -48 -48 -48h-59zM314 113q58 0 94.5 41t36.5 103t-36.5 103t-94.5 41q-59 0 -93.5 -41.5t-34.5 -102.5
q0 -62 34.5 -103t93.5 -41z" />
    <glyph glyph-name="r" unicode="r" horiz-adv-x="403" 
d="M110 0q-48 0 -48 48v418q0 48 48 48h55q48 0 48 -48v-64q11 63 51.5 93t81.5 30l17 -1q29 -2 29 -41v-70q0 -21 -9.5 -30t-25.5 -7q-18 2 -25 2q-51 0 -83 -39t-32 -129v-162q0 -48 -48 -48h-59z" />
    <glyph glyph-name="s" unicode="s" horiz-adv-x="473" 
d="M237 -11q-148 0 -199 103q-10 23 -1 38.5t33 21.5l31 7q10 6 23 0.5t18 -9.5t19 -18q27 -30 77 -30q29 0 47.5 12.5t18.5 32.5q0 16 -11 26t-37 19l-63 22q-145 47 -145 149q0 72 53.5 117t137.5 45q112 0 164 -78q14 -22 5.5 -39.5t-33.5 -23.5l-28 -7q-29 -8 -58 19
q-19 19 -50 19q-23 0 -37.5 -12.5t-14.5 -31.5q0 -26 47 -42l64 -24q143 -47 146 -155q0 -77 -59.5 -119t-147.5 -42z" />
    <glyph glyph-name="t" unicode="t" horiz-adv-x="457" 
d="M275 -11q-35 0 -65 9t-57 28.5t-42.5 56.5t-15.5 88v228h-51q-26 0 -26 25v65q0 25 26 25h63l17 104q6 32 39 32h49q35 0 35 -35v-101h116q25 0 25 -25v-65q0 -25 -25 -25h-116v-233q0 -53 42 -53q19 0 31 13t12 34q0 11 -1 18q-3 27 21 27h61q23 0 28 -20q6 -23 6 -39
q0 -79 -48.5 -118t-123.5 -39z" />
    <glyph glyph-name="u" unicode="u" horiz-adv-x="616" 
d="M242 -11q-96 0 -141.5 64.5t-45.5 164.5v248q0 48 48 48h59q48 0 48 -48v-237q0 -55 21 -85t60 -30q43 0 75.5 35.5t32.5 102.5v214q0 48 48 48h58q49 0 49 -48v-418q0 -48 -49 -48h-58q-48 0 -48 48v33q-41 -92 -157 -92z" />
    <glyph glyph-name="v" unicode="v" horiz-adv-x="600" 
d="M266 0q-41 0 -57 37l-176 421q-11 25 -0.5 40.5t37.5 15.5h64q42 0 55 -39l110 -307l111 307q14 39 55 39h65q27 0 37.5 -15.5t-0.5 -40.5l-176 -421q-15 -37 -56 -37h-69z" />
    <glyph glyph-name="w" unicode="w" horiz-adv-x="825" 
d="M238 0q-42 0 -55 39l-149 419q-10 25 1 40.5t38 15.5h66q43 0 54 -41l81 -264l77 250q12 41 54 41h15q42 0 54 -41l78 -250l80 264q11 41 54 41h66q27 0 38 -15.5t2 -40.5l-150 -419q-13 -39 -55 -39h-43q-42 0 -55 40l-76 247l-77 -247q-12 -40 -55 -40h-43z" />
    <glyph glyph-name="x" unicode="x" horiz-adv-x="619" 
d="M68 0q-31 0 -39 17.5t12 41.5l172 206l-153 190q-19 24 -11 41.5t39 17.5h63q37 0 59 -29l99 -119l99 119q23 29 59 29h65q31 0 39 -17.5t-11 -41.5l-155 -190l172 -206q20 -24 12 -41.5t-39 -17.5h-60q-35 0 -59 27l-122 145l-122 -145q-24 -27 -59 -27h-60z" />
    <glyph glyph-name="y" unicode="y" horiz-adv-x="592" 
d="M175 -224q-27 0 -37.5 15.5t0.5 40.5l84 203l-190 422q-11 25 -0.5 41t37.5 16h68q43 0 56 -39l105 -279l106 279q14 39 56 39h65q27 0 37 -16t0 -41l-281 -644q-16 -37 -56 -37h-50z" />
    <glyph glyph-name="z" unicode="z" horiz-adv-x="584" 
d="M79 0q-48 0 -48 48v6q0 34 23 60l261 280h-223q-48 0 -48 48v24q0 48 48 48h396q48 0 48 -48v-7q0 -34 -23 -60l-260 -279h252q49 0 49 -48v-24q-2 -48 -49 -48h-426z" />
    <glyph glyph-name="braceleft" unicode="{" horiz-adv-x="381" 
d="M242 -238q-78 0 -129 38.5t-51 115.5q0 36 9.5 73.5t27.5 86.5t26 77t-4.5 41.5t-43.5 19.5l-20 3q-23 3 -23 27v30q0 23 19 26l25 4q61 11 47 60q-8 28 -26 77t-27.5 86.5t-9.5 73.5q0 77 51.5 116t128.5 39q24 0 86 -6q25 -2 25 -27v-44q0 -26 -28 -24q-33 4 -61 4
q-66 0 -66 -70q0 -39 30 -120t30 -116q0 -81 -84 -93v-3q43 -6 63.5 -34t20.5 -59q0 -35 -30 -116t-30 -120q0 -70 66 -70q17 0 61 4q28 3 28 -23v-45q0 -24 -29 -27q-52 -5 -82 -5z" />
    <glyph glyph-name="bar" unicode="|" horiz-adv-x="250" 
d="M90 -235q-26 0 -26 26v943q0 26 26 26h71q25 0 25 -26v-943q0 -26 -25 -26h-71z" />
    <glyph glyph-name="braceright" unicode="}" horiz-adv-x="381" 
d="M139 -238q-31 0 -81 5q-29 3 -29 27v45q0 26 27 23q44 -4 61 -4q66 0 66 70q0 39 -30 120t-30 116q0 31 20.5 59t63.5 34v3q-84 12 -84 93q0 35 30 116t30 120q0 70 -66 70q-28 0 -61 -4q-27 -2 -27 24v44q0 25 24 27q62 6 86 6q77 0 128.5 -39t51.5 -116
q0 -36 -9.5 -73.5t-27.5 -86.5t-26 -77q-14 -49 47 -60l25 -4q19 -3 19 -26v-30q0 -24 -23 -27l-20 -3q-31 -6 -43.5 -19.5t-4.5 -41.5t26 -77t27.5 -86.5t9.5 -73.5q0 -77 -51 -115.5t-129 -38.5z" />
    <glyph glyph-name="asciitilde" unicode="~" horiz-adv-x="590" 
d="M399 199q-45 0 -104 37.5t-95 37.5q-41 0 -69 -34q-21 -26 -36 0l-35 57q-14 19 -2 38q19 35 54 58.5t76 23.5q45 0 106 -38t92 -38q42 0 69 32q24 19 38 -4l37 -58q14 -20 1 -37q-19 -34 -55 -54.5t-77 -20.5z" />
    <glyph glyph-name="uni00A0" unicode="&#xa0;" horiz-adv-x="242" 
 />
    <glyph glyph-name="exclamdown" unicode="&#xa1;" horiz-adv-x="286" 
d="M142 525q41 0 68.5 -25t27.5 -62q0 -38 -27.5 -63.5t-68.5 -25.5t-68 25.5t-27 63.5t27 62.5t68 24.5zM126 279h34q36 0 40 -36l35 -368v-23q0 -38 -38 -38h-109q-38 0 -38 38v23l36 368q3 36 40 36z" />
    <glyph glyph-name="cent" unicode="&#xa2;" horiz-adv-x="576" 
d="M249 -102q-12 0 -18 7.5t-4 20.5l13 75q-92 25 -147 94t-55 159q0 112 78.5 189t205.5 81l12 1l12 65q4 22 27 22h16q12 0 18.5 -7.5t4.5 -19.5l-13 -67q66 -14 118 -50q19 -15 4 -35l-44 -56q-14 -18 -36 -5q-25 15 -64 24l-51 -281q62 -7 116 27q22 14 35 -5l44 -56
q15 -20 -4 -36q-88 -62 -214 -54l-12 -70q-5 -23 -28 -23h-14zM264 133l47 264q-53 -10 -85.5 -48t-32.5 -92q0 -84 71 -124z" />
    <glyph glyph-name="sterling" unicode="&#xa3;" horiz-adv-x="638" 
d="M62 0q-26 0 -26 25v71q0 24 18 25l13 2q122 18 122 105q0 25 -8 52h-102q-23 0 -23 23v24q0 23 23 23h71q-40 98 -40 157q0 90 69 147t174 57q104 0 161 -53t66 -128q2 -26 -25 -26h-93q-20 0 -26 24q-12 50 -86 50q-42 0 -67 -21t-25 -57q0 -51 41 -150h152q23 0 23 -23
v-24q0 -23 -23 -23h-129q12 -39 8 -67q-4 -63 -51 -86v-4q48 3 118 3h177q25 0 25 -26v-75q0 -25 -25 -25h-512z" />
    <glyph glyph-name="currency" unicode="&#xa4;" horiz-adv-x="552" 
d="M136 112q-18 -18 -35 1l-40 40q-17 19 0 36l46 45q-22 41 -22 94q0 46 22 88l-43 44q-18 18 1 35l41 42q17 20 36 0l40 -42q37 23 94 23t95 -23l40 42q17 19 36 0l41 -42q19 -17 0 -35l-42 -44q22 -42 22 -88q0 -54 -23 -94l46 -45q18 -16 0 -36l-39 -40q-18 -18 -36 -1
l-48 47q-40 -21 -92 -21t-92 21zM276 237q37 0 62 26t25 64t-25 64.5t-62 26.5t-62 -26.5t-25 -64.5t25 -64t62 -26z" />
    <glyph glyph-name="yen" unicode="&#xa5;" horiz-adv-x="758" 
d="M328 0q-28 0 -28 28v92h-150q-20 0 -20 20v32q0 20 20 20h150v66h-150q-20 0 -20 20v33q0 20 20 20h119l-218 335q-10 14 -4.5 24t22.5 10h114q22 0 33 -18l163 -263l164 263q11 18 33 18h113q17 0 22 -10t-4 -24l-219 -335h119q20 0 20 -20v-33q0 -20 -20 -20h-149v-66
h149q20 0 20 -20v-32q0 -20 -20 -20h-149v-92q0 -28 -28 -28h-102z" />
    <glyph glyph-name="brokenbar" unicode="&#xa6;" horiz-adv-x="262" 
d="M96 350q-26 0 -26 25v360q0 25 26 25h71q25 0 25 -25v-360q0 -25 -25 -25h-71zM96 -235q-26 0 -26 26v360q0 25 26 25h71q25 0 25 -25v-360q0 -26 -25 -26h-71z" />
    <glyph glyph-name="section" unicode="&#xa7;" horiz-adv-x="596" 
d="M300 -150q-149 0 -245 80q-18 16 -7 39l23 45q14 26 39 8q90 -61 192 -61q55 0 82 18t27 47q0 24 -22.5 38t-60.5 26l-92 24q-93 24 -133.5 71t-40.5 97q0 37 22.5 71t60.5 56q-82 47 -82 130q0 77 68.5 124.5t165.5 47.5q112 0 203 -45q26 -13 12 -38l-26 -49
q-13 -23 -39 -12q-76 32 -144 32q-100 0 -100 -58q0 -43 69 -60l90 -22q93 -24 140.5 -64t47.5 -104q0 -36 -20 -74t-56 -63q77 -48 77 -121q0 -78 -67 -130.5t-184 -52.5zM359 199q27 9 43 30t17 45q0 46 -51 60l-107 27q-32 -12 -49 -31t-17 -39q0 -50 55 -62z" />
    <glyph glyph-name="dieresis" unicode="&#xa8;" horiz-adv-x="656" 
d="M207 585q-35 0 -58.5 21t-23.5 53t23.5 53.5t58.5 21.5q34 0 58 -21.5t24 -53.5t-24 -53t-58 -21zM449 585q-35 0 -58.5 21t-23.5 53t23.5 53.5t58.5 21.5t59 -21.5t24 -53.5t-24 -53t-59 -21z" />
    <glyph glyph-name="copyright" unicode="&#xa9;" horiz-adv-x="789" 
d="M394 -11q-148 0 -250.5 105.5t-102.5 255.5t102.5 255.5t250.5 105.5t250.5 -105.5t102.5 -255.5t-102.5 -255.5t-250.5 -105.5zM394 50q122 0 206.5 88t84.5 212t-84.5 212t-206.5 88q-121 0 -205.5 -88t-84.5 -212t84.5 -212t205.5 -88zM404 161q-89 0 -145.5 55
t-56.5 134t56.5 134t145.5 55q56 0 110 -34q23 -14 9 -39l-11 -18q-13 -23 -38 -9q-36 17 -70 17q-53 0 -81 -31t-28 -75t28 -75t81 -31q36 0 70 18q25 13 38 -10l12 -18q14 -24 -9 -38q-55 -35 -111 -35z" />
    <glyph glyph-name="ordfeminine" unicode="&#xaa;" horiz-adv-x="464" 
d="M199 356q-71 0 -112.5 50t-41.5 125t42 124.5t113 49.5q69 0 106 -52v20q0 25 26 25h48q26 0 26 -25v-285q0 -26 -26 -26h-48q-26 0 -26 26v21q-17 -24 -48 -38.5t-59 -14.5zM226 445q35 0 57.5 23t23.5 62q0 38 -23 62t-59 24t-57 -24.5t-21 -59.5q0 -37 21.5 -62
t57.5 -25zM87 212q-25 0 -25 25v20q0 26 25 26h290q26 0 26 -26v-20q0 -25 -26 -25h-290z" />
    <glyph glyph-name="guillemotleft" unicode="&#xab;" horiz-adv-x="625" 
d="M255 75q-19 -17 -36 3l-171 195q-12 13 -12 30q0 14 12 26l171 197q16 19 36 2l48 -44q17 -16 2 -36l-127 -147l126 -145q16 -19 -2 -36zM518 75q-18 -18 -35 3l-172 195q-11 14 -11 30q0 14 11 26l172 197q15 20 35 2l48 -44q19 -16 2 -36l-126 -147l125 -145
q17 -19 -1 -36z" />
    <glyph glyph-name="logicalnot" unicode="&#xac;" horiz-adv-x="621" 
d="M447 185q-26 0 -26 25v132h-345q-26 0 -26 26v85q0 25 26 25h453q26 0 26 -25l-1 -243q0 -25 -26 -25h-81z" />
    <glyph glyph-name="uni00AD" unicode="&#xad;" horiz-adv-x="531" 
d="M89 245q-25 0 -25 25v86q0 25 25 25h353q25 0 25 -25v-86q0 -25 -25 -25h-353z" />
    <glyph glyph-name="registered" unicode="&#xae;" horiz-adv-x="789" 
d="M394 -11q-148 0 -250.5 105.5t-102.5 255.5t102.5 255.5t250.5 105.5t250.5 -105.5t102.5 -255.5t-102.5 -255.5t-250.5 -105.5zM394 50q122 0 206.5 88t84.5 212t-84.5 212t-206.5 88q-121 0 -205.5 -88t-84.5 -212t84.5 -212t205.5 -88zM296 173q-28 0 -28 28v304
q0 28 28 28h128q55 0 87 -35.5t32 -86.5q0 -81 -71 -108l59 -96q10 -14 4.5 -24t-22.5 -10h-37q-22 0 -33 20l-55 101h-31v-93q0 -28 -28 -28h-33zM357 365h57q17 0 27.5 13.5t10.5 32.5q0 20 -10.5 35t-27.5 15h-57v-96z" />
    <glyph glyph-name="macron" unicode="&#xaf;" horiz-adv-x="561" 
d="M150 609q-25 0 -25 26v48q0 25 25 25h261q26 0 26 -25v-48q0 -26 -26 -26h-261z" />
    <glyph glyph-name="degree" unicode="&#xb0;" horiz-adv-x="414" 
d="M207 383q-74 0 -123 49t-49 120q0 72 49 121.5t123 49.5t123 -49.5t49 -121.5q0 -71 -49 -120t-123 -49zM207 467q35 0 58 25t23 60t-23 61t-58 26q-33 0 -56.5 -26t-23.5 -61q0 -34 23.5 -59.5t56.5 -25.5z" />
    <glyph glyph-name="plusminus" unicode="&#xb1;" horiz-adv-x="625" 
d="M271 224q-25 0 -25 25v108h-157q-26 0 -26 25v63q0 25 26 25h157v107q0 25 25 25h83q26 0 26 -25v-107h156q25 0 25 -25v-63q0 -25 -25 -25h-156v-108q0 -25 -26 -25h-83zM89 60q-26 0 -26 25v64q0 25 26 25h447q25 0 25 -25v-64q0 -25 -25 -25h-447z" />
    <glyph glyph-name="uni00B2" unicode="&#xb2;" horiz-adv-x="333" 
d="M49 467q-16 0 -19 17l-3 18q-3 14 8 23l133 118q41 35 41 67q0 19 -12.5 30.5t-33.5 11.5q-39 0 -49 -36q-5 -17 -18 -17h-51q-19 0 -17 18q6 45 40 76.5t96 31.5q59 0 95 -32t36 -81q0 -68 -70 -124l-63 -50h129q18 0 18 -17v-36q0 -18 -18 -18h-242z" />
    <glyph glyph-name="uni00B3" unicode="&#xb3;" horiz-adv-x="324" 
d="M148 461q-71 0 -119 35q-14 11 -3 26l22 28q8 13 26 4q34 -22 74 -22q28 0 45.5 16.5t17.5 37.5q0 23 -17 38.5t-41 15.5q-15 0 -31 -5t-24 6l-12 15q-9 14 2 25l83 70h-117q-18 0 -18 17v34q0 18 18 18h215q18 0 18 -18v-17q0 -12 -10 -22l-82 -74q46 -4 74.5 -33.5
t28.5 -70.5q0 -52 -41 -88t-109 -36z" />
    <glyph glyph-name="acute" unicode="&#xb4;" horiz-adv-x="510" 
d="M164 578q-15 0 -20 8t2 22l61 115q9 18 30 18h99q16 0 20 -9t-6 -22l-98 -118q-11 -14 -31 -14h-57z" />
    <glyph glyph-name="uni00B5" unicode="&#xb5;" horiz-adv-x="620" 
d="M109 -165q-48 0 -48 48v583q0 48 48 48h58q48 0 48 -48v-248q0 -48 21.5 -76t59.5 -28q44 0 76 35.5t32 102.5v214q0 48 48 48h59q48 0 48 -48v-418q0 -48 -48 -48h-59q-48 0 -48 48v33q-33 -80 -136 -85q-36 -1 -66 9v-122q0 -48 -49 -48h-44z" />
    <glyph glyph-name="paragraph" unicode="&#xb6;" horiz-adv-x="673" 
d="M415 -140q-28 0 -28 28v701q0 59 37 90.5t92 31.5q61 0 94.5 -31t33.5 -80q0 -13 -3 -28q-4 -24 -32 -24h-29q-14 0 -20.5 5.5t-3.5 15.5q2 11 2 20q0 18 -12.5 28t-28.5 10q-18 0 -30 -11t-12 -31v-697q0 -28 -28 -28h-32zM263 -140q-28 0 -28 28v478h-38q-70 0 -118 48
t-48 118q0 71 48 119.5t118 48.5h164v-20q-37 -27 -37 -80v-712q0 -28 -28 -28h-33z" />
    <glyph glyph-name="periodcentered" unicode="&#xb7;" horiz-adv-x="293" 
d="M146 193q-41 0 -68 25t-27 62q0 38 27.5 63.5t67.5 25.5q41 0 69 -26t28 -63t-28 -62t-69 -25z" />
    <glyph glyph-name="cedilla" unicode="&#xb8;" horiz-adv-x="514" 
d="M260 -224q-44 0 -82 22.5t-58 63.5q-10 21 11 34l23 13q20 11 35 -9q27 -32 62 -32q22 0 39 15.5t17 41.5q0 42 -39 75l-15 9v9q0 13 17 13q25 0 38 -7q95 -45 95 -127q0 -60 -45 -90.5t-98 -30.5z" />
    <glyph glyph-name="uni00B9" unicode="&#xb9;" horiz-adv-x="228" 
d="M121 467q-18 0 -18 18v241l-57 -25q-17 -6 -23 10l-11 33q-6 16 10 22l109 49q10 5 23 5h18q18 0 18 -18v-317q0 -18 -18 -18h-51z" />
    <glyph glyph-name="ordmasculine" unicode="&#xba;" horiz-adv-x="454" 
d="M227 354q-74 0 -128 51.5t-54 124.5q0 72 54 124t128 52q73 0 127.5 -52t54.5 -124t-54.5 -124t-127.5 -52zM227 445q33 0 56.5 25t23.5 60t-23 60t-57 25t-56.5 -24.5t-22.5 -60.5t22.5 -60.5t56.5 -24.5zM79 212q-25 0 -25 25v20q0 26 25 26h297q25 0 25 -26v-20
q0 -25 -25 -25h-297z" />
    <glyph glyph-name="guillemotright" unicode="&#xbb;" horiz-adv-x="625" 
d="M107 75l-48 45q-18 17 -2 36l126 145l-127 147q-15 20 2 36l49 44q19 17 35 -2l172 -197q11 -12 11 -26q0 -16 -11 -30l-172 -195q-17 -21 -35 -3zM370 75l-47 45q-18 17 -2 36l126 145l-127 147q-15 20 2 36l48 44q20 17 36 -2l171 -197q12 -14 12 -26q0 -15 -12 -30
l-171 -195q-17 -20 -36 -3z" />
    <glyph glyph-name="onequarter" unicode="&#xbc;" horiz-adv-x="849" 
d="M139 -39q-15 0 -20 8.5t4 21.5l514 728q12 16 30 16h25q15 0 20 -8.5t-4 -21.5l-515 -728q-12 -16 -30 -16h-24zM144 347q-18 0 -18 18v241l-57 -25q-17 -6 -23 10l-11 33q-6 16 10 22l110 49q9 5 22 5h18q18 0 18 -18v-317q0 -18 -18 -18h-51zM675 0q-17 0 -17 18v71
h-150q-18 0 -18 18v16q0 13 9 23l165 197q7 10 21 10h41q18 0 18 -18v-184h52q18 0 18 -18v-26q0 -18 -18 -18h-52v-71q0 -18 -18 -18h-51zM579 151h83v97z" />
    <glyph glyph-name="onehalf" unicode="&#xbd;" horiz-adv-x="868" 
d="M139 -39q-15 0 -20 8.5t4 21.5l514 728q12 16 30 16h25q15 0 20 -8.5t-4 -21.5l-515 -728q-12 -16 -30 -16h-24zM144 347q-18 0 -18 18v241l-57 -25q-17 -6 -23 10l-11 33q-6 16 10 22l110 49q9 5 22 5h18q18 0 18 -18v-317q0 -18 -18 -18h-51zM570 0q-16 0 -19 17l-3 18
q-3 14 8 23l133 118q41 35 41 66q0 20 -12.5 31.5t-33.5 11.5q-39 0 -49 -37q-4 -16 -18 -16h-51q-19 0 -17 17q6 46 40 77.5t96 31.5q59 0 95 -32.5t36 -81.5q0 -69 -70 -123l-63 -50h129q18 0 18 -18v-35q0 -18 -18 -18h-242z" />
    <glyph glyph-name="threequarters" unicode="&#xbe;" horiz-adv-x="880" 
d="M169 -39q-15 0 -20 8.5t4 21.5l514 728q12 16 30 16h26q15 0 20 -8.5t-4 -21.5l-515 -728q-12 -16 -30 -16h-25zM166 341q-71 0 -119 35q-14 12 -3 26l22 28q10 12 26 4q34 -22 74 -22q28 0 45.5 16.5t17.5 37.5q0 23 -17 38.5t-41 15.5q-15 0 -31 -5t-24 6l-12 15
q-10 14 3 25l82 70h-117q-18 0 -18 17v34q0 18 18 18h215q18 0 18 -18v-17q0 -12 -10 -22l-82 -74q46 -4 74.5 -33.5t28.5 -70.5q0 -52 -40.5 -88t-109.5 -36zM710 0q-18 0 -18 18v71h-150q-17 0 -17 18v16q0 14 8 23l165 197q9 10 21 10h41q18 0 18 -18v-184h53
q17 0 17 -18v-26q0 -18 -17 -18h-53v-71q0 -18 -18 -18h-50zM613 151h84v97z" />
    <glyph glyph-name="questiondown" unicode="&#xbf;" horiz-adv-x="529" 
d="M292 525q41 0 68 -24.5t27 -62.5t-27 -63.5t-68 -25.5t-68.5 25.5t-27.5 63.5q0 37 27.5 62t68.5 25zM329 279q25 0 25 -19v-8q-1 -28 -4 -43.5t-18 -34t-44 -37.5q-58 -36 -82.5 -63.5t-24.5 -64.5t25.5 -57.5t66.5 -20.5q38 0 62 19t24 53v10q0 24 23 24h88
q25 0 28 -21q3 -15 3 -27q0 -70 -60.5 -128t-170.5 -58q-107 0 -174 53t-67 141q0 39 14 72t43 62t51 46t61 43q29 22 29 39v6q0 14 21 14h81z" />
    <glyph glyph-name="Agrave" unicode="&#xc0;" horiz-adv-x="703" 
d="M322 759q-19 0 -31 14l-80 98q-10 13 -6 22t21 9h91q21 0 30 -18l50 -96q7 -13 1.5 -21t-19.5 -8h-57zM63 0q-27 0 -37 15t-1 40l234 607q14 38 56 38h71q41 0 56 -38l237 -607q9 -25 -1 -40t-37 -15h-65q-41 0 -56 38l-35 92h-270l-34 -91q-15 -39 -55 -39h-63zM246 255
h207l-102 282z" />
    <glyph glyph-name="Aacute" unicode="&#xc1;" horiz-adv-x="703" 
d="M326 759q-14 0 -19.5 8t1.5 21l50 96q9 18 30 18h91q16 0 20.5 -9t-5.5 -22l-80 -98q-12 -14 -31 -14h-57zM63 0q-27 0 -37 15t-1 40l234 607q14 38 56 38h71q41 0 56 -38l237 -607q9 -25 -1 -40t-37 -15h-65q-41 0 -56 38l-35 92h-270l-34 -91q-15 -39 -55 -39h-63z
M246 255h207l-102 282z" />
    <glyph glyph-name="Acircumflex" unicode="&#xc2;" horiz-adv-x="703" 
d="M214 759q-16 0 -20.5 8.5t4.5 21.5l70 97q10 16 30 16h106q19 0 31 -16l70 -97q10 -13 5 -21.5t-21 -8.5h-40q-20 0 -31 12l-66 65l-66 -65q-12 -12 -32 -12h-40zM63 0q-27 0 -37 15t-1 40l234 607q14 38 56 38h71q41 0 56 -38l237 -607q9 -25 -1 -40t-37 -15h-65
q-41 0 -56 38l-35 92h-270l-34 -91q-15 -39 -55 -39h-63zM246 255h207l-102 282z" />
    <glyph glyph-name="Atilde" unicode="&#xc3;" horiz-adv-x="703" 
d="M241 782q-12 -20 -33 -14l-20 6q-25 10 -16 33q16 47 39 71t64 24q32 0 79.5 -23t60.5 -23q32 0 48 29q12 21 33 14l20 -6q24 -8 16 -33q-17 -47 -39.5 -70.5t-63.5 -23.5q-32 0 -79.5 22.5t-60.5 22.5q-32 0 -48 -29zM63 0q-27 0 -37 15t-1 40l234 607q14 38 56 38h71
q41 0 56 -38l237 -607q9 -25 -1 -40t-37 -15h-65q-41 0 -56 38l-35 92h-270l-34 -91q-15 -39 -55 -39h-63zM246 255h207l-102 282z" />
    <glyph glyph-name="Adieresis" unicode="&#xc4;" horiz-adv-x="703" 
d="M231 756q-35 0 -57.5 20t-22.5 52t22.5 52.5t57.5 20.5q34 0 56.5 -20.5t22.5 -52.5q0 -31 -22.5 -51.5t-56.5 -20.5zM473 756q-35 0 -57 20t-22 52t22 52.5t57 20.5t57.5 -20.5t22.5 -52.5q0 -31 -22.5 -51.5t-57.5 -20.5zM63 0q-27 0 -37 15t-1 40l234 607q14 38 56 38
h71q41 0 56 -38l237 -607q9 -25 -1 -40t-37 -15h-65q-41 0 -56 38l-35 92h-270l-34 -91q-15 -39 -55 -39h-63zM246 255h207l-102 282z" />
    <glyph glyph-name="Aring" unicode="&#xc5;" horiz-adv-x="703" 
d="M352 745q-53 0 -88.5 29t-35.5 79q0 51 35 80.5t89 29.5t89.5 -29.5t35.5 -80.5q0 -50 -35.5 -79t-89.5 -29zM352 803q24 0 39.5 14t15.5 36t-15.5 35.5t-39.5 13.5t-39.5 -13.5t-15.5 -35.5t16 -36t39 -14zM63 0q-27 0 -37 15t-1 40l234 607q14 38 56 38h71q41 0 56 -38
l237 -607q9 -25 -1 -40t-37 -15h-65q-41 0 -56 38l-35 92h-270l-34 -91q-15 -39 -55 -39h-63zM246 255h207l-102 282z" />
    <glyph glyph-name="AE" unicode="&#xc6;" horiz-adv-x="949" 
d="M55 0q-28 0 -37.5 16t3.5 41l324 608q17 35 56 35h455q48 0 48 -48v-38q0 -48 -48 -48h-243v-163h207q49 0 49 -49v-26q0 -49 -49 -49h-207v-145h243q48 0 48 -48v-38q0 -48 -48 -48h-353q-49 0 -49 48v151h-194l-85 -164q-17 -35 -57 -35h-63zM325 328h129v238h-14z" />
    <glyph glyph-name="Ccedilla" unicode="&#xc7;" horiz-adv-x="689" 
d="M643 122q28 -40 -5 -64q-89 -63 -195 -68q40 -41 40 -93q0 -59 -45 -90t-98 -31q-44 0 -81.5 22t-58.5 62q-12 22 11 36l23 13q18 11 35 -9q25 -32 61 -32q22 0 39 15.5t17 41.5q0 36 -30 69q-147 19 -234 119.5t-87 236.5q0 151 105.5 256t278.5 105q118 0 214 -66
q39 -27 10 -67l-25 -31q-25 -34 -67 -9q-61 35 -132 35q-102 0 -163.5 -64t-61.5 -159t61.5 -159t163.5 -64q71 0 132 35q42 25 67 -9z" />
    <glyph glyph-name="Egrave" unicode="&#xc8;" horiz-adv-x="602" 
d="M258 773l-80 98q-10 13 -6 22t20 9h91q21 0 30 -18l50 -96q7 -13 1.5 -21t-19.5 -8h-57q-18 0 -30 14zM504 566h-267v-158h226q48 0 48 -48v-27q0 -49 -48 -49h-226v-150h267q48 0 48 -48v-38q0 -48 -48 -48h-377q-49 0 -49 48v604q0 48 49 48h377q48 0 48 -48v-38
q0 -48 -48 -48z" />
    <glyph glyph-name="Eacute" unicode="&#xc9;" horiz-adv-x="602" 
d="M279 759q-14 0 -19.5 8t1.5 21l50 96q9 18 30 18h91q16 0 20.5 -9t-5.5 -22l-80 -98q-12 -14 -31 -14h-57zM504 566h-267v-158h226q48 0 48 -48v-27q0 -49 -48 -49h-226v-150h267q48 0 48 -48v-38q0 -48 -48 -48h-377q-49 0 -49 48v604q0 48 49 48h377q48 0 48 -48v-38
q0 -48 -48 -48z" />
    <glyph glyph-name="Ecircumflex" unicode="&#xca;" horiz-adv-x="602" 
d="M174 759q-15 0 -19.5 8.5t4.5 21.5l69 97q12 16 31 16h106q20 0 30 -16l71 -97q9 -13 4.5 -21.5t-20.5 -8.5h-40q-20 0 -32 12l-66 65l-66 -65q-11 -12 -31 -12h-41zM504 566h-267v-158h226q48 0 48 -48v-27q0 -49 -48 -49h-226v-150h267q48 0 48 -48v-38q0 -48 -48 -48
h-377q-49 0 -49 48v604q0 48 49 48h377q48 0 48 -48v-38q0 -48 -48 -48z" />
    <glyph glyph-name="Edieresis" unicode="&#xcb;" horiz-adv-x="602" 
d="M195 756q-35 0 -57 20t-22 52t22 52.5t57 20.5q34 0 57 -20.5t23 -52.5q0 -31 -23 -51.5t-57 -20.5zM437 756q-35 0 -57 20.5t-22 51.5q0 32 22 52.5t57 20.5t57.5 -20.5t22.5 -52.5q0 -31 -22.5 -51.5t-57.5 -20.5zM504 566h-267v-158h226q48 0 48 -48v-27
q0 -49 -48 -49h-226v-150h267q48 0 48 -48v-38q0 -48 -48 -48h-377q-49 0 -49 48v604q0 48 49 48h377q48 0 48 -48v-38q0 -48 -48 -48z" />
    <glyph glyph-name="Igrave" unicode="&#xcc;" horiz-adv-x="315" 
d="M129 759q-18 0 -30 14l-80 98q-10 13 -6 22t20 9h91q21 0 30 -18l50 -96q7 -13 1.5 -21t-19.5 -8h-57zM127 0q-49 0 -49 48v604q0 48 49 48h62q48 0 48 -48v-604q0 -48 -48 -48h-62z" />
    <glyph glyph-name="Iacute" unicode="&#xcd;" horiz-adv-x="315" 
d="M116 759q-14 0 -19.5 8t1.5 21l50 96q9 18 30 18h91q16 0 20.5 -9t-5.5 -22l-80 -98q-12 -14 -31 -14h-57zM127 0q-49 0 -49 48v604q0 48 49 48h62q48 0 48 -48v-604q0 -48 -48 -48h-62z" />
    <glyph glyph-name="Icircumflex" unicode="&#xce;" horiz-adv-x="315" 
d="M20 759q-15 0 -19.5 8.5t4.5 21.5l69 97q12 16 31 16h106q20 0 30 -16l71 -97q9 -13 4.5 -21.5t-20.5 -8.5h-40q-20 0 -32 12l-66 65l-66 -65q-11 -12 -31 -12h-41zM127 0q-49 0 -49 48v604q0 48 49 48h62q48 0 48 -48v-604q0 -48 -48 -48h-62z" />
    <glyph glyph-name="Idieresis" unicode="&#xcf;" horiz-adv-x="315" 
d="M31 756q-35 0 -57 20t-22 52t22 52.5t57 20.5q34 0 57 -20.5t23 -52.5q0 -31 -23 -51.5t-57 -20.5zM273 756q-35 0 -57 20.5t-22 51.5q0 32 22 52.5t57 20.5t57.5 -20.5t22.5 -52.5q0 -31 -22.5 -51.5t-57.5 -20.5zM127 0q-49 0 -49 48v604q0 48 49 48h62q48 0 48 -48
v-604q0 -48 -48 -48h-62z" />
    <glyph glyph-name="Eth" unicode="&#xd0;" horiz-adv-x="768" 
d="M144 0q-49 0 -49 48v244h-40q-41 0 -41 41v28q0 41 41 41h40v250q0 48 49 48h231q157 0 257.5 -101.5t100.5 -248.5q0 -148 -100.5 -249t-257.5 -101h-231zM254 134h105q98 0 156 60.5t58 155.5t-58 155.5t-156 60.5h-105v-164h107q42 0 42 -41v-28q0 -41 -42 -41h-107
v-158z" />
    <glyph glyph-name="Ntilde" unicode="&#xd1;" horiz-adv-x="741" 
d="M257 782q-12 -20 -33 -14l-20 6q-25 10 -16 33q16 47 39 71t64 24q32 0 79.5 -23t60.5 -23q32 0 48 29q12 21 33 14l20 -6q24 -8 16 -33q-17 -47 -39.5 -70.5t-63.5 -23.5q-32 0 -79.5 22.5t-60.5 22.5q-32 0 -48 -29zM127 0q-49 0 -49 48v604q0 48 49 48h36q38 0 59 -30
l281 -386v368q0 48 49 48h62q48 0 48 -48v-604q0 -48 -48 -48h-36q-38 0 -58 30l-283 390v-372q0 -48 -48 -48h-62z" />
    <glyph glyph-name="Ograve" unicode="&#xd2;" horiz-adv-x="813" 
d="M363 759q-18 0 -30 14l-80 98q-10 13 -6 22t20 9h91q21 0 30 -18l50 -96q7 -13 1.5 -21t-19.5 -8h-57zM406 -11q-161 0 -266 105t-105 256t105 256t266 105t266 -105t105 -256t-105 -256t-266 -105zM406 127q92 0 152 64.5t60 158.5t-60 158.5t-152 64.5t-151.5 -64.5
t-59.5 -158.5t59.5 -158.5t151.5 -64.5z" />
    <glyph glyph-name="Oacute" unicode="&#xd3;" horiz-adv-x="813" 
d="M373 759q-14 0 -19.5 8t1.5 21l50 96q9 18 30 18h91q16 0 20.5 -9t-5.5 -22l-80 -98q-12 -14 -31 -14h-57zM406 -11q-161 0 -266 105t-105 256t105 256t266 105t266 -105t105 -256t-105 -256t-266 -105zM406 127q92 0 152 64.5t60 158.5t-60 158.5t-152 64.5
t-151.5 -64.5t-59.5 -158.5t59.5 -158.5t151.5 -64.5z" />
    <glyph glyph-name="Ocircumflex" unicode="&#xd4;" horiz-adv-x="813" 
d="M268 759q-15 0 -19.5 8.5t4.5 21.5l69 97q12 16 31 16h106q20 0 30 -16l71 -97q9 -13 4.5 -21.5t-20.5 -8.5h-40q-20 0 -32 12l-66 65l-66 -65q-11 -12 -31 -12h-41zM406 -11q-161 0 -266 105t-105 256t105 256t266 105t266 -105t105 -256t-105 -256t-266 -105zM406 127
q92 0 152 64.5t60 158.5t-60 158.5t-152 64.5t-151.5 -64.5t-59.5 -158.5t59.5 -158.5t151.5 -64.5z" />
    <glyph glyph-name="Otilde" unicode="&#xd5;" horiz-adv-x="813" 
d="M296 782q-12 -20 -33 -14l-20 6q-25 10 -16 33q16 47 39 71t64 24q32 0 79.5 -23t60.5 -23q32 0 48 29q12 21 33 14l20 -6q24 -8 16 -33q-17 -47 -39.5 -70.5t-63.5 -23.5q-32 0 -79.5 22.5t-60.5 22.5q-32 0 -48 -29zM406 -11q-161 0 -266 105t-105 256t105 256t266 105
t266 -105t105 -256t-105 -256t-266 -105zM406 127q92 0 152 64.5t60 158.5t-60 158.5t-152 64.5t-151.5 -64.5t-59.5 -158.5t59.5 -158.5t151.5 -64.5z" />
    <glyph glyph-name="Odieresis" unicode="&#xd6;" horiz-adv-x="813" 
d="M285 756q-35 0 -57 20t-22 52t22 52.5t57 20.5q34 0 57 -20.5t23 -52.5q0 -31 -23 -51.5t-57 -20.5zM527 756q-35 0 -57 20.5t-22 51.5q0 32 22 52.5t57 20.5t57.5 -20.5t22.5 -52.5q0 -31 -22.5 -51.5t-57.5 -20.5zM406 -11q-161 0 -266 105t-105 256t105 256t266 105
t266 -105t105 -256t-105 -256t-266 -105zM406 127q92 0 152 64.5t60 158.5t-60 158.5t-152 64.5t-151.5 -64.5t-59.5 -158.5t59.5 -158.5t151.5 -64.5z" />
    <glyph glyph-name="multiply" unicode="&#xd7;" horiz-adv-x="554" 
d="M148 93q-18 -18 -36 0l-52 53q-18 18 0 35l127 125l-124 126q-19 18 0 35l59 59q18 19 35 0l124 -124l126 125q17 19 35 0l52 -52q19 -18 0 -35l-126 -126l125 -124q17 -18 0 -35l-59 -59q-17 -19 -36 0l-125 124z" />
    <glyph glyph-name="Oslash" unicode="&#xd8;" horiz-adv-x="813" 
d="M209 -27q-14 -22 -36 -7l-28 20q-22 14 -7 35l32 47q-64 50 -99.5 123.5t-35.5 158.5q0 151 105 256t266 105q95 0 171 -39l34 50q14 22 35 7l29 -20q20 -15 6 -35l-32 -48q61 -50 94.5 -122t33.5 -154q0 -151 -105 -256t-266 -105q-89 0 -163 34zM254 192l242 360
q-44 21 -90 21q-92 0 -151.5 -64.5t-59.5 -158.5t59 -158zM406 127q92 0 152 64.5t60 158.5q0 87 -53 150l-241 -357q38 -16 82 -16z" />
    <glyph glyph-name="Ugrave" unicode="&#xd9;" horiz-adv-x="719" 
d="M328 759q-18 0 -30 14l-80 98q-10 13 -6 22t20 9h91q21 0 30 -18l50 -96q7 -13 1.5 -21t-19.5 -8h-57zM359 -11q-124 0 -207 73t-83 203v387q0 48 49 48h62q48 0 48 -48v-387q0 -65 37.5 -101.5t93.5 -36.5t94 36.5t38 101.5v387q0 48 49 48h62q48 0 48 -48v-387
q0 -130 -83.5 -203t-207.5 -73z" />
    <glyph glyph-name="Uacute" unicode="&#xda;" horiz-adv-x="719" 
d="M321 759q-14 0 -19.5 8t1.5 21l50 96q9 18 30 18h91q16 0 20.5 -9t-5.5 -22l-80 -98q-12 -14 -31 -14h-57zM359 -11q-124 0 -207 73t-83 203v387q0 48 49 48h62q48 0 48 -48v-387q0 -65 37.5 -101.5t93.5 -36.5t94 36.5t38 101.5v387q0 48 49 48h62q48 0 48 -48v-387
q0 -130 -83.5 -203t-207.5 -73z" />
    <glyph glyph-name="Ucircumflex" unicode="&#xdb;" horiz-adv-x="719" 
d="M221 759q-15 0 -19.5 8.5t4.5 21.5l69 97q12 16 31 16h106q20 0 30 -16l71 -97q9 -13 4.5 -21.5t-20.5 -8.5h-40q-20 0 -32 12l-66 65l-66 -65q-11 -12 -31 -12h-41zM359 -11q-124 0 -207 73t-83 203v387q0 48 49 48h62q48 0 48 -48v-387q0 -65 37.5 -101.5t93.5 -36.5
t94 36.5t38 101.5v387q0 48 49 48h62q48 0 48 -48v-387q0 -130 -83.5 -203t-207.5 -73z" />
    <glyph glyph-name="Udieresis" unicode="&#xdc;" horiz-adv-x="719" 
d="M239 756q-35 0 -57 20t-22 52t22 52.5t57 20.5q34 0 57 -20.5t23 -52.5q0 -31 -23 -51.5t-57 -20.5zM481 756q-35 0 -57 20.5t-22 51.5q0 32 22 52.5t57 20.5t57.5 -20.5t22.5 -52.5q0 -31 -22.5 -51.5t-57.5 -20.5zM359 -11q-124 0 -207 73t-83 203v387q0 48 49 48h62
q48 0 48 -48v-387q0 -65 37.5 -101.5t93.5 -36.5t94 36.5t38 101.5v387q0 48 49 48h62q48 0 48 -48v-387q0 -130 -83.5 -203t-207.5 -73z" />
    <glyph glyph-name="Yacute" unicode="&#xdd;" horiz-adv-x="727" 
d="M328 759q-14 0 -19.5 8t1.5 21l50 96q9 18 30 18h91q16 0 20.5 -9t-5.5 -22l-80 -98q-12 -14 -31 -14h-57zM333 0q-48 0 -48 48v237l-243 357q-17 24 -7.5 41t38.5 17h79q39 0 58 -32l154 -249l154 249q20 32 58 32h79q29 0 38.5 -17t-7.5 -41l-243 -355v-239
q0 -48 -48 -48h-62z" />
    <glyph glyph-name="Thorn" unicode="&#xde;" horiz-adv-x="634" 
d="M127 0q-49 0 -49 48v604q0 48 49 48h62q48 0 48 -48v-101h188q80 0 133 -60t53 -141t-53 -140.5t-137 -59.5h-184v-102q0 -48 -48 -48h-62zM237 276h141q35 0 54 22t19 52q0 32 -17.5 53.5t-55.5 21.5h-141v-149z" />
    <glyph glyph-name="germandbls" unicode="&#xdf;" horiz-adv-x="625" 
d="M107 0q-45 0 -45 46v461q0 108 65.5 166.5t175.5 58.5q108 0 172.5 -52t64.5 -137q0 -111 -114 -145q74 -8 122.5 -62.5t48.5 -122.5q0 -95 -67 -159.5t-178 -64.5h-20q-43 0 -49 42l-6 35q-4 23 5 36t29 13h23q46 0 76.5 32t30.5 77q0 48 -34.5 79t-94.5 38
q-31 3 -36 29l-3 17q-6 29 27 38q45 10 66 36.5t21 58.5q0 45 -24.5 66t-59.5 21q-86 0 -86 -107v-454q0 -46 -46 -46h-64z" />
    <glyph glyph-name="agrave" unicode="&#xe0;" horiz-adv-x="660" 
d="M316 578q-18 0 -31 14l-98 118q-10 13 -6 22t20 9h99q21 0 30 -18l61 -115q7 -14 2 -22t-20 -8h-57zM278 -11q-107 0 -177 76.5t-70 191.5q0 114 70 191t177 77q111 0 165 -84v25q0 48 48 48h59q48 0 48 -48v-418q0 -48 -48 -48h-59q-48 0 -48 48v24q-54 -83 -165 -83z
M314 113q58 0 94.5 41t36.5 103t-36.5 103t-94.5 41q-59 0 -93.5 -41.5t-34.5 -102.5q0 -62 34.5 -103t93.5 -41z" />
    <glyph glyph-name="aacute" unicode="&#xe1;" horiz-adv-x="660" 
d="M283 578q-15 0 -20 8t2 22l61 115q9 18 30 18h99q16 0 20 -9t-6 -22l-98 -118q-11 -14 -31 -14h-57zM278 -11q-107 0 -177 76.5t-70 191.5q0 114 70 191t177 77q111 0 165 -84v25q0 48 48 48h59q48 0 48 -48v-418q0 -48 -48 -48h-59q-48 0 -48 48v24q-54 -83 -165 -83z
M314 113q58 0 94.5 41t36.5 103t-36.5 103t-94.5 41q-59 0 -93.5 -41.5t-34.5 -102.5q0 -62 34.5 -103t93.5 -41z" />
    <glyph glyph-name="acircumflex" unicode="&#xe2;" horiz-adv-x="660" 
d="M171 578q-15 0 -20 8.5t3 21.5l75 116q11 17 30 17h110q19 0 30 -17l76 -116q8 -13 3 -21.5t-20 -8.5h-45q-20 0 -31 14l-67 77l-67 -77q-13 -14 -31 -14h-46zM278 -11q-107 0 -177 76.5t-70 191.5q0 114 70 191t177 77q111 0 165 -84v25q0 48 48 48h59q48 0 48 -48v-418
q0 -48 -48 -48h-59q-48 0 -48 48v24q-54 -83 -165 -83zM314 113q58 0 94.5 41t36.5 103t-36.5 103t-94.5 41q-59 0 -93.5 -41.5t-34.5 -102.5q0 -62 34.5 -103t93.5 -41z" />
    <glyph glyph-name="atilde" unicode="&#xe3;" horiz-adv-x="660" 
d="M203 606q-10 -22 -33 -14l-20 6q-24 9 -16 33q16 50 39 75.5t65 25.5q32 0 79.5 -24t60.5 -24q32 0 48 31q10 20 33 14l20 -7q24 -9 16 -32q-17 -51 -40 -76t-64 -25q-32 0 -79.5 23.5t-60.5 23.5q-31 0 -48 -30zM278 -11q-107 0 -177 76.5t-70 191.5q0 114 70 191
t177 77q111 0 165 -84v25q0 48 48 48h59q48 0 48 -48v-418q0 -48 -48 -48h-59q-48 0 -48 48v24q-54 -83 -165 -83zM314 113q58 0 94.5 41t36.5 103t-36.5 103t-94.5 41q-59 0 -93.5 -41.5t-34.5 -102.5q0 -62 34.5 -103t93.5 -41z" />
    <glyph glyph-name="adieresis" unicode="&#xe4;" horiz-adv-x="660" 
d="M193 585q-35 0 -58.5 21t-23.5 53t23.5 53.5t58.5 21.5q34 0 58 -21.5t24 -53.5t-24 -53t-58 -21zM435 585q-35 0 -58.5 21t-23.5 53t23.5 53.5t58.5 21.5t59 -21.5t24 -53.5t-24 -53t-59 -21zM278 -11q-107 0 -177 76.5t-70 191.5q0 114 70 191t177 77q111 0 165 -84v25
q0 48 48 48h59q48 0 48 -48v-418q0 -48 -48 -48h-59q-48 0 -48 48v24q-54 -83 -165 -83zM314 113q58 0 94.5 41t36.5 103t-36.5 103t-94.5 41q-59 0 -93.5 -41.5t-34.5 -102.5q0 -62 34.5 -103t93.5 -41z" />
    <glyph glyph-name="aring" unicode="&#xe5;" horiz-adv-x="660" 
d="M314 578q-52 0 -88 31.5t-36 81.5q0 51 36 83t88 32q54 0 90 -32t36 -83q0 -50 -36 -81.5t-90 -31.5zM314 639q24 0 39.5 15t15.5 37t-15.5 36.5t-39.5 14.5q-23 0 -39 -14.5t-16 -36.5t16 -37t39 -15zM278 -11q-107 0 -177 76.5t-70 191.5q0 114 70 191t177 77
q111 0 165 -84v25q0 48 48 48h59q48 0 48 -48v-418q0 -48 -48 -48h-59q-48 0 -48 48v24q-54 -83 -165 -83zM314 113q58 0 94.5 41t36.5 103t-36.5 103t-94.5 41q-59 0 -93.5 -41.5t-34.5 -102.5q0 -62 34.5 -103t93.5 -41z" />
    <glyph glyph-name="ae" unicode="&#xe6;" horiz-adv-x="962" 
d="M228 -11q-86 0 -144.5 45.5t-58.5 122.5q0 76 59.5 119t153.5 43q92 0 154 -31v18q0 47 -32.5 73t-87.5 26q-60 0 -116 -26q-45 -20 -65 20l-6 13q-21 43 16 65q80 48 192 48q124 0 183 -77q75 77 195 77q109 0 184.5 -66.5t80.5 -178.5q2 -49 -49 -49h-350
q-1 -48 43 -84t115 -36q54 0 108 30q43 24 67 -9l12 -14q30 -40 -7 -68q-76 -61 -190 -61q-152 0 -233 102q-35 -52 -96 -77t-128 -25zM543 317h251q-10 48 -43.5 69.5t-77.5 21.5q-45 0 -81.5 -22t-48.5 -69zM275 97q36 0 73 18t60 50q-9 28 -10 48q-56 22 -125 22
q-43 0 -67.5 -19.5t-24.5 -49.5q0 -28 24 -48.5t70 -20.5z" />
    <glyph glyph-name="ccedilla" unicode="&#xe7;" horiz-adv-x="547" 
d="M256 -224q-45 0 -82.5 22.5t-58.5 63.5q-11 21 12 34l22 13q20 11 35 -9q27 -32 62 -32q22 0 39 15.5t17 41.5q0 36 -29 68q-110 16 -176.5 88.5t-66.5 172.5q0 115 81.5 193t214.5 78q89 0 163 -43q41 -26 9 -68l-16 -20q-25 -31 -68 -12q-37 18 -79 18
q-65 0 -107.5 -40t-42.5 -103t42.5 -103t107.5 -40q42 0 79 18q44 20 68 -12l16 -20q15 -18 10.5 -38.5t-28.5 -33.5q-53 -30 -122 -37q41 -42 41 -94q0 -59 -45 -90t-98 -31z" />
    <glyph glyph-name="egrave" unicode="&#xe8;" horiz-adv-x="611" 
d="M281 578q-18 0 -31 14l-98 118q-10 13 -6 22t20 9h99q21 0 30 -18l61 -115q7 -14 2 -22t-20 -8h-57zM326 -11q-134 0 -215 76t-81 190q0 112 78 191t204 79q114 0 191 -66.5t82 -185.5q1 -21 -12.5 -31.5t-36.5 -10.5h-358q-2 -48 42.5 -84t115.5 -36q59 0 114 31
q41 23 68 -10l11 -14q33 -40 -9 -71q-80 -58 -194 -58zM182 317h258q-10 48 -45.5 69.5t-80.5 21.5q-46 0 -83 -22t-49 -69z" />
    <glyph glyph-name="eacute" unicode="&#xe9;" horiz-adv-x="611" 
d="M282 578q-15 0 -20 8t2 22l61 115q9 18 30 18h99q16 0 20 -9t-6 -22l-98 -118q-11 -14 -31 -14h-57zM326 -11q-134 0 -215 76t-81 190q0 112 78 191t204 79q114 0 191 -66.5t82 -185.5q1 -21 -12.5 -31.5t-36.5 -10.5h-358q-2 -48 42.5 -84t115.5 -36q59 0 114 31
q41 23 68 -10l11 -14q33 -40 -9 -71q-80 -58 -194 -58zM182 317h258q-10 48 -45.5 69.5t-80.5 21.5q-46 0 -83 -22t-49 -69z" />
    <glyph glyph-name="ecircumflex" unicode="&#xea;" horiz-adv-x="611" 
d="M164 578q-15 0 -20 8.5t3 21.5l75 116q11 17 30 17h110q19 0 30 -17l76 -116q8 -13 3 -21.5t-20 -8.5h-45q-20 0 -31 14l-67 77l-67 -77q-13 -14 -31 -14h-46zM326 -11q-134 0 -215 76t-81 190q0 112 78 191t204 79q114 0 191 -66.5t82 -185.5q1 -21 -12.5 -31.5
t-36.5 -10.5h-358q-2 -48 42.5 -84t115.5 -36q59 0 114 31q41 23 68 -10l11 -14q33 -40 -9 -71q-80 -58 -194 -58zM182 317h258q-10 48 -45.5 69.5t-80.5 21.5q-46 0 -83 -22t-49 -69z" />
    <glyph glyph-name="edieresis" unicode="&#xeb;" horiz-adv-x="611" 
d="M186 585q-35 0 -58.5 21t-23.5 53t23.5 53.5t58.5 21.5q34 0 58 -21.5t24 -53.5t-24 -53t-58 -21zM428 585q-35 0 -58.5 21t-23.5 53t23.5 53.5t58.5 21.5t59 -21.5t24 -53.5t-24 -53t-59 -21zM326 -11q-134 0 -215 76t-81 190q0 112 78 191t204 79q114 0 191 -66.5
t82 -185.5q1 -21 -12.5 -31.5t-36.5 -10.5h-358q-2 -48 42.5 -84t115.5 -36q59 0 114 31q41 23 68 -10l11 -14q33 -40 -9 -71q-80 -58 -194 -58zM182 317h258q-10 48 -45.5 69.5t-80.5 21.5q-46 0 -83 -22t-49 -69z" />
    <glyph glyph-name="igrave" unicode="&#xec;" horiz-adv-x="282" 
d="M129 578q-20 0 -31 14l-98 118q-10 13 -6 22t20 9h99q21 0 30 -18l61 -115q7 -14 2 -22t-20 -8h-57zM112 0q-48 0 -48 48v418q0 48 48 48h58q49 0 49 -48v-418q0 -48 -49 -48h-58z" />
    <glyph glyph-name="iacute" unicode="&#xed;" horiz-adv-x="282" 
d="M96 578q-15 0 -20 8t2 22l61 115q9 18 30 18h99q16 0 20.5 -9t-6.5 -22l-98 -118q-11 -14 -31 -14h-57zM112 0q-48 0 -48 48v418q0 48 48 48h58q49 0 49 -48v-418q0 -48 -49 -48h-58z" />
    <glyph glyph-name="icircumflex" unicode="&#xee;" horiz-adv-x="282" 
d="M-4 578q-16 0 -20.5 8.5t3.5 21.5l75 116q11 17 30 17h110q19 0 30 -17l76 -116q8 -13 3 -21.5t-20 -8.5h-46q-20 0 -31 14l-67 77l-67 -77q-11 -14 -31 -14h-45zM112 0q-48 0 -48 48v418q0 48 48 48h58q49 0 49 -48v-418q0 -48 -49 -48h-58z" />
    <glyph glyph-name="idieresis" unicode="&#xef;" horiz-adv-x="282" 
d="M19 585q-36 0 -59.5 21t-23.5 53t23.5 53.5t59.5 21.5q34 0 58 -21.5t24 -53.5t-24 -53t-58 -21zM260 585q-35 0 -58 21t-23 53t23 53.5t58 21.5t59 -21.5t24 -53.5t-24 -53t-59 -21zM112 0q-48 0 -48 48v418q0 48 48 48h58q49 0 49 -48v-418q0 -48 -49 -48h-58z" />
    <glyph glyph-name="eth" unicode="&#xf0;" horiz-adv-x="595" 
d="M300 -11q-115 0 -193 69t-78 176q0 70 39 124.5t92 79.5t106 25q60 0 88 -24q-30 56 -91 108l-84 -37q-27 -12 -41 12l-7 16q-11 23 19 37l56 25q-4 4 -34 29q-19 17 -18 35t23 32l33 23q34 24 67 -3q21 -18 63 -58l81 36q26 12 40 -10l10 -17q12 -24 -18 -38l-59 -26
q169 -189 169 -357q0 -117 -77.5 -187t-185.5 -70zM297 117q55 0 84.5 34t29.5 91q0 53 -29.5 86.5t-82.5 33.5q-54 0 -85.5 -34t-31.5 -88t31.5 -88.5t83.5 -34.5z" />
    <glyph glyph-name="ntilde" unicode="&#xf1;" horiz-adv-x="616" 
d="M200 606q-10 -22 -33 -14l-20 6q-24 9 -16 33q16 50 39 75.5t65 25.5q32 0 79.5 -24t60.5 -24q32 0 48 31q10 20 33 14l20 -7q24 -9 16 -32q-17 -51 -40 -76t-64 -25q-32 0 -79.5 23.5t-60.5 23.5q-31 0 -48 -30zM110 0q-48 0 -48 48v418q0 48 48 48h59q48 0 48 -48v-34
q39 93 156 93q97 0 142.5 -64.5t45.5 -164.5v-248q0 -48 -49 -48h-58q-48 0 -48 48v237q0 54 -21 84t-60 30q-44 0 -76 -35t-32 -102v-214q0 -48 -48 -48h-59z" />
    <glyph glyph-name="ograve" unicode="&#xf2;" horiz-adv-x="628" 
d="M272 578q-18 0 -31 14l-98 118q-10 13 -6 22t20 9h99q21 0 30 -18l61 -115q7 -14 2 -22t-20 -8h-57zM314 -11q-121 0 -203 78t-82 190t82 190t203 78t203 -78t82 -190t-82 -190t-203 -78zM314 114q58 0 98 41t40 101q0 61 -40 102t-98 41q-59 0 -98.5 -41t-39.5 -102
q0 -60 40 -101t98 -41z" />
    <glyph glyph-name="oacute" unicode="&#xf3;" horiz-adv-x="628" 
d="M286 578q-15 0 -20 8t2 22l61 115q9 18 30 18h99q16 0 20 -9t-6 -22l-98 -118q-11 -14 -31 -14h-57zM314 -11q-121 0 -203 78t-82 190t82 190t203 78t203 -78t82 -190t-82 -190t-203 -78zM314 114q58 0 98 41t40 101q0 61 -40 102t-98 41q-59 0 -98.5 -41t-39.5 -102
q0 -60 40 -101t98 -41z" />
    <glyph glyph-name="ocircumflex" unicode="&#xf4;" horiz-adv-x="628" 
d="M170 578q-15 0 -20 8.5t3 21.5l75 116q11 17 30 17h110q19 0 30 -17l76 -116q8 -13 3 -21.5t-20 -8.5h-45q-20 0 -31 14l-67 77l-67 -77q-13 -14 -31 -14h-46zM314 -11q-121 0 -203 78t-82 190t82 190t203 78t203 -78t82 -190t-82 -190t-203 -78zM314 114q58 0 98 41
t40 101q0 61 -40 102t-98 41q-59 0 -98.5 -41t-39.5 -102q0 -60 40 -101t98 -41z" />
    <glyph glyph-name="otilde" unicode="&#xf5;" horiz-adv-x="628" 
d="M202 606q-10 -22 -33 -14l-20 6q-24 9 -16 33q16 50 39 75.5t65 25.5q32 0 79.5 -24t60.5 -24q32 0 48 31q10 20 33 14l20 -7q24 -9 16 -32q-17 -51 -40 -76t-64 -25q-32 0 -79.5 23.5t-60.5 23.5q-31 0 -48 -30zM314 -11q-121 0 -203 78t-82 190t82 190t203 78t203 -78
t82 -190t-82 -190t-203 -78zM314 114q58 0 98 41t40 101q0 61 -40 102t-98 41q-59 0 -98.5 -41t-39.5 -102q0 -60 40 -101t98 -41z" />
    <glyph glyph-name="odieresis" unicode="&#xf6;" horiz-adv-x="628" 
d="M193 585q-35 0 -58.5 21t-23.5 53t23.5 53.5t58.5 21.5q34 0 58 -21.5t24 -53.5t-24 -53t-58 -21zM435 585q-35 0 -58.5 21t-23.5 53t23.5 53.5t58.5 21.5t59 -21.5t24 -53.5t-24 -53t-59 -21zM314 -11q-121 0 -203 78t-82 190t82 190t203 78t203 -78t82 -190t-82 -190
t-203 -78zM314 114q58 0 98 41t40 101q0 61 -40 102t-98 41q-59 0 -98.5 -41t-39.5 -102q0 -60 40 -101t98 -41z" />
    <glyph glyph-name="divide" unicode="&#xf7;" horiz-adv-x="609" 
d="M304 427q-42 0 -68.5 21.5t-26.5 57.5q0 38 26.5 60t68.5 22t69 -22.5t27 -59.5q0 -36 -27 -57.5t-69 -21.5zM69 237q-26 0 -26 25v86q0 25 26 25h471q26 0 26 -25v-86q0 -25 -26 -25h-471zM304 24q-42 0 -68.5 21.5t-26.5 57.5q0 38 26.5 60t68.5 22t69 -22.5t27 -59.5
q0 -36 -27 -57.5t-69 -21.5z" />
    <glyph glyph-name="oslash" unicode="&#xf8;" horiz-adv-x="628" 
d="M124 -12q-17 -19 -36 -2l-18 18q-18 16 -2 35l33 37q-71 76 -71 181q0 112 81.5 190t202.5 78q81 0 150 -40l39 44q18 19 35 2l19 -17q18 -17 1 -36l-34 -39q75 -77 75 -182q0 -112 -81.5 -190t-203.5 -78q-84 0 -153 41zM196 183l178 201q-27 15 -60 15q-58 0 -97.5 -41
t-39.5 -102q0 -38 19 -73zM314 114q58 0 98 41t40 101q0 42 -21 78l-180 -203q31 -17 63 -17z" />
    <glyph glyph-name="ugrave" unicode="&#xf9;" horiz-adv-x="616" 
d="M283 578q-18 0 -31 14l-98 118q-10 13 -6 22t20 9h99q21 0 30 -18l61 -115q7 -14 2 -22t-20 -8h-57zM242 -11q-96 0 -141.5 64.5t-45.5 164.5v248q0 48 48 48h59q48 0 48 -48v-237q0 -55 21 -85t60 -30q43 0 75.5 35.5t32.5 102.5v214q0 48 48 48h58q49 0 49 -48v-418
q0 -48 -49 -48h-58q-48 0 -48 48v33q-41 -92 -157 -92z" />
    <glyph glyph-name="uacute" unicode="&#xfa;" horiz-adv-x="616" 
d="M260 578q-15 0 -20 8t2 22l61 115q9 18 30 18h99q16 0 20 -9t-6 -22l-98 -118q-11 -14 -31 -14h-57zM242 -11q-96 0 -141.5 64.5t-45.5 164.5v248q0 48 48 48h59q48 0 48 -48v-237q0 -55 21 -85t60 -30q43 0 75.5 35.5t32.5 102.5v214q0 48 48 48h58q49 0 49 -48v-418
q0 -48 -49 -48h-58q-48 0 -48 48v33q-41 -92 -157 -92z" />
    <glyph glyph-name="ucircumflex" unicode="&#xfb;" horiz-adv-x="616" 
d="M161 578q-15 0 -20 8.5t3 21.5l75 116q11 17 30 17h110q19 0 30 -17l76 -116q8 -13 3 -21.5t-20 -8.5h-45q-20 0 -31 14l-67 77l-67 -77q-13 -14 -31 -14h-46zM242 -11q-96 0 -141.5 64.5t-45.5 164.5v248q0 48 48 48h59q48 0 48 -48v-237q0 -55 21 -85t60 -30
q43 0 75.5 35.5t32.5 102.5v214q0 48 48 48h58q49 0 49 -48v-418q0 -48 -49 -48h-58q-48 0 -48 48v33q-41 -92 -157 -92z" />
    <glyph glyph-name="udieresis" unicode="&#xfc;" horiz-adv-x="616" 
d="M185 585q-35 0 -58.5 21t-23.5 53t23.5 53.5t58.5 21.5q34 0 58 -21.5t24 -53.5t-24 -53t-58 -21zM427 585q-35 0 -58.5 21t-23.5 53t23.5 53.5t58.5 21.5t59 -21.5t24 -53.5t-24 -53t-59 -21zM242 -11q-96 0 -141.5 64.5t-45.5 164.5v248q0 48 48 48h59q48 0 48 -48
v-237q0 -55 21 -85t60 -30q43 0 75.5 35.5t32.5 102.5v214q0 48 48 48h58q49 0 49 -48v-418q0 -48 -49 -48h-58q-48 0 -48 48v33q-41 -92 -157 -92z" />
    <glyph glyph-name="yacute" unicode="&#xfd;" horiz-adv-x="592" 
d="M265 578q-15 0 -20 8t2 22l61 115q9 18 30 18h99q16 0 20 -9t-6 -22l-98 -118q-11 -14 -31 -14h-57zM175 -224q-27 0 -37.5 15.5t0.5 40.5l84 203l-190 422q-11 25 -0.5 41t37.5 16h68q43 0 56 -39l105 -279l106 279q14 39 56 39h65q27 0 37 -16t0 -41l-281 -644
q-16 -37 -56 -37h-50z" />
    <glyph glyph-name="thorn" unicode="&#xfe;" horiz-adv-x="660" 
d="M110 -224q-48 0 -48 48v851q0 48 48 48h59q48 0 48 -48v-234q54 84 165 84q107 0 177 -77t70 -191q0 -115 -70 -191.5t-177 -76.5q-111 0 -165 83v-248q0 -48 -48 -48h-59zM346 113q59 0 93.5 41t34.5 103q0 61 -34.5 102.5t-93.5 41.5q-58 0 -94.5 -41t-36.5 -103
t36.5 -103t94.5 -41z" />
    <glyph glyph-name="ydieresis" unicode="&#xff;" horiz-adv-x="592" 
d="M175 585q-35 0 -58.5 21t-23.5 53t23.5 53.5t58.5 21.5q34 0 58 -21.5t24 -53.5t-24 -53t-58 -21zM417 585q-35 0 -58.5 21t-23.5 53t23.5 53.5t58.5 21.5t59 -21.5t24 -53.5t-24 -53t-59 -21zM175 -224q-27 0 -37.5 15.5t0.5 40.5l84 203l-190 422q-11 25 -0.5 41
t37.5 16h68q43 0 56 -39l105 -279l106 279q14 39 56 39h65q27 0 37 -16t0 -41l-281 -644q-16 -37 -56 -37h-50z" />
    <glyph glyph-name="Amacron" unicode="&#x100;" horiz-adv-x="703" 
d="M222 775q-26 0 -26 25v48q0 25 26 25h261q25 0 25 -25v-48q0 -25 -25 -25h-261zM63 0q-27 0 -37 15t-1 40l234 607q14 38 56 38h71q41 0 56 -38l237 -607q9 -25 -1 -40t-37 -15h-65q-41 0 -56 38l-35 92h-270l-34 -91q-15 -39 -55 -39h-63zM246 255h207l-102 282z" />
    <glyph glyph-name="amacron" unicode="&#x101;" horiz-adv-x="660" 
d="M184 609q-25 0 -25 26v48q0 25 25 25h261q26 0 26 -25v-48q0 -26 -26 -26h-261zM278 -11q-107 0 -177 76.5t-70 191.5q0 114 70 191t177 77q111 0 165 -84v25q0 48 48 48h59q48 0 48 -48v-418q0 -48 -48 -48h-59q-48 0 -48 48v24q-54 -83 -165 -83zM314 113q58 0 94.5 41
t36.5 103t-36.5 103t-94.5 41q-59 0 -93.5 -41.5t-34.5 -102.5q0 -62 34.5 -103t93.5 -41z" />
    <glyph glyph-name="Abreve" unicode="&#x102;" horiz-adv-x="703" 
d="M353 754q-51 0 -97 28.5t-61 91.5q-6 26 22 29l38 5q21 3 30 -21q16 -49 68 -49q51 0 69 49q8 24 29 21l38 -4q13 -2 18 -13.5t-1 -31.5q-18 -55 -62 -80t-91 -25zM53 0q-22 0 -30.5 12.5t-0.5 33.5l239 622q12 32 47 32h84q35 0 47 -32l243 -622q8 -20 -0.5 -33
t-30.5 -13h-81q-36 0 -46 33l-34 97h-278l-34 -97q-10 -33 -46 -33h-79zM254 255h195l-98 279z" />
    <glyph glyph-name="abreve" unicode="&#x103;" horiz-adv-x="660" 
d="M316 578q-32 0 -62.5 10t-59 40t-38.5 77q-6 26 21 29l40 5q21 3 29 -22q14 -49 70 -49t70 49q8 25 29 22l40 -5q29 -4 17 -46q-18 -58 -63 -84t-93 -26zM278 -11q-107 0 -177 76.5t-70 191.5q0 114 70 191t177 77q111 0 165 -84v25q0 48 48 48h59q48 0 48 -48v-418
q0 -48 -48 -48h-59q-48 0 -48 48v24q-54 -83 -165 -83zM314 113q58 0 94.5 41t36.5 103t-36.5 103t-94.5 41q-59 0 -93.5 -41.5t-34.5 -102.5q0 -62 34.5 -103t93.5 -41z" />
    <glyph glyph-name="Aogonek" unicode="&#x104;" horiz-adv-x="701" 
d="M610 -224q-53 0 -98 31t-45 89q0 31 17.5 63t48.5 48l-48 123h-270l-34 -91q-15 -39 -55 -39h-63q-27 0 -37 15t-1 40l234 607q14 38 56 38h71q41 0 56 -38l237 -607q16 -42 -34 -55q-81 -18 -81 -74q0 -26 17 -42t39 -16q30 0 53 24q28 25 50 13l10 -6q30 -20 10 -50
q-46 -73 -133 -73zM246 255h207l-102 282z" />
    <glyph glyph-name="aogonek" unicode="&#x105;" horiz-adv-x="660" 
d="M661 -104q23 -14 11 -36q-21 -40 -58.5 -62t-81.5 -22q-53 0 -98 30.5t-45 90.5q0 63 54 106v69q-54 -83 -165 -83q-107 0 -177 76.5t-70 191.5q0 114 70 191t177 77q111 0 165 -84v25q0 48 48 48h59q48 0 48 -48v-418q0 -48 -48 -48h-27q-37 -33 -37 -75q0 -26 17 -41.5
t39 -15.5q36 0 61 32q17 20 35 9zM314 113q58 0 94.5 41t36.5 103t-36.5 103t-94.5 41q-59 0 -93.5 -41.5t-34.5 -102.5q0 -62 34.5 -103t93.5 -41z" />
    <glyph glyph-name="Cacute" unicode="&#x106;" horiz-adv-x="689" 
d="M375 759q-14 0 -19.5 8t1.5 21l50 96q9 18 30 18h91q16 0 20.5 -9t-5.5 -22l-80 -98q-12 -14 -31 -14h-57zM419 -11q-173 0 -278.5 105t-105.5 256t105.5 256t278.5 105q118 0 214 -66q39 -27 10 -67l-25 -31q-25 -34 -67 -9q-61 35 -132 35q-102 0 -163.5 -64
t-61.5 -159t61.5 -159t163.5 -64q71 0 132 35q42 25 67 -9l25 -31q28 -40 -5 -64q-97 -69 -219 -69z" />
    <glyph glyph-name="cacute" unicode="&#x107;" horiz-adv-x="547" 
d="M285 578q-15 0 -20 8t2 22l61 115q9 18 30 18h99q16 0 20 -9t-6 -22l-98 -118q-11 -14 -31 -14h-57zM326 -11q-132 0 -214 76t-82 189q0 115 81.5 193t214.5 78q89 0 163 -43q41 -26 9 -68l-16 -20q-25 -31 -68 -12q-37 18 -79 18q-65 0 -107.5 -40t-42.5 -103t42.5 -103
t107.5 -40q42 0 79 18q44 20 68 -12l16 -20q15 -18 10.5 -38.5t-28.5 -33.5q-69 -39 -154 -39z" />
    <glyph glyph-name="Ccircumflex" unicode="&#x108;" horiz-adv-x="689" 
d="M247 759q-15 0 -19.5 8.5t4.5 21.5l69 97q12 16 31 16h106q20 0 30 -16l71 -97q9 -13 4.5 -21.5t-20.5 -8.5h-40q-20 0 -32 12l-66 65l-66 -65q-11 -12 -31 -12h-41zM419 -11q-173 0 -278.5 105t-105.5 256t105.5 256t278.5 105q118 0 214 -66q39 -27 10 -67l-25 -31
q-25 -34 -67 -9q-61 35 -132 35q-102 0 -163.5 -64t-61.5 -159t61.5 -159t163.5 -64q71 0 132 35q42 25 67 -9l25 -31q28 -40 -5 -64q-97 -69 -219 -69z" />
    <glyph glyph-name="ccircumflex" unicode="&#x109;" horiz-adv-x="547" 
d="M155 578q-15 0 -20 8.5t3 21.5l75 116q11 17 30 17h110q19 0 30 -17l76 -116q8 -13 3 -21.5t-20 -8.5h-45q-20 0 -31 14l-67 77l-67 -77q-13 -14 -31 -14h-46zM326 -11q-132 0 -214 76t-82 189q0 115 81.5 193t214.5 78q89 0 163 -43q41 -26 9 -68l-16 -20
q-25 -31 -68 -12q-37 18 -79 18q-65 0 -107.5 -40t-42.5 -103t42.5 -103t107.5 -40q42 0 79 18q44 20 68 -12l16 -20q15 -18 10.5 -38.5t-28.5 -33.5q-69 -39 -154 -39z" />
    <glyph glyph-name="Cdotaccent" unicode="&#x10a;" horiz-adv-x="689" 
d="M398 753q-38 0 -61.5 21t-23.5 55q0 35 23.5 56.5t61.5 21.5q36 0 60 -22t24 -56q0 -33 -24 -54.5t-60 -21.5zM419 -11q-173 0 -278.5 105t-105.5 256t105.5 256t278.5 105q118 0 214 -66q39 -27 10 -67l-25 -31q-25 -34 -67 -9q-61 35 -132 35q-102 0 -163.5 -64
t-61.5 -159t61.5 -159t163.5 -64q71 0 132 35q42 25 67 -9l25 -31q28 -40 -5 -64q-97 -69 -219 -69z" />
    <glyph glyph-name="cdotaccent" unicode="&#x10b;" horiz-adv-x="547" 
d="M314 579q-38 0 -62 21.5t-24 55.5q0 35 24 57t62 22q37 0 61 -22t24 -57q0 -34 -24 -55.5t-61 -21.5zM326 -11q-132 0 -214 76t-82 189q0 115 81.5 193t214.5 78q89 0 163 -43q41 -26 9 -68l-16 -20q-25 -31 -68 -12q-37 18 -79 18q-65 0 -107.5 -40t-42.5 -103
t42.5 -103t107.5 -40q42 0 79 18q44 20 68 -12l16 -20q15 -18 10.5 -38.5t-28.5 -33.5q-69 -39 -154 -39z" />
    <glyph glyph-name="Ccaron" unicode="&#x10c;" horiz-adv-x="689" 
d="M342 759q-19 0 -31 15l-69 97q-9 13 -4.5 22t19.5 9h41q19 0 31 -12l66 -65l66 65q13 12 32 12h40q16 0 20.5 -9t-4.5 -22l-71 -97q-10 -15 -30 -15h-106zM419 -11q-173 0 -278.5 105t-105.5 256t105.5 256t278.5 105q118 0 214 -66q39 -27 10 -67l-25 -31
q-25 -34 -67 -9q-61 35 -132 35q-102 0 -163.5 -64t-61.5 -159t61.5 -159t163.5 -64q71 0 132 35q42 25 67 -9l25 -31q28 -40 -5 -64q-97 -69 -219 -69z" />
    <glyph glyph-name="ccaron" unicode="&#x10d;" horiz-adv-x="547" 
d="M253 578q-20 0 -30 17l-75 116q-8 12 -3.5 21t19.5 9h46q20 0 31 -14l67 -77l67 77q11 14 31 14h46q15 0 20 -9t-3 -21l-76 -116q-10 -17 -30 -17h-110zM326 -11q-132 0 -214 76t-82 189q0 115 81.5 193t214.5 78q89 0 163 -43q41 -26 9 -68l-16 -20q-25 -31 -68 -12
q-37 18 -79 18q-65 0 -107.5 -40t-42.5 -103t42.5 -103t107.5 -40q42 0 79 18q44 20 68 -12l16 -20q15 -18 10.5 -38.5t-28.5 -33.5q-69 -39 -154 -39z" />
    <glyph glyph-name="Dcaron" unicode="&#x10e;" horiz-adv-x="751" 
d="M303 759q-19 0 -31 15l-69 97q-9 13 -4.5 22t19.5 9h41q19 0 31 -12l66 -65l66 65q13 12 32 12h40q16 0 20.5 -9t-4.5 -22l-71 -97q-10 -15 -30 -15h-106zM127 0q-49 0 -49 48v604q0 48 49 48h231q157 0 257.5 -101.5t100.5 -248.5q0 -148 -100.5 -249t-257.5 -101h-231z
M237 134h105q98 0 156 60.5t58 155.5t-58 155.5t-156 60.5h-105v-432z" />
    <glyph glyph-name="dcaron" unicode="&#x10f;" horiz-adv-x="716" 
d="M714 728q40 0 61 -26.5t21 -60.5q0 -110 -105 -161q-17 -9 -28 8l-5 9q-9 18 7 28q33 16 45 44q6 13 6 30q-2 -1 -4 -1.5t-4.5 -1t-3.5 -0.5q-27 -1 -45 17t-19 46q0 30 20.5 49.5t53.5 19.5zM279 -11q-108 0 -178 76.5t-70 191.5q0 114 70 191t178 77q110 0 164 -84v234
q0 48 49 48h58q48 0 48 -48v-627q0 -48 -48 -48h-58q-49 0 -49 48v24q-54 -83 -164 -83zM314 113q58 0 94.5 41t37.5 103q-1 62 -37.5 103t-94.5 41t-93 -41t-35 -103t35 -103t93 -41z" />
    <glyph glyph-name="Dcroat" unicode="&#x110;" horiz-adv-x="768" 
d="M144 0q-49 0 -49 48v244h-40q-41 0 -41 41v28q0 41 41 41h40v250q0 48 49 48h231q157 0 257.5 -101.5t100.5 -248.5q0 -148 -100.5 -249t-257.5 -101h-231zM254 134h105q98 0 156 60.5t58 155.5t-58 155.5t-156 60.5h-105v-164h107q42 0 42 -41v-28q0 -41 -42 -41h-107
v-158z" />
    <glyph glyph-name="dcroat" unicode="&#x111;" horiz-adv-x="660" 
d="M279 -11q-108 0 -178 76.5t-70 191.5q0 114 70 191t178 77q110 0 164 -84v135h-114q-23 0 -23 22v17q0 22 23 22h114v38q0 48 49 48h58q48 0 48 -48v-38h52q23 0 23 -22v-17q0 -22 -23 -22h-52v-528q0 -48 -48 -48h-58q-49 0 -49 48v24q-54 -83 -164 -83zM314 113
q58 0 94.5 41t37.5 103q-1 62 -37.5 103t-94.5 41t-93 -41.5t-35 -102.5q0 -62 35 -103t93 -41z" />
    <glyph glyph-name="Emacron" unicode="&#x112;" horiz-adv-x="602" 
d="M182 775q-25 0 -25 25v48q0 25 25 25h262q25 0 25 -25v-48q0 -25 -25 -25h-262zM504 566h-267v-158h226q48 0 48 -48v-27q0 -49 -48 -49h-226v-150h267q48 0 48 -48v-38q0 -48 -48 -48h-377q-49 0 -49 48v604q0 48 49 48h377q48 0 48 -48v-38q0 -48 -48 -48z" />
    <glyph glyph-name="emacron" unicode="&#x113;" horiz-adv-x="611" 
d="M177 609q-25 0 -25 26v48q0 25 25 25h261q26 0 26 -25v-48q0 -26 -26 -26h-261zM326 -11q-134 0 -215 76t-81 190q0 112 78 191t204 79q114 0 191 -66.5t82 -185.5q1 -21 -12.5 -31.5t-36.5 -10.5h-358q-2 -48 42.5 -84t115.5 -36q59 0 114 31q41 23 68 -10l11 -14
q33 -40 -9 -71q-80 -58 -194 -58zM182 317h258q-10 48 -45.5 69.5t-80.5 21.5q-46 0 -83 -22t-49 -69z" />
    <glyph glyph-name="Ebreve" unicode="&#x114;" horiz-adv-x="602" 
d="M314 754q-50 0 -96 28.5t-61 91.5q-6 26 22 29l38 5q21 3 29 -21q18 -49 68 -49q53 0 69 49q9 23 29 21l39 -4q13 -2 18 -13.5t-1 -31.5q-18 -55 -62 -80t-92 -25zM504 566h-267v-158h226q48 0 48 -48v-27q0 -49 -48 -49h-226v-150h267q48 0 48 -48v-38q0 -48 -48 -48
h-377q-49 0 -49 48v604q0 48 49 48h377q48 0 48 -48v-38q0 -48 -48 -48z" />
    <glyph glyph-name="ebreve" unicode="&#x115;" horiz-adv-x="611" 
d="M309 578q-32 0 -62.5 10t-59 40t-38.5 77q-6 26 21 29l40 5q21 3 29 -22q14 -49 70 -49t70 49q8 25 29 22l40 -5q29 -4 17 -46q-18 -58 -63 -84t-93 -26zM326 -11q-134 0 -215 76t-81 190q0 112 78 191t204 79q114 0 191 -66.5t82 -185.5q1 -21 -12.5 -31.5t-36.5 -10.5
h-358q-2 -48 42.5 -84t115.5 -36q59 0 114 31q41 23 68 -10l11 -14q33 -40 -9 -71q-80 -58 -194 -58zM182 317h258q-10 48 -45.5 69.5t-80.5 21.5q-46 0 -83 -22t-49 -69z" />
    <glyph glyph-name="Edotaccent" unicode="&#x116;" horiz-adv-x="602" 
d="M314 753q-38 0 -61.5 21t-23.5 55q0 35 23.5 56.5t61.5 21.5q36 0 60 -22t24 -56q0 -33 -24 -54.5t-60 -21.5zM504 566h-267v-158h226q48 0 48 -48v-27q0 -49 -48 -49h-226v-150h267q48 0 48 -48v-38q0 -48 -48 -48h-377q-49 0 -49 48v604q0 48 49 48h377q48 0 48 -48
v-38q0 -48 -48 -48z" />
    <glyph glyph-name="edotaccent" unicode="&#x117;" horiz-adv-x="611" 
d="M308 579q-38 0 -62 21.5t-24 55.5q0 35 24 57t62 22q37 0 61 -22t24 -57q0 -34 -24 -55.5t-61 -21.5zM326 -11q-134 0 -215 76t-81 190q0 112 78 191t204 79q114 0 191 -66.5t82 -185.5q1 -21 -12.5 -31.5t-36.5 -10.5h-358q-2 -48 42.5 -84t115.5 -36q59 0 114 31
q41 23 68 -10l11 -14q33 -40 -9 -71q-80 -58 -194 -58zM182 317h258q-10 48 -45.5 69.5t-80.5 21.5q-46 0 -83 -22t-49 -69z" />
    <glyph glyph-name="Eogonek" unicode="&#x118;" horiz-adv-x="602" 
d="M371 -224q-53 0 -98 30.5t-45 90.5q0 58 50 103h-151q-49 0 -49 48v604q0 48 49 48h377q48 0 48 -48v-38q0 -48 -48 -48h-267v-158h226q48 0 48 -48v-27q0 -49 -48 -49h-226v-150h267q48 0 48 -48v-38q0 -48 -48 -48h-142q-38 -33 -38 -75q0 -26 17 -41.5t39 -15.5
q35 0 62 32q17 20 35 9l23 -13q22 -14 10 -36q-21 -40 -58 -62t-81 -22z" />
    <glyph glyph-name="eogonek" unicode="&#x119;" horiz-adv-x="611" 
d="M416 -224q-53 0 -98 30.5t-45 90.5q0 51 39 93h-7q-126 7 -200.5 81.5t-74.5 183.5q0 112 78 191t204 79q114 0 191 -66.5t82 -185.5q1 -21 -12.5 -31.5t-36.5 -10.5h-358q-2 -48 42.5 -84t115.5 -36q59 0 114 31q41 23 68 -10l11 -14q33 -40 -9 -71q-51 -37 -117 -50
q-33 -33 -33 -72q0 -26 17 -41.5t39 -15.5q36 0 61 32q17 20 35 9l23 -13q23 -14 11 -36q-21 -40 -58.5 -62t-81.5 -22zM182 317h258q-10 48 -45.5 69.5t-80.5 21.5q-46 0 -83 -22t-49 -69z" />
    <glyph glyph-name="Ecaron" unicode="&#x11a;" horiz-adv-x="602" 
d="M233 774l-69 97q-9 13 -4.5 22t19.5 9h41q19 0 31 -12l66 -65l66 65q13 12 32 12h40q16 0 20.5 -9t-4.5 -22l-71 -97q-10 -15 -30 -15h-106q-19 0 -31 15zM504 566h-267v-158h226q48 0 48 -48v-27q0 -49 -48 -49h-226v-150h267q48 0 48 -48v-38q0 -48 -48 -48h-377
q-49 0 -49 48v604q0 48 49 48h377q48 0 48 -48v-38q0 -48 -48 -48z" />
    <glyph glyph-name="ecaron" unicode="&#x11b;" horiz-adv-x="611" 
d="M252 578q-20 0 -30 17l-75 116q-8 12 -3.5 21t19.5 9h46q20 0 31 -14l67 -77l67 77q11 14 31 14h46q15 0 20 -9t-3 -21l-76 -116q-10 -17 -30 -17h-110zM326 -11q-134 0 -215 76t-81 190q0 112 78 191t204 79q114 0 191 -66.5t82 -185.5q1 -21 -12.5 -31.5t-36.5 -10.5
h-358q-2 -48 42.5 -84t115.5 -36q59 0 114 31q41 23 68 -10l11 -14q33 -40 -9 -71q-80 -58 -194 -58zM182 317h258q-10 48 -45.5 69.5t-80.5 21.5q-46 0 -83 -22t-49 -69z" />
    <glyph glyph-name="Gcircumflex" unicode="&#x11c;" horiz-adv-x="734" 
d="M243 759q-15 0 -19.5 8.5t4.5 21.5l69 97q12 16 31 16h106q20 0 30 -16l71 -97q9 -13 4.5 -21.5t-20.5 -8.5h-40q-20 0 -32 12l-66 65l-66 -65q-11 -12 -31 -12h-41zM416 -11q-166 0 -273.5 105t-107.5 255q0 151 107.5 256.5t269.5 105.5q120 0 212 -54q41 -26 12 -67
l-25 -32q-24 -34 -67 -14q-57 29 -132 29q-93 0 -155.5 -64.5t-62.5 -158.5q0 -93 60.5 -158t164.5 -65q69 0 122 28v108h-121q-49 0 -49 48v22q0 48 49 48h221q49 0 49 -48v-202q0 -38 -31 -61q-108 -81 -243 -81z" />
    <glyph glyph-name="gcircumflex" unicode="&#x11d;" horiz-adv-x="655" 
d="M168 578q-15 0 -20 8.5t3 21.5l75 116q11 17 30 17h110q19 0 30 -17l76 -116q8 -13 3 -21.5t-20 -8.5h-45q-20 0 -31 14l-67 77l-67 -77q-13 -14 -31 -14h-46zM308 -235q-111 0 -200 46q-42 22 -17 66l12 22q22 41 65 18q62 -32 126 -32q68 0 108.5 37.5t40.5 111.5v38
q-54 -83 -166 -83q-107 0 -176.5 78t-69.5 190t69.5 190t176.5 78q110 0 164 -84v29q0 44 49 44h55q48 0 48 -48v-428q0 -139 -79.5 -206t-205.5 -67zM312 111q58 0 94.5 41.5t37.5 104.5q-1 63 -37.5 104.5t-94.5 41.5t-93.5 -42.5t-35.5 -103.5q0 -62 35.5 -104t93.5 -42z
" />
    <glyph glyph-name="Gbreve" unicode="&#x11e;" horiz-adv-x="734" 
d="M400 754q-50 0 -96 28.5t-61 91.5q-6 26 22 29l38 5q21 3 29 -21q18 -49 68 -49q53 0 69 49q9 23 29 21l39 -4q13 -2 18 -13.5t-1 -31.5q-18 -55 -62 -80t-92 -25zM416 -11q-166 0 -273.5 105t-107.5 255q0 151 107.5 256.5t269.5 105.5q120 0 212 -54q41 -26 12 -67
l-25 -32q-24 -34 -67 -14q-57 29 -132 29q-93 0 -155.5 -64.5t-62.5 -158.5q0 -93 60.5 -158t164.5 -65q69 0 122 28v108h-121q-49 0 -49 48v22q0 48 49 48h221q49 0 49 -48v-202q0 -38 -31 -61q-108 -81 -243 -81z" />
    <glyph glyph-name="gbreve" unicode="&#x11f;" horiz-adv-x="655" 
d="M313 578q-32 0 -62.5 10t-59 40t-38.5 77q-6 26 21 29l40 5q21 3 29 -22q14 -49 70 -49t70 49q8 25 29 22l40 -5q29 -4 17 -46q-18 -58 -63 -84t-93 -26zM308 -235q-111 0 -200 46q-42 22 -17 66l12 22q22 41 65 18q62 -32 126 -32q68 0 108.5 37.5t40.5 111.5v38
q-54 -83 -166 -83q-107 0 -176.5 78t-69.5 190t69.5 190t176.5 78q110 0 164 -84v29q0 44 49 44h55q48 0 48 -48v-428q0 -139 -79.5 -206t-205.5 -67zM312 111q58 0 94.5 41.5t37.5 104.5q-1 63 -37.5 104.5t-94.5 41.5t-93.5 -42.5t-35.5 -103.5q0 -62 35.5 -104t93.5 -42z
" />
    <glyph glyph-name="Gdotaccent" unicode="&#x120;" horiz-adv-x="734" 
d="M387 753q-38 0 -61.5 21t-23.5 55q0 35 23.5 56.5t61.5 21.5q36 0 60 -22t24 -56q0 -33 -24 -54.5t-60 -21.5zM416 -11q-166 0 -273.5 105t-107.5 255q0 151 107.5 256.5t269.5 105.5q120 0 212 -54q41 -26 12 -67l-25 -32q-24 -34 -67 -14q-57 29 -132 29
q-93 0 -155.5 -64.5t-62.5 -158.5q0 -93 60.5 -158t164.5 -65q69 0 122 28v108h-121q-49 0 -49 48v22q0 48 49 48h221q49 0 49 -48v-202q0 -38 -31 -61q-108 -81 -243 -81z" />
    <glyph glyph-name="gdotaccent" unicode="&#x121;" horiz-adv-x="655" 
d="M313 579q-38 0 -62 21.5t-24 55.5q0 35 24 57t62 22q37 0 61 -22t24 -57q0 -34 -24 -55.5t-61 -21.5zM308 -235q-111 0 -200 46q-42 22 -17 66l12 22q22 41 65 18q62 -32 126 -32q68 0 108.5 37.5t40.5 111.5v38q-54 -83 -166 -83q-107 0 -176.5 78t-69.5 190t69.5 190
t176.5 78q110 0 164 -84v29q0 44 49 44h55q48 0 48 -48v-428q0 -139 -79.5 -206t-205.5 -67zM312 111q58 0 94.5 41.5t37.5 104.5q-1 63 -37.5 104.5t-94.5 41.5t-93.5 -42.5t-35.5 -103.5q0 -62 35.5 -104t93.5 -42z" />
    <glyph glyph-name="Gcommaaccent" unicode="&#x122;" horiz-adv-x="734" 
d="M416 -11q-166 0 -273.5 105t-107.5 255q0 151 107.5 256.5t269.5 105.5q120 0 212 -54q41 -26 12 -67l-25 -32q-24 -34 -67 -14q-57 29 -132 29q-93 0 -155.5 -64.5t-62.5 -158.5q0 -93 60.5 -158t164.5 -65q69 0 122 28v108h-121q-49 0 -49 48v22q0 48 49 48h221
q49 0 49 -48v-202q0 -38 -31 -61q-108 -81 -243 -81zM404 -51q40 0 61 -26.5t21 -60.5q0 -108 -105 -161q-17 -9 -28 8l-5 9q-9 18 7 28q33 16 45 45q6 12 6 29l-12 -3q-27 -1 -45 17t-19 46q0 30 20.5 49.5t53.5 19.5z" />
    <glyph glyph-name="gcommaaccent" unicode="&#x123;" horiz-adv-x="655" 
d="M309 577q-39 0 -60.5 26.5t-21.5 59.5q0 109 105 162q18 9 28 -9l5 -9q10 -17 -7 -27q-34 -20 -45 -45q-5 -15 -5 -30l12 3q27 2 45 -16t18 -47q1 -29 -19.5 -48.5t-54.5 -19.5zM308 -235q-111 0 -200 46q-42 22 -17 66l12 22q22 41 65 18q62 -32 126 -32
q68 0 108.5 37.5t40.5 111.5v38q-54 -83 -166 -83q-107 0 -176.5 78t-69.5 190t69.5 190t176.5 78q110 0 164 -84v29q0 44 49 44h55q48 0 48 -48v-428q0 -139 -79.5 -206t-205.5 -67zM312 111q58 0 94.5 41.5t37.5 104.5q-1 63 -37.5 104.5t-94.5 41.5t-93.5 -42.5
t-35.5 -103.5q0 -62 35.5 -104t93.5 -42z" />
    <glyph glyph-name="Hcircumflex" unicode="&#x124;" horiz-adv-x="736" 
d="M229 759q-15 0 -19.5 8.5t4.5 21.5l69 97q12 16 31 16h106q20 0 30 -16l71 -97q9 -13 4.5 -21.5t-20.5 -8.5h-40q-20 0 -32 12l-66 65l-66 -65q-11 -12 -31 -12h-41zM127 0q-49 0 -49 48v604q0 48 49 48h62q48 0 48 -48v-253h262v253q0 48 48 48h62q48 0 48 -48v-604
q0 -48 -48 -48h-62q-48 0 -48 48v222h-262v-222q0 -48 -48 -48h-62z" />
    <glyph glyph-name="hcircumflex" unicode="&#x125;" horiz-adv-x="616" 
d="M-5 748q-15 0 -20 8.5t3 21.5l71 111q11 17 30 17h110q19 0 30 -17l72 -111q8 -13 3 -21.5t-20 -8.5h-45q-22 0 -32 14l-62 74l-63 -74q-10 -14 -32 -14h-45zM110 0q-48 0 -48 48v627q0 48 48 48h59q48 0 48 -48v-243q39 93 156 93q97 0 142.5 -64.5t45.5 -164.5v-248
q0 -48 -49 -48h-58q-48 0 -48 48v237q0 54 -21 84t-60 30q-44 0 -76 -35t-32 -102v-214q0 -48 -48 -48h-59z" />
    <glyph glyph-name="Hbar" unicode="&#x126;" horiz-adv-x="751" 
d="M134 0q-49 0 -49 48v440h-46q-25 0 -25 26v28q0 25 25 25h46v85q0 48 49 48h61q49 0 49 -48v-85h262v85q0 48 48 48h62q48 0 48 -48v-85h48q26 0 26 -25v-28q0 -26 -26 -26h-48v-440q0 -48 -48 -48h-62q-48 0 -48 48v222h-262v-222q0 -48 -49 -48h-61zM244 399h262v89
h-262v-89z" />
    <glyph glyph-name="hbar" unicode="&#x127;" horiz-adv-x="616" 
d="M110 0q-48 0 -48 48v528h-49q-26 0 -26 25v11q0 26 26 26h49v37q0 48 48 48h59q48 0 48 -48v-37h108q25 0 25 -26v-11q0 -25 -25 -25h-108v-144q39 93 156 93q97 0 142.5 -64.5t45.5 -164.5v-248q0 -48 -49 -48h-58q-48 0 -48 48v237q0 54 -21 84t-60 30q-44 0 -76 -35
t-32 -102v-214q0 -48 -48 -48h-59z" />
    <glyph glyph-name="Itilde" unicode="&#x128;" horiz-adv-x="315" 
d="M49 780q-12 -20 -33 -14l-20 6q-25 10 -16 33q16 47 39 71t64 24q32 0 79.5 -23t60.5 -23q32 0 48 29q12 21 33 14l20 -6q24 -8 16 -33q-17 -47 -39.5 -70.5t-63.5 -23.5q-32 0 -79.5 22.5t-60.5 22.5q-32 0 -48 -29zM127 0q-49 0 -49 48v604q0 48 49 48h62q48 0 48 -48
v-604q0 -48 -48 -48h-62z" />
    <glyph glyph-name="itilde" unicode="&#x129;" horiz-adv-x="282" 
d="M-25 598q-24 9 -16 33q16 50 39 75.5t65 25.5q32 0 79 -24t61 -24q32 0 48 31q10 20 33 14l20 -7q24 -9 16 -32q-17 -51 -40 -76t-64 -25q-32 0 -79.5 23.5t-60.5 23.5q-31 0 -48 -30q-10 -22 -33 -14zM112 0q-48 0 -48 48v418q0 48 48 48h58q49 0 49 -48v-418
q0 -48 -49 -48h-58z" />
    <glyph glyph-name="Imacron" unicode="&#x12a;" horiz-adv-x="315" 
d="M27 775q-25 0 -25 25v48q0 25 25 25h262q25 0 25 -25v-48q0 -25 -25 -25h-262zM127 0q-49 0 -49 48v604q0 48 49 48h62q48 0 48 -48v-604q0 -48 -48 -48h-62z" />
    <glyph glyph-name="imacron" unicode="&#x12b;" horiz-adv-x="282" 
d="M9 609q-25 0 -25 26v48q0 25 25 25h262q25 0 25 -25v-48q0 -26 -25 -26h-262zM112 0q-48 0 -48 48v418q0 48 48 48h58q49 0 49 -48v-418q0 -48 -49 -48h-58z" />
    <glyph glyph-name="Ibreve" unicode="&#x12c;" horiz-adv-x="315" 
d="M158 754q-50 0 -96 28.5t-61 91.5q-6 26 22 29l38 5q21 3 29 -21q18 -49 68 -49q53 0 69 49q9 23 29 21l39 -4q13 -2 18 -13.5t-1 -31.5q-18 -55 -62 -80t-92 -25zM127 0q-49 0 -49 48v604q0 48 49 48h62q48 0 48 -48v-604q0 -48 -48 -48h-62z" />
    <glyph glyph-name="ibreve" unicode="&#x12d;" horiz-adv-x="282" 
d="M139 578q-52 0 -98.5 29.5t-61.5 97.5q-6 26 22 29l40 5q20 2 29 -22q14 -49 69 -49q56 0 70 49q9 24 29 22l40 -5q13 -2 18 -13.5t-1 -32.5q-18 -58 -62.5 -84t-93.5 -26zM112 0q-48 0 -48 48v418q0 48 48 48h58q49 0 49 -48v-418q0 -48 -49 -48h-58z" />
    <glyph glyph-name="Iogonek" unicode="&#x12e;" horiz-adv-x="315" 
d="M322 -104q23 -13 11 -36q-21 -40 -58.5 -62t-81.5 -22q-53 0 -98 31t-45 90q0 61 55 107q-27 10 -27 44v604q0 48 49 48h62q48 0 48 -48v-604q0 -48 -48 -48h-5q-37 -33 -37 -75q0 -26 17 -41.5t39 -15.5q35 0 62 32q15 20 35 9z" />
    <glyph glyph-name="iogonek" unicode="&#x12f;" horiz-adv-x="281" 
d="M141 575q-42 0 -67.5 23t-25.5 57q0 36 24.5 58.5t68.5 22.5q43 0 68 -23t25 -58q0 -34 -25.5 -57t-67.5 -23zM150 -224q-53 0 -98 31t-45 90q0 63 57 107v462q0 48 48 48h58q49 0 49 -48v-418q0 -48 -49 -48h-29q-37 -33 -37 -75q0 -26 17 -41.5t39 -15.5q36 0 61 32
q17 20 35 9l23 -13q23 -14 11 -36q-21 -40 -58.5 -62t-81.5 -22z" />
    <glyph glyph-name="Idotaccent" unicode="&#x130;" horiz-adv-x="315" 
d="M157 753q-38 0 -61.5 21t-23.5 55q0 35 23.5 56.5t61.5 21.5q36 0 60 -22t24 -56q0 -33 -24 -54.5t-60 -21.5zM127 0q-49 0 -49 48v604q0 48 49 48h62q48 0 48 -48v-604q0 -48 -48 -48h-62z" />
    <glyph glyph-name="dotlessi" unicode="&#x131;" horiz-adv-x="282" 
d="M112 0q-48 0 -48 48v418q0 48 48 48h58q49 0 49 -48v-418q0 -48 -49 -48h-58z" />
    <glyph glyph-name="IJ" unicode="&#x132;" horiz-adv-x="966" 
d="M127 0q-49 0 -49 48v604q0 48 49 48h62q48 0 48 -48v-604q0 -48 -48 -48h-62zM610 -11q-74 0 -129.5 22.5t-85.5 59.5t-44.5 78.5t-14.5 86.5q0 40 18 84q14 34 56 34h48q52 0 38 -48q-8 -29 -8 -51q0 -54 29 -91t89 -37q65 0 99 46t34 135v344q0 48 48 48h62
q49 0 49 -48v-344q0 -158 -75 -238.5t-213 -80.5z" />
    <glyph glyph-name="ij" unicode="&#x133;" horiz-adv-x="600" 
d="M141 575q-42 0 -67.5 23t-25.5 57q0 36 24.5 58.5t68.5 22.5q43 0 68 -23t25 -58q0 -34 -25.5 -57t-67.5 -23zM461 575q-42 0 -67 22.5t-25 57.5q0 36 24.5 58.5t67.5 22.5q44 0 68.5 -22.5t24.5 -58.5q0 -35 -25 -57.5t-68 -22.5zM112 0q-48 0 -48 48v418q0 48 48 48h58
q49 0 49 -48v-418q0 -48 -49 -48h-58zM346 -236q-73 0 -122 35t-49 102q0 11 1 16q3 19 25 19h71q21 0 21 -18v-6q0 -14 11.5 -23.5t30.5 -9.5q47 0 47 59l1 528q0 48 48 48h57q48 0 48 -48v-508q0 -56 -17 -96t-46.5 -60.5t-60 -29t-66.5 -8.5z" />
    <glyph glyph-name="Jcircumflex" unicode="&#x134;" horiz-adv-x="651" 
d="M366 759q-15 0 -19.5 8.5t4.5 21.5l69 97q12 16 31 16h106q20 0 30 -16l71 -97q9 -13 4.5 -21.5t-20.5 -8.5h-40q-20 0 -32 12l-66 65l-66 -65q-11 -12 -31 -12h-41zM295 -11q-74 0 -129.5 22.5t-85.5 59.5t-44.5 78.5t-14.5 86.5q0 40 18 84q14 34 56 34h48q52 0 38 -48
q-8 -29 -8 -51q0 -54 29 -91t89 -37q65 0 99 46t34 135v344q0 48 48 48h62q49 0 49 -48v-344q0 -158 -75 -238.5t-213 -80.5z" />
    <glyph glyph-name="jcircumflex" unicode="&#x135;" horiz-adv-x="318" 
d="M32 578q-16 0 -20.5 8.5t3.5 21.5l75 116q11 17 30 17h110q19 0 30 -17l76 -116q8 -13 3 -21.5t-20 -8.5h-46q-19 0 -30 14l-67 77l-68 -77q-11 -14 -30 -14h-46zM65 -236q-73 0 -122 35t-49 102q0 11 1 16q3 19 25 19h71q21 0 21 -18v-6q0 -14 11.5 -23.5t30.5 -9.5
q47 0 47 59l1 528q0 48 48 48h57q48 0 48 -48v-508q0 -56 -17 -96t-46.5 -60.5t-60 -29t-66.5 -8.5z" />
    <glyph glyph-name="Kcommaaccent" unicode="&#x136;" horiz-adv-x="671" 
d="M549 -11q-67 0 -121.5 37.5t-87.5 105.5l-104 190v-274q0 -48 -48 -48h-62q-49 0 -49 48v604q0 48 49 48h62q48 0 48 -48v-272l185 287q19 33 57 33h80q27 0 33 -14t-10 -39l-195 -293l94 -159q45 -82 95 -79q19 3 31 7q19 6 29.5 -1t20.5 -28l10 -22q21 -47 -27 -66
q-41 -17 -90 -17zM331 -51q40 0 61 -26.5t21 -60.5q0 -108 -105 -161q-17 -9 -28 8l-5 9q-9 18 7 28q33 16 45 45q6 12 6 29l-12 -3q-27 -1 -45 17t-19 46q0 30 20.5 49.5t53.5 19.5z" />
    <glyph glyph-name="kcommaaccent" unicode="&#x137;" horiz-adv-x="598" 
d="M468 -11q-64 0 -106 31t-74 91l-72 132v-195q0 -48 -48 -48h-59q-48 0 -48 48v627q0 48 48 48h59q48 0 48 -48v-371l127 179q21 31 58 31h67q31 0 39.5 -17.5t-10.5 -41.5l-138 -179l66 -107q19 -29 35 -40.5t40 -11.5q15 0 30 5q30 8 41 -15l22 -44q14 -30 -23 -49
q-46 -25 -102 -25zM282 -51q40 0 61 -26.5t21 -60.5q0 -108 -105 -161q-17 -9 -28 8l-5 9q-9 18 7 28q33 16 45 45q6 12 6 29l-12 -3q-27 -1 -45 17t-19 46q0 30 20.5 49.5t53.5 19.5z" />
    <glyph glyph-name="kgreenlandic" unicode="&#x138;" horiz-adv-x="601" 
d="M471 -11q-57 0 -95 27t-79 92l-80 122v-182q0 -48 -49 -48h-58q-48 0 -48 48v418q0 48 48 48h58q48 0 48 -48v-173l145 191q21 30 58 30h66q31 0 39.5 -18t-10.5 -41l-156 -188l79 -109q31 -42 69 -42q14 0 28 7q25 11 35 -11l26 -53q10 -24 -17 -40q-50 -30 -107 -30z
" />
    <glyph glyph-name="Lacute" unicode="&#x139;" horiz-adv-x="570" 
d="M123 759q-14 0 -19.5 8t1.5 21l50 96q9 18 30 18h91q16 0 20.5 -9t-5.5 -22l-80 -98q-12 -14 -31 -14h-57zM127 0q-49 0 -49 48v604q0 48 49 48h62q48 0 48 -48v-518h268q49 0 49 -48v-38q0 -48 -49 -48h-378z" />
    <glyph glyph-name="lacute" unicode="&#x13a;" horiz-adv-x="282" 
d="M103 759q-14 0 -19.5 8t1.5 21l50 96q9 18 30 18h91q16 0 20.5 -9t-5.5 -22l-80 -98q-12 -14 -31 -14h-57zM112 0q-48 0 -48 48v627q0 48 48 48h58q49 0 49 -48v-627q0 -48 -49 -48h-58z" />
    <glyph glyph-name="Lcommaaccent" unicode="&#x13b;" horiz-adv-x="570" 
d="M127 0q-49 0 -49 48v604q0 48 49 48h62q48 0 48 -48v-518h268q49 0 49 -48v-38q0 -48 -49 -48h-378zM312 -51q40 0 61 -26.5t21 -60.5q0 -108 -105 -161q-17 -9 -28 8l-5 9q-9 18 7 28q33 16 45 45q6 12 6 29l-12 -3q-27 -1 -45 17t-19 46q0 30 20.5 49.5t53.5 19.5z" />
    <glyph glyph-name="lcommaaccent" unicode="&#x13c;" horiz-adv-x="282" 
d="M112 0q-48 0 -48 48v627q0 48 48 48h58q49 0 49 -48v-627q0 -48 -49 -48h-58zM131 -51q40 0 61 -26.5t21 -60.5q0 -108 -105 -161q-17 -9 -28 8l-5 9q-9 18 7 28q33 16 45 45q6 12 6 29l-12 -3q-27 -1 -45 17t-19 46q0 30 20.5 49.5t53.5 19.5z" />
    <glyph glyph-name="Lcaron" unicode="&#x13d;" horiz-adv-x="570" 
d="M441 711q40 0 61 -26.5t21 -60.5q0 -108 -105 -161q-17 -9 -28 9l-5 9q-9 17 7 27q34 17 46 45q5 15 5 29q-8 -2 -12 -2q-27 -1 -45 16.5t-19 45.5q0 30 20.5 49.5t53.5 19.5zM127 0q-49 0 -49 48v604q0 48 49 48h62q48 0 48 -48v-518h268q49 0 49 -48v-38q0 -48 -49 -48
h-378z" />
    <glyph glyph-name="lcaron" unicode="&#x13e;" horiz-adv-x="335" 
d="M112 0q-48 0 -48 48v627q0 48 48 48h58q49 0 49 -48v-627q0 -48 -49 -48h-58zM334 723q39 0 60.5 -27t21.5 -60q0 -108 -105 -161q-18 -9 -28 9l-5 9q-10 16 7 27q33 16 45 45q6 13 6 29q-10 -2 -13 -2q-27 -1 -45 16.5t-18 45.5q-1 30 19.5 49.5t54.5 19.5z" />
    <glyph glyph-name="Ldot" unicode="&#x13f;" horiz-adv-x="582" 
d="M127 0q-49 0 -49 48v604q0 48 49 48h62q48 0 48 -48v-518h268q49 0 49 -48v-38q0 -48 -49 -48h-378zM432 265q-38 0 -61.5 21t-23.5 55q0 35 23.5 56.5t61.5 21.5q36 0 60 -22t24 -56q0 -33 -24 -54.5t-60 -21.5z" />
    <glyph glyph-name="ldot" unicode="&#x140;" horiz-adv-x="402" 
d="M112 0q-48 0 -48 48v627q0 48 48 48h58q49 0 49 -48v-627q0 -48 -49 -48h-58zM344 220q-37 0 -60.5 21.5t-23.5 55.5t23.5 55.5t60.5 21.5q36 0 60.5 -22t24.5 -55t-24.5 -55t-60.5 -22z" />
    <glyph glyph-name="Lslash" unicode="&#x141;" horiz-adv-x="579" 
d="M135 0q-48 0 -48 48v215l-50 -22q-13 -7 -21 -1t-8 20v34q0 21 19 30l60 27v301q0 48 48 48h62q48 0 48 -48v-227l122 55q13 7 21.5 1.5t8.5 -19.5v-37q0 -21 -19 -30l-133 -59v-202h269q48 0 48 -48v-38q0 -48 -48 -48h-379z" />
    <glyph glyph-name="lslash" unicode="&#x142;" horiz-adv-x="341" 
d="M131 0q-48 0 -48 48v203l-42 -19q-13 -6 -21.5 -0.5t-8.5 19.5v34q0 20 19 30l53 24v336q0 48 48 48h59q48 0 48 -48v-261l60 27q13 6 21 1t8 -20v-36q0 -21 -19 -30l-70 -32v-276q0 -48 -48 -48h-59z" />
    <glyph glyph-name="Nacute" unicode="&#x143;" horiz-adv-x="741" 
d="M332 759q-14 0 -19.5 8t1.5 21l50 96q9 18 30 18h91q16 0 20.5 -9t-5.5 -22l-80 -98q-12 -14 -31 -14h-57zM127 0q-49 0 -49 48v604q0 48 49 48h36q38 0 59 -30l281 -386v368q0 48 49 48h62q48 0 48 -48v-604q0 -48 -48 -48h-36q-38 0 -58 30l-283 390v-372
q0 -48 -48 -48h-62z" />
    <glyph glyph-name="nacute" unicode="&#x144;" horiz-adv-x="616" 
d="M284 578q-15 0 -20 8t2 22l61 115q9 18 30 18h99q16 0 20 -9t-6 -22l-98 -118q-11 -14 -31 -14h-57zM110 0q-48 0 -48 48v418q0 48 48 48h59q48 0 48 -48v-34q39 93 156 93q97 0 142.5 -64.5t45.5 -164.5v-248q0 -48 -49 -48h-58q-48 0 -48 48v237q0 54 -21 84t-60 30
q-44 0 -76 -35t-32 -102v-214q0 -48 -48 -48h-59z" />
    <glyph glyph-name="Ncommaaccent" unicode="&#x145;" horiz-adv-x="741" 
d="M127 0q-49 0 -49 48v604q0 48 49 48h36q38 0 59 -30l281 -386v368q0 48 49 48h62q48 0 48 -48v-604q0 -48 -48 -48h-36q-38 0 -58 30l-283 390v-372q0 -48 -48 -48h-62zM366 -51q40 0 61 -26.5t21 -60.5q0 -108 -105 -161q-17 -9 -28 8l-5 9q-9 18 7 28q33 16 45 45
q6 12 6 29l-12 -3q-27 -1 -45 17t-19 46q0 30 20.5 49.5t53.5 19.5z" />
    <glyph glyph-name="ncommaaccent" unicode="&#x146;" horiz-adv-x="616" 
d="M110 0q-48 0 -48 48v418q0 48 48 48h59q48 0 48 -48v-34q39 93 156 93q97 0 142.5 -64.5t45.5 -164.5v-248q0 -48 -49 -48h-58q-48 0 -48 48v237q0 54 -21 84t-60 30q-44 0 -76 -35t-32 -102v-214q0 -48 -48 -48h-59zM307 -51q40 0 61 -26.5t21 -60.5q0 -108 -105 -161
q-17 -9 -28 8l-5 9q-9 18 7 28q33 16 45 45q6 12 6 29l-12 -3q-27 -1 -45 17t-19 46q0 30 20.5 49.5t53.5 19.5z" />
    <glyph glyph-name="Ncaron" unicode="&#x147;" horiz-adv-x="741" 
d="M317 759q-19 0 -31 15l-69 97q-9 13 -4.5 22t19.5 9h41q19 0 31 -12l66 -65l66 65q13 12 32 12h40q16 0 20.5 -9t-4.5 -22l-71 -97q-10 -15 -30 -15h-106zM127 0q-49 0 -49 48v604q0 48 49 48h36q38 0 59 -30l281 -386v368q0 48 49 48h62q48 0 48 -48v-604q0 -48 -48 -48
h-36q-38 0 -58 30l-283 390v-372q0 -48 -48 -48h-62z" />
    <glyph glyph-name="ncaron" unicode="&#x148;" horiz-adv-x="616" 
d="M257 578q-20 0 -30 17l-75 116q-8 12 -3.5 21t19.5 9h46q20 0 31 -14l67 -77l67 77q11 14 31 14h46q15 0 20 -9t-3 -21l-76 -116q-10 -17 -30 -17h-110zM110 0q-48 0 -48 48v418q0 48 48 48h59q48 0 48 -48v-34q39 93 156 93q97 0 142.5 -64.5t45.5 -164.5v-248
q0 -48 -49 -48h-58q-48 0 -48 48v237q0 54 -21 84t-60 30q-44 0 -76 -35t-32 -102v-214q0 -48 -48 -48h-59z" />
    <glyph glyph-name="napostrophe" unicode="&#x149;" horiz-adv-x="720" 
d="M90 763q40 0 61 -26.5t21 -60.5q0 -108 -105 -161q-17 -9 -28 9l-5 9q-9 17 7 27q34 18 45 45q6 13 6 29q-8 -2 -12 -2q-27 -1 -45 16.5t-19 45.5q0 30 20.5 49.5t53.5 19.5zM223 0q-49 0 -49 48v418q0 48 49 48h58q48 0 48 -48v-34q41 93 157 93q96 0 141.5 -64.5
t45.5 -164.5v-248q0 -48 -49 -48h-58q-48 0 -48 48v237q0 54 -21 84t-60 30q-44 0 -76 -35t-32 -102v-214q0 -48 -48 -48h-58z" />
    <glyph glyph-name="Eng" unicode="&#x14a;" horiz-adv-x="740" 
d="M410 -233q-18 -2 -28.5 8t-10.5 29v63q0 31 35 40q79 16 95 108q5 29 -16 60l-249 345v-372q0 -48 -48 -48h-62q-48 0 -48 48v604q0 48 48 48h37q37 0 58 -31l282 -387v370q0 48 48 48h63q48 0 48 -48v-607q0 -120 -64 -194t-188 -84z" />
    <glyph glyph-name="eng" unicode="&#x14b;" horiz-adv-x="615" 
d="M331 -232q-24 -3 -37 10t-13 37v38q0 21 10.5 32t33.5 19q37 8 58.5 39.5t21.5 80.5v261q0 54 -21 84t-60 30q-44 0 -76 -35t-32 -102v-214q0 -48 -48 -48h-59q-48 0 -48 48v418q0 48 48 48h59q48 0 48 -48v-34q39 93 156 93q97 0 142.5 -64.5t45.5 -164.5v-264
q0 -111 -58.5 -181.5t-170.5 -82.5z" />
    <glyph glyph-name="Omacron" unicode="&#x14c;" horiz-adv-x="813" 
d="M276 775q-25 0 -25 25v48q0 25 25 25h262q25 0 25 -25v-48q0 -25 -25 -25h-262zM406 -11q-161 0 -266 105t-105 256t105 256t266 105t266 -105t105 -256t-105 -256t-266 -105zM406 127q92 0 152 64.5t60 158.5t-60 158.5t-152 64.5t-151.5 -64.5t-59.5 -158.5
t59.5 -158.5t151.5 -64.5z" />
    <glyph glyph-name="omacron" unicode="&#x14d;" horiz-adv-x="628" 
d="M184 609q-25 0 -25 26v48q0 25 25 25h261q26 0 26 -25v-48q0 -26 -26 -26h-261zM314 -11q-121 0 -203 78t-82 190t82 190t203 78t203 -78t82 -190t-82 -190t-203 -78zM314 114q58 0 98 41t40 101q0 61 -40 102t-98 41q-59 0 -98.5 -41t-39.5 -102q0 -60 40 -101t98 -41z
" />
    <glyph glyph-name="Obreve" unicode="&#x14e;" horiz-adv-x="813" 
d="M407 754q-50 0 -96 28.5t-61 91.5q-6 26 22 29l38 5q21 3 29 -21q18 -49 68 -49q53 0 69 49q9 23 29 21l39 -4q13 -2 18 -13.5t-1 -31.5q-18 -55 -62 -80t-92 -25zM406 -11q-161 0 -266 105t-105 256t105 256t266 105t266 -105t105 -256t-105 -256t-266 -105zM406 127
q92 0 152 64.5t60 158.5t-60 158.5t-152 64.5t-151.5 -64.5t-59.5 -158.5t59.5 -158.5t151.5 -64.5z" />
    <glyph glyph-name="obreve" unicode="&#x14f;" horiz-adv-x="628" 
d="M315 578q-32 0 -62.5 10t-59 40t-38.5 77q-6 26 21 29l40 5q21 3 29 -22q14 -49 70 -49t70 49q8 25 29 22l40 -5q29 -4 17 -46q-18 -58 -63 -84t-93 -26zM314 -11q-121 0 -203 78t-82 190t82 190t203 78t203 -78t82 -190t-82 -190t-203 -78zM314 114q58 0 98 41t40 101
q0 61 -40 102t-98 41q-59 0 -98.5 -41t-39.5 -102q0 -60 40 -101t98 -41z" />
    <glyph glyph-name="Ohungarumlaut" unicode="&#x150;" horiz-adv-x="813" 
d="M307 759q-15 0 -20 8.5t2 21.5l53 95q10 18 31 18h42q15 0 20 -9t-3 -22l-58 -96q-9 -16 -31 -16h-36zM476 759q-14 0 -19 8.5t2 21.5l53 95q9 18 30 18h42q16 0 20.5 -9t-3.5 -22l-58 -96q-9 -16 -30 -16h-37zM406 -11q-161 0 -266 105t-105 256t105 256t266 105
t266 -105t105 -256t-105 -256t-266 -105zM406 127q92 0 152 64.5t60 158.5t-60 158.5t-152 64.5t-151.5 -64.5t-59.5 -158.5t59.5 -158.5t151.5 -64.5z" />
    <glyph glyph-name="ohungarumlaut" unicode="&#x151;" horiz-adv-x="628" 
d="M212 578q-15 0 -20.5 8.5t1.5 21.5l65 115q9 18 30 18h42q15 0 20 -9t-3 -21l-69 -116q-9 -17 -30 -17h-36zM381 578q-15 0 -20 8.5t2 21.5l64 115q11 18 30 18h43q15 0 19.5 -9t-3.5 -21l-68 -116q-10 -17 -31 -17h-36zM314 -11q-121 0 -203 78t-82 190t82 190t203 78
t203 -78t82 -190t-82 -190t-203 -78zM314 114q58 0 98 41t40 101q0 61 -40 102t-98 41q-59 0 -98.5 -41t-39.5 -102q0 -60 40 -101t98 -41z" />
    <glyph glyph-name="OE" unicode="&#x152;" horiz-adv-x="939" 
d="M396 0q-153 0 -256.5 105t-103.5 255q0 149 102 244.5t258 95.5h451q49 0 49 -48v-38q0 -48 -49 -48h-254v-156h213q48 0 48 -48v-27q0 -48 -48 -48h-213v-161h254q49 0 49 -49v-29q0 -48 -49 -48h-451zM396 126h43v448h-43q-87 0 -144 -59.5t-57 -154.5q0 -97 58 -165.5
t143 -68.5z" />
    <glyph glyph-name="oe" unicode="&#x153;" horiz-adv-x="976" 
d="M312 -11q-122 0 -202 77.5t-80 190.5q0 112 80 190t202 78q110 0 187 -67q72 67 183 67q112 0 187 -71t80 -191q1 -15 -8.5 -23.5t-24.5 -8.5h-360q-1 -49 39.5 -84.5t110.5 -35.5q67 0 125 38q26 17 45 -5l29 -39q20 -25 -2 -46q-82 -70 -207 -70q-124 0 -197 68
q-77 -68 -187 -68zM559 317h250q-10 48 -45 69.5t-80 21.5t-79 -22t-46 -69zM320 114q66 0 107 49q-18 47 -18 94q0 43 19 93q-40 49 -108 49q-62 0 -102.5 -41t-40.5 -102t40.5 -101.5t102.5 -40.5z" />
    <glyph glyph-name="Racute" unicode="&#x154;" horiz-adv-x="702" 
d="M282 759q-14 0 -19.5 8t1.5 21l50 96q9 18 30 18h91q16 0 20.5 -9t-5.5 -22l-80 -98q-12 -14 -31 -14h-57zM552 -11q-49 0 -88.5 20t-62.5 48.5t-39.5 67t-23 67.5t-9.5 58h-93v-202q0 -48 -48 -48h-62q-49 0 -49 48v604q0 48 49 48h269q108 0 170 -67t62 -166
q0 -78 -41 -134t-114 -75q6 -57 35.5 -99.5t70.5 -42.5q29 0 46 8q22 7 33 2t21 -25l9 -20q21 -44 -15 -64q-54 -28 -120 -28zM236 364h137q42 0 67.5 28.5t25.5 71.5q0 44 -26 73t-67 29h-137v-202z" />
    <glyph glyph-name="racute" unicode="&#x155;" horiz-adv-x="403" 
d="M98 578q-15 0 -20 8t2 22l61 115q9 18 30 18h99q16 0 20 -9t-6 -22l-98 -118q-11 -14 -31 -14h-57zM110 0q-48 0 -48 48v418q0 48 48 48h55q48 0 48 -48v-64q11 63 51.5 93t81.5 30l17 -1q29 -2 29 -41v-70q0 -21 -9.5 -30t-25.5 -7q-18 2 -25 2q-51 0 -83 -39t-32 -129
v-162q0 -48 -48 -48h-59z" />
    <glyph glyph-name="Rcommaaccent" unicode="&#x156;" horiz-adv-x="702" 
d="M552 -11q-49 0 -88.5 20t-62.5 48.5t-39.5 67t-23 67.5t-9.5 58h-93v-202q0 -48 -48 -48h-62q-49 0 -49 48v604q0 48 49 48h269q108 0 170 -67t62 -166q0 -78 -41 -134t-114 -75q6 -57 35.5 -99.5t70.5 -42.5q29 0 46 8q22 7 33 2t21 -25l9 -20q21 -44 -15 -64
q-54 -28 -120 -28zM236 364h137q42 0 67.5 28.5t25.5 71.5q0 44 -26 73t-67 29h-137v-202zM324 -51q40 0 61 -26.5t21 -60.5q0 -108 -105 -161q-17 -9 -28 8l-5 9q-9 18 7 28q33 16 45 45q6 12 6 29l-12 -3q-27 -1 -45 17t-19 46q0 30 20.5 49.5t53.5 19.5z" />
    <glyph glyph-name="rcommaaccent" unicode="&#x157;" horiz-adv-x="403" 
d="M110 0q-48 0 -48 48v418q0 48 48 48h55q48 0 48 -48v-64q11 63 51.5 93t81.5 30l17 -1q29 -2 29 -41v-70q0 -21 -9.5 -30t-25.5 -7q-18 2 -25 2q-51 0 -83 -39t-32 -129v-162q0 -48 -48 -48h-59zM130 -51q40 0 61 -26.5t21 -60.5q0 -108 -105 -161q-17 -9 -28 8l-5 9
q-9 18 7 28q33 16 45 45q6 12 6 29l-12 -3q-27 -1 -45 17t-19 46q0 30 20.5 49.5t53.5 19.5z" />
    <glyph glyph-name="Rcaron" unicode="&#x158;" horiz-adv-x="702" 
d="M261 759q-19 0 -31 15l-69 97q-9 13 -4.5 22t19.5 9h41q19 0 31 -12l66 -65l66 65q13 12 32 12h40q16 0 20.5 -9t-4.5 -22l-71 -97q-10 -15 -30 -15h-106zM552 -11q-49 0 -88.5 20t-62.5 48.5t-39.5 67t-23 67.5t-9.5 58h-93v-202q0 -48 -48 -48h-62q-49 0 -49 48v604
q0 48 49 48h269q108 0 170 -67t62 -166q0 -78 -41 -134t-114 -75q6 -57 35.5 -99.5t70.5 -42.5q29 0 46 8q22 7 33 2t21 -25l9 -20q21 -44 -15 -64q-54 -28 -120 -28zM236 364h137q42 0 67.5 28.5t25.5 71.5q0 44 -26 73t-67 29h-137v-202z" />
    <glyph glyph-name="rcaron" unicode="&#x159;" horiz-adv-x="403" 
d="M168 578q-20 0 -30 17l-75 116q-8 12 -3.5 21t19.5 9h46q20 0 31 -14l67 -77l67 77q11 14 31 14h46q15 0 20 -9t-3 -21l-76 -116q-10 -17 -30 -17h-110zM110 0q-48 0 -48 48v418q0 48 48 48h55q48 0 48 -48v-64q11 63 51.5 93t81.5 30l17 -1q29 -2 29 -41v-70
q0 -21 -9.5 -30t-25.5 -7q-18 2 -25 2q-51 0 -83 -39t-32 -129v-162q0 -48 -48 -48h-59z" />
    <glyph glyph-name="Sacute" unicode="&#x15a;" horiz-adv-x="603" 
d="M273 759q-14 0 -19.5 8t1.5 21l50 96q9 18 30 18h91q16 0 20.5 -9t-5.5 -22l-80 -98q-12 -14 -31 -14h-57zM302 -11q-97 0 -166 40t-97 111q-9 22 0.5 37.5t33.5 21.5l43 10q35 9 59 -31q39 -62 126 -62q51 0 82 21t31 55q0 54 -80 81l-91 33q-75 24 -130 73.5t-56 123.5
q0 94 71 151t177 57q163 0 224 -128q11 -22 2.5 -38t-31.5 -23l-40 -11q-36 -10 -62 27q-28 46 -91 46q-39 0 -66 -19t-27 -52q0 -48 73 -75l91 -33q187 -63 190 -206q0 -99 -75 -154.5t-191 -55.5z" />
    <glyph glyph-name="sacute" unicode="&#x15b;" horiz-adv-x="473" 
d="M199 578q-15 0 -20 8t2 22l61 115q9 18 30 18h99q16 0 20 -9t-6 -22l-98 -118q-11 -14 -31 -14h-57zM237 -11q-148 0 -199 103q-10 23 -1 38.5t33 21.5l31 7q10 6 23 0.5t18 -9.5t19 -18q27 -30 77 -30q29 0 47.5 12.5t18.5 32.5q0 16 -11 26t-37 19l-63 22
q-145 47 -145 149q0 72 53.5 117t137.5 45q112 0 164 -78q14 -22 5.5 -39.5t-33.5 -23.5l-28 -7q-29 -8 -58 19q-19 19 -50 19q-23 0 -37.5 -12.5t-14.5 -31.5q0 -26 47 -42l64 -24q143 -47 146 -155q0 -77 -59.5 -119t-147.5 -42z" />
    <glyph glyph-name="Scircumflex" unicode="&#x15c;" horiz-adv-x="603" 
d="M163 759q-15 0 -19.5 8.5t4.5 21.5l69 97q12 16 31 16h106q20 0 30 -16l71 -97q9 -13 4.5 -21.5t-20.5 -8.5h-40q-20 0 -32 12l-66 65l-66 -65q-11 -12 -31 -12h-41zM302 -11q-97 0 -166 40t-97 111q-9 22 0.5 37.5t33.5 21.5l43 10q35 9 59 -31q39 -62 126 -62
q51 0 82 21t31 55q0 54 -80 81l-91 33q-75 24 -130 73.5t-56 123.5q0 94 71 151t177 57q163 0 224 -128q11 -22 2.5 -38t-31.5 -23l-40 -11q-36 -10 -62 27q-28 46 -91 46q-39 0 -66 -19t-27 -52q0 -48 73 -75l91 -33q187 -63 190 -206q0 -99 -75 -154.5t-191 -55.5z" />
    <glyph glyph-name="scircumflex" unicode="&#x15d;" horiz-adv-x="473" 
d="M89 578q-15 0 -20 8.5t3 21.5l75 116q11 17 30 17h110q19 0 30 -17l76 -116q8 -13 3 -21.5t-20 -8.5h-45q-20 0 -31 14l-67 77l-67 -77q-13 -14 -31 -14h-46zM237 -11q-148 0 -199 103q-10 23 -1 38.5t33 21.5l31 7q10 6 23 0.5t18 -9.5t19 -18q27 -30 77 -30
q29 0 47.5 12.5t18.5 32.5q0 16 -11 26t-37 19l-63 22q-145 47 -145 149q0 72 53.5 117t137.5 45q112 0 164 -78q14 -22 5.5 -39.5t-33.5 -23.5l-28 -7q-29 -8 -58 19q-19 19 -50 19q-23 0 -37.5 -12.5t-14.5 -31.5q0 -26 47 -42l64 -24q143 -47 146 -155q0 -77 -59.5 -119
t-147.5 -42z" />
    <glyph glyph-name="Scedilla" unicode="&#x15e;" horiz-adv-x="603" 
d="M568 199q0 -84 -55.5 -137.5t-146.5 -66.5q45 -44 45 -98q0 -60 -45 -90.5t-98 -30.5q-44 0 -81.5 22t-58.5 62q-12 22 11 36l23 13q18 11 35 -9q25 -32 61 -32q22 0 39 15.5t17 41.5q0 34 -26 64q-92 3 -157 43t-92 108q-9 22 0.5 37.5t33.5 21.5l43 10q35 9 59 -31
q39 -62 126 -62q51 0 82 21t31 55q0 54 -80 81l-91 33q-75 24 -130 73.5t-56 123.5q0 94 71 151t177 57q163 0 224 -128q11 -22 2.5 -38t-31.5 -23l-40 -11q-36 -10 -62 27q-28 46 -91 46q-39 0 -66 -19t-27 -52q0 -48 73 -75l91 -33q187 -63 190 -206z" />
    <glyph glyph-name="scedilla" unicode="&#x15f;" horiz-adv-x="473" 
d="M444 150q0 -67 -45.5 -107.5t-116.5 -50.5q41 -42 41 -95q0 -60 -45 -90.5t-98 -30.5q-44 0 -82 22.5t-58 63.5q-10 21 11 34l23 13q18 11 35 -9q27 -32 62 -32q22 0 39 15.5t17 41.5q0 34 -28 66q-118 13 -161 101q-10 23 -1 38.5t33 21.5l31 7q10 6 23 0.5t18 -9.5
t19 -18q27 -30 77 -30q29 0 47.5 12.5t18.5 32.5q0 16 -11 26t-37 19l-63 22q-145 47 -145 149q0 72 53.5 117t137.5 45q112 0 164 -78q14 -22 5.5 -39.5t-33.5 -23.5l-28 -7q-29 -8 -58 19q-19 19 -50 19q-23 0 -37.5 -12.5t-14.5 -31.5q0 -26 47 -42l64 -24
q143 -47 146 -155z" />
    <glyph glyph-name="Scaron" unicode="&#x160;" horiz-adv-x="603" 
d="M248 759q-19 0 -31 15l-69 97q-9 13 -4.5 22t19.5 9h41q19 0 31 -12l66 -65l66 65q13 12 32 12h40q16 0 20.5 -9t-4.5 -22l-71 -97q-10 -15 -30 -15h-106zM302 -11q-97 0 -166 40t-97 111q-9 22 0.5 37.5t33.5 21.5l43 10q35 9 59 -31q39 -62 126 -62q51 0 82 21t31 55
q0 54 -80 81l-91 33q-75 24 -130 73.5t-56 123.5q0 94 71 151t177 57q163 0 224 -128q11 -22 2.5 -38t-31.5 -23l-40 -11q-36 -10 -62 27q-28 46 -91 46q-39 0 -66 -19t-27 -52q0 -48 73 -75l91 -33q187 -63 190 -206q0 -99 -75 -154.5t-191 -55.5z" />
    <glyph glyph-name="scaron" unicode="&#x161;" horiz-adv-x="473" 
d="M183 578q-20 0 -30 17l-75 116q-8 12 -3.5 21t19.5 9h46q20 0 31 -14l67 -77l67 77q11 14 31 14h46q15 0 20 -9t-3 -21l-76 -116q-10 -17 -30 -17h-110zM237 -11q-148 0 -199 103q-10 23 -1 38.5t33 21.5l31 7q10 6 23 0.5t18 -9.5t19 -18q27 -30 77 -30q29 0 47.5 12.5
t18.5 32.5q0 16 -11 26t-37 19l-63 22q-145 47 -145 149q0 72 53.5 117t137.5 45q112 0 164 -78q14 -22 5.5 -39.5t-33.5 -23.5l-28 -7q-29 -8 -58 19q-19 19 -50 19q-23 0 -37.5 -12.5t-14.5 -31.5q0 -26 47 -42l64 -24q143 -47 146 -155q0 -77 -59.5 -119t-147.5 -42z" />
    <glyph glyph-name="uni0162" unicode="&#x162;" horiz-adv-x="613" 
d="M545 700q49 0 49 -48v-38q0 -48 -49 -48h-162v-518q0 -48 -48 -48h-60q-48 0 -48 48v518h-160q-48 0 -48 48v38q0 48 48 48h478zM303 -51q40 0 61 -26.5t21 -60.5q0 -108 -105 -161q-17 -9 -28 8l-5 9q-9 18 7 28q33 16 45 45q6 12 6 29l-12 -3q-27 -1 -45 17t-19 46
q0 30 20.5 49.5t53.5 19.5z" />
    <glyph glyph-name="uni0163" unicode="&#x163;" horiz-adv-x="457" 
d="M275 -11q-35 0 -65 9t-57 28.5t-42.5 56.5t-15.5 88v228h-51q-26 0 -26 25v65q0 25 26 25h63l17 104q6 32 39 32h49q35 0 35 -35v-101h116q25 0 25 -25v-65q0 -25 -25 -25h-116v-233q0 -53 42 -53q19 0 31 13t12 34q0 11 -1 18q-3 27 21 27h61q23 0 28 -20q6 -23 6 -39
q0 -79 -48.5 -118t-123.5 -39zM270 -51q40 0 61 -26.5t21 -60.5q0 -108 -105 -161q-17 -9 -28 8l-5 9q-9 18 7 28q33 16 45 45q6 12 6 29l-12 -3q-27 -1 -45 17t-19 46q0 30 20.5 49.5t53.5 19.5z" />
    <glyph glyph-name="Tcaron" unicode="&#x164;" horiz-adv-x="613" 
d="M222 774l-69 97q-9 13 -4.5 22t19.5 9h41q19 0 31 -12l66 -65l66 65q13 12 32 12h40q16 0 20.5 -9t-4.5 -22l-71 -97q-10 -15 -30 -15h-106q-19 0 -31 15zM545 700q49 0 49 -48v-38q0 -48 -49 -48h-162v-518q0 -48 -48 -48h-60q-48 0 -48 48v518h-160q-48 0 -48 48v38
q0 48 48 48h478z" />
    <glyph glyph-name="tcaron" unicode="&#x165;" horiz-adv-x="458" 
d="M426 794q39 0 60.5 -27t21.5 -60q0 -109 -105 -161q-17 -8 -28 9l-5 9q-10 16 7 27q34 18 45 45q5 15 5 29q-8 -2 -12 -2q-27 -1 -45 16.5t-18 45.5q-1 30 19.5 49.5t54.5 19.5zM275 -11q-35 0 -65 9t-57 28.5t-42.5 56.5t-15.5 88v228h-51q-26 0 -26 25v65q0 25 26 25
h63l17 104q6 32 39 32h49q35 0 35 -35v-101h116q25 0 25 -25v-65q0 -25 -25 -25h-116v-233q0 -53 42 -53q19 0 31 13t12 34q0 11 -1 18q-3 27 21 27h61q23 0 28 -20q6 -23 6 -39q0 -79 -48.5 -118t-123.5 -39z" />
    <glyph glyph-name="Tbar" unicode="&#x166;" horiz-adv-x="624" 
d="M281 0q-48 0 -48 48v267h-105q-25 0 -25 25v33q0 25 25 25h105v168h-160q-48 0 -48 48v38q0 48 48 48h478q48 0 48 -48v-38q0 -48 -48 -48h-162v-168h108q26 0 26 -25v-33q0 -25 -26 -25h-108v-267q0 -48 -48 -48h-60z" />
    <glyph glyph-name="tbar" unicode="&#x167;" horiz-adv-x="457" 
d="M441 185q6 -23 6 -39q0 -79 -48.5 -118t-123.5 -39q-35 0 -65 9t-57 28.5t-42.5 56.5t-15.5 88v83h-42q-23 0 -23 23v18q0 22 23 22h42v82h-51q-26 0 -26 25v65q0 25 26 25h63l17 104q6 32 39 32h49q35 0 35 -35v-101h116q25 0 25 -25v-65q0 -25 -25 -25h-116v-82h82
q22 0 22 -22v-18q0 -23 -22 -23h-82v-88q0 -53 42 -53q19 0 31 13t12 34q0 11 -1 18q-3 27 21 27h61q23 0 28 -20z" />
    <glyph glyph-name="Utilde" unicode="&#x168;" horiz-adv-x="719" 
d="M249 782q-12 -20 -33 -14l-20 6q-25 10 -16 33q16 47 39 71t64 24q32 0 79.5 -23t60.5 -23q32 0 48 29q12 21 33 14l20 -6q24 -8 16 -33q-17 -47 -39.5 -70.5t-63.5 -23.5q-32 0 -79.5 22.5t-60.5 22.5q-32 0 -48 -29zM359 -11q-124 0 -207 73t-83 203v387q0 48 49 48h62
q48 0 48 -48v-387q0 -65 37.5 -101.5t93.5 -36.5t94 36.5t38 101.5v387q0 48 49 48h62q48 0 48 -48v-387q0 -130 -83.5 -203t-207.5 -73z" />
    <glyph glyph-name="utilde" unicode="&#x169;" horiz-adv-x="616" 
d="M193 606q-10 -22 -33 -14l-20 6q-24 9 -16 33q16 50 39 75.5t65 25.5q32 0 79.5 -24t60.5 -24q32 0 48 31q10 20 33 14l20 -7q24 -9 16 -32q-17 -51 -40 -76t-64 -25q-32 0 -79.5 23.5t-60.5 23.5q-31 0 -48 -30zM242 -11q-96 0 -141.5 64.5t-45.5 164.5v248q0 48 48 48
h59q48 0 48 -48v-237q0 -55 21 -85t60 -30q43 0 75.5 35.5t32.5 102.5v214q0 48 48 48h58q49 0 49 -48v-418q0 -48 -49 -48h-58q-48 0 -48 48v33q-41 -92 -157 -92z" />
    <glyph glyph-name="Umacron" unicode="&#x16a;" horiz-adv-x="719" 
d="M229 775q-25 0 -25 25v48q0 25 25 25h262q25 0 25 -25v-48q0 -25 -25 -25h-262zM359 -11q-124 0 -207 73t-83 203v387q0 48 49 48h62q48 0 48 -48v-387q0 -65 37.5 -101.5t93.5 -36.5t94 36.5t38 101.5v387q0 48 49 48h62q48 0 48 -48v-387q0 -130 -83.5 -203t-207.5 -73
z" />
    <glyph glyph-name="umacron" unicode="&#x16b;" horiz-adv-x="616" 
d="M174 609q-25 0 -25 26v48q0 25 25 25h261q26 0 26 -25v-48q0 -26 -26 -26h-261zM242 -11q-96 0 -141.5 64.5t-45.5 164.5v248q0 48 48 48h59q48 0 48 -48v-237q0 -55 21 -85t60 -30q43 0 75.5 35.5t32.5 102.5v214q0 48 48 48h58q49 0 49 -48v-418q0 -48 -49 -48h-58
q-48 0 -48 48v33q-41 -92 -157 -92z" />
    <glyph glyph-name="Ubreve" unicode="&#x16c;" horiz-adv-x="719" 
d="M360 754q-50 0 -96 28.5t-61 91.5q-6 26 22 29l38 5q21 3 29 -21q18 -49 68 -49q53 0 69 49q9 23 29 21l39 -4q13 -2 18 -13.5t-1 -31.5q-18 -55 -62 -80t-92 -25zM359 -11q-124 0 -207 73t-83 203v387q0 48 49 48h62q48 0 48 -48v-387q0 -65 37.5 -101.5t93.5 -36.5
t94 36.5t38 101.5v387q0 48 49 48h62q48 0 48 -48v-387q0 -130 -83.5 -203t-207.5 -73z" />
    <glyph glyph-name="ubreve" unicode="&#x16d;" horiz-adv-x="616" 
d="M306 578q-32 0 -62.5 10t-59 40t-38.5 77q-6 26 21 29l40 5q21 3 29 -22q14 -49 70 -49t70 49q8 25 29 22l40 -5q29 -4 17 -46q-18 -58 -63 -84t-93 -26zM242 -11q-96 0 -141.5 64.5t-45.5 164.5v248q0 48 48 48h59q48 0 48 -48v-237q0 -55 21 -85t60 -30q43 0 75.5 35.5
t32.5 102.5v214q0 48 48 48h58q49 0 49 -48v-418q0 -48 -49 -48h-58q-48 0 -48 48v33q-41 -92 -157 -92z" />
    <glyph glyph-name="Uring" unicode="&#x16e;" horiz-adv-x="719" 
d="M360 745q-53 0 -88.5 29t-35.5 79q0 51 35 80.5t89 29.5t89.5 -29.5t35.5 -80.5q0 -50 -35.5 -79t-89.5 -29zM360 803q24 0 39.5 14t15.5 36t-15.5 35.5t-39.5 13.5t-39.5 -13.5t-15.5 -35.5t16 -36t39 -14zM359 -11q-124 0 -207 73t-83 203v387q0 48 49 48h62
q48 0 48 -48v-387q0 -65 37.5 -101.5t93.5 -36.5t94 36.5t38 101.5v387q0 48 49 48h62q48 0 48 -48v-387q0 -130 -83.5 -203t-207.5 -73z" />
    <glyph glyph-name="uring" unicode="&#x16f;" horiz-adv-x="616" 
d="M303 578q-52 0 -88 31.5t-36 81.5q0 51 36 83t88 32q54 0 90 -32t36 -83q0 -50 -36 -81.5t-90 -31.5zM303 639q24 0 39.5 15t15.5 37t-15.5 36.5t-39.5 14.5q-23 0 -39 -14.5t-16 -36.5t16 -37t39 -15zM242 -11q-96 0 -141.5 64.5t-45.5 164.5v248q0 48 48 48h59
q48 0 48 -48v-237q0 -55 21 -85t60 -30q43 0 75.5 35.5t32.5 102.5v214q0 48 48 48h58q49 0 49 -48v-418q0 -48 -49 -48h-58q-48 0 -48 48v33q-41 -92 -157 -92z" />
    <glyph glyph-name="Uhungarumlaut" unicode="&#x170;" horiz-adv-x="719" 
d="M242 759q-15 0 -20 8.5t2 21.5l53 95q11 18 31 18h42q15 0 20 -9t-3 -22l-58 -96q-9 -16 -31 -16h-36zM411 759q-14 0 -19 8.5t2 21.5l53 95q9 18 30 18h42q16 0 20.5 -9t-3.5 -22l-58 -96q-9 -16 -30 -16h-37zM359 -11q-124 0 -207 73t-83 203v387q0 48 49 48h62
q48 0 48 -48v-387q0 -65 37.5 -101.5t93.5 -36.5t94 36.5t38 101.5v387q0 48 49 48h62q48 0 48 -48v-387q0 -130 -83.5 -203t-207.5 -73z" />
    <glyph glyph-name="uhungarumlaut" unicode="&#x171;" horiz-adv-x="616" 
d="M193 578q-15 0 -20.5 8.5t1.5 21.5l65 115q9 18 30 18h42q15 0 20 -9t-3 -21l-69 -116q-9 -17 -30 -17h-36zM362 578q-15 0 -20 8.5t2 21.5l64 115q11 18 30 18h43q15 0 19.5 -9t-3.5 -21l-68 -116q-10 -17 -31 -17h-36zM242 -11q-96 0 -141.5 64.5t-45.5 164.5v248
q0 48 48 48h59q48 0 48 -48v-237q0 -55 21 -85t60 -30q43 0 75.5 35.5t32.5 102.5v214q0 48 48 48h58q49 0 49 -48v-418q0 -48 -49 -48h-58q-48 0 -48 48v33q-41 -92 -157 -92z" />
    <glyph glyph-name="Uogonek" unicode="&#x172;" horiz-adv-x="719" 
d="M602 700q48 0 48 -48v-387q0 -123 -75 -195t-190 -80q-26 -32 -26 -65q0 -26 17 -41.5t39 -15.5q35 0 62 32q15 20 35 9l22 -13q23 -13 11 -36q-21 -40 -58.5 -62t-81.5 -22q-53 0 -98 31t-45 90q0 55 44 96q-105 16 -171 86.5t-66 185.5v387q0 48 49 48h62q48 0 48 -48
v-387q0 -65 37.5 -101.5t93.5 -36.5t94 36.5t38 101.5v387q0 48 49 48h62z" />
    <glyph glyph-name="uogonek" unicode="&#x173;" horiz-adv-x="616" 
d="M615 -104q23 -14 11 -36q-21 -40 -58.5 -62t-81.5 -22q-53 0 -98 30.5t-45 90.5q0 62 56 107v77q-41 -92 -157 -92q-96 0 -141.5 64.5t-45.5 164.5v248q0 48 48 48h59q48 0 48 -48v-237q0 -55 21 -85t60 -30q43 0 75.5 35.5t32.5 102.5v214q0 48 48 48h58q49 0 49 -48
v-418q0 -48 -49 -48h-28q-37 -33 -37 -75q0 -26 17 -41.5t39 -15.5q36 0 61 32q17 20 35 9z" />
    <glyph glyph-name="Wcircumflex" unicode="&#x174;" horiz-adv-x="991" 
d="M357 759q-15 0 -19.5 8.5t4.5 21.5l69 97q12 16 31 16h106q20 0 30 -16l71 -97q9 -13 4.5 -21.5t-20.5 -8.5h-40q-20 0 -32 12l-66 65l-66 -65q-11 -12 -31 -12h-41zM282 0q-41 0 -55 40l-190 605q-7 25 4 40t36 15h62q43 0 54 -41l117 -393l115 371q12 40 54 40h34
q42 0 54 -40l114 -371l117 393q11 41 53 41h63q26 0 37 -15t3 -40l-190 -605q-14 -40 -55 -40h-42q-42 0 -54 40l-118 388l-117 -388q-13 -40 -54 -40h-42z" />
    <glyph glyph-name="wcircumflex" unicode="&#x175;" horiz-adv-x="825" 
d="M269 578q-15 0 -20 8.5t3 21.5l75 116q11 17 30 17h110q19 0 30 -17l76 -116q8 -13 3 -21.5t-20 -8.5h-45q-20 0 -31 14l-67 77l-67 -77q-13 -14 -31 -14h-46zM238 0q-42 0 -55 39l-149 419q-10 25 1 40.5t38 15.5h66q43 0 54 -41l81 -264l77 250q12 41 54 41h15
q42 0 54 -41l78 -250l80 264q11 41 54 41h66q27 0 38 -15.5t2 -40.5l-150 -419q-13 -39 -55 -39h-43q-42 0 -55 40l-76 247l-77 -247q-12 -40 -55 -40h-43z" />
    <glyph glyph-name="Ycircumflex" unicode="&#x176;" horiz-adv-x="727" 
d="M226 759q-15 0 -19.5 8.5t4.5 21.5l69 97q12 16 31 16h106q20 0 30 -16l71 -97q9 -13 4.5 -21.5t-20.5 -8.5h-40q-20 0 -32 12l-66 65l-66 -65q-11 -12 -31 -12h-41zM333 0q-48 0 -48 48v237l-243 357q-17 24 -7.5 41t38.5 17h79q39 0 58 -32l154 -249l154 249
q20 32 58 32h79q29 0 38.5 -17t-7.5 -41l-243 -355v-239q0 -48 -48 -48h-62z" />
    <glyph glyph-name="ycircumflex" unicode="&#x177;" horiz-adv-x="592" 
d="M154 578q-15 0 -20 8.5t3 21.5l75 116q11 17 30 17h110q19 0 30 -17l76 -116q8 -13 3 -21.5t-20 -8.5h-45q-20 0 -31 14l-67 77l-67 -77q-13 -14 -31 -14h-46zM175 -224q-27 0 -37.5 15.5t0.5 40.5l84 203l-190 422q-11 25 -0.5 41t37.5 16h68q43 0 56 -39l105 -279
l106 279q14 39 56 39h65q27 0 37 -16t0 -41l-281 -644q-16 -37 -56 -37h-50z" />
    <glyph glyph-name="Ydieresis" unicode="&#x178;" horiz-adv-x="727" 
d="M242 756q-35 0 -57 20t-22 52t22 52.5t57 20.5q34 0 57 -20.5t23 -52.5q0 -31 -23 -51.5t-57 -20.5zM484 756q-35 0 -57 20.5t-22 51.5q0 32 22 52.5t57 20.5t57.5 -20.5t22.5 -52.5q0 -31 -22.5 -51.5t-57.5 -20.5zM333 0q-48 0 -48 48v237l-243 357q-17 24 -7.5 41
t38.5 17h79q39 0 58 -32l154 -249l154 249q20 32 58 32h79q29 0 38.5 -17t-7.5 -41l-243 -355v-239q0 -48 -48 -48h-62z" />
    <glyph glyph-name="Zacute" unicode="&#x179;" horiz-adv-x="667" 
d="M283 759q-14 0 -19.5 8t1.5 21l50 96q9 18 30 18h91q16 0 20.5 -9t-5.5 -22l-80 -98q-12 -14 -31 -14h-57zM73 0q-48 0 -48 48v20q0 34 21 59l355 439h-299q-48 0 -48 48v38q0 48 48 48h463q49 0 49 -48v-21q0 -32 -22 -60l-357 -437h355q49 0 49 -48v-38q0 -48 -49 -48
h-517z" />
    <glyph glyph-name="zacute" unicode="&#x17a;" horiz-adv-x="584" 
d="M245 578q-15 0 -20 8t2 22l61 115q9 18 30 18h99q16 0 20 -9t-6 -22l-98 -118q-11 -14 -31 -14h-57zM79 0q-48 0 -48 48v6q0 34 23 60l261 280h-223q-48 0 -48 48v24q0 48 48 48h396q48 0 48 -48v-7q0 -34 -23 -60l-260 -279h252q49 0 49 -48v-24q-2 -48 -49 -48h-426z
" />
    <glyph glyph-name="Zdotaccent" unicode="&#x17b;" horiz-adv-x="667" 
d="M333 753q-38 0 -61.5 21t-23.5 55q0 35 23.5 56.5t61.5 21.5q36 0 60 -22t24 -56q0 -33 -24 -54.5t-60 -21.5zM73 0q-48 0 -48 48v20q0 34 21 59l355 439h-299q-48 0 -48 48v38q0 48 48 48h463q49 0 49 -48v-21q0 -32 -22 -60l-357 -437h355q49 0 49 -48v-38
q0 -48 -49 -48h-517z" />
    <glyph glyph-name="zdotaccent" unicode="&#x17c;" horiz-adv-x="584" 
d="M292 579q-38 0 -62 21.5t-24 55.5q0 35 24 57t62 22q37 0 61 -22t24 -57q0 -34 -24 -55.5t-61 -21.5zM79 0q-48 0 -48 48v6q0 34 23 60l261 280h-223q-48 0 -48 48v24q0 48 48 48h396q48 0 48 -48v-7q0 -34 -23 -60l-260 -279h252q49 0 49 -48v-24q-2 -48 -49 -48h-426z
" />
    <glyph glyph-name="Zcaron" unicode="&#x17d;" horiz-adv-x="667" 
d="M278 759q-19 0 -31 15l-69 97q-9 13 -4.5 22t19.5 9h41q19 0 31 -12l66 -65l66 65q13 12 32 12h40q16 0 20.5 -9t-4.5 -22l-71 -97q-10 -15 -30 -15h-106zM73 0q-48 0 -48 48v20q0 34 21 59l355 439h-299q-48 0 -48 48v38q0 48 48 48h463q49 0 49 -48v-21q0 -32 -22 -60
l-357 -437h355q49 0 49 -48v-38q0 -48 -49 -48h-517z" />
    <glyph glyph-name="zcaron" unicode="&#x17e;" horiz-adv-x="584" 
d="M237 578q-20 0 -30 17l-75 116q-8 12 -3.5 21t19.5 9h46q20 0 31 -14l67 -77l67 77q11 14 31 14h46q15 0 20 -9t-3 -21l-76 -116q-10 -17 -30 -17h-110zM79 0q-48 0 -48 48v6q0 34 23 60l261 280h-223q-48 0 -48 48v24q0 48 48 48h396q48 0 48 -48v-7q0 -34 -23 -60
l-260 -279h252q49 0 49 -48v-24q-2 -48 -49 -48h-426z" />
    <glyph glyph-name="longs" unicode="&#x17f;" horiz-adv-x="400" 
d="M145 0q-48 0 -48 48v351h-46q-25 0 -25 25v58q0 25 25 25h46v33q0 56 17 96t46.5 60.5t60 29t66.5 8.5q73 0 122.5 -35t49.5 -102q0 -6 -2 -16q-3 -19 -24 -19h-72q-21 0 -21 18v6q0 14 -12.5 23.5t-30.5 9.5q-46 0 -46 -59v-512q0 -48 -49 -48h-57z" />
    <glyph glyph-name="florin" unicode="&#x192;" horiz-adv-x="433" 
d="M91 -235q-52 0 -97 17q-21 9 -13 33l20 57q7 22 30 16q18 -5 32 -5q54 0 54 66v354h-46q-26 0 -26 26v61q0 25 26 25h46v117q0 103 50 147t128 44q54 0 96 -15q22 -9 14 -33l-21 -58q-7 -21 -30 -15q-12 3 -29 3q-56 0 -56 -65v-125h89q25 0 25 -25v-61q0 -26 -25 -26
h-89v-347q0 -103 -50 -147t-128 -44z" />
    <glyph glyph-name="Aringacute" unicode="&#x1fa;" horiz-adv-x="703" 
d="M350 723q-44 0 -74.5 27.5t-30.5 70.5q0 32 17.5 55.5t45.5 34.5l42 72q8 12 21 12h79q11 0 14 -6t-3 -15l-55 -69q50 -27 50 -84q0 -43 -30.5 -70.5t-75.5 -27.5zM350 776q22 0 36.5 12t14.5 33t-14.5 33t-36.5 12t-36.5 -12t-14.5 -33t14.5 -33t36.5 -12zM63 0
q-27 0 -37 15t-1 40l234 607q14 38 56 38h71q41 0 56 -38l237 -607q9 -25 -1 -40t-37 -15h-65q-41 0 -56 38l-35 92h-270l-34 -91q-15 -39 -55 -39h-63zM246 255h207l-102 282z" />
    <glyph glyph-name="aringacute" unicode="&#x1fb;" horiz-adv-x="660" 
d="M308 567q-44 0 -74.5 27.5t-30.5 70.5q0 32 17.5 55.5t46.5 34.5l41 72q8 12 21 12h79q11 0 14.5 -6t-3.5 -15l-55 -69q50 -27 50 -84q0 -43 -30.5 -70.5t-75.5 -27.5zM308 620q23 0 37.5 12t14.5 33t-14.5 33t-37.5 12q-22 0 -36.5 -12t-14.5 -33t14.5 -33t36.5 -12z
M278 -11q-107 0 -177 76.5t-70 191.5q0 114 70 191t177 77q111 0 165 -84v25q0 48 48 48h59q48 0 48 -48v-418q0 -48 -48 -48h-59q-48 0 -48 48v24q-54 -83 -165 -83zM314 113q58 0 94.5 41t36.5 103t-36.5 103t-94.5 41q-59 0 -93.5 -41.5t-34.5 -102.5q0 -62 34.5 -103
t93.5 -41z" />
    <glyph glyph-name="AEacute" unicode="&#x1fc;" horiz-adv-x="949" 
d="M481 759q-14 0 -19.5 8t1.5 21l50 96q9 18 30 18h91q16 0 20.5 -9t-5.5 -22l-80 -98q-12 -14 -31 -14h-57zM55 0q-28 0 -37.5 16t3.5 41l324 608q17 35 56 35h455q48 0 48 -48v-38q0 -48 -48 -48h-243v-163h207q49 0 49 -49v-26q0 -49 -49 -49h-207v-145h243q48 0 48 -48
v-38q0 -48 -48 -48h-353q-49 0 -49 48v151h-194l-85 -164q-17 -35 -57 -35h-63zM325 328h129v238h-14z" />
    <glyph glyph-name="aeacute" unicode="&#x1fd;" horiz-adv-x="962" 
d="M456 578q-15 0 -20 8t2 22l61 115q9 18 30 18h99q16 0 20 -9t-6 -22l-98 -118q-11 -14 -31 -14h-57zM228 -11q-86 0 -144.5 45.5t-58.5 122.5q0 76 59.5 119t153.5 43q92 0 154 -31v18q0 47 -32.5 73t-87.5 26q-60 0 -116 -26q-45 -20 -65 20l-6 13q-21 43 16 65
q80 48 192 48q124 0 183 -77q75 77 195 77q109 0 184.5 -66.5t80.5 -178.5q2 -49 -49 -49h-350q-1 -48 43 -84t115 -36q54 0 108 30q43 24 67 -9l12 -14q30 -40 -7 -68q-76 -61 -190 -61q-152 0 -233 102q-35 -52 -96 -77t-128 -25zM543 317h251q-10 48 -43.5 69.5
t-77.5 21.5q-45 0 -81.5 -22t-48.5 -69zM275 97q36 0 73 18t60 50q-9 28 -10 48q-56 22 -125 22q-43 0 -67.5 -19.5t-24.5 -49.5q0 -28 24 -48.5t70 -20.5z" />
    <glyph glyph-name="Oslashacute" unicode="&#x1fe;" horiz-adv-x="813" 
d="M387 759q-14 0 -19.5 8t1.5 21l50 96q9 18 30 18h91q16 0 20.5 -9t-5.5 -22l-80 -98q-12 -14 -31 -14h-57zM209 -27q-14 -22 -36 -7l-28 20q-22 14 -7 35l32 47q-64 50 -99.5 123.5t-35.5 158.5q0 151 105 256t266 105q95 0 171 -39l34 50q14 22 35 7l29 -20
q20 -15 6 -35l-32 -48q61 -50 94.5 -122t33.5 -154q0 -151 -105 -256t-266 -105q-89 0 -163 34zM254 192l242 360q-44 21 -90 21q-92 0 -151.5 -64.5t-59.5 -158.5t59 -158zM406 127q92 0 152 64.5t60 158.5q0 87 -53 150l-241 -357q38 -16 82 -16z" />
    <glyph glyph-name="oslashacute" unicode="&#x1ff;" horiz-adv-x="628" 
d="M288 578q-15 0 -20 8t2 22l61 115q9 18 30 18h99q16 0 20 -9t-6 -22l-98 -118q-11 -14 -31 -14h-57zM124 -12q-17 -19 -36 -2l-18 18q-18 16 -2 35l33 37q-71 76 -71 181q0 112 81.5 190t202.5 78q81 0 150 -40l39 44q18 19 35 2l19 -17q18 -17 1 -36l-34 -39
q75 -77 75 -182q0 -112 -81.5 -190t-203.5 -78q-84 0 -153 41zM196 183l178 201q-27 15 -60 15q-58 0 -97.5 -41t-39.5 -102q0 -38 19 -73zM314 114q58 0 98 41t40 101q0 42 -21 78l-180 -203q31 -17 63 -17z" />
    <glyph glyph-name="Scommaaccent" unicode="&#x218;" horiz-adv-x="603" 
d="M302 -11q-97 0 -166 40t-97 111q-9 22 0.5 37.5t33.5 21.5l43 10q35 9 59 -31q39 -62 126 -62q51 0 82 21t31 55q0 54 -80 81l-91 33q-75 24 -130 73.5t-56 123.5q0 94 71 151t177 57q163 0 224 -128q11 -22 2.5 -38t-31.5 -23l-40 -11q-36 -10 -62 27q-28 46 -91 46
q-39 0 -66 -19t-27 -52q0 -48 73 -75l91 -33q187 -63 190 -206q0 -99 -75 -154.5t-191 -55.5zM297 -51q40 0 61 -26.5t21 -60.5q0 -108 -105 -161q-17 -9 -28 8l-5 9q-9 18 7 28q33 16 45 45q6 12 6 29l-12 -3q-27 -1 -45 17t-19 46q0 30 20.5 49.5t53.5 19.5z" />
    <glyph glyph-name="scommaaccent" unicode="&#x219;" horiz-adv-x="473" 
d="M237 -11q-148 0 -199 103q-10 23 -1 38.5t33 21.5l31 7q10 6 23 0.5t18 -9.5t19 -18q27 -30 77 -30q29 0 47.5 12.5t18.5 32.5q0 16 -11 26t-37 19l-63 22q-145 47 -145 149q0 72 53.5 117t137.5 45q112 0 164 -78q14 -22 5.5 -39.5t-33.5 -23.5l-28 -7q-29 -8 -58 19
q-19 19 -50 19q-23 0 -37.5 -12.5t-14.5 -31.5q0 -26 47 -42l64 -24q143 -47 146 -155q0 -77 -59.5 -119t-147.5 -42zM232 -51q40 0 61 -26.5t21 -60.5q0 -108 -105 -161q-17 -9 -28 8l-5 9q-9 18 7 28q33 16 45 45q6 12 6 29l-12 -3q-27 -1 -45 17t-19 46q0 30 20.5 49.5
t53.5 19.5z" />
    <glyph glyph-name="uni021A" unicode="&#x21a;" horiz-adv-x="613" 
d="M268 -224q-44 0 -81.5 22t-58.5 62q-12 23 11 36l22 13q20 11 35 -9q27 -32 62 -32q22 0 39 15.5t17 41.5q0 42 -37 75h-9q-41 0 -41 48v518h-160q-48 0 -48 48v38q0 48 48 48h478q49 0 49 -48v-38q0 -48 -49 -48h-162v-518q0 -34 -27 -45q55 -46 55 -106q0 -59 -45 -90
t-98 -31z" />
    <glyph glyph-name="uni021B" unicode="&#x21b;" horiz-adv-x="457" 
d="M447 146q0 -70 -39 -109.5t-104 -45.5q41 -42 41 -94q0 -59 -45 -90t-98 -31q-44 0 -81.5 22t-58.5 62q-12 23 11 36l22 13q20 11 35 -9q27 -32 62 -32q22 0 39 15.5t17 41.5q0 38 -32 71q-121 32 -121 175v228h-51q-26 0 -26 25v65q0 25 26 25h63l17 104q6 32 39 32h49
q35 0 35 -35v-101h116q25 0 25 -25v-65q0 -25 -25 -25h-116v-233q0 -53 42 -53q19 0 31 13t12 34q0 11 -1 18q-3 27 21 27h61q23 0 28 -20q6 -23 6 -39z" />
    <glyph glyph-name="circumflex" unicode="&#x2c6;" horiz-adv-x="615" 
d="M164 578q-15 0 -20 8.5t3 21.5l75 116q11 17 30 17h110q19 0 30 -17l76 -116q8 -13 3 -21.5t-20 -8.5h-45q-20 0 -31 14l-67 77l-67 -77q-13 -14 -31 -14h-46z" />
    <glyph glyph-name="caron" unicode="&#x2c7;" horiz-adv-x="609" 
d="M249 578q-20 0 -30 17l-75 116q-8 12 -3.5 21t19.5 9h46q20 0 31 -14l67 -77l67 77q11 14 31 14h46q15 0 20 -9t-3 -21l-76 -116q-10 -17 -30 -17h-110z" />
    <glyph glyph-name="uni02C9" unicode="&#x2c9;" horiz-adv-x="561" 
d="M150 609q-25 0 -25 26v48q0 25 25 25h261q26 0 26 -25v-48q0 -26 -26 -26h-261z" />
    <glyph glyph-name="breve" unicode="&#x2d8;" horiz-adv-x="550" 
d="M275 578q-32 0 -62.5 10t-59 40t-38.5 77q-6 26 21 29l40 5q21 3 29 -22q14 -49 70 -49t70 49q8 25 29 22l40 -5q29 -4 17 -46q-18 -58 -63 -84t-93 -26z" />
    <glyph glyph-name="dotaccent" unicode="&#x2d9;" horiz-adv-x="374" 
d="M187 579q-38 0 -62 21.5t-24 55.5q0 35 24 57t62 22q37 0 61 -22t24 -57q0 -34 -24 -55.5t-61 -21.5z" />
    <glyph glyph-name="ring" unicode="&#x2da;" horiz-adv-x="452" 
d="M225 578q-52 0 -88 31.5t-36 81.5q0 51 36 83t88 32q54 0 90 -32t36 -83q0 -50 -36 -81.5t-90 -31.5zM225 639q24 0 39.5 15t15.5 37t-15.5 36.5t-39.5 14.5q-23 0 -39 -14.5t-16 -36.5t16 -37t39 -15z" />
    <glyph glyph-name="ogonek" unicode="&#x2db;" horiz-adv-x="514" 
d="M254 -224q-53 0 -98 30.5t-45 90.5q0 82 95 127q13 7 41 7q14 0 14 -13v-10l-15 -8q-38 -32 -38 -75q0 -26 17 -41.5t39 -15.5q36 0 61 32q17 20 35 9l23 -13q23 -14 11 -36q-21 -40 -58.5 -62t-81.5 -22z" />
    <glyph glyph-name="tilde" unicode="&#x2dc;" horiz-adv-x="593" 
d="M185 606q-10 -22 -33 -14l-20 6q-24 9 -16 33q16 50 39 75.5t65 25.5q32 0 79.5 -24t60.5 -24q32 0 48 31q10 20 33 14l20 -7q24 -9 16 -32q-17 -51 -40 -76t-64 -25q-32 0 -79.5 23.5t-60.5 23.5q-31 0 -48 -30z" />
    <glyph glyph-name="hungarumlaut" unicode="&#x2dd;" horiz-adv-x="579" 
d="M146 578q-15 0 -20.5 8.5t1.5 21.5l65 115q9 18 30 18h42q15 0 20 -9t-3 -21l-69 -116q-9 -17 -30 -17h-36zM315 578q-15 0 -20 8.5t2 21.5l64 115q11 18 30 18h43q15 0 19.5 -9t-3.5 -21l-68 -116q-10 -17 -31 -17h-36z" />
    <glyph glyph-name="uni0394" unicode="&#x394;" horiz-adv-x="761" 
d="M86 0q-28 0 -38.5 15.5t-0.5 40.5l242 606q16 38 56 38h79q41 0 56 -38l231 -607q10 -25 -1 -40t-38 -15h-586zM234 126h292l-143 404z" />
    <glyph glyph-name="uni03A9" unicode="&#x3a9;" horiz-adv-x="804" 
d="M104 0q-49 0 -49 48v26q0 48 49 48h86q-60 27 -103.5 99.5t-43.5 162.5q0 137 98 232t260 95q163 0 261.5 -95t98.5 -232q0 -88 -43.5 -161t-103.5 -101h86q49 0 49 -48v-26q0 -48 -49 -48h-201q-48 0 -48 48v37q0 36 36 57q62 33 96 90t34 125q0 101 -62 164t-154 63
q-91 0 -152.5 -63t-61.5 -164q0 -69 33 -126t95 -89q37 -21 37 -57v-37q0 -48 -49 -48h-199z" />
    <glyph glyph-name="uni03BC" unicode="&#x3bc;" horiz-adv-x="622" 
d="M110 -165q-48 0 -48 48v583q0 48 48 48h58q49 0 49 -48v-248q0 -48 21 -76t59 -28q44 0 76 35.5t32 102.5v214q0 48 48 48h59q48 0 48 -48v-418q0 -48 -48 -48h-59q-48 0 -48 48v33q-33 -80 -136 -85q-36 -1 -66 9v-122q0 -48 -49 -48h-44z" />
    <glyph glyph-name="pi" unicode="&#x3c0;" horiz-adv-x="763" 
d="M582 -11q-36 0 -67.5 8.5t-61.5 29t-47.5 60.5t-17.5 96v208h-113v-366q0 -25 -25 -25h-104q-26 0 -26 25v366h-73q-25 0 -25 25v73q0 25 25 25h583q26 0 26 -25v-73q0 -25 -26 -25h-92v-224q1 -32 15.5 -48t36.5 -16q42 0 45 35v7q0 16 20 16h70q24 0 27 -18q1 -8 1 -17
q0 -67 -49.5 -102t-121.5 -35z" />
    <glyph glyph-name="Wgrave" unicode="&#x1e80;" horiz-adv-x="991" 
d="M450 759q-18 0 -30 14l-80 98q-10 13 -6 22t20 9h91q21 0 30 -18l50 -96q7 -13 1.5 -21t-19.5 -8h-57zM282 0q-41 0 -55 40l-190 605q-7 25 4 40t36 15h62q43 0 54 -41l117 -393l115 371q12 40 54 40h34q42 0 54 -40l114 -371l117 393q11 41 53 41h63q26 0 37 -15t3 -40
l-190 -605q-14 -40 -55 -40h-42q-42 0 -54 40l-118 388l-117 -388q-13 -40 -54 -40h-42z" />
    <glyph glyph-name="wgrave" unicode="&#x1e81;" horiz-adv-x="825" 
d="M370 578q-18 0 -31 14l-98 118q-10 13 -6 22t20 9h99q21 0 30 -18l61 -115q7 -14 2 -22t-20 -8h-57zM238 0q-42 0 -55 39l-149 419q-10 25 1 40.5t38 15.5h66q43 0 54 -41l81 -264l77 250q12 41 54 41h15q42 0 54 -41l78 -250l80 264q11 41 54 41h66q27 0 38 -15.5
t2 -40.5l-150 -419q-13 -39 -55 -39h-43q-42 0 -55 40l-76 247l-77 -247q-12 -40 -55 -40h-43z" />
    <glyph glyph-name="Wacute" unicode="&#x1e82;" horiz-adv-x="991" 
d="M467 759q-14 0 -19.5 8t1.5 21l50 96q9 18 30 18h91q16 0 20.5 -9t-5.5 -22l-80 -98q-12 -14 -31 -14h-57zM282 0q-41 0 -55 40l-190 605q-7 25 4 40t36 15h62q43 0 54 -41l117 -393l115 371q12 40 54 40h34q42 0 54 -40l114 -371l117 393q11 41 53 41h63q26 0 37 -15
t3 -40l-190 -605q-14 -40 -55 -40h-42q-42 0 -54 40l-118 388l-117 -388q-13 -40 -54 -40h-42z" />
    <glyph glyph-name="wacute" unicode="&#x1e83;" horiz-adv-x="825" 
d="M388 578q-15 0 -20 8t2 22l61 115q9 18 30 18h99q16 0 20 -9t-6 -22l-98 -118q-11 -14 -31 -14h-57zM238 0q-42 0 -55 39l-149 419q-10 25 1 40.5t38 15.5h66q43 0 54 -41l81 -264l77 250q12 41 54 41h15q42 0 54 -41l78 -250l80 264q11 41 54 41h66q27 0 38 -15.5
t2 -40.5l-150 -419q-13 -39 -55 -39h-43q-42 0 -55 40l-76 247l-77 -247q-12 -40 -55 -40h-43z" />
    <glyph glyph-name="Wdieresis" unicode="&#x1e84;" horiz-adv-x="991" 
d="M374 756q-35 0 -57 20t-22 52t22 52.5t57 20.5q34 0 57 -20.5t23 -52.5q0 -31 -23 -51.5t-57 -20.5zM616 756q-35 0 -57 20.5t-22 51.5q0 32 22 52.5t57 20.5t57.5 -20.5t22.5 -52.5q0 -31 -22.5 -51.5t-57.5 -20.5zM282 0q-41 0 -55 40l-190 605q-7 25 4 40t36 15h62
q43 0 54 -41l117 -393l115 371q12 40 54 40h34q42 0 54 -40l114 -371l117 393q11 41 53 41h63q26 0 37 -15t3 -40l-190 -605q-14 -40 -55 -40h-42q-42 0 -54 40l-118 388l-117 -388q-13 -40 -54 -40h-42z" />
    <glyph glyph-name="wdieresis" unicode="&#x1e85;" horiz-adv-x="825" 
d="M292 585q-35 0 -58.5 21t-23.5 53t23.5 53.5t58.5 21.5q34 0 58 -21.5t24 -53.5t-24 -53t-58 -21zM534 585q-35 0 -58.5 21t-23.5 53t23.5 53.5t58.5 21.5t59 -21.5t24 -53.5t-24 -53t-59 -21zM238 0q-42 0 -55 39l-149 419q-10 25 1 40.5t38 15.5h66q43 0 54 -41
l81 -264l77 250q12 41 54 41h15q42 0 54 -41l78 -250l80 264q11 41 54 41h66q27 0 38 -15.5t2 -40.5l-150 -419q-13 -39 -55 -39h-43q-42 0 -55 40l-76 247l-77 -247q-12 -40 -55 -40h-43z" />
    <glyph glyph-name="Ygrave" unicode="&#x1ef2;" horiz-adv-x="727" 
d="M331 759q-18 0 -30 14l-80 98q-10 13 -6 22t20 9h91q21 0 30 -18l50 -96q7 -13 1.5 -21t-19.5 -8h-57zM333 0q-48 0 -48 48v237l-243 357q-17 24 -7.5 41t38.5 17h79q39 0 58 -32l154 -249l154 249q20 32 58 32h79q29 0 38.5 -17t-7.5 -41l-243 -355v-239q0 -48 -48 -48
h-62z" />
    <glyph glyph-name="ygrave" unicode="&#x1ef3;" horiz-adv-x="592" 
d="M277 578q-18 0 -31 14l-98 118q-10 13 -6 22t20 9h99q21 0 30 -18l61 -115q7 -14 2 -22t-20 -8h-57zM175 -224q-27 0 -37.5 15.5t0.5 40.5l84 203l-190 422q-11 25 -0.5 41t37.5 16h68q43 0 56 -39l105 -279l106 279q14 39 56 39h65q27 0 37 -16t0 -41l-281 -644
q-16 -37 -56 -37h-50z" />
    <glyph glyph-name="uni2009" unicode="&#x2009;" horiz-adv-x="17" 
 />
    <glyph glyph-name="endash" unicode="&#x2013;" horiz-adv-x="584" 
d="M83 239q-25 0 -25 26v85q0 26 25 26h418q25 0 25 -26v-85q0 -26 -25 -26h-418z" />
    <glyph glyph-name="emdash" unicode="&#x2014;" horiz-adv-x="795" 
d="M83 239q-25 0 -25 26v85q0 26 25 26h629q26 0 26 -26v-85q0 -26 -26 -26h-629z" />
    <glyph glyph-name="quoteleft" unicode="&#x2018;" horiz-adv-x="263" 
d="M160 711q22 14 35 -8l6 -9q14 -20 -6 -35q-59 -42 -61 -101q12 2 17 2q30 -2 47.5 -23t18.5 -49q0 -36 -23.5 -59t-65.5 -23q-47 0 -68.5 31t-21.5 65q0 64 33.5 121t88.5 88z" />
    <glyph glyph-name="quoteright" unicode="&#x2019;" horiz-adv-x="261" 
d="M105 418q-20 -14 -35 8l-6 9q-12 20 7 35q58 43 60 101q-12 -2 -16 -2q-31 2 -48.5 23t-17.5 49q-1 36 23 59t66 23q46 0 67.5 -31t21.5 -65q0 -64 -33.5 -121t-88.5 -88z" />
    <glyph glyph-name="quotesinglbase" unicode="&#x201a;" horiz-adv-x="274" 
d="M102 -122q-20 -14 -35 8l-6 9q-12 20 7 35q58 43 60 101q-12 -2 -16 -2q-31 2 -48.5 23t-17.5 49q-1 36 23 59t66 23q46 0 67.5 -31t21.5 -65q0 -64 -33.5 -121t-88.5 -88z" />
    <glyph glyph-name="quotedblleft" unicode="&#x201c;" horiz-adv-x="508" 
d="M160 711q22 14 35 -8l6 -9q14 -20 -6 -35q-59 -42 -61 -101q12 2 17 2q30 -2 47.5 -23t18.5 -49q0 -36 -23.5 -59t-65.5 -23q-47 0 -68.5 31t-21.5 65q0 64 33.5 121t88.5 88zM405 711q22 14 35 -8l6 -9q14 -20 -6 -35q-59 -42 -61 -101q12 2 17 2q30 -2 47.5 -23
t18.5 -49q0 -36 -24 -59t-66 -23q-46 0 -67.5 31t-21.5 65q0 64 33.5 121t88.5 88z" />
    <glyph glyph-name="quotedblright" unicode="&#x201d;" horiz-adv-x="506" 
d="M105 418q-20 -14 -35 8l-6 9q-12 20 7 35q58 43 60 101q-12 -2 -16 -2q-31 2 -48.5 23t-17.5 49q-1 36 23 59t66 23q46 0 67.5 -31t21.5 -65q0 -64 -33.5 -121t-88.5 -88zM350 418q-20 -14 -35 8l-6 9q-12 20 7 35q58 43 60 101q-12 -2 -16 -2q-31 2 -48.5 23t-17.5 49
q-1 36 23 59t66 23q46 0 67.5 -31t21.5 -65q0 -64 -33.5 -121t-88.5 -88z" />
    <glyph glyph-name="quotedblbase" unicode="&#x201e;" horiz-adv-x="519" 
d="M102 -122q-20 -14 -35 8l-6 9q-12 20 7 35q58 43 60 101q-12 -2 -16 -2q-31 2 -48.5 23t-17.5 49q-1 36 23 59t66 23q46 0 67.5 -31t21.5 -65q0 -64 -33.5 -121t-88.5 -88zM347 -122q-20 -14 -35 8l-6 9q-12 20 7 35q58 43 60 101q-12 -2 -16 -2q-31 2 -48.5 23t-17.5 49
q-1 36 23 59t66 23q46 0 67.5 -31t21.5 -65q0 -64 -33.5 -121t-88.5 -88z" />
    <glyph glyph-name="dagger" unicode="&#x2020;" horiz-adv-x="559" 
d="M240 -141q-30 0 -30 30v522h-149q-31 0 -31 30v57q0 31 31 31h149v201q0 31 30 31h77q31 0 31 -31v-201h150q30 0 30 -31v-57q0 -30 -30 -30h-150v-522q0 -30 -31 -30h-77z" />
    <glyph glyph-name="daggerdbl" unicode="&#x2021;" horiz-adv-x="587" 
d="M255 -141q-31 0 -31 30v207h-149q-31 0 -31 31v57q0 30 31 30h149v197h-149q-31 0 -31 30v57q0 31 31 31h149v201q0 31 31 31h76q31 0 31 -31v-201h150q30 0 30 -31v-57q0 -30 -30 -30h-150v-197h150q30 0 30 -30v-57q0 -31 -30 -31h-150v-207q0 -30 -31 -30h-76z" />
    <glyph glyph-name="bullet" unicode="&#x2022;" horiz-adv-x="412" 
d="M206 116q-58 0 -98.5 40.5t-40.5 98.5t40.5 99t98.5 41t98.5 -41t40.5 -99q0 -57 -40.5 -98t-98.5 -41z" />
    <glyph glyph-name="ellipsis" unicode="&#x2026;" horiz-adv-x="858" 
d="M139 -11q-41 0 -68 24.5t-27 62.5t27 63.5t68 25.5q40 0 68 -25.5t28 -63.5q0 -37 -27.5 -62t-68.5 -25zM429 -11q-41 0 -68 24.5t-27 62.5t27 63.5t68 25.5q40 0 68 -25.5t28 -63.5q0 -37 -27.5 -62t-68.5 -25zM719 -11q-41 0 -68.5 25t-27.5 62q0 38 27.5 63.5
t68.5 25.5q40 0 68 -26t28 -63t-28 -62t-68 -25z" />
    <glyph glyph-name="perthousand" unicode="&#x2030;" horiz-adv-x="1474" 
d="M228 335q-83 0 -140 54t-57 133q0 80 57 134.5t140 54.5q85 0 141.5 -54.5t56.5 -134.5q0 -79 -57 -133t-141 -54zM294 0q-16 0 -21.5 10t1.5 24l360 647q10 19 33 19h39q16 0 21.5 -10t-1.5 -24l-359 -646q-10 -20 -33 -20h-40zM229 435q35 0 59.5 25.5t24.5 62.5
t-24.5 63t-59.5 26t-59 -26t-24 -63t24 -62.5t59 -25.5zM779 -11q-83 0 -140 54.5t-57 133.5t57 133.5t140 54.5q84 0 140.5 -54t56.5 -134t-56.5 -134t-140.5 -54zM1245 -11q-83 0 -140 54.5t-57 133.5t57 133.5t140 54.5q85 0 141.5 -54t56.5 -134t-56.5 -134t-141.5 -54z
M780 89q35 0 59 25.5t24 62.5q0 38 -24 63.5t-59 25.5t-59 -25.5t-24 -63.5q0 -37 24 -62.5t59 -25.5zM1246 89q35 0 59.5 25.5t24.5 62.5t-24.5 63t-59.5 26t-59 -25.5t-24 -63.5q0 -37 24 -62.5t59 -25.5z" />
    <glyph glyph-name="guilsinglleft" unicode="&#x2039;" horiz-adv-x="361" 
d="M255 75q-19 -17 -36 3l-171 195q-12 13 -12 30q0 14 12 26l171 197q16 19 36 2l48 -44q17 -16 2 -36l-127 -147l126 -145q16 -19 -2 -36z" />
    <glyph glyph-name="guilsinglright" unicode="&#x203a;" horiz-adv-x="361" 
d="M107 75l-48 45q-18 17 -2 36l126 145l-127 147q-15 20 2 36l49 44q19 17 35 -2l172 -197q11 -12 11 -26q0 -16 -11 -30l-172 -195q-17 -21 -35 -3z" />
    <glyph glyph-name="fraction" unicode="&#x2044;" horiz-adv-x="150" 
d="M-202 -39q-15 0 -20 8.5t4 21.5l514 728q12 16 30 16h26q15 0 20 -8.5t-4 -21.5l-515 -728q-12 -16 -30 -16h-25z" />
    <glyph glyph-name="uni2070" unicode="&#x2070;" horiz-adv-x="372" 
d="M185 461q-72 0 -116 52.5t-44 129.5t44 129.5t116 52.5q73 0 117 -52.5t44 -129.5t-44 -129.5t-117 -52.5zM185 537q34 0 54 29.5t20 76.5t-20 77t-54 30q-33 0 -53 -30t-20 -77t20 -76.5t53 -29.5z" />
    <glyph glyph-name="uni2074" unicode="&#x2074;" horiz-adv-x="350" 
d="M197 467q-18 0 -18 18v71h-149q-18 0 -18 18v16q0 12 8 22l166 198q7 10 21 10h41q17 0 17 -18v-184h53q18 0 18 -18v-26q0 -18 -18 -18h-53v-71q0 -18 -17 -18h-51zM100 618h84v96z" />
    <glyph glyph-name="uni2075" unicode="&#x2075;" horiz-adv-x="325" 
d="M154 460q-69 0 -118 36q-15 10 -3 25l21 28q10 13 26 3q33 -20 72 -20q33 0 49 16t16 41q0 21 -15.5 38t-44.5 17q-31 0 -56 -14q-12 -8 -24 -2l-27 12q-13 6 -13 21l9 141q2 17 19 17h193q17 0 17 -17v-34q0 -18 -17 -18h-140l-5 -64q23 16 65 16q54 0 89.5 -32.5
t35.5 -80.5q0 -58 -39.5 -93.5t-109.5 -35.5z" />
    <glyph glyph-name="uni2076" unicode="&#x2076;" horiz-adv-x="343" 
d="M178 460q-71 0 -111.5 48t-40.5 127q0 82 42.5 136t118.5 54q65 0 107 -37q13 -11 -1 -25l-26 -24q-11 -11 -26 0q-22 17 -51 17q-31 0 -55.5 -26t-25.5 -68q28 36 89 36q46 0 83.5 -31.5t37.5 -82.5q0 -53 -40 -88.5t-101 -35.5zM177 532q26 0 42.5 14t16.5 39
q0 24 -16.5 40t-42.5 16q-27 0 -44 -16t-17 -40q0 -23 17 -38t44 -15z" />
    <glyph glyph-name="uni2077" unicode="&#x2077;" horiz-adv-x="298" 
d="M64 467q-10 0 -13.5 6t0.5 15l141 263h-157q-18 0 -18 17v34q0 18 18 18h237q18 0 18 -18v-20q0 -10 -5 -22l-144 -281q-7 -12 -21 -12h-56z" />
    <glyph glyph-name="uni2078" unicode="&#x2078;" horiz-adv-x="351" 
d="M176 461q-66 0 -109 31.5t-43 82.5q0 26 19.5 49t51.5 32q-25 7 -40 27t-15 40q0 45 38 73.5t98 28.5q58 0 96.5 -28.5t38.5 -73.5q0 -21 -15 -40.5t-41 -26.5q33 -9 52.5 -32t19.5 -49q0 -51 -43 -82.5t-108 -31.5zM176 680q24 0 37.5 11.5t13.5 28.5t-14.5 27.5
t-36.5 10.5q-23 0 -37.5 -10.5t-14.5 -27.5q0 -16 14 -28t38 -12zM176 530q27 0 46 14t19 34t-17.5 33.5t-47.5 13.5q-31 0 -48.5 -14t-17.5 -33q0 -20 18.5 -34t47.5 -14z" />
    <glyph glyph-name="uni2079" unicode="&#x2079;" horiz-adv-x="342" 
d="M156 461q-66 0 -106 37q-14 11 1 25l25 24q12 11 26 0q22 -17 52 -17q31 0 55.5 26t25.5 69q-29 -37 -90 -37q-46 0 -83.5 31.5t-37.5 83.5q0 53 40 88t101 35q71 0 111.5 -48t40.5 -127q0 -82 -42.5 -136t-118.5 -54zM166 646q27 0 44 15.5t17 39.5q0 23 -17 38.5
t-44 15.5q-25 0 -42 -14.5t-17 -38.5q0 -25 16.5 -40.5t42.5 -15.5z" />
    <glyph glyph-name="uni207D" unicode="&#x207d;" horiz-adv-x="211" 
d="M146 390q-14 -10 -25 2q-34 39 -61.5 103t-27.5 137q0 71 27.5 134.5t61.5 104.5q11 14 25 3l22 -15q14 -9 5 -24q-60 -105 -60 -204q0 -98 60 -203q9 -15 -5 -24z" />
    <glyph glyph-name="uni207E" unicode="&#x207e;" horiz-adv-x="211" 
d="M90 392q-11 -12 -25 -2l-22 14q-13 9 -6 24q60 101 60 203q0 103 -60 204q-7 14 5 24l23 15q13 10 24 -3q34 -41 62 -104.5t28 -134.5q0 -73 -27.5 -137t-61.5 -103z" />
    <glyph glyph-name="uni2080" unicode="&#x2080;" horiz-adv-x="372" 
d="M185 -146q-72 0 -116 52.5t-44 129.5t44 130t116 53q73 0 117 -53t44 -130t-44 -129.5t-117 -52.5zM185 -70q34 0 54 29.5t20 76.5t-20 77t-54 30q-33 0 -53 -30t-20 -77t20 -76.5t53 -29.5z" />
    <glyph glyph-name="uni2081" unicode="&#x2081;" horiz-adv-x="228" 
d="M121 -140q-18 0 -18 18v241l-57 -25q-17 -6 -23 10l-11 33q-6 16 10 22l109 49q10 5 23 5h18q18 0 18 -18v-317q0 -18 -18 -18h-51z" />
    <glyph glyph-name="uni2082" unicode="&#x2082;" horiz-adv-x="334" 
d="M49 -140q-16 0 -19 17l-3 18q-1 14 8 23l134 118q40 36 40 66q0 20 -12.5 31.5t-33.5 11.5q-40 0 -48 -37q-4 -16 -19 -16h-50q-9 0 -14 4.5t-4 12.5q6 46 40 77.5t96 31.5q59 0 95 -32.5t36 -81.5q0 -68 -69 -123l-63 -50h128q18 0 18 -18v-35q0 -18 -18 -18h-242z" />
    <glyph glyph-name="uni2083" unicode="&#x2083;" horiz-adv-x="324" 
d="M148 -146q-70 0 -119 36q-15 12 -3 25l22 29q9 13 26 3q33 -21 74 -21q28 0 45.5 16t17.5 37q0 23 -17 38.5t-41 15.5q-15 0 -31 -5t-24 7l-12 15q-10 13 2 24l83 70h-117q-18 0 -18 18v34q0 17 18 17h215q18 0 18 -17v-18q0 -12 -10 -21l-82 -74q45 -4 74 -33.5
t29 -70.5q0 -52 -41 -88.5t-109 -36.5z" />
    <glyph glyph-name="uni2084" unicode="&#x2084;" horiz-adv-x="350" 
d="M197 -140q-18 0 -18 18v71h-149q-18 0 -18 18v16q0 12 8 23l166 197q7 10 21 10h41q17 0 17 -18v-184h53q18 0 18 -18v-26q0 -18 -18 -18h-53v-71q0 -18 -17 -18h-51zM100 11h84v97z" />
    <glyph glyph-name="uni2085" unicode="&#x2085;" horiz-adv-x="325" 
d="M154 -146q-70 0 -118 36q-15 10 -3 25l21 27q10 12 26 4q33 -21 72 -21q32 0 48.5 16.5t16.5 40.5q0 22 -15.5 38.5t-44.5 16.5q-33 0 -56 -14q-13 -7 -24 -1l-27 12q-13 6 -13 21l9 141q2 17 19 17h193q17 0 17 -18v-34q0 -17 -17 -17h-140l-5 -64q23 16 65 16
q53 0 89 -33t36 -81q0 -57 -39.5 -92.5t-109.5 -35.5z" />
    <glyph glyph-name="uni2086" unicode="&#x2086;" horiz-adv-x="343" 
d="M178 -146q-71 0 -111.5 48t-40.5 127q0 81 42.5 135.5t118.5 54.5q65 0 107 -37q13 -12 -1 -26l-26 -23q-11 -11 -26 0q-22 17 -51 17q-31 0 -55.5 -26t-25.5 -69q27 37 89 37q46 0 83.5 -31.5t37.5 -83.5q0 -53 -40 -88t-101 -35zM177 -75q25 0 42 14.5t17 38.5
q0 25 -16.5 40.5t-42.5 15.5q-27 0 -44 -15.5t-17 -39.5t17 -39t44 -15z" />
    <glyph glyph-name="uni2087" unicode="&#x2087;" horiz-adv-x="298" 
d="M64 -140q-10 0 -14 6.5t1 14.5l141 263h-157q-18 0 -18 17v34q0 18 18 18h237q18 0 18 -18v-20q0 -10 -5 -22l-144 -280q-7 -13 -21 -13h-56z" />
    <glyph glyph-name="uni2088" unicode="&#x2088;" horiz-adv-x="351" 
d="M176 -146q-66 0 -109 31.5t-43 82.5q0 26 19.5 49.5t51.5 31.5q-25 7 -40 27t-15 40q0 45 38 73.5t98 28.5q58 0 96.5 -28.5t38.5 -73.5q0 -21 -15 -40.5t-41 -26.5q32 -8 52 -31.5t20 -49.5q0 -51 -43 -82.5t-108 -31.5zM176 73q24 0 37.5 11.5t13.5 28.5t-14.5 27.5
t-36.5 10.5q-23 0 -37.5 -10.5t-14.5 -27.5q0 -16 14 -28t38 -12zM176 -77q27 0 46 14t19 34t-17.5 33.5t-47.5 13.5q-31 0 -48.5 -14t-17.5 -33q0 -20 18.5 -34t47.5 -14z" />
    <glyph glyph-name="uni2089" unicode="&#x2089;" horiz-adv-x="343" 
d="M156 -146q-66 0 -106 37q-15 12 1 26l25 23q12 11 26 0q22 -17 52 -17q31 0 55.5 26t25.5 69q-29 -37 -90 -37q-46 0 -83.5 31.5t-37.5 83.5q0 53 40 88t101 35q71 0 111.5 -48t40.5 -127q0 -81 -42.5 -135.5t-118.5 -54.5zM166 39q27 0 44 15.5t17 39.5t-17 39t-44 15
q-25 0 -42 -14.5t-17 -38.5q0 -25 16.5 -40.5t42.5 -15.5z" />
    <glyph glyph-name="uni208D" unicode="&#x208d;" horiz-adv-x="210" 
d="M146 -208q-15 -9 -25 3q-34 39 -61.5 103t-27.5 136t27.5 135.5t61.5 104.5q11 12 25 3l22 -16q14 -9 5 -24q-60 -105 -60 -203q0 -99 60 -204q10 -14 -5 -24z" />
    <glyph glyph-name="uni208E" unicode="&#x208e;" horiz-adv-x="210" 
d="M89 -205q-11 -12 -24 -3l-23 14q-15 10 -5 24q60 105 60 204q0 98 -60 203q-9 15 5 24l22 16q14 9 25 -3q34 -41 61.5 -104.5t27.5 -135.5t-27.5 -136t-61.5 -103z" />
    <glyph glyph-name="lira" unicode="&#x20a4;" horiz-adv-x="642" 
d="M66 0q-25 0 -25 25v71q0 22 24 27q68 8 101 37.5t27 75.5h-115q-17 0 -17 17v25q0 17 17 17h97q-11 25 -21 54h-76q-17 0 -17 17v24q0 18 17 18h56q-20 63 -20 99q0 90 69.5 147t173.5 57t161 -53t66 -128q3 -26 -25 -26h-93q-20 0 -26 24q-12 50 -85 50q-42 0 -67.5 -21
t-25.5 -57q0 -33 24 -92h175q17 0 17 -18v-24q0 -17 -17 -17h-156q1 -2 19 -54h137q17 0 17 -17v-25q0 -17 -17 -17h-124q12 -72 -50 -109l2 -4q45 3 112 3h177q25 0 25 -26v-75q0 -25 -25 -25h-512z" />
    <glyph glyph-name="uni20A8" unicode="&#x20a8;" horiz-adv-x="700" 
d="M481 -11q-49 0 -89.5 20t-65 49t-42.5 66.5t-25.5 67.5t-11.5 58h-171q-26 0 -26 25v64q0 25 26 25h226q37 0 61 22.5t29 59.5h-324q-18 0 -18 17v27q0 17 18 17h319q-8 28 -31.5 45.5t-53.5 17.5h-226q-26 0 -26 25v80q0 25 26 25h563q18 0 18 -17v-27q0 -17 -18 -17
h-151q53 -51 64 -132h87q18 0 18 -17v-27q0 -17 -18 -17h-85q-5 -71 -45.5 -121t-109.5 -67q6 -56 36.5 -99t71.5 -43q30 0 56 14q24 11 34 -10l29 -58q11 -22 -7 -34q-60 -39 -138 -39z" />
    <glyph glyph-name="uni20A9" unicode="&#x20a9;" horiz-adv-x="1072" 
d="M1034 560q0 -17 -18 -17h-55l-16 -54h71q18 0 18 -17v-19q0 -17 -18 -17h-88l-125 -396q-12 -40 -54 -40h-42q-42 0 -54 40l-118 388l-118 -388q-12 -40 -54 -40h-42q-40 0 -54 40l-125 396h-86q-18 0 -18 17v19q0 17 18 17h69l-16 54h-53q-18 0 -18 17v19q0 17 18 17h36
l-15 49q-8 25 3 40t37 15h62q42 0 54 -41l117 -393l115 371q12 40 54 40h33q42 0 54 -40l114 -371l117 393q12 41 54 41h62q26 0 37 -15t3 -40l-15 -49h38q18 0 18 -17v-19z" />
    <glyph glyph-name="uni20AA" unicode="&#x20aa;" horiz-adv-x="850" 
d="M86 0q-25 0 -25 25v488q0 25 25 25h296q92 0 149 -57.5t57 -142.5v-117q0 -25 -26 -25h-74q-26 0 -26 25v117q0 32 -22 53.5t-58 21.5h-185v-388q0 -25 -26 -25h-85zM468 0q-92 0 -149 57.5t-57 142.5v117q0 25 26 25h74q25 0 25 -25v-117q0 -32 22.5 -53.5t58.5 -21.5
h185v388q0 25 25 25h86q25 0 25 -25v-488q0 -25 -25 -25h-296z" />
    <glyph glyph-name="Euro" unicode="&#x20ac;" horiz-adv-x="711" 
d="M495 -11q-142 0 -233 71t-114 186h-86q-26 0 -26 25v20q0 26 26 26h79q-2 30 -2 52h-77q-26 0 -26 25v20q0 26 26 26h82q21 122 109.5 196.5t231.5 74.5q93 0 172 -41q21 -12 11 -34l-34 -75q-11 -23 -34 -11q-51 22 -108 22q-72 0 -121.5 -35t-69.5 -97h260
q14 0 20 -8.5t1 -21.5l-9 -22q-7 -19 -29 -19h-253q0 -38 2 -52h219q14 0 19.5 -8.5t0.5 -21.5l-8 -21q-7 -20 -29 -20h-184q19 -56 67 -89t126 -33q53 0 103 14q29 8 29 -20v-78q0 -22 -19 -29q-57 -22 -122 -22z" />
    <glyph glyph-name="uni2113" unicode="&#x2113;" horiz-adv-x="490" 
d="M280 -11q-42 0 -81 13.5t-71 52t-32 97.5v12q-24 -3 -51 -2q-8 -1 -12.5 4t-4.5 13v55q0 17 17 17q30 0 49 6v279q0 58 20 98.5t52 58t59 24t55 6.5q23 0 44 -3.5t46.5 -15t43.5 -31t30.5 -55t12.5 -82.5q0 -123 -62 -220.5t-156 -137.5v-24q0 -23 15.5 -36t35.5 -13
q47 0 47 39v7q-5 19 14 19h71q16 0 20 -14q5 -18 5 -27q0 -62 -44 -101t-123 -39zM245 306q42 32 69.5 95t27.5 144q0 31 -14 46.5t-34 15.5q-49 0 -49 -62v-239z" />
    <glyph glyph-name="uni2116" unicode="&#x2116;" horiz-adv-x="1122" 
d="M907 371q-75 0 -124 47.5t-49 118.5q0 72 49 120.5t124 48.5t124 -48.5t49 -120.5q0 -71 -49 -118.5t-124 -47.5zM97 0q-30 0 -30 30v640q0 30 30 30h69q24 0 37 -19l290 -397v386q0 30 30 30h99q30 0 30 -30v-640q0 -30 -30 -30h-69q-24 0 -36 19l-291 401v-390
q0 -30 -30 -30h-99zM907 458q34 0 56 23t22 57q0 33 -22.5 56.5t-55.5 23.5t-55.5 -23.5t-22.5 -56.5q0 -34 22.5 -57t55.5 -23zM762 240q-18 0 -18 18v39q0 18 18 18h290q18 0 18 -18v-39q0 -18 -18 -18h-290z" />
    <glyph glyph-name="uni2117" unicode="&#x2117;" horiz-adv-x="788" 
d="M394 -11q-148 0 -250.5 105.5t-102.5 255.5t102.5 255.5t250.5 105.5t250.5 -105.5t102.5 -255.5t-102.5 -255.5t-250.5 -105.5zM394 50q122 0 206.5 88t84.5 212t-84.5 212t-206.5 88t-206.5 -88t-84.5 -212t84.5 -212t206.5 -88zM310 168q-28 0 -28 28v305q0 28 28 28
h128q55 0 86.5 -35.5t31.5 -87.5t-32 -85t-86 -33h-67v-92q0 -28 -28 -28h-33zM371 361h57q17 0 27.5 13t10.5 32q0 21 -10.5 35.5t-27.5 14.5h-57v-95z" />
    <glyph glyph-name="trademark" unicode="&#x2122;" horiz-adv-x="883" 
d="M177 344q-18 0 -18 17v274h-108q-17 0 -17 18v42q0 17 17 17h301q18 0 18 -17v-42q0 -18 -18 -18h-107v-274q0 -17 -18 -17h-50zM402 344q-18 0 -17 18l33 334q1 16 18 16h47q17 0 21 -13l99 -234l97 234q4 13 21 13h50q17 0 18 -16l30 -334q1 -18 -17 -18h-48
q-17 0 -18 16l-18 189l-78 -183q-6 -14 -20 -14h-34q-14 0 -20 14l-78 183l-18 -189q-1 -16 -18 -16h-50z" />
    <glyph glyph-name="uni2126" unicode="&#x2126;" horiz-adv-x="813" 
d="M106 0q-48 0 -48 48v26q0 48 48 48h86q-59 27 -102.5 100t-43.5 162q0 137 98 232t260 95q163 0 261 -95t98 -232q0 -88 -43.5 -161t-102.5 -101h86q48 0 48 -48v-26q0 -48 -48 -48h-201q-48 0 -48 48v37q0 36 36 57q62 33 96 90t34 125q0 101 -62.5 164t-153.5 63
t-153 -63t-62 -164q0 -69 33 -126t96 -89q36 -21 36 -57v-37q0 -48 -48 -48h-200z" />
    <glyph glyph-name="estimated" unicode="&#x212e;" horiz-adv-x="627" 
d="M316 -7q-119 0 -195 84.5t-76 205.5q0 123 75 206.5t200 83.5q124 0 198.5 -84.5t74.5 -206.5h-429v-193q66 -63 152 -63q76 0 123 33t87 94l31 -19q-44 -68 -99 -104.5t-142 -36.5zM164 315h309v163q-68 62 -153 62q-96 0 -156 -62v-163z" />
    <glyph glyph-name="arrowleft" unicode="&#x2190;" horiz-adv-x="691" 
d="M600 292v-65q0 -18 -18 -18h-355l89 -104q12 -14 -1 -24l-44 -39q-13 -11 -24 1l-170 195q-9 12 -9 19q0 13 9 23l170 195q12 13 24 2l43 -41q14 -11 2 -24l-89 -103h355q18 0 18 -17z" />
    <glyph glyph-name="arrowup" unicode="&#x2191;" horiz-adv-x="582" 
d="M258 14q-17 0 -17 17v356l-102 -89q-14 -11 -25 2l-41 42q-10 13 3 24l194 170q11 10 23 10q9 0 19 -10l195 -170q12 -11 2 -24l-39 -43q-11 -13 -25 -2l-104 90v-356q0 -17 -17 -17h-66z" />
    <glyph glyph-name="arrowright" unicode="&#x2192;" horiz-adv-x="691" 
d="M92 292q0 17 17 17h356l-89 103q-12 13 2 24l43 41q12 10 24 -2l170 -195q9 -10 9 -23q0 -7 -9 -19l-170 -195q-11 -12 -24 -1l-44 39q-13 10 -1 24l89 104h-356q-17 0 -17 18v65z" />
    <glyph glyph-name="arrowdown" unicode="&#x2193;" horiz-adv-x="582" 
d="M258 546h66q17 0 17 -18v-355l104 89q13 12 25 -1l39 -44q11 -12 -2 -24l-195 -170q-11 -9 -19 -9q-11 0 -23 9l-194 170q-14 11 -2 24l40 43q11 13 25 2l102 -89v355q0 18 17 18z" />
    <glyph glyph-name="partialdiff" unicode="&#x2202;" horiz-adv-x="676" 
d="M274 -11q-131 0 -193.5 70.5t-45.5 175.5q18 103 97.5 162t181.5 59q54 0 101.5 -22t73.5 -63l3 1q25 213 -146 213q-31 -2 -51 -8q-28 -6 -36 16l-26 59q-12 29 15 36q59 23 129 23t122.5 -20t82 -54.5t46.5 -81t17 -99.5t-8 -110q-29 -169 -122 -263t-241 -94zM303 114
q66 0 107 38t55 102q-14 44 -52.5 66t-79.5 22q-53 0 -95 -30t-50 -79q-8 -54 24.5 -86.5t90.5 -32.5z" />
    <glyph glyph-name="uni2206" unicode="&#x2206;" horiz-adv-x="733" 
d="M73 0q-27 0 -37.5 15.5t-0.5 40.5l242 606q15 38 55 38h79q43 0 56 -38l231 -607q10 -25 -1 -40t-37 -15h-587zM221 126h292l-143 404z" />
    <glyph glyph-name="product" unicode="&#x220f;" horiz-adv-x="755" 
d="M158 -140q-25 0 -25 25v692h-74q-25 0 -25 26v72q0 25 25 25h637q25 0 25 -25v-72q0 -26 -25 -26h-74v-692q0 -25 -25 -25h-105q-25 0 -25 25v692h-179v-692q0 -25 -25 -25h-105z" />
    <glyph glyph-name="summation" unicode="&#x2211;" horiz-adv-x="601" 
d="M62 -141q-28 0 -28 28v40q0 18 11 35l214 315l-205 318q-10 16 -10 35v42q0 28 28 28h439q28 0 28 -28v-70q0 -28 -28 -28h-274l177 -274q14 -19 0 -38l-186 -277h310q28 0 28 -28v-70q0 -28 -28 -28h-476z" />
    <glyph glyph-name="minus" unicode="&#x2212;" horiz-adv-x="649" 
d="M87 239q-25 0 -25 26v85q0 26 25 26h475q25 0 25 -26v-85q0 -26 -25 -26h-475z" />
    <glyph glyph-name="uni2219" unicode="&#x2219;" horiz-adv-x="303" 
d="M151 194q-40 0 -67.5 25t-27.5 62q0 38 27 63.5t68 25.5t69 -25.5t28 -63.5q0 -37 -28 -62t-69 -25z" />
    <glyph glyph-name="radical" unicode="&#x221a;" horiz-adv-x="571" 
d="M256 -99q-25 0 -32 23l-123 362l-36 -15q-26 -11 -37 15l-20 49q-11 25 14 37l146 66q28 13 36 -15l96 -295l142 608q6 25 31 25h54q32 0 25 -31l-187 -805q-6 -24 -30 -24h-79z" />
    <glyph glyph-name="infinity" unicode="&#x221e;" horiz-adv-x="845" 
d="M231 118q-82 0 -135 49t-53 134q0 84 53.5 132.5t134.5 48.5q74 0 148 -64l43 -40l47 41q75 63 146 63q81 0 134 -48.5t53 -132.5q0 -85 -53 -134t-134 -49q-74 0 -151 67l-41 38l-42 -39q-77 -66 -150 -66zM233 235q39 0 83 35l35 30l-39 33q-40 33 -79 33
q-29 0 -51 -17t-22 -49q0 -31 22 -48t51 -17zM612 235q29 0 50.5 16.5t22.5 48.5q-1 32 -22.5 49t-50.5 17q-40 0 -83 -36l-35 -30l35 -30q43 -35 83 -35z" />
    <glyph glyph-name="integral" unicode="&#x222b;" horiz-adv-x="528" 
d="M141 -235q-69 0 -126 39q-20 13 -14 36l18 64q7 28 36 16q40 -18 70 -18q26 0 44.5 17.5t18.5 55.5v554q0 65 18 110.5t48.5 68t62.5 32t70 9.5q68 0 127 -39q19 -12 13 -37l-17 -64q-7 -28 -36 -15q-38 17 -71 17q-26 0 -44 -17.5t-18 -55.5v-554q0 -65 -18 -110
t-48.5 -67.5t-63 -32t-70.5 -9.5z" />
    <glyph glyph-name="approxequal" unicode="&#x2248;" horiz-adv-x="654" 
d="M454 345q-45 0 -128.5 22.5t-118.5 22.5q-51 0 -85 -19q-27 -15 -36 11l-21 53q-8 21 6 37q49 49 127 49q51 0 137 -23.5t113 -23.5q48 0 85 20q26 15 36 -11l21 -48q9 -21 -6 -39q-48 -51 -130 -51zM451 78q-44 0 -127.5 23t-118.5 23q-49 0 -85 -20q-27 -16 -36 11
l-21 52q-7 22 6 38q48 48 128 48q51 0 137 -22.5t112 -22.5q51 0 85 19q27 14 37 -11l21 -48q8 -23 -7 -39q-47 -51 -131 -51z" />
    <glyph glyph-name="notequal" unicode="&#x2260;" horiz-adv-x="612" 
d="M191 30q-13 -25 -38 -11l-24 13q-25 13 -11 38l29 53h-60q-28 0 -28 28v69q0 28 28 28h127l80 148h-207q-28 0 -28 28v69q0 28 28 28h275l44 82q13 25 38 12l23 -13q26 -13 12 -38l-24 -43h74q28 0 28 -28v-69q0 -28 -28 -28h-141l-79 -148h220q28 0 28 -28v-69
q0 -28 -28 -28h-288z" />
    <glyph glyph-name="lessequal" unicode="&#x2264;" horiz-adv-x="633" 
d="M532 197l-451 145q-23 8 -23 32v62q0 24 23 32l451 144q15 4 23.5 -2t8.5 -21v-63q0 -25 -24 -31l-304 -90l304 -90q24 -7 24 -31v-64q0 -14 -8.5 -20.5t-23.5 -2.5zM85 15q-28 0 -28 28v57q0 28 28 28h450q28 0 28 -28v-57q0 -28 -28 -28h-450z" />
    <glyph glyph-name="greaterequal" unicode="&#x2265;" horiz-adv-x="633" 
d="M101 197q-14 -4 -23 2.5t-9 20.5v64q0 23 24 31l304 90l-304 90q-24 6 -24 31v63q0 14 9 20.5t23 2.5l451 -144q23 -8 23 -32v-62q0 -24 -23 -32zM98 15q-28 0 -28 28v57q0 28 28 28h450q28 0 28 -28v-57q0 -28 -28 -28h-450z" />
    <glyph glyph-name="lozenge" unicode="&#x25ca;" horiz-adv-x="605" 
d="M272 0q-23 0 -34 18l-194 305q-13 21 -1 38l194 321q11 18 34 18h62q23 0 34 -18l195 -321q12 -19 0 -38l-195 -305q-12 -18 -34 -18h-61zM302 150l126 192l-126 203l-125 -204z" />
    <glyph glyph-name="uniF6C3" unicode="&#xf6c3;" horiz-adv-x="0" 
d="M-177 -51q40 0 61 -26.5t21 -60.5q0 -108 -105 -161q-17 -9 -28 8l-5 9q-9 18 7 28q33 16 45 45q6 12 6 29l-12 -3q-27 -1 -45 17t-19 46q0 30 20.5 49.5t53.5 19.5z" />
    <glyph glyph-name="uniF6DD" unicode="&#xf6dd;" horiz-adv-x="1386" 
d="M546 -11q-49 0 -90 20t-65.5 49t-42.5 66.5t-25.5 67.5t-11.5 58h-82v-225q0 -25 -25 -25h-108q-25 0 -25 25v650q0 25 25 25h292q108 0 170 -66.5t62 -166.5q0 -78 -41 -134.5t-116 -74.5q6 -56 36.5 -99t71.5 -43q31 0 57 14q24 11 34 -10l28 -58q11 -22 -7 -34
q-60 -39 -137 -39zM229 364h138q41 0 66.5 28.5t25.5 71.5q0 44 -25.5 73t-66.5 29h-138v-202zM811 -210q-26 0 -26 26v673q0 25 26 25h104q25 0 25 -25v-47q55 83 165 83q108 0 177.5 -77t69.5 -191q0 -115 -69.5 -191.5t-177.5 -76.5q-110 0 -165 84v-257q0 -26 -25 -26
h-104zM1069 113q59 0 93.5 41t34.5 103q0 61 -34.5 102.5t-93.5 41.5q-58 0 -94.5 -41t-36.5 -103t36.5 -103t94.5 -41z" />
    <glyph glyph-name="uniF6DF" unicode="&#xf6df;" horiz-adv-x="303" 
d="M132 -141q-15 0 -14 16l6 33q-46 13 -73 47t-27 81q0 57 39.5 95t103.5 40l6 33q2 14 16 14h7q17 0 14 -16l-5 -35q33 -5 63 -24q12 -9 4 -21l-19 -29q-7 -12 -21 -3q-16 10 -38 13l-20 -134q31 0 55 15q13 9 22 -3l21 -30q9 -12 -4 -21q-51 -32 -105 -28l-5 -29
q-1 -14 -16 -14h-10zM136 -21l18 123q-21 -7 -34.5 -25t-13.5 -41q0 -34 30 -57z" />
    <glyph glyph-name="uniF6E0" unicode="&#xf6e0;" horiz-adv-x="304" 
d="M132 465q-15 0 -14 16l6 32q-47 14 -73.5 48.5t-26.5 80.5q0 57 40 94.5t103 39.5l6 34q1 13 16 13h7q17 0 14 -16l-5 -35q33 -5 63 -24q12 -8 4 -21l-19 -28q-7 -12 -21 -3q-17 9 -38 12l-20 -134q29 0 55 16q14 8 22 -4l21 -29q10 -13 -4 -21q-51 -32 -105 -28l-5 -30
q-1 -13 -16 -13h-10zM136 584l18 124q-21 -7 -34.5 -25t-13.5 -41q0 -33 30 -58z" />
    <glyph glyph-name="uniF6E1" unicode="&#xf6e1;" horiz-adv-x="179" 
d="M64 -215q-10 -4 -17 6l-5 9q-6 10 6 17q28 13 35 37q1 2 2 8l1 5q-7 -1 -13 0q-15 2 -23.5 13.5t-8.5 24.5q-1 20 11.5 33t35.5 13q28 0 40 -18.5t12 -38.5q0 -35 -20 -64.5t-56 -44.5z" />
    <glyph glyph-name="uniF6E2" unicode="&#xf6e2;" horiz-adv-x="178" 
d="M63 393q-11 -5 -16 6l-5 8q-6 11 6 17q27 14 35 37q2 10 2 13h-13q-14 2 -22.5 13.5t-9.5 24.5q-1 20 11.5 33t36.5 13q28 0 39.5 -18t11.5 -39q0 -35 -20 -64.5t-56 -43.5z" />
    <glyph glyph-name="uniF6E3" unicode="&#xf6e3;" horiz-adv-x="311" 
d="M156 -179q-13 0 -13 13v25q-43 4 -75.5 26t-43.5 58q-6 13 10 18l40 10q13 3 19 -10q16 -32 50 -37v80l-18 7q-89 34 -89 102q0 42 30 69t77 31v24q0 13 13 13h7q13 0 13 -13v-25q68 -8 97 -64q6 -14 -8 -19l-36 -18q-12 -5 -20 8q-10 18 -33 27v-75l17 -7
q46 -16 70.5 -44.5t24.5 -55.5q0 -45 -31.5 -72t-80.5 -32v-26q0 -13 -13 -13h-7zM143 83v66q-28 -9 -28 -35q0 -16 21 -27zM176 -74q31 8 31 35q0 18 -25 28l-6 3v-66z" />
    <glyph glyph-name="uniF6E4" unicode="&#xf6e4;" horiz-adv-x="312" 
d="M156 428q-13 0 -13 13v24q-43 4 -75.5 26t-43.5 58q-6 14 10 18l40 10q13 3 19 -10q16 -31 50 -36v79l-18 8q-89 33 -89 101q0 43 30 70t77 30v24q0 13 13 13h7q13 0 13 -13v-24q69 -9 97 -65q6 -13 -8 -19l-36 -17q-12 -5 -20 7q-9 18 -33 27v-75l17 -6q46 -16 70.5 -45
t24.5 -56q0 -45 -32 -72t-80 -32v-25q0 -13 -13 -13h-7zM143 690v65q-12 -3 -20 -12.5t-8 -21.5q0 -17 21 -28zM176 532q31 8 31 35q0 19 -25 29l-6 3v-67z" />
    <glyph glyph-name="uniF6E5" unicode="&#xf6e5;" horiz-adv-x="279" 
d="M56 -6q-17 0 -17 18v35q0 18 17 18h166q18 0 18 -18v-35q0 -18 -18 -18h-166z" />
    <glyph glyph-name="uniF6E6" unicode="&#xf6e6;" horiz-adv-x="279" 
d="M56 601q-17 0 -17 18v35q0 18 17 18h166q18 0 18 -18v-35q0 -18 -18 -18h-166z" />
    <glyph glyph-name="uniF6E7" unicode="&#xf6e7;" horiz-adv-x="180" 
d="M90 -146q-22 0 -37.5 13.5t-15.5 33.5t15 33.5t38 13.5q22 0 37.5 -13.5t15.5 -33.5q0 -19 -15.5 -33t-37.5 -14z" />
    <glyph glyph-name="uniF6E8" unicode="&#xf6e8;" horiz-adv-x="180" 
d="M90 461q-22 0 -37.5 13.5t-15.5 33.5t15 33.5t38 13.5q22 0 37.5 -13.5t15.5 -33.5q0 -19 -15.5 -33t-37.5 -14z" />
    <glyph glyph-name="uniF8FF" unicode="&#xf8ff;" horiz-adv-x="921" 
d="M50 0v700h821v-700h-821zM491 367q12 0 16 7h1l2 -6h8v73h-11v-19q0 -5 1 -9h-1q-5 8 -15 8t-16 -7q-5 -8 -5 -20t5 -20q6 -7 15 -7zM643 434q0 -3 1 -5q1 -1 5 -1t5 1q1 2 1 5t-1 5q-1 1 -5 1t-5 -1q-1 -2 -1 -5zM171 368l20 57h1q0 -4 -1 -10v-47h11v69h-16l-20 -55
l-19 55h-16v-69h10v33q0 16 -1 25h1l20 -58h10zM351 376q-4 0 -5 2q-2 1 -2 6v28h15v8h-15v12h-7l-4 -11l-8 -4v-5h8v-29q0 -16 15 -16h6q1 0 2.5 0.5t2.5 1.5v8q-2 -1 -8 -1zM268 394q0 11 -7 20q-6 7 -18 7t-19 -7q-6 -7 -6 -20q0 -8 3 -14q3 -7 9 -10q4 -3 13 -3
q12 0 18 7q7 9 7 20zM318 383q0 2 -2 6q-1 2 -4 5q-7 3 -10 4l-4 2t-3.5 2t-2.5 1q-2 2 -2 4q0 5 9 5q5 0 14 -3l4 8q-8 4 -18 4t-15 -4q-5 -3 -5 -10q0 -6 3 -9q3 -4 12 -7l8 -4q3 0 3 -2q2 -2 2 -4q0 -6 -11 -6q-5 0 -17 4v-9q6 -3 17 -3t16 4q6 5 6 12zM412 368v35
q0 10 -5 14q-4 4 -15 4q-6 0 -9 -1q-6 -2 -10 -4l4 -8q3 3 7 3q3 1 8 1q6 0 7 -2q2 -2 2 -8v-2l-9 -1q-13 0 -18 -4q-6 -5 -6 -12q0 -8 4 -12t12 -4t10 1q3 2 8 7l3 -7h7zM457 421q-6 0 -9 -3q-6 -4 -7 -7h-1l-1 9h-9v-52h11v27q0 5 4 11q5 5 11 5q3 0 5 -1l1 11h-5z
M559 367h10l8 3v9l-9 -3q-1 0 -3.5 -0.5t-4.5 -0.5q-8 0 -11 5q-4 3 -4 11h35v6q0 12 -6 18t-17 6t-17 -7q-7 -7 -7 -21q0 -12 7 -19t19 -7zM629 383q0 4 -1 6t-4 5q-7 3 -10 4l-10 5q-2 2 -2 4q0 5 9 5q5 0 14 -3l4 8q-8 4 -18 4t-15 -4q-5 -3 -5 -10q0 -6 3 -9q3 -4 12 -7
q1 0 2.5 -1l3 -2t2.5 -1q3 0 3 -2q1 -1 1 -4q0 -6 -10 -6q-5 0 -17 4v-9q6 -3 17 -3t16 4t5 12zM699 420h-1q-2 1 -3 1h-5q-10 0 -15 -5q-6 -4 -6 -13q0 -6 3 -9q3 -5 7 -6q-1 0 -5 -4q-2 -2 -2 -5l1 -4q1 -3 4 -3q-4 -1 -8 -5q-3 -3 -3 -8q0 -7 5 -11q8 -4 17 -4q13 0 21 5
q7 4 7 14q0 7 -4 11q-4 3 -14 3h-9q-2 0 -4 1h-2q-2 2 -2 3q0 3 4 5h5q10 0 15 4q6 4 6 13q0 1 -1 3v2l-2 4l9 2v6h-18zM775 402q0 19 -19 19q-4 0 -10 -2q-4 -1 -7 -6l-2 7h-9v-52h12v26q0 10 3 14t10 4q5 0 8 -3q2 -2 2 -9v-32h12v34zM655 420h-12v-52h12v52zM680 403
q0 5 3 8q1 3 7 3t7 -3q3 -3 3 -8q0 -10 -10 -10q-3 0 -7 2q-3 3 -3 8zM557 413q4 0 8 -4t4 -10h-24q0 7 4 10q4 4 8 4zM229 394q0 9 4 13q3 5 10 5q13 0 13 -18t-13 -18q-14 0 -14 18zM494 376q-6 0 -9 4t-3 14q0 8 3 13t9 5q7 0 10 -4q4 -4 4 -14v-2q0 -9 -4 -12
q-3 -4 -10 -4zM388 375q-4 0 -6 2q-2 1 -2 6q0 4 3 7q6 2 12 2l6 1v-5q0 -6 -3 -9q-4 -4 -10 -4zM676 359q0 5 2 7q4 2 8 2h8q7 0 9 -2q3 -2 3 -5q0 -4 -5 -6q-5 -3 -13 -3q-5 0 -9 2q-3 2 -3 5zM649 250q10 0 15 8h1l2 -7h8v74h-11v-19q0 -1 0.5 -4t0.5 -5q-6 7 -16 7
t-16 -7q-5 -8 -5 -20t5 -20q6 -7 16 -7zM155 311h21v9h-52v-9h20v-60h11v60zM401 280h26v9h-26v22h28v9h-39v-69h11v29zM200 251l-2 -5q-3 -9 -11 -9h-6v-8q3 -1 7 -1q15 0 21 16l22 60h-12q-2 -8 -4.5 -14.5t-4 -10.5t-2.5 -7t-1 -4q-1 -2 -1 -6h-1q0 6 -3 12l-11 30h-12z
M268 250q8 0 15 7q6 7 6 20q0 14 -6 20q-4 7 -15 7t-16 -8l-2 8h-9v-76h11v29q6 -7 16 -7zM327 250q6 0 9 1q5 0 8 3v9q-4 -3 -8 -3q-3 -1 -9 -1q-7 0 -11 4q-4 6 -4 12h35v6q0 11 -6 17t-16 6q-12 0 -18 -7t-6 -20t6 -20q7 -7 20 -7zM489 277q0 13 -7 20q-6 7 -18 7t-18 -7
q-7 -6 -7 -20q0 -8 3 -14q3 -5 9 -10q6 -3 13 -3q11 0 18 7t7 20zM549 251v53h-11v-27q0 -9 -3 -14q-4 -4 -10 -4q-5 0 -8 3t-3 9v33h-11v-35q0 -9 5 -14t14 -5q4 0 10 2q5 4 7 6l2 -7h8zM613 285q0 19 -18 19q-7 0 -10 -2q-3 -1 -7 -5l-2 7h-9v-53h11v26q0 8 4 14q3 4 10 4
q5 0 8 -3q2 -4 2 -9v-32h11v34zM720 304q-6 0 -9 -2t-7 -8l-2 10h-9v-53h11v27q0 7 5 12q3 4 10 4h5l1 10h-5zM750 251l-2 -5q-3 -9 -11 -9h-6v-8q3 -1 7 -1q15 0 21 16l22 60h-12q-2 -8 -4.5 -14.5t-4 -10.5t-2.5 -7t-1 -4q-1 -2 -1 -6h-1q0 6 -3 12l-11 30h-12zM325 296
q5 0 8 -3q3 -5 3 -10h-24q2 6 4 10q3 3 9 3zM265 295q6 0 9 -4q3 -5 3 -14t-3 -13q-3 -5 -9 -5q-7 0 -10 5q-3 3 -3 13v2q0 9 3 12q3 4 10 4zM451 277q0 9 3 14q3 4 10 4q13 0 13 -18t-13 -18t-13 18zM652 259q-7 0 -10 5q-3 4 -3 13q0 8 3 14q4 4 9 4q7 0 11 -4q3 -5 3 -14
v-1q0 -8 -3 -13q-4 -4 -10 -4z" />
    <glyph glyph-name="a.alt" horiz-adv-x="609" 
d="M228 -11q-86 0 -144.5 45.5t-58.5 122.5q0 76 59.5 119t153.5 43q98 0 162 -32v19q0 47 -36 73t-92 26q-60 0 -116 -26q-45 -20 -65 20l-6 13q-21 43 16 65q80 48 192 48q63 0 111.5 -15t76 -38t45 -54.5t23.5 -60t6 -59.5v-250q0 -48 -48 -48h-59q-48 0 -48 48v24
q-24 -38 -71 -60.5t-101 -22.5zM269 101q34 0 73 15t61 44v52q-57 24 -130 24q-43 0 -67.5 -19.5t-24.5 -49.5q0 -27 22.5 -46.5t65.5 -19.5z" />
    <glyph glyph-name="aacute.alt" horiz-adv-x="609" 
d="M251 578q-15 0 -20 8t2 22l61 115q9 18 30 18h99q16 0 20 -9t-6 -22l-98 -118q-11 -14 -31 -14h-57zM228 -11q-86 0 -144.5 45.5t-58.5 122.5q0 76 59.5 119t153.5 43q98 0 162 -32v19q0 47 -36 73t-92 26q-60 0 -116 -26q-45 -20 -65 20l-6 13q-21 43 16 65
q80 48 192 48q63 0 111.5 -15t76 -38t45 -54.5t23.5 -60t6 -59.5v-250q0 -48 -48 -48h-59q-48 0 -48 48v24q-24 -38 -71 -60.5t-101 -22.5zM269 101q34 0 73 15t61 44v52q-57 24 -130 24q-43 0 -67.5 -19.5t-24.5 -49.5q0 -27 22.5 -46.5t65.5 -19.5z" />
    <glyph glyph-name="abreve.alt" horiz-adv-x="609" 
d="M291 578q-32 0 -62.5 10t-59 40t-38.5 77q-6 26 21 29l40 5q21 3 29 -22q14 -49 70 -49t70 49q8 25 29 22l40 -5q29 -4 17 -46q-18 -58 -63 -84t-93 -26zM228 -11q-86 0 -144.5 45.5t-58.5 122.5q0 76 59.5 119t153.5 43q98 0 162 -32v19q0 47 -36 73t-92 26
q-60 0 -116 -26q-45 -20 -65 20l-6 13q-21 43 16 65q80 48 192 48q63 0 111.5 -15t76 -38t45 -54.5t23.5 -60t6 -59.5v-250q0 -48 -48 -48h-59q-48 0 -48 48v24q-24 -38 -71 -60.5t-101 -22.5zM269 101q34 0 73 15t61 44v52q-57 24 -130 24q-43 0 -67.5 -19.5t-24.5 -49.5
q0 -27 22.5 -46.5t65.5 -19.5z" />
    <glyph glyph-name="acircumflex.alt" horiz-adv-x="609" 
d="M146 578q-15 0 -20 8.5t3 21.5l75 116q11 17 30 17h110q19 0 30 -17l76 -116q8 -13 3 -21.5t-20 -8.5h-45q-20 0 -31 14l-67 77l-67 -77q-13 -14 -31 -14h-46zM228 -11q-86 0 -144.5 45.5t-58.5 122.5q0 76 59.5 119t153.5 43q98 0 162 -32v19q0 47 -36 73t-92 26
q-60 0 -116 -26q-45 -20 -65 20l-6 13q-21 43 16 65q80 48 192 48q63 0 111.5 -15t76 -38t45 -54.5t23.5 -60t6 -59.5v-250q0 -48 -48 -48h-59q-48 0 -48 48v24q-24 -38 -71 -60.5t-101 -22.5zM269 101q34 0 73 15t61 44v52q-57 24 -130 24q-43 0 -67.5 -19.5t-24.5 -49.5
q0 -27 22.5 -46.5t65.5 -19.5z" />
    <glyph glyph-name="adieresis.alt" horiz-adv-x="609" 
d="M168 585q-35 0 -58.5 21t-23.5 53t23.5 53.5t58.5 21.5q34 0 58 -21.5t24 -53.5t-24 -53t-58 -21zM410 585q-35 0 -58.5 21t-23.5 53t23.5 53.5t58.5 21.5t59 -21.5t24 -53.5t-24 -53t-59 -21zM228 -11q-86 0 -144.5 45.5t-58.5 122.5q0 76 59.5 119t153.5 43
q98 0 162 -32v19q0 47 -36 73t-92 26q-60 0 -116 -26q-45 -20 -65 20l-6 13q-21 43 16 65q80 48 192 48q63 0 111.5 -15t76 -38t45 -54.5t23.5 -60t6 -59.5v-250q0 -48 -48 -48h-59q-48 0 -48 48v24q-24 -38 -71 -60.5t-101 -22.5zM269 101q34 0 73 15t61 44v52
q-57 24 -130 24q-43 0 -67.5 -19.5t-24.5 -49.5q0 -27 22.5 -46.5t65.5 -19.5z" />
    <glyph glyph-name="agrave.alt" horiz-adv-x="609" 
d="M285 578q-18 0 -31 14l-98 118q-10 13 -6 22t20 9h99q21 0 30 -18l61 -115q7 -14 2 -22t-20 -8h-57zM228 -11q-86 0 -144.5 45.5t-58.5 122.5q0 76 59.5 119t153.5 43q98 0 162 -32v19q0 47 -36 73t-92 26q-60 0 -116 -26q-45 -20 -65 20l-6 13q-21 43 16 65
q80 48 192 48q63 0 111.5 -15t76 -38t45 -54.5t23.5 -60t6 -59.5v-250q0 -48 -48 -48h-59q-48 0 -48 48v24q-24 -38 -71 -60.5t-101 -22.5zM269 101q34 0 73 15t61 44v52q-57 24 -130 24q-43 0 -67.5 -19.5t-24.5 -49.5q0 -27 22.5 -46.5t65.5 -19.5z" />
    <glyph glyph-name="amacron.alt" horiz-adv-x="609" 
d="M159 609q-25 0 -25 26v48q0 25 25 25h261q26 0 26 -25v-48q0 -26 -26 -26h-261zM228 -11q-86 0 -144.5 45.5t-58.5 122.5q0 76 59.5 119t153.5 43q98 0 162 -32v19q0 47 -36 73t-92 26q-60 0 -116 -26q-45 -20 -65 20l-6 13q-21 43 16 65q80 48 192 48q63 0 111.5 -15
t76 -38t45 -54.5t23.5 -60t6 -59.5v-250q0 -48 -48 -48h-59q-48 0 -48 48v24q-24 -38 -71 -60.5t-101 -22.5zM269 101q34 0 73 15t61 44v52q-57 24 -130 24q-43 0 -67.5 -19.5t-24.5 -49.5q0 -27 22.5 -46.5t65.5 -19.5z" />
    <glyph glyph-name="aogonek.alt" horiz-adv-x="609" 
d="M475 -224q-53 0 -97.5 31t-44.5 90q0 70 67 115v60q-24 -38 -71 -60.5t-101 -22.5q-86 0 -144.5 45.5t-58.5 122.5q0 76 59.5 119t153.5 43q98 0 162 -32v19q0 47 -36 73t-92 26q-60 0 -116 -26q-45 -20 -65 20l-6 13q-21 43 16 65q80 48 192 48q63 0 111.5 -15t76 -38
t45 -54.5t23.5 -60t6 -59.5v-250q0 -48 -48 -48h-40q-38 -33 -38 -75q0 -26 17 -41.5t39 -15.5q35 0 62 32q15 20 35 9l22 -13q23 -13 11 -36q-21 -40 -58.5 -62t-81.5 -22zM269 101q34 0 73 15t61 44v52q-57 24 -130 24q-43 0 -67.5 -19.5t-24.5 -49.5q0 -27 22.5 -46.5
t65.5 -19.5z" />
    <glyph glyph-name="aring.alt" horiz-adv-x="609" 
d="M289 578q-52 0 -88 31.5t-36 81.5q0 51 36 83t88 32q54 0 90 -32t36 -83q0 -50 -36 -81.5t-90 -31.5zM289 639q24 0 39.5 15t15.5 37t-15.5 36.5t-39.5 14.5q-23 0 -39 -14.5t-16 -36.5t16 -37t39 -15zM228 -11q-86 0 -144.5 45.5t-58.5 122.5q0 76 59.5 119t153.5 43
q98 0 162 -32v19q0 47 -36 73t-92 26q-60 0 -116 -26q-45 -20 -65 20l-6 13q-21 43 16 65q80 48 192 48q63 0 111.5 -15t76 -38t45 -54.5t23.5 -60t6 -59.5v-250q0 -48 -48 -48h-59q-48 0 -48 48v24q-24 -38 -71 -60.5t-101 -22.5zM269 101q34 0 73 15t61 44v52
q-57 24 -130 24q-43 0 -67.5 -19.5t-24.5 -49.5q0 -27 22.5 -46.5t65.5 -19.5z" />
    <glyph glyph-name="aringacute.alt" horiz-adv-x="609" 
d="M289 567q-44 0 -74.5 27.5t-30.5 70.5q0 65 63 90l42 72q6 12 21 12h79q11 0 14 -6t-4 -15l-54 -69q50 -27 50 -84q0 -43 -30.5 -70.5t-75.5 -27.5zM289 620q22 0 36.5 12t14.5 33t-14.5 33t-36.5 12t-36.5 -12t-14.5 -33t14.5 -33t36.5 -12zM228 -11q-86 0 -144.5 45.5
t-58.5 122.5q0 76 59.5 119t153.5 43q98 0 162 -32v19q0 47 -36 73t-92 26q-60 0 -116 -26q-45 -20 -65 20l-6 13q-21 43 16 65q80 48 192 48q63 0 111.5 -15t76 -38t45 -54.5t23.5 -60t6 -59.5v-250q0 -48 -48 -48h-59q-48 0 -48 48v24q-24 -38 -71 -60.5t-101 -22.5z
M269 101q34 0 73 15t61 44v52q-57 24 -130 24q-43 0 -67.5 -19.5t-24.5 -49.5q0 -27 22.5 -46.5t65.5 -19.5z" />
    <glyph glyph-name="atilde.alt" horiz-adv-x="609" 
d="M178 606q-10 -22 -33 -14l-20 6q-24 9 -16 33q16 50 39 75.5t65 25.5q32 0 79.5 -24t60.5 -24q32 0 48 31q10 20 33 14l20 -7q24 -9 16 -32q-17 -51 -40 -76t-64 -25q-32 0 -79.5 23.5t-60.5 23.5q-31 0 -48 -30zM228 -11q-86 0 -144.5 45.5t-58.5 122.5q0 76 59.5 119
t153.5 43q98 0 162 -32v19q0 47 -36 73t-92 26q-60 0 -116 -26q-45 -20 -65 20l-6 13q-21 43 16 65q80 48 192 48q63 0 111.5 -15t76 -38t45 -54.5t23.5 -60t6 -59.5v-250q0 -48 -48 -48h-59q-48 0 -48 48v24q-24 -38 -71 -60.5t-101 -22.5zM269 101q34 0 73 15t61 44v52
q-57 24 -130 24q-43 0 -67.5 -19.5t-24.5 -49.5q0 -27 22.5 -46.5t65.5 -19.5z" />
    <glyph glyph-name="g.alt" horiz-adv-x="627" 
d="M305 525q98 0 153 -35q24 8 25 30q6 28 46 28h33q49 0 49 -40q0 -26 -19 -50t-62 -29q35 -45 35 -100q0 -92 -76 -144t-183 -52q-70 0 -125 21q-26 -24 -17 -44q8 -29 83 -29l176 -2q98 0 143 -45.5t45 -95.5q0 -71 -72 -122t-239 -51q-299 0 -299 149q0 40 24.5 70
t57.5 44q-37 25 -37 77q0 55 61 92q-61 54 -61 133q0 63 38.5 108.5t96 66t124.5 20.5zM308 243q49 0 79 23t30 64q0 40 -31 64t-79 24t-80 -24t-32 -64t31 -63.5t82 -23.5zM298 -138q66 0 119.5 14.5t53.5 39.5q0 15 -15.5 26t-44.5 12q-129 1 -180 5q-37 2 -55 10
q-19 -6 -29.5 -19t-10.5 -26q0 -19 17.5 -32.5t45.5 -19.5t51.5 -8t47.5 -2z" />
    <glyph glyph-name="gbreve.alt" horiz-adv-x="627" 
d="M309 578q-32 0 -62.5 10t-59 40t-38.5 77q-6 26 21 29l40 5q21 3 29 -22q14 -49 70 -49t70 49q8 25 29 22l40 -5q29 -4 17 -46q-18 -58 -63 -84t-93 -26zM305 525q98 0 153 -35q24 8 25 30q6 28 46 28h33q49 0 49 -40q0 -26 -19 -50t-62 -29q35 -45 35 -100
q0 -92 -76 -144t-183 -52q-70 0 -125 21q-26 -24 -17 -44q8 -29 83 -29l176 -2q98 0 143 -45.5t45 -95.5q0 -71 -72 -122t-239 -51q-299 0 -299 149q0 40 24.5 70t57.5 44q-37 25 -37 77q0 55 61 92q-61 54 -61 133q0 63 38.5 108.5t96 66t124.5 20.5zM308 243q49 0 79 23
t30 64q0 40 -31 64t-79 24t-80 -24t-32 -64t31 -63.5t82 -23.5zM298 -138q66 0 119.5 14.5t53.5 39.5q0 15 -15.5 26t-44.5 12q-129 1 -180 5q-37 2 -55 10q-19 -6 -29.5 -19t-10.5 -26q0 -19 17.5 -32.5t45.5 -19.5t51.5 -8t47.5 -2z" />
    <glyph glyph-name="gcircumflex.alt" horiz-adv-x="627" 
d="M164 578q-15 0 -20 8.5t3 21.5l75 116q11 17 30 17h110q19 0 30 -17l76 -116q8 -13 3 -21.5t-20 -8.5h-45q-20 0 -31 14l-67 77l-67 -77q-13 -14 -31 -14h-46zM305 525q98 0 153 -35q24 8 25 30q6 28 46 28h33q49 0 49 -40q0 -26 -19 -50t-62 -29q35 -45 35 -100
q0 -92 -76 -144t-183 -52q-70 0 -125 21q-26 -24 -17 -44q8 -29 83 -29l176 -2q98 0 143 -45.5t45 -95.5q0 -71 -72 -122t-239 -51q-299 0 -299 149q0 40 24.5 70t57.5 44q-37 25 -37 77q0 55 61 92q-61 54 -61 133q0 63 38.5 108.5t96 66t124.5 20.5zM308 243q49 0 79 23
t30 64q0 40 -31 64t-79 24t-80 -24t-32 -64t31 -63.5t82 -23.5zM298 -138q66 0 119.5 14.5t53.5 39.5q0 15 -15.5 26t-44.5 12q-129 1 -180 5q-37 2 -55 10q-19 -6 -29.5 -19t-10.5 -26q0 -19 17.5 -32.5t45.5 -19.5t51.5 -8t47.5 -2z" />
    <glyph glyph-name="gcommaaccent.alt" horiz-adv-x="627" 
d="M313 576q-40 0 -61 26.5t-21 59.5q0 110 105 162q17 9 28 -9l5 -9q9 -17 -7 -27q-35 -19 -46 -45q-5 -15 -5 -30l12 3q27 1 45 -16.5t19 -46.5q0 -29 -20.5 -48.5t-53.5 -19.5zM305 525q98 0 153 -35q24 8 25 30q6 28 46 28h33q49 0 49 -40q0 -26 -19 -50t-62 -29
q35 -45 35 -100q0 -92 -76 -144t-183 -52q-70 0 -125 21q-26 -24 -17 -44q8 -29 83 -29l176 -2q98 0 143 -45.5t45 -95.5q0 -71 -72 -122t-239 -51q-299 0 -299 149q0 40 24.5 70t57.5 44q-37 25 -37 77q0 55 61 92q-61 54 -61 133q0 63 38.5 108.5t96 66t124.5 20.5z
M308 243q49 0 79 23t30 64q0 40 -31 64t-79 24t-80 -24t-32 -64t31 -63.5t82 -23.5zM298 -138q66 0 119.5 14.5t53.5 39.5q0 15 -15.5 26t-44.5 12q-129 1 -180 5q-37 2 -55 10q-19 -6 -29.5 -19t-10.5 -26q0 -19 17.5 -32.5t45.5 -19.5t51.5 -8t47.5 -2z" />
    <glyph glyph-name="gdotaccent.alt" horiz-adv-x="627" 
d="M308 579q-38 0 -62 21.5t-24 55.5q0 35 24 57t62 22q37 0 61 -22t24 -57q0 -34 -24 -55.5t-61 -21.5zM305 525q98 0 153 -35q24 8 25 30q6 28 46 28h33q49 0 49 -40q0 -26 -19 -50t-62 -29q35 -45 35 -100q0 -92 -76 -144t-183 -52q-70 0 -125 21q-26 -24 -17 -44
q8 -29 83 -29l176 -2q98 0 143 -45.5t45 -95.5q0 -71 -72 -122t-239 -51q-299 0 -299 149q0 40 24.5 70t57.5 44q-37 25 -37 77q0 55 61 92q-61 54 -61 133q0 63 38.5 108.5t96 66t124.5 20.5zM308 243q49 0 79 23t30 64q0 40 -31 64t-79 24t-80 -24t-32 -64t31 -63.5
t82 -23.5zM298 -138q66 0 119.5 14.5t53.5 39.5q0 15 -15.5 26t-44.5 12q-129 1 -180 5q-37 2 -55 10q-19 -6 -29.5 -19t-10.5 -26q0 -19 17.5 -32.5t45.5 -19.5t51.5 -8t47.5 -2z" />
    <glyph glyph-name="y.alt" horiz-adv-x="592" 
d="M83 -235q-66 0 -122 24q-42 18 -22 65l10 19q16 40 62 24q29 -10 57 -10q93 0 154 148l-190 422q-11 25 -0.5 41t37.5 16h68q43 0 56 -39l105 -279l106 279q14 39 56 39h65q27 0 37.5 -16t-0.5 -41l-179 -410q-2 -6 -16 -39t-20.5 -46.5t-23.5 -45t-30.5 -47.5t-37 -39.5
t-47 -35t-56.5 -20.5t-69 -9z" />
    <glyph glyph-name="yacute.alt" horiz-adv-x="592" 
d="M266 578q-15 0 -20 8t2 22l61 115q9 18 30 18h99q16 0 20 -9t-6 -22l-98 -118q-11 -14 -31 -14h-57zM83 -235q-66 0 -122 24q-42 18 -22 65l10 19q16 40 62 24q29 -10 57 -10q93 0 154 148l-190 422q-11 25 -0.5 41t37.5 16h68q43 0 56 -39l105 -279l106 279q14 39 56 39
h65q27 0 37.5 -16t-0.5 -41l-179 -410q-2 -6 -16 -39t-20.5 -46.5t-23.5 -45t-30.5 -47.5t-37 -39.5t-47 -35t-56.5 -20.5t-69 -9z" />
    <glyph glyph-name="ycircumflex.alt" horiz-adv-x="592" 
d="M150 578q-15 0 -20 8.5t3 21.5l75 116q11 17 30 17h110q19 0 30 -17l76 -116q8 -13 3 -21.5t-20 -8.5h-45q-20 0 -31 14l-67 77l-67 -77q-13 -14 -31 -14h-46zM83 -235q-66 0 -122 24q-42 18 -22 65l10 19q16 40 62 24q29 -10 57 -10q93 0 154 148l-190 422
q-11 25 -0.5 41t37.5 16h68q43 0 56 -39l105 -279l106 279q14 39 56 39h65q27 0 37.5 -16t-0.5 -41l-179 -410q-2 -6 -16 -39t-20.5 -46.5t-23.5 -45t-30.5 -47.5t-37 -39.5t-47 -35t-56.5 -20.5t-69 -9z" />
    <glyph glyph-name="ydieresis.alt" horiz-adv-x="592" 
d="M171 585q-35 0 -58.5 21t-23.5 53t23.5 53.5t58.5 21.5q34 0 58 -21.5t24 -53.5t-24 -53t-58 -21zM413 585q-35 0 -58.5 21t-23.5 53t23.5 53.5t58.5 21.5t59 -21.5t24 -53.5t-24 -53t-59 -21zM83 -235q-66 0 -122 24q-42 18 -22 65l10 19q16 40 62 24q29 -10 57 -10
q93 0 154 148l-190 422q-11 25 -0.5 41t37.5 16h68q43 0 56 -39l105 -279l106 279q14 39 56 39h65q27 0 37.5 -16t-0.5 -41l-179 -410q-2 -6 -16 -39t-20.5 -46.5t-23.5 -45t-30.5 -47.5t-37 -39.5t-47 -35t-56.5 -20.5t-69 -9z" />
    <glyph glyph-name="ygrave.alt" horiz-adv-x="592" 
d="M280 578q-18 0 -31 14l-98 118q-10 13 -6 22t20 9h99q21 0 30 -18l61 -115q7 -14 2 -22t-20 -8h-57zM83 -235q-66 0 -122 24q-42 18 -22 65l10 19q16 40 62 24q29 -10 57 -10q93 0 154 148l-190 422q-11 25 -0.5 41t37.5 16h68q43 0 56 -39l105 -279l106 279q14 39 56 39
h65q27 0 37.5 -16t-0.5 -41l-179 -410q-2 -6 -16 -39t-20.5 -46.5t-23.5 -45t-30.5 -47.5t-37 -39.5t-47 -35t-56.5 -20.5t-69 -9z" />
    <glyph glyph-name="zero.oldstyle" horiz-adv-x="668" 
d="M334 -11q-133 0 -213.5 77t-80.5 191q0 115 80.5 191.5t213.5 76.5t213.5 -76.5t80.5 -191.5q0 -114 -80.5 -191t-213.5 -77zM334 112q65 0 104 43t39 102t-39 102t-104 43t-104 -43t-39 -102t39 -102t104 -43z" />
    <glyph glyph-name="one.oldstyle" horiz-adv-x="571" 
d="M118 0q-46 0 -46 46v34q0 46 46 46h119v225l-125 -43q-44 -14 -58 30l-9 29q-14 42 28 58l205 79q29 10 56 10h11q43 0 43 -46v-342h113q46 0 46 -46v-34q0 -46 -46 -46h-383z" />
    <glyph glyph-name="two.oldstyle" horiz-adv-x="602" 
d="M95 0q-48 0 -50 47v4q0 38 30 57l252 166q37 23 50 39t13 37q0 58 -96 58q-64 0 -84 -35q-1 -2 -4.5 -7t-4.5 -6.5t-4.5 -5.5t-4.5 -5l-4 -4t-5 -4t-5.5 -3t-6 -2.5t-6.5 -1t-8 -0.5h-58q-26 0 -39 14t-6 37q17 60 76.5 100t167.5 40q110 0 176.5 -44.5t66.5 -125.5
q0 -58 -41.5 -99t-134.5 -92l-72 -42v-4q52 5 137 8h80q49 0 49 -49v-28q0 -49 -49 -49h-415z" />
    <glyph glyph-name="three.oldstyle" horiz-adv-x="613" 
d="M280 -124q-125 0 -215 53q-21 12 -23.5 31.5t13.5 38.5l12 16q29 33 72 12q63 -32 131 -32q70 0 111 32t41 76q0 41 -34.5 68.5t-87.5 27.5q-29 0 -53 -6q-21 -6 -37 -2.5t-27 20.5l-10 15q-17 33 18 59l138 112h-219q-24 0 -37.5 13.5t-13.5 37.5v15q0 51 51 51h387
q50 0 50 -38v-13q0 -34 -30 -57l-159 -123q89 1 152 -48.5t63 -134.5q0 -97 -77 -160.5t-216 -63.5z" />
    <glyph glyph-name="four.oldstyle" horiz-adv-x="672" 
d="M409 -116q-51 0 -51 51v104h-284q-51 0 -51 49v15q0 36 26 63l320 322q27 26 64 26h32q47 0 47 -51v-315h80q51 0 51 -51v-7q0 -51 -51 -51h-80v-104q0 -51 -51 -51h-52zM176 148h184v182z" />
    <glyph glyph-name="five.oldstyle" horiz-adv-x="610" 
d="M294 -125q-131 0 -221 55q-22 12 -24 32t14 39l13 15q26 33 71 13q66 -33 137 -33q61 0 101.5 29.5t40.5 75.5q0 44 -35 72t-89 28q-59 0 -107 -29q-39 -22 -70 -9l-25 10q-40 16 -38 60l16 231q4 50 53 50h348q51 0 51 -51v-17q0 -51 -51 -51h-265l-10 -131
q61 42 146 42q100 0 165 -57t65 -147q0 -100 -75.5 -163.5t-210.5 -63.5z" />
    <glyph glyph-name="six.oldstyle" horiz-adv-x="656" 
d="M344 -8q-142 0 -221 85.5t-79 229.5q0 147 82.5 242.5t239.5 95.5q105 0 184 -46q22 -13 23 -33.5t-17 -38.5l-12 -12q-28 -28 -71 -10q-39 18 -97 18q-77 0 -127 -45t-57 -121q-1 -7 -1 -22q27 43 79 66.5t104 23.5q99 0 170 -58t71 -154t-75 -158.5t-196 -62.5z
M334 111q56 0 93 29t37 72q0 46 -37.5 74.5t-87.5 28.5q-60 0 -97 -29.5t-37 -74.5q0 -44 36.5 -72t92.5 -28z" />
    <glyph glyph-name="seven.oldstyle" horiz-adv-x="556" 
d="M155 -116q-25 0 -34 14.5t3 36.5l244 451h-303q-43 0 -43 43v42q0 43 43 43h435q43 0 43 -43v-24q0 -27 -13 -53l-247 -479q-16 -31 -52 -31h-76z" />
    <glyph glyph-name="eight.oldstyle" horiz-adv-x="666" 
d="M333 -8q-129 0 -210 53t-81 141q0 55 36.5 97t87.5 58q-39 17 -67 50.5t-28 76.5q0 77 73 127t189 50q117 0 190 -50t73 -127q0 -45 -28 -78.5t-68 -48.5q50 -17 87 -59t37 -96q0 -88 -81 -141t-210 -53zM335 381q50 0 79.5 22.5t29.5 52.5t-31 49.5t-80 19.5
t-79.5 -19.5t-30.5 -49.5q0 -31 30.5 -53t81.5 -22zM333 113q58 0 95.5 24.5t37.5 61.5q0 36 -37 60.5t-96 24.5q-60 0 -96.5 -25t-36.5 -60q0 -37 37.5 -61.5t95.5 -24.5z" />
    <glyph glyph-name="nine.oldstyle" horiz-adv-x="644" 
d="M283 -128q-104 0 -183 46q-22 13 -23 33.5t17 38.5l12 12q27 27 71 10q41 -19 96 -19q77 0 127.5 45t57.5 121q1 8 1 23q-27 -43 -79 -66.5t-105 -23.5q-100 0 -170 58t-70 154q0 95 74.5 158t196.5 63q141 0 220 -85.5t79 -229.5q0 -147 -82.5 -242.5t-239.5 -95.5z
M311 202q60 0 96.5 29t36.5 74q0 43 -36 71.5t-92 28.5q-57 0 -93.5 -29t-36.5 -72q0 -46 37.5 -74t87.5 -28z" />
    <glyph glyph-name="zero.taboldstyle" 
d="M339 -11q-132 0 -212.5 77t-80.5 191q0 115 80 191.5t213 76.5t214 -76.5t81 -191.5q0 -114 -81 -191t-214 -77zM339 112q66 0 105 43t39 102t-39 102t-105 43q-65 0 -103.5 -43t-38.5 -102t38.5 -102t103.5 -43z" />
    <glyph glyph-name="one.taboldstyle" 
d="M172 0q-46 0 -46 46v34q0 46 46 46h120v225l-125 -43q-44 -14 -58 30l-9 29q-16 42 27 58l205 79q29 10 57 10h11q42 0 42 -46v-342h114q46 0 46 -46v-34q0 -46 -46 -46h-384z" />
    <glyph glyph-name="two.taboldstyle" 
d="M133 0q-47 0 -49 47v4q-1 37 30 57l251 166q38 23 51 39.5t13 36.5q0 58 -96 58q-66 0 -84 -35q-1 -2 -4.5 -7t-4.5 -6.5t-4.5 -5.5t-4.5 -5l-4 -4t-5 -4t-5.5 -3t-6.5 -2.5t-7 -1t-8 -0.5h-57q-26 0 -39 14t-6 37q16 60 75.5 100t168.5 40t176 -44.5t67 -125.5
q0 -58 -41.5 -99t-134.5 -92l-73 -42v-4q53 5 138 8h80q48 0 48 -49v-28q0 -49 -48 -49h-416z" />
    <glyph glyph-name="three.taboldstyle" 
d="M314 -124q-126 0 -215 53q-22 12 -24.5 31.5t14.5 38.5l12 16q28 34 71 12q64 -32 131 -32q70 0 111 32t41 76q0 42 -34 69t-88 27q-29 0 -52 -6q-22 -6 -38 -2.5t-27 20.5l-9 15q-18 32 17 59l138 112h-218q-51 0 -51 51v15q0 51 51 51h386q51 0 51 -38v-13
q0 -34 -30 -57l-159 -123q88 1 151 -48.5t63 -134.5q0 -97 -76.5 -160.5t-215.5 -63.5z" />
    <glyph glyph-name="four.taboldstyle" 
d="M413 -116q-51 0 -51 51v104h-284q-51 0 -51 49v15q0 36 26 63l320 322q26 26 63 26h32q48 0 48 -51v-315h80q51 0 51 -51v-7q0 -51 -51 -51h-80v-104q0 -51 -51 -51h-52zM179 148h185v182z" />
    <glyph glyph-name="five.taboldstyle" 
d="M328 -125q-129 0 -221 55q-21 12 -23 32t14 39l13 15q26 33 71 13q65 -33 137 -33q61 0 101.5 29.5t40.5 75.5q0 44 -35 72t-89 28q-59 0 -108 -29q-37 -22 -69 -9l-25 10q-40 16 -38 60l16 231q4 50 53 50h348q51 0 51 -51v-17q0 -51 -51 -51h-265l-10 -131
q61 42 146 42q100 0 165 -57t65 -147q0 -100 -75.5 -163.5t-211.5 -63.5z" />
    <glyph glyph-name="six.taboldstyle" 
d="M356 -8q-142 0 -221 85.5t-79 229.5q0 147 82.5 242.5t239.5 95.5q105 0 184 -46q22 -13 23 -33.5t-18 -38.5l-12 -12q-28 -29 -70 -10q-39 18 -97 18q-77 0 -127.5 -45t-57.5 -121q-1 -7 -1 -22q27 43 79.5 66.5t104.5 23.5q99 0 169.5 -58t70.5 -154t-74.5 -158.5
t-195.5 -62.5zM346 111q56 0 92.5 29.5t36.5 71.5q0 47 -37.5 75t-87.5 28q-59 0 -96 -29.5t-37 -74.5q0 -44 36.5 -72t92.5 -28z" />
    <glyph glyph-name="seven.taboldstyle" 
d="M217 -116q-25 0 -34 14.5t2 36.5l245 451h-303q-43 0 -43 43v42q0 43 43 43h434q44 0 44 -43v-24q0 -27 -13 -53l-247 -479q-16 -31 -52 -31h-76z" />
    <glyph glyph-name="eight.taboldstyle" 
d="M340 -8q-129 0 -210 53t-81 141q0 55 36 97t88 58q-40 17 -68 50.5t-28 76.5q0 77 73.5 127t189.5 50q117 0 189.5 -50t72.5 -127q0 -45 -27.5 -78.5t-67.5 -48.5q50 -17 86.5 -59t36.5 -96q0 -88 -81 -141t-209 -53zM341 381q50 0 79.5 22.5t29.5 52.5t-30.5 49.5
t-79.5 19.5t-80 -19.5t-31 -49.5q0 -31 30.5 -53t81.5 -22zM340 113q58 0 95.5 24.5t37.5 61.5q0 36 -37 60.5t-96 24.5q-60 0 -96.5 -25t-36.5 -60q0 -37 37 -61.5t96 -24.5z" />
    <glyph glyph-name="nine.taboldstyle" 
d="M300 -128q-104 0 -183 46q-22 13 -23 33.5t17 38.5l12 12q27 27 71 10q41 -19 96 -19q78 0 128 45t57 121q1 8 1 23q-27 -43 -79 -66.5t-104 -23.5q-100 0 -170.5 58t-70.5 154q0 95 74.5 158t196.5 63q141 0 220 -85.5t79 -229.5q0 -147 -82.5 -242.5t-239.5 -95.5z
M328 202q60 0 97 29t37 74q0 44 -36.5 72t-92.5 28q-57 0 -93.5 -29t-36.5 -72q0 -46 37.5 -74t87.5 -28z" />
    <glyph glyph-name="zero.tnum" 
d="M339 -11q-142 0 -227 103.5t-85 257.5q0 155 85 258t227 103q141 0 227.5 -103.5t86.5 -257.5q0 -153 -86.5 -257t-227.5 -104zM339 117q73 0 117 66.5t44 166.5q0 101 -44 167.5t-117 66.5t-116 -66.5t-43 -167.5t43 -167t116 -66z" />
    <glyph glyph-name="one.tnum" 
d="M173 0q-48 0 -48 48v29q0 49 48 49h112v403l-102 -43q-22 -10 -38 -2t-23 31l-10 28q-14 44 28 62l184 82q27 13 56 13h16q44 0 44 -48v-526h109q48 0 48 -49v-29q0 -48 -48 -48h-376z" />
    <glyph glyph-name="two.tnum" 
d="M131 0q-44 0 -52 44l-2 13q-6 36 23 62l242 219q46 40 70 75t24 75q0 44 -31 69.5t-79 25.5q-78 0 -102 -54q-11 -23 -21.5 -32.5t-30.5 -9.5h-55q-25 0 -37.5 13.5t-7.5 36.5q16 75 79 124.5t177 49.5q116 0 187 -61t71 -165q0 -122 -130 -233l-151 -128l1 -4
q59 6 145 6h117q48 0 48 -49v-29q0 -48 -48 -48h-437z" />
    <glyph glyph-name="three.tnum" 
d="M310 -11q-134 0 -225 60q-36 24 -8 61l24 31q24 31 61 11q64 -35 138 -35t114.5 36t40.5 86q0 49 -36.5 79.5t-92.5 30.5q-32 0 -60 -10q-38 -11 -58 17l-10 14q-23 34 9 61l163 143h-238q-43 0 -43 44v39q0 43 43 43h408q43 0 43 -43v-15q0 -32 -24 -53l-174 -149
q24 0 41 -4q78 -11 130.5 -64t52.5 -137q0 -107 -79 -176.5t-220 -69.5z" />
    <glyph glyph-name="four.tnum" 
d="M409 0q-46 0 -46 46v128h-300q-46 0 -46 46v30q0 32 22 57l338 368q22 25 57 25h39q45 0 45 -46v-363h95q46 0 46 -46v-25q0 -46 -46 -46h-95v-128q0 -46 -45 -46h-64zM172 291h193v209z" />
    <glyph glyph-name="five.tnum" 
d="M325 -11q-133 0 -225 57q-40 28 -8 68l17 23q25 33 68 13q63 -33 141 -33q65 0 105 34.5t40 89.5q0 49 -36 80t-93 31t-110 -29q-36 -20 -66 -9l-28 11q-37 16 -36 57l17 271q3 47 49 47h359q49 0 49 -48v-29q0 -49 -49 -49h-271l-11 -154q55 45 146 45q104 0 168.5 -64
t64.5 -160q0 -114 -77.5 -183t-213.5 -69z" />
    <glyph glyph-name="six.tnum" 
d="M358 -11q-143 0 -223 95t-80 254q0 105 34 187.5t108.5 134t180.5 51.5q111 0 191 -54q19 -13 20 -32t-16 -36l-18 -20q-26 -29 -67 -9q-42 24 -100 24q-85 0 -134 -55.5t-49 -153.5q30 42 80 65t102 23q102 0 173.5 -63.5t71.5 -168.5q0 -106 -75.5 -174t-198.5 -68z
M349 115q55 0 92.5 32.5t37.5 83.5t-38.5 83.5t-92.5 32.5q-57 0 -95 -33.5t-38 -82.5t37.5 -82.5t96.5 -33.5z" />
    <glyph glyph-name="seven.tnum" 
d="M178 0q-25 0 -33.5 14t3.5 37l287 523h-307q-44 0 -44 44v39q0 43 44 43h439q44 0 44 -43v-22q0 -28 -13 -54l-287 -550q-16 -31 -51 -31h-82z" />
    <glyph glyph-name="eight.tnum" 
d="M340 -11q-130 0 -213.5 60t-83.5 157q0 60 40 106.5t93 62.5q-41 15 -72 53t-31 87q0 86 74.5 141t192.5 55t192 -55t74 -141q0 -49 -31 -87t-72 -53q52 -16 92.5 -61.5t40.5 -107.5q0 -97 -83 -157t-213 -60zM341 415q50 0 80.5 26.5t30.5 61.5q0 34 -32 58.5t-80 24.5
q-49 0 -80.5 -24.5t-31.5 -58.5q0 -37 30.5 -62.5t82.5 -25.5zM340 117q60 0 97.5 29t37.5 71q0 41 -36 70.5t-98 29.5q-64 0 -100.5 -28.5t-36.5 -71.5q0 -42 38 -71t98 -29z" />
    <glyph glyph-name="nine.tnum" 
d="M324 711q143 0 223 -95t80 -254q0 -105 -34 -187.5t-108.5 -134t-180.5 -51.5q-111 0 -191 54q-19 13 -20 32t16 36l18 20q26 29 67 9q42 -24 100 -24q85 0 134 55.5t49 153.5q-30 -42 -80 -65t-102 -23q-102 0 -173.5 63.5t-71.5 168.5q0 106 75.5 174t198.5 68z
M333 585q-55 0 -92.5 -32.5t-37.5 -83.5t38.5 -83.5t91.5 -32.5q57 0 95.5 33.5t38.5 82.5t-37.5 82.5t-96.5 33.5z" />
    <glyph glyph-name="zero.dnom" horiz-adv-x="372" 
d="M185 -6q-72 0 -116 52.5t-44 129.5t44 130t116 53q73 0 117 -53t44 -130t-44 -129.5t-117 -52.5zM185 70q34 0 54 29.5t20 76.5t-20 77t-54 30q-33 0 -53 -30t-20 -77t20 -76.5t53 -29.5z" />
    <glyph glyph-name="one.dnom" horiz-adv-x="228" 
d="M121 0q-18 0 -18 18v241l-57 -25q-17 -6 -23 10l-11 33q-6 16 10 22l109 49q10 5 23 5h18q18 0 18 -18v-317q0 -18 -18 -18h-51z" />
    <glyph glyph-name="two.dnom" horiz-adv-x="334" 
d="M49 0q-16 0 -19 17l-3 18q-1 14 8 23l134 118q40 36 40 66q0 20 -12.5 31.5t-33.5 11.5q-40 0 -48 -37q-4 -16 -19 -16h-50q-9 0 -14 4.5t-4 12.5q6 46 40 77.5t96 31.5q59 0 95 -32.5t36 -81.5q0 -68 -69 -123l-63 -50h128q18 0 18 -18v-35q0 -18 -18 -18h-242z" />
    <glyph glyph-name="three.dnom" horiz-adv-x="324" 
d="M148 -6q-71 0 -119 35q-14 12 -3 26l22 28q8 13 26 4q34 -22 74 -22q28 0 45.5 16.5t17.5 37.5q0 23 -17 38.5t-41 15.5q-15 0 -31 -5t-24 6l-12 15q-9 14 2 25l83 70h-117q-18 0 -18 17v34q0 18 18 18h215q18 0 18 -18v-17q0 -12 -10 -22l-82 -74q46 -4 74.5 -33.5
t28.5 -70.5q0 -52 -41 -88t-109 -36z" />
    <glyph glyph-name="four.dnom" horiz-adv-x="350" 
d="M197 0q-18 0 -18 18v71h-149q-18 0 -18 18v16q0 12 8 23l166 197q7 10 21 10h41q17 0 17 -18v-184h53q18 0 18 -18v-26q0 -18 -18 -18h-53v-71q0 -18 -17 -18h-51zM100 151h84v97z" />
    <glyph glyph-name="five.dnom" horiz-adv-x="325" 
d="M154 -6q-70 0 -118 36q-15 10 -3 25l21 27q10 12 26 4q33 -21 72 -21q32 0 48.5 16.5t16.5 40.5q0 22 -15.5 38.5t-44.5 16.5q-33 0 -56 -14q-13 -7 -24 -1l-27 12q-13 6 -13 21l9 141q2 17 19 17h193q17 0 17 -18v-34q0 -17 -17 -17h-140l-5 -64q23 16 65 16
q53 0 89 -33t36 -81q0 -57 -39.5 -92.5t-109.5 -35.5z" />
    <glyph glyph-name="six.dnom" horiz-adv-x="343" 
d="M178 -6q-71 0 -111.5 48t-40.5 127q0 81 42.5 135.5t118.5 54.5q65 0 107 -37q13 -12 -1 -26l-26 -23q-11 -11 -26 0q-22 17 -51 17q-31 0 -55.5 -26t-25.5 -69q27 37 89 37q46 0 83.5 -31.5t37.5 -83.5q0 -53 -40 -88t-101 -35zM177 65q25 0 42 14.5t17 38.5
q0 25 -16.5 40.5t-42.5 15.5q-27 0 -44 -15.5t-17 -39.5t17 -39t44 -15z" />
    <glyph glyph-name="seven.dnom" horiz-adv-x="298" 
d="M64 0q-10 0 -14 6.5t1 14.5l141 263h-157q-18 0 -18 17v34q0 18 18 18h237q18 0 18 -18v-20q0 -10 -5 -22l-144 -280q-7 -13 -21 -13h-56z" />
    <glyph glyph-name="eight.dnom" horiz-adv-x="351" 
d="M176 -6q-66 0 -109 31.5t-43 82.5q0 26 19.5 49.5t51.5 31.5q-25 7 -40 27t-15 40q0 45 38 73.5t98 28.5q58 0 96.5 -28.5t38.5 -73.5q0 -21 -15 -40.5t-41 -26.5q32 -8 52 -31.5t20 -49.5q0 -51 -43 -82.5t-108 -31.5zM176 213q24 0 37.5 11.5t13.5 28.5t-14.5 27.5
t-36.5 10.5q-23 0 -37.5 -10.5t-14.5 -27.5q0 -16 14 -28t38 -12zM176 63q27 0 46 14t19 34t-17.5 33.5t-47.5 13.5q-31 0 -48.5 -14t-17.5 -33q0 -20 18.5 -34t47.5 -14z" />
    <glyph glyph-name="nine.dnom" horiz-adv-x="343" 
d="M156 -6q-66 0 -106 37q-15 12 1 26l25 23q12 11 26 0q22 -17 52 -17q31 0 55.5 26t25.5 69q-29 -37 -90 -37q-46 0 -83.5 31.5t-37.5 83.5q0 53 40 88t101 35q71 0 111.5 -48t40.5 -127q0 -81 -42.5 -135.5t-118.5 -54.5zM166 179q27 0 44 15.5t17 39.5t-17 39t-44 15
q-25 0 -42 -14.5t-17 -38.5q0 -25 16.5 -40.5t42.5 -15.5z" />
    <glyph glyph-name="zero.numr" horiz-adv-x="372" 
d="M185 341q-72 0 -116 52.5t-44 129.5t44 130t116 53q73 0 117 -53t44 -130t-44 -129.5t-117 -52.5zM185 417q34 0 54 29.5t20 76.5t-20 77t-54 30q-33 0 -53 -30t-20 -77t20 -76.5t53 -29.5z" />
    <glyph glyph-name="one.numr" horiz-adv-x="228" 
d="M121 347q-18 0 -18 18v241l-57 -25q-17 -6 -23 10l-11 33q-6 16 10 22l109 49q10 5 23 5h18q18 0 18 -18v-317q0 -18 -18 -18h-51z" />
    <glyph glyph-name="two.numr" horiz-adv-x="334" 
d="M49 347q-16 0 -19 17l-3 18q-1 14 8 23l134 118q40 36 40 66q0 20 -12.5 31.5t-33.5 11.5q-40 0 -48 -37q-4 -16 -19 -16h-50q-9 0 -14 4.5t-4 12.5q6 46 40 77.5t96 31.5q59 0 95 -32.5t36 -81.5q0 -68 -69 -123l-63 -50h128q18 0 18 -18v-35q0 -18 -18 -18h-242z" />
    <glyph glyph-name="three.numr" horiz-adv-x="325" 
d="M148 341q-71 0 -118 35q-14 12 -3 26l21 28q10 12 26 4q34 -22 75 -22q27 0 45 16.5t18 37.5q0 23 -17.5 38.5t-40.5 15.5q-16 0 -31 -5q-16 -5 -24 6l-13 15q-10 14 3 25l82 70h-117q-17 0 -17 17v34q0 18 17 18h215q18 0 18 -18v-17q0 -13 -9 -22l-82 -74
q46 -4 74 -33.5t28 -70.5q0 -52 -40.5 -88t-109.5 -36z" />
    <glyph glyph-name="four.numr" horiz-adv-x="350" 
d="M197 347q-18 0 -18 18v71h-149q-18 0 -18 18v16q0 12 8 23l166 197q7 10 21 10h41q17 0 17 -18v-184h53q18 0 18 -18v-26q0 -18 -18 -18h-53v-71q0 -18 -17 -18h-51zM100 498h84v97z" />
    <glyph glyph-name="five.numr" horiz-adv-x="325" 
d="M154 341q-70 0 -118 36q-15 10 -3 25l21 27q10 12 26 4q33 -21 72 -21q32 0 48.5 16t16.5 41q0 22 -15.5 38.5t-44.5 16.5q-33 0 -56 -14q-13 -6 -24 -1l-27 12q-13 6 -13 21l9 141q2 17 19 17h193q17 0 17 -18v-34q0 -17 -17 -17h-140l-5 -64q23 16 65 16q53 0 89 -33
t36 -81q0 -57 -39.5 -92.5t-109.5 -35.5z" />
    <glyph glyph-name="six.numr" horiz-adv-x="343" 
d="M178 340q-71 0 -111.5 48t-40.5 127q0 82 42.5 136t118.5 54q65 0 107 -37q12 -11 -1 -26l-26 -23q-11 -11 -26 0q-22 17 -51 17q-31 0 -55.5 -26t-25.5 -69q27 37 89 37q46 0 83.5 -31.5t37.5 -83.5q0 -53 -40 -88t-101 -35zM177 411q25 0 42 14.5t17 38.5
q0 25 -16.5 40.5t-42.5 15.5q-27 0 -44 -15.5t-17 -39.5t17 -39t44 -15z" />
    <glyph glyph-name="seven.numr" horiz-adv-x="297" 
d="M63 347q-10 0 -13.5 6.5t1.5 14.5l141 263h-157q-18 0 -18 17v34q0 18 18 18h237q17 0 17 -18v-20q0 -13 -5 -22l-144 -280q-6 -13 -20 -13h-57z" />
    <glyph glyph-name="eight.numr" horiz-adv-x="351" 
d="M176 341q-66 0 -109 31.5t-43 82.5q0 26 19.5 49.5t51.5 31.5q-25 7 -40 27t-15 40q0 45 38 73.5t98 28.5q58 0 96.5 -28.5t38.5 -73.5q0 -21 -15 -40.5t-41 -26.5q32 -8 52 -31.5t20 -49.5q0 -51 -43 -82.5t-108 -31.5zM176 560q24 0 37.5 11.5t13.5 28.5t-14.5 27.5
t-36.5 10.5q-23 0 -37.5 -10.5t-14.5 -27.5q0 -16 14 -28t38 -12zM176 410q27 0 46 14t19 34t-17.5 33.5t-47.5 13.5q-31 0 -48.5 -14t-17.5 -33q0 -20 18.5 -34t47.5 -14z" />
    <glyph glyph-name="nine.numr" horiz-adv-x="343" 
d="M156 340q-64 0 -106 37q-15 12 1 26l25 23q12 10 26 1q22 -18 52 -18q31 0 55.5 26t25.5 69q-29 -37 -90 -37q-46 0 -83.5 31.5t-37.5 83.5q0 53 40 88t101 35q71 0 111.5 -47.5t40.5 -127.5q0 -81 -42.5 -135.5t-118.5 -54.5zM166 525q27 0 44 15.5t17 39.5t-17 39
t-44 15q-25 0 -42 -14.5t-17 -38.5q0 -25 16.5 -40.5t42.5 -15.5z" />
    <glyph glyph-name="periodcentered.case" horiz-adv-x="302" 
d="M151 263q-41 0 -68 24.5t-27 62.5t27 63.5t68 25.5t68.5 -25.5t27.5 -63.5q0 -37 -27.5 -62t-68.5 -25z" />
    <glyph glyph-name="bullet.case" horiz-adv-x="408" 
d="M204 211q-58 0 -98.5 40.5t-40.5 98.5t40.5 98.5t98.5 40.5t98.5 -40.5t40.5 -98.5t-40.5 -98.5t-98.5 -40.5z" />
    <glyph glyph-name="exclamdown.case" horiz-adv-x="304" 
d="M153 711q40 0 68 -25t28 -62t-28 -63t-68 -26q-41 0 -68.5 25.5t-27.5 63.5q0 37 27.5 62t68.5 25zM136 465h34q37 0 40 -36l36 -368v-23q0 -38 -38 -38h-109q-38 0 -38 38v23l35 368q4 36 40 36z" />
    <glyph glyph-name="questiondown.case" horiz-adv-x="537" 
d="M296 711q41 0 68 -24.5t27 -62.5t-27 -63.5t-68 -25.5q-40 0 -68 25.5t-28 63.5q0 37 27.5 62t68.5 25zM333 465q25 0 25 -19v-8q-1 -28 -4 -43.5t-18 -34t-44 -37.5q-58 -36 -82.5 -63.5t-24.5 -64.5t25 -57.5t67 -20.5q38 0 62 19t24 53v10q0 24 23 24h88q25 0 28 -21
q3 -15 3 -27q0 -70 -60.5 -128t-170.5 -58q-107 0 -174 53.5t-67 140.5q0 39 13.5 72t43.5 62.5t51 46t61 43.5q29 18 29 38v6q0 14 21 14h81z" />
    <glyph glyph-name="comma.dnom" horiz-adv-x="179" 
d="M66 -76q-13 -6 -20 7l-3 5q-7 12 7 20q34 18 36 48h-10q-16 1 -25.5 13t-9.5 26q-1 19 11.5 32t35.5 13q28 0 40 -18t12 -38q0 -35 -19.5 -64t-54.5 -44z" />
    <glyph glyph-name="period.dnom" horiz-adv-x="180" 
d="M90 -6q-22 0 -37.5 13.5t-15.5 33.5t15 33.5t38 13.5q22 0 37.5 -13.5t15.5 -33.5q0 -19 -15.5 -33t-37.5 -14z" />
    <glyph glyph-name="comma.numr" horiz-adv-x="179" 
d="M66 269q-13 -6 -20 8l-3 4q-7 12 7 20q34 18 36 49q-3 -1 -10 -1q-16 1 -25.5 13t-9.5 26q-1 20 11.5 33t35.5 13q28 0 40 -18.5t12 -38.5q0 -35 -19.5 -64t-54.5 -44z" />
    <glyph glyph-name="period.numr" horiz-adv-x="180" 
d="M90 341q-22 0 -37.5 13.5t-15.5 33.5t15 33.5t38 13.5q22 0 37.5 -13.5t15.5 -33.5q0 -19 -15.5 -33t-37.5 -14z" />
    <glyph glyph-name="braceleft.case" horiz-adv-x="391" 
d="M247 -147q-78 0 -129.5 38.5t-51.5 115.5q0 36 9.5 73.5t27.5 86.5t26 78q8 27 -4.5 40.5t-42.5 19.5l-20 3q-24 5 -24 27v30q0 23 19 26l25 5q31 5 43 18.5t4 40.5q-8 28 -26 77.5t-27.5 87t-9.5 73.5q0 77 51.5 115.5t129.5 38.5q34 0 86 -5q24 -3 24 -27v-45
q0 -26 -28 -24q-32 4 -61 4q-66 0 -66 -69q0 -39 30 -120.5t30 -116.5q0 -81 -84 -93v-3q43 -6 63.5 -34t20.5 -58q0 -35 -30 -116.5t-30 -120.5q0 -69 66 -69q29 0 61 4q28 2 28 -24v-45q0 -24 -29 -27q-50 -5 -81 -5z" />
    <glyph glyph-name="braceright.case" horiz-adv-x="391" 
d="M145 -147q-30 0 -82 5q-29 3 -29 27v45q0 26 28 24q33 -4 61 -4q66 0 66 69q0 39 -30 120.5t-30 116.5q0 30 20.5 58t63.5 34v3q-84 12 -84 93q0 35 30 116.5t30 120.5q0 69 -66 69q-28 0 -61 -4q-28 -2 -28 24v45q0 24 25 27q50 5 86 5q78 0 129 -38.5t51 -115.5
q0 -36 -9.5 -73.5t-27.5 -87t-26 -77.5q-8 -27 4.5 -40.5t42.5 -18.5l25 -5q19 -3 19 -26v-30q0 -22 -23 -27l-20 -3q-31 -6 -43.5 -19t-4.5 -41q8 -29 26 -78t27.5 -86.5t9.5 -73.5q0 -76 -51.5 -115t-128.5 -39z" />
    <glyph glyph-name="bracketleft.case" horiz-adv-x="410" 
d="M101 -142q-34 0 -34 33v920q0 33 34 33h245q33 0 33 -33v-49q0 -33 -33 -33h-134v-756h134q33 0 33 -33v-49q0 -33 -33 -33h-245z" />
    <glyph glyph-name="bracketright.case" horiz-adv-x="410" 
d="M65 -142q-34 0 -34 33v49q0 33 34 33h133v756h-133q-34 0 -34 33v49q0 33 34 33h244q34 0 34 -33v-920q0 -33 -34 -33h-244z" />
    <glyph glyph-name="parenleft.case" horiz-adv-x="356" 
d="M265 -152q-27 -15 -46 8q-30 34 -57 76t-56.5 104t-47 144t-17.5 171t17.5 170.5t47 143.5t56.5 104t57 76q19 23 46 7l41 -24q29 -17 12 -45q-129 -216 -129 -433q0 -119 39.5 -234t89.5 -198q17 -29 -11 -46z" />
    <glyph glyph-name="parenright.case" horiz-adv-x="356" 
d="M137 -145q-19 -24 -46 -8l-42 24q-28 17 -11 46q129 220 129 432q0 215 -129 433q-17 28 11 45l42 25q26 16 46 -7q178 -210 178 -495q0 -89 -17.5 -171t-47.5 -144t-56.5 -104t-56.5 -76z" />
    <glyph glyph-name="parenleft.dnom" horiz-adv-x="210" 
d="M146 -66q-15 -9 -25 3q-34 39 -61.5 103t-27.5 136q0 71 28 135.5t61 103.5q11 14 25 4l22 -16q14 -9 5 -24q-60 -105 -60 -203q0 -99 60 -204q10 -14 -5 -24z" />
    <glyph glyph-name="parenright.dnom" horiz-adv-x="210" 
d="M89 -63q-11 -12 -24 -3l-23 14q-15 10 -5 24q60 105 60 204q0 98 -60 203q-8 14 5 24l22 16q14 10 25 -4q33 -39 61 -103.5t28 -135.5q0 -72 -27.5 -136t-61.5 -103z" />
    <glyph glyph-name="parenleft.numr" horiz-adv-x="210" 
d="M145 277q-14 -10 -25 2q-34 41 -61.5 104.5t-27.5 135.5q0 71 28 135t62 104q10 13 25 3l22 -15q12 -9 5 -24q-60 -101 -60 -204q0 -102 60 -203q7 -15 -6 -24z" />
    <glyph glyph-name="parenright.numr" horiz-adv-x="208" 
d="M88 279q-11 -12 -24 -2l-23 14q-14 9 -5 24q60 105 60 203q0 99 -60 204q-8 14 5 24l22 15q14 11 25 -3q33 -39 61 -103.5t28 -135.5q0 -72 -27.5 -135.5t-61.5 -104.5z" />
    <glyph glyph-name="emdash.case" horiz-adv-x="803" 
d="M87 282q-25 0 -25 25v86q0 25 25 25h629q26 0 26 -25v-86q0 -25 -26 -25h-629z" />
    <glyph glyph-name="endash.case" horiz-adv-x="592" 
d="M87 282q-25 0 -25 25v86q0 25 25 25h418q25 0 25 -25v-86q0 -25 -25 -25h-418z" />
    <glyph glyph-name="hyphen.case" horiz-adv-x="481" 
d="M87 282q-25 0 -25 25v86q0 25 25 25h307q25 0 25 -25v-86q0 -25 -25 -25h-307z" />
    <glyph glyph-name="hyphen.dnom" horiz-adv-x="279" 
d="M64 140q-25 0 -25 25v20q0 25 25 25h151q25 0 25 -25v-20q0 -25 -25 -25h-151z" />
    <glyph glyph-name="hyphen.numr" horiz-adv-x="279" 
d="M64 481q-25 0 -25 26v20q0 25 25 25h151q25 0 25 -25v-20q0 -26 -25 -26h-151z" />
    <glyph glyph-name="guillemotleft.case" horiz-adv-x="642" 
d="M261 124q-18 -18 -36 2l-171 196q-12 15 -12 29q0 12 12 27l171 197q17 20 36 2l48 -44q17 -16 2 -36l-127 -147l126 -145q16 -19 -1 -36zM525 124q-19 -17 -36 2l-171 196q-12 15 -12 29q0 12 12 27l171 197q16 19 36 2l48 -44q17 -16 2 -36l-127 -147l126 -145
q16 -19 -2 -36z" />
    <glyph glyph-name="guillemotright.case" horiz-adv-x="642" 
d="M117 124l-48 45q-17 17 -1 36l126 145l-127 147q-15 20 2 36l48 44q20 18 35 -2l172 -197q11 -14 11 -27q0 -15 -11 -29l-172 -196q-17 -20 -35 -2zM381 124l-48 45q-18 17 -1 36l125 145l-127 147q-15 20 2 36l49 44q19 17 35 -2l172 -197q11 -14 11 -27q0 -15 -11 -29
l-172 -196q-18 -19 -35 -2z" />
    <glyph glyph-name="guilsinglleft.case" horiz-adv-x="378" 
d="M261 124q-18 -18 -36 2l-171 196q-12 15 -12 29q0 12 12 27l171 197q17 20 36 2l48 -44q17 -16 2 -36l-127 -147l126 -145q16 -19 -1 -36z" />
    <glyph glyph-name="guilsinglright.case" horiz-adv-x="378" 
d="M117 124l-48 45q-17 17 -1 36l126 145l-127 147q-15 20 2 36l48 44q20 18 35 -2l172 -197q11 -14 11 -27q0 -15 -11 -29l-172 -196q-17 -20 -35 -2z" />
    <glyph glyph-name="cent.case" horiz-adv-x="576" 
d="M250 -5q-27 0 -22 28l13 75q-92 24 -147 93t-55 159q0 112 78.5 189.5t205.5 81.5h12l12 65q5 23 27 23h16q12 0 18.5 -7.5t4.5 -20.5l-13 -67q66 -14 118 -50q20 -14 4 -35l-44 -56q-14 -18 -36 -5q-30 18 -64 24l-51 -280q59 -8 116 26q22 14 35 -5l44 -56
q15 -20 -4 -35q-87 -63 -214 -55l-12 -69q-4 -23 -28 -23h-14zM265 230l47 263q-52 -9 -85 -47.5t-33 -92.5q0 -84 71 -123z" />
    <glyph glyph-name="cent.dnom" horiz-adv-x="303" 
d="M132 -25q-15 0 -14 16l6 33q-47 13 -73.5 47.5t-26.5 81.5q0 57 40 94.5t103 39.5l6 33q2 14 16 14h7q17 0 14 -16l-5 -35q33 -5 63 -24q12 -9 4 -21l-19 -29q-7 -12 -21 -3q-16 10 -38 13l-20 -134q31 0 55 15q13 9 22 -3l21 -29q10 -13 -4 -21q-49 -32 -105 -29l-5 -29
q-1 -14 -16 -14h-10zM136 95l18 123q-21 -7 -34.5 -25t-13.5 -40q0 -35 30 -58z" />
    <glyph glyph-name="dollar.dnom" horiz-adv-x="311" 
d="M156 -39q-13 0 -13 12v25q-43 4 -75.5 26t-43.5 58q-6 14 10 18l40 10q13 3 19 -10q16 -32 50 -37v80l-18 7q-89 34 -89 102q0 42 30 69t77 31v24q0 13 13 13h7q13 0 13 -13v-25q68 -8 97 -64q6 -14 -8 -19l-36 -18q-12 -5 -20 8q-10 18 -33 27v-75l17 -6
q46 -17 70.5 -45.5t24.5 -55.5q0 -45 -32 -72t-80 -32v-26q0 -12 -13 -12h-7zM143 222v66q-28 -9 -28 -35q0 -17 21 -27zM176 65q31 8 31 35q0 17 -25 29l-6 2v-66z" />
    <glyph glyph-name="Euro.dnom" horiz-adv-x="365" 
d="M249 -6q-74 0 -117.5 34t-56.5 94h-41q-13 0 -13 13v11q0 12 13 12h36v26h-36q-13 0 -13 13v12q0 12 13 12h40q13 63 56 100t114 37q48 0 90 -23q11 -5 6 -17l-15 -35q-5 -12 -18 -6q-27 12 -61 12q-35 0 -57.5 -19t-28.5 -49h127q16 0 10 -14l-5 -13q-5 -10 -15 -10
h-123v-26h109q15 0 10 -14l-6 -12q-3 -10 -14 -10h-91q24 -61 85 -61q31 0 62 10q15 5 15 -10v-38q0 -11 -12 -16q-32 -13 -63 -13z" />
    <glyph glyph-name="florin.dnom" horiz-adv-x="269" 
d="M79 -110q-21 0 -50 11q-12 5 -5 17l14 30q4 10 16 7q6 -1 13 -1q22 0 22 28v173h-24q-13 0 -13 13v22q0 13 13 13h24v54q0 101 95 101q23 0 50 -10q11 -5 6 -17l-14 -32q-4 -10 -17 -7q-6 2 -14 2q-20 0 -20 -28v-63h46q13 0 13 -13v-22q0 -13 -13 -13h-46v-164
q0 -55 -27.5 -78t-68.5 -23z" />
    </font>
</defs>
</svg>
