<?xml version="1.0" standalone="no"?>
<!DOCTYPE svg PUBLIC "-//W3C//DTD SVG 1.1//EN" "http://www.w3.org/Graphics/SVG/1.1/DTD/svg11.dtd" >
<svg xmlns="http://www.w3.org/2000/svg" xmlns:xlink="http://www.w3.org/1999/xlink" version="1.1">
<metadata>
Created by FontForge 20170731 at Tue Feb 16 17:32:30 2016
 By Aleksey,,,
Copyright (c) 2016 by Olivier Gourvat. All rights reserved.
</metadata>
<defs>
<font id="FilsonSoftMedium" horiz-adv-x="680" >
  <font-face 
    font-family="Filson Soft Medium"
    font-weight="500"
    font-stretch="normal"
    units-per-em="1000"
    panose-1="0 0 6 0 0 0 0 0 0 0"
    ascent="800"
    descent="-200"
    x-height="508"
    cap-height="700"
    bbox="-246.05 -296.667 1371 995"
    underline-thickness="50"
    underline-position="-200"
    unicode-range="U+0020-FB04"
  />
<missing-glyph horiz-adv-x="673" 
d="M120 0q-20 0 -20 20v661q0 20 20 20h433q20 0 20 -20v-661q0 -20 -20 -20h-433zM284 278q0 -21 20 -21h20q18 0 21 20q1 13 11 20q2 1 14.5 8.5t19 12t20 14.5t21.5 18t19 20.5t17 24.5t10.5 28t4.5 32q0 59 -44 94.5t-110 35.5q-73 0 -110 -34.5t-37 -76.5q0 -10 4 -30
q4 -16 22 -16h23q20 0 17 22q-2 12 -2 22q0 25 21.5 41t57.5 16q42 0 66 -20t24 -54v-2q0 -33 -20.5 -56.5t-66.5 -51.5q-27 -17 -34.5 -28.5t-8.5 -38.5zM314 95q21 0 35.5 14t14.5 35q0 20 -14.5 34.5t-35.5 14.5q-20 0 -34 -14.5t-14 -34.5q0 -21 14 -35t34 -14z" />
    <glyph glyph-name="f_f" unicode="ff" horiz-adv-x="775" 
d="M145 0q-43 0 -43 42v368h-51q-23 0 -23 23v48q0 23 23 23h51v34q0 57 16.5 97t45 60.5t59.5 29t68 8.5q89 0 130 -54q26 -27 -6 -54l-16 -8q-15 -10 -25 -9.5t-25 11.5q-16 13 -47 13q-72 0 -72 -86v-42h260v34q0 57 16.5 97t45 60.5t59.5 29t67 8.5q57 0 92.5 -26
t42.5 -67l5 -13q4 -11 -20 -28l-22 -5q-22 -18 -31 -2q-1 1 -3 3.5t-3 3.5q-2 14 -18 23.5t-35 9.5q-68 0 -68 -86v-42h100q22 0 22 -23v-48q0 -23 -22 -23h-99v-368q0 -42 -42 -42h-45q-42 0 -42 42v368h-258v-368q0 -42 -42 -42h-45z" />
    <glyph glyph-name="fi" unicode="fi" horiz-adv-x="681" 
d="M145 0q-43 0 -43 42v368h-41q-33 0 -33 33v27q0 34 33 34h41v32q0 104 64.5 150.5t163.5 46.5q123 0 176 -68q27 -30 -7 -54l-15 -8q-24 -17 -48 2q-45 26 -93 26q-113 0 -113 -96v-31h338q42 0 42 -43v-419q0 -42 -42 -42h-44q-43 0 -43 42v368h-249v-368q0 -42 -42 -42
h-45z" />
    <glyph glyph-name="fl" unicode="fl" horiz-adv-x="658" 
d="M145 0q-43 0 -43 42v368h-51q-23 0 -23 23v48q0 23 23 23h51v32q0 197 244 197q111 0 206 -24q35 -9 35 -47v-620q0 -42 -42 -42h-44q-43 0 -43 42v576q-45 14 -111 14q-117 0 -117 -96v-32h100q23 0 23 -23v-48q0 -23 -23 -23h-98v-368q0 -42 -42 -42h-45z" />
    <glyph glyph-name="f_f_i" unicode="ffi" horiz-adv-x="1069" 
d="M955 504q43 0 43 -43v-419q0 -42 -43 -42h-44q-42 0 -42 42v368h-250v-368q0 -42 -42 -42h-45q-42 0 -42 42v368h-258v-368q0 -42 -42 -42h-45q-43 0 -43 42v368h-51q-23 0 -23 23v48q0 23 23 23h51v32q0 58 19 98.5t52 61t68 29t76 8.5q63 0 114 -30q37 -22 9 -58
l-12 -11q-21 -26 -53 -11q-24 11 -46 11q-99 0 -99 -99v-31h260v32q0 104 64.5 150.5t163.5 46.5q123 0 175 -68q29 -30 -7 -54l-14 -8q-24 -17 -48 2q-45 26 -93 26q-113 0 -113 -96v-31h337z" />
    <glyph glyph-name="f_f_l" unicode="ffl" horiz-adv-x="1046" 
d="M145 0q-43 0 -43 42v368h-51q-23 0 -23 23v48q0 23 23 23h51v32q0 58 19 98.5t52 61t68 29t76 8.5q66 0 113 -27q38 -21 9 -57l-11 -12q-19 -26 -53 -12q-19 9 -46 9q-99 0 -99 -99v-31h260v32q0 197 243 197q113 0 206 -24q36 -9 36 -47v-620q0 -42 -43 -42h-44
q-42 0 -42 42v576q-46 14 -112 14q-116 0 -116 -96v-32h99q23 0 23 -23v-48q0 -23 -23 -23h-98v-368q0 -42 -42 -42h-45q-42 0 -42 42v368h-258v-368q0 -42 -42 -42h-45z" />
    <glyph glyph-name="f_f_j" unicode="ffj" horiz-adv-x="1085" 
d="M991 504q23 0 23 -23v-560q0 -78 -51 -117t-122 -39q-72 0 -117 34.5t-45 98.5q0 16 3 30q3 20 25 20h60q23 0 21 -18q-1 -8 -1 -18q0 -22 14 -34t35 -12q23 0 37 14t14 39v491h-268v-387q0 -23 -23 -23h-84q-22 0 -22 23v387h-258v-368q0 -42 -43 -42h-45q-42 0 -42 42
v368h-52q-23 0 -23 23v48q0 23 23 23h52v32q0 57 19 98t52 61.5t67.5 29t75.5 8.5q67 0 114 -27q38 -21 9 -57l-11 -12q-21 -26 -53 -12q-19 9 -46 9q-99 0 -99 -99v-31h260v32q0 104 64 150.5t163 46.5q132 0 181 -79q21 -20 0 -41l-35 -12q-17 -16 -35 -4q-42 34 -98 34
q-112 0 -112 -96v-31h373z" />
    <glyph glyph-name="f_j" unicode="fj" horiz-adv-x="698" 
d="M454 -235q-72 0 -117 34.5t-45 98.5q0 16 3 30q1 20 24 20h61q12 0 17 -4.5t3 -13.5q-1 -8 -1 -18q1 -22 15 -34t34 -12q24 0 37.5 14t13.5 39v491h-267v-387q0 -23 -23 -23h-84q-23 0 -23 23v387h-51q-23 0 -23 23v48q0 23 23 23h51v32q0 104 64.5 150.5t163.5 46.5
q132 0 180 -79q22 -20 0 -41l-35 -12q-16 -16 -34 -4q-43 34 -98 34q-113 0 -113 -96v-31h374q23 0 23 -23v-560q0 -78 -51.5 -117t-121.5 -39z" />
    <glyph glyph-name=".notdef" horiz-adv-x="673" 
d="M120 0q-20 0 -20 20v661q0 20 20 20h433q20 0 20 -20v-661q0 -20 -20 -20h-433zM284 278q0 -21 20 -21h20q18 0 21 20q1 13 11 20q2 1 14.5 8.5t19 12t20 14.5t21.5 18t19 20.5t17 24.5t10.5 28t4.5 32q0 59 -44 94.5t-110 35.5q-73 0 -110 -34.5t-37 -76.5q0 -10 4 -30
q4 -16 22 -16h23q20 0 17 22q-2 12 -2 22q0 25 21.5 41t57.5 16q42 0 66 -20t24 -54v-2q0 -33 -20.5 -56.5t-66.5 -51.5q-27 -17 -34.5 -28.5t-8.5 -38.5zM314 95q21 0 35.5 14t14.5 35q0 20 -14.5 34.5t-35.5 14.5q-20 0 -34 -14.5t-14 -34.5q0 -21 14 -35t34 -14z" />
    <glyph glyph-name=".null" horiz-adv-x="0" 
 />
    <glyph glyph-name="nonmarkingreturn" horiz-adv-x="333" 
 />
    <glyph glyph-name="space" unicode=" " horiz-adv-x="252" 
 />
    <glyph glyph-name="exclam" unicode="!" horiz-adv-x="279" 
d="M127 228q-33 0 -36 33l-29 380v25q0 34 35 34h84q35 0 35 -34v-25l-29 -380q-3 -33 -36 -33h-24zM139 -11q-36 0 -60.5 23.5t-24.5 57.5q0 35 24.5 58.5t60.5 23.5t61.5 -24t25.5 -58t-25.5 -57.5t-61.5 -23.5z" />
    <glyph glyph-name="quotedbl" unicode="&#x22;" horiz-adv-x="465" 
d="M105 424q-29 0 -32 31l-13 230q-1 31 30 31h60q32 0 29 -31l-12 -230q-3 -31 -32 -31h-30zM330 424q-29 0 -32 31l-12 230q-3 31 29 31h61q30 0 29 -31l-13 -230q-2 -31 -32 -31h-30z" />
    <glyph glyph-name="numbersign" unicode="#" horiz-adv-x="763" 
d="M164 0q-16 0 -23.5 9t-3.5 25l31 126h-100q-16 0 -23 9.5t-4 25.5l8 32q7 27 35 27h107l53 209h-100q-16 0 -23.5 9.5t-3.5 25.5l9 32q6 26 34 26h106l31 118q6 26 34 26h34q16 0 23.5 -9t3.5 -25l-28 -110h133l29 118q7 26 35 26h34q17 0 24 -9t3 -25l-27 -110h99
q35 0 27 -35l-8 -31q-7 -27 -35 -27h-106l-53 -209h100q17 0 24 -9.5t3 -25.5l-8 -32q-7 -27 -35 -27h-106l-34 -133q-7 -27 -34 -27h-35q-17 0 -24 9t-3 25l32 126h-133l-34 -133q-6 -27 -34 -27h-34zM289 254h133l51 209h-133z" />
    <glyph glyph-name="dollar" unicode="$" horiz-adv-x="571" 
d="M284 -85q-20 0 -20 20v73q-86 5 -145 47t-80 108q-8 22 17 27l66 17q21 4 28 -16q28 -67 114 -76v185l-33 12q-77 24 -122.5 73.5t-45.5 110.5q0 80 57 131.5t144 58.5v80q0 20 20 20h18q20 0 20 -20v-81q68 -7 115.5 -43t67.5 -94q7 -21 -16 -29l-63 -19q-20 -6 -29 15
q-20 50 -75 61v-174l36 -13q170 -56 172 -187q0 -83 -57.5 -133.5t-150.5 -59.5v-74q0 -20 -20 -20h-18zM264 423v155q-33 -6 -53 -25.5t-20 -49.5q0 -52 67 -77zM322 117q38 7 59.5 28t21.5 52q0 51 -76 80l-5 2v-162z" />
    <glyph glyph-name="percent" unicode="%" horiz-adv-x="954" 
d="M221 345q-79 0 -133.5 53t-54.5 130t54.5 130t133.5 53q80 0 134 -53t54 -130t-54 -130t-134 -53zM268 0q-14 0 -19 8.5t2 20.5l363 654q8 17 29 17h38q14 0 19 -8.5t-2 -20.5l-363 -654q-9 -17 -29 -17h-38zM221 433q39 0 64.5 27t25.5 68t-25.5 68.5t-64.5 27.5
q-38 0 -63.5 -28t-25.5 -68t25.5 -67.5t63.5 -27.5zM733 -11q-80 0 -134 52.5t-54 129.5q0 78 54 131t134 53t134 -53t54 -131q0 -77 -54 -129.5t-134 -52.5zM733 77q39 0 64.5 27t25.5 67q0 41 -25.5 69t-64.5 28q-38 0 -63.5 -28t-25.5 -69q0 -40 25.5 -67t63.5 -27z" />
    <glyph glyph-name="ampersand" unicode="&#x26;" horiz-adv-x="795" 
d="M287 -11q-106 0 -178 54t-72 145q0 75 53 129t132 85q-36 26 -59.5 66.5t-23.5 80.5q0 43 18.5 75.5t49 50.5t64.5 27t69 9q78 0 129 -46.5t51 -108.5q0 -53 -42.5 -102.5t-101.5 -73.5l113 -126l79 101q10 13 30 13h74q16 0 20 -8.5t-6 -20.5l-131 -160l39 -44
q35 -36 70 -36q31 0 59 16q24 13 33 -8l22 -41q9 -19 -7 -34q-50 -43 -115 -43q-74 0 -137 60l-25 26q-32 -41 -87.5 -63.5t-119.5 -22.5zM313 442q92 45 92 105q0 27 -20.5 48.5t-53.5 21.5q-31 0 -51.5 -20.5t-20.5 -53.5q0 -53 54 -101zM290 92q78 0 132 66l-142 163
q-47 -17 -82 -50.5t-35 -76.5q0 -44 36.5 -73t90.5 -29z" />
    <glyph glyph-name="quotesingle" unicode="'" horiz-adv-x="240" 
d="M105 424q-29 0 -32 31l-13 230q-1 31 30 31h60q32 0 29 -31l-12 -230q-3 -31 -32 -31h-30z" />
    <glyph glyph-name="parenleft" unicode="(" horiz-adv-x="332" 
d="M254 -212q-22 -13 -38 6q-29 33 -55.5 73.5t-55.5 101.5t-46.5 141t-17.5 166q0 85 17.5 164.5t46.5 140t55.5 101.5t55.5 74q16 18 38 5l35 -21q23 -14 10 -38q-133 -207 -133 -428q0 -217 133 -427q14 -24 -9 -38z" />
    <glyph glyph-name="parenright" unicode=")" horiz-adv-x="332" 
d="M116 -206q-16 -19 -38 -6l-36 21q-23 14 -9 38q133 214 133 427q0 217 -133 428q-14 24 9 38l36 22q21 12 38 -6q28 -33 54.5 -74t56 -101.5t47 -140t17.5 -164.5q0 -86 -17.5 -166t-47 -141t-55.5 -101.5t-55 -73.5z" />
    <glyph glyph-name="asterisk" unicode="*" horiz-adv-x="460" 
d="M169 381q-14 -23 -35 -6l-28 20q-21 16 -4 36l67 85l-104 29q-26 6 -18 32l12 35q8 26 33 15l100 -39l-6 109q-2 26 26 26h36q28 0 25 -26l-6 -109l102 39q25 12 33 -15l11 -34q8 -26 -18 -32l-104 -29l69 -85q16 -22 -5 -37l-28 -20q-21 -16 -36 7l-59 89z" />
    <glyph glyph-name="plus" unicode="+" horiz-adv-x="560" 
d="M246 71q-23 0 -23 23v160h-162q-23 0 -23 22v65q0 23 23 23h162v160q0 22 23 22h69q23 0 23 -22v-160h161q23 0 23 -23v-65q0 -22 -23 -22h-161v-160q0 -23 -23 -23h-69z" />
    <glyph glyph-name="comma" unicode="," horiz-adv-x="267" 
d="M88 -138q-18 -10 -28 9l-5 9q-9 18 9 28q31 18 49 48.5t19 60.5q-4 -1 -9.5 -2t-6.5 -1q-29 -1 -46.5 19t-18.5 46q-1 33 21 55t61 22q43 0 62.5 -30t19.5 -62q0 -65 -35 -120.5t-92 -81.5z" />
    <glyph glyph-name="hyphen" unicode="-" horiz-adv-x="472" 
d="M85 247q-23 0 -23 23v70q0 23 23 23h301q23 0 23 -23v-70q0 -23 -23 -23h-301z" />
    <glyph glyph-name="period" unicode="." horiz-adv-x="270" 
d="M135 -11q-37 0 -61.5 23t-24.5 58t24.5 58.5t61.5 23.5q36 0 61 -24t25 -58t-25 -57.5t-61 -23.5z" />
    <glyph glyph-name="slash" unicode="/" horiz-adv-x="543" 
d="M114 -37h-56q-15 0 -20 8.5t2 22.5l357 724q10 19 31 19h57q14 0 19.5 -8.5t-1.5 -21.5l-358 -725q-10 -19 -31 -19z" />
    <glyph glyph-name="zero" unicode="0" horiz-adv-x="709" 
d="M354 -11q-139 0 -223 103.5t-84 257.5q0 155 83.5 258.5t223.5 103.5q139 0 223.5 -104t84.5 -258t-84.5 -257.5t-223.5 -103.5zM354 98q82 0 131.5 72t49.5 180q0 109 -49.5 181t-131.5 72t-130.5 -72t-48.5 -181q0 -108 48.5 -180t130.5 -72z" />
    <glyph glyph-name="one" unicode="1" horiz-adv-x="397" 
d="M239 0q-42 0 -42 42v511l-112 -49q-41 -17 -54 25l-7 22q-12 38 24 55l183 83q26 11 59 11q36 0 36 -42v-616q0 -42 -42 -42h-45z" />
    <glyph glyph-name="two" unicode="2" horiz-adv-x="618" 
d="M100 0q-38 0 -46 38l-1 10q-6 32 19 55l255 230q46 40 71 77t25 80q0 52 -35 82t-92 30q-96 0 -119 -68q-14 -37 -45 -37h-44q-22 0 -33 12t-6 32q14 71 75 120.5t174 49.5q114 0 182.5 -60t68.5 -161q0 -121 -129 -232l-176 -153l1 -4q46 5 151 5h140q42 0 42 -42v-22
q0 -42 -42 -42h-436z" />
    <glyph glyph-name="three" unicode="3" horiz-adv-x="617" 
d="M280 -11q-133 0 -222 61q-31 22 -6 52l21 26q22 27 53 8q64 -37 148 -37q79 0 123.5 41t44.5 95t-40.5 88.5t-101.5 34.5q-38 0 -68 -13q-32 -12 -51 12l-10 14q-22 28 6 52l183 171h-260q-37 0 -37 37v32q0 37 37 37h408q38 0 38 -37v-12q0 -27 -21 -46l-184 -163
q25 0 42 -4q80 -12 133.5 -66t53.5 -139q0 -106 -77 -175t-213 -69z" />
    <glyph glyph-name="four" unicode="4" 
d="M417 0q-38 0 -38 39v141h-319q-38 0 -38 39v23q0 27 18 48l356 389q18 21 48 21h25q39 0 39 -39v-379h107q39 0 39 -39v-24q0 -39 -39 -39h-107v-141q0 -39 -39 -39h-52zM162 282h217v236z" />
    <glyph glyph-name="five" unicode="5" horiz-adv-x="613" 
d="M291 -11q-127 0 -217 58q-35 23 -6 59l14 19q22 28 59 9q70 -35 148 -35q75 0 117.5 39t42.5 100q0 53 -39.5 89.5t-105.5 36.5q-64 0 -124 -33q-32 -18 -58 -7l-23 10q-32 14 -31 50l17 275q3 41 44 41h355q42 0 42 -42v-22q0 -42 -42 -42h-283l-13 -178q54 49 149 49
q107 0 173 -66t66 -161q0 -112 -75.5 -180.5t-209.5 -68.5z" />
    <glyph glyph-name="six" unicode="6" horiz-adv-x="646" 
d="M343 -11q-138 0 -216.5 94.5t-78.5 252.5q0 163 81 269t230 106q107 0 181 -54q36 -25 2 -60l-16 -16q-24 -25 -59 -5q-42 25 -102 25q-85 0 -137.5 -63t-52.5 -171q65 93 187 93q101 0 173 -64.5t72 -168.5t-73 -171t-191 -67zM336 98q60 0 101.5 36t41.5 93t-42 93.5
t-102 36.5q-62 0 -105.5 -37t-43.5 -93t43.5 -92.5t106.5 -36.5z" />
    <glyph glyph-name="seven" unicode="7" horiz-adv-x="556" 
d="M119 0q-22 0 -29.5 13t3.5 32l307 549h-334q-37 0 -37 37v32q0 37 37 37h441q37 0 37 -37v-20q0 -23 -12 -46l-305 -570q-13 -27 -44 -27h-64z" />
    <glyph glyph-name="eight" unicode="8" horiz-adv-x="667" 
d="M334 -11q-126 0 -207.5 61t-81.5 156q0 57 39 103.5t96 65.5q-44 18 -74.5 56t-30.5 86q0 84 72.5 139t186.5 55t186 -55t72 -139q0 -48 -30.5 -86t-74.5 -56q56 -18 95.5 -64.5t39.5 -104.5q0 -94 -81.5 -155.5t-206.5 -61.5zM335 410q58 0 93 30.5t35 69.5t-36 66
t-93 27t-93.5 -27t-36.5 -66q0 -43 35.5 -71.5t95.5 -28.5zM334 98q68 0 111.5 33t43.5 81q0 46 -41 78.5t-113 32.5q-74 0 -115.5 -31t-41.5 -80q0 -48 43.5 -81t112.5 -33z" />
    <glyph glyph-name="nine" unicode="9" horiz-adv-x="643" 
d="M303 711q138 0 216 -94.5t78 -252.5q0 -163 -81 -269t-230 -106q-105 0 -181 54q-34 25 -2 60l17 16q24 24 59 5q41 -25 101 -25q86 0 138 63t52 171q-64 -93 -186 -93q-102 0 -174 64.5t-72 168.5t73.5 171t191.5 67zM310 602q-61 0 -102 -36t-41 -93t41.5 -93.5
t101.5 -36.5q62 0 106 37t44 93t-43.5 92.5t-106.5 36.5z" />
    <glyph glyph-name="colon" unicode=":" horiz-adv-x="293" 
d="M146 356q-36 0 -60.5 23t-24.5 57q0 35 24.5 59t60.5 24t61 -24t25 -59q0 -34 -25 -57t-61 -23zM146 -11q-36 0 -60.5 23.5t-24.5 57.5q0 35 24.5 58.5t60.5 23.5t61 -24t25 -58t-25 -57.5t-61 -23.5z" />
    <glyph glyph-name="semicolon" unicode=";" horiz-adv-x="289" 
d="M144 356q-37 0 -61 23t-24 57q0 35 24 59t61 24q36 0 61 -24t25 -59q0 -34 -25 -57t-61 -23zM100 -138q-18 -9 -28 9l-5 9q-9 18 9 28q31 18 49 48.5t19 60.5q-4 -1 -10 -2t-7 -1q-28 -1 -46 19t-18 46q-1 33 20.5 55t61.5 22q43 0 62 -30t19 -62q0 -65 -34.5 -121
t-91.5 -81z" />
    <glyph glyph-name="less" unicode="&#x3c;" horiz-adv-x="586" 
d="M499 45l-445 181q-19 9 -19 28v60q0 19 19 28l445 181q13 5 20.5 0t7.5 -19v-63q0 -20 -20 -28l-342 -129l342 -129q20 -8 20 -28v-63q0 -14 -7.5 -19t-20.5 0z" />
    <glyph glyph-name="equal" unicode="=" horiz-adv-x="616" 
d="M89 410q-23 0 -23 22v62q0 23 23 23h438q23 0 23 -23v-62q0 -22 -23 -22h-438zM89 140q-23 0 -23 23v61q0 23 23 23h438q23 0 23 -23v-61q0 -23 -23 -23h-438z" />
    <glyph glyph-name="greater" unicode="&#x3e;" horiz-adv-x="586" 
d="M87 45q-13 -5 -20.5 0t-7.5 19v63q0 20 19 28l343 129l-343 129q-19 8 -19 28v63q0 14 7.5 19t20.5 0l445 -181q18 -8 18 -28v-60q0 -20 -18 -28z" />
    <glyph glyph-name="question" unicode="?" horiz-adv-x="532" 
d="M206 228q-23 0 -23 19v8q2 43 13 63.5t52 46.5q65 39 91.5 71t26.5 74q0 43 -30 68t-81 25q-46 0 -74 -22t-28 -61v-10q2 -23 -21 -23h-70q-22 0 -25 19q-3 14 -3 28q0 66 58 121.5t167 55.5q103 0 170 -53.5t67 -140.5q0 -40 -15.5 -75.5t-45 -64t-51.5 -45t-55 -38.5
q-2 -1 -3.5 -2t-3.5 -2.5t-4 -2.5q-24 -17 -24 -37v-7q0 -15 -21 -15h-67zM238 -11q-37 0 -61.5 23t-24.5 58t24.5 58.5t61.5 23.5q36 0 61 -24t25 -58t-25 -57.5t-61 -23.5z" />
    <glyph glyph-name="at" unicode="@" horiz-adv-x="1028" 
d="M499 -237q-203 0 -330 135.5t-127 343.5q0 207 134.5 344t339.5 137q208 0 336.5 -123.5t128.5 -320.5q0 -154 -57 -231t-153 -77q-126 0 -143 106l-1 15q-23 -43 -70 -66t-95 -23q-94 0 -155 67.5t-61 167.5t61.5 167.5t157.5 67.5q100 0 153 -83v38q0 35 35 35h44
q35 0 35 -35v-326q0 -31 13 -45t33 -14q60 2 95 60.5t35 175.5q0 164 -109 269t-283 105q-173 0 -287 -117.5t-114 -293.5t107 -292t277 -116q105 0 183 30q19 8 27 -9l14 -26q10 -20 -8 -26q-97 -40 -216 -40zM490 98q56 0 91.5 38.5t35.5 100.5q0 61 -35.5 100.5
t-93.5 39.5t-92 -40t-34 -99t35 -99.5t93 -40.5z" />
    <glyph glyph-name="A" unicode="A" horiz-adv-x="693" 
d="M60 0q-23 0 -32 13.5t-1 35.5l237 617q13 34 49 34h65q36 0 49 -34l240 -617q8 -22 -1 -35.5t-32 -13.5h-48q-37 0 -50 34l-39 103h-302l-39 -103q-12 -34 -48 -34h-48zM226 242h240l-120 325z" />
    <glyph glyph-name="B" unicode="B" horiz-adv-x="664" 
d="M470 361q74 -9 114.5 -57.5t40.5 -111.5q0 -87 -66.5 -139.5t-175.5 -52.5h-254q-42 0 -42 42v616q0 42 42 42h223q106 0 173 -50t67 -136q0 -52 -30.5 -93.5t-91.5 -59.5zM346 594h-127v-196h96q73 0 109 30t36 73q0 44 -32.5 68.5t-81.5 24.5zM380 108q51 0 82 25.5
t31 66.5q0 45 -39 76t-116 31h-119v-199h161z" />
    <glyph glyph-name="C" unicode="C" horiz-adv-x="687" 
d="M421 -11q-172 0 -276.5 104.5t-104.5 256.5t104.5 256.5t276.5 104.5q118 0 210 -61q33 -24 10 -59l-16 -23q-21 -32 -59 -11q-67 38 -145 38q-113 0 -180 -70.5t-67 -174.5t67 -174.5t180 -70.5q78 0 145 38q38 21 59 -11l16 -23q23 -35 -5 -55q-95 -65 -215 -65z" />
    <glyph glyph-name="D" unicode="D" horiz-adv-x="741" 
d="M129 0q-42 0 -42 42v616q0 42 42 42h212q160 0 259.5 -101t99.5 -249t-99.5 -249t-259.5 -101h-212zM219 111h114q106 0 169.5 67.5t63.5 171.5t-63.5 172t-169.5 67h-114v-478z" />
    <glyph glyph-name="E" unicode="E" horiz-adv-x="597" 
d="M506 589h-287v-192h244q43 0 43 -42v-20q0 -43 -43 -43h-244v-181h287q42 0 42 -43v-26q0 -42 -42 -42h-377q-42 0 -42 42v616q0 42 42 42h377q42 0 42 -42v-26q0 -43 -42 -43z" />
    <glyph glyph-name="F" unicode="F" horiz-adv-x="584" 
d="M507 700q43 0 43 -42v-26q0 -43 -43 -43h-288v-192h246q43 0 43 -42v-20q0 -43 -43 -43h-246v-250q0 -42 -42 -42h-48q-42 0 -42 42v616q0 42 42 42h378z" />
    <glyph glyph-name="G" unicode="G" horiz-adv-x="734" 
d="M417 -11q-164 0 -270.5 105t-106.5 255q0 151 107 256.5t264 105.5q126 0 219 -56q34 -22 12 -59l-18 -24q-20 -32 -58 -14q-70 37 -155 37q-100 0 -168.5 -71.5t-68.5 -174.5q0 -100 65.5 -172t181.5 -72q78 0 141 37v123h-140q-42 0 -42 43v17q0 42 42 42h221
q42 0 42 -42v-202q0 -34 -31 -57q-104 -77 -237 -77z" />
    <glyph glyph-name="H" unicode="H" horiz-adv-x="730" 
d="M129 0q-42 0 -42 42v616q0 42 42 42h48q42 0 42 -42v-270h292v270q0 42 42 42h48q42 0 42 -42v-616q0 -42 -42 -42h-48q-42 0 -42 42v238h-292v-238q0 -42 -42 -42h-48z" />
    <glyph glyph-name="I" unicode="I" horiz-adv-x="307" 
d="M129 0q-42 0 -42 42v616q0 42 42 42h48q42 0 42 -42v-616q0 -42 -42 -42h-48z" />
    <glyph glyph-name="J" unicode="J" horiz-adv-x="658" 
d="M294 -11q-71 0 -125 22t-84.5 58.5t-45 79t-14.5 89.5q0 38 14 73q11 31 48 31h39q45 0 34 -44q-8 -27 -8 -47q0 -61 35 -103.5t105 -42.5q77 0 117 54t40 153v346q0 42 43 42h47q42 0 42 -42v-346q0 -158 -74.5 -240.5t-212.5 -82.5z" />
    <glyph glyph-name="K" unicode="K" horiz-adv-x="655" 
d="M539 -11q-126 0 -202 139l-119 189v-275q0 -42 -42 -42h-48q-42 0 -42 42v616q0 42 42 42h48q42 0 42 -42v-288l206 302q17 28 51 28h67q22 0 26.5 -13t-8.5 -33l-216 -308l112 -167q50 -82 101 -81q28 3 37 7q34 11 48 -21l8 -17q21 -41 -21 -59q-39 -19 -90 -19z" />
    <glyph glyph-name="L" unicode="L" horiz-adv-x="554" 
d="M129 0q-42 0 -42 42v616q0 42 42 42h48q42 0 42 -42v-547h276q43 0 43 -43v-26q0 -42 -43 -42h-366z" />
    <glyph glyph-name="M" unicode="M" horiz-adv-x="943" 
d="M102 0q-21 0 -32 12t-9 33l58 615q3 40 43 40h63q35 0 49 -33l198 -478l197 478q14 33 49 33h63q40 0 43 -40l58 -615q2 -21 -9 -33t-32 -12h-47q-41 0 -44 40l-38 444l-181 -443q-13 -33 -49 -33h-21q-35 0 -49 33l-181 443l-38 -444q-3 -40 -44 -40h-47z" />
    <glyph glyph-name="N" unicode="N" horiz-adv-x="747" 
d="M129 0q-42 0 -42 42v616q0 42 42 42h26q33 0 52 -26l320 -435v419q0 42 42 42h48q43 0 43 -42v-616q0 -42 -43 -42h-25q-32 0 -52 26l-321 438v-422q0 -42 -42 -42h-48z" />
    <glyph glyph-name="O" unicode="O" horiz-adv-x="815" 
d="M408 -11q-157 0 -262.5 105.5t-105.5 255.5t105.5 255.5t262.5 105.5q156 0 261.5 -105.5t105.5 -255.5t-105.5 -255.5t-261.5 -105.5zM408 105q99 0 166 70.5t67 174.5t-67 174.5t-166 70.5q-100 0 -167 -70.5t-67 -174.5t67 -174.5t167 -70.5z" />
    <glyph glyph-name="P" unicode="P" horiz-adv-x="637" 
d="M385 700q103 0 162.5 -66t59.5 -163q0 -95 -59.5 -158t-162.5 -63h-166v-208q0 -42 -42 -42h-48q-42 0 -42 42v616q0 42 42 42h256zM363 356q50 0 79.5 32.5t29.5 83.5q0 52 -29.5 84.5t-79.5 32.5h-144v-233h144z" />
    <glyph glyph-name="Q" unicode="Q" horiz-adv-x="814" 
d="M592 -199q-187 0 -234 178l-3 14q-137 17 -226.5 118.5t-89.5 238.5q0 150 105.5 255.5t262.5 105.5q156 0 261.5 -105.5t105.5 -255.5q0 -131 -82 -230t-211 -124q21 -89 117 -89q27 0 60 13q41 14 56 -20l8 -16q10 -17 1 -35.5t-34 -28.5q-46 -19 -97 -19zM407 105
q99 0 166.5 70.5t67.5 174.5t-67.5 174.5t-166.5 70.5q-100 0 -167 -70.5t-67 -174.5t67 -174.5t167 -70.5z" />
    <glyph glyph-name="R" unicode="R" horiz-adv-x="694" 
d="M557 -11q-48 0 -87.5 20.5t-63 50t-40 68t-23.5 69.5t-9 59h-116v-214q0 -42 -42 -42h-48q-42 0 -42 42v616q0 42 42 42h264q103 0 163 -65.5t60 -161.5q0 -79 -42 -136t-117 -74q6 -62 38.5 -114t79.5 -52q29 0 48 10q35 14 51 -18l7 -14q18 -39 -13 -57
q-46 -29 -110 -29zM218 356h153q50 0 79.5 32.5t29.5 83.5q0 52 -30 84.5t-79 32.5h-153v-233z" />
    <glyph glyph-name="S" unicode="S" horiz-adv-x="593" 
d="M297 -11q-94 0 -161 39.5t-95 107.5q-8 19 0.5 32.5t29.5 18.5l35 9q19 4 30.5 -2.5t22.5 -25.5q18 -31 53.5 -50t82.5 -19q59 0 94 25t35 65q0 61 -90 94l-97 34q-82 26 -128.5 77t-46.5 115q0 91 68.5 146.5t168.5 55.5q80 0 137.5 -34.5t84.5 -95.5q9 -19 1.5 -33.5
t-28.5 -19.5l-32 -9q-34 -11 -54 25q-29 56 -108 56q-45 0 -76 -22.5t-31 -61.5q0 -56 81 -86l98 -36q91 -29 135.5 -81.5t45.5 -116.5q0 -96 -71 -151.5t-185 -55.5z" />
    <glyph glyph-name="T" unicode="T" horiz-adv-x="608" 
d="M547 700q42 0 42 -42v-26q0 -43 -42 -43h-178v-547q0 -42 -42 -42h-47q-42 0 -42 42v547h-177q-42 0 -42 43v26q0 42 42 42h486z" />
    <glyph glyph-name="U" unicode="U" horiz-adv-x="724" 
d="M362 -11q-121 0 -202.5 72.5t-81.5 201.5v395q0 42 42 42h48q42 0 42 -42v-395q0 -75 43.5 -116.5t108.5 -41.5t108.5 41.5t43.5 116.5v395q0 42 42 42h48q42 0 42 -42v-395q0 -129 -81.5 -201.5t-202.5 -72.5z" />
    <glyph glyph-name="V" unicode="V" horiz-adv-x="657" 
d="M301 0q-35 0 -48 34l-216 617q-8 22 1.5 35.5t32.5 13.5h50q37 0 48 -35l160 -497l159 497q11 35 48 35h51q22 0 31.5 -13.5t1.5 -35.5l-217 -617q-11 -34 -48 -34h-54z" />
    <glyph glyph-name="W" unicode="W" horiz-adv-x="992" 
d="M280 0q-36 0 -47 35l-193 617q-7 22 2.5 35t32.5 13h47q36 0 47 -35l136 -443l130 420q11 35 47 35h29q36 0 47 -35l129 -420l136 443q11 35 47 35h47q23 0 32.5 -13t2.5 -35l-193 -617q-11 -35 -47 -35h-35q-36 0 -47 35l-134 437l-134 -437q-11 -35 -47 -35h-35z" />
    <glyph glyph-name="X" unicode="X" horiz-adv-x="707" 
d="M46 0q-24 0 -31 14t8 34l252 323l-224 281q-15 20 -8 34t31 14h66q29 0 47 -23l167 -209l166 209q18 23 47 23h66q24 0 31 -14t-7 -34l-225 -281l252 -323q14 -20 7.5 -34t-30.5 -14h-70q-30 0 -46 23l-191 244l-191 -244q-18 -23 -47 -23h-70z" />
    <glyph glyph-name="Y" unicode="Y" horiz-adv-x="705" 
d="M329 0q-42 0 -42 42v244l-244 363q-14 22 -6 36.5t34 14.5h61q34 0 51 -28l169 -273l171 273q17 28 51 28h61q26 0 34 -14.5t-7 -36.5l-243 -362v-245q0 -42 -42 -42h-48z" />
    <glyph glyph-name="Z" unicode="Z" horiz-adv-x="656" 
d="M69 0q-42 0 -42 42v19q0 30 19 52l379 476h-328q-42 0 -42 43v26q0 42 42 42h463q42 0 42 -42v-19q0 -31 -18 -52l-384 -476h384q42 0 42 -43v-26q0 -42 -42 -42h-515z" />
    <glyph glyph-name="bracketleft" unicode="[" horiz-adv-x="368" 
d="M96 -217q-28 0 -28 27v911q0 27 28 27h219q28 0 28 -27v-43q0 -27 -28 -27h-127v-770h127q28 0 28 -28v-43q0 -27 -28 -27h-219z" />
    <glyph glyph-name="backslash" unicode="\" horiz-adv-x="543" 
d="M429 -37q-21 0 -31 19l-358 725q-7 13 -2 21.5t20 8.5h57q21 0 31 -19l357 -724q7 -14 1.5 -22.5t-19.5 -8.5h-56z" />
    <glyph glyph-name="bracketright" unicode="]" horiz-adv-x="368" 
d="M52 -217q-27 0 -27 27v43q0 28 27 28h127v770h-127q-27 0 -27 27v43q0 27 27 27h220q27 0 27 -27v-911q0 -27 -27 -27h-220z" />
    <glyph glyph-name="asciicircum" unicode="^" horiz-adv-x="541" 
d="M73 346q-14 0 -19 8t2 21l159 317q9 17 28 17h56q19 0 28 -17l158 -317q7 -13 2 -21t-19 -8h-65q-20 0 -28 19l-104 224l-105 -224q-8 -19 -29 -19h-64z" />
    <glyph glyph-name="underscore" unicode="_" horiz-adv-x="713" 
d="M31 -161q-31 0 -31 31v41q0 31 31 31h651q31 0 31 -31v-41q0 -31 -31 -31h-651z" />
    <glyph glyph-name="grave" unicode="`" horiz-adv-x="506" 
d="M272 576q-19 0 -28 13l-92 116q-9 12 -5 20t18 8h83q19 0 27 -16l63 -114q7 -11 2 -19t-18 -8h-50z" />
    <glyph glyph-name="a" unicode="a" horiz-adv-x="652" 
d="M283 -11q-109 0 -178.5 76t-69.5 189t69.5 189t178.5 76q112 0 172 -87v33q0 43 42 43h44q43 0 43 -43v-423q0 -42 -43 -42h-44q-42 0 -42 42v34q-60 -87 -172 -87zM308 96q66 0 107 44.5t42 113.5q-1 69 -42 113.5t-107 44.5t-105 -45.5t-39 -112.5q0 -68 39 -113
t105 -45z" />
    <glyph glyph-name="b" unicode="b" horiz-adv-x="653" 
d="M369 -11q-112 0 -172 87v-34q0 -42 -42 -42h-44q-43 0 -43 42v639q0 42 43 42h44q42 0 42 -42v-249q60 87 172 87q109 0 178.5 -76t69.5 -189t-69.5 -189t-178.5 -76zM344 96q67 0 105.5 45t38.5 113q0 67 -38.5 112.5t-105.5 45.5q-65 0 -106.5 -44.5t-42.5 -113.5
q1 -69 42.5 -113.5t106.5 -44.5z" />
    <glyph glyph-name="c" unicode="c" horiz-adv-x="538" 
d="M324 -11q-131 0 -210.5 75t-79.5 186q0 115 78.5 192t211.5 77q83 0 156 -43q38 -22 10 -59l-12 -15q-21 -29 -59 -11q-40 20 -88 20q-73 0 -120.5 -44t-47.5 -113t47.5 -113.5t120.5 -44.5q46 0 88 20q39 19 59 -10l12 -16q13 -16 7.5 -34.5t-29.5 -30.5
q-66 -36 -144 -36z" />
    <glyph glyph-name="d" unicode="d" horiz-adv-x="653" 
d="M283 -11q-109 0 -178 76t-69 189t69 189t178 76q113 0 172 -87v249q0 42 43 42h44q42 0 42 -42v-639q0 -42 -42 -42h-44q-43 0 -43 42v34q-59 -87 -172 -87zM308 96q66 0 107.5 44.5t42.5 113.5q-1 69 -42.5 113.5t-107.5 44.5t-104.5 -45.5t-38.5 -112.5
q0 -68 38.5 -113t104.5 -45z" />
    <glyph glyph-name="e" unicode="e" horiz-adv-x="604" 
d="M324 -11q-132 0 -211 75.5t-79 187.5q0 111 77.5 189t198.5 78q107 0 182 -63.5t82 -180.5q1 -19 -10 -29.5t-32 -10.5h-373q-2 -59 46 -99.5t125 -40.5q67 0 125 37q34 20 59 -8l9 -11q31 -34 -8 -64q-77 -60 -191 -60zM165 316h285q-25 100 -138 100q-49 0 -89.5 -23.5
t-57.5 -76.5z" />
    <glyph glyph-name="f" unicode="f" horiz-adv-x="388" 
d="M145 0q-43 0 -43 42v368h-51q-23 0 -23 23v48q0 23 23 23h51v35q0 57 16 97t43.5 60t56.5 28.5t63 8.5q72 0 117 -35t45 -97q0 -6 -2 -16q-3 -15 -21 -15h-60q-21 0 -21 18v7q0 16 -14.5 26.5t-35.5 10.5q-29 0 -44 -20t-15 -54v-54h100q23 0 23 -23v-48q0 -23 -23 -23
h-98v-368q0 -42 -42 -42h-45z" />
    <glyph glyph-name="g" unicode="g" horiz-adv-x="649" 
d="M306 -235q-110 0 -194 49q-34 19 -15 58l10 18q20 36 57 15q62 -36 135 -36q71 0 113.5 39.5t42.5 115.5v52q-59 -87 -173 -87q-108 0 -177.5 76.5t-69.5 188.5q0 111 69.5 188t177.5 77q113 0 172 -87v36q0 40 42 40h43q42 0 42 -43v-442q0 -88 -39 -147.5t-99 -85
t-137 -25.5zM307 95q66 0 107 45t42 114q-1 69 -42 114t-107 45t-105 -46t-39 -113q0 -68 39 -113.5t105 -45.5z" />
    <glyph glyph-name="h" unicode="h" horiz-adv-x="610" 
d="M111 0q-42 0 -42 42v639q0 42 42 42h44q43 0 43 -42v-263q17 48 59.5 74.5t101.5 26.5q91 0 140.5 -61.5t49.5 -167.5v-248q0 -42 -43 -42h-44q-42 0 -42 42v242q0 63 -24.5 95t-66.5 32q-49 0 -90 -39.5t-41 -123.5v-206q0 -42 -43 -42h-44z" />
    <glyph glyph-name="i" unicode="i" horiz-adv-x="271" 
d="M135 583q-36 0 -58.5 21.5t-22.5 53.5t22 53.5t59 21.5t59.5 -21.5t22.5 -53.5t-23 -53.5t-59 -21.5zM113 0q-42 0 -42 42v423q0 43 42 43h45q42 0 42 -43v-423q0 -42 -42 -42h-45z" />
    <glyph glyph-name="j" unicode="j" horiz-adv-x="307" 
d="M172 583q-36 0 -58.5 21.5t-22.5 53.5t22 53.5t59 21.5t59.5 -21.5t22.5 -53.5t-23 -53.5t-59 -21.5zM56 -235q-72 0 -116.5 35t-44.5 97q0 11 1 16q3 15 21 15h61q21 0 21 -18v-7q0 -16 14 -26.5t35 -10.5q57 0 57 74l1 525q0 43 42 43h45q42 0 42 -43v-506
q0 -57 -15.5 -97t-43 -60t-57 -28.5t-63.5 -8.5z" />
    <glyph glyph-name="k" unicode="k" horiz-adv-x="572" 
d="M452 -11q-63 0 -100 30t-70 85l-85 145v-207q0 -42 -43 -42h-44q-42 0 -42 42v639q0 42 42 42h44q43 0 43 -42v-383l140 184q17 26 51 26h52q27 0 34.5 -15.5t-9.5 -36.5l-146 -182l75 -118q22 -33 38 -46t42 -13q20 0 38 7q24 8 35 -11l19 -39q13 -26 -24 -45
q-40 -20 -90 -20z" />
    <glyph glyph-name="l" unicode="l" horiz-adv-x="271" 
d="M113 0q-42 0 -42 42v639q0 42 42 42h45q42 0 42 -42v-639q0 -42 -42 -42h-45z" />
    <glyph glyph-name="m" unicode="m" horiz-adv-x="919" 
d="M111 0q-42 0 -42 42v423q0 43 42 43h44q43 0 43 -43v-47q15 48 55.5 74.5t92.5 26.5q108 0 153 -97q54 97 168 97q92 0 141 -61.5t49 -168.5v-247q0 -42 -42 -42h-44q-43 0 -43 42v244q0 62 -23.5 93.5t-62.5 31.5q-42 0 -77 -36t-37 -117v-216q0 -42 -43 -42h-44
q-42 0 -42 42v244q0 62 -24 93.5t-63 31.5q-44 0 -79 -38.5t-35 -122.5v-208q0 -42 -43 -42h-44z" />
    <glyph glyph-name="n" unicode="n" horiz-adv-x="611" 
d="M111 0q-42 0 -42 42v423q0 43 42 43h44q43 0 43 -43v-47q17 48 59.5 74.5t101.5 26.5q91 0 140.5 -61.5t49.5 -167.5v-248q0 -42 -43 -42h-44q-42 0 -42 42v242q0 63 -24.5 95t-66.5 32q-49 0 -90 -39.5t-41 -123.5v-206q0 -42 -43 -42h-44z" />
    <glyph glyph-name="o" unicode="o" horiz-adv-x="617" 
d="M308 -11q-116 0 -195 77t-79 188q0 110 79 187.5t195 77.5q115 0 195 -77.5t80 -187.5q0 -111 -79.5 -188t-195.5 -77zM308 97q63 0 106.5 45.5t43.5 110.5q0 66 -43.5 112t-106.5 46t-106.5 -46t-43.5 -112q0 -65 43.5 -110.5t106.5 -45.5z" />
    <glyph glyph-name="p" unicode="p" horiz-adv-x="652" 
d="M111 -224q-42 0 -42 42v647q0 43 42 43h44q43 0 43 -43v-33q59 87 172 87q109 0 178 -76t69 -189t-69 -189t-178 -76q-113 0 -172 87v-258q0 -42 -43 -42h-44zM345 96q66 0 104.5 45t38.5 113q0 67 -38.5 112.5t-104.5 45.5t-107.5 -44.5t-42.5 -113.5q1 -69 42.5 -113.5
t107.5 -44.5z" />
    <glyph glyph-name="q" unicode="q" horiz-adv-x="652" 
d="M497 -224q-42 0 -42 42v258q-60 -87 -172 -87q-109 0 -178.5 76t-69.5 189t69.5 189t178.5 76q112 0 172 -87v33q0 43 42 43h44q43 0 43 -43v-647q0 -42 -43 -42h-44zM308 96q66 0 107 44.5t42 113.5q-1 69 -42 113.5t-107 44.5t-105 -45.5t-39 -112.5q0 -68 39 -113
t105 -45z" />
    <glyph glyph-name="r" unicode="r" horiz-adv-x="387" 
d="M111 0q-42 0 -42 42v423q0 43 42 43h42q42 0 42 -43v-70q12 61 51 92.5t83 31.5q10 0 20 -2q26 -2 26 -40v-50q0 -19 -8 -27.5t-23 -6.5q-13 3 -26 3q-21 0 -39.5 -7.5t-38 -27t-31 -60.5t-11.5 -100v-159q0 -42 -43 -42h-44z" />
    <glyph glyph-name="s" unicode="s" horiz-adv-x="459" 
d="M231 -11q-65 0 -115.5 25.5t-75.5 74.5q-9 20 -1 34t29 19l26 6q17 4 27.5 -2t25.5 -22q29 -36 84 -36q33 0 54 16t21 40q0 33 -54 53l-65 23q-135 42 -135 143q0 68 50.5 112t128.5 44q111 0 158 -81q12 -20 4.5 -34.5t-29.5 -19.5l-23 -6q-28 -7 -53 20q-19 23 -55 23
q-28 0 -45 -15t-17 -38q0 -33 52 -50l68 -24q132 -42 134 -149q0 -73 -56 -114.5t-138 -41.5z" />
    <glyph glyph-name="t" unicode="t" horiz-adv-x="440" 
d="M267 -11q-72 0 -120.5 41t-48.5 135v245h-56q-23 0 -23 23v52q0 23 23 23h62l18 109q4 30 35 30h35q33 0 33 -33v-106h126q23 0 23 -23v-52q0 -23 -23 -23h-126v-250q0 -33 14 -48.5t36 -15.5t36.5 13.5t14.5 36.5q0 11 -1 18q-3 25 19 25h53q22 0 26 -18q5 -21 5 -38
q0 -69 -44 -106.5t-117 -37.5z" />
    <glyph glyph-name="u" unicode="u" horiz-adv-x="610" 
d="M251 -11q-91 0 -140.5 61.5t-49.5 167.5v247q0 43 43 43h44q42 0 42 -43v-241q0 -63 24.5 -95t66.5 -32q49 0 90 39.5t41 122.5v206q0 43 43 43h44q42 0 42 -43v-423q0 -42 -42 -42h-44q-43 0 -43 42v48q-17 -48 -59.5 -74.5t-101.5 -26.5z" />
    <glyph glyph-name="v" unicode="v" horiz-adv-x="574" 
d="M257 0q-37 0 -50 33l-171 426q-9 22 -0.5 35.5t32.5 13.5h48q37 0 49 -35l122 -332l122 332q12 35 48 35h49q23 0 32 -13.5t0 -35.5l-171 -426q-13 -33 -50 -33h-60z" />
    <glyph glyph-name="w" unicode="w" horiz-adv-x="824" 
d="M237 0q-36 0 -48 34l-153 425q-8 23 1.5 36t33.5 13h49q37 0 47 -35l99 -300l89 285q12 35 48 35h18q36 0 47 -35l90 -285l98 300q12 35 48 35h49q23 0 32.5 -13.5t1.5 -35.5l-152 -425q-11 -34 -48 -34h-39q-37 0 -47 35l-89 280l-89 -280q-10 -35 -48 -35h-38z" />
    <glyph glyph-name="x" unicode="x" horiz-adv-x="599" 
d="M66 0q-27 0 -34 15.5t10 36.5l176 211l-159 193q-17 21 -10 36.5t35 15.5h47q30 0 51 -25l118 -140l117 140q21 25 52 25h47q28 0 35 -15.5t-10 -36.5l-159 -193l175 -211q17 -21 10 -36.5t-34 -15.5h-48q-31 0 -52 24l-133 160l-134 -160q-20 -24 -52 -24h-48z" />
    <glyph glyph-name="y" unicode="y" horiz-adv-x="575" 
d="M177 -224q-24 0 -33 13.5t0 35.5l81 202l-191 431q-10 22 -0.5 36t33.5 14h54q36 0 48 -34l122 -309l117 309q13 34 50 34h53q23 0 32.5 -14t-0.5 -36l-280 -650q-14 -32 -49 -32h-37z" />
    <glyph glyph-name="z" unicode="z" horiz-adv-x="572" 
d="M73 0q-43 0 -43 42v4q0 30 21 52l288 308h-249q-42 0 -42 43v16q0 43 42 43h390q42 0 42 -43v-4q0 -30 -21 -52l-287 -308h285q42 0 42 -42v-17q0 -42 -43 -42h-425z" />
    <glyph glyph-name="braceleft" unicode="{" horiz-adv-x="355" 
d="M229 -220q-71 0 -118 36.5t-47 107.5q0 46 30.5 137.5t33.5 105.5q7 26 -4.5 39t-39.5 18l-26 5q-21 3 -21 24v23q0 21 18 24l29 6q29 5 40 18t4 39q-3 13 -33.5 104t-30.5 138q0 72 47.5 108.5t117.5 36.5q7 0 72 -5q22 -3 22 -24v-37q0 -24 -26 -22q-26 3 -52 3
q-64 0 -64 -70q0 -41 29.5 -121.5t29.5 -114.5q0 -36 -18 -61.5t-57 -31.5v-3q38 -5 56.5 -33t18.5 -60q0 -34 -29.5 -114t-29.5 -121q0 -71 64 -71q26 0 52 3q26 2 26 -22v-36q0 -22 -26 -24q-42 -5 -68 -5z" />
    <glyph glyph-name="bar" unicode="|" horiz-adv-x="240" 
d="M91 -230q-23 0 -23 23v946q0 23 23 23h58q23 0 23 -23v-946q0 -23 -23 -23h-58z" />
    <glyph glyph-name="braceright" unicode="}" horiz-adv-x="355" 
d="M125 -220q-26 0 -68 5q-25 1 -25 24v36q0 24 25 22q27 -3 52 -3q65 0 65 71q0 41 -30 121t-30 114q0 32 19 60t57 33v3q-39 6 -57.5 31.5t-18.5 61.5q0 34 30 114.5t30 121.5q0 70 -65 70q-25 0 -52 -3q-25 -2 -25 22v37q0 21 22 24q63 5 71 5q71 0 118.5 -36.5
t47.5 -108.5q0 -47 -30.5 -137.5t-34.5 -104.5q-6 -26 4.5 -39t40.5 -18l28 -6q18 -3 18 -24v-23q0 -21 -21 -24l-25 -5q-57 -9 -45 -57q4 -16 34.5 -106.5t30.5 -136.5q0 -71 -47.5 -107.5t-118.5 -36.5z" />
    <glyph glyph-name="asciitilde" unicode="~" horiz-adv-x="603" 
d="M408 208q-45 0 -107 41t-99 41q-46 0 -73 -41q-18 -23 -32 -2l-30 44q-12 17 -3 33q17 37 51.5 61t78.5 24q36 0 73 -20.5t71 -40.5t61 -20q45 0 74 39q18 22 33 0l31 -44q13 -16 3 -33q-19 -38 -54.5 -60t-77.5 -22z" />
    <glyph glyph-name="uni00A0" unicode="&#xa0;" horiz-adv-x="252" 
 />
    <glyph glyph-name="exclamdown" unicode="&#xa1;" horiz-adv-x="268" 
d="M134 519q36 0 61 -23.5t25 -57.5t-25 -58t-61 -24q-37 0 -61 23.5t-24 58.5t24 58t61 23zM121 280h25q33 0 36 -33l28 -381v-24q0 -34 -34 -34h-85q-34 0 -34 34v24l28 381q3 33 36 33z" />
    <glyph glyph-name="cent" unicode="&#xa2;" horiz-adv-x="566" 
d="M239 -105q-26 0 -21 25l14 83q-88 25 -139 92t-51 155q0 110 73.5 186t198.5 82l12 1l13 70q3 21 24 21h16q26 0 21 -26l-13 -71q65 -12 118 -48q17 -13 5 -32l-35 -46q-13 -17 -32 -5q-33 20 -75 26l-56 -309q68 -11 131 26q19 12 32 -5l35 -46q13 -19 -5 -32
q-90 -61 -213 -50l-14 -76q-3 -21 -24 -21h-15zM253 116l53 293q-60 -10 -97.5 -52.5t-37.5 -102.5q0 -96 82 -138z" />
    <glyph glyph-name="sterling" unicode="&#xa3;" horiz-adv-x="637" 
d="M61 0q-23 0 -23 23v57q0 22 16 24l13 1q76 8 101.5 39.5t25.5 77.5q0 29 -11 64h-104q-21 0 -21 21v22q0 21 21 21h77q-42 108 -42 161q0 89 68 144.5t170 55.5t158 -49t65 -118q3 -23 -22 -23h-77q-18 0 -24 21q-13 58 -99 58q-52 0 -82 -25t-30 -68q0 -48 42 -157h160
q22 0 22 -21v-22q0 -21 -22 -21h-138q14 -44 11 -75q-2 -79 -61 -104v-4q47 3 128 3h189q23 0 23 -23v-60q0 -23 -23 -23h-511z" />
    <glyph glyph-name="currency" unicode="&#xa4;" horiz-adv-x="541" 
d="M134 122q-17 -17 -32 0l-36 36q-15 16 0 33l42 40q-26 41 -26 97q0 47 24 90l-38 40q-16 16 0 32l36 37q17 17 33 0l37 -38q43 26 97 26q53 0 97 -26l37 38q16 18 32 0l37 -37q15 -15 0 -32l-39 -40q24 -43 24 -90q0 -55 -25 -97l41 -40q17 -17 0 -33l-35 -36
q-16 -18 -32 0l-44 42q-40 -24 -93 -24t-93 24zM271 227q40 0 67.5 29.5t27.5 70.5t-27.5 70.5t-67.5 29.5t-68 -29.5t-28 -70.5t28 -70.5t68 -29.5z" />
    <glyph glyph-name="yen" unicode="&#xa5;" horiz-adv-x="733" 
d="M325 0q-24 0 -24 24v119h-161q-20 0 -20 20v27q0 20 20 20h161v64h-161q-20 0 -20 20v27q0 20 20 20h124l-214 330q-8 12 -3.5 20.5t19.5 8.5h93q21 0 30 -16l177 -285l179 285q11 16 30 16h93q14 0 19 -8.5t-3 -20.5l-216 -330h124q20 0 20 -20v-27q0 -20 -20 -20h-159
v-64h159q20 0 20 -20v-27q0 -20 -20 -20h-159v-119q0 -24 -24 -24h-84z" />
    <glyph glyph-name="brokenbar" unicode="&#xa6;" horiz-adv-x="252" 
d="M97 349q-23 0 -23 23v368q0 23 23 23h58q23 0 23 -23v-368q0 -23 -23 -23h-58zM97 -230q-23 0 -23 23v368q0 23 23 23h58q23 0 23 -23v-368q0 -23 -23 -23h-58z" />
    <glyph glyph-name="section" unicode="&#xa7;" horiz-adv-x="594" 
d="M298 -155q-148 0 -243 79q-15 13 -6 33l21 40q11 23 34 7q94 -62 196 -62q62 0 93 21t31 55q0 48 -94 74l-96 24q-91 24 -130.5 70t-39.5 94q0 40 24.5 74.5t67.5 56.5q-91 47 -91 133q0 74 67.5 120.5t163.5 46.5q109 0 199 -43q23 -12 10 -33l-23 -44q-10 -21 -33 -11
q-75 33 -148 33q-114 0 -114 -68q0 -19 18 -39t63 -31l92 -22q91 -24 138 -63t47 -101q0 -38 -22.5 -76.5t-61.5 -64.5q85 -46 85 -123t-66 -128.5t-182 -51.5zM356 189q34 9 53 32.5t19 51.5q0 50 -54 67l-112 28q-37 -13 -58 -34t-21 -45q0 -56 61 -70z" />
    <glyph glyph-name="dieresis" unicode="&#xa8;" horiz-adv-x="631" 
d="M200 585q-31 0 -52 20t-21 49q0 30 21 50t52 20t52.5 -20t21.5 -50q0 -29 -21.5 -49t-52.5 -20zM429 585q-31 0 -51.5 20t-20.5 49q0 30 20.5 50t51.5 20q32 0 53.5 -20t21.5 -50q0 -29 -21.5 -49t-53.5 -20z" />
    <glyph glyph-name="copyright" unicode="&#xa9;" horiz-adv-x="797" 
d="M398 -11q-148 0 -250.5 105.5t-102.5 255.5t102.5 255.5t250.5 105.5t250.5 -105.5t102.5 -255.5t-102.5 -255.5t-250.5 -105.5zM398 49q122 0 207 88.5t85 212.5t-85 212.5t-207 88.5t-207 -88.5t-85 -212.5t85 -212.5t207 -88.5zM410 162q-89 0 -146 54.5t-57 132.5
q0 79 56.5 134t146.5 55q53 0 109 -34q19 -13 7 -34l-12 -18q-12 -20 -34 -9q-34 18 -70 18q-58 0 -87 -33t-29 -78t29 -78t87 -33q37 0 70 18q22 11 34 -9l12 -18q14 -21 -6 -33q-55 -35 -110 -35z" />
    <glyph glyph-name="ordfeminine" unicode="&#xaa;" horiz-adv-x="481" 
d="M214 360q-70 0 -113.5 50t-43.5 124q0 73 43.5 123t115.5 50q69 0 107 -52v21q0 23 23 23h43q23 0 23 -23v-287q0 -23 -23 -23h-43q-23 0 -23 23v23q-18 -24 -49 -38t-60 -14zM235 439q38 0 62.5 25.5t25.5 67.5q0 42 -25 68.5t-65 26.5t-63 -27t-23 -66
q0 -40 24.5 -67.5t63.5 -27.5zM93 214q-23 0 -23 23v21q0 23 23 23h292q23 0 23 -23v-21q0 -23 -23 -23h-292z" />
    <glyph glyph-name="guillemotleft" unicode="&#xab;" horiz-adv-x="592" 
d="M251 82q-17 -16 -32 2l-169 192q-10 11 -10 25q0 10 10 23l169 192q14 19 32 3l39 -34q16 -14 2 -33l-132 -152l131 -151q15 -18 -1 -33zM490 82q-17 -15 -32 2l-168 192q-10 11 -10 25q0 10 10 23l168 192q15 18 32 3l40 -34q16 -14 2 -33l-132 -152l131 -151
q15 -19 -2 -33z" />
    <glyph glyph-name="logicalnot" unicode="&#xac;" horiz-adv-x="620" 
d="M460 191q-23 0 -23 23v142h-359q-23 0 -23 22v69q0 23 23 23h449q22 0 22 -23l-1 -233q0 -23 -22 -23h-66z" />
    <glyph glyph-name="uni00AD" unicode="&#xad;" horiz-adv-x="550" 
d="M93 267q-23 0 -23 23v70q0 23 23 23h364q23 0 23 -23v-70q0 -23 -23 -23h-364z" />
    <glyph glyph-name="registered" unicode="&#xae;" horiz-adv-x="797" 
d="M398 -11q-148 0 -250.5 105.5t-102.5 255.5t102.5 255.5t250.5 105.5t250.5 -105.5t102.5 -255.5t-102.5 -255.5t-250.5 -105.5zM398 49q122 0 207 88.5t85 212.5t-85 212.5t-207 88.5t-207 -88.5t-85 -212.5t85 -212.5t207 -88.5zM302 174q-25 0 -25 25v310q0 24 25 24
h126q54 0 85 -34.5t31 -85.5q0 -39 -19 -67t-54 -39l62 -104q8 -12 3 -20.5t-20 -8.5h-38q-20 0 -28 17l-56 109h-35v-101q0 -25 -25 -25h-32zM359 365h59q20 0 31.5 13.5t11.5 34.5q0 22 -12 38t-31 16h-59v-102z" />
    <glyph glyph-name="macron" unicode="&#xaf;" horiz-adv-x="551" 
d="M150 607q-23 0 -23 22v43q0 23 23 23h251q23 0 23 -23v-43q0 -22 -23 -22h-251z" />
    <glyph glyph-name="degree" unicode="&#xb0;" horiz-adv-x="420" 
d="M210 384q-72 0 -121.5 49t-49.5 119q0 72 49.5 121.5t121.5 49.5t121.5 -49.5t49.5 -121.5q0 -70 -49.5 -119t-121.5 -49zM210 461q37 0 62.5 27t25.5 65t-25.5 66t-62.5 28q-36 0 -61.5 -28t-25.5 -66t25.5 -65t61.5 -27z" />
    <glyph glyph-name="plusminus" unicode="&#xb1;" horiz-adv-x="621" 
d="M278 224q-23 0 -23 23v119h-164q-22 0 -22 23v55q0 23 22 23h164v118q0 23 23 23h66q23 0 23 -23v-118h162q23 0 23 -23v-55q0 -23 -23 -23h-162v-119q0 -23 -23 -23h-66zM91 68q-22 0 -22 23v54q0 23 22 23h438q23 0 23 -23v-54q0 -23 -23 -23h-438z" />
    <glyph glyph-name="uni00B2" unicode="&#xb2;" horiz-adv-x="334" 
d="M50 461q-15 0 -18 15l-3 16q-1 13 8 21l137 120q41 35 41 71q0 23 -14 36t-38 13q-45 0 -55 -39q-4 -15 -17 -15h-45q-8 0 -13 4.5t-4 11.5q6 43 39.5 73.5t95.5 30.5q58 0 93 -32.5t35 -80.5q0 -67 -66 -121l-76 -61h141q17 0 17 -17v-30q0 -16 -17 -16h-241z" />
    <glyph glyph-name="uni00B3" unicode="&#xb3;" horiz-adv-x="326" 
d="M149 454q-69 0 -117 36q-13 11 -3 24l19 24q10 13 24 3q36 -24 78 -24q31 0 50.5 17.5t19.5 41.5q0 26 -20 44t-45 18q-19 0 -35 -6q-15 -5 -22 5l-12 14q-9 13 3 23l90 79h-127q-16 0 -16 17v27q0 16 16 16h217q17 0 17 -16v-14q0 -12 -9 -20l-87 -80q48 -4 77 -34.5
t29 -73.5q0 -52 -39.5 -86.5t-107.5 -34.5z" />
    <glyph glyph-name="acute" unicode="&#xb4;" horiz-adv-x="506" 
d="M161 576q-13 0 -18 8t1 19l63 114q10 16 28 16h83q14 0 18 -8t-5 -20l-92 -116q-9 -13 -28 -13h-50z" />
    <glyph glyph-name="uni00B5" unicode="&#xb5;" horiz-adv-x="610" 
d="M107 -158q-42 0 -42 43v580q0 43 42 43h44q43 0 43 -43v-257q0 -53 25.5 -82t64.5 -29q49 0 90.5 39.5t41.5 122.5v206q0 43 42 43h44q43 0 43 -43v-423q0 -42 -43 -42h-44q-42 0 -42 42v48q-16 -46 -55.5 -70.5t-95.5 -26.5q-42 -1 -79 14v-122q0 -43 -42 -43h-37z" />
    <glyph glyph-name="paragraph" unicode="&#xb6;" horiz-adv-x="663" 
d="M405 -140q-24 0 -24 24v707q0 58 36 89t90 31q61 0 93.5 -30.5t32.5 -78.5q0 -13 -2 -28q-4 -20 -28 -20h-30q-13 0 -18 4.5t-3 14.5q2 9 2 18q0 20 -13.5 31t-32.5 11q-20 0 -32.5 -12t-12.5 -34v-703q0 -24 -24 -24h-34zM263 -140q-24 0 -24 24v485h-41
q-69 0 -117 47.5t-48 117.5q0 69 48 117.5t117 48.5h161v-15q-37 -27 -37 -83v-718q0 -24 -25 -24h-34z" />
    <glyph glyph-name="periodcentered" unicode="&#xb7;" horiz-adv-x="287" 
d="M143 197q-37 0 -61 23t-24 58t24 58.5t61 23.5q36 0 61 -24t25 -58t-25 -57.5t-61 -23.5z" />
    <glyph glyph-name="cedilla" unicode="&#xb8;" horiz-adv-x="488" 
d="M246 -223q-44 0 -79.5 23.5t-53.5 63.5q-8 18 12 30l17 10q16 10 31 -8q25 -36 66 -36q23 0 40.5 16t17.5 42q0 43 -37 81l-10 7v8q0 11 14 11q25 0 38 -8q80 -50 80 -123q0 -58 -42.5 -87.5t-93.5 -29.5z" />
    <glyph glyph-name="uni00B9" unicode="&#xb9;" horiz-adv-x="221" 
d="M119 460q-16 0 -16 17v251l-59 -25q-16 -6 -21 10l-9 27q-5 13 9 21l105 48q9 4 21 4h15q16 0 16 -16v-320q0 -17 -16 -17h-45z" />
    <glyph glyph-name="ordmasculine" unicode="&#xba;" horiz-adv-x="470" 
d="M235 357q-73 0 -125.5 51.5t-52.5 123.5q0 71 52.5 122t125.5 51q72 0 125 -51.5t53 -121.5q0 -72 -53 -123.5t-125 -51.5zM235 438q36 0 62 27.5t26 65.5t-25.5 66t-62.5 28t-62.5 -27.5t-25.5 -66.5t25.5 -66t62.5 -27zM87 214q-23 0 -23 23v21q0 23 23 23h296
q23 0 23 -23v-21q0 -23 -23 -23h-296z" />
    <glyph glyph-name="guillemotright" unicode="&#xbb;" horiz-adv-x="592" 
d="M102 82l-39 34q-17 14 -2 33l132 151l-132 152q-14 19 2 33l39 34q18 16 32 -3l168 -192q11 -14 11 -23q0 -12 -11 -25l-168 -192q-15 -18 -32 -2zM342 82l-39 34q-17 14 -2 33l131 151l-132 152q-14 19 2 33l40 34q17 15 32 -3l168 -192q10 -13 10 -23q0 -14 -10 -25
l-168 -192q-15 -17 -32 -2z" />
    <glyph glyph-name="onequarter" unicode="&#xbc;" horiz-adv-x="837" 
d="M136 -39q-15 0 -20 8.5t4 21.5l514 728q12 16 30 16h25q15 0 20 -8.5t-4 -21.5l-515 -728q-12 -16 -30 -16h-24zM141 347q-16 0 -16 16v252l-59 -25q-16 -8 -21 9l-9 27q-4 14 9 22l105 48q9 4 21 4h15q16 0 16 -16v-321q0 -16 -16 -16h-45zM669 0q-17 0 -17 16v75h-152
q-17 0 -17 16v14q0 12 8 20l171 203q8 9 20 9h30q16 0 16 -16v-190h55q17 0 17 -17v-23q0 -16 -17 -16h-55v-75q0 -16 -16 -16h-43zM563 147h92v104z" />
    <glyph glyph-name="onehalf" unicode="&#xbd;" horiz-adv-x="860" 
d="M136 -39q-15 0 -20 8.5t4 21.5l514 728q12 16 30 16h25q15 0 20 -8.5t-4 -21.5l-515 -728q-12 -16 -30 -16h-24zM141 347q-16 0 -16 16v252l-59 -25q-16 -8 -21 9l-9 27q-4 14 9 22l105 48q9 4 21 4h15q16 0 16 -16v-321q0 -16 -16 -16h-45zM564 0q-15 0 -18 15l-3 16
q-3 13 7 21l137 120q42 36 42 71q0 23 -14 36t-38 13q-47 0 -55 -38q-4 -16 -18 -16h-45q-18 0 -16 17q6 42 39.5 72.5t94.5 30.5q58 0 93 -32.5t35 -80.5q0 -68 -66 -121l-76 -61h142q16 0 16 -16v-31q0 -16 -16 -16h-241z" />
    <glyph glyph-name="threequarters" unicode="&#xbe;" horiz-adv-x="865" 
d="M162 -39q-15 0 -20 8.5t4 21.5l514 728q12 16 30 16h25q15 0 20 -8.5t-4 -21.5l-515 -728q-12 -16 -30 -16h-24zM167 341q-69 0 -117 36q-16 10 -3 23l19 25q8 12 24 3q36 -24 78 -24q31 0 50 17.5t19 41.5q0 26 -19.5 43.5t-45.5 17.5q-18 0 -34 -5q-15 -4 -23 5l-11 14
q-10 13 2 23l91 79h-127q-16 0 -16 16v28q0 16 16 16h217q16 0 16 -16v-14q0 -12 -8 -20l-88 -80q48 -4 77.5 -34.5t29.5 -73.5q0 -51 -39.5 -86t-107.5 -35zM701 0q-16 0 -16 16v75h-153q-17 0 -17 16v14q0 10 8 20l171 203q9 9 20 9h30q17 0 17 -16v-190h54q17 0 17 -17
v-23q0 -16 -17 -16h-54v-75q0 -16 -17 -16h-43zM595 147h92v104z" />
    <glyph glyph-name="questiondown" unicode="&#xbf;" horiz-adv-x="523" 
d="M289 519q36 0 60.5 -23.5t24.5 -57.5q0 -35 -24.5 -58.5t-60.5 -23.5t-61.5 24t-25.5 58t25.5 57.5t61.5 23.5zM320 280q23 0 23 -19v-9q-1 -42 -12.5 -62.5t-52.5 -46.5q-65 -40 -91 -71.5t-26 -73.5q0 -43 29.5 -68t80.5 -25q47 0 74.5 22t27.5 61v9q0 24 21 24h70
q22 0 26 -19q2 -10 2 -28q0 -67 -57.5 -122t-166.5 -55q-103 0 -170 53.5t-67 140.5q0 18 3.5 35t8.5 31t15 29l17 25.5t21.5 24t21.5 20.5t24.5 19.5t23 16.5t23.5 15.5t20 13.5q23 18 24 37v7q0 15 21 15h66z" />
    <glyph glyph-name="Agrave" unicode="&#xc0;" horiz-adv-x="693" 
d="M314 761q-17 0 -28 14l-76 100q-9 11 -4.5 19.5t18.5 8.5h75q19 0 28 -17l53 -97q6 -12 1 -20t-18 -8h-49zM60 0q-23 0 -32 13.5t-1 35.5l237 617q13 34 49 34h65q36 0 49 -34l240 -617q8 -22 -1 -35.5t-32 -13.5h-48q-37 0 -50 34l-39 103h-302l-39 -103
q-12 -34 -48 -34h-48zM226 242h240l-120 325z" />
    <glyph glyph-name="Aacute" unicode="&#xc1;" horiz-adv-x="693" 
d="M328 761q-13 0 -18 8t1 20l53 97q8 17 28 17h75q14 0 18.5 -8.5t-4.5 -19.5l-76 -100q-11 -14 -28 -14h-49zM60 0q-23 0 -32 13.5t-1 35.5l237 617q13 34 49 34h65q36 0 49 -34l240 -617q8 -22 -1 -35.5t-32 -13.5h-48q-37 0 -50 34l-39 103h-302l-39 -103
q-12 -34 -48 -34h-48zM226 242h240l-120 325z" />
    <glyph glyph-name="Acircumflex" unicode="&#xc2;" horiz-adv-x="693" 
d="M212 761q-14 0 -18 8.5t4 19.5l75 100q11 14 28 14h91q17 0 27 -14l76 -100q8 -11 3.5 -19.5t-18.5 -8.5h-35q-17 0 -29 12l-70 69l-69 -69q-12 -12 -29 -12h-36zM60 0q-23 0 -32 13.5t-1 35.5l237 617q13 34 49 34h65q36 0 49 -34l240 -617q8 -22 -1 -35.5t-32 -13.5
h-48q-37 0 -50 34l-39 103h-302l-39 -103q-12 -34 -48 -34h-48zM226 242h240l-120 325z" />
    <glyph glyph-name="Atilde" unicode="&#xc3;" horiz-adv-x="693" 
d="M241 788q-10 -20 -30 -14l-14 4q-21 8 -15 30q15 46 36.5 68t57.5 22q28 0 73.5 -21.5t59.5 -21.5q30 0 45 30q10 19 30 13l14 -4q21 -8 14 -30q-14 -46 -35.5 -68t-57.5 -22q-28 0 -74 21.5t-60 21.5q-29 0 -44 -29zM60 0q-23 0 -32 13.5t-1 35.5l237 617q13 34 49 34
h65q36 0 49 -34l240 -617q8 -22 -1 -35.5t-32 -13.5h-48q-37 0 -50 34l-39 103h-302l-39 -103q-12 -34 -48 -34h-48zM226 242h240l-120 325z" />
    <glyph glyph-name="Adieresis" unicode="&#xc4;" horiz-adv-x="693" 
d="M232 760q-32 0 -52 19t-20 49q0 29 20.5 48.5t51.5 19.5t51.5 -19.5t20.5 -48.5q0 -30 -20.5 -49t-51.5 -19zM461 760q-31 0 -51 19t-20 49q0 29 20 48.5t51 19.5t52 -19.5t21 -48.5q0 -30 -20.5 -49t-52.5 -19zM60 0q-23 0 -32 13.5t-1 35.5l237 617q13 34 49 34h65
q36 0 49 -34l240 -617q8 -22 -1 -35.5t-32 -13.5h-48q-37 0 -50 34l-39 103h-302l-39 -103q-12 -34 -48 -34h-48zM226 242h240l-120 325z" />
    <glyph glyph-name="Aring" unicode="&#xc5;" horiz-adv-x="693" 
d="M346 746q-49 0 -82 29t-33 76q0 48 33 77t82 29q50 0 83.5 -29t33.5 -77q0 -47 -33.5 -76t-83.5 -29zM346 798q24 0 39.5 15t15.5 38q0 22 -15.5 36.5t-39.5 14.5q-23 0 -39 -14.5t-16 -36.5t16 -37.5t39 -15.5zM60 0q-23 0 -32 13.5t-1 35.5l237 617q13 34 49 34h65
q36 0 49 -34l240 -617q8 -22 -1 -35.5t-32 -13.5h-48q-37 0 -50 34l-39 103h-302l-39 -103q-12 -34 -48 -34h-48zM226 242h240l-120 325z" />
    <glyph glyph-name="AE" unicode="&#xc6;" horiz-adv-x="939" 
d="M49 0q-25 0 -33 14t3 37l332 619q17 30 50 30h448q43 0 43 -42v-26q0 -43 -43 -43h-266v-200h232q42 0 42 -42v-20q0 -42 -42 -42h-232v-174h266q43 0 43 -43v-26q0 -42 -43 -42h-356q-42 0 -42 42v199h-193l-110 -210q-16 -31 -50 -31h-49zM313 348h138v242h-17z" />
    <glyph glyph-name="Ccedilla" unicode="&#xc7;" horiz-adv-x="687" 
d="M641 109q23 -35 -5 -55q-88 -60 -196 -65q41 -42 41 -95q0 -58 -42.5 -87.5t-93.5 -29.5q-44 0 -79 23t-53 63q-10 18 10 31l17 10q17 9 32 -8q25 -36 66 -36q23 0 40.5 16t17.5 42q0 37 -30 74q-150 18 -238 119t-88 239q0 152 104.5 256.5t276.5 104.5q118 0 210 -61
q33 -24 10 -59l-16 -23q-21 -32 -59 -11q-67 38 -145 38q-113 0 -180 -70.5t-67 -174.5t67 -174.5t180 -70.5q78 0 145 38q38 21 59 -11z" />
    <glyph glyph-name="Egrave" unicode="&#xc8;" horiz-adv-x="597" 
d="M269 775l-76 100q-9 11 -4.5 19.5t18.5 8.5h75q20 0 28 -17l53 -97q6 -12 1 -20t-18 -8h-49q-17 0 -28 14zM506 589h-287v-192h244q43 0 43 -42v-20q0 -43 -43 -43h-244v-181h287q42 0 42 -43v-26q0 -42 -42 -42h-377q-42 0 -42 42v616q0 42 42 42h377q42 0 42 -42v-26
q0 -43 -42 -43z" />
    <glyph glyph-name="Eacute" unicode="&#xc9;" horiz-adv-x="597" 
d="M293 761q-13 0 -18 8t1 20l53 97q9 17 28 17h75q14 0 18.5 -8.5t-4.5 -19.5l-76 -100q-11 -14 -28 -14h-49zM506 589h-287v-192h244q43 0 43 -42v-20q0 -43 -43 -43h-244v-181h287q42 0 42 -43v-26q0 -42 -42 -42h-377q-42 0 -42 42v616q0 42 42 42h377q42 0 42 -42v-26
q0 -43 -42 -43z" />
    <glyph glyph-name="Ecircumflex" unicode="&#xca;" horiz-adv-x="597" 
d="M180 761q-14 0 -18 8.5t4 19.5l75 100q11 14 28 14h90q18 0 28 -14l75 -100q9 -11 4.5 -19.5t-18.5 -8.5h-36q-17 0 -28 12l-70 69l-69 -69q-12 -12 -29 -12h-36zM506 589h-287v-192h244q43 0 43 -42v-20q0 -43 -43 -43h-244v-181h287q42 0 42 -43v-26q0 -42 -42 -42
h-377q-42 0 -42 42v616q0 42 42 42h377q42 0 42 -42v-26q0 -43 -42 -43z" />
    <glyph glyph-name="Edieresis" unicode="&#xcb;" horiz-adv-x="597" 
d="M199 760q-32 0 -52 19t-20 49q0 29 20.5 48.5t51.5 19.5t51.5 -19.5t20.5 -48.5q0 -30 -20.5 -49t-51.5 -19zM428 760q-31 0 -51 19t-20 49q0 29 20 48.5t51 19.5t52 -19.5t21 -48.5q0 -30 -20.5 -49t-52.5 -19zM506 589h-287v-192h244q43 0 43 -42v-20q0 -43 -43 -43
h-244v-181h287q42 0 42 -43v-26q0 -42 -42 -42h-377q-42 0 -42 42v616q0 42 42 42h377q42 0 42 -42v-26q0 -43 -42 -43z" />
    <glyph glyph-name="Igrave" unicode="&#xcc;" horiz-adv-x="307" 
d="M125 761q-17 0 -28 14l-76 100q-9 11 -4.5 19.5t18.5 8.5h75q20 0 28 -17l53 -97q6 -12 1 -20t-18 -8h-49zM129 0q-42 0 -42 42v616q0 42 42 42h48q42 0 42 -42v-616q0 -42 -42 -42h-48z" />
    <glyph glyph-name="Iacute" unicode="&#xcd;" horiz-adv-x="307" 
d="M117 761q-13 0 -18 8t1 20l53 97q9 17 28 17h75q14 0 18.5 -8.5t-4.5 -19.5l-76 -100q-11 -14 -28 -14h-49zM129 0q-42 0 -42 42v616q0 42 42 42h48q42 0 42 -42v-616q0 -42 -42 -42h-48z" />
    <glyph glyph-name="Icircumflex" unicode="&#xce;" horiz-adv-x="307" 
d="M20 761q-14 0 -18 8.5t4 19.5l75 100q11 14 28 14h90q18 0 28 -14l75 -100q9 -11 4.5 -19.5t-18.5 -8.5h-36q-17 0 -28 12l-70 69l-69 -69q-12 -12 -29 -12h-36zM129 0q-42 0 -42 42v616q0 42 42 42h48q42 0 42 -42v-616q0 -42 -42 -42h-48z" />
    <glyph glyph-name="Idieresis" unicode="&#xcf;" horiz-adv-x="307" 
d="M35 760q-32 0 -52 19t-20 49q0 29 20.5 48.5t51.5 19.5t51.5 -19.5t20.5 -48.5q0 -30 -20.5 -49t-51.5 -19zM264 760q-31 0 -51 19t-20 49q0 29 20 48.5t51 19.5t52 -19.5t21 -48.5q0 -30 -20.5 -49t-52.5 -19zM129 0q-42 0 -42 42v616q0 42 42 42h48q42 0 42 -42v-616
q0 -42 -42 -42h-48z" />
    <glyph glyph-name="Eth" unicode="&#xd0;" horiz-adv-x="751" 
d="M139 0q-42 0 -42 42v260h-48q-32 0 -32 31v29q0 32 32 32h48v264q0 42 42 42h212q160 0 259.5 -101t99.5 -249t-99.5 -249t-259.5 -101h-212zM229 111h114q106 0 169.5 67.5t63.5 171.5t-63.5 172t-169.5 67h-114v-195h123q32 0 32 -32v-29q0 -31 -32 -31h-123v-191z" />
    <glyph glyph-name="Ntilde" unicode="&#xd1;" horiz-adv-x="747" 
d="M264 788q-10 -20 -30 -14l-14 4q-21 8 -15 30q15 46 36.5 68t57.5 22q28 0 73.5 -21.5t59.5 -21.5q30 0 45 30q10 19 30 13l14 -4q21 -8 14 -30q-14 -46 -35.5 -68t-57.5 -22q-28 0 -74 21.5t-60 21.5q-29 0 -44 -29zM129 0q-42 0 -42 42v616q0 42 42 42h26q33 0 52 -26
l320 -435v419q0 42 42 42h48q43 0 43 -42v-616q0 -42 -43 -42h-25q-32 0 -52 26l-321 438v-422q0 -42 -42 -42h-48z" />
    <glyph glyph-name="Ograve" unicode="&#xd2;" horiz-adv-x="815" 
d="M372 761q-17 0 -28 14l-76 100q-9 11 -4.5 19.5t18.5 8.5h75q19 0 28 -17l53 -97q6 -12 1 -20t-18 -8h-49zM408 -11q-157 0 -262.5 105.5t-105.5 255.5t105.5 255.5t262.5 105.5q156 0 261.5 -105.5t105.5 -255.5t-105.5 -255.5t-261.5 -105.5zM408 105q99 0 166 70.5
t67 174.5t-67 174.5t-166 70.5q-100 0 -167 -70.5t-67 -174.5t67 -174.5t167 -70.5z" />
    <glyph glyph-name="Oacute" unicode="&#xd3;" horiz-adv-x="815" 
d="M379 761q-13 0 -18 8t1 20l53 97q9 17 28 17h75q14 0 18.5 -8.5t-4.5 -19.5l-76 -100q-11 -14 -28 -14h-49zM408 -11q-157 0 -262.5 105.5t-105.5 255.5t105.5 255.5t262.5 105.5q156 0 261.5 -105.5t105.5 -255.5t-105.5 -255.5t-261.5 -105.5zM408 105q99 0 166 70.5
t67 174.5t-67 174.5t-166 70.5q-100 0 -167 -70.5t-67 -174.5t67 -174.5t167 -70.5z" />
    <glyph glyph-name="Ocircumflex" unicode="&#xd4;" horiz-adv-x="815" 
d="M273 761q-14 0 -18 8.5t4 19.5l75 100q11 14 28 14h90q18 0 28 -14l75 -100q9 -11 4.5 -19.5t-18.5 -8.5h-36q-17 0 -28 12l-70 69l-69 -69q-12 -12 -29 -12h-36zM408 -11q-157 0 -262.5 105.5t-105.5 255.5t105.5 255.5t262.5 105.5q156 0 261.5 -105.5t105.5 -255.5
t-105.5 -255.5t-261.5 -105.5zM408 105q99 0 166 70.5t67 174.5t-67 174.5t-166 70.5q-100 0 -167 -70.5t-67 -174.5t67 -174.5t167 -70.5z" />
    <glyph glyph-name="Otilde" unicode="&#xd5;" horiz-adv-x="815" 
d="M302 788q-10 -20 -30 -14l-14 4q-21 8 -15 30q15 46 36.5 68t57.5 22q28 0 73.5 -21.5t59.5 -21.5q30 0 45 30q10 19 30 13l14 -4q21 -8 14 -30q-14 -46 -35.5 -68t-57.5 -22q-28 0 -74 21.5t-60 21.5q-29 0 -44 -29zM408 -11q-157 0 -262.5 105.5t-105.5 255.5
t105.5 255.5t262.5 105.5q156 0 261.5 -105.5t105.5 -255.5t-105.5 -255.5t-261.5 -105.5zM408 105q99 0 166 70.5t67 174.5t-67 174.5t-166 70.5q-100 0 -167 -70.5t-67 -174.5t67 -174.5t167 -70.5z" />
    <glyph glyph-name="Odieresis" unicode="&#xd6;" horiz-adv-x="815" 
d="M293 760q-32 0 -52 19t-20 49q0 29 20.5 48.5t51.5 19.5t51.5 -19.5t20.5 -48.5q0 -30 -20.5 -49t-51.5 -19zM522 760q-31 0 -51 19t-20 49q0 29 20 48.5t51 19.5t52 -19.5t21 -48.5q0 -30 -20.5 -49t-52.5 -19zM408 -11q-157 0 -262.5 105.5t-105.5 255.5t105.5 255.5
t262.5 105.5q156 0 261.5 -105.5t105.5 -255.5t-105.5 -255.5t-261.5 -105.5zM408 105q99 0 166 70.5t67 174.5t-67 174.5t-166 70.5q-100 0 -167 -70.5t-67 -174.5t67 -174.5t167 -70.5z" />
    <glyph glyph-name="multiply" unicode="&#xd7;" horiz-adv-x="537" 
d="M140 105q-16 -19 -32 0l-44 43q-15 17 1 33l127 126l-126 126q-15 17 0 32l47 47q16 18 32 0l126 -126l126 127q16 16 32 0l44 -43q15 -17 0 -32l-127 -126l126 -126q15 -16 0 -33l-47 -47q-16 -18 -32 0l-127 126z" />
    <glyph glyph-name="Oslash" unicode="&#xd8;" horiz-adv-x="815" 
d="M210 -27q-13 -19 -32 -6l-29 20q-18 14 -6 32l33 48q-64 51 -100 124.5t-36 158.5q0 150 105.5 255.5t262.5 105.5q91 0 173 -42l38 55q13 19 32 6l29 -20q18 -13 6 -32l-37 -54q59 -50 92.5 -121.5t33.5 -152.5q0 -150 -105.5 -255.5t-261.5 -105.5q-91 0 -163 36z
M246 171l267 397q-49 27 -105 27q-100 0 -167 -70.5t-67 -174.5q0 -109 72 -179zM408 105q99 0 166 70.5t67 174.5q0 99 -63 168l-265 -393q48 -20 95 -20z" />
    <glyph glyph-name="Ugrave" unicode="&#xd9;" horiz-adv-x="724" 
d="M330 761q-17 0 -28 14l-76 100q-9 11 -4.5 19.5t18.5 8.5h75q19 0 28 -17l53 -97q6 -12 1 -20t-18 -8h-49zM362 -11q-121 0 -202.5 72.5t-81.5 201.5v395q0 42 42 42h48q42 0 42 -42v-395q0 -75 43.5 -116.5t108.5 -41.5t108.5 41.5t43.5 116.5v395q0 42 42 42h48
q42 0 42 -42v-395q0 -129 -81.5 -201.5t-202.5 -72.5z" />
    <glyph glyph-name="Uacute" unicode="&#xda;" horiz-adv-x="724" 
d="M324 761q-13 0 -18 8t1 20l53 97q8 17 28 17h75q14 0 18.5 -8.5t-4.5 -19.5l-76 -100q-11 -14 -28 -14h-49zM362 -11q-121 0 -202.5 72.5t-81.5 201.5v395q0 42 42 42h48q42 0 42 -42v-395q0 -75 43.5 -116.5t108.5 -41.5t108.5 41.5t43.5 116.5v395q0 42 42 42h48
q42 0 42 -42v-395q0 -129 -81.5 -201.5t-202.5 -72.5z" />
    <glyph glyph-name="Ucircumflex" unicode="&#xdb;" horiz-adv-x="724" 
d="M228 761q-14 0 -18 8.5t4 19.5l75 100q11 14 28 14h90q18 0 28 -14l75 -100q9 -11 4.5 -19.5t-18.5 -8.5h-36q-17 0 -28 12l-70 69l-69 -69q-12 -12 -29 -12h-36zM362 -11q-121 0 -202.5 72.5t-81.5 201.5v395q0 42 42 42h48q42 0 42 -42v-395q0 -75 43.5 -116.5
t108.5 -41.5t108.5 41.5t43.5 116.5v395q0 42 42 42h48q42 0 42 -42v-395q0 -129 -81.5 -201.5t-202.5 -72.5z" />
    <glyph glyph-name="Udieresis" unicode="&#xdc;" horiz-adv-x="724" 
d="M247 760q-32 0 -52 19t-20 49q0 29 20.5 48.5t51.5 19.5t51.5 -19.5t20.5 -48.5q0 -30 -20.5 -49t-51.5 -19zM476 760q-31 0 -51 19t-20 49q0 29 20 48.5t51 19.5t52 -19.5t21 -48.5q0 -30 -20.5 -49t-52.5 -19zM362 -11q-121 0 -202.5 72.5t-81.5 201.5v395q0 42 42 42
h48q42 0 42 -42v-395q0 -75 43.5 -116.5t108.5 -41.5t108.5 41.5t43.5 116.5v395q0 42 42 42h48q42 0 42 -42v-395q0 -129 -81.5 -201.5t-202.5 -72.5z" />
    <glyph glyph-name="Yacute" unicode="&#xdd;" horiz-adv-x="705" 
d="M319 761q-13 0 -18 8t1 20l53 97q9 17 28 17h75q14 0 18.5 -8.5t-4.5 -19.5l-76 -100q-11 -14 -28 -14h-49zM329 0q-42 0 -42 42v244l-244 363q-14 22 -6 36.5t34 14.5h61q34 0 51 -28l169 -273l171 273q17 28 51 28h61q26 0 34 -14.5t-7 -36.5l-243 -362v-245
q0 -42 -42 -42h-48z" />
    <glyph glyph-name="Thorn" unicode="&#xde;" horiz-adv-x="634" 
d="M129 0q-42 0 -42 42v616q0 42 42 42h48q42 0 42 -42v-113h210q76 0 127 -58t51 -137t-51 -136.5t-131 -57.5h-206v-114q0 -42 -42 -42h-48zM219 262h165q43 0 65 26t22 62q0 89 -87 89h-165v-177z" />
    <glyph glyph-name="germandbls" unicode="&#xdf;" horiz-adv-x="613" 
d="M109 0q-19 0 -30 11t-11 30v472q0 105 61 161t166 56q104 0 164.5 -50t60.5 -135q0 -114 -122 -148q79 -8 130.5 -62.5t51.5 -128.5q0 -91 -65.5 -153.5t-172.5 -62.5h-22q-38 0 -45 36l-5 25q-9 45 32 45h30q51 0 84.5 35t33.5 83q0 54 -41.5 89t-112.5 42q-31 3 -36 30
l-3 14q-7 31 27 39q55 9 80.5 36.5t25.5 65.5q0 48 -26 72t-69 24q-97 0 -97 -117v-468q0 -41 -41 -41h-48z" />
    <glyph glyph-name="agrave" unicode="&#xe0;" horiz-adv-x="652" 
d="M297 576q-19 0 -28 13l-92 116q-9 12 -5 20t18 8h83q19 0 27 -16l63 -114q7 -11 2 -19t-18 -8h-50zM283 -11q-109 0 -178.5 76t-69.5 189t69.5 189t178.5 76q112 0 172 -87v33q0 43 42 43h44q43 0 43 -43v-423q0 -42 -43 -42h-44q-42 0 -42 42v34q-60 -87 -172 -87z
M308 96q66 0 107 44.5t42 113.5q-1 69 -42 113.5t-107 44.5t-105 -45.5t-39 -112.5q0 -68 39 -113t105 -45z" />
    <glyph glyph-name="aacute" unicode="&#xe1;" horiz-adv-x="652" 
d="M285 576q-13 0 -18 8t1 19l63 114q10 16 28 16h83q14 0 18 -8t-5 -20l-92 -116q-9 -13 -28 -13h-50zM283 -11q-109 0 -178.5 76t-69.5 189t69.5 189t178.5 76q112 0 172 -87v33q0 43 42 43h44q43 0 43 -43v-423q0 -42 -43 -42h-44q-42 0 -42 42v34q-60 -87 -172 -87z
M308 96q66 0 107 44.5t42 113.5q-1 69 -42 113.5t-107 44.5t-105 -45.5t-39 -112.5q0 -68 39 -113t105 -45z" />
    <glyph glyph-name="acircumflex" unicode="&#xe2;" horiz-adv-x="652" 
d="M169 576q-14 0 -18.5 8t3.5 19l82 115q9 15 27 15h93q18 0 27 -15l83 -115q8 -11 3.5 -19t-18.5 -8h-39q-17 0 -28 12l-74 79l-74 -79q-11 -12 -28 -12h-39zM283 -11q-109 0 -178.5 76t-69.5 189t69.5 189t178.5 76q112 0 172 -87v33q0 43 42 43h44q43 0 43 -43v-423
q0 -42 -43 -42h-44q-42 0 -42 42v34q-60 -87 -172 -87zM308 96q66 0 107 44.5t42 113.5q-1 69 -42 113.5t-107 44.5t-105 -45.5t-39 -112.5q0 -68 39 -113t105 -45z" />
    <glyph glyph-name="atilde" unicode="&#xe3;" horiz-adv-x="652" 
d="M203 605q-11 -20 -30 -14l-14 5q-21 8 -15 29q15 48 36.5 71t57.5 23q28 0 73.5 -22t59.5 -22q30 0 45 30q10 20 30 14l14 -5q22 -6 15 -29q-15 -48 -36.5 -71t-57.5 -23q-28 0 -73.5 22.5t-59.5 22.5q-30 0 -45 -31zM283 -11q-109 0 -178.5 76t-69.5 189t69.5 189
t178.5 76q112 0 172 -87v33q0 43 42 43h44q43 0 43 -43v-423q0 -42 -43 -42h-44q-42 0 -42 42v34q-60 -87 -172 -87zM308 96q66 0 107 44.5t42 113.5q-1 69 -42 113.5t-107 44.5t-105 -45.5t-39 -112.5q0 -68 39 -113t105 -45z" />
    <glyph glyph-name="adieresis" unicode="&#xe4;" horiz-adv-x="652" 
d="M194 585q-31 0 -52 20t-21 49q0 30 21 50t52 20t52.5 -20t21.5 -50q0 -29 -21.5 -49t-52.5 -20zM423 585q-31 0 -51.5 20t-20.5 49q0 30 20.5 50t51.5 20q32 0 53.5 -20t21.5 -50q0 -29 -21.5 -49t-53.5 -20zM283 -11q-109 0 -178.5 76t-69.5 189t69.5 189t178.5 76
q112 0 172 -87v33q0 43 42 43h44q43 0 43 -43v-423q0 -42 -43 -42h-44q-42 0 -42 42v34q-60 -87 -172 -87zM308 96q66 0 107 44.5t42 113.5q-1 69 -42 113.5t-107 44.5t-105 -45.5t-39 -112.5q0 -68 39 -113t105 -45z" />
    <glyph glyph-name="aring" unicode="&#xe5;" horiz-adv-x="652" 
d="M309 576q-49 0 -82 31t-33 78q0 48 33 79.5t82 31.5t83 -31.5t34 -79.5q0 -47 -34 -78t-83 -31zM309 632q24 0 39.5 15t15.5 38t-15.5 38t-39.5 15q-23 0 -39 -15.5t-16 -37.5t16 -37.5t39 -15.5zM283 -11q-109 0 -178.5 76t-69.5 189t69.5 189t178.5 76q112 0 172 -87
v33q0 43 42 43h44q43 0 43 -43v-423q0 -42 -43 -42h-44q-42 0 -42 42v34q-60 -87 -172 -87zM308 96q66 0 107 44.5t42 113.5q-1 69 -42 113.5t-107 44.5t-105 -45.5t-39 -112.5q0 -68 39 -113t105 -45z" />
    <glyph glyph-name="ae" unicode="&#xe6;" horiz-adv-x="950" 
d="M229 -11q-85 0 -143.5 44.5t-58.5 121.5q0 72 56.5 115.5t150.5 43.5q95 0 156 -28v18q0 56 -34 83t-90 27q-65 0 -119 -29q-39 -20 -58 16l-6 11q-18 38 14 58q76 49 184 49q133 0 185 -83q76 83 198 83q104 0 176.5 -63.5t79.5 -177.5q3 -43 -42 -43h-366
q-2 -59 46 -99.5t125 -40.5q62 0 118 36q36 20 59 -7l10 -11q28 -33 -4 -60q-76 -64 -189 -64q-157 0 -232 108q-31 -52 -89 -80t-127 -28zM520 316h278q-25 100 -132 100q-49 0 -89 -23.5t-57 -76.5zM261 82q40 0 79.5 20.5t65.5 60.5q-10 34 -10 52q-63 21 -138 21
q-49 0 -75 -22t-26 -54q0 -31 26.5 -54.5t77.5 -23.5z" />
    <glyph glyph-name="ccedilla" unicode="&#xe7;" horiz-adv-x="538" 
d="M251 -223q-43 0 -79 23.5t-53 63.5q-9 19 11 30l17 10q17 10 31 -8q26 -36 66 -36q23 0 40.5 16t17.5 42q0 38 -30 74q-109 15 -173.5 87t-64.5 171q0 115 78.5 192t211.5 77q83 0 156 -43q38 -22 10 -59l-12 -15q-21 -29 -59 -11q-40 20 -88 20q-73 0 -120.5 -44
t-47.5 -113t47.5 -113.5t120.5 -44.5q46 0 88 20q39 19 59 -10l12 -16q13 -16 7.5 -34.5t-29.5 -30.5q-52 -29 -122 -35q41 -42 41 -96q0 -58 -42 -87.5t-94 -29.5z" />
    <glyph glyph-name="egrave" unicode="&#xe8;" horiz-adv-x="604" 
d="M282 576q-19 0 -28 13l-92 116q-9 12 -5 20t18 8h83q19 0 27 -16l63 -114q7 -11 2 -19t-18 -8h-50zM324 -11q-132 0 -211 75.5t-79 187.5q0 111 77.5 189t198.5 78q107 0 182 -63.5t82 -180.5q1 -19 -10 -29.5t-32 -10.5h-373q-2 -59 46 -99.5t125 -40.5q67 0 125 37
q34 20 59 -8l9 -11q31 -34 -8 -64q-77 -60 -191 -60zM165 316h285q-25 100 -138 100q-49 0 -89.5 -23.5t-57.5 -76.5z" />
    <glyph glyph-name="eacute" unicode="&#xe9;" horiz-adv-x="604" 
d="M288 576q-13 0 -18 8t1 19l63 114q10 16 28 16h83q14 0 18 -8t-5 -20l-92 -116q-9 -13 -28 -13h-50zM324 -11q-132 0 -211 75.5t-79 187.5q0 111 77.5 189t198.5 78q107 0 182 -63.5t82 -180.5q1 -19 -10 -29.5t-32 -10.5h-373q-2 -59 46 -99.5t125 -40.5q67 0 125 37
q34 20 59 -8l9 -11q31 -34 -8 -64q-77 -60 -191 -60zM165 316h285q-25 100 -138 100q-49 0 -89.5 -23.5t-57.5 -76.5z" />
    <glyph glyph-name="ecircumflex" unicode="&#xea;" horiz-adv-x="604" 
d="M163 576q-14 0 -18.5 8t3.5 19l82 115q9 15 27 15h93q18 0 27 -15l83 -115q8 -11 3.5 -19t-18.5 -8h-39q-17 0 -28 12l-74 79l-74 -79q-11 -12 -28 -12h-39zM324 -11q-132 0 -211 75.5t-79 187.5q0 111 77.5 189t198.5 78q107 0 182 -63.5t82 -180.5q1 -19 -10 -29.5
t-32 -10.5h-373q-2 -59 46 -99.5t125 -40.5q67 0 125 37q34 20 59 -8l9 -11q31 -34 -8 -64q-77 -60 -191 -60zM165 316h285q-25 100 -138 100q-49 0 -89.5 -23.5t-57.5 -76.5z" />
    <glyph glyph-name="edieresis" unicode="&#xeb;" horiz-adv-x="604" 
d="M189 585q-31 0 -52 20t-21 49q0 30 21 50t52 20t52.5 -20t21.5 -50q0 -29 -21.5 -49t-52.5 -20zM418 585q-31 0 -51.5 20t-20.5 49q0 30 20.5 50t51.5 20q32 0 53.5 -20t21.5 -50q0 -29 -21.5 -49t-53.5 -20zM324 -11q-132 0 -211 75.5t-79 187.5q0 111 77.5 189
t198.5 78q107 0 182 -63.5t82 -180.5q1 -19 -10 -29.5t-32 -10.5h-373q-2 -59 46 -99.5t125 -40.5q67 0 125 37q34 20 59 -8l9 -11q31 -34 -8 -64q-77 -60 -191 -60zM165 316h285q-25 100 -138 100q-49 0 -89.5 -23.5t-57.5 -76.5z" />
    <glyph glyph-name="igrave" unicode="&#xec;" horiz-adv-x="271" 
d="M121 576q-18 0 -27 13l-92 116q-9 12 -5 20t18 8h83q17 0 27 -16l63 -114q7 -11 2 -19t-18 -8h-51zM113 0q-42 0 -42 42v423q0 43 42 43h45q42 0 42 -43v-423q0 -42 -42 -42h-45z" />
    <glyph glyph-name="iacute" unicode="&#xed;" horiz-adv-x="271" 
d="M99 576q-13 0 -18 8t2 19l63 114q8 16 27 16h83q14 0 18 -8t-5 -20l-92 -116q-9 -13 -28 -13h-50zM113 0q-42 0 -42 42v423q0 43 42 43h45q42 0 42 -43v-423q0 -42 -42 -42h-45z" />
    <glyph glyph-name="icircumflex" unicode="&#xee;" horiz-adv-x="271" 
d="M-8 576q-14 0 -18.5 8t3.5 19l82 115q9 15 27 15h93q18 0 27 -15l83 -115q8 -11 3.5 -19t-18.5 -8h-39q-17 0 -28 12l-74 79l-74 -79q-11 -12 -28 -12h-39zM113 0q-42 0 -42 42v423q0 43 42 43h45q42 0 42 -43v-423q0 -42 -42 -42h-45z" />
    <glyph glyph-name="idieresis" unicode="&#xef;" horiz-adv-x="271" 
d="M18 585q-31 0 -52 20t-21 49q0 30 21 50t52 20t52.5 -20t21.5 -50q0 -29 -21.5 -49t-52.5 -20zM248 585q-31 0 -52 20t-21 49q0 30 21 50t52 20t52.5 -20t21.5 -50q0 -29 -21.5 -49t-52.5 -20zM113 0q-42 0 -42 42v423q0 43 42 43h45q42 0 42 -43v-423q0 -42 -42 -42h-45
z" />
    <glyph glyph-name="eth" unicode="&#xf0;" horiz-adv-x="600" 
d="M303 -11q-114 0 -191.5 71.5t-77.5 179.5q0 106 74 173t167 67q68 0 97 -27q-35 59 -94 109l-86 -37q-27 -13 -40 11l-7 12q-9 23 21 36l60 26q-28 23 -38 31q-18 14 -17 30t20 29l25 17q31 20 59 -2q49 -42 63 -56l82 36q25 11 40 -8l8 -14q12 -24 -20 -38l-60 -26
q176 -188 176 -363q0 -117 -76.5 -187t-184.5 -70zM299 98q66 0 102 41t36 108q0 62 -36 101.5t-98 39.5q-63 0 -102 -40.5t-39 -102.5q0 -63 39 -105t98 -42z" />
    <glyph glyph-name="ntilde" unicode="&#xf1;" horiz-adv-x="611" 
d="M202 605q-11 -20 -30 -14l-14 5q-21 8 -15 29q15 48 36.5 71t57.5 23q28 0 73.5 -22t59.5 -22q30 0 45 30q10 20 30 14l14 -5q22 -6 15 -29q-15 -48 -36.5 -71t-57.5 -23q-28 0 -73.5 22.5t-59.5 22.5q-29 0 -45 -31zM111 0q-42 0 -42 42v423q0 43 42 43h44q43 0 43 -43
v-47q17 48 59.5 74.5t101.5 26.5q91 0 140.5 -61.5t49.5 -167.5v-248q0 -42 -43 -42h-44q-42 0 -42 42v242q0 63 -24.5 95t-66.5 32q-49 0 -90 -39.5t-41 -123.5v-206q0 -42 -43 -42h-44z" />
    <glyph glyph-name="ograve" unicode="&#xf2;" horiz-adv-x="617" 
d="M273 576q-19 0 -28 13l-92 116q-9 12 -5 20t18 8h83q19 0 27 -16l63 -114q7 -11 2 -19t-18 -8h-50zM308 -11q-116 0 -195 77t-79 188q0 110 79 187.5t195 77.5q115 0 195 -77.5t80 -187.5q0 -111 -79.5 -188t-195.5 -77zM308 97q63 0 106.5 45.5t43.5 110.5
q0 66 -43.5 112t-106.5 46t-106.5 -46t-43.5 -112q0 -65 43.5 -110.5t106.5 -45.5z" />
    <glyph glyph-name="oacute" unicode="&#xf3;" horiz-adv-x="617" 
d="M287 576q-13 0 -18 8t1 19l63 114q10 16 28 16h83q14 0 18 -8t-5 -20l-92 -116q-9 -13 -28 -13h-50zM308 -11q-116 0 -195 77t-79 188q0 110 79 187.5t195 77.5q115 0 195 -77.5t80 -187.5q0 -111 -79.5 -188t-195.5 -77zM308 97q63 0 106.5 45.5t43.5 110.5
q0 66 -43.5 112t-106.5 46t-106.5 -46t-43.5 -112q0 -65 43.5 -110.5t106.5 -45.5z" />
    <glyph glyph-name="ocircumflex" unicode="&#xf4;" horiz-adv-x="617" 
d="M167 576q-14 0 -18.5 8t3.5 19l82 115q9 15 27 15h93q18 0 27 -15l83 -115q8 -11 3.5 -19t-18.5 -8h-39q-17 0 -28 12l-74 79l-74 -79q-11 -12 -28 -12h-39zM308 -11q-116 0 -195 77t-79 188q0 110 79 187.5t195 77.5q115 0 195 -77.5t80 -187.5q0 -111 -79.5 -188
t-195.5 -77zM308 97q63 0 106.5 45.5t43.5 110.5q0 66 -43.5 112t-106.5 46t-106.5 -46t-43.5 -112q0 -65 43.5 -110.5t106.5 -45.5z" />
    <glyph glyph-name="otilde" unicode="&#xf5;" horiz-adv-x="617" 
d="M202 605q-11 -20 -30 -14l-14 5q-21 8 -15 29q15 48 36.5 71t57.5 23q28 0 73.5 -22t59.5 -22q30 0 45 30q10 20 30 14l14 -5q22 -6 15 -29q-15 -48 -36.5 -71t-57.5 -23q-28 0 -73.5 22.5t-59.5 22.5q-29 0 -45 -31zM308 -11q-116 0 -195 77t-79 188q0 110 79 187.5
t195 77.5q115 0 195 -77.5t80 -187.5q0 -111 -79.5 -188t-195.5 -77zM308 97q63 0 106.5 45.5t43.5 110.5q0 66 -43.5 112t-106.5 46t-106.5 -46t-43.5 -112q0 -65 43.5 -110.5t106.5 -45.5z" />
    <glyph glyph-name="odieresis" unicode="&#xf6;" horiz-adv-x="617" 
d="M193 585q-31 0 -52 20t-21 49q0 30 21 50t52 20t52.5 -20t21.5 -50q0 -29 -21.5 -49t-52.5 -20zM422 585q-31 0 -51.5 20t-20.5 49q0 30 20.5 50t51.5 20q32 0 53.5 -20t21.5 -50q0 -29 -21.5 -49t-53.5 -20zM308 -11q-116 0 -195 77t-79 188q0 110 79 187.5t195 77.5
q115 0 195 -77.5t80 -187.5q0 -111 -79.5 -188t-195.5 -77zM308 97q63 0 106.5 45.5t43.5 110.5q0 66 -43.5 112t-106.5 46t-106.5 -46t-43.5 -112q0 -65 43.5 -110.5t106.5 -45.5z" />
    <glyph glyph-name="divide" unicode="&#xf7;" horiz-adv-x="617" 
d="M308 427q-37 0 -61 21t-24 55t24 56t61 22q36 0 61 -22t25 -56t-24.5 -55t-61.5 -21zM71 247q-22 0 -22 23v70q0 23 22 23h475q22 0 22 -23v-70q0 -23 -22 -23h-475zM308 32q-37 0 -61 21.5t-24 55.5t24 56t61 22q36 0 61 -22t25 -56t-24.5 -55.5t-61.5 -21.5z" />
    <glyph glyph-name="oslash" unicode="&#xf8;" horiz-adv-x="618" 
d="M118 -12q-15 -18 -32 -2l-18 17q-16 16 -2 32l37 42q-69 75 -69 177q0 110 79.5 187.5t195.5 77.5q81 0 148 -43l39 44q15 18 32 2l18 -18q17 -14 2 -32l-36 -40q72 -75 72 -178q0 -111 -79.5 -188t-195.5 -77q-83 0 -151 43zM184 167l197 223q-34 21 -72 21
q-63 0 -106.5 -46t-43.5 -112q0 -47 25 -86zM309 97q63 0 106.5 45.5t43.5 110.5q0 51 -26 89l-199 -224q36 -21 75 -21z" />
    <glyph glyph-name="ugrave" unicode="&#xf9;" horiz-adv-x="610" 
d="M283 576q-19 0 -28 13l-92 116q-9 12 -5 20t18 8h83q19 0 27 -16l63 -114q7 -11 2 -19t-18 -8h-50zM251 -11q-91 0 -140.5 61.5t-49.5 167.5v247q0 43 43 43h44q42 0 42 -43v-241q0 -63 24.5 -95t66.5 -32q49 0 90 39.5t41 122.5v206q0 43 43 43h44q42 0 42 -43v-423
q0 -42 -42 -42h-44q-43 0 -43 42v48q-17 -48 -59.5 -74.5t-101.5 -26.5z" />
    <glyph glyph-name="uacute" unicode="&#xfa;" horiz-adv-x="610" 
d="M263 576q-13 0 -18 8t1 19l63 114q10 16 28 16h83q14 0 18 -8t-5 -20l-92 -116q-9 -13 -28 -13h-50zM251 -11q-91 0 -140.5 61.5t-49.5 167.5v247q0 43 43 43h44q42 0 42 -43v-241q0 -63 24.5 -95t66.5 -32q49 0 90 39.5t41 122.5v206q0 43 43 43h44q42 0 42 -43v-423
q0 -42 -42 -42h-44q-43 0 -43 42v48q-17 -48 -59.5 -74.5t-101.5 -26.5z" />
    <glyph glyph-name="ucircumflex" unicode="&#xfb;" horiz-adv-x="610" 
d="M160 576q-14 0 -18.5 8t3.5 19l82 115q9 15 27 15h93q18 0 27 -15l83 -115q8 -11 3.5 -19t-18.5 -8h-39q-17 0 -28 12l-74 79l-74 -79q-11 -12 -28 -12h-39zM251 -11q-91 0 -140.5 61.5t-49.5 167.5v247q0 43 43 43h44q42 0 42 -43v-241q0 -63 24.5 -95t66.5 -32
q49 0 90 39.5t41 122.5v206q0 43 43 43h44q42 0 42 -43v-423q0 -42 -42 -42h-44q-43 0 -43 42v48q-17 -48 -59.5 -74.5t-101.5 -26.5z" />
    <glyph glyph-name="udieresis" unicode="&#xfc;" horiz-adv-x="610" 
d="M187 585q-31 0 -52 20t-21 49q0 30 21 50t52 20t52.5 -20t21.5 -50q0 -29 -21.5 -49t-52.5 -20zM416 585q-31 0 -51.5 20t-20.5 49q0 30 20.5 50t51.5 20q32 0 53.5 -20t21.5 -50q0 -29 -21.5 -49t-53.5 -20zM251 -11q-91 0 -140.5 61.5t-49.5 167.5v247q0 43 43 43h44
q42 0 42 -43v-241q0 -63 24.5 -95t66.5 -32q49 0 90 39.5t41 122.5v206q0 43 43 43h44q42 0 42 -43v-423q0 -42 -42 -42h-44q-43 0 -43 42v48q-17 -48 -59.5 -74.5t-101.5 -26.5z" />
    <glyph glyph-name="yacute" unicode="&#xfd;" horiz-adv-x="575" 
d="M260 576q-13 0 -18 8t1 19l63 114q10 16 28 16h83q14 0 18 -8t-5 -20l-92 -116q-9 -13 -28 -13h-50zM177 -224q-24 0 -33 13.5t0 35.5l81 202l-191 431q-10 22 -0.5 36t33.5 14h54q36 0 48 -34l122 -309l117 309q13 34 50 34h53q23 0 32.5 -14t-0.5 -36l-280 -650
q-14 -32 -49 -32h-37z" />
    <glyph glyph-name="thorn" unicode="&#xfe;" horiz-adv-x="652" 
d="M111 -224q-42 0 -42 42v863q0 42 42 42h44q43 0 43 -42v-249q59 87 172 87q109 0 178 -76t69 -189t-69 -189t-178 -76q-113 0 -172 87v-258q0 -42 -43 -42h-44zM345 96q66 0 104.5 45t38.5 113q0 67 -38.5 112.5t-104.5 45.5t-107.5 -44.5t-42.5 -113.5
q1 -69 42.5 -113.5t107.5 -44.5z" />
    <glyph glyph-name="ydieresis" unicode="&#xff;" horiz-adv-x="575" 
d="M173 585q-31 0 -52 20t-21 49q0 30 21 50t52 20t52.5 -20t21.5 -50q0 -29 -21.5 -49t-52.5 -20zM402 585q-31 0 -51.5 20t-20.5 49q0 30 20.5 50t51.5 20q32 0 53.5 -20t21.5 -50q0 -29 -21.5 -49t-53.5 -20zM177 -224q-24 0 -33 13.5t0 35.5l81 202l-191 431
q-10 22 -0.5 36t33.5 14h54q36 0 48 -34l122 -309l117 309q13 34 50 34h53q23 0 32.5 -14t-0.5 -36l-280 -650q-14 -32 -49 -32h-37z" />
    <glyph glyph-name="Amacron" unicode="&#x100;" horiz-adv-x="693" 
d="M221 778q-23 0 -23 23v43q0 23 23 23h252q23 0 23 -23v-43q0 -23 -23 -23h-252zM60 0q-23 0 -32 13.5t-1 35.5l237 617q13 34 49 34h65q36 0 49 -34l240 -617q8 -22 -1 -35.5t-32 -13.5h-48q-37 0 -50 34l-39 103h-302l-39 -103q-12 -34 -48 -34h-48zM226 242h240
l-120 325z" />
    <glyph glyph-name="amacron" unicode="&#x101;" horiz-adv-x="652" 
d="M184 607q-23 0 -23 22v43q0 23 23 23h251q23 0 23 -23v-43q0 -22 -23 -22h-251zM283 -11q-109 0 -178.5 76t-69.5 189t69.5 189t178.5 76q112 0 172 -87v33q0 43 42 43h44q43 0 43 -43v-423q0 -42 -43 -42h-44q-42 0 -42 42v34q-60 -87 -172 -87zM308 96q66 0 107 44.5
t42 113.5q-1 69 -42 113.5t-107 44.5t-105 -45.5t-39 -112.5q0 -68 39 -113t105 -45z" />
    <glyph glyph-name="Abreve" unicode="&#x102;" horiz-adv-x="693" 
d="M347 759q-47 0 -88.5 28.5t-55.5 88.5q-5 22 20 26l30 3q20 3 26 -20q17 -51 68 -51q53 0 69 52q8 22 26 19l31 -3q11 -1 16 -11.5t0 -27.5q-16 -53 -56.5 -78.5t-85.5 -25.5zM55 0q-22 0 -30 12t0 32l240 626q12 30 45 30h72q32 0 44 -30l243 -626q7 -20 -1 -32t-29 -12
h-57q-34 0 -44 31l-38 106h-307l-38 -106q-12 -31 -43 -31h-57zM230 242h234l-118 324z" />
    <glyph glyph-name="abreve" unicode="&#x103;" horiz-adv-x="652" 
d="M311 576q-50 0 -93 29.5t-56 95.5q-4 24 20 27l33 3q18 3 26 -20q13 -53 70 -53t70 53q8 22 26 19l32 -3q12 -1 17 -12t0 -29q-16 -58 -57 -84t-88 -26zM283 -11q-109 0 -178.5 76t-69.5 189t69.5 189t178.5 76q112 0 172 -87v33q0 43 42 43h44q43 0 43 -43v-423
q0 -42 -43 -42h-44q-42 0 -42 42v34q-60 -87 -172 -87zM308 96q66 0 107 44.5t42 113.5q-1 69 -42 113.5t-107 44.5t-105 -45.5t-39 -112.5q0 -68 39 -113t105 -45z" />
    <glyph glyph-name="Aogonek" unicode="&#x104;" horiz-adv-x="691" 
d="M607 -223q-51 0 -93.5 29.5t-42.5 85.5q0 34 20 67t55 49l-49 129h-302l-39 -103q-12 -34 -48 -34h-48q-23 0 -32 13.5t-1 35.5l237 617q13 34 49 34h65q36 0 49 -34l240 -617q15 -40 -27 -48q-82 -19 -82 -81q0 -27 17 -43.5t39 -16.5q35 0 60 28q23 23 43 13l9 -5
q24 -15 8 -43q-18 -35 -52 -55.5t-75 -20.5zM226 242h240l-120 325z" />
    <glyph glyph-name="aogonek" unicode="&#x105;" horiz-adv-x="652" 
d="M657 -106q20 -13 10 -31q-18 -40 -53 -63t-79 -23q-51 0 -93.5 29.5t-42.5 87.5q0 63 56 110v72q-60 -87 -172 -87q-109 0 -178.5 76t-69.5 189t69.5 189t178.5 76q112 0 172 -87v33q0 43 42 43h44q43 0 43 -43v-423q0 -42 -43 -42h-20q-37 -40 -37 -82q0 -26 17.5 -42
t40.5 -16q41 0 66 36q15 17 32 8zM308 96q66 0 107 44.5t42 113.5q-1 69 -42 113.5t-107 44.5t-105 -45.5t-39 -112.5q0 -68 39 -113t105 -45z" />
    <glyph glyph-name="Cacute" unicode="&#x106;" horiz-adv-x="687" 
d="M375 761q-13 0 -18 8t1 20l53 97q9 17 28 17h75q14 0 18.5 -8.5t-4.5 -19.5l-76 -100q-11 -14 -28 -14h-49zM421 -11q-172 0 -276.5 104.5t-104.5 256.5t104.5 256.5t276.5 104.5q118 0 210 -61q33 -24 10 -59l-16 -23q-21 -32 -59 -11q-67 38 -145 38q-113 0 -180 -70.5
t-67 -174.5t67 -174.5t180 -70.5q78 0 145 38q38 21 59 -11l16 -23q23 -35 -5 -55q-95 -65 -215 -65z" />
    <glyph glyph-name="cacute" unicode="&#x107;" horiz-adv-x="538" 
d="M287 576q-13 0 -18 8t1 19l63 114q10 16 28 16h83q14 0 18 -8t-5 -20l-92 -116q-9 -13 -28 -13h-50zM324 -11q-131 0 -210.5 75t-79.5 186q0 115 78.5 192t211.5 77q83 0 156 -43q38 -22 10 -59l-12 -15q-21 -29 -59 -11q-40 20 -88 20q-73 0 -120.5 -44t-47.5 -113
t47.5 -113.5t120.5 -44.5q46 0 88 20q39 19 59 -10l12 -16q13 -16 7.5 -34.5t-29.5 -30.5q-66 -36 -144 -36z" />
    <glyph glyph-name="Ccircumflex" unicode="&#x108;" horiz-adv-x="687" 
d="M254 761q-14 0 -18 8.5t4 19.5l75 100q11 14 28 14h90q18 0 28 -14l75 -100q9 -11 4.5 -19.5t-18.5 -8.5h-36q-17 0 -28 12l-70 69l-69 -69q-12 -12 -29 -12h-36zM421 -11q-172 0 -276.5 104.5t-104.5 256.5t104.5 256.5t276.5 104.5q118 0 210 -61q33 -24 10 -59
l-16 -23q-21 -32 -59 -11q-67 38 -145 38q-113 0 -180 -70.5t-67 -174.5t67 -174.5t180 -70.5q78 0 145 38q38 21 59 -11l16 -23q23 -35 -5 -55q-95 -65 -215 -65z" />
    <glyph glyph-name="ccircumflex" unicode="&#x109;" horiz-adv-x="538" 
d="M153 576q-14 0 -18.5 8t3.5 19l82 115q9 15 27 15h93q18 0 27 -15l83 -115q8 -11 3.5 -19t-18.5 -8h-39q-17 0 -28 12l-74 79l-74 -79q-11 -12 -28 -12h-39zM324 -11q-131 0 -210.5 75t-79.5 186q0 115 78.5 192t211.5 77q83 0 156 -43q38 -22 10 -59l-12 -15
q-21 -29 -59 -11q-40 20 -88 20q-73 0 -120.5 -44t-47.5 -113t47.5 -113.5t120.5 -44.5q46 0 88 20q39 19 59 -10l12 -16q13 -16 7.5 -34.5t-29.5 -30.5q-66 -36 -144 -36z" />
    <glyph glyph-name="Cdotaccent" unicode="&#x10a;" horiz-adv-x="687" 
d="M401 758q-34 0 -55 20t-21 51q0 32 21 52t55 20q32 0 53.5 -20.5t21.5 -51.5t-21.5 -51t-53.5 -20zM421 -11q-172 0 -276.5 104.5t-104.5 256.5t104.5 256.5t276.5 104.5q118 0 210 -61q33 -24 10 -59l-16 -23q-21 -32 -59 -11q-67 38 -145 38q-113 0 -180 -70.5
t-67 -174.5t67 -174.5t180 -70.5q78 0 145 38q38 21 59 -11l16 -23q23 -35 -5 -55q-95 -65 -215 -65z" />
    <glyph glyph-name="cdotaccent" unicode="&#x10b;" horiz-adv-x="538" 
d="M310 578q-34 0 -55.5 20t-21.5 52t21.5 53.5t55.5 21.5q33 0 55.5 -21.5t22.5 -53.5q0 -31 -22.5 -51.5t-55.5 -20.5zM324 -11q-131 0 -210.5 75t-79.5 186q0 115 78.5 192t211.5 77q83 0 156 -43q38 -22 10 -59l-12 -15q-21 -29 -59 -11q-40 20 -88 20q-73 0 -120.5 -44
t-47.5 -113t47.5 -113.5t120.5 -44.5q46 0 88 20q39 19 59 -10l12 -16q13 -16 7.5 -34.5t-29.5 -30.5q-66 -36 -144 -36z" />
    <glyph glyph-name="Ccaron" unicode="&#x10c;" horiz-adv-x="687" 
d="M355 761q-17 0 -28 15l-75 99q-8 12 -4 20t18 8h36q18 0 29 -11l69 -70l70 70q10 11 28 11h36q14 0 18.5 -8t-4.5 -20l-75 -99q-10 -15 -28 -15h-90zM421 -11q-172 0 -276.5 104.5t-104.5 256.5t104.5 256.5t276.5 104.5q118 0 210 -61q33 -24 10 -59l-16 -23
q-21 -32 -59 -11q-67 38 -145 38q-113 0 -180 -70.5t-67 -174.5t67 -174.5t180 -70.5q78 0 145 38q38 21 59 -11l16 -23q23 -35 -5 -55q-95 -65 -215 -65z" />
    <glyph glyph-name="ccaron" unicode="&#x10d;" horiz-adv-x="538" 
d="M257 576q-18 0 -27 14l-82 115q-8 12 -3.5 20t18.5 8h39q16 0 28 -12l74 -80l74 80q12 12 28 12h39q14 0 18.5 -8t-3.5 -20l-83 -115q-9 -14 -27 -14h-93zM324 -11q-131 0 -210.5 75t-79.5 186q0 115 78.5 192t211.5 77q83 0 156 -43q38 -22 10 -59l-12 -15
q-21 -29 -59 -11q-40 20 -88 20q-73 0 -120.5 -44t-47.5 -113t47.5 -113.5t120.5 -44.5q46 0 88 20q39 19 59 -10l12 -16q13 -16 7.5 -34.5t-29.5 -30.5q-66 -36 -144 -36z" />
    <glyph glyph-name="Dcaron" unicode="&#x10e;" horiz-adv-x="741" 
d="M309 761q-17 0 -28 15l-75 99q-8 12 -4 20t18 8h36q18 0 29 -11l69 -70l70 70q10 11 28 11h36q14 0 18.5 -8t-4.5 -20l-75 -99q-11 -15 -28 -15h-90zM129 0q-42 0 -42 42v616q0 42 42 42h212q160 0 259.5 -101t99.5 -249t-99.5 -249t-259.5 -101h-212zM219 111h114
q106 0 169.5 67.5t63.5 171.5t-63.5 172t-169.5 67h-114v-478z" />
    <glyph glyph-name="dcaron" unicode="&#x10f;" horiz-adv-x="692" 
d="M702 730q39 0 58.5 -27t19.5 -58q0 -109 -105 -156q-16 -7 -25 9l-4 9q-9 15 7 24q39 18 51 46q5 17 5 31q-7 -3 -14 -3q-27 -2 -44.5 15t-18.5 43q-1 29 18 48t52 19zM283 -11q-109 0 -178 76t-69 189t69 189t178 76q113 0 172 -87v249q0 42 43 42h44q42 0 42 -42v-639
q0 -42 -42 -42h-44q-43 0 -43 42v34q-59 -87 -172 -87zM308 96q66 0 107.5 44.5t42.5 113.5q-1 69 -42.5 113.5t-107.5 44.5t-104.5 -45t-38.5 -113t38.5 -113t104.5 -45z" />
    <glyph glyph-name="Dcroat" unicode="&#x110;" horiz-adv-x="751" 
d="M139 0q-42 0 -42 42v260h-48q-32 0 -32 31v29q0 32 32 32h48v264q0 42 42 42h212q160 0 259.5 -101t99.5 -249t-99.5 -249t-259.5 -101h-212zM229 111h114q106 0 169.5 67.5t63.5 171.5t-63.5 172t-169.5 67h-114v-195h123q32 0 32 -32v-29q0 -31 -32 -31h-123v-191z" />
    <glyph glyph-name="dcroat" unicode="&#x111;" horiz-adv-x="653" 
d="M283 -11q-109 0 -178 76t-69 189t69 189t178 76q113 0 172 -87v138h-107q-21 0 -21 22v14q0 22 21 22h107v53q0 42 43 42h44q42 0 42 -42v-53h52q21 0 21 -22v-14q0 -22 -21 -22h-52v-528q0 -42 -42 -42h-44q-43 0 -43 42v34q-59 -87 -172 -87zM308 96q66 0 107.5 44.5
t42.5 113.5q-1 69 -42.5 113.5t-107.5 44.5t-104.5 -45.5t-38.5 -112.5q0 -68 38.5 -113t104.5 -45z" />
    <glyph glyph-name="Emacron" unicode="&#x112;" horiz-adv-x="597" 
d="M189 778q-23 0 -23 23v43q0 23 23 23h251q23 0 23 -23v-43q0 -23 -23 -23h-251zM506 589h-287v-192h244q43 0 43 -42v-20q0 -43 -43 -43h-244v-181h287q42 0 42 -43v-26q0 -42 -42 -42h-377q-42 0 -42 42v616q0 42 42 42h377q42 0 42 -42v-26q0 -43 -42 -43z" />
    <glyph glyph-name="emacron" unicode="&#x113;" horiz-adv-x="604" 
d="M179 607q-23 0 -23 22v43q0 23 23 23h251q23 0 23 -23v-43q0 -22 -23 -22h-251zM324 -11q-132 0 -211 75.5t-79 187.5q0 111 77.5 189t198.5 78q107 0 182 -63.5t82 -180.5q1 -19 -10 -29.5t-32 -10.5h-373q-2 -59 46 -99.5t125 -40.5q67 0 125 37q34 20 59 -8l9 -11
q31 -34 -8 -64q-77 -60 -191 -60zM165 316h285q-25 100 -138 100q-49 0 -89.5 -23.5t-57.5 -76.5z" />
    <glyph glyph-name="Ebreve" unicode="&#x114;" horiz-adv-x="597" 
d="M316 759q-48 0 -89.5 28.5t-55.5 88.5q-5 22 20 26l30 3q19 3 27 -20q16 -51 68 -51t69 52q6 22 25 19l31 -3q11 -1 16 -11.5t0 -27.5q-16 -53 -56.5 -78.5t-84.5 -25.5zM506 589h-287v-192h244q43 0 43 -42v-20q0 -43 -43 -43h-244v-181h287q42 0 42 -43v-26
q0 -42 -42 -42h-377q-42 0 -42 42v616q0 42 42 42h377q42 0 42 -42v-26q0 -43 -42 -43z" />
    <glyph glyph-name="ebreve" unicode="&#x115;" horiz-adv-x="604" 
d="M305 576q-50 0 -93 29.5t-56 95.5q-4 24 20 27l33 3q18 3 26 -20q13 -53 70 -53t70 53q8 22 26 19l32 -3q12 -1 17 -12t0 -29q-16 -58 -57 -84t-88 -26zM324 -11q-132 0 -211 75.5t-79 187.5q0 111 77.5 189t198.5 78q107 0 182 -63.5t82 -180.5q1 -19 -10 -29.5
t-32 -10.5h-373q-2 -59 46 -99.5t125 -40.5q67 0 125 37q34 20 59 -8l9 -11q31 -34 -8 -64q-77 -60 -191 -60zM165 316h285q-25 100 -138 100q-49 0 -89.5 -23.5t-57.5 -76.5z" />
    <glyph glyph-name="Edotaccent" unicode="&#x116;" horiz-adv-x="597" 
d="M316 758q-34 0 -55 20t-21 51q0 32 21 52t55 20q32 0 53.5 -20.5t21.5 -51.5t-21.5 -51t-53.5 -20zM506 589h-287v-192h244q43 0 43 -42v-20q0 -43 -43 -43h-244v-181h287q42 0 42 -43v-26q0 -42 -42 -42h-377q-42 0 -42 42v616q0 42 42 42h377q42 0 42 -42v-26
q0 -43 -42 -43z" />
    <glyph glyph-name="edotaccent" unicode="&#x117;" horiz-adv-x="604" 
d="M304 578q-34 0 -55.5 20t-21.5 52t21.5 53.5t55.5 21.5q33 0 55.5 -21.5t22.5 -53.5q0 -31 -22.5 -51.5t-55.5 -20.5zM324 -11q-132 0 -211 75.5t-79 187.5q0 111 77.5 189t198.5 78q107 0 182 -63.5t82 -180.5q1 -19 -10 -29.5t-32 -10.5h-373q-2 -59 46 -99.5
t125 -40.5q67 0 125 37q34 20 59 -8l9 -11q31 -34 -8 -64q-77 -60 -191 -60zM165 316h285q-25 100 -138 100q-49 0 -89.5 -23.5t-57.5 -76.5z" />
    <glyph glyph-name="Eogonek" unicode="&#x118;" horiz-adv-x="597" 
d="M377 -223q-51 0 -93 29.5t-42 87.5q0 59 51 106h-164q-42 0 -42 42v616q0 42 42 42h377q42 0 42 -42v-26q0 -43 -42 -43h-287v-192h244q43 0 43 -42v-20q0 -43 -43 -43h-244v-181h287q42 0 42 -43v-26q0 -42 -42 -42h-142q-37 -38 -37 -82q0 -26 17 -42t40 -16
q41 0 66 36q15 17 32 8l17 -10q20 -12 11 -31q-18 -40 -53.5 -63t-79.5 -23z" />
    <glyph glyph-name="eogonek" unicode="&#x119;" horiz-adv-x="604" 
d="M416 -223q-52 0 -94 29.5t-42 87.5q0 54 40 95l-8 1q-127 3 -202.5 77.5t-75.5 184.5q0 111 77.5 189t198.5 78q107 0 182 -63.5t82 -180.5q1 -19 -10 -29.5t-32 -10.5h-373q-2 -59 46 -99.5t125 -40.5q67 0 125 37q34 20 59 -8l9 -11q31 -34 -8 -64q-50 -38 -117 -53
q-33 -37 -33 -78q0 -26 17 -42t40 -16q41 0 67 36q13 18 31 8l17 -10q20 -12 11 -31q-18 -40 -53.5 -63t-78.5 -23zM165 316h285q-25 100 -138 100q-49 0 -89.5 -23.5t-57.5 -76.5z" />
    <glyph glyph-name="Ecaron" unicode="&#x11a;" horiz-adv-x="597" 
d="M247 776l-75 99q-8 12 -4 20t18 8h36q18 0 29 -11l69 -70l70 70q10 11 28 11h36q14 0 18.5 -8t-4.5 -20l-75 -99q-11 -15 -28 -15h-90q-17 0 -28 15zM506 589h-287v-192h244q43 0 43 -42v-20q0 -43 -43 -43h-244v-181h287q42 0 42 -43v-26q0 -42 -42 -42h-377
q-42 0 -42 42v616q0 42 42 42h377q42 0 42 -42v-26q0 -43 -42 -43z" />
    <glyph glyph-name="ecaron" unicode="&#x11b;" horiz-adv-x="604" 
d="M257 576q-18 0 -27 14l-82 115q-8 12 -3.5 20t18.5 8h39q16 0 28 -12l74 -80l74 80q12 12 28 12h39q14 0 18.5 -8t-3.5 -20l-83 -115q-9 -14 -27 -14h-93zM324 -11q-132 0 -211 75.5t-79 187.5q0 111 77.5 189t198.5 78q107 0 182 -63.5t82 -180.5q1 -19 -10 -29.5
t-32 -10.5h-373q-2 -59 46 -99.5t125 -40.5q67 0 125 37q34 20 59 -8l9 -11q31 -34 -8 -64q-77 -60 -191 -60zM165 316h285q-25 100 -138 100q-49 0 -89.5 -23.5t-57.5 -76.5z" />
    <glyph glyph-name="Gcircumflex" unicode="&#x11c;" horiz-adv-x="734" 
d="M249 761q-14 0 -18 8.5t4 19.5l75 100q11 14 28 14h90q18 0 28 -14l75 -100q9 -11 4.5 -19.5t-18.5 -8.5h-36q-17 0 -28 12l-70 69l-69 -69q-12 -12 -29 -12h-36zM417 -11q-164 0 -270.5 105t-106.5 255q0 151 107 256.5t264 105.5q126 0 219 -56q34 -22 12 -59l-18 -24
q-20 -32 -58 -14q-70 37 -155 37q-100 0 -168.5 -71.5t-68.5 -174.5q0 -100 65.5 -172t181.5 -72q78 0 141 37v123h-140q-42 0 -42 43v17q0 42 42 42h221q42 0 42 -42v-202q0 -34 -31 -57q-104 -77 -237 -77z" />
    <glyph glyph-name="gcircumflex" unicode="&#x11d;" horiz-adv-x="649" 
d="M167 576q-14 0 -18.5 8t3.5 19l82 115q9 15 27 15h93q18 0 27 -15l83 -115q8 -11 3.5 -19t-18.5 -8h-39q-17 0 -28 12l-74 79l-74 -79q-11 -12 -28 -12h-39zM306 -235q-110 0 -194 49q-34 19 -15 58l10 18q20 36 57 15q62 -36 135 -36q71 0 113.5 39.5t42.5 115.5v52
q-59 -87 -173 -87q-108 0 -177.5 76.5t-69.5 188.5q0 111 69.5 188t177.5 77q113 0 172 -87v36q0 40 42 40h43q42 0 42 -43v-442q0 -88 -39 -147.5t-99 -85t-137 -25.5zM307 95q66 0 107 45t42 114q-1 69 -42 114t-107 45t-105 -46t-39 -113q0 -68 39 -113.5t105 -45.5z" />
    <glyph glyph-name="Gbreve" unicode="&#x11e;" horiz-adv-x="734" 
d="M401 759q-48 0 -89.5 28.5t-55.5 88.5q-5 22 20 26l30 3q19 3 27 -20q16 -51 68 -51t69 52q6 22 25 19l31 -3q11 -1 16 -11.5t0 -27.5q-16 -53 -56.5 -78.5t-84.5 -25.5zM417 -11q-164 0 -270.5 105t-106.5 255q0 151 107 256.5t264 105.5q126 0 219 -56q34 -22 12 -59
l-18 -24q-20 -32 -58 -14q-70 37 -155 37q-100 0 -168.5 -71.5t-68.5 -174.5q0 -100 65.5 -172t181.5 -72q78 0 141 37v123h-140q-42 0 -42 43v17q0 42 42 42h221q42 0 42 -42v-202q0 -34 -31 -57q-104 -77 -237 -77z" />
    <glyph glyph-name="gbreve" unicode="&#x11f;" horiz-adv-x="649" 
d="M309 576q-50 0 -93 29.5t-56 95.5q-4 24 20 27l33 3q18 3 26 -20q13 -53 70 -53t70 53q8 22 26 19l32 -3q12 -1 17 -12t0 -29q-16 -58 -57 -84t-88 -26zM306 -235q-110 0 -194 49q-34 19 -15 58l10 18q20 36 57 15q62 -36 135 -36q71 0 113.5 39.5t42.5 115.5v52
q-59 -87 -173 -87q-108 0 -177.5 76.5t-69.5 188.5q0 111 69.5 188t177.5 77q113 0 172 -87v36q0 40 42 40h43q42 0 42 -43v-442q0 -88 -39 -147.5t-99 -85t-137 -25.5zM307 95q66 0 107 45t42 114q-1 69 -42 114t-107 45t-105 -46t-39 -113q0 -68 39 -113.5t105 -45.5z" />
    <glyph glyph-name="Gdotaccent" unicode="&#x120;" horiz-adv-x="734" 
d="M393 758q-34 0 -55 20t-21 51q0 32 21 52t55 20q32 0 53.5 -20.5t21.5 -51.5t-21.5 -51t-53.5 -20zM417 -11q-164 0 -270.5 105t-106.5 255q0 151 107 256.5t264 105.5q126 0 219 -56q34 -22 12 -59l-18 -24q-20 -32 -58 -14q-70 37 -155 37q-100 0 -168.5 -71.5
t-68.5 -174.5q0 -100 65.5 -172t181.5 -72q78 0 141 37v123h-140q-42 0 -42 43v17q0 42 42 42h221q42 0 42 -42v-202q0 -34 -31 -57q-104 -77 -237 -77z" />
    <glyph glyph-name="gdotaccent" unicode="&#x121;" horiz-adv-x="649" 
d="M308 578q-34 0 -55.5 20t-21.5 52t21.5 53.5t55.5 21.5q33 0 55.5 -21.5t22.5 -53.5q0 -31 -22.5 -51.5t-55.5 -20.5zM306 -235q-110 0 -194 49q-34 19 -15 58l10 18q20 36 57 15q62 -36 135 -36q71 0 113.5 39.5t42.5 115.5v52q-59 -87 -173 -87q-108 0 -177.5 76.5
t-69.5 188.5q0 111 69.5 188t177.5 77q113 0 172 -87v36q0 40 42 40h43q42 0 42 -43v-442q0 -88 -39 -147.5t-99 -85t-137 -25.5zM307 95q66 0 107 45t42 114q-1 69 -42 114t-107 45t-105 -46t-39 -113q0 -68 39 -113.5t105 -45.5z" />
    <glyph glyph-name="Gcommaaccent" unicode="&#x122;" horiz-adv-x="734" 
d="M417 -11q-164 0 -270.5 105t-106.5 255q0 151 107 256.5t264 105.5q126 0 219 -56q34 -22 12 -59l-18 -24q-20 -32 -58 -14q-70 37 -155 37q-100 0 -168.5 -71.5t-68.5 -174.5q0 -100 65.5 -172t181.5 -72q78 0 141 37v123h-140q-42 0 -42 43v17q0 42 42 42h221
q42 0 42 -42v-202q0 -34 -31 -57q-104 -77 -237 -77zM406 -53q39 0 59 -27t20 -58q0 -109 -106 -156q-16 -8 -24 8l-5 9q-7 15 8 24q38 18 50 47q6 14 6 30l-14 -3q-27 -2 -45 15.5t-18 43.5q-1 29 18 48t51 19z" />
    <glyph glyph-name="gcommaaccent" unicode="&#x123;" horiz-adv-x="649" 
d="M303 576q-39 0 -59 27t-20 58q0 109 106 156q16 8 24 -9l5 -9q8 -15 -7 -24q-39 -17 -51 -46q-6 -15 -6 -31q7 3 14 3q27 2 45 -15t19 -43q0 -29 -19 -48t-51 -19zM306 -235q-110 0 -194 49q-34 19 -15 58l10 18q20 36 57 15q62 -36 135 -36q71 0 113.5 39.5t42.5 115.5
v52q-59 -87 -173 -87q-108 0 -177.5 76.5t-69.5 188.5q0 111 69.5 188t177.5 77q113 0 172 -87v36q0 40 42 40h43q42 0 42 -43v-442q0 -88 -39 -147.5t-99 -85t-137 -25.5zM307 95q66 0 107 45t42 114q-1 69 -42 114t-107 45t-105 -46t-39 -113q0 -68 39 -113.5t105 -45.5z
" />
    <glyph glyph-name="Hcircumflex" unicode="&#x124;" horiz-adv-x="730" 
d="M231 761q-14 0 -18 8.5t4 19.5l75 100q11 14 28 14h90q18 0 28 -14l75 -100q9 -11 4.5 -19.5t-18.5 -8.5h-36q-17 0 -28 12l-70 69l-69 -69q-12 -12 -29 -12h-36zM129 0q-42 0 -42 42v616q0 42 42 42h48q42 0 42 -42v-270h292v270q0 42 42 42h48q42 0 42 -42v-616
q0 -42 -42 -42h-48q-42 0 -42 42v238h-292v-238q0 -42 -42 -42h-48z" />
    <glyph glyph-name="hcircumflex" unicode="&#x125;" horiz-adv-x="610" 
d="M-5 746q-14 0 -18 8t4 19l75 108q11 14 27 14h94q16 0 27 -14l76 -108q8 -11 3.5 -19t-18.5 -8h-38q-18 0 -29 12l-68 75l-68 -75q-9 -12 -28 -12h-39zM111 0q-42 0 -42 42v639q0 42 42 42h44q43 0 43 -42v-263q17 48 59.5 74.5t101.5 26.5q91 0 140.5 -61.5t49.5 -167.5
v-248q0 -42 -43 -42h-44q-42 0 -42 42v242q0 63 -24.5 95t-66.5 32q-49 0 -90 -39.5t-41 -123.5v-206q0 -42 -43 -42h-44z" />
    <glyph glyph-name="Hbar" unicode="&#x126;" horiz-adv-x="739" 
d="M133 0q-42 0 -42 42v440h-47q-23 0 -23 23v25q0 23 23 23h47v105q0 42 42 42h48q42 0 42 -42v-105h291v105q0 42 43 42h47q43 0 43 -42v-105h48q23 0 23 -23v-25q0 -23 -23 -23h-48v-440q0 -42 -43 -42h-47q-43 0 -43 42v238h-291v-238q0 -42 -42 -42h-48zM223 388h291
v94h-291v-94z" />
    <glyph glyph-name="hbar" unicode="&#x127;" horiz-adv-x="610" 
d="M111 0q-42 0 -42 42v529h-51q-23 0 -23 23v12q0 22 23 22h51v53q0 42 42 42h44q43 0 43 -42v-53h99q23 0 23 -22v-12q0 -23 -23 -23h-99v-153q17 48 59.5 74.5t101.5 26.5q91 0 140.5 -61.5t49.5 -167.5v-248q0 -42 -43 -42h-44q-42 0 -42 42v242q0 63 -24.5 95t-66.5 32
q-49 0 -90 -39.5t-41 -123.5v-206q0 -42 -43 -42h-44z" />
    <glyph glyph-name="Itilde" unicode="&#x128;" horiz-adv-x="307" 
d="M48 785q-10 -20 -30 -14l-14 4q-21 7 -15 30q15 46 36.5 68t57.5 22q28 0 73.5 -21.5t59.5 -21.5q30 0 45 30q10 19 30 13l14 -4q21 -8 14 -30q-14 -46 -35.5 -68t-57.5 -22q-28 0 -74 21.5t-60 21.5q-29 0 -44 -29zM129 0q-42 0 -42 42v616q0 42 42 42h48q42 0 42 -42
v-616q0 -42 -42 -42h-48z" />
    <glyph glyph-name="itilde" unicode="&#x129;" horiz-adv-x="271" 
d="M-18 596q-21 8 -15 29q15 48 36.5 71t57.5 23q28 0 74 -22t60 -22q29 0 44 30q10 20 30 14l14 -5q23 -7 15 -29q-15 -48 -36.5 -71t-57.5 -23q-28 0 -73.5 22.5t-59.5 22.5q-29 0 -45 -31q-11 -20 -29 -14zM113 0q-42 0 -42 42v423q0 43 42 43h45q42 0 42 -43v-423
q0 -42 -42 -42h-45z" />
    <glyph glyph-name="Imacron" unicode="&#x12a;" horiz-adv-x="307" 
d="M28 778q-23 0 -23 23v43q0 23 23 23h251q23 0 23 -23v-43q0 -23 -23 -23h-251zM129 0q-42 0 -42 42v616q0 42 42 42h48q42 0 42 -42v-616q0 -42 -42 -42h-48z" />
    <glyph glyph-name="imacron" unicode="&#x12b;" horiz-adv-x="271" 
d="M8 607q-23 0 -23 22v43q0 23 23 23h251q23 0 23 -23v-43q0 -22 -23 -22h-251zM113 0q-42 0 -42 42v423q0 43 42 43h45q42 0 42 -43v-423q0 -42 -42 -42h-45z" />
    <glyph glyph-name="Ibreve" unicode="&#x12c;" horiz-adv-x="307" 
d="M154 759q-48 0 -89.5 28.5t-55.5 88.5q-5 22 20 26l30 3q19 3 27 -20q16 -51 68 -51t69 52q6 22 25 19l31 -3q11 -1 16 -11.5t0 -27.5q-16 -53 -56.5 -78.5t-84.5 -25.5zM129 0q-42 0 -42 42v616q0 42 42 42h48q42 0 42 -42v-616q0 -42 -42 -42h-48z" />
    <glyph glyph-name="ibreve" unicode="&#x12d;" horiz-adv-x="271" 
d="M133 576q-50 0 -93 29.5t-55 95.5q-6 24 19 27l33 3q18 3 26 -20q13 -53 70 -53t70 53q8 22 26 19l33 -3q11 -1 16 -12t0 -29q-16 -58 -57 -84t-88 -26zM113 0q-42 0 -42 42v423q0 43 42 43h45q42 0 42 -43v-423q0 -42 -42 -42h-45z" />
    <glyph glyph-name="Iogonek" unicode="&#x12e;" horiz-adv-x="307" 
d="M309 -106q20 -13 10 -31q-18 -40 -53 -63t-79 -23q-51 0 -93 29.5t-42 87.5q0 63 56 110q-21 10 -21 38v616q0 42 42 42h48q42 0 42 -42v-616q0 -42 -42 -42h-3q-37 -38 -37 -82q0 -26 17 -42t40 -16q41 0 66 36q15 17 32 8z" />
    <glyph glyph-name="iogonek" unicode="&#x12f;" horiz-adv-x="271" 
d="M135 583q-36 0 -58.5 21.5t-22.5 53.5t22 53.5t59 21.5t59.5 -21.5t22.5 -53.5t-23 -53.5t-59 -21.5zM152 -223q-51 0 -93 29.5t-42 87.5q0 62 54 108v463q0 43 42 43h45q42 0 42 -43v-423q0 -42 -42 -42h-19q-37 -38 -37 -82q0 -26 17 -42t40 -16q41 0 66 36q15 17 32 8
l17 -10q20 -12 10 -31q-18 -40 -53 -63t-79 -23z" />
    <glyph glyph-name="Idotaccent" unicode="&#x130;" horiz-adv-x="307" 
d="M152 758q-34 0 -55 20t-21 51q0 32 21 52t55 20q32 0 53.5 -20.5t21.5 -51.5t-21.5 -51t-53.5 -20zM129 0q-42 0 -42 42v616q0 42 42 42h48q42 0 42 -42v-616q0 -42 -42 -42h-48z" />
    <glyph glyph-name="dotlessi" unicode="&#x131;" horiz-adv-x="271" 
d="M113 0q-42 0 -42 42v423q0 43 42 43h45q42 0 42 -43v-423q0 -42 -42 -42h-45z" />
    <glyph glyph-name="IJ" unicode="&#x132;" horiz-adv-x="964" 
d="M129 0q-42 0 -42 42v616q0 42 42 42h48q42 0 42 -42v-616q0 -42 -42 -42h-48zM601 -11q-71 0 -125 22t-84.5 58.5t-45 79t-14.5 89.5q0 38 14 73q11 31 48 31h39q45 0 34 -44q-8 -27 -8 -47q0 -61 35 -103.5t105 -42.5q77 0 117 54t40 153v346q0 42 43 42h47q42 0 42 -42
v-346q0 -158 -74.5 -240.5t-212.5 -82.5z" />
    <glyph glyph-name="ij" unicode="&#x133;" horiz-adv-x="578" 
d="M135 583q-36 0 -58.5 21.5t-22.5 53.5t22 53.5t59 21.5t59.5 -21.5t22.5 -53.5t-23 -53.5t-59 -21.5zM444 583q-36 0 -58.5 21.5t-22.5 53.5t22 53.5t59 21.5q36 0 59 -21.5t23 -53.5t-23 -53.5t-59 -21.5zM113 0q-42 0 -42 42v423q0 43 42 43h45q42 0 42 -43v-423
q0 -42 -42 -42h-45zM328 -235q-72 0 -117 35t-45 97q0 6 2 16q3 15 21 15h60q21 0 21 -18v-7q0 -16 14 -26.5t35 -10.5q58 0 58 74v525q0 43 43 43h45q42 0 42 -43v-506q0 -57 -15.5 -97t-43 -60t-57 -28.5t-63.5 -8.5z" />
    <glyph glyph-name="Jcircumflex" unicode="&#x134;" horiz-adv-x="658" 
d="M384 761q-14 0 -18 8.5t4 19.5l75 100q11 14 28 14h90q18 0 28 -14l75 -100q9 -11 4.5 -19.5t-18.5 -8.5h-36q-17 0 -28 12l-70 69l-69 -69q-12 -12 -29 -12h-36zM294 -11q-71 0 -125 22t-84.5 58.5t-45 79t-14.5 89.5q0 38 14 73q11 31 48 31h39q45 0 34 -44
q-8 -27 -8 -47q0 -61 35 -103.5t105 -42.5q77 0 117 54t40 153v346q0 42 43 42h47q42 0 42 -42v-346q0 -158 -74.5 -240.5t-212.5 -82.5z" />
    <glyph glyph-name="jcircumflex" unicode="&#x135;" horiz-adv-x="307" 
d="M30 576q-13 0 -17.5 8t3.5 19l82 115q9 15 27 15h93q18 0 27 -15l83 -115q7 -11 3 -19t-18 -8h-39q-19 0 -28 12l-74 79l-74 -79q-11 -12 -28 -12h-40zM58 -235q-72 0 -117 35t-45 97q0 6 2 16q3 15 21 15h60q21 0 21 -18v-7q0 -16 14.5 -26.5t35.5 -10.5q57 0 57 74
l1 525q0 43 42 43h45q42 0 42 -43v-506q0 -57 -15.5 -97t-43 -60t-57 -28.5t-63.5 -8.5z" />
    <glyph glyph-name="Kcommaaccent" unicode="&#x136;" horiz-adv-x="655" 
d="M539 -11q-126 0 -202 139l-119 189v-275q0 -42 -42 -42h-48q-42 0 -42 42v616q0 42 42 42h48q42 0 42 -42v-288l206 302q17 28 51 28h67q22 0 26.5 -13t-8.5 -33l-216 -308l112 -167q50 -82 101 -81q28 3 37 7q34 11 48 -21l8 -17q21 -41 -21 -59q-39 -19 -90 -19z
M319 -53q39 0 59 -27t20 -58q0 -109 -106 -156q-16 -8 -24 8l-5 9q-7 15 8 24q38 18 50 47q6 14 6 30l-14 -3q-27 -2 -45 15.5t-18 43.5q-1 29 18 48t51 19z" />
    <glyph glyph-name="kcommaaccent" unicode="&#x137;" horiz-adv-x="572" 
d="M452 -11q-63 0 -100 30t-70 85l-85 145v-207q0 -42 -43 -42h-44q-42 0 -42 42v639q0 42 42 42h44q43 0 43 -42v-383l140 184q17 26 51 26h52q27 0 34.5 -15.5t-9.5 -36.5l-146 -182l75 -118q22 -33 38 -46t42 -13q20 0 38 7q24 8 35 -11l19 -39q13 -26 -24 -45
q-40 -20 -90 -20zM266 -53q39 0 59 -27t20 -58q0 -109 -106 -156q-16 -8 -24 8l-5 9q-7 15 8 24q38 18 50 47q6 14 6 30l-14 -3q-27 -2 -45 15.5t-18 43.5q-1 29 18 48t51 19z" />
    <glyph glyph-name="kgreenlandic" unicode="&#x138;" horiz-adv-x="576" 
d="M456 -11q-51 0 -82 23.5t-78 85.5l-99 131v-187q0 -42 -42 -42h-44q-43 0 -43 42v423q0 43 43 43h43q43 0 43 -43v-184l166 201q20 26 52 26h50q27 0 34.5 -16t-10.5 -36l-171 -197l94 -118q20 -25 35 -35t36 -10q14 0 31 9q21 11 31 -9l22 -43q10 -22 -17 -39
q-44 -25 -94 -25z" />
    <glyph glyph-name="Lacute" unicode="&#x139;" horiz-adv-x="554" 
d="M127 761q-13 0 -18 8t1 20l53 97q9 17 28 17h75q14 0 18.5 -8.5t-4.5 -19.5l-76 -100q-11 -14 -28 -14h-49zM129 0q-42 0 -42 42v616q0 42 42 42h48q42 0 42 -42v-547h276q43 0 43 -43v-26q0 -42 -43 -42h-366z" />
    <glyph glyph-name="lacute" unicode="&#x13a;" horiz-adv-x="271" 
d="M103 761q-13 0 -18 8t1 20l53 97q9 17 28 17h75q14 0 18.5 -8.5t-4.5 -19.5l-76 -100q-11 -14 -28 -14h-49zM113 0q-42 0 -42 42v639q0 42 42 42h45q42 0 42 -42v-639q0 -42 -42 -42h-45z" />
    <glyph glyph-name="Lcommaaccent" unicode="&#x13b;" horiz-adv-x="554" 
d="M129 0q-42 0 -42 42v616q0 42 42 42h48q42 0 42 -42v-547h276q43 0 43 -43v-26q0 -42 -43 -42h-366zM308 -53q39 0 59 -27t20 -58q0 -109 -106 -156q-16 -8 -24 8l-5 9q-7 15 8 24q38 18 50 47q6 14 6 30l-14 -3q-27 -2 -45 15.5t-18 43.5q-1 29 18 48t51 19z" />
    <glyph glyph-name="lcommaaccent" unicode="&#x13c;" horiz-adv-x="271" 
d="M113 0q-42 0 -42 42v639q0 42 42 42h45q42 0 42 -42v-639q0 -42 -42 -42h-45zM125 -53q39 0 59 -27t20 -58q0 -109 -106 -156q-16 -8 -24 8l-5 9q-7 15 8 24q38 18 50 47q6 14 6 30l-14 -3q-27 -2 -45 15.5t-18 43.5q-1 29 18 48t51 19z" />
    <glyph glyph-name="Lcaron" unicode="&#x13d;" horiz-adv-x="554" 
d="M428 711q39 0 59 -27t20 -58q0 -109 -106 -156q-16 -7 -25 8l-4 9q-9 16 7 25q39 17 51 46q5 17 5 31q-7 -3 -14 -3q-27 -2 -44.5 15t-18.5 43q-1 29 18 48t52 19zM129 0q-42 0 -42 42v616q0 42 42 42h48q42 0 42 -42v-547h276q43 0 43 -43v-26q0 -42 -43 -42h-366z" />
    <glyph glyph-name="lcaron" unicode="&#x13e;" horiz-adv-x="307" 
d="M113 0q-42 0 -42 42v639q0 42 42 42h45q42 0 42 -42v-639q0 -42 -42 -42h-45zM316 723q39 0 59 -27t20 -58q0 -109 -106 -156q-16 -8 -24 8l-5 9q-7 16 8 25q38 18 50 46q6 15 6 31q-7 -3 -14 -3q-27 -2 -44.5 15t-18.5 43q-1 29 18 48t51 19z" />
    <glyph glyph-name="Ldot" unicode="&#x13f;" horiz-adv-x="566" 
d="M129 0q-42 0 -42 42v616q0 42 42 42h48q42 0 42 -42v-547h276q43 0 43 -43v-26q0 -42 -43 -42h-366zM419 257q-33 0 -54.5 20.5t-21.5 51.5t21.5 51.5t54.5 20.5q32 0 54 -20.5t22 -51.5t-22 -51.5t-54 -20.5z" />
    <glyph glyph-name="ldot" unicode="&#x140;" horiz-adv-x="368" 
d="M113 0q-42 0 -42 42v639q0 42 42 42h45q42 0 42 -42v-639q0 -42 -42 -42h-45zM323 233q-34 0 -55 19.5t-21 51.5q0 31 21.5 51.5t54.5 20.5q32 0 53.5 -20.5t21.5 -51.5t-21.5 -51t-53.5 -20z" />
    <glyph glyph-name="Lslash" unicode="&#x141;" horiz-adv-x="559" 
d="M135 0q-42 0 -42 42v230l-55 -25q-26 -11 -26 18v29q0 20 17 28l64 28v308q0 42 42 42h48q42 0 42 -42v-248l128 56q12 5 19.5 0.5t7.5 -17.5v-30q0 -19 -17 -28l-138 -60v-220h276q43 0 43 -43v-26q0 -42 -43 -42h-366z" />
    <glyph glyph-name="lslash" unicode="&#x142;" horiz-adv-x="325" 
d="M128 0q-42 0 -42 42v212l-46 -20q-12 -6 -19.5 -1t-7.5 18v29q0 19 17 27l56 25v349q0 42 42 42h44q43 0 43 -42v-289l67 30q27 11 27 -17v-30q0 -19 -17 -28l-77 -33v-272q0 -42 -43 -42h-44z" />
    <glyph glyph-name="Nacute" unicode="&#x143;" horiz-adv-x="747" 
d="M340 761q-13 0 -18 8t1 20l53 97q8 17 28 17h75q14 0 18.5 -8.5t-4.5 -19.5l-76 -100q-11 -14 -28 -14h-49zM129 0q-42 0 -42 42v616q0 42 42 42h26q33 0 52 -26l320 -435v419q0 42 42 42h48q43 0 43 -42v-616q0 -42 -43 -42h-25q-32 0 -52 26l-321 438v-422
q0 -42 -42 -42h-48z" />
    <glyph glyph-name="nacute" unicode="&#x144;" horiz-adv-x="611" 
d="M289 576q-13 0 -18 8t1 19l63 114q10 16 28 16h83q14 0 18 -8t-5 -20l-92 -116q-9 -13 -28 -13h-50zM111 0q-42 0 -42 42v423q0 43 42 43h44q43 0 43 -43v-47q17 48 59.5 74.5t101.5 26.5q91 0 140.5 -61.5t49.5 -167.5v-248q0 -42 -43 -42h-44q-42 0 -42 42v242
q0 63 -24.5 95t-66.5 32q-49 0 -90 -39.5t-41 -123.5v-206q0 -42 -43 -42h-44z" />
    <glyph glyph-name="Ncommaaccent" unicode="&#x145;" horiz-adv-x="747" 
d="M129 0q-42 0 -42 42v616q0 42 42 42h26q33 0 52 -26l320 -435v419q0 42 42 42h48q43 0 43 -42v-616q0 -42 -43 -42h-25q-32 0 -52 26l-321 438v-422q0 -42 -42 -42h-48zM369 -53q39 0 59 -27t20 -58q0 -109 -106 -156q-16 -8 -24 8l-5 9q-7 15 8 24q38 18 50 47
q6 14 6 30l-14 -3q-27 -2 -45 15.5t-18 43.5q-1 29 18 48t51 19z" />
    <glyph glyph-name="ncommaaccent" unicode="&#x146;" horiz-adv-x="611" 
d="M111 0q-42 0 -42 42v423q0 43 42 43h44q43 0 43 -43v-47q17 48 59.5 74.5t101.5 26.5q91 0 140.5 -61.5t49.5 -167.5v-248q0 -42 -43 -42h-44q-42 0 -42 42v242q0 63 -24.5 95t-66.5 32q-49 0 -90 -39.5t-41 -123.5v-206q0 -42 -43 -42h-44zM304 -53q39 0 59 -27t20 -58
q0 -109 -106 -156q-16 -8 -24 8l-5 9q-7 15 8 24q38 18 50 47q6 14 6 30l-14 -3q-27 -2 -45 15.5t-18 43.5q-1 29 18 48t51 19z" />
    <glyph glyph-name="Ncaron" unicode="&#x147;" horiz-adv-x="747" 
d="M328 761q-18 0 -28 15l-75 99q-8 12 -4 20t18 8h36q18 0 29 -11l69 -70l70 70q10 11 28 11h36q14 0 18.5 -8t-4.5 -20l-75 -99q-11 -15 -28 -15h-90zM129 0q-42 0 -42 42v616q0 42 42 42h26q33 0 52 -26l320 -435v419q0 42 42 42h48q43 0 43 -42v-616q0 -42 -43 -42h-25
q-32 0 -52 26l-321 438v-422q0 -42 -42 -42h-48z" />
    <glyph glyph-name="ncaron" unicode="&#x148;" horiz-adv-x="611" 
d="M262 576q-18 0 -27 14l-82 115q-8 12 -3.5 20t18.5 8h39q16 0 28 -12l74 -80l74 80q12 12 28 12h39q14 0 18.5 -8t-3.5 -20l-83 -115q-9 -14 -27 -14h-93zM111 0q-42 0 -42 42v423q0 43 42 43h44q43 0 43 -43v-47q17 48 59.5 74.5t101.5 26.5q91 0 140.5 -61.5
t49.5 -167.5v-248q0 -42 -43 -42h-44q-42 0 -42 42v242q0 63 -24.5 95t-66.5 32q-49 0 -90 -39.5t-41 -123.5v-206q0 -42 -43 -42h-44z" />
    <glyph glyph-name="napostrophe" unicode="&#x149;" horiz-adv-x="703" 
d="M88 754q39 0 59 -27t20 -58q0 -109 -106 -156q-16 -8 -24 8l-5 9q-7 16 8 24q37 17 50 47q6 13 6 31q-3 -1 -14 -4q-27 -1 -45 16t-18 43q-1 29 18 48t51 19zM215 0q-43 0 -43 42v423q0 43 43 43h44q42 0 42 -43v-47q18 48 60.5 74.5t101.5 26.5q91 0 140 -61.5
t49 -167.5v-248q0 -42 -42 -42h-44q-43 0 -43 42v242q0 63 -24.5 95t-65.5 32q-49 0 -90.5 -39.5t-41.5 -123.5v-206q0 -42 -42 -42h-44z" />
    <glyph glyph-name="Eng" unicode="&#x14a;" horiz-adv-x="745" 
d="M408 -233q-18 -2 -28 7.5t-10 27.5v44q0 32 34 39q50 9 80.5 45t38.5 94q5 30 -19 60l-285 380v-422q0 -42 -43 -42h-47q-43 0 -43 42v616q0 42 43 42h26q33 0 51 -26l320 -422v406q0 42 42 42h48q43 0 43 -42v-591q0 -133 -64.5 -211.5t-186.5 -88.5z" />
    <glyph glyph-name="eng" unicode="&#x14b;" horiz-adv-x="609" 
d="M318 -232q-21 -3 -32.5 8.5t-11.5 32.5v27q0 19 9.5 28.5t29.5 15.5q50 10 78 51t28 106v247q0 63 -24.5 95t-66.5 32q-49 0 -90 -39.5t-41 -123.5v-206q0 -42 -43 -42h-44q-42 0 -42 42v423q0 43 42 43h44q43 0 43 -43v-47q17 48 59.5 74.5t101.5 26.5q91 0 140.5 -61.5
t49.5 -167.5v-240q0 -123 -59 -197t-171 -85z" />
    <glyph glyph-name="Omacron" unicode="&#x14c;" horiz-adv-x="815" 
d="M283 778q-23 0 -23 23v43q0 23 23 23h251q23 0 23 -23v-43q0 -23 -23 -23h-251zM408 -11q-157 0 -262.5 105.5t-105.5 255.5t105.5 255.5t262.5 105.5q156 0 261.5 -105.5t105.5 -255.5t-105.5 -255.5t-261.5 -105.5zM408 105q99 0 166 70.5t67 174.5t-67 174.5
t-166 70.5q-100 0 -167 -70.5t-67 -174.5t67 -174.5t167 -70.5z" />
    <glyph glyph-name="omacron" unicode="&#x14d;" horiz-adv-x="617" 
d="M183 607q-23 0 -23 22v43q0 23 23 23h251q23 0 23 -23v-43q0 -22 -23 -22h-251zM308 -11q-116 0 -195 77t-79 188q0 110 79 187.5t195 77.5q115 0 195 -77.5t80 -187.5q0 -111 -79.5 -188t-195.5 -77zM308 97q63 0 106.5 45.5t43.5 110.5q0 66 -43.5 112t-106.5 46
t-106.5 -46t-43.5 -112q0 -65 43.5 -110.5t106.5 -45.5z" />
    <glyph glyph-name="Obreve" unicode="&#x14e;" horiz-adv-x="815" 
d="M408 759q-48 0 -89.5 28.5t-55.5 88.5q-5 22 20 26l30 3q19 3 27 -20q16 -51 68 -51t69 52q6 22 25 19l31 -3q11 -1 16 -11.5t0 -27.5q-16 -53 -56.5 -78.5t-84.5 -25.5zM408 -11q-157 0 -262.5 105.5t-105.5 255.5t105.5 255.5t262.5 105.5q156 0 261.5 -105.5
t105.5 -255.5t-105.5 -255.5t-261.5 -105.5zM408 105q99 0 166 70.5t67 174.5t-67 174.5t-166 70.5q-100 0 -167 -70.5t-67 -174.5t67 -174.5t167 -70.5z" />
    <glyph glyph-name="obreve" unicode="&#x14f;" horiz-adv-x="617" 
d="M309 576q-50 0 -93 29.5t-56 95.5q-4 24 20 27l33 3q18 3 26 -20q13 -53 70 -53t70 53q8 22 26 19l32 -3q12 -1 17 -12t0 -29q-16 -58 -57 -84t-88 -26zM308 -11q-116 0 -195 77t-79 188q0 110 79 187.5t195 77.5q115 0 195 -77.5t80 -187.5q0 -111 -79.5 -188
t-195.5 -77zM308 97q63 0 106.5 45.5t43.5 110.5q0 66 -43.5 112t-106.5 46t-106.5 -46t-43.5 -112q0 -65 43.5 -110.5t106.5 -45.5z" />
    <glyph glyph-name="Ohungarumlaut" unicode="&#x150;" horiz-adv-x="815" 
d="M307 761q-13 0 -18 8.5t2 19.5l55 98q9 16 28 16h44q13 0 17.5 -8t-2.5 -20l-60 -98q-9 -16 -28 -16h-38zM473 761q-13 0 -18 8.5t2 19.5l56 98q9 16 27 16h45q13 0 17.5 -8t-2.5 -20l-61 -98q-8 -16 -27 -16h-39zM408 -11q-157 0 -262.5 105.5t-105.5 255.5t105.5 255.5
t262.5 105.5q156 0 261.5 -105.5t105.5 -255.5t-105.5 -255.5t-261.5 -105.5zM408 105q99 0 166 70.5t67 174.5t-67 174.5t-166 70.5q-100 0 -167 -70.5t-67 -174.5t67 -174.5t167 -70.5z" />
    <glyph glyph-name="ohungarumlaut" unicode="&#x151;" horiz-adv-x="617" 
d="M208 576q-14 0 -19 8t2 19l65 114q10 16 27 16h45q13 0 17.5 -8t-2.5 -20l-69 -114q-10 -15 -28 -15h-38zM374 576q-13 0 -18 8t2 19l65 114q8 16 27 16h44q14 0 18.5 -8t-2.5 -20l-70 -114q-8 -15 -27 -15h-39zM308 -11q-116 0 -195 77t-79 188q0 110 79 187.5t195 77.5
q115 0 195 -77.5t80 -187.5q0 -111 -79.5 -188t-195.5 -77zM308 97q63 0 106.5 45.5t43.5 110.5q0 66 -43.5 112t-106.5 46t-106.5 -46t-43.5 -112q0 -65 43.5 -110.5t106.5 -45.5z" />
    <glyph glyph-name="OE" unicode="&#x152;" horiz-adv-x="953" 
d="M397 0q-151 0 -253.5 105t-102.5 255q0 149 101.5 244.5t254.5 95.5h467q42 0 42 -42v-26q0 -43 -42 -43h-276v-188h233q43 0 43 -43v-20q0 -42 -43 -42h-233v-190h276q42 0 42 -42v-22q0 -42 -42 -42h-467zM397 106h62v488h-62q-97 0 -160.5 -65t-63.5 -169
q0 -105 65 -179.5t159 -74.5z" />
    <glyph glyph-name="oe" unicode="&#x153;" horiz-adv-x="955" 
d="M307 -11q-116 0 -194.5 77t-78.5 188q0 110 79 187.5t194 77.5q104 0 180 -66q73 66 178 66t178.5 -66.5t80.5 -183.5q1 -16 -8 -25t-25 -9h-366q-2 -60 41 -100t118 -40q70 0 131 40q27 18 47 -5l19 -24q23 -26 -2 -48q-78 -69 -201 -69q-120 0 -191 66
q-75 -66 -180 -66zM529 316h275q-25 100 -137 100q-107 0 -138 -100zM311 97q69 0 112 48q-23 51 -23 108q0 52 23 108q-45 50 -112 50q-65 0 -108.5 -46t-43.5 -112t43.5 -111t108.5 -45z" />
    <glyph glyph-name="Racute" unicode="&#x154;" horiz-adv-x="694" 
d="M281 761q-13 0 -18 8t1 20l53 97q9 17 28 17h75q14 0 18.5 -8.5t-4.5 -19.5l-76 -100q-11 -14 -28 -14h-49zM557 -11q-48 0 -87.5 20.5t-63 50t-40 68t-23.5 69.5t-9 59h-116v-214q0 -42 -42 -42h-48q-42 0 -42 42v616q0 42 42 42h264q103 0 163 -65.5t60 -161.5
q0 -79 -42 -136t-117 -74q6 -62 38.5 -114t79.5 -52q29 0 48 10q35 14 51 -18l7 -14q18 -39 -13 -57q-46 -29 -110 -29zM218 356h153q50 0 79.5 32.5t29.5 83.5q0 52 -30 84.5t-79 32.5h-153v-233z" />
    <glyph glyph-name="racute" unicode="&#x155;" horiz-adv-x="387" 
d="M101 576q-13 0 -18 8t1 19l63 114q10 16 28 16h83q14 0 18 -8t-5 -20l-92 -116q-9 -13 -28 -13h-50zM111 0q-42 0 -42 42v423q0 43 42 43h42q42 0 42 -43v-70q12 61 51 92.5t83 31.5q10 0 20 -2q26 -2 26 -40v-50q0 -19 -8 -27.5t-23 -6.5q-13 3 -26 3q-21 0 -39.5 -7.5
t-38 -27t-31 -60.5t-11.5 -100v-159q0 -42 -43 -42h-44z" />
    <glyph glyph-name="Rcommaaccent" unicode="&#x156;" horiz-adv-x="694" 
d="M557 -11q-48 0 -87.5 20.5t-63 50t-40 68t-23.5 69.5t-9 59h-116v-214q0 -42 -42 -42h-48q-42 0 -42 42v616q0 42 42 42h264q103 0 163 -65.5t60 -161.5q0 -79 -42 -136t-117 -74q6 -62 38.5 -114t79.5 -52q29 0 48 10q35 14 51 -18l7 -14q18 -39 -13 -57
q-46 -29 -110 -29zM218 356h153q50 0 79.5 32.5t29.5 83.5q0 52 -30 84.5t-79 32.5h-153v-233zM322 -53q39 0 59 -27t20 -58q0 -109 -106 -156q-16 -8 -24 8l-5 9q-7 15 8 24q38 18 50 47q6 14 6 30l-14 -3q-27 -2 -45 15.5t-18 43.5q-1 29 18 48t51 19z" />
    <glyph glyph-name="rcommaaccent" unicode="&#x157;" horiz-adv-x="387" 
d="M111 0q-42 0 -42 42v423q0 43 42 43h42q42 0 42 -43v-70q12 61 51 92.5t83 31.5q10 0 20 -2q26 -2 26 -40v-50q0 -19 -8 -27.5t-23 -6.5q-13 3 -26 3q-21 0 -39.5 -7.5t-38 -27t-31 -60.5t-11.5 -100v-159q0 -42 -43 -42h-44zM123 -53q39 0 59 -27t20 -58
q0 -109 -106 -156q-16 -8 -24 8l-5 9q-7 15 8 24q38 18 50 47q6 14 6 30l-14 -3q-27 -2 -45 15.5t-18 43.5q-1 29 18 48t51 19z" />
    <glyph glyph-name="Rcaron" unicode="&#x158;" horiz-adv-x="694" 
d="M268 761q-17 0 -28 15l-75 99q-8 12 -4 20t18 8h36q18 0 29 -11l69 -70l70 70q10 11 28 11h36q14 0 18.5 -8t-4.5 -20l-75 -99q-10 -15 -28 -15h-90zM557 -11q-48 0 -87.5 20.5t-63 50t-40 68t-23.5 69.5t-9 59h-116v-214q0 -42 -42 -42h-48q-42 0 -42 42v616q0 42 42 42
h264q103 0 163 -65.5t60 -161.5q0 -79 -42 -136t-117 -74q6 -62 38.5 -114t79.5 -52q29 0 48 10q35 14 51 -18l7 -14q18 -39 -13 -57q-46 -29 -110 -29zM218 356h153q50 0 79.5 32.5t29.5 83.5q0 52 -30 84.5t-79 32.5h-153v-233z" />
    <glyph glyph-name="rcaron" unicode="&#x159;" horiz-adv-x="387" 
d="M171 576q-18 0 -27 14l-82 115q-8 12 -3.5 20t18.5 8h39q16 0 28 -12l74 -80l74 80q12 12 28 12h39q14 0 18.5 -8t-3.5 -20l-83 -115q-9 -14 -27 -14h-93zM111 0q-42 0 -42 42v423q0 43 42 43h42q42 0 42 -43v-70q12 61 51 92.5t83 31.5q10 0 20 -2q26 -2 26 -40v-50
q0 -19 -8 -27.5t-23 -6.5q-13 3 -26 3q-21 0 -39.5 -7.5t-38 -27t-31 -60.5t-11.5 -100v-159q0 -42 -43 -42h-44z" />
    <glyph glyph-name="Sacute" unicode="&#x15a;" horiz-adv-x="593" 
d="M273 761q-13 0 -18 8t1 20l53 97q9 17 28 17h75q14 0 18.5 -8.5t-4.5 -19.5l-76 -100q-11 -14 -28 -14h-49zM297 -11q-94 0 -161 39.5t-95 107.5q-8 19 0.5 32.5t29.5 18.5l35 9q19 4 30.5 -2.5t22.5 -25.5q18 -31 53.5 -50t82.5 -19q59 0 94 25t35 65q0 61 -90 94
l-97 34q-82 26 -128.5 77t-46.5 115q0 91 68.5 146.5t168.5 55.5q80 0 137.5 -34.5t84.5 -95.5q9 -19 1.5 -33.5t-28.5 -19.5l-32 -9q-34 -11 -54 25q-29 56 -108 56q-45 0 -76 -22.5t-31 -61.5q0 -56 81 -86l98 -36q91 -29 135.5 -81.5t45.5 -116.5q0 -96 -71 -151.5
t-185 -55.5z" />
    <glyph glyph-name="sacute" unicode="&#x15b;" horiz-adv-x="459" 
d="M199 576q-13 0 -18 8t1 19l63 114q10 16 28 16h83q14 0 18 -8t-5 -20l-92 -116q-9 -13 -28 -13h-50zM231 -11q-65 0 -115.5 25.5t-75.5 74.5q-9 20 -1 34t29 19l26 6q17 4 27.5 -2t25.5 -22q29 -36 84 -36q33 0 54 16t21 40q0 33 -54 53l-65 23q-135 42 -135 143
q0 68 50.5 112t128.5 44q111 0 158 -81q12 -20 4.5 -34.5t-29.5 -19.5l-23 -6q-28 -7 -53 20q-19 23 -55 23q-28 0 -45 -15t-17 -38q0 -33 52 -50l68 -24q132 -42 134 -149q0 -73 -56 -114.5t-138 -41.5z" />
    <glyph glyph-name="Scircumflex" unicode="&#x15c;" horiz-adv-x="593" 
d="M161 761q-14 0 -18 8.5t4 19.5l75 100q11 14 28 14h90q18 0 28 -14l75 -100q9 -11 4.5 -19.5t-18.5 -8.5h-36q-17 0 -28 12l-70 69l-69 -69q-12 -12 -29 -12h-36zM297 -11q-94 0 -161 39.5t-95 107.5q-8 19 0.5 32.5t29.5 18.5l35 9q19 4 30.5 -2.5t22.5 -25.5
q18 -31 53.5 -50t82.5 -19q59 0 94 25t35 65q0 61 -90 94l-97 34q-82 26 -128.5 77t-46.5 115q0 91 68.5 146.5t168.5 55.5q80 0 137.5 -34.5t84.5 -95.5q9 -19 1.5 -33.5t-28.5 -19.5l-32 -9q-34 -11 -54 25q-29 56 -108 56q-45 0 -76 -22.5t-31 -61.5q0 -56 81 -86l98 -36
q91 -29 135.5 -81.5t45.5 -116.5q0 -96 -71 -151.5t-185 -55.5z" />
    <glyph glyph-name="scircumflex" unicode="&#x15d;" horiz-adv-x="459" 
d="M86 576q-14 0 -18.5 8t3.5 19l82 115q9 15 27 15h93q18 0 27 -15l83 -115q8 -11 3.5 -19t-18.5 -8h-39q-17 0 -28 12l-74 79l-74 -79q-11 -12 -28 -12h-39zM231 -11q-65 0 -115.5 25.5t-75.5 74.5q-9 20 -1 34t29 19l26 6q17 4 27.5 -2t25.5 -22q29 -36 84 -36
q33 0 54 16t21 40q0 33 -54 53l-65 23q-135 42 -135 143q0 68 50.5 112t128.5 44q111 0 158 -81q12 -20 4.5 -34.5t-29.5 -19.5l-23 -6q-28 -7 -53 20q-19 23 -55 23q-28 0 -45 -15t-17 -38q0 -33 52 -50l68 -24q132 -42 134 -149q0 -73 -56 -114.5t-138 -41.5z" />
    <glyph glyph-name="Scedilla" unicode="&#x15e;" horiz-adv-x="593" 
d="M553 196q0 -84 -55.5 -138t-148.5 -65q44 -45 44 -99q0 -58 -42 -87.5t-94 -29.5q-43 0 -78.5 23t-53.5 63q-9 19 11 31l17 10q17 10 31 -8q26 -36 66 -36q23 0 40.5 16t17.5 42q0 35 -27 71q-88 4 -150.5 43.5t-89.5 103.5q-8 19 0.5 32.5t29.5 18.5l35 9
q19 4 30.5 -2.5t22.5 -25.5q18 -31 53.5 -50t82.5 -19q59 0 94 25t35 65q0 61 -90 94l-97 34q-82 26 -128.5 77t-46.5 115q0 91 68.5 146.5t168.5 55.5q80 0 137.5 -34.5t84.5 -95.5q9 -19 1.5 -33.5t-28.5 -19.5l-32 -9q-34 -11 -54 25q-29 56 -108 56q-45 0 -76 -22.5
t-31 -61.5q0 -56 81 -86l98 -36q91 -29 135.5 -81.5t45.5 -116.5z" />
    <glyph glyph-name="scedilla" unicode="&#x15f;" horiz-adv-x="459" 
d="M425 145q0 -65 -44.5 -105t-114.5 -49q43 -43 43 -97q0 -58 -42 -87.5t-93 -29.5q-44 0 -79.5 23.5t-53.5 63.5q-9 19 11 30l17 10q17 9 32 -8q25 -36 66 -36q23 0 40 16t17 42q0 37 -28 73q-114 13 -156 98q-9 20 -1 34t29 19l26 6q17 4 27.5 -2t25.5 -22q29 -36 84 -36
q33 0 54 16t21 40q0 33 -54 53l-65 23q-135 42 -135 143q0 68 50.5 112t128.5 44q111 0 158 -81q12 -20 4.5 -34.5t-29.5 -19.5l-23 -6q-28 -7 -53 20q-19 23 -55 23q-28 0 -45 -15t-17 -38q0 -33 52 -50l68 -24q132 -42 134 -149z" />
    <glyph glyph-name="Scaron" unicode="&#x160;" horiz-adv-x="593" 
d="M250 761q-18 0 -28 15l-75 99q-8 12 -4 20t18 8h36q18 0 29 -11l69 -70l70 70q10 11 28 11h36q14 0 18.5 -8t-4.5 -20l-75 -99q-10 -15 -28 -15h-90zM297 -11q-94 0 -161 39.5t-95 107.5q-8 19 0.5 32.5t29.5 18.5l35 9q19 4 30.5 -2.5t22.5 -25.5q18 -31 53.5 -50
t82.5 -19q59 0 94 25t35 65q0 61 -90 94l-97 34q-82 26 -128.5 77t-46.5 115q0 91 68.5 146.5t168.5 55.5q80 0 137.5 -34.5t84.5 -95.5q9 -19 1.5 -33.5t-28.5 -19.5l-32 -9q-34 -11 -54 25q-29 56 -108 56q-45 0 -76 -22.5t-31 -61.5q0 -56 81 -86l98 -36
q91 -29 135.5 -81.5t45.5 -116.5q0 -96 -71 -151.5t-185 -55.5z" />
    <glyph glyph-name="scaron" unicode="&#x161;" horiz-adv-x="459" 
d="M195 576q-18 0 -27 14l-82 115q-8 12 -3.5 20t18.5 8h39q16 0 28 -12l74 -80l74 80q12 12 28 12h39q14 0 18.5 -8t-3.5 -20l-83 -115q-9 -14 -27 -14h-93zM231 -11q-65 0 -115.5 25.5t-75.5 74.5q-9 20 -1 34t29 19l26 6q17 4 27.5 -2t25.5 -22q29 -36 84 -36q33 0 54 16
t21 40q0 33 -54 53l-65 23q-135 42 -135 143q0 68 50.5 112t128.5 44q111 0 158 -81q12 -20 4.5 -34.5t-29.5 -19.5l-23 -6q-28 -7 -53 20q-19 23 -55 23q-28 0 -45 -15t-17 -38q0 -33 52 -50l68 -24q132 -42 134 -149q0 -73 -56 -114.5t-138 -41.5z" />
    <glyph glyph-name="uni0162" unicode="&#x162;" horiz-adv-x="608" 
d="M547 700q42 0 42 -42v-26q0 -43 -42 -43h-178v-547q0 -42 -42 -42h-47q-42 0 -42 42v547h-177q-42 0 -42 43v26q0 42 42 42h486zM299 -53q39 0 59 -27t20 -58q0 -109 -106 -156q-16 -8 -24 8l-5 9q-7 15 8 24q38 18 50 47q6 14 6 30l-14 -3q-27 -2 -45 15.5t-18 43.5
q-1 29 18 48t51 19z" />
    <glyph glyph-name="uni0163" unicode="&#x163;" horiz-adv-x="440" 
d="M267 -11q-72 0 -120.5 41t-48.5 135v245h-56q-23 0 -23 23v52q0 23 23 23h62l18 109q4 30 35 30h35q33 0 33 -33v-106h126q23 0 23 -23v-52q0 -23 -23 -23h-126v-250q0 -33 14 -48.5t36 -15.5t36.5 13.5t14.5 36.5q0 11 -1 18q-3 25 19 25h53q22 0 26 -18q5 -21 5 -38
q0 -69 -44 -106.5t-117 -37.5zM260 -53q39 0 59 -27t20 -58q0 -109 -106 -156q-16 -8 -24 8l-5 9q-7 15 8 24q38 18 50 47q6 14 6 30l-14 -3q-27 -2 -45 15.5t-18 43.5q-1 29 18 48t51 19z" />
    <glyph glyph-name="Tcaron" unicode="&#x164;" horiz-adv-x="608" 
d="M231 776l-75 99q-8 12 -4 20t18 8h36q18 0 29 -11l69 -70l70 70q10 11 28 11h36q14 0 18.5 -8t-4.5 -20l-75 -99q-11 -15 -28 -15h-90q-17 0 -28 15zM547 700q42 0 42 -42v-26q0 -43 -42 -43h-178v-547q0 -42 -42 -42h-47q-42 0 -42 42v547h-177q-42 0 -42 43v26
q0 42 42 42h486z" />
    <glyph glyph-name="tcaron" unicode="&#x165;" horiz-adv-x="440" 
d="M398 801q39 0 58.5 -27t19.5 -58q0 -109 -105 -156q-16 -7 -25 8l-4 9q-9 16 7 24q39 18 51 47q5 15 5 31q-6 -2 -14 -4q-27 -1 -44.5 16t-18.5 43q-1 29 18 48t52 19zM267 -11q-72 0 -120.5 41t-48.5 135v245h-56q-23 0 -23 23v52q0 23 23 23h62l18 109q4 30 35 30h35
q33 0 33 -33v-106h126q23 0 23 -23v-52q0 -23 -23 -23h-126v-250q0 -33 14 -48.5t36 -15.5t36.5 13.5t14.5 36.5q0 11 -1 18q-3 25 19 25h53q22 0 26 -18q5 -21 5 -38q0 -69 -44 -106.5t-117 -37.5z" />
    <glyph glyph-name="Tbar" unicode="&#x166;" horiz-adv-x="622" 
d="M287 0q-42 0 -42 42v290h-117q-23 0 -23 23v28q0 23 23 23h117v183h-177q-43 0 -43 43v26q0 42 43 42h486q42 0 42 -42v-26q0 -43 -42 -43h-178v-183h119q23 0 23 -23v-28q0 -23 -23 -23h-119v-290q0 -42 -43 -42h-46z" />
    <glyph glyph-name="tbar" unicode="&#x167;" horiz-adv-x="441" 
d="M423 171q5 -21 5 -38q0 -69 -44 -106.5t-117 -37.5q-72 0 -120.5 41t-48.5 135v83h-47q-21 0 -21 21v20q0 21 21 21h47v100h-56q-23 0 -23 23v52q0 23 23 23h62l18 109q4 30 35 30h35q33 0 33 -33v-106h126q23 0 23 -23v-52q0 -23 -23 -23h-126v-100h91q21 0 21 -21v-20
q0 -21 -21 -21h-91v-88q0 -33 14 -48.5t36 -15.5t36.5 13.5t14.5 36.5q0 11 -1 18q-3 25 19 25h53q22 0 26 -18z" />
    <glyph glyph-name="Utilde" unicode="&#x168;" horiz-adv-x="724" 
d="M256 788q-10 -20 -30 -14l-14 4q-21 8 -15 30q15 46 36.5 68t57.5 22q28 0 73.5 -21.5t59.5 -21.5q30 0 45 30q10 19 30 13l14 -4q21 -8 14 -30q-14 -46 -35.5 -68t-57.5 -22q-28 0 -74 21.5t-60 21.5q-29 0 -44 -29zM362 -11q-121 0 -202.5 72.5t-81.5 201.5v395
q0 42 42 42h48q42 0 42 -42v-395q0 -75 43.5 -116.5t108.5 -41.5t108.5 41.5t43.5 116.5v395q0 42 42 42h48q42 0 42 -42v-395q0 -129 -81.5 -201.5t-202.5 -72.5z" />
    <glyph glyph-name="utilde" unicode="&#x169;" horiz-adv-x="610" 
d="M195 605q-11 -20 -30 -14l-14 5q-21 8 -15 29q15 48 36.5 71t57.5 23q28 0 73.5 -22t59.5 -22q30 0 45 30q10 20 30 14l14 -5q22 -6 15 -29q-15 -48 -36.5 -71t-57.5 -23q-28 0 -73.5 22.5t-59.5 22.5q-30 0 -45 -31zM251 -11q-91 0 -140.5 61.5t-49.5 167.5v247
q0 43 43 43h44q42 0 42 -43v-241q0 -63 24.5 -95t66.5 -32q49 0 90 39.5t41 122.5v206q0 43 43 43h44q42 0 42 -43v-423q0 -42 -42 -42h-44q-43 0 -43 42v48q-17 -48 -59.5 -74.5t-101.5 -26.5z" />
    <glyph glyph-name="Umacron" unicode="&#x16a;" horiz-adv-x="724" 
d="M237 778q-23 0 -23 23v43q0 23 23 23h251q23 0 23 -23v-43q0 -23 -23 -23h-251zM362 -11q-121 0 -202.5 72.5t-81.5 201.5v395q0 42 42 42h48q42 0 42 -42v-395q0 -75 43.5 -116.5t108.5 -41.5t108.5 41.5t43.5 116.5v395q0 42 42 42h48q42 0 42 -42v-395
q0 -129 -81.5 -201.5t-202.5 -72.5z" />
    <glyph glyph-name="umacron" unicode="&#x16b;" horiz-adv-x="610" 
d="M176 607q-23 0 -23 22v43q0 23 23 23h251q23 0 23 -23v-43q0 -22 -23 -22h-251zM251 -11q-91 0 -140.5 61.5t-49.5 167.5v247q0 43 43 43h44q42 0 42 -43v-241q0 -63 24.5 -95t66.5 -32q49 0 90 39.5t41 122.5v206q0 43 43 43h44q42 0 42 -43v-423q0 -42 -42 -42h-44
q-43 0 -43 42v48q-17 -48 -59.5 -74.5t-101.5 -26.5z" />
    <glyph glyph-name="Ubreve" unicode="&#x16c;" horiz-adv-x="724" 
d="M363 759q-48 0 -89.5 28.5t-55.5 88.5q-5 22 20 26l30 3q19 3 27 -20q16 -51 68 -51t69 52q6 22 25 19l31 -3q11 -1 16 -11.5t0 -27.5q-16 -53 -56.5 -78.5t-84.5 -25.5zM362 -11q-121 0 -202.5 72.5t-81.5 201.5v395q0 42 42 42h48q42 0 42 -42v-395q0 -75 43.5 -116.5
t108.5 -41.5t108.5 41.5t43.5 116.5v395q0 42 42 42h48q42 0 42 -42v-395q0 -129 -81.5 -201.5t-202.5 -72.5z" />
    <glyph glyph-name="ubreve" unicode="&#x16d;" horiz-adv-x="610" 
d="M302 576q-50 0 -93 29.5t-56 95.5q-4 24 20 27l33 3q18 3 26 -20q13 -53 70 -53t70 53q8 22 26 19l32 -3q12 -1 17 -12t0 -29q-16 -58 -57 -84t-88 -26zM251 -11q-91 0 -140.5 61.5t-49.5 167.5v247q0 43 43 43h44q42 0 42 -43v-241q0 -63 24.5 -95t66.5 -32
q49 0 90 39.5t41 122.5v206q0 43 43 43h44q42 0 42 -43v-423q0 -42 -42 -42h-44q-43 0 -43 42v48q-17 -48 -59.5 -74.5t-101.5 -26.5z" />
    <glyph glyph-name="Uring" unicode="&#x16e;" horiz-adv-x="724" 
d="M362 746q-49 0 -82 29t-33 76q0 48 33 77t82 29q50 0 83.5 -29t33.5 -77q0 -47 -33.5 -76t-83.5 -29zM362 798q24 0 39.5 15t15.5 38q0 22 -15.5 36.5t-39.5 14.5q-23 0 -39 -14.5t-16 -36.5t16 -37.5t39 -15.5zM362 -11q-121 0 -202.5 72.5t-81.5 201.5v395q0 42 42 42
h48q42 0 42 -42v-395q0 -75 43.5 -116.5t108.5 -41.5t108.5 41.5t43.5 116.5v395q0 42 42 42h48q42 0 42 -42v-395q0 -129 -81.5 -201.5t-202.5 -72.5z" />
    <glyph glyph-name="uring" unicode="&#x16f;" horiz-adv-x="610" 
d="M301 576q-49 0 -82 31t-33 78q0 48 33 79.5t82 31.5t83 -31.5t34 -79.5q0 -47 -34 -78t-83 -31zM301 632q24 0 39.5 15t15.5 38t-15.5 38t-39.5 15q-23 0 -39 -15.5t-16 -37.5t16 -37.5t39 -15.5zM251 -11q-91 0 -140.5 61.5t-49.5 167.5v247q0 43 43 43h44q42 0 42 -43
v-241q0 -63 24.5 -95t66.5 -32q49 0 90 39.5t41 122.5v206q0 43 43 43h44q42 0 42 -43v-423q0 -42 -42 -42h-44q-43 0 -43 42v48q-17 -48 -59.5 -74.5t-101.5 -26.5z" />
    <glyph glyph-name="Uhungarumlaut" unicode="&#x170;" horiz-adv-x="724" 
d="M243 761q-13 0 -18 8.5t2 19.5l55 98q9 16 28 16h44q13 0 17.5 -8t-2.5 -20l-60 -98q-9 -16 -28 -16h-38zM409 761q-13 0 -18 8.5t2 19.5l56 98q9 16 27 16h45q13 0 17.5 -8t-2.5 -20l-61 -98q-8 -16 -27 -16h-39zM362 -11q-121 0 -202.5 72.5t-81.5 201.5v395
q0 42 42 42h48q42 0 42 -42v-395q0 -75 43.5 -116.5t108.5 -41.5t108.5 41.5t43.5 116.5v395q0 42 42 42h48q42 0 42 -42v-395q0 -129 -81.5 -201.5t-202.5 -72.5z" />
    <glyph glyph-name="uhungarumlaut" unicode="&#x171;" horiz-adv-x="610" 
d="M184 576q-14 0 -19 8t2 19l65 114q10 16 27 16h45q13 0 17.5 -8t-2.5 -20l-69 -114q-10 -15 -28 -15h-38zM350 576q-13 0 -18 8t2 19l65 114q8 16 27 16h44q14 0 18.5 -8t-2.5 -20l-70 -114q-8 -15 -27 -15h-39zM251 -11q-91 0 -140.5 61.5t-49.5 167.5v247q0 43 43 43
h44q42 0 42 -43v-241q0 -63 24.5 -95t66.5 -32q49 0 90 39.5t41 122.5v206q0 43 43 43h44q42 0 42 -43v-423q0 -42 -42 -42h-44q-43 0 -43 42v48q-17 -48 -59.5 -74.5t-101.5 -26.5z" />
    <glyph glyph-name="Uogonek" unicode="&#x172;" horiz-adv-x="724" 
d="M604 700q42 0 42 -42v-395q0 -122 -73.5 -193.5t-185.5 -79.5q-27 -37 -27 -72q0 -26 17 -42t40 -16q41 0 66 36q15 17 32 8l17 -10q20 -12 11 -31q-18 -40 -53.5 -63t-78.5 -23q-52 0 -94 29.5t-42 87.5q0 54 43 98q-105 13 -172.5 83.5t-67.5 187.5v395q0 42 42 42h48
q42 0 42 -42v-395q0 -75 43.5 -116.5t108.5 -41.5t108.5 41.5t43.5 116.5v395q0 42 42 42h48z" />
    <glyph glyph-name="uogonek" unicode="&#x173;" horiz-adv-x="610" 
d="M615 -106q20 -13 10 -31q-18 -40 -53 -63t-79 -23q-51 0 -93.5 29.5t-42.5 87.5q0 59 55 109v87q-17 -48 -59.5 -74.5t-101.5 -26.5q-91 0 -140.5 61.5t-49.5 167.5v247q0 43 43 43h44q42 0 42 -43v-241q0 -63 24.5 -95t66.5 -32q49 0 90 39.5t41 122.5v206q0 43 43 43
h44q42 0 42 -43v-423q0 -42 -42 -42h-20q-37 -40 -37 -82q0 -26 17.5 -42t40.5 -16q41 0 66 36q15 17 32 8z" />
    <glyph glyph-name="Wcircumflex" unicode="&#x174;" horiz-adv-x="992" 
d="M362 761q-14 0 -18 8.5t4 19.5l75 100q11 14 28 14h90q18 0 28 -14l75 -100q9 -11 4.5 -19.5t-18.5 -8.5h-36q-17 0 -28 12l-70 69l-69 -69q-12 -12 -29 -12h-36zM280 0q-36 0 -47 35l-193 617q-7 22 2.5 35t32.5 13h47q36 0 47 -35l136 -443l130 420q11 35 47 35h29
q36 0 47 -35l129 -420l136 443q11 35 47 35h47q23 0 32.5 -13t2.5 -35l-193 -617q-11 -35 -47 -35h-35q-36 0 -47 35l-134 437l-134 -437q-11 -35 -47 -35h-35z" />
    <glyph glyph-name="wcircumflex" unicode="&#x175;" horiz-adv-x="824" 
d="M271 576q-14 0 -18.5 8t3.5 19l82 115q9 15 27 15h93q18 0 27 -15l83 -115q8 -11 3.5 -19t-18.5 -8h-39q-17 0 -28 12l-74 79l-74 -79q-11 -12 -28 -12h-39zM237 0q-36 0 -48 34l-153 425q-8 23 1.5 36t33.5 13h49q37 0 47 -35l99 -300l89 285q12 35 48 35h18
q36 0 47 -35l90 -285l98 300q12 35 48 35h49q23 0 32.5 -13.5t1.5 -35.5l-152 -425q-11 -34 -48 -34h-39q-37 0 -47 35l-89 280l-89 -280q-10 -35 -48 -35h-38z" />
    <glyph glyph-name="Ycircumflex" unicode="&#x176;" horiz-adv-x="705" 
d="M218 761q-14 0 -18 8.5t4 19.5l75 100q11 14 28 14h90q18 0 28 -14l75 -100q9 -11 4.5 -19.5t-18.5 -8.5h-36q-17 0 -28 12l-70 69l-69 -69q-12 -12 -29 -12h-36zM329 0q-42 0 -42 42v244l-244 363q-14 22 -6 36.5t34 14.5h61q34 0 51 -28l169 -273l171 273q17 28 51 28
h61q26 0 34 -14.5t-7 -36.5l-243 -362v-245q0 -42 -42 -42h-48z" />
    <glyph glyph-name="ycircumflex" unicode="&#x177;" horiz-adv-x="575" 
d="M148 576q-14 0 -18.5 8t3.5 19l82 115q9 15 27 15h93q18 0 27 -15l83 -115q8 -11 3.5 -19t-18.5 -8h-39q-17 0 -28 12l-74 79l-74 -79q-11 -12 -28 -12h-39zM177 -224q-24 0 -33 13.5t0 35.5l81 202l-191 431q-10 22 -0.5 36t33.5 14h54q36 0 48 -34l122 -309l117 309
q13 34 50 34h53q23 0 32.5 -14t-0.5 -36l-280 -650q-14 -32 -49 -32h-37z" />
    <glyph glyph-name="Ydieresis" unicode="&#x178;" horiz-adv-x="705" 
d="M237 760q-32 0 -52 19t-20 49q0 29 20.5 48.5t51.5 19.5t51.5 -19.5t20.5 -48.5q0 -30 -20.5 -49t-51.5 -19zM466 760q-31 0 -51 19t-20 49q0 29 20 48.5t51 19.5t52 -19.5t21 -48.5q0 -30 -20.5 -49t-52.5 -19zM329 0q-42 0 -42 42v244l-244 363q-14 22 -6 36.5t34 14.5
h61q34 0 51 -28l169 -273l171 273q17 28 51 28h61q26 0 34 -14.5t-7 -36.5l-243 -362v-245q0 -42 -42 -42h-48z" />
    <glyph glyph-name="Zacute" unicode="&#x179;" horiz-adv-x="656" 
d="M285 761q-13 0 -18 8t1 20l53 97q9 17 28 17h75q14 0 18.5 -8.5t-4.5 -19.5l-76 -100q-11 -14 -28 -14h-49zM69 0q-42 0 -42 42v19q0 30 19 52l379 476h-328q-42 0 -42 43v26q0 42 42 42h463q42 0 42 -42v-19q0 -31 -18 -52l-384 -476h384q42 0 42 -43v-26q0 -42 -42 -42
h-515z" />
    <glyph glyph-name="zacute" unicode="&#x17a;" horiz-adv-x="572" 
d="M243 576q-13 0 -18 8t1 19l63 114q10 16 28 16h83q14 0 18 -8t-5 -20l-92 -116q-9 -13 -28 -13h-50zM73 0q-43 0 -43 42v4q0 30 21 52l288 308h-249q-42 0 -42 43v16q0 43 42 43h390q42 0 42 -43v-4q0 -30 -21 -52l-287 -308h285q42 0 42 -42v-17q0 -42 -43 -42h-425z
" />
    <glyph glyph-name="Zdotaccent" unicode="&#x17b;" horiz-adv-x="656" 
d="M327 758q-34 0 -55 20t-21 51q0 32 21 52t55 20q32 0 53.5 -20.5t21.5 -51.5t-21.5 -51t-53.5 -20zM69 0q-42 0 -42 42v19q0 30 19 52l379 476h-328q-42 0 -42 43v26q0 42 42 42h463q42 0 42 -42v-19q0 -31 -18 -52l-384 -476h384q42 0 42 -43v-26q0 -42 -42 -42h-515z
" />
    <glyph glyph-name="zdotaccent" unicode="&#x17c;" horiz-adv-x="572" 
d="M286 578q-34 0 -55.5 20t-21.5 52t21.5 53.5t55.5 21.5q33 0 55.5 -21.5t22.5 -53.5q0 -31 -22.5 -51.5t-55.5 -20.5zM73 0q-43 0 -43 42v4q0 30 21 52l288 308h-249q-42 0 -42 43v16q0 43 42 43h390q42 0 42 -43v-4q0 -30 -21 -52l-287 -308h285q42 0 42 -42v-17
q0 -42 -43 -42h-425z" />
    <glyph glyph-name="Zcaron" unicode="&#x17d;" horiz-adv-x="656" 
d="M282 761q-18 0 -28 15l-75 99q-8 12 -4 20t18 8h36q18 0 29 -11l69 -70l70 70q10 11 28 11h36q14 0 18.5 -8t-4.5 -20l-75 -99q-10 -15 -28 -15h-90zM69 0q-42 0 -42 42v19q0 30 19 52l379 476h-328q-42 0 -42 43v26q0 42 42 42h463q42 0 42 -42v-19q0 -31 -18 -52
l-384 -476h384q42 0 42 -43v-26q0 -42 -42 -42h-515z" />
    <glyph glyph-name="zcaron" unicode="&#x17e;" horiz-adv-x="572" 
d="M239 576q-18 0 -27 14l-82 115q-8 12 -3.5 20t18.5 8h39q16 0 28 -12l74 -80l74 80q12 12 28 12h39q14 0 18.5 -8t-3.5 -20l-83 -115q-9 -14 -27 -14h-93zM73 0q-43 0 -43 42v4q0 30 21 52l288 308h-249q-42 0 -42 43v16q0 43 42 43h390q42 0 42 -43v-4q0 -30 -21 -52
l-287 -308h285q42 0 42 -42v-17q0 -42 -43 -42h-425z" />
    <glyph glyph-name="longs" unicode="&#x17f;" horiz-adv-x="388" 
d="M145 0q-43 0 -43 42v368h-51q-23 0 -23 23v48q0 23 23 23h51v35q0 57 16 97t43.5 60t56.5 28.5t63 8.5q72 0 117 -35t45 -97q0 -6 -2 -16q-3 -15 -21 -15h-60q-21 0 -21 18v7q0 16 -14.5 26.5t-35.5 10.5q-57 0 -57 -74v-516q0 -42 -42 -42h-45z" />
    <glyph glyph-name="florin" unicode="&#x192;" horiz-adv-x="427" 
d="M77 -235q-50 0 -87 17q-18 10 -10 31l18 46q8 19 29 13q17 -6 34 -6q63 0 63 81v366h-52q-23 0 -23 22v50q0 23 23 23h52v117q0 105 50.5 149t125.5 44q48 0 86 -15q19 -9 11 -30l-19 -47q-8 -19 -29 -14q-12 5 -31 5q-65 0 -65 -81v-128h99q23 0 23 -23v-50
q0 -22 -23 -22h-99v-355q0 -105 -50.5 -149t-125.5 -44z" />
    <glyph glyph-name="Aringacute" unicode="&#x1fa;" horiz-adv-x="693" 
d="M346 723q-44 0 -74.5 27.5t-30.5 70.5q0 33 19 57.5t49 34.5l40 69q7 13 22 13h67q12 0 15 -6.5t-4 -15.5l-51 -66q54 -25 54 -86q0 -43 -30.5 -70.5t-75.5 -27.5zM346 775q23 0 38 12t15 34t-15 34t-38 12t-38 -12t-15 -34t15 -34t38 -12zM60 0q-23 0 -32 13.5t-1 35.5
l237 617q13 34 49 34h65q36 0 49 -34l240 -617q8 -22 -1 -35.5t-32 -13.5h-48q-37 0 -50 34l-39 103h-302l-39 -103q-12 -34 -48 -34h-48zM226 242h240l-120 325z" />
    <glyph glyph-name="aringacute" unicode="&#x1fb;" horiz-adv-x="652" 
d="M299 559q-44 0 -74.5 27.5t-30.5 70.5q0 34 19 58.5t49 34.5l40 69q8 12 23 12h66q12 0 15.5 -6.5t-4.5 -15.5l-51 -65q54 -27 54 -87q0 -43 -30.5 -70.5t-75.5 -27.5zM299 611q23 0 38 12.5t15 33.5q0 22 -15 34.5t-38 12.5t-38 -12.5t-15 -34.5q0 -21 15 -33.5
t38 -12.5zM283 -11q-109 0 -178.5 76t-69.5 189t69.5 189t178.5 76q112 0 172 -87v33q0 43 42 43h44q43 0 43 -43v-423q0 -42 -43 -42h-44q-42 0 -42 42v34q-60 -87 -172 -87zM308 96q66 0 107 44.5t42 113.5q-1 69 -42 113.5t-107 44.5t-105 -45.5t-39 -112.5
q0 -68 39 -113t105 -45z" />
    <glyph glyph-name="AEacute" unicode="&#x1fc;" horiz-adv-x="939" 
d="M482 761q-13 0 -18 8t1 20l53 97q8 17 28 17h75q14 0 18.5 -8.5t-4.5 -19.5l-76 -100q-11 -14 -28 -14h-49zM49 0q-25 0 -33 14t3 37l332 619q17 30 50 30h448q43 0 43 -42v-26q0 -43 -43 -43h-266v-200h232q42 0 42 -42v-20q0 -42 -42 -42h-232v-174h266q43 0 43 -43
v-26q0 -42 -43 -42h-356q-42 0 -42 42v199h-193l-110 -210q-16 -31 -50 -31h-49zM313 348h138v242h-17z" />
    <glyph glyph-name="aeacute" unicode="&#x1fd;" horiz-adv-x="950" 
d="M451 576q-13 0 -18 8t1 19l63 114q10 16 28 16h83q14 0 18 -8t-5 -20l-92 -116q-9 -13 -28 -13h-50zM229 -11q-85 0 -143.5 44.5t-58.5 121.5q0 72 56.5 115.5t150.5 43.5q95 0 156 -28v18q0 56 -34 83t-90 27q-65 0 -119 -29q-39 -20 -58 16l-6 11q-18 38 14 58
q76 49 184 49q133 0 185 -83q76 83 198 83q104 0 176.5 -63.5t79.5 -177.5q3 -43 -42 -43h-366q-2 -59 46 -99.5t125 -40.5q62 0 118 36q36 20 59 -7l10 -11q28 -33 -4 -60q-76 -64 -189 -64q-157 0 -232 108q-31 -52 -89 -80t-127 -28zM520 316h278q-25 100 -132 100
q-49 0 -89 -23.5t-57 -76.5zM261 82q40 0 79.5 20.5t65.5 60.5q-10 34 -10 52q-63 21 -138 21q-49 0 -75 -22t-26 -54q0 -31 26.5 -54.5t77.5 -23.5z" />
    <glyph glyph-name="Oslashacute" unicode="&#x1fe;" horiz-adv-x="815" 
d="M391 761q-13 0 -18 8t1 20l53 97q9 17 28 17h75q14 0 18.5 -8.5t-4.5 -19.5l-76 -100q-11 -14 -28 -14h-49zM210 -27q-13 -19 -32 -6l-29 20q-18 14 -6 32l33 48q-64 51 -100 124.5t-36 158.5q0 150 105.5 255.5t262.5 105.5q91 0 173 -42l38 55q13 19 32 6l29 -20
q18 -13 6 -32l-37 -54q59 -50 92.5 -121.5t33.5 -152.5q0 -150 -105.5 -255.5t-261.5 -105.5q-91 0 -163 36zM246 171l267 397q-49 27 -105 27q-100 0 -167 -70.5t-67 -174.5q0 -109 72 -179zM408 105q99 0 166 70.5t67 174.5q0 99 -63 168l-265 -393q48 -20 95 -20z" />
    <glyph glyph-name="oslashacute" unicode="&#x1ff;" horiz-adv-x="618" 
d="M286 576q-13 0 -18 8t1 19l63 114q10 16 28 16h83q14 0 18 -8t-5 -20l-92 -116q-9 -13 -28 -13h-50zM118 -12q-15 -18 -32 -2l-18 17q-16 16 -2 32l37 42q-69 75 -69 177q0 110 79.5 187.5t195.5 77.5q81 0 148 -43l39 44q15 18 32 2l18 -18q17 -14 2 -32l-36 -40
q72 -75 72 -178q0 -111 -79.5 -188t-195.5 -77q-83 0 -151 43zM184 167l197 223q-34 21 -72 21q-63 0 -106.5 -46t-43.5 -112q0 -47 25 -86zM309 97q63 0 106.5 45.5t43.5 110.5q0 51 -26 89l-199 -224q36 -21 75 -21z" />
    <glyph glyph-name="Scommaaccent" unicode="&#x218;" horiz-adv-x="593" 
d="M297 -11q-94 0 -161 39.5t-95 107.5q-8 19 0.5 32.5t29.5 18.5l35 9q19 4 30.5 -2.5t22.5 -25.5q18 -31 53.5 -50t82.5 -19q59 0 94 25t35 65q0 61 -90 94l-97 34q-82 26 -128.5 77t-46.5 115q0 91 68.5 146.5t168.5 55.5q80 0 137.5 -34.5t84.5 -95.5q9 -19 1.5 -33.5
t-28.5 -19.5l-32 -9q-34 -11 -54 25q-29 56 -108 56q-45 0 -76 -22.5t-31 -61.5q0 -56 81 -86l98 -36q91 -29 135.5 -81.5t45.5 -116.5q0 -96 -71 -151.5t-185 -55.5zM291 -53q39 0 59 -27t20 -58q0 -109 -106 -156q-16 -8 -24 8l-5 9q-7 15 8 24q38 18 50 47q6 14 6 30
l-14 -3q-27 -2 -45 15.5t-18 43.5q-1 29 18 48t51 19z" />
    <glyph glyph-name="scommaaccent" unicode="&#x219;" horiz-adv-x="459" 
d="M231 -11q-65 0 -115.5 25.5t-75.5 74.5q-9 20 -1 34t29 19l26 6q17 4 27.5 -2t25.5 -22q29 -36 84 -36q33 0 54 16t21 40q0 33 -54 53l-65 23q-135 42 -135 143q0 68 50.5 112t128.5 44q111 0 158 -81q12 -20 4.5 -34.5t-29.5 -19.5l-23 -6q-28 -7 -53 20q-19 23 -55 23
q-28 0 -45 -15t-17 -38q0 -33 52 -50l68 -24q132 -42 134 -149q0 -73 -56 -114.5t-138 -41.5zM225 -53q39 0 59 -27t20 -58q0 -109 -106 -156q-16 -8 -24 8l-5 9q-7 15 8 24q38 18 50 47q6 14 6 30l-14 -3q-27 -2 -45 15.5t-18 43.5q-1 29 18 48t51 19z" />
    <glyph glyph-name="uni021A" unicode="&#x21a;" horiz-adv-x="608" 
d="M266 -223q-43 0 -78.5 23t-53.5 63q-9 19 11 31l17 10q17 9 32 -8q25 -36 66 -36q23 0 40 16t17 42q0 44 -35 82h-9q-35 0 -35 42v547h-177q-42 0 -42 43v26q0 42 42 42h486q42 0 42 -42v-26q0 -43 -42 -43h-178v-547q0 -30 -22 -38q55 -48 55 -110q0 -58 -42 -87.5
t-94 -29.5z" />
    <glyph glyph-name="uni021B" unicode="&#x21b;" horiz-adv-x="440" 
d="M428 133q0 -63 -38.5 -101t-105.5 -42q42 -43 42 -96q0 -58 -42 -87.5t-94 -29.5q-43 0 -78.5 23t-53.5 63q-9 19 11 31l17 10q17 10 31 -8q26 -36 66 -36q23 0 40.5 16t17.5 42q0 40 -33 79q-110 31 -110 168v245h-56q-23 0 -23 23v52q0 23 23 23h62l18 109q4 30 35 30
h35q33 0 33 -33v-106h126q23 0 23 -23v-52q0 -23 -23 -23h-126v-250q0 -33 14 -48.5t36 -15.5t36.5 13.5t14.5 36.5q0 11 -1 18q-3 25 19 25h53q22 0 26 -18q5 -21 5 -38z" />
    <glyph glyph-name="circumflex" unicode="&#x2c6;" horiz-adv-x="614" 
d="M166 576q-14 0 -18.5 8t3.5 19l82 115q9 15 27 15h93q18 0 27 -15l83 -115q8 -11 3.5 -19t-18.5 -8h-39q-17 0 -28 12l-74 79l-74 -79q-11 -12 -28 -12h-39z" />
    <glyph glyph-name="caron" unicode="&#x2c7;" horiz-adv-x="604" 
d="M255 576q-18 0 -27 14l-82 115q-8 12 -3.5 20t18.5 8h39q16 0 28 -12l74 -80l74 80q12 12 28 12h39q14 0 18.5 -8t-3.5 -20l-83 -115q-9 -14 -27 -14h-93z" />
    <glyph glyph-name="uni02C9" unicode="&#x2c9;" horiz-adv-x="551" 
d="M150 607q-23 0 -23 22v43q0 23 23 23h251q23 0 23 -23v-43q0 -22 -23 -22h-251z" />
    <glyph glyph-name="breve" unicode="&#x2d8;" horiz-adv-x="516" 
d="M258 576q-50 0 -93 29.5t-56 95.5q-4 24 20 27l33 3q18 3 26 -20q13 -53 70 -53t70 53q8 22 26 19l32 -3q12 -1 17 -12t0 -29q-16 -58 -57 -84t-88 -26z" />
    <glyph glyph-name="dotaccent" unicode="&#x2d9;" horiz-adv-x="338" 
d="M169 578q-34 0 -55.5 20t-21.5 52t21.5 53.5t55.5 21.5q33 0 55.5 -21.5t22.5 -53.5q0 -31 -22.5 -51.5t-55.5 -20.5z" />
    <glyph glyph-name="ring" unicode="&#x2da;" horiz-adv-x="416" 
d="M207 576q-49 0 -82 31t-33 78q0 48 33 79.5t82 31.5t83 -31.5t34 -79.5q0 -47 -34 -78t-83 -31zM207 632q24 0 39.5 15t15.5 38t-15.5 38t-39.5 15q-23 0 -39 -15.5t-16 -37.5t16 -37.5t39 -15.5z" />
    <glyph glyph-name="ogonek" unicode="&#x2db;" horiz-adv-x="488" 
d="M242 -223q-51 0 -93 29.5t-42 87.5q0 74 80 123q11 8 38 8q13 0 13 -11v-8l-10 -7q-36 -39 -36 -81q0 -26 17 -42t40 -16q41 0 66 36q15 17 32 8l17 -10q20 -12 10 -31q-18 -40 -53 -63t-79 -23z" />
    <glyph glyph-name="tilde" unicode="&#x2dc;" horiz-adv-x="550" 
d="M168 605q-11 -20 -30 -14l-14 5q-21 8 -15 29q15 48 36.5 71t57.5 23q28 0 73.5 -22t59.5 -22q30 0 45 30q10 20 30 14l14 -5q22 -6 15 -29q-15 -48 -36.5 -71t-57.5 -23q-28 0 -73.5 22.5t-59.5 22.5q-29 0 -45 -31z" />
    <glyph glyph-name="hungarumlaut" unicode="&#x2dd;" horiz-adv-x="562" 
d="M138 576q-14 0 -19 8t2 19l65 114q10 16 27 16h45q13 0 17.5 -8t-2.5 -20l-69 -114q-10 -15 -28 -15h-38zM304 576q-13 0 -18 8t2 19l65 114q8 16 27 16h44q14 0 18.5 -8t-2.5 -20l-70 -114q-8 -15 -27 -15h-39z" />
    <glyph glyph-name="uni0394" unicode="&#x394;" horiz-adv-x="755" 
d="M85 0q-24 0 -33.5 14t-0.5 36l247 617q11 33 48 33h71q38 0 49 -34l235 -617q8 -22 -1.5 -35.5t-32.5 -13.5h-582zM206 106h342l-168 457z" />
    <glyph glyph-name="uni03A9" unicode="&#x3a9;" horiz-adv-x="807" 
d="M102 0q-43 0 -43 42v20q0 42 43 42h98q-63 32 -107.5 107t-44.5 166q0 141 98 237.5t257 96.5q160 0 258 -96.5t98 -237.5q0 -90 -45 -165.5t-108 -107.5h99q42 0 42 -42v-20q0 -42 -42 -42h-208q-42 0 -42 42v30q0 32 33 50q68 32 107.5 94t39.5 138q0 109 -65.5 179
t-166.5 70t-166.5 -70t-65.5 -179q0 -78 38 -139t108 -93q33 -18 33 -50v-30q0 -42 -43 -42h-205z" />
    <glyph glyph-name="uni03BC" unicode="&#x3bc;" horiz-adv-x="617" 
d="M111 -158q-42 0 -42 43v580q0 43 42 43h44q42 0 42 -43v-257q0 -53 26 -82t65 -29q49 0 90 39.5t41 122.5v206q0 43 43 43h44q42 0 42 -43v-423q0 -42 -42 -42h-44q-43 0 -43 42v48q-15 -46 -54.5 -70.5t-95.5 -26.5q-42 -1 -79 14v-122q0 -43 -42 -43h-37z" />
    <glyph glyph-name="pi" unicode="&#x3c0;" horiz-adv-x="729" 
d="M554 -11q-35 0 -64.5 8.5t-58 28.5t-45 60t-16.5 97v222h-123v-382q0 -23 -23 -23h-84q-22 0 -22 23v382h-70q-23 0 -23 23v57q0 23 23 23h542q23 0 23 -23v-57q0 -23 -23 -23h-94v-236q1 -40 19.5 -59.5t43.5 -19.5q49 0 52 40v6q0 16 20 16h59q21 0 24 -16q1 -8 1 -15
q0 -62 -45 -97t-116 -35z" />
    <glyph glyph-name="Wgrave" unicode="&#x1e80;" horiz-adv-x="992" 
d="M454 761q-17 0 -28 14l-76 100q-9 11 -4.5 19.5t18.5 8.5h75q19 0 28 -17l53 -97q6 -12 1 -20t-18 -8h-49zM280 0q-36 0 -47 35l-193 617q-7 22 2.5 35t32.5 13h47q36 0 47 -35l136 -443l130 420q11 35 47 35h29q36 0 47 -35l129 -420l136 443q11 35 47 35h47
q23 0 32.5 -13t2.5 -35l-193 -617q-11 -35 -47 -35h-35q-36 0 -47 35l-134 437l-134 -437q-11 -35 -47 -35h-35z" />
    <glyph glyph-name="wgrave" unicode="&#x1e81;" horiz-adv-x="824" 
d="M370 576q-19 0 -28 13l-92 116q-9 12 -5 20t18 8h83q19 0 27 -16l63 -114q7 -11 2 -19t-18 -8h-50zM237 0q-36 0 -48 34l-153 425q-8 23 1.5 36t33.5 13h49q37 0 47 -35l99 -300l89 285q12 35 48 35h18q36 0 47 -35l90 -285l98 300q12 35 48 35h49q23 0 32.5 -13.5
t1.5 -35.5l-152 -425q-11 -34 -48 -34h-39q-37 0 -47 35l-89 280l-89 -280q-10 -35 -48 -35h-38z" />
    <glyph glyph-name="Wacute" unicode="&#x1e82;" horiz-adv-x="992" 
d="M473 761q-13 0 -18 8t1 20l53 97q9 17 28 17h75q14 0 18.5 -8.5t-4.5 -19.5l-76 -100q-11 -14 -28 -14h-49zM280 0q-36 0 -47 35l-193 617q-7 22 2.5 35t32.5 13h47q36 0 47 -35l136 -443l130 420q11 35 47 35h29q36 0 47 -35l129 -420l136 443q11 35 47 35h47
q23 0 32.5 -13t2.5 -35l-193 -617q-11 -35 -47 -35h-35q-36 0 -47 35l-134 437l-134 -437q-11 -35 -47 -35h-35z" />
    <glyph glyph-name="wacute" unicode="&#x1e83;" horiz-adv-x="824" 
d="M390 576q-13 0 -18 8t1 19l63 114q10 16 28 16h83q14 0 18 -8t-5 -20l-92 -116q-9 -13 -28 -13h-50zM237 0q-36 0 -48 34l-153 425q-8 23 1.5 36t33.5 13h49q37 0 47 -35l99 -300l89 285q12 35 48 35h18q36 0 47 -35l90 -285l98 300q12 35 48 35h49q23 0 32.5 -13.5
t1.5 -35.5l-152 -425q-11 -34 -48 -34h-39q-37 0 -47 35l-89 280l-89 -280q-10 -35 -48 -35h-38z" />
    <glyph glyph-name="Wdieresis" unicode="&#x1e84;" horiz-adv-x="992" 
d="M382 760q-32 0 -52 19t-20 49q0 29 20.5 48.5t51.5 19.5t51.5 -19.5t20.5 -48.5q0 -30 -20.5 -49t-51.5 -19zM611 760q-31 0 -51 19t-20 49q0 29 20 48.5t51 19.5t52 -19.5t21 -48.5q0 -30 -20.5 -49t-52.5 -19zM280 0q-36 0 -47 35l-193 617q-7 22 2.5 35t32.5 13h47
q36 0 47 -35l136 -443l130 420q11 35 47 35h29q36 0 47 -35l129 -420l136 443q11 35 47 35h47q23 0 32.5 -13t2.5 -35l-193 -617q-11 -35 -47 -35h-35q-36 0 -47 35l-134 437l-134 -437q-11 -35 -47 -35h-35z" />
    <glyph glyph-name="wdieresis" unicode="&#x1e85;" horiz-adv-x="824" 
d="M297 585q-31 0 -52 20t-21 49q0 30 21 50t52 20t52.5 -20t21.5 -50q0 -29 -21.5 -49t-52.5 -20zM526 585q-31 0 -51.5 20t-20.5 49q0 30 20.5 50t51.5 20q32 0 53.5 -20t21.5 -50q0 -29 -21.5 -49t-53.5 -20zM237 0q-36 0 -48 34l-153 425q-8 23 1.5 36t33.5 13h49
q37 0 47 -35l99 -300l89 285q12 35 48 35h18q36 0 47 -35l90 -285l98 300q12 35 48 35h49q23 0 32.5 -13.5t1.5 -35.5l-152 -425q-11 -34 -48 -34h-39q-37 0 -47 35l-89 280l-89 -280q-10 -35 -48 -35h-38z" />
    <glyph glyph-name="Ygrave" unicode="&#x1ef2;" horiz-adv-x="705" 
d="M323 761q-17 0 -28 14l-76 100q-9 11 -4.5 19.5t18.5 8.5h75q20 0 28 -17l53 -97q6 -12 1 -20t-18 -8h-49zM329 0q-42 0 -42 42v244l-244 363q-14 22 -6 36.5t34 14.5h61q34 0 51 -28l169 -273l171 273q17 28 51 28h61q26 0 34 -14.5t-7 -36.5l-243 -362v-245
q0 -42 -42 -42h-48z" />
    <glyph glyph-name="ygrave" unicode="&#x1ef3;" horiz-adv-x="575" 
d="M262 576q-19 0 -28 13l-92 116q-9 12 -5 20t18 8h83q19 0 27 -16l63 -114q7 -11 2 -19t-18 -8h-50zM177 -224q-24 0 -33 13.5t0 35.5l81 202l-191 431q-10 22 -0.5 36t33.5 14h54q36 0 48 -34l122 -309l117 309q13 34 50 34h53q23 0 32.5 -14t-0.5 -36l-280 -650
q-14 -32 -49 -32h-37z" />
    <glyph glyph-name="uni2009" unicode="&#x2009;" horiz-adv-x="17" 
 />
    <glyph glyph-name="endash" unicode="&#x2013;" horiz-adv-x="576" 
d="M85 249q-23 0 -23 23v69q0 23 23 23h406q23 0 23 -23v-69q0 -23 -23 -23h-406z" />
    <glyph glyph-name="emdash" unicode="&#x2014;" horiz-adv-x="796" 
d="M85 249q-23 0 -23 23v69q0 23 23 23h626q23 0 23 -23v-69q0 -23 -23 -23h-626z" />
    <glyph glyph-name="quoteleft" unicode="&#x2018;" horiz-adv-x="256" 
d="M160 714q18 11 29 -8l4 -9q11 -17 -7 -28q-61 -37 -61 -99q4 1 10 2t7 1q28 0 45 -19t17 -45q1 -32 -20.5 -53t-59.5 -21q-42 0 -61 29t-19 61q0 62 31 112.5t85 76.5z" />
    <glyph glyph-name="quoteright" unicode="&#x2019;" horiz-adv-x="255" 
d="M99 444q-17 -10 -29 8l-4 9q-11 17 7 29q61 36 61 98q-4 -1 -10 -2t-7 -1q-29 0 -45.5 19t-16.5 45q-1 32 20.5 53t59.5 21q42 0 61 -29t19 -61q0 -62 -31 -112.5t-85 -76.5z" />
    <glyph glyph-name="quotesinglbase" unicode="&#x201a;" horiz-adv-x="266" 
d="M96 -122q-17 -10 -29 8l-5 9q-11 17 7 29q60 34 62 98q-4 -1 -10 -2t-7 -1q-29 0 -45.5 19t-17.5 45q0 32 21.5 53t59.5 21q42 0 61 -29.5t19 -60.5q0 -61 -31.5 -112t-84.5 -77z" />
    <glyph glyph-name="quotedblleft" unicode="&#x201c;" horiz-adv-x="479" 
d="M160 714q18 11 29 -8l4 -9q11 -17 -7 -28q-61 -37 -61 -99q4 1 10 2t7 1q28 0 45 -19t17 -45q1 -32 -20.5 -53t-59.5 -21q-42 0 -61 29t-19 61q0 62 31 112.5t85 76.5zM383 714q18 11 29 -8l4 -9q11 -17 -7 -28q-61 -37 -61 -99q4 1 10 2t7 1q29 0 45.5 -19t16.5 -45
q1 -32 -20.5 -53t-59.5 -21q-42 0 -61 29t-19 61q0 62 31 112.5t85 76.5z" />
    <glyph glyph-name="quotedblright" unicode="&#x201d;" horiz-adv-x="477" 
d="M99 444q-17 -10 -29 8l-4 9q-11 17 7 29q61 36 61 98q-4 -1 -10 -2t-7 -1q-29 0 -45.5 19t-16.5 45q-1 32 20.5 53t59.5 21q42 0 61 -29t19 -61q0 -62 -31 -112.5t-85 -76.5zM322 444q-17 -10 -29 8l-4 9q-11 17 7 29q61 36 61 98q-4 -1 -10 -2t-7 -1q-28 0 -45 19
t-17 45q-1 32 20.5 53t59.5 21q42 0 61 -29t19 -61q0 -62 -31 -112.5t-85 -76.5z" />
    <glyph glyph-name="quotedblbase" unicode="&#x201e;" horiz-adv-x="489" 
d="M96 -122q-17 -10 -29 8l-5 9q-11 17 7 29q60 34 62 98q-4 -1 -10 -2t-7 -1q-29 0 -45.5 19t-17.5 45q0 32 21.5 53t59.5 21q42 0 61 -29.5t19 -60.5q0 -61 -31.5 -112t-84.5 -77zM319 -122q-17 -10 -29 8l-5 9q-11 17 7 29q60 34 62 98q-4 -1 -10 -2t-7 -1
q-29 0 -45.5 19t-17.5 45q0 32 21.5 53t59.5 21q42 0 61 -29.5t19 -60.5q0 -61 -31.5 -112t-84.5 -77z" />
    <glyph glyph-name="dagger" unicode="&#x2020;" horiz-adv-x="547" 
d="M245 -141q-28 0 -28 28v538h-158q-27 0 -27 28v43q0 28 27 28h158v211q0 28 28 28h56q28 0 28 -28v-211h158q28 0 28 -28v-43q0 -28 -28 -28h-158v-538q0 -28 -28 -28h-56z" />
    <glyph glyph-name="daggerdbl" unicode="&#x2021;" horiz-adv-x="573" 
d="M258 -141q-28 0 -28 28v233h-157q-28 0 -28 28v43q0 28 28 28h157v206h-157q-28 0 -28 28v43q0 28 28 28h157v211q0 28 28 28h56q28 0 28 -28v-211h158q28 0 28 -28v-43q0 -28 -28 -28h-158v-206h158q28 0 28 -28v-43q0 -28 -28 -28h-158v-233q0 -28 -28 -28h-56z" />
    <glyph glyph-name="bullet" unicode="&#x2022;" horiz-adv-x="407" 
d="M204 122q-54 0 -92.5 38t-38.5 92t38.5 92.5t92.5 38.5t92.5 -38.5t38.5 -92.5t-38.5 -92t-92.5 -38z" />
    <glyph glyph-name="ellipsis" unicode="&#x2026;" horiz-adv-x="838" 
d="M135 -11q-37 0 -61.5 23t-24.5 58t24.5 58.5t61.5 23.5q36 0 61 -24t25 -58t-25 -57.5t-61 -23.5zM419 -11q-37 0 -61.5 23t-24.5 58t24.5 58.5t61.5 23.5q36 0 61 -24t25 -58t-25 -57.5t-61 -23.5zM703 -11q-37 0 -61.5 23t-24.5 58t24.5 58.5t61.5 23.5q36 0 61 -24
t25 -58t-25 -57.5t-61 -23.5z" />
    <glyph glyph-name="perthousand" unicode="&#x2030;" horiz-adv-x="1404" 
d="M221 345q-79 0 -133.5 53t-54.5 130t54.5 130t133.5 53q80 0 134 -53t54 -130t-54 -130t-134 -53zM268 0q-14 0 -19 8.5t2 20.5l363 654q8 17 29 17h38q14 0 19 -8.5t-2 -20.5l-363 -654q-9 -17 -29 -17h-38zM221 433q39 0 64.5 27t25.5 68t-25.5 68.5t-64.5 27.5
q-38 0 -63.5 -28t-25.5 -68t25.5 -67.5t63.5 -27.5zM733 -11q-80 0 -134 52.5t-54 129.5q0 78 54 131t134 53t134 -53t54 -131q0 -77 -54 -129.5t-134 -52.5zM1183 -11q-79 0 -133.5 52.5t-54.5 129.5q0 78 54 131t134 53t134 -53t54 -131q0 -77 -54 -129.5t-134 -52.5z
M733 77q39 0 64.5 27t25.5 67q0 41 -25.5 69t-64.5 28q-38 0 -63.5 -28t-25.5 -69q0 -40 25.5 -67t63.5 -27zM1184 77q38 0 64 27t26 67q0 41 -26 69t-64 28t-64 -28t-26 -69q0 -40 26 -67t64 -27z" />
    <glyph glyph-name="guilsinglleft" unicode="&#x2039;" horiz-adv-x="353" 
d="M251 82q-17 -16 -32 2l-169 192q-10 11 -10 25q0 10 10 23l169 192q14 19 32 3l39 -34q16 -14 2 -33l-132 -152l131 -151q15 -18 -1 -33z" />
    <glyph glyph-name="guilsinglright" unicode="&#x203a;" horiz-adv-x="353" 
d="M102 82l-39 34q-17 14 -2 33l132 151l-132 152q-14 19 2 33l39 34q18 16 32 -3l168 -192q11 -14 11 -23q0 -12 -11 -25l-168 -192q-15 -18 -32 -2z" />
    <glyph glyph-name="fraction" unicode="&#x2044;" horiz-adv-x="150" 
d="M-202 -39q-15 0 -20 8.5t4 21.5l514 728q12 16 30 16h25q15 0 20 -8.5t-4 -21.5l-515 -728q-12 -16 -30 -16h-24z" />
    <glyph glyph-name="uni2070" unicode="&#x2070;" horiz-adv-x="374" 
d="M187 454q-72 0 -115.5 52.5t-43.5 129.5q0 78 43.5 130.5t115.5 52.5q73 0 116.5 -52.5t43.5 -130.5q0 -77 -43.5 -129.5t-116.5 -52.5zM187 521q38 0 60 32t22 83t-22 83.5t-60 32.5t-59.5 -32.5t-21.5 -83.5t21.5 -83t59.5 -32z" />
    <glyph glyph-name="uni2074" unicode="&#x2074;" horiz-adv-x="347" 
d="M200 460q-17 0 -17 17v74h-153q-16 0 -16 17v13q0 13 8 21l171 202q6 9 20 9h30q16 0 16 -16v-190h55q16 0 16 -17v-22q0 -17 -16 -17h-55v-74q0 -17 -16 -17h-43zM94 607h92v104z" />
    <glyph glyph-name="uni2075" unicode="&#x2075;" horiz-adv-x="324" 
d="M154 454q-67 0 -115 36q-13 9 -2 23l18 23q8 12 24 3q34 -23 75 -23q35 0 53 18t18 46q0 24 -17 42.5t-48 18.5q-35 0 -62 -17q-12 -6 -23 0l-25 11q-11 6 -11 20l8 141q0 17 17 17h192q17 0 17 -17v-27q0 -17 -17 -17h-144l-5 -75q24 17 69 17q54 0 89.5 -33.5
t35.5 -80.5q0 -57 -39 -91.5t-108 -34.5z" />
    <glyph glyph-name="uni2076" unicode="&#x2076;" horiz-adv-x="343" 
d="M179 454q-70 0 -110 47.5t-40 126.5q0 82 42 136.5t117 54.5q60 0 102 -35q11 -11 -1 -24l-23 -20q-10 -10 -23 -1q-23 19 -54 19q-34 0 -60 -30t-28 -78q15 21 42 31.5t53 10.5q47 0 84 -33t37 -84q0 -53 -38.5 -87t-99.5 -34zM178 516q28 0 46 16.5t18 43.5t-18 44
t-46 17q-30 0 -49.5 -17t-19.5 -44t19.5 -43.5t49.5 -16.5z" />
    <glyph glyph-name="uni2077" unicode="&#x2077;" horiz-adv-x="293" 
d="M65 460q-9 0 -12.5 6t0.5 14l145 273h-163q-16 0 -16 17v27q0 16 16 16h232q17 0 17 -16v-17q0 -8 -5 -21l-147 -287q-6 -12 -18 -12h-49z" />
    <glyph glyph-name="uni2078" unicode="&#x2078;" horiz-adv-x="351" 
d="M175 454q-64 0 -106 31.5t-42 80.5q0 27 20.5 51t54.5 32q-27 8 -43.5 28t-16.5 41q0 43 37.5 71.5t95.5 28.5t95.5 -28.5t37.5 -71.5q0 -22 -16 -41.5t-44 -27.5q34 -8 55 -32t21 -51q0 -49 -42.5 -80.5t-106.5 -31.5zM175 670q27 0 42 13t15 33q0 18 -15.5 30t-41.5 12
q-25 0 -41 -12t-16 -30t15 -32t42 -14zM175 514q32 0 52 16t20 38q0 24 -19 38.5t-53 14.5t-53 -15.5t-19 -37.5t20 -38t52 -16z" />
    <glyph glyph-name="uni2079" unicode="&#x2079;" horiz-adv-x="342" 
d="M154 454q-61 0 -101 35q-12 11 1 24l23 20q10 11 23 0q24 -18 53 -18q34 0 60.5 30t28.5 78q-31 -42 -95 -42q-47 0 -84 33t-37 84q0 53 38.5 87t98.5 34q71 0 111 -47.5t40 -126.5q0 -82 -42.5 -136.5t-117.5 -54.5zM165 636q30 0 49 17t19 44t-19 43t-49 16
q-28 0 -46.5 -16t-18.5 -43t18 -44t47 -17z" />
    <glyph glyph-name="uni207D" unicode="&#x207d;" horiz-adv-x="206" 
d="M145 380q-13 -9 -23 3q-33 39 -60.5 101.5t-27.5 134.5t27.5 134.5t61.5 101.5q9 12 23 3l16 -12q13 -8 5 -22q-60 -102 -60 -205t60 -205q8 -14 -5 -23z" />
    <glyph glyph-name="uni207E" unicode="&#x207e;" horiz-adv-x="206" 
d="M84 383q-10 -12 -23 -3l-16 11q-14 9 -6 23q60 98 60 205t-60 205q-7 13 5 22l17 12q12 9 23 -3q33 -39 60.5 -101.5t27.5 -134.5q0 -73 -27 -135.5t-61 -100.5z" />
    <glyph glyph-name="uni2080" unicode="&#x2080;" horiz-adv-x="374" 
d="M187 -146q-72 0 -115.5 52.5t-43.5 129.5t43.5 129.5t115.5 52.5q73 0 116.5 -52t43.5 -130t-43.5 -130t-116.5 -52zM187 -79q38 0 60 32t22 83t-22 83t-60 32t-59.5 -32t-21.5 -83t21.5 -83t59.5 -32z" />
    <glyph glyph-name="uni2081" unicode="&#x2081;" horiz-adv-x="221" 
d="M119 -140q-16 0 -16 16v252l-59 -25q-16 -8 -21 9l-9 27q-6 14 9 22l105 48q9 4 21 4h15q16 0 16 -16v-321q0 -16 -16 -16h-45z" />
    <glyph glyph-name="uni2082" unicode="&#x2082;" horiz-adv-x="334" 
d="M51 -140q-15 0 -18 15l-3 16q-3 13 8 21l137 120q41 35 41 71q0 23 -14 36t-38 13q-45 0 -55 -38q-4 -16 -17 -16h-46q-18 0 -16 17q6 42 39.5 72.5t95.5 30.5q58 0 93 -32.5t35 -80.5q0 -67 -67 -121l-76 -61h142q17 0 17 -16v-31q0 -16 -17 -16h-241z" />
    <glyph glyph-name="uni2083" unicode="&#x2083;" horiz-adv-x="326" 
d="M149 -145q-69 0 -117 35q-13 11 -3 24l19 25q10 11 24 3q34 -24 78 -24q31 0 50.5 17.5t19.5 41.5q0 26 -19.5 43.5t-45.5 17.5q-19 0 -35 -5t-22 5l-12 14q-8 12 3 23l90 79h-127q-16 0 -16 16v27q0 17 16 17h217q17 0 17 -17v-13q0 -12 -9 -21l-87 -79q48 -5 77 -35.5
t29 -72.5q0 -52 -39.5 -86.5t-107.5 -34.5z" />
    <glyph glyph-name="uni2084" unicode="&#x2084;" horiz-adv-x="347" 
d="M200 -140q-17 0 -17 16v75h-153q-16 0 -16 16v14q0 12 8 20l171 203q7 9 20 9h30q16 0 16 -16v-190h55q16 0 16 -17v-23q0 -16 -16 -16h-55v-75q0 -16 -16 -16h-43zM94 7h92v104z" />
    <glyph glyph-name="uni2085" unicode="&#x2085;" horiz-adv-x="324" 
d="M154 -146q-67 0 -115 36q-14 9 -2 23l18 24q9 12 24 3q34 -23 75 -23q36 0 53.5 18t17.5 46q0 23 -17 41.5t-48 18.5q-34 0 -62 -16q-12 -6 -23 -1l-25 12q-11 6 -11 19l8 142q0 16 17 16h192q17 0 17 -16v-28q0 -16 -17 -16h-144l-5 -76q22 17 69 17q54 0 89.5 -33
t35.5 -80q0 -57 -39 -92t-108 -35z" />
    <glyph glyph-name="uni2086" unicode="&#x2086;" horiz-adv-x="343" 
d="M179 -146q-70 0 -110 47.5t-40 127.5q0 82 42 136t117 54q60 0 102 -35q11 -11 -1 -23l-23 -21q-11 -9 -23 0q-24 18 -54 18q-34 0 -60 -30t-28 -78q15 21 42 31.5t53 10.5q47 0 84 -33t37 -84q0 -53 -38.5 -87t-99.5 -34zM178 -83q28 0 46 16t18 43q0 28 -17.5 44.5
t-46.5 16.5q-30 0 -49.5 -17t-19.5 -43q0 -27 19.5 -43.5t49.5 -16.5z" />
    <glyph glyph-name="uni2087" unicode="&#x2087;" horiz-adv-x="293" 
d="M65 -140q-9 0 -12.5 6t0.5 14l145 273h-163q-16 0 -16 16v28q0 16 16 16h232q17 0 17 -16v-17q0 -9 -5 -21l-147 -287q-6 -12 -18 -12h-49z" />
    <glyph glyph-name="uni2088" unicode="&#x2088;" horiz-adv-x="351" 
d="M175 -146q-64 0 -106 31.5t-42 80.5q0 27 20.5 50.5t54.5 32.5q-27 7 -43.5 27.5t-16.5 41.5q0 43 37.5 71.5t95.5 28.5t95.5 -28.5t37.5 -71.5q0 -22 -16 -42t-44 -27q34 -9 55 -32.5t21 -50.5q0 -49 -42.5 -80.5t-106.5 -31.5zM175 70q27 0 42 13t15 33q0 18 -15.5 30
t-41.5 12q-25 0 -41 -12t-16 -30q0 -19 15 -32.5t42 -13.5zM175 -86q32 0 52 16t20 38q0 24 -19 38t-53 14t-53 -15t-19 -37t20 -38t52 -16z" />
    <glyph glyph-name="uni2089" unicode="&#x2089;" horiz-adv-x="342" 
d="M154 -146q-61 0 -101 35q-13 11 1 23l23 21q10 10 23 0q24 -18 53 -18q34 0 60.5 30t28.5 78q-31 -42 -95 -42q-47 0 -84 33t-37 84q0 53 38.5 87t98.5 34q71 0 111 -47.5t40 -127.5q0 -82 -42.5 -136t-117.5 -54zM165 36q30 0 49 17t19 43q0 27 -19 43.5t-49 16.5
q-28 0 -46.5 -16t-18.5 -43q0 -28 18 -44.5t47 -16.5z" />
    <glyph glyph-name="uni208D" unicode="&#x208d;" horiz-adv-x="206" 
d="M145 -206q-13 -9 -23 3q-33 39 -60.5 101.5t-27.5 134.5t27.5 134.5t61.5 101.5q9 12 23 3l16 -12q13 -8 5 -22q-60 -102 -60 -206q0 -101 60 -204q8 -14 -5 -23z" />
    <glyph glyph-name="uni208E" unicode="&#x208e;" horiz-adv-x="206" 
d="M83 -203q-9 -12 -23 -3l-16 11q-13 9 -5 23q59 101 59 204q0 105 -59 206q-8 14 5 22l16 12q13 9 23 -3q33 -38 60.5 -101t27.5 -135q0 -73 -27 -135.5t-61 -100.5z" />
    <glyph glyph-name="lira" unicode="&#x20a4;" horiz-adv-x="642" 
d="M66 0q-23 0 -23 23v57q0 22 22 25q73 7 108 39.5t26 87.5h-117q-19 0 -19 19v21q0 19 19 19h101q-3 11 -10.5 30t-10.5 27h-80q-19 0 -19 18v22q0 18 19 18h59q-22 64 -22 105q0 89 68 144.5t170 55.5t158 -49t65 -118q3 -23 -22 -23h-76q-20 0 -24 21q-14 58 -100 58
q-52 0 -82 -25t-30 -68q0 -36 24 -101h181q19 0 19 -18v-22q0 -18 -19 -18h-162q12 -30 21 -57h141q19 0 19 -19v-21q0 -19 -19 -19h-129q18 -88 -59 -125v-4q45 3 124 3h191q23 0 23 -23v-60q0 -23 -23 -23h-512z" />
    <glyph glyph-name="uni20A8" unicode="&#x20a8;" horiz-adv-x="693" 
d="M487 -11q-48 0 -87.5 20.5t-63.5 50t-42 68t-25.5 69.5t-10.5 59h-180q-23 0 -23 23v54q0 23 23 23h223q46 0 74 27.5t33 73.5h-335q-18 0 -18 19v26q0 18 18 18h328q-10 32 -37 51.5t-63 19.5h-223q-23 0 -23 23v63q0 23 23 23h549q18 0 18 -19v-25q0 -19 -18 -19h-145
q45 -45 58 -117h87q18 0 18 -18v-26q0 -19 -18 -19h-83q-4 -73 -46 -126t-113 -68q6 -61 39 -113.5t80 -52.5q33 0 60 16q21 11 31 -8l23 -47q10 -20 -6 -31q-53 -38 -125 -38z" />
    <glyph glyph-name="uni20A9" unicode="&#x20a9;" horiz-adv-x="1087" 
d="M1043 557q0 -19 -18 -19h-63l-15 -51h78q18 0 18 -19v-18q0 -18 -18 -18h-96l-124 -397q-12 -35 -48 -35h-34q-36 0 -48 35l-133 437l-134 -437q-11 -35 -47 -35h-35q-36 0 -47 35l-125 397h-92q-18 0 -18 18v18q0 19 18 19h75l-16 51h-59q-18 0 -18 19v18q0 18 18 18h42
l-19 59q-6 22 4 35t32 13h47q36 0 47 -35l135 -443l131 420q11 35 47 35h28q36 0 48 -35l129 -420l136 443q9 35 47 35h47q23 0 32.5 -13t2.5 -35l-18 -59h45q18 0 18 -18v-18z" />
    <glyph glyph-name="uni20AA" unicode="&#x20aa;" horiz-adv-x="799" 
d="M88 0q-23 0 -23 23v492q0 23 23 23h255q92 0 149 -57.5t57 -142.5v-125q0 -23 -23 -23h-66q-23 0 -23 23v125q0 37 -26 62t-68 25h-160v-402q0 -23 -22 -23h-73zM456 0q-92 0 -149 57.5t-57 142.5v125q0 23 22 23h67q23 0 23 -23v-125q0 -37 26 -62t68 -25h159v402
q0 23 23 23h73q23 0 23 -23v-492q0 -23 -23 -23h-255z" />
    <glyph glyph-name="Euro" unicode="&#x20ac;" horiz-adv-x="692" 
d="M483 -11q-142 0 -228.5 70.5t-110.5 187.5h-83q-23 0 -23 23v23q0 23 23 23h75q-2 32 -2 57h-73q-23 0 -23 23v23q0 23 23 23h80q22 122 107.5 195.5t226.5 73.5q88 0 163 -38q18 -10 10 -31l-26 -59q-9 -22 -31 -11q-51 22 -111 22q-82 0 -134.5 -40.5t-72.5 -111.5h278
q27 0 19 -26l-9 -26q-7 -17 -27 -17h-272q0 -27 2 -57h242q28 0 18 -26l-8 -25q-6 -18 -26 -18h-211q45 -143 208 -143q59 0 103 13q26 7 26 -19v-62q0 -20 -17 -27q-57 -20 -116 -20z" />
    <glyph glyph-name="uni2113" unicode="&#x2113;" horiz-adv-x="484" 
d="M279 -11q-29 0 -58.5 8t-57 25t-45 49.5t-17.5 75.5v8q-27 -1 -57 3q-15 2 -15 17v46q0 17 17 14q31 -2 53 2v301q0 47 13.5 82t33 54t45.5 31t46.5 15t41.5 3q29 0 54 -6.5t53.5 -24t45.5 -57t17 -97.5q0 -130 -63.5 -231t-162.5 -138v-17q0 -28 19.5 -44.5t42.5 -16.5
q54 0 54 44q0 5 -1 8q-3 17 14 17h63q15 0 18 -14q4 -12 4 -23q0 -59 -41.5 -96.5t-116.5 -37.5zM227 276q52 34 85.5 103t33.5 164q0 41 -17 59.5t-41 18.5q-61 0 -61 -78v-267z" />
    <glyph glyph-name="uni2116" unicode="&#x2116;" horiz-adv-x="1104" 
d="M895 384q-70 0 -116.5 45.5t-46.5 113.5t46.5 114t116.5 46t116.5 -46t46.5 -114t-46.5 -113.5t-116.5 -45.5zM101 0q-30 0 -30 30v640q0 30 30 30h48q24 0 36 -18l326 -443v431q0 30 30 30h73q30 0 30 -30v-640q0 -30 -30 -30h-47q-25 0 -37 18l-326 446v-434
q0 -30 -30 -30h-73zM895 460q35 0 58 24t23 59q0 36 -23 60.5t-58 24.5q-34 0 -57 -24.5t-23 -60.5q0 -35 23 -59t57 -24zM754 254q-16 0 -16 16v36q0 17 16 17h282q16 0 16 -17v-36q0 -16 -16 -16h-282z" />
    <glyph glyph-name="uni2117" unicode="&#x2117;" horiz-adv-x="795" 
d="M398 -11q-148 0 -250.5 105.5t-102.5 255.5t102.5 255.5t250.5 105.5t250.5 -105.5t102.5 -255.5t-102.5 -255.5t-250.5 -105.5zM398 49q122 0 206.5 88t84.5 213t-84.5 213t-206.5 88q-123 0 -207.5 -88t-84.5 -213t84.5 -213t207.5 -88zM315 167q-25 0 -25 25v310
q0 25 25 25h127q53 0 84 -35t31 -85q0 -51 -31.5 -83t-83.5 -32h-70v-100q0 -25 -25 -25h-32zM372 358h60q19 0 30.5 14t11.5 35q0 22 -11.5 38t-30.5 16h-60v-103z" />
    <glyph glyph-name="trademark" unicode="&#x2122;" horiz-adv-x="877" 
d="M177 343q-16 0 -16 16v280h-109q-17 0 -17 17v34q0 17 17 17h294q17 0 17 -17v-34q0 -17 -17 -17h-109v-280q0 -16 -16 -16h-44zM400 343q-18 0 -16 17l32 331q1 16 17 16h43q14 0 20 -13l101 -241l100 241q4 13 19 13h47q15 0 16 -16l30 -331q2 -17 -16 -17h-41
q-16 0 -17 15l-19 209l-85 -205q-6 -12 -20 -12h-28q-15 0 -19 12l-86 204l-18 -208q-2 -15 -17 -15h-43z" />
    <glyph glyph-name="uni2126" unicode="&#x2126;" horiz-adv-x="815" 
d="M103 0q-42 0 -42 42v20q0 42 42 42h98q-63 32 -107 107t-44 166q0 141 97.5 237.5t256.5 96.5q160 0 258 -96.5t98 -237.5q0 -90 -44.5 -165.5t-107.5 -107.5h99q42 0 42 -42v-20q0 -42 -42 -42h-208q-43 0 -43 42v30q0 32 33 50q68 32 107.5 94t39.5 138
q0 109 -65.5 179t-166.5 70t-166 -70t-65 -179q0 -78 38 -139t107 -93q33 -18 33 -50v-30q0 -42 -42 -42h-206z" />
    <glyph glyph-name="estimated" unicode="&#x212e;" horiz-adv-x="634" 
d="M320 -7q-119 0 -195 84.5t-76 205.5q0 123 75 206.5t200 83.5q124 0 198.5 -84.5t74.5 -206.5h-429v-193q66 -63 152 -63q76 0 123 33t87 94l31 -19q-44 -68 -99 -104.5t-142 -36.5zM168 315h309v163q-68 62 -153 62q-96 0 -156 -62v-163z" />
    <glyph glyph-name="arrowleft" unicode="&#x2190;" horiz-adv-x="674" 
d="M579 281v-52q0 -19 -19 -19h-345l96 -111q13 -15 -2 -27l-36 -31q-14 -11 -26 2l-167 191q-10 11 -10 19q0 11 10 22l167 191q13 14 26 2l36 -31q14 -12 2 -27l-96 -110h345q19 0 19 -19z" />
    <glyph glyph-name="arrowup" unicode="&#x2191;" horiz-adv-x="579" 
d="M263 13q-18 0 -18 18v345l-111 -95q-14 -12 -27 2l-31 36q-11 13 2 26l192 167q11 9 21 9q9 0 19 -9l191 -167q13 -13 2 -26l-31 -37q-12 -13 -27 -1l-111 96v-346q0 -18 -18 -18h-53z" />
    <glyph glyph-name="arrowright" unicode="&#x2192;" horiz-adv-x="674" 
d="M96 281q0 19 18 19h345l-96 110q-13 16 3 27l36 31q14 12 25 -2l168 -191q9 -12 9 -22q0 -7 -9 -19l-168 -191q-12 -13 -26 -2l-36 31q-14 12 -2 27l97 111h-346q-18 0 -18 19v52z" />
    <glyph glyph-name="arrowdown" unicode="&#x2193;" horiz-adv-x="580" 
d="M263 521h53q18 0 18 -18v-346l111 97q16 11 27 -2l31 -37q11 -13 -2 -26l-191 -167q-10 -9 -19 -9q-11 0 -21 9l-192 167q-13 13 -2 26l32 36q12 16 26 3l111 -97v346q0 18 18 18z" />
    <glyph glyph-name="partialdiff" unicode="&#x2202;" horiz-adv-x="668" 
d="M275 -11q-131 0 -191 71t-45 173q17 101 95 158.5t179 57.5q125 0 186 -87h3q8 46 3.5 89.5t-19 77.5t-48.5 54t-85 20q-33 -2 -56 -10q-23 -6 -32 14l-20 51q-10 24 13 32q58 21 118 21q69 0 120 -20.5t78.5 -55.5t43.5 -81.5t15 -98.5t-8 -107q-27 -172 -116 -265.5
t-234 -93.5zM297 97q72 0 118.5 44t65.5 122q-24 48 -70 67t-87 19q-58 0 -103 -32t-54 -87q-9 -62 27.5 -97.5t102.5 -35.5z" />
    <glyph glyph-name="uni2206" unicode="&#x2206;" horiz-adv-x="729" 
d="M73 0q-23 0 -32.5 14t-0.5 36l246 617q13 33 49 33h70q37 0 50 -34l235 -617q8 -22 -1.5 -35.5t-32.5 -13.5h-583zM194 106h342l-167 457z" />
    <glyph glyph-name="product" unicode="&#x220f;" horiz-adv-x="741" 
d="M156 -141q-23 0 -23 23v715h-74q-23 0 -23 23v57q0 23 23 23h623q23 0 23 -23v-57q0 -23 -23 -23h-75v-715q0 -23 -23 -23h-83q-23 0 -23 23v715h-216v-715q0 -23 -23 -23h-83z" />
    <glyph glyph-name="summation" unicode="&#x2211;" horiz-adv-x="589" 
d="M60 -141q-24 0 -24 24v34q0 16 9 31l224 329l-214 332q-9 15 -9 31v36q0 24 24 24h431q24 0 24 -24v-58q0 -24 -24 -24h-297l193 -296q10 -18 0 -34l-203 -300h335q24 0 24 -24v-57q0 -24 -24 -24h-469z" />
    <glyph glyph-name="minus" unicode="&#x2212;" horiz-adv-x="653" 
d="M89 249q-23 0 -23 23v69q0 23 23 23h475q23 0 23 -23v-69q0 -23 -23 -23h-475z" />
    <glyph glyph-name="uni2219" unicode="&#x2219;" horiz-adv-x="297" 
d="M148 198q-37 0 -61 23t-24 58t24 58.5t61 23.5q36 0 61 -24t25 -58t-25 -57.5t-61 -23.5z" />
    <glyph glyph-name="radical" unicode="&#x221a;" horiz-adv-x="561" 
d="M257 -97q-21 0 -27 20l-131 380l-42 -19q-23 -9 -32 13l-15 36q-9 21 12 32l131 60q23 11 31 -14l105 -320l152 651q6 21 27 21h49q12 0 18 -7.5t3 -19.5l-190 -811q-5 -22 -27 -22h-64z" />
    <glyph glyph-name="infinity" unicode="&#x221e;" horiz-adv-x="852" 
d="M228 124q-78 0 -129 47.5t-51 128.5t51.5 128.5t128.5 47.5q80 0 153 -67l44 -42l48 42q40 34 74 50.5t78 16.5q77 0 128 -47.5t51 -128.5t-51 -128.5t-128 -47.5q-44 0 -79 17t-76 52l-44 40l-43 -41q-42 -35 -77 -51.5t-78 -16.5zM235 225q41 0 86 39l40 36l-45 40
q-44 36 -81 36q-36 0 -60.5 -19.5t-24.5 -56.5q0 -36 24.5 -55.5t60.5 -19.5zM618 225q35 0 59 19.5t24 55.5q0 37 -24 56.5t-59 19.5q-43 0 -87 -40l-39 -36l39 -36q45 -39 87 -39z" />
    <glyph glyph-name="integral" unicode="&#x222b;" horiz-adv-x="515" 
d="M135 -235q-63 0 -121 37q-17 12 -11 32l14 54q8 24 32 12q43 -21 77 -21q28 0 47.5 20t19.5 64v584q0 62 16.5 105t45.5 64.5t59.5 30.5t66.5 9q63 0 121 -38q17 -10 11 -31l-15 -54q-6 -24 -31 -12q-43 21 -77 21q-28 0 -47.5 -20t-19.5 -64v-584q0 -62 -17 -105.5
t-46 -64.5t-59 -30t-66 -9z" />
    <glyph glyph-name="approxequal" unicode="&#x2248;" horiz-adv-x="640" 
d="M444 355q-44 0 -126.5 25.5t-116.5 25.5q-48 0 -81 -23q-24 -15 -33 9l-17 43q-7 19 6 33q44 49 119 49q47 0 132 -26t112 -26q46 0 82 22q22 16 32 -8l17 -40q9 -17 -6 -35q-44 -49 -120 -49zM441 98q-42 0 -124.5 26t-116.5 26q-48 0 -82 -23q-23 -15 -32 8l-17 43
q-7 19 5 34q45 48 120 48q48 0 132 -25.5t111 -25.5q50 0 82 23q24 13 33 -9l17 -40q8 -19 -6 -35q-46 -50 -122 -50z" />
    <glyph glyph-name="notequal" unicode="&#x2260;" horiz-adv-x="603" 
d="M185 35q-11 -21 -33 -10l-25 14q-22 11 -11 34l37 67h-68q-24 0 -24 24v58q0 25 24 25h125l88 163h-213q-24 0 -24 24v58q0 25 24 25h271l52 95q12 21 34 10l24 -14q22 -11 10 -33l-31 -58h75q24 0 24 -25v-58q0 -24 -24 -24h-133l-88 -163h221q24 0 24 -25v-58
q0 -24 -24 -24h-278z" />
    <glyph glyph-name="lessequal" unicode="&#x2264;" horiz-adv-x="628" 
d="M526 193l-443 153q-21 6 -21 27v59q0 20 21 28l443 152q28 8 28 -21v-55q0 -21 -20 -27l-330 -106l330 -107q20 -6 20 -28v-54q0 -29 -28 -21zM86 23q-24 0 -24 25v47q0 25 24 25h444q24 0 24 -25v-47q0 -25 -24 -25h-444z" />
    <glyph glyph-name="greaterequal" unicode="&#x2265;" horiz-adv-x="628" 
d="M102 193q-28 -8 -28 21v54q0 22 21 28l330 107l-330 106q-21 6 -21 27v55q0 29 28 21l444 -152q20 -8 20 -28v-59q0 -21 -20 -27zM98 23q-24 0 -24 25v47q0 25 24 25h444q24 0 24 -25v-47q0 -25 -24 -25h-444z" />
    <glyph glyph-name="lozenge" unicode="&#x25ca;" horiz-adv-x="593" 
d="M271 0q-20 0 -29 16l-197 309q-11 17 -1 34l197 325q10 17 30 17h52q19 0 29 -17l198 -325q10 -17 -1 -34l-198 -309q-9 -16 -29 -16h-51zM296 123l142 218l-142 231l-141 -231z" />
    <glyph glyph-name="uniF6C3" unicode="&#xf6c3;" horiz-adv-x="0" 
d="M-177 -53q39 0 59 -27t20 -58q0 -109 -106 -156q-16 -8 -24 8l-5 9q-7 15 8 24q38 18 50 47q6 13 6 30l-14 -3q-27 -2 -45 15.5t-18 43.5q-1 29 18 48t51 19z" />
    <glyph glyph-name="uniF6DD" unicode="&#xf6dd;" horiz-adv-x="1366" 
d="M544 -11q-59 0 -105 29.5t-70.5 75t-36.5 85.5t-16 77h-110v-233q0 -23 -23 -23h-86q-23 0 -23 23v654q0 23 23 23h283q103 0 162.5 -65.5t59.5 -161.5q0 -80 -42 -136.5t-118 -73.5q7 -62 39.5 -114t79.5 -52q34 0 61 16q22 12 30 -8l24 -47q9 -19 -6 -31
q-54 -38 -126 -38zM206 356h153q49 0 78.5 32.5t29.5 83.5q0 52 -29.5 84.5t-78.5 32.5h-153v-233zM806 -216q-23 0 -23 23v678q0 23 23 23h83q23 0 23 -23v-53q59 87 172 87q109 0 178.5 -76t69.5 -189t-69.5 -189t-178.5 -76q-113 0 -172 87v-269q0 -23 -23 -23h-83z
M1059 96q66 0 105 45t39 113q0 67 -39 112.5t-105 45.5t-107.5 -44.5t-41.5 -113.5t41.5 -113.5t107.5 -44.5z" />
    <glyph glyph-name="uniF6DF" unicode="&#xf6df;" horiz-adv-x="301" 
d="M132 -141q-17 0 -14 16l5 35q-44 13 -70.5 47t-26.5 80q0 55 38 92.5t99 40.5l5 36q3 14 17 14h5q17 0 14 -16l-5 -37q34 -4 64 -23q13 -8 5 -21l-13 -23q-9 -13 -21 -4q-19 12 -44 15l-21 -148q35 0 60 16q14 9 22 -3l17 -24q9 -14 -4 -21q-53 -32 -104 -27l-4 -32
q-3 -13 -17 -13h-7zM134 -27l18 136q-22 -8 -37 -27.5t-15 -44.5q0 -39 34 -64z" />
    <glyph glyph-name="uniF6E0" unicode="&#xf6e0;" horiz-adv-x="302" 
d="M132 457q-17 0 -14 16l5 35q-44 13 -70.5 47t-26.5 80q0 55 38 92.5t99 40.5l5 36q3 14 17 14h5q17 0 14 -16l-5 -36q35 -5 64 -24q13 -8 5 -21l-13 -23q-9 -13 -21 -4q-19 12 -44 15l-21 -148q35 0 60 16q14 9 22 -3l17 -24q9 -14 -4 -21q-53 -32 -104 -27l-4 -32
q-3 -13 -17 -13h-7zM134 571l18 136q-22 -8 -37 -27.5t-15 -44.5q0 -39 34 -64z" />
    <glyph glyph-name="uniF6E1" unicode="&#xf6e1;" horiz-adv-x="178" 
d="M64 -214q-10 -3 -15 6l-4 8q-6 8 6 15q30 12 37 38q2 8 2 13q-2 -1 -14 -1q-15 1 -24 12.5t-9 24.5q-1 19 10.5 31.5t33.5 12.5q27 0 38 -17.5t11 -37.5q0 -77 -72 -105z" />
    <glyph glyph-name="uniF6E2" unicode="&#xf6e2;" horiz-adv-x="177" 
d="M64 387q-10 -4 -15 6l-5 7q-4 10 6 15q31 13 38 38q0 2 0.5 6.5t1.5 6.5q-8 -2 -14 0q-15 1 -24 12t-10 25q-1 18 11 31t33 13q27 0 38.5 -18t11.5 -38q0 -75 -72 -104z" />
    <glyph glyph-name="uniF6E3" unicode="&#xf6e3;" horiz-adv-x="312" 
d="M155 -182q-11 0 -11 12v29q-43 3 -75 24.5t-44 56.5q-4 13 11 18l34 9q12 3 18 -10q16 -34 56 -39v90l-20 8q-88 34 -88 99q0 42 30.5 69t77.5 30v27q0 12 11 12h9q11 0 11 -12v-27q71 -9 97 -68q6 -13 -9 -19l-32 -13q-12 -5 -20 9q-10 21 -36 30v-85l19 -7
q43 -16 68 -43.5t25 -55.5q0 -44 -31 -71t-81 -32v-29q0 -12 -11 -12h-9zM144 81v74q-35 -9 -35 -39q0 -20 26 -31zM175 -80q38 8 38 39q0 22 -30 34l-8 4v-77z" />
    <glyph glyph-name="uniF6E4" unicode="&#xf6e4;" horiz-adv-x="313" 
d="M155 418q-11 0 -11 11v30q-43 2 -75 24t-44 56q-4 15 11 18l34 9q12 4 18 -10q17 -33 56 -38v90l-20 7q-88 34 -88 100q0 42 31 68.5t77 29.5v28q0 11 11 11h9q11 0 11 -11v-28q70 -8 97 -67q6 -14 -9 -19l-32 -14q-13 -4 -20 9q-11 23 -36 31v-85l19 -7q43 -16 68 -44
t25 -55q0 -44 -31 -71.5t-81 -31.5v-30q0 -11 -11 -11h-9zM144 680v75q-35 -9 -35 -39q0 -21 26 -32zM175 520q38 8 38 39q0 22 -30 34l-8 3v-76z" />
    <glyph glyph-name="uniF6E5" unicode="&#xf6e5;" horiz-adv-x="282" 
d="M58 -8q-17 0 -17 16v29q0 17 17 17h166q16 0 16 -17v-29q0 -16 -16 -16h-166z" />
    <glyph glyph-name="uniF6E6" unicode="&#xf6e6;" horiz-adv-x="282" 
d="M58 592q-17 0 -17 16v30q0 16 17 16h166q16 0 16 -16v-30q0 -16 -16 -16h-166z" />
    <glyph glyph-name="uniF6E7" unicode="&#xf6e7;" horiz-adv-x="178" 
d="M89 -146q-20 0 -35 12.5t-15 31.5t15 31.5t35 12.5t35 -12.5t15 -31.5t-15 -31.5t-35 -12.5z" />
    <glyph glyph-name="uniF6E8" unicode="&#xf6e8;" horiz-adv-x="178" 
d="M89 454q-20 0 -35 13t-15 31q0 19 15 32t35 13t35 -13t15 -32q0 -18 -15 -31t-35 -13z" />
    <glyph glyph-name="uniF8FF" unicode="&#xf8ff;" horiz-adv-x="921" 
d="M50 0v700h821v-700h-821zM491 367q12 0 16 7h1l2 -6h8v73h-11v-19q0 -5 1 -9h-1q-5 8 -15 8t-16 -7q-5 -8 -5 -20t5 -20q6 -7 15 -7zM643 434q0 -3 1 -5q1 -1 5 -1t5 1q1 2 1 5t-1 5q-1 1 -5 1t-5 -1q-1 -2 -1 -5zM171 368l20 57h1q0 -4 -1 -10v-47h11v69h-16l-20 -55
l-19 55h-16v-69h10v33q0 16 -1 25h1l20 -58h10zM351 376q-4 0 -5 2q-2 1 -2 6v28h15v8h-15v12h-7l-4 -11l-8 -4v-5h8v-29q0 -16 15 -16h6q1 0 2.5 0.5t2.5 1.5v8q-2 -1 -8 -1zM268 394q0 11 -7 20q-6 7 -18 7t-19 -7q-6 -7 -6 -20q0 -8 3 -14q3 -7 9 -10q4 -3 13 -3
q12 0 18 7q7 9 7 20zM318 383q0 2 -2 6q-1 2 -4 5q-7 3 -10 4l-4 2t-3.5 2t-2.5 1q-2 2 -2 4q0 5 9 5q5 0 14 -3l4 8q-8 4 -18 4t-15 -4q-5 -3 -5 -10q0 -6 3 -9q3 -4 12 -7l8 -4q3 0 3 -2q2 -2 2 -4q0 -6 -11 -6q-5 0 -17 4v-9q6 -3 17 -3t16 4q6 5 6 12zM412 368v35
q0 10 -5 14q-4 4 -15 4q-6 0 -9 -1q-6 -2 -10 -4l4 -8q3 3 7 3q3 1 8 1q6 0 7 -2q2 -2 2 -8v-2l-9 -1q-13 0 -18 -4q-6 -5 -6 -12q0 -8 4 -12t12 -4t10 1q3 2 8 7l3 -7h7zM457 421q-6 0 -9 -3q-6 -4 -7 -7h-1l-1 9h-9v-52h11v27q0 5 4 11q5 5 11 5q3 0 5 -1l1 11h-5z
M559 367h10l8 3v9l-9 -3q-1 0 -3.5 -0.5t-4.5 -0.5q-8 0 -11 5q-4 3 -4 11h35v6q0 12 -6 18t-17 6t-17 -7q-7 -7 -7 -21q0 -12 7 -19t19 -7zM629 383q0 4 -1 6t-4 5q-7 3 -10 4l-10 5q-2 2 -2 4q0 5 9 5q5 0 14 -3l4 8q-8 4 -18 4t-15 -4q-5 -3 -5 -10q0 -6 3 -9q3 -4 12 -7
q1 0 2.5 -1l3 -2t2.5 -1q3 0 3 -2q1 -1 1 -4q0 -6 -10 -6q-5 0 -17 4v-9q6 -3 17 -3t16 4t5 12zM699 420h-1q-2 1 -3 1h-5q-10 0 -15 -5q-6 -4 -6 -13q0 -6 3 -9q3 -5 7 -6q-1 0 -5 -4q-2 -2 -2 -5l1 -4q1 -3 4 -3q-4 -1 -8 -5q-3 -3 -3 -8q0 -7 5 -11q8 -4 17 -4q13 0 21 5
q7 4 7 14q0 7 -4 11q-4 3 -14 3h-9q-2 0 -4 1h-2q-2 2 -2 3q0 3 4 5h5q10 0 15 4q6 4 6 13q0 1 -1 3v2l-2 4l9 2v6h-18zM775 402q0 19 -19 19q-4 0 -10 -2q-4 -1 -7 -6l-2 7h-9v-52h12v26q0 10 3 14t10 4q5 0 8 -3q2 -2 2 -9v-32h12v34zM655 420h-12v-52h12v52zM680 403
q0 5 3 8q1 3 7 3t7 -3q3 -3 3 -8q0 -10 -10 -10q-3 0 -7 2q-3 3 -3 8zM557 413q4 0 8 -4t4 -10h-24q0 7 4 10q4 4 8 4zM229 394q0 9 4 13q3 5 10 5q13 0 13 -18t-13 -18q-14 0 -14 18zM494 376q-6 0 -9 4t-3 14q0 8 3 13t9 5q7 0 10 -4q4 -4 4 -14v-2q0 -9 -4 -12
q-3 -4 -10 -4zM388 375q-4 0 -6 2q-2 1 -2 6q0 4 3 7q6 2 12 2l6 1v-5q0 -6 -3 -9q-4 -4 -10 -4zM676 359q0 5 2 7q4 2 8 2h8q7 0 9 -2q3 -2 3 -5q0 -4 -5 -6q-5 -3 -13 -3q-5 0 -9 2q-3 2 -3 5zM649 250q10 0 15 8h1l2 -7h8v74h-11v-19q0 -1 0.5 -4t0.5 -5q-6 7 -16 7
t-16 -7q-5 -8 -5 -20t5 -20q6 -7 16 -7zM155 311h21v9h-52v-9h20v-60h11v60zM401 280h26v9h-26v22h28v9h-39v-69h11v29zM200 251l-2 -5q-3 -9 -11 -9h-6v-8q3 -1 7 -1q15 0 21 16l22 60h-12q-2 -8 -4.5 -14.5t-4 -10.5t-2.5 -7t-1 -4q-1 -2 -1 -6h-1q0 6 -3 12l-11 30h-12z
M268 250q8 0 15 7q6 7 6 20q0 14 -6 20q-4 7 -15 7t-16 -8l-2 8h-9v-76h11v29q6 -7 16 -7zM327 250q6 0 9 1q5 0 8 3v9q-4 -3 -8 -3q-3 -1 -9 -1q-7 0 -11 4q-4 6 -4 12h35v6q0 11 -6 17t-16 6q-12 0 -18 -7t-6 -20t6 -20q7 -7 20 -7zM489 277q0 13 -7 20q-6 7 -18 7t-18 -7
q-7 -6 -7 -20q0 -8 3 -14q3 -5 9 -10q6 -3 13 -3q11 0 18 7t7 20zM549 251v53h-11v-27q0 -9 -3 -14q-4 -4 -10 -4q-5 0 -8 3t-3 9v33h-11v-35q0 -9 5 -14t14 -5q4 0 10 2q5 4 7 6l2 -7h8zM613 285q0 19 -18 19q-7 0 -10 -2q-3 -1 -7 -5l-2 7h-9v-53h11v26q0 8 4 14q3 4 10 4
q5 0 8 -3q2 -4 2 -9v-32h11v34zM720 304q-6 0 -9 -2t-7 -8l-2 10h-9v-53h11v27q0 7 5 12q3 4 10 4h5l1 10h-5zM750 251l-2 -5q-3 -9 -11 -9h-6v-8q3 -1 7 -1q15 0 21 16l22 60h-12q-2 -8 -4.5 -14.5t-4 -10.5t-2.5 -7t-1 -4q-1 -2 -1 -6h-1q0 6 -3 12l-11 30h-12zM325 296
q5 0 8 -3q3 -5 3 -10h-24q2 6 4 10q3 3 9 3zM265 295q6 0 9 -4q3 -5 3 -14t-3 -13q-3 -5 -9 -5q-7 0 -10 5q-3 3 -3 13v2q0 9 3 12q3 4 10 4zM451 277q0 9 3 14q3 4 10 4q13 0 13 -18t-13 -18t-13 18zM652 259q-7 0 -10 5q-3 4 -3 13q0 8 3 14q4 4 9 4q7 0 11 -4q3 -5 3 -14
v-1q0 -8 -3 -13q-4 -4 -10 -4z" />
    <glyph glyph-name="a.alt" horiz-adv-x="595" 
d="M229 -11q-85 0 -143.5 44.5t-58.5 121.5q0 72 56.5 115.5t150.5 43.5q106 0 169 -29v19q0 55 -39.5 82.5t-97.5 27.5q-65 0 -119 -29q-39 -20 -58 16l-6 11q-18 38 14 58q76 49 184 49q61 0 107.5 -15t73 -37.5t43.5 -53.5t23 -59t6 -58v-254q0 -42 -43 -42h-44
q-42 0 -42 42v34q-20 -36 -69 -61.5t-107 -25.5zM258 85q39 0 81.5 17t67.5 53v59q-70 23 -149 23q-50 0 -75.5 -22t-25.5 -55q0 -30 25.5 -52.5t75.5 -22.5z" />
    <glyph glyph-name="aacute.alt" horiz-adv-x="595" 
d="M244 576q-13 0 -18 8t1 19l63 114q10 16 28 16h83q14 0 18 -8t-5 -20l-92 -116q-9 -13 -28 -13h-50zM229 -11q-85 0 -143.5 44.5t-58.5 121.5q0 72 56.5 115.5t150.5 43.5q106 0 169 -29v19q0 55 -39.5 82.5t-97.5 27.5q-65 0 -119 -29q-39 -20 -58 16l-6 11
q-18 38 14 58q76 49 184 49q61 0 107.5 -15t73 -37.5t43.5 -53.5t23 -59t6 -58v-254q0 -42 -43 -42h-44q-42 0 -42 42v34q-20 -36 -69 -61.5t-107 -25.5zM258 85q39 0 81.5 17t67.5 53v59q-70 23 -149 23q-50 0 -75.5 -22t-25.5 -55q0 -30 25.5 -52.5t75.5 -22.5z" />
    <glyph glyph-name="abreve.alt" horiz-adv-x="595" 
d="M282 576q-50 0 -93 29.5t-56 95.5q-4 24 20 27l33 3q18 3 26 -20q13 -53 70 -53t70 53q8 22 26 19l32 -3q12 -1 17 -12t0 -29q-16 -58 -57 -84t-88 -26zM229 -11q-85 0 -143.5 44.5t-58.5 121.5q0 72 56.5 115.5t150.5 43.5q106 0 169 -29v19q0 55 -39.5 82.5t-97.5 27.5
q-65 0 -119 -29q-39 -20 -58 16l-6 11q-18 38 14 58q76 49 184 49q61 0 107.5 -15t73 -37.5t43.5 -53.5t23 -59t6 -58v-254q0 -42 -43 -42h-44q-42 0 -42 42v34q-20 -36 -69 -61.5t-107 -25.5zM258 85q39 0 81.5 17t67.5 53v59q-70 23 -149 23q-50 0 -75.5 -22t-25.5 -55
q0 -30 25.5 -52.5t75.5 -22.5z" />
    <glyph glyph-name="acircumflex.alt" horiz-adv-x="595" 
d="M140 576q-14 0 -18.5 8t3.5 19l82 115q9 15 27 15h93q18 0 27 -15l83 -115q8 -11 3.5 -19t-18.5 -8h-39q-17 0 -28 12l-74 79l-74 -79q-11 -12 -28 -12h-39zM229 -11q-85 0 -143.5 44.5t-58.5 121.5q0 72 56.5 115.5t150.5 43.5q106 0 169 -29v19q0 55 -39.5 82.5
t-97.5 27.5q-65 0 -119 -29q-39 -20 -58 16l-6 11q-18 38 14 58q76 49 184 49q61 0 107.5 -15t73 -37.5t43.5 -53.5t23 -59t6 -58v-254q0 -42 -43 -42h-44q-42 0 -42 42v34q-20 -36 -69 -61.5t-107 -25.5zM258 85q39 0 81.5 17t67.5 53v59q-70 23 -149 23q-50 0 -75.5 -22
t-25.5 -55q0 -30 25.5 -52.5t75.5 -22.5z" />
    <glyph glyph-name="adieresis.alt" horiz-adv-x="595" 
d="M165 585q-31 0 -52 20t-21 49q0 30 21 50t52 20t52.5 -20t21.5 -50q0 -29 -21.5 -49t-52.5 -20zM394 585q-31 0 -51.5 20t-20.5 49q0 30 20.5 50t51.5 20q32 0 53.5 -20t21.5 -50q0 -29 -21.5 -49t-53.5 -20zM229 -11q-85 0 -143.5 44.5t-58.5 121.5q0 72 56.5 115.5
t150.5 43.5q106 0 169 -29v19q0 55 -39.5 82.5t-97.5 27.5q-65 0 -119 -29q-39 -20 -58 16l-6 11q-18 38 14 58q76 49 184 49q61 0 107.5 -15t73 -37.5t43.5 -53.5t23 -59t6 -58v-254q0 -42 -43 -42h-44q-42 0 -42 42v34q-20 -36 -69 -61.5t-107 -25.5zM258 85q39 0 81.5 17
t67.5 53v59q-70 23 -149 23q-50 0 -75.5 -22t-25.5 -55q0 -30 25.5 -52.5t75.5 -22.5z" />
    <glyph glyph-name="agrave.alt" horiz-adv-x="595" 
d="M272 576q-19 0 -28 13l-92 116q-9 12 -5 20t18 8h83q19 0 27 -16l63 -114q7 -11 2 -19t-18 -8h-50zM229 -11q-85 0 -143.5 44.5t-58.5 121.5q0 72 56.5 115.5t150.5 43.5q106 0 169 -29v19q0 55 -39.5 82.5t-97.5 27.5q-65 0 -119 -29q-39 -20 -58 16l-6 11q-18 38 14 58
q76 49 184 49q61 0 107.5 -15t73 -37.5t43.5 -53.5t23 -59t6 -58v-254q0 -42 -43 -42h-44q-42 0 -42 42v34q-20 -36 -69 -61.5t-107 -25.5zM258 85q39 0 81.5 17t67.5 53v59q-70 23 -149 23q-50 0 -75.5 -22t-25.5 -55q0 -30 25.5 -52.5t75.5 -22.5z" />
    <glyph glyph-name="amacron.alt" horiz-adv-x="595" 
d="M155 607q-23 0 -23 22v43q0 23 23 23h251q23 0 23 -23v-43q0 -22 -23 -22h-251zM229 -11q-85 0 -143.5 44.5t-58.5 121.5q0 72 56.5 115.5t150.5 43.5q106 0 169 -29v19q0 55 -39.5 82.5t-97.5 27.5q-65 0 -119 -29q-39 -20 -58 16l-6 11q-18 38 14 58q76 49 184 49
q61 0 107.5 -15t73 -37.5t43.5 -53.5t23 -59t6 -58v-254q0 -42 -43 -42h-44q-42 0 -42 42v34q-20 -36 -69 -61.5t-107 -25.5zM258 85q39 0 81.5 17t67.5 53v59q-70 23 -149 23q-50 0 -75.5 -22t-25.5 -55q0 -30 25.5 -52.5t75.5 -22.5z" />
    <glyph glyph-name="aogonek.alt" horiz-adv-x="595" 
d="M476 -223q-52 0 -94 29.5t-42 87.5q0 68 65 116v66q-20 -36 -69 -61.5t-107 -25.5q-85 0 -143.5 44.5t-58.5 121.5q0 72 56.5 115.5t150.5 43.5q106 0 169 -29v19q0 55 -39.5 82.5t-97.5 27.5q-65 0 -119 -29q-39 -20 -58 16l-6 11q-18 38 14 58q76 49 184 49
q61 0 107.5 -15t73 -37.5t43.5 -53.5t23 -59t6 -58v-254q0 -42 -43 -42h-29q-37 -40 -37 -82q0 -26 17.5 -42t40.5 -16q40 0 66 36q14 18 31 8l17 -10q20 -12 11 -31q-18 -40 -53.5 -63t-78.5 -23zM258 85q39 0 81.5 17t67.5 53v59q-70 23 -149 23q-50 0 -75.5 -22
t-25.5 -55q0 -30 25.5 -52.5t75.5 -22.5z" />
    <glyph glyph-name="aring.alt" horiz-adv-x="595" 
d="M280 576q-49 0 -82 31t-33 78q0 48 33 79.5t82 31.5t83 -31.5t34 -79.5q0 -47 -34 -78t-83 -31zM280 632q24 0 39.5 15t15.5 38t-15.5 38t-39.5 15q-23 0 -39 -15.5t-16 -37.5t16 -37.5t39 -15.5zM229 -11q-85 0 -143.5 44.5t-58.5 121.5q0 72 56.5 115.5t150.5 43.5
q106 0 169 -29v19q0 55 -39.5 82.5t-97.5 27.5q-65 0 -119 -29q-39 -20 -58 16l-6 11q-18 38 14 58q76 49 184 49q61 0 107.5 -15t73 -37.5t43.5 -53.5t23 -59t6 -58v-254q0 -42 -43 -42h-44q-42 0 -42 42v34q-20 -36 -69 -61.5t-107 -25.5zM258 85q39 0 81.5 17t67.5 53v59
q-70 23 -149 23q-50 0 -75.5 -22t-25.5 -55q0 -30 25.5 -52.5t75.5 -22.5z" />
    <glyph glyph-name="aringacute.alt" horiz-adv-x="595" 
d="M278 559q-44 0 -74.5 27.5t-30.5 70.5q0 34 19 58.5t50 34.5l40 69q8 12 22 12h67q11 0 14.5 -6.5t-3.5 -15.5l-52 -65q54 -27 54 -87q0 -43 -30.5 -70.5t-75.5 -27.5zM278 611q23 0 38 12.5t15 33.5q0 22 -15 34.5t-38 12.5t-38 -12.5t-15 -34.5q0 -21 15 -33.5
t38 -12.5zM229 -11q-85 0 -143.5 44.5t-58.5 121.5q0 72 56.5 115.5t150.5 43.5q106 0 169 -29v19q0 55 -39.5 82.5t-97.5 27.5q-65 0 -119 -29q-39 -20 -58 16l-6 11q-18 38 14 58q76 49 184 49q61 0 107.5 -15t73 -37.5t43.5 -53.5t23 -59t6 -58v-254q0 -42 -43 -42h-44
q-42 0 -42 42v34q-20 -36 -69 -61.5t-107 -25.5zM258 85q39 0 81.5 17t67.5 53v59q-70 23 -149 23q-50 0 -75.5 -22t-25.5 -55q0 -30 25.5 -52.5t75.5 -22.5z" />
    <glyph glyph-name="atilde.alt" horiz-adv-x="595" 
d="M174 605q-11 -20 -30 -14l-14 5q-21 8 -15 29q15 48 36.5 71t57.5 23q28 0 73.5 -22t59.5 -22q30 0 45 30q10 20 30 14l14 -5q22 -6 15 -29q-15 -48 -36.5 -71t-57.5 -23q-28 0 -73.5 22.5t-59.5 22.5q-29 0 -45 -31zM229 -11q-85 0 -143.5 44.5t-58.5 121.5
q0 72 56.5 115.5t150.5 43.5q106 0 169 -29v19q0 55 -39.5 82.5t-97.5 27.5q-65 0 -119 -29q-39 -20 -58 16l-6 11q-18 38 14 58q76 49 184 49q61 0 107.5 -15t73 -37.5t43.5 -53.5t23 -59t6 -58v-254q0 -42 -43 -42h-44q-42 0 -42 42v34q-20 -36 -69 -61.5t-107 -25.5z
M258 85q39 0 81.5 17t67.5 53v59q-70 23 -149 23q-50 0 -75.5 -22t-25.5 -55q0 -30 25.5 -52.5t75.5 -22.5z" />
    <glyph glyph-name="g.alt" horiz-adv-x="607" 
d="M295 519q96 0 153 -39q28 9 29 34q3 29 42 29h24q44 0 44 -37q0 -29 -18 -55t-60 -31q32 -43 32 -97q0 -92 -72 -142t-173 -50q-64 0 -116 20q-30 -25 -26 -45q6 -33 83 -35l178 -2q48 0 83.5 -14t53.5 -36.5t26.5 -44t8.5 -42.5q0 -69 -70 -118t-220 -49
q-290 0 -290 147q0 41 24.5 71.5t50.5 42.5q-31 25 -31 73q0 51 60 92q-60 57 -60 133q0 66 38 111.5t91.5 64.5t114.5 19zM299 228q52 0 84.5 25t32.5 71q0 47 -33.5 72.5t-84.5 25.5t-86.5 -26t-35.5 -71t34.5 -71t88.5 -26zM294 -146q69 0 120.5 16.5t51.5 45.5
q0 16 -15.5 29.5t-48.5 14.5q-163 4 -180 5q-42 3 -58 12q-18 -6 -29.5 -21.5t-11.5 -30.5q0 -71 171 -71z" />
    <glyph glyph-name="gbreve.alt" horiz-adv-x="607" 
d="M300 576q-50 0 -93 29.5t-56 95.5q-4 24 20 27l33 3q18 3 26 -20q13 -53 70 -53t70 53q8 22 26 19l32 -3q12 -1 17 -12t0 -29q-16 -58 -57 -84t-88 -26zM295 519q96 0 153 -39q28 9 29 34q3 29 42 29h24q44 0 44 -37q0 -29 -18 -55t-60 -31q32 -43 32 -97q0 -92 -72 -142
t-173 -50q-64 0 -116 20q-30 -25 -26 -45q6 -33 83 -35l178 -2q48 0 83.5 -14t53.5 -36.5t26.5 -44t8.5 -42.5q0 -69 -70 -118t-220 -49q-290 0 -290 147q0 41 24.5 71.5t50.5 42.5q-31 25 -31 73q0 51 60 92q-60 57 -60 133q0 66 38 111.5t91.5 64.5t114.5 19zM299 228
q52 0 84.5 25t32.5 71q0 47 -33.5 72.5t-84.5 25.5t-86.5 -26t-35.5 -71t34.5 -71t88.5 -26zM294 -146q69 0 120.5 16.5t51.5 45.5q0 16 -15.5 29.5t-48.5 14.5q-163 4 -180 5q-42 3 -58 12q-18 -6 -29.5 -21.5t-11.5 -30.5q0 -71 171 -71z" />
    <glyph glyph-name="gcircumflex.alt" horiz-adv-x="607" 
d="M158 576q-14 0 -18.5 8t3.5 19l82 115q9 15 27 15h93q18 0 27 -15l83 -115q8 -11 3.5 -19t-18.5 -8h-39q-17 0 -28 12l-74 79l-74 -79q-11 -12 -28 -12h-39zM295 519q96 0 153 -39q28 9 29 34q3 29 42 29h24q44 0 44 -37q0 -29 -18 -55t-60 -31q32 -43 32 -97
q0 -92 -72 -142t-173 -50q-64 0 -116 20q-30 -25 -26 -45q6 -33 83 -35l178 -2q48 0 83.5 -14t53.5 -36.5t26.5 -44t8.5 -42.5q0 -69 -70 -118t-220 -49q-290 0 -290 147q0 41 24.5 71.5t50.5 42.5q-31 25 -31 73q0 51 60 92q-60 57 -60 133q0 66 38 111.5t91.5 64.5
t114.5 19zM299 228q52 0 84.5 25t32.5 71q0 47 -33.5 72.5t-84.5 25.5t-86.5 -26t-35.5 -71t34.5 -71t88.5 -26zM294 -146q69 0 120.5 16.5t51.5 45.5q0 16 -15.5 29.5t-48.5 14.5q-163 4 -180 5q-42 3 -58 12q-18 -6 -29.5 -21.5t-11.5 -30.5q0 -71 171 -71z" />
    <glyph glyph-name="gcommaaccent.alt" horiz-adv-x="606" 
d="M304 575q-39 0 -59 27t-20 58q0 109 106 156q16 8 24 -9l5 -9q8 -15 -8 -24q-38 -18 -50 -46q-6 -15 -6 -31q7 3 14 3q27 2 45 -15.5t18 -42.5q1 -29 -18 -48t-51 -19zM295 519q96 0 153 -39q28 9 29 34q3 29 42 29h24q44 0 44 -37q0 -29 -18 -55t-60 -31q32 -43 32 -97
q0 -92 -72 -142t-173 -50q-64 0 -116 20q-30 -25 -26 -45q6 -33 83 -35l178 -2q48 0 83.5 -14t53.5 -36.5t26.5 -44t8.5 -42.5q0 -69 -70 -118t-220 -49q-290 0 -290 147q0 41 24.5 71.5t50.5 42.5q-31 25 -31 73q0 51 60 92q-60 57 -60 133q0 66 38 111.5t91.5 64.5
t114.5 19zM299 228q52 0 84.5 25t32.5 71q0 47 -33.5 72.5t-84.5 25.5t-86.5 -26t-35.5 -71t34.5 -71t88.5 -26zM294 -146q69 0 120.5 16.5t51.5 45.5q0 16 -15.5 29.5t-48.5 14.5q-163 4 -180 5q-42 3 -58 12q-18 -6 -29.5 -21.5t-11.5 -30.5q0 -71 171 -71z" />
    <glyph glyph-name="gdotaccent.alt" horiz-adv-x="607" 
d="M299 578q-34 0 -55.5 20t-21.5 52t21.5 53.5t55.5 21.5q33 0 55.5 -21.5t22.5 -53.5q0 -31 -22.5 -51.5t-55.5 -20.5zM295 519q96 0 153 -39q28 9 29 34q3 29 42 29h24q44 0 44 -37q0 -29 -18 -55t-60 -31q32 -43 32 -97q0 -92 -72 -142t-173 -50q-64 0 -116 20
q-30 -25 -26 -45q6 -33 83 -35l178 -2q48 0 83.5 -14t53.5 -36.5t26.5 -44t8.5 -42.5q0 -69 -70 -118t-220 -49q-290 0 -290 147q0 41 24.5 71.5t50.5 42.5q-31 25 -31 73q0 51 60 92q-60 57 -60 133q0 66 38 111.5t91.5 64.5t114.5 19zM299 228q52 0 84.5 25t32.5 71
q0 47 -33.5 72.5t-84.5 25.5t-86.5 -26t-35.5 -71t34.5 -71t88.5 -26zM294 -146q69 0 120.5 16.5t51.5 45.5q0 16 -15.5 29.5t-48.5 14.5q-163 4 -180 5q-42 3 -58 12q-18 -6 -29.5 -21.5t-11.5 -30.5q0 -71 171 -71z" />
    <glyph glyph-name="y.alt" horiz-adv-x="575" 
d="M69 -235q-58 0 -110 24q-38 17 -19 57l7 17q15 35 55 20q34 -12 60 -12q57 0 94.5 41t68.5 115l-191 431q-10 22 -0.5 36t33.5 14h54q36 0 48 -34l122 -309l117 309q13 34 50 34h53q23 0 32.5 -14t-0.5 -36l-174 -402q-4 -9 -16 -38t-19.5 -46.5t-23.5 -47t-30 -48.5
t-37 -42t-47 -36.5t-57 -23t-70 -9.5z" />
    <glyph glyph-name="yacute.alt" horiz-adv-x="575" 
d="M262 576q-13 0 -18 8t1 19l63 114q10 16 28 16h83q14 0 18 -8t-5 -20l-92 -116q-9 -13 -28 -13h-50zM69 -235q-58 0 -110 24q-38 17 -19 57l7 17q15 35 55 20q34 -12 60 -12q57 0 94.5 41t68.5 115l-191 431q-10 22 -0.5 36t33.5 14h54q36 0 48 -34l122 -309l117 309
q13 34 50 34h53q23 0 32.5 -14t-0.5 -36l-174 -402q-4 -9 -16 -38t-19.5 -46.5t-23.5 -47t-30 -48.5t-37 -42t-47 -36.5t-57 -23t-70 -9.5z" />
    <glyph glyph-name="ycircumflex.alt" horiz-adv-x="575" 
d="M146 576q-14 0 -18.5 8t3.5 19l82 115q9 15 27 15h93q18 0 27 -15l83 -115q8 -11 3.5 -19t-18.5 -8h-39q-17 0 -28 12l-74 79l-74 -79q-11 -12 -28 -12h-39zM69 -235q-58 0 -110 24q-38 17 -19 57l7 17q15 35 55 20q34 -12 60 -12q57 0 94.5 41t68.5 115l-191 431
q-10 22 -0.5 36t33.5 14h54q36 0 48 -34l122 -309l117 309q13 34 50 34h53q23 0 32.5 -14t-0.5 -36l-174 -402q-4 -9 -16 -38t-19.5 -46.5t-23.5 -47t-30 -48.5t-37 -42t-47 -36.5t-57 -23t-70 -9.5z" />
    <glyph glyph-name="ydieresis.alt" horiz-adv-x="575" 
d="M170 585q-31 0 -52 20t-21 49q0 30 21 50t52 20t52.5 -20t21.5 -50q0 -29 -21.5 -49t-52.5 -20zM399 585q-31 0 -51.5 20t-20.5 49q0 30 20.5 50t51.5 20q32 0 53.5 -20t21.5 -50q0 -29 -21.5 -49t-53.5 -20zM69 -235q-58 0 -110 24q-38 17 -19 57l7 17q15 35 55 20
q34 -12 60 -12q57 0 94.5 41t68.5 115l-191 431q-10 22 -0.5 36t33.5 14h54q36 0 48 -34l122 -309l117 309q13 34 50 34h53q23 0 32.5 -14t-0.5 -36l-174 -402q-4 -9 -16 -38t-19.5 -46.5t-23.5 -47t-30 -48.5t-37 -42t-47 -36.5t-57 -23t-70 -9.5z" />
    <glyph glyph-name="ygrave.alt" horiz-adv-x="575" 
d="M278 576q-19 0 -28 13l-92 116q-9 12 -5 20t18 8h83q19 0 27 -16l63 -114q7 -11 2 -19t-18 -8h-50zM69 -235q-58 0 -110 24q-38 17 -19 57l7 17q15 35 55 20q34 -12 60 -12q57 0 94.5 41t68.5 115l-191 431q-10 22 -0.5 36t33.5 14h54q36 0 48 -34l122 -309l117 309
q13 34 50 34h53q23 0 32.5 -14t-0.5 -36l-174 -402q-4 -9 -16 -38t-19.5 -46.5t-23.5 -47t-30 -48.5t-37 -42t-47 -36.5t-57 -23t-70 -9.5z" />
    <glyph glyph-name="zero.oldstyle" horiz-adv-x="672" 
d="M336 -11q-132 0 -212 76t-80 189t80 189t212 76t212.5 -76t80.5 -189t-80.5 -189t-212.5 -76zM336 94q76 0 121 46.5t45 113.5q0 66 -45 112.5t-121 46.5q-75 0 -120 -46.5t-45 -112.5q0 -67 45 -113.5t120 -46.5z" />
    <glyph glyph-name="one.oldstyle" horiz-adv-x="555" 
d="M111 0q-39 0 -39 39v28q0 39 39 39h130v259l-135 -49q-37 -12 -49 25l-8 27q-12 35 22 49l206 82q22 9 48 9h9q34 0 34 -39v-363h124q39 0 39 -39v-28q0 -39 -39 -39h-381z" />
    <glyph glyph-name="two.oldstyle" horiz-adv-x="604" 
d="M89 0q-39 0 -41 39v3q-1 31 25 48l263 171q45 28 61 46.5t16 43.5q0 68 -118 68q-85 0 -107 -44q-8 -13 -12.5 -18t-13 -10t-19.5 -5h-48q-21 0 -32 11t-5 31q15 57 73.5 96t166.5 39t175 -43t67 -120q0 -59 -40.5 -101.5t-129.5 -91.5l-102 -59v-5q86 7 132 7h118
q40 0 40 -40v-26q0 -40 -40 -40h-429z" />
    <glyph glyph-name="three.oldstyle" horiz-adv-x="604" 
d="M278 -131q-127 0 -215 55q-38 23 -7 61l12 14q23 29 61 10q68 -37 143 -37q73 0 118 36t45 85q0 46 -37.5 77t-95.5 31q-34 0 -60 -8q-42 -11 -57 15l-9 14q-15 29 13 51l157 136h-242q-44 0 -44 44v11q0 44 44 44h389q19 0 31.5 -9t12.5 -24v-11q0 -30 -26 -49
l-170 -136q90 1 154.5 -50t64.5 -138q0 -95 -74 -158.5t-208 -63.5z" />
    <glyph glyph-name="four.oldstyle" horiz-adv-x="658" 
d="M410 -122q-44 0 -44 43v116h-298q-43 0 -43 42v11q0 31 22 54l334 341q22 23 54 23h21q39 0 39 -44v-331h88q44 0 44 -44v-8q0 -44 -44 -44h-88v-116q0 -43 -44 -43h-41zM160 133h207v206z" />
    <glyph glyph-name="five.oldstyle" horiz-adv-x="600" 
d="M289 -132q-128 0 -217 59q-39 24 -7 61l12 14q24 29 62 9q69 -38 143 -38q70 0 113 33t43 85q0 49 -37.5 81.5t-100.5 32.5q-67 0 -122 -34q-32 -18 -60 -7l-23 11q-34 14 -32 52l17 238q3 43 45 43h346q44 0 44 -44v-15q0 -44 -44 -44h-278l-11 -151q63 47 150 47
q102 0 168 -58.5t66 -150.5q0 -97 -72.5 -160.5t-204.5 -63.5z" />
    <glyph glyph-name="six.oldstyle" horiz-adv-x="644" 
d="M340 -10q-137 0 -214 85.5t-77 228.5q0 147 81 243t230 96q101 0 176 -46q19 -13 19.5 -29.5t-16.5 -32.5l-12 -12q-25 -23 -61 -6q-42 20 -100 20q-82 0 -134.5 -52t-59.5 -139q-1 -8 -1 -24q27 48 80 74t110 26q99 0 169.5 -59t70.5 -155q0 -93 -72.5 -155.5
t-188.5 -62.5zM331 95q63 0 103 32.5t40 80.5q0 53 -40.5 84t-95.5 31q-66 0 -107.5 -32t-41.5 -84q0 -50 41.5 -81t100.5 -31z" />
    <glyph glyph-name="seven.oldstyle" horiz-adv-x="546" 
d="M150 -122q-22 0 -29.5 12.5t2.5 31.5l266 478h-329q-37 0 -37 38v32q0 38 37 38h436q37 0 37 -38v-21q0 -24 -11 -46l-267 -498q-13 -27 -44 -27h-61z" />
    <glyph glyph-name="eight.oldstyle" horiz-adv-x="660" 
d="M330 -10q-125 0 -204 53.5t-79 138.5q0 53 36.5 96t91.5 61q-44 18 -72.5 52.5t-28.5 75.5q0 76 71.5 126t184.5 50t184.5 -50t71.5 -126q0 -42 -28.5 -76.5t-72.5 -51.5q54 -18 91 -61.5t37 -95.5q0 -85 -79 -138.5t-204 -53.5zM331 375q58 0 92.5 24.5t34.5 61.5
q0 35 -35 56t-93 21t-93 -21t-35 -56q0 -38 35 -62t94 -24zM330 96q67 0 110 27t43 69q0 41 -42.5 68t-110.5 27q-70 0 -111.5 -27t-41.5 -68q0 -42 43 -69t110 -27z" />
    <glyph glyph-name="nine.oldstyle" horiz-adv-x="631" 
d="M278 -134q-101 0 -176 46q-19 13 -20 29.5t16 32.5l12 12q25 23 61 6q41 -19 100 -19q82 0 134.5 51.5t59.5 138.5q1 8 1 24q-27 -48 -80 -74t-110 -26q-98 0 -169 59t-71 155q0 93 72.5 155.5t189.5 62.5q137 0 214 -85.5t77 -228.5q0 -147 -81 -243t-230 -96zM299 186
q66 0 108 32.5t42 84.5q0 49 -41.5 80t-101.5 31q-62 0 -102.5 -32.5t-40.5 -80.5q0 -53 40.5 -84t95.5 -31z" />
    <glyph glyph-name="zero.taboldstyle" 
d="M340 -11q-132 0 -212 76t-80 189t80 189t212 76t212.5 -76t80.5 -189t-80.5 -189t-212.5 -76zM340 94q75 0 120.5 46.5t45.5 113.5q0 66 -45.5 112.5t-120.5 46.5t-120 -46.5t-45 -112.5q0 -67 45 -113.5t120 -46.5z" />
    <glyph glyph-name="one.taboldstyle" 
d="M173 0q-39 0 -39 39v28q0 39 39 39h130v259l-135 -49q-38 -13 -49 25l-9 27q-11 35 23 49l206 82q22 9 48 9h9q34 0 34 -39v-363h124q39 0 39 -39v-28q0 -39 -39 -39h-381z" />
    <glyph glyph-name="two.taboldstyle" 
d="M127 0q-39 0 -41 39v3q-1 31 24 48l264 171q45 28 61 46.5t16 43.5q0 68 -118 68q-84 0 -108 -44q-9 -14 -12.5 -18.5t-12 -9.5t-19.5 -5h-48q-21 0 -32 11t-6 31q16 57 74.5 96t166.5 39t175 -43t67 -120q0 -59 -40.5 -101.5t-129.5 -91.5l-102 -59v-5q86 7 132 7h117
q41 0 41 -40v-26q0 -40 -41 -40h-428z" />
    <glyph glyph-name="three.taboldstyle" 
d="M316 -131q-127 0 -215 55q-39 24 -7 61l11 14q24 29 62 10q66 -37 142 -37q74 0 119 36t45 85q0 46 -37.5 77t-95.5 31q-35 0 -61 -8q-40 -11 -57 15l-8 14q-15 29 13 51l157 136h-243q-44 0 -44 44v11q0 44 44 44h390q19 0 31 -9t12 -24v-11q0 -30 -25 -49l-171 -136
q90 1 155 -50t65 -138q0 -95 -74 -158.5t-208 -63.5z" />
    <glyph glyph-name="four.taboldstyle" 
d="M421 -122q-44 0 -44 43v116h-298q-44 0 -44 42v11q0 31 22 54l334 341q23 23 55 23h20q39 0 39 -44v-331h89q43 0 43 -44v-8q0 -44 -43 -44h-89v-116q0 -43 -44 -43h-40zM170 133h208v206z" />
    <glyph glyph-name="five.taboldstyle" 
d="M330 -132q-129 0 -218 59q-38 23 -7 61l12 14q24 29 62 9q71 -38 144 -38q70 0 113 33t43 85q0 49 -37.5 81.5t-100.5 32.5q-69 0 -122 -34q-33 -18 -61 -7l-23 11q-34 15 -32 52l17 238q3 43 45 43h346q44 0 44 -44v-15q0 -44 -44 -44h-278l-10 -151q60 47 149 47
q102 0 168.5 -58.5t66.5 -150.5q0 -97 -72.5 -160.5t-204.5 -63.5z" />
    <glyph glyph-name="six.taboldstyle" 
d="M357 -10q-137 0 -214 85.5t-77 228.5q0 147 81 243t230 96q101 0 176 -46q40 -26 4 -62l-12 -12q-24 -23 -62 -6q-42 20 -99 20q-82 0 -134.5 -52t-59.5 -139q-1 -8 -1 -24q27 48 80 74t110 26q99 0 169.5 -59t70.5 -155q0 -93 -72.5 -155.5t-189.5 -62.5zM348 95
q63 0 103.5 32.5t40.5 80.5q0 53 -40.5 84t-95.5 31q-66 0 -108 -32t-42 -84q0 -50 41.5 -81t100.5 -31z" />
    <glyph glyph-name="seven.taboldstyle" 
d="M216 -122q-21 0 -28.5 12.5t2.5 31.5l265 478h-328q-38 0 -38 38v32q0 38 38 38h435q37 0 37 -38v-21q0 -24 -11 -46l-266 -498q-14 -27 -45 -27h-61z" />
    <glyph glyph-name="eight.taboldstyle" 
d="M340 -10q-125 0 -204 53.5t-79 138.5q0 53 36.5 96t91.5 61q-44 18 -72.5 52.5t-28.5 75.5q0 76 71.5 126t184.5 50t184.5 -50t71.5 -126q0 -42 -28.5 -76.5t-72.5 -51.5q54 -18 91 -61.5t37 -95.5q0 -85 -79 -138.5t-204 -53.5zM341 375q58 0 92.5 24.5t34.5 61.5
q0 35 -35 56t-93 21t-93 -21t-35 -56q0 -38 35 -62t94 -24zM340 96q67 0 110 27t43 69q0 41 -42.5 68t-110.5 27q-70 0 -111.5 -27t-41.5 -68q0 -42 43 -69t110 -27z" />
    <glyph glyph-name="nine.taboldstyle" 
d="M301 -134q-101 0 -176 46q-40 26 -4 62l13 12q25 23 61 6q39 -19 99 -19q82 0 135 51.5t60 138.5q1 8 1 24q-27 -48 -80.5 -74t-110.5 -26q-98 0 -169 59t-71 155q0 93 72.5 155.5t189.5 62.5q137 0 214 -85.5t77 -228.5q0 -147 -81 -243t-230 -96zM322 186
q66 0 108 32.5t42 84.5q0 49 -41.5 80t-100.5 31q-63 0 -103.5 -32.5t-40.5 -80.5q0 -53 41 -84t95 -31z" />
    <glyph glyph-name="zero.tnum" 
d="M339 -11q-139 0 -222.5 103.5t-83.5 257.5q0 155 83.5 258.5t222.5 103.5q140 0 224.5 -104t84.5 -258t-84.5 -257.5t-224.5 -103.5zM339 98q82 0 131.5 72t49.5 180q0 109 -49.5 181t-131.5 72q-81 0 -130 -72t-49 -181q0 -108 49 -180t130 -72z" />
    <glyph glyph-name="one.tnum" 
d="M170 0q-43 0 -43 42v22q0 42 43 42h128v447l-112 -49q-41 -17 -54 25l-7 22q-12 38 24 55l183 83q22 9 46 11h13q36 0 36 -42v-552h121q43 0 43 -42v-22q0 -42 -43 -42h-378z" />
    <glyph glyph-name="two.tnum" 
d="M131 0q-38 0 -46 38l-1 10q-6 32 19 55l255 230q46 40 71 77t25 80q0 52 -35 82t-92 30q-96 0 -119 -68q-14 -37 -45 -37h-44q-22 0 -33 12t-6 32q14 71 75 120.5t174 49.5q114 0 182.5 -60t68.5 -161q0 -121 -129 -232l-176 -153l1 -4q46 5 151 5h140q42 0 42 -42v-22
q0 -42 -42 -42h-436z" />
    <glyph glyph-name="three.tnum" 
d="M312 -11q-134 0 -223 61q-31 22 -6 52l22 26q21 27 52 8q64 -37 149 -37q79 0 123 41t44 95t-40.5 88.5t-101.5 34.5q-39 0 -67 -13q-34 -12 -51 12l-11 14q-21 28 6 52l183 171h-260q-37 0 -37 37v32q0 37 37 37h409q37 0 37 -37v-12q0 -27 -21 -46l-183 -163
q23 0 42 -4q79 -12 132.5 -66t53.5 -139q0 -106 -76.5 -175t-212.5 -69z" />
    <glyph glyph-name="four.tnum" 
d="M417 0q-38 0 -38 39v141h-319q-39 0 -39 39v23q0 26 19 48l356 389q18 21 48 21h25q39 0 39 -39v-379h107q39 0 39 -39v-24q0 -39 -39 -39h-107v-141q0 -39 -39 -39h-52zM162 282h217v236z" />
    <glyph glyph-name="five.tnum" 
d="M324 -11q-127 0 -217 58q-36 23 -7 59l15 19q22 28 59 9q70 -35 148 -35q75 0 117.5 39t42.5 100q0 53 -39.5 89.5t-105.5 36.5q-64 0 -124 -33q-32 -18 -58 -7l-23 10q-34 15 -31 50l17 275q1 41 44 41h355q42 0 42 -42v-22q0 -42 -42 -42h-283l-13 -178q52 49 148 49
q107 0 173 -66t66 -161q0 -113 -75 -181t-209 -68z" />
    <glyph glyph-name="six.tnum" 
d="M360 -11q-138 0 -216.5 94.5t-78.5 252.5q0 163 81 269t230 106q107 0 181 -54q36 -25 2 -60l-16 -16q-25 -25 -59 -5q-42 25 -102 25q-85 0 -137.5 -63t-52.5 -171q65 93 187 93q102 0 173.5 -64.5t71.5 -168.5t-73 -171t-191 -67zM353 98q60 0 101.5 36t41.5 93
t-42 93.5t-102 36.5q-62 0 -105.5 -37t-43.5 -93t43.5 -92.5t106.5 -36.5z" />
    <glyph glyph-name="seven.tnum" 
d="M180 0q-22 0 -29 13t3 32l307 549h-334q-37 0 -37 37v32q0 37 37 37h441q37 0 37 -37v-20q0 -25 -11 -46l-305 -570q-15 -27 -45 -27h-64z" />
    <glyph glyph-name="eight.tnum" 
d="M340 -11q-126 0 -207.5 61t-81.5 156q0 57 39 103.5t96 65.5q-44 18 -74.5 56t-30.5 86q0 84 73 139t186 55q114 0 186 -55t72 -139q0 -48 -30 -86t-74 -56q55 -18 94.5 -64.5t39.5 -104.5q0 -94 -81.5 -155.5t-206.5 -61.5zM341 410q58 0 93 30.5t35 69.5t-36 66t-93 27
t-93.5 -27t-36.5 -66q0 -43 35.5 -71.5t95.5 -28.5zM340 98q69 0 112.5 33t43.5 81q0 46 -41.5 78.5t-113.5 32.5q-74 0 -115.5 -31t-41.5 -80q0 -48 43.5 -81t112.5 -33z" />
    <glyph glyph-name="nine.tnum" 
d="M322 711q138 0 216.5 -94.5t78.5 -252.5q0 -163 -81 -269t-230 -106q-105 0 -181 54q-34 25 -2 60l16 16q25 25 59 5q42 -25 102 -25q85 0 137.5 63t52.5 171q-64 -93 -187 -93q-101 0 -173 64.5t-72 168.5t73 171t191 67zM330 602q-61 0 -102 -36t-41 -93t41.5 -93.5
t101.5 -36.5q62 0 105.5 37t43.5 93t-43 92.5t-106 36.5z" />
    <glyph glyph-name="zero.dnom" horiz-adv-x="374" 
d="M187 -6q-72 0 -115.5 52.5t-43.5 129.5t43.5 129.5t115.5 52.5q73 0 116.5 -52t43.5 -130t-43.5 -130t-116.5 -52zM187 61q38 0 60 32t22 83t-22 83t-60 32t-59.5 -32t-21.5 -83t21.5 -83t59.5 -32z" />
    <glyph glyph-name="one.dnom" horiz-adv-x="221" 
d="M119 0q-16 0 -16 16v252l-59 -25q-16 -8 -21 9l-9 27q-6 14 9 22l105 48q9 4 21 4h15q16 0 16 -16v-321q0 -16 -16 -16h-45z" />
    <glyph glyph-name="two.dnom" horiz-adv-x="334" 
d="M51 0q-15 0 -18 15l-3 16q-3 13 8 21l137 120q41 35 41 71q0 23 -14 36t-38 13q-45 0 -55 -38q-4 -16 -17 -16h-46q-18 0 -16 17q6 42 39.5 72.5t95.5 30.5q58 0 93 -32.5t35 -80.5q0 -67 -67 -121l-76 -61h142q17 0 17 -16v-31q0 -16 -17 -16h-241z" />
    <glyph glyph-name="three.dnom" horiz-adv-x="326" 
d="M149 -6q-69 0 -117 36q-14 10 -3 23l19 25q9 11 24 3q36 -24 78 -24q31 0 50.5 17.5t19.5 41.5q0 26 -19.5 43.5t-45.5 17.5q-19 0 -35 -5q-15 -5 -22 5l-12 14q-9 13 3 23l90 79h-127q-16 0 -16 16v28q0 16 16 16h217q17 0 17 -16v-14q0 -12 -9 -20l-87 -80
q47 -4 76.5 -34.5t29.5 -73.5q0 -52 -39.5 -86.5t-107.5 -34.5z" />
    <glyph glyph-name="four.dnom" horiz-adv-x="347" 
d="M200 0q-17 0 -17 16v75h-153q-16 0 -16 16v14q0 12 8 20l171 203q7 9 20 9h30q16 0 16 -16v-190h55q16 0 16 -17v-23q0 -16 -16 -16h-55v-75q0 -16 -16 -16h-43zM94 147h92v104z" />
    <glyph glyph-name="five.dnom" horiz-adv-x="324" 
d="M154 -6q-67 0 -115 36q-14 9 -2 23l18 24q9 12 24 3q34 -23 75 -23q36 0 53.5 18t17.5 46q0 23 -17 41.5t-48 18.5q-34 0 -62 -16q-12 -6 -23 -1l-25 12q-11 6 -11 19l8 142q0 16 17 16h192q17 0 17 -16v-28q0 -16 -17 -16h-144l-5 -76q22 17 69 17q54 0 89.5 -33
t35.5 -80q0 -57 -39 -92t-108 -35z" />
    <glyph glyph-name="six.dnom" horiz-adv-x="343" 
d="M179 -6q-70 0 -110 47.5t-40 127.5q0 82 42 136t117 54q60 0 102 -35q11 -11 -1 -23l-23 -21q-11 -9 -23 0q-24 18 -54 18q-34 0 -60 -30t-28 -78q15 21 42 31.5t53 10.5q47 0 84 -33t37 -84q0 -53 -38.5 -87t-99.5 -34zM178 57q28 0 46 16t18 43q0 28 -17.5 44.5
t-46.5 16.5q-30 0 -49.5 -17t-19.5 -43q0 -27 19.5 -43.5t49.5 -16.5z" />
    <glyph glyph-name="seven.dnom" horiz-adv-x="293" 
d="M65 0q-9 0 -12.5 6t0.5 14l145 273h-163q-16 0 -16 16v28q0 16 16 16h232q17 0 17 -16v-17q0 -9 -5 -21l-147 -287q-6 -12 -18 -12h-49z" />
    <glyph glyph-name="eight.dnom" horiz-adv-x="351" 
d="M175 -6q-64 0 -106 31.5t-42 80.5q0 27 20.5 50.5t54.5 32.5q-27 7 -43.5 27.5t-16.5 41.5q0 43 37.5 71.5t95.5 28.5t95.5 -28.5t37.5 -71.5q0 -22 -16 -42t-44 -27q34 -9 55 -32.5t21 -50.5q0 -49 -42.5 -80.5t-106.5 -31.5zM175 210q27 0 42 13t15 33q0 18 -15.5 30
t-41.5 12q-25 0 -41 -12t-16 -30q0 -19 15 -32.5t42 -13.5zM175 54q32 0 52 16t20 38q0 24 -19 38t-53 14t-53 -15t-19 -37t20 -38t52 -16z" />
    <glyph glyph-name="nine.dnom" horiz-adv-x="342" 
d="M154 -6q-61 0 -101 35q-13 11 1 23l23 21q10 10 23 0q24 -18 53 -18q34 0 60.5 30t28.5 78q-31 -42 -95 -42q-47 0 -84 33t-37 84q0 53 38.5 87t98.5 34q71 0 111 -47.5t40 -127.5q0 -82 -42.5 -136t-117.5 -54zM165 176q30 0 49 17t19 43q0 27 -19 43.5t-49 16.5
q-28 0 -46.5 -16t-18.5 -43q0 -28 18 -44.5t47 -16.5z" />
    <glyph glyph-name="zero.numr" horiz-adv-x="374" 
d="M187 341q-72 0 -115.5 52.5t-43.5 129.5t43.5 129.5t115.5 52.5q73 0 116.5 -52t43.5 -130q0 -77 -43.5 -129.5t-116.5 -52.5zM187 408q38 0 60 32t22 83t-22 83t-60 32t-59.5 -32t-21.5 -83t21.5 -83t59.5 -32z" />
    <glyph glyph-name="one.numr" horiz-adv-x="221" 
d="M119 347q-16 0 -16 16v252l-59 -25q-16 -8 -21 9l-9 27q-6 14 9 22l105 48q9 4 21 4h15q16 0 16 -16v-321q0 -16 -16 -16h-45z" />
    <glyph glyph-name="two.numr" horiz-adv-x="334" 
d="M51 347q-15 0 -18 15l-3 16q-3 13 8 21l137 120q41 35 41 71q0 23 -14 36t-38 13q-45 0 -55 -38q-4 -16 -17 -16h-46q-18 0 -16 17q6 42 39.5 72.5t95.5 30.5q58 0 93 -32.5t35 -80.5q0 -67 -67 -121l-76 -61h142q17 0 17 -16v-31q0 -16 -17 -16h-241z" />
    <glyph glyph-name="three.numr" horiz-adv-x="326" 
d="M150 341q-70 0 -118 36q-14 10 -3 23l20 25q8 12 24 3q36 -24 77 -24q31 0 50.5 17.5t19.5 41.5q0 26 -19.5 43.5t-45.5 17.5q-19 0 -35 -5q-15 -5 -22 5l-11 14q-10 13 2 23l90 79h-126q-17 0 -17 16v28q0 16 17 16h217q16 0 16 -16v-14q0 -12 -9 -20l-87 -80
q48 -4 77 -34.5t29 -73.5q0 -52 -39.5 -86.5t-106.5 -34.5z" />
    <glyph glyph-name="four.numr" horiz-adv-x="347" 
d="M200 347q-17 0 -17 16v75h-153q-16 0 -16 16v14q0 12 8 20l171 203q8 9 20 9h30q16 0 16 -16v-190h55q16 0 16 -17v-23q0 -16 -16 -16h-55v-75q0 -16 -16 -16h-43zM94 494h92v104z" />
    <glyph glyph-name="five.numr" horiz-adv-x="324" 
d="M154 341q-67 0 -115 36q-14 9 -2 23l18 24q9 12 24 3q35 -23 75 -23q36 0 53.5 18t17.5 46q0 23 -17 41.5t-48 18.5q-34 0 -62 -16q-12 -6 -23 -1l-25 12q-11 6 -11 19l8 142q0 16 17 16h192q17 0 17 -16v-28q0 -16 -17 -16h-144l-5 -76q22 17 69 17q54 0 89.5 -33
t35.5 -80q0 -57 -39 -92t-108 -35z" />
    <glyph glyph-name="six.numr" horiz-adv-x="343" 
d="M179 340q-70 0 -110 47.5t-40 126.5q0 82 42 136.5t117 54.5q60 0 102 -35q11 -11 -1 -24l-23 -20q-10 -10 -23 -1q-23 19 -54 19q-34 0 -60 -30t-28 -78q15 21 42 31.5t53 10.5q47 0 84 -33t37 -84q0 -53 -38.5 -87t-99.5 -34zM178 403q28 0 46 16t18 43t-18 44t-46 17
q-30 0 -49.5 -17t-19.5 -44t19.5 -43t49.5 -16z" />
    <glyph glyph-name="seven.numr" horiz-adv-x="292" 
d="M64 347q-9 0 -12.5 6t0.5 14l145 273h-163q-16 0 -16 16v28q0 16 16 16h232q17 0 17 -16v-17q0 -12 -5 -21l-146 -287q-8 -12 -19 -12h-49z" />
    <glyph glyph-name="eight.numr" horiz-adv-x="351" 
d="M175 341q-64 0 -106 31.5t-42 80.5q0 27 20.5 50.5t54.5 32.5q-27 7 -43.5 27.5t-16.5 41.5q0 43 37.5 71.5t95.5 28.5t95.5 -28.5t37.5 -71.5q0 -22 -16 -42t-44 -27q34 -9 55 -32.5t21 -50.5q0 -49 -42.5 -80.5t-106.5 -31.5zM175 557q27 0 42 13t15 33q0 18 -15.5 30
t-41.5 12q-25 0 -41 -12t-16 -30q0 -19 15 -32.5t42 -13.5zM175 401q32 0 52 16t20 38q0 24 -19 38t-53 14t-53 -15t-19 -37t20 -38t52 -16z" />
    <glyph glyph-name="nine.numr" horiz-adv-x="342" 
d="M154 340q-63 0 -101 35q-12 10 1 23l23 20q10 11 23 1q22 -18 53 -18q34 0 60.5 29.5t28.5 77.5q-31 -42 -95 -42q-47 0 -84 33t-37 84q0 53 38.5 87.5t98.5 34.5q71 0 111 -48t40 -127q0 -82 -42.5 -136t-117.5 -54zM165 521q30 0 49 17.5t19 43.5q0 27 -19 43.5
t-49 16.5q-29 0 -47 -16t-18 -44q0 -27 18 -44t47 -17z" />
    <glyph glyph-name="periodcentered.case" horiz-adv-x="296" 
d="M148 269q-37 0 -61.5 23t-24.5 58t24.5 58.5t61.5 23.5q36 0 61 -24t25 -58t-25 -57.5t-61 -23.5z" />
    <glyph glyph-name="bullet.case" horiz-adv-x="403" 
d="M201 219q-54 0 -92 38t-38 93q0 54 38 92.5t92 38.5q55 0 93.5 -38.5t38.5 -92.5t-38.5 -92.5t-93.5 -38.5z" />
    <glyph glyph-name="exclamdown.case" horiz-adv-x="288" 
d="M145 711q36 0 61 -23.5t25 -57.5t-25 -58t-61 -24q-37 0 -61.5 23.5t-24.5 58.5t24.5 58t61.5 23zM132 472h24q33 0 36 -33l29 -380v-25q0 -34 -35 -34h-84q-35 0 -35 34v25l29 380q3 33 36 33z" />
    <glyph glyph-name="questiondown.case" horiz-adv-x="531" 
d="M293 711q37 0 61.5 -23t24.5 -58t-24.5 -58.5t-61.5 -23.5q-36 0 -61 24t-25 58t25 57.5t61 23.5zM325 472q23 0 23 -19v-8q-2 -43 -13 -63.5t-53 -46.5q-64 -40 -90.5 -71.5t-26.5 -73.5q0 -43 30 -68t81 -25q46 0 74 22t28 61v10q-2 23 20 23h71q22 0 25 -19
q3 -14 3 -28q0 -66 -58 -121.5t-167 -55.5q-103 0 -170 53.5t-67 140.5q0 40 15.5 75.5t45 64t51.5 45t55 38.5q2 1 3.5 2t3.5 2.5t4 2.5q24 17 24 37v7q0 15 21 15h67z" />
    <glyph glyph-name="comma.dnom" horiz-adv-x="178" 
d="M65 -74q-12 -5 -17 7l-3 5q-5 9 7 17q36 18 38 50q-3 -1 -10 -1q-16 -1 -26.5 10.5t-10.5 26.5q-1 19 10.5 32t33.5 13q27 0 38 -18t11 -38q0 -75 -71 -104z" />
    <glyph glyph-name="period.dnom" horiz-adv-x="178" 
d="M89 -6q-20 0 -35 12.5t-15 31.5t15 31.5t35 12.5t35 -12.5t15 -31.5t-15 -31.5t-35 -12.5z" />
    <glyph glyph-name="comma.numr" horiz-adv-x="178" 
d="M65 269q-12 -5 -17 7l-3 5q-5 11 7 17q36 18 38 50l-10 -1q-16 0 -26.5 11.5t-10.5 26.5q-1 19 10.5 31.5t33.5 12.5q27 0 38 -18t11 -38q0 -75 -71 -104z" />
    <glyph glyph-name="period.numr" horiz-adv-x="178" 
d="M89 341q-20 0 -35 12.5t-15 31.5t15 31.5t35 12.5t35 -12.5t15 -31.5t-15 -31.5t-35 -12.5z" />
    <glyph glyph-name="braceleft.case" horiz-adv-x="367" 
d="M234 -135q-71 0 -118 36.5t-47 107.5q0 47 30.5 138t33.5 105q13 48 -44 57l-26 5q-21 3 -21 24v24q0 21 19 24l28 5q29 5 40 18t4 39q-3 12 -33.5 104t-30.5 139q0 71 47.5 107.5t117.5 36.5q29 0 72 -5q22 -1 22 -24v-37q0 -24 -25 -21q-40 3 -53 3q-64 0 -64 -71
q0 -41 30 -121t30 -114q0 -82 -76 -94v-3q38 -5 57 -33t19 -60q0 -34 -30 -114t-30 -121q0 -71 64 -71q12 0 53 3q25 3 25 -21v-37q0 -22 -26 -24q-42 -5 -68 -5z" />
    <glyph glyph-name="braceright.case" horiz-adv-x="367" 
d="M132 -135q-26 0 -68 5q-25 1 -25 24v37q0 24 25 21q40 -3 52 -3q65 0 65 71q0 41 -30 121t-30 114q0 32 19 60t57 33v3q-76 12 -76 94q0 34 30 114t30 121q0 71 -65 71q-12 0 -52 -3q-25 -3 -25 21v37q0 23 22 24q42 5 71 5q70 0 117.5 -36.5t47.5 -107.5
q0 -47 -30.5 -139t-33.5 -104q-6 -26 4.5 -39t39.5 -18l29 -5q18 -3 18 -24v-24q0 -21 -21 -24l-25 -5q-29 -5 -40 -17.5t-5 -39.5q3 -14 33.5 -105t30.5 -138q0 -71 -47 -107.5t-118 -36.5z" />
    <glyph glyph-name="bracketleft.case" horiz-adv-x="380" 
d="M99 -132q-27 0 -27 27v911q0 28 27 28h220q27 0 27 -28v-43q0 -27 -27 -27h-127v-770h127q27 0 27 -28v-43q0 -27 -27 -27h-220z" />
    <glyph glyph-name="bracketright.case" horiz-adv-x="380" 
d="M61 -132q-28 0 -28 27v43q0 28 28 28h127v770h-127q-28 0 -28 27v43q0 28 28 28h220q27 0 27 -28v-911q0 -27 -27 -27h-220z" />
    <glyph glyph-name="parenleft.case" horiz-adv-x="342" 
d="M258 -136q-22 -13 -38 6q-28 32 -54.5 73t-56 101.5t-47 140.5t-17.5 166q0 85 17.5 165t47 140.5t55.5 101t55 74.5q16 18 38 5l36 -21q23 -14 9 -38q-133 -211 -133 -428q0 -212 133 -428q14 -23 -9 -37z" />
    <glyph glyph-name="parenright.case" horiz-adv-x="342" 
d="M122 -132q-17 -19 -38 -5l-36 20q-23 14 -9 38q133 210 133 428t-133 428q-14 24 9 38l36 21q22 13 38 -5q29 -33 55.5 -74t55.5 -101.5t46.5 -140.5t17.5 -165q0 -86 -17.5 -166t-46.5 -140.5t-55.5 -101.5t-55.5 -74z" />
    <glyph glyph-name="parenleft.dnom" horiz-adv-x="206" 
d="M145 -63q-13 -8 -23 2q-34 41 -61 103t-27 134t27.5 134.5t61.5 101.5q9 12 23 3l16 -12q12 -9 5 -22q-60 -105 -60 -206q0 -100 60 -205q7 -13 -5 -22z" />
    <glyph glyph-name="parenright.dnom" horiz-adv-x="206" 
d="M83 -61q-9 -11 -23 -2l-16 11q-12 9 -5 22q59 103 59 205q0 103 -59 206q-8 14 5 22l16 12q13 9 23 -3q33 -38 60.5 -101t27.5 -135t-27 -134.5t-61 -102.5z" />
    <glyph glyph-name="parenleft.numr" horiz-adv-x="205" 
d="M145 278q-13 -8 -23 2q-33 38 -60.5 101t-27.5 136q0 71 27 133t61 103q11 13 23 2l17 -11q13 -10 5 -22q-60 -101 -60 -206q0 -104 60 -205q8 -14 -6 -22z" />
    <glyph glyph-name="parenright.numr" horiz-adv-x="204" 
d="M83 280q-10 -10 -23 -2l-17 11q-13 8 -5 22q60 105 60 205q0 101 -60 206q-8 12 5 22l16 11q14 11 23 -2q34 -40 61.5 -102t27.5 -134t-27.5 -135t-60.5 -102z" />
    <glyph glyph-name="emdash.case" horiz-adv-x="804" 
d="M89 293q-23 0 -23 23v69q0 23 23 23h626q23 0 23 -23v-69q0 -23 -23 -23h-626z" />
    <glyph glyph-name="endash.case" horiz-adv-x="584" 
d="M89 293q-23 0 -23 23v69q0 23 23 23h406q23 0 23 -23v-69q0 -23 -23 -23h-406z" />
    <glyph glyph-name="hyphen.case" horiz-adv-x="479" 
d="M89 293q-23 0 -23 23v69q0 23 23 23h301q23 0 23 -23v-69q0 -23 -23 -23h-301z" />
    <glyph glyph-name="hyphen.dnom" horiz-adv-x="282" 
d="M64 139q-23 0 -23 23v17q0 23 23 23h153q23 0 23 -23v-17q0 -23 -23 -23h-153z" />
    <glyph glyph-name="hyphen.numr" horiz-adv-x="282" 
d="M64 479q-23 0 -23 22v17q0 23 23 23h153q23 0 23 -23v-17q0 -22 -23 -22h-153z" />
    <glyph glyph-name="guillemotleft.case" horiz-adv-x="612" 
d="M258 132q-17 -15 -32 3l-168 191q-10 11 -10 26q0 11 10 22l168 193q15 17 32 2l39 -34q18 -14 2 -32l-131 -153l131 -151q15 -18 -2 -33zM498 132q-18 -16 -32 3l-168 191q-11 11 -11 26q0 11 11 22l168 193q15 18 32 2l39 -34q17 -14 2 -32l-132 -153l131 -151
q16 -18 -1 -33z" />
    <glyph glyph-name="guillemotright.case" horiz-adv-x="612" 
d="M114 132l-39 34q-17 15 -2 33l131 151l-131 153q-16 18 2 32l39 34q17 15 32 -2l168 -193q11 -13 11 -22q0 -13 -11 -26l-168 -191q-15 -18 -32 -3zM353 132l-38 34q-17 15 -2 33l131 151l-132 153q-15 18 2 32l39 34q18 15 33 -2l168 -193q10 -11 10 -22q0 -15 -10 -26
l-168 -191q-15 -18 -33 -3z" />
    <glyph glyph-name="guilsinglleft.case" horiz-adv-x="372" 
d="M258 132q-17 -15 -32 3l-168 191q-10 11 -10 26q0 11 10 22l168 193q15 17 32 2l39 -34q18 -14 2 -32l-131 -153l131 -151q15 -18 -2 -33z" />
    <glyph glyph-name="guilsinglright.case" horiz-adv-x="372" 
d="M114 132l-39 34q-17 15 -2 33l131 151l-131 153q-16 18 2 32l39 34q17 15 32 -2l168 -193q11 -13 11 -22q0 -13 -11 -26l-168 -191q-15 -18 -32 -3z" />
    <glyph glyph-name="cent.case" horiz-adv-x="566" 
d="M240 -7q-26 0 -21 25l14 82q-88 25 -139 92.5t-51 155.5q0 110 73.5 186t198.5 82l12 1l13 70q3 20 24 20h16q26 0 21 -25l-13 -71q65 -12 118 -48q17 -13 5 -32l-35 -46q-13 -17 -32 -5q-33 20 -75 26l-56 -310q69 -10 131 27q19 12 32 -5l35 -46q13 -19 -5 -32
q-90 -61 -213 -50l-14 -76q-3 -21 -24 -21h-15zM254 214l53 293q-60 -10 -97.5 -52.5t-37.5 -102.5q0 -96 82 -138z" />
    <glyph glyph-name="cent.dnom" horiz-adv-x="301" 
d="M132 -37q-17 0 -14 16l5 35q-44 13 -70.5 47t-26.5 80q0 55 38 92.5t99 40.5l5 36q3 14 17 14h5q17 0 14 -16l-5 -37q34 -4 64 -23q13 -8 5 -21l-13 -23q-9 -13 -21 -4q-19 12 -44 15l-21 -148q35 0 60 16q14 9 22 -3l17 -24q9 -14 -4 -21q-53 -32 -104 -27l-4 -32
q-3 -13 -17 -13h-7zM134 77l18 136q-22 -8 -37 -27.5t-15 -44.5q0 -39 34 -64z" />
    </font>
</defs>
</svg>
